<svg xmlns="http://www.w3.org/2000/svg" width="266" height="141" viewBox="0 0 266 141">
    <g fill="none">
        <path fill="#1A82FF" d="M75.502 71.324s-2.269-6.64-8.494-7.802L83.913 38.65c13.529 0 22.16 9.767 22.16 9.767l-30.57 22.907zM79.071 85.158s4.897 11.011-6.889 25.702l32.425 5.395s15.245-17.568 11.814-36.27l-37.35 5.173z" transform="translate(.682)"/>
        <path fill="#0070E0" d="M73.953 72.957c27.113-29.244 118.551-74.645 170.15-65.985.165.028.331.11.525.249.664.498 1.106 1.577.996 2.38-.028.22-.083.387-.194.525C215.44 52.954 118.94 86.32 79.071 85.158c-.664-.083-1.356-.415-2.075-.941-2.518-1.909-4.233-5.976-3.818-9.102.083-.913.387-1.633.775-2.158zM102.615 111.496c-8.742-5.671-25.204-6.778-38.429 4.123-1.3 1.05-2.213 2.822-2.517 5.284-.775 6.17 2.545 14.165 7.525 17.956 1.964 1.494 3.873 2.102 5.533 1.909 17.043-1.799 27.805-14.304 29.908-24.513.166-1.632-.72-3.763-2.02-4.759z" transform="translate(.682)"/>
        <path fill="#1A82FF" d="M42.8 86.569c14.497-5.644 30.793-7.526 30.793-7.526L96.53 66.095s-34.39 7.913-54.476 14.636l.747 5.838z" transform="translate(.682)"/>
        <path fill="#EBEFF2" d="M245.264 9.573c-.166.055-.36.027-.553-.139-.415-.304-.692-.996-.636-1.494.027-.249.138-.415.304-.498L264.714.166l-19.45 9.407z" transform="translate(.682)"/>
        <path fill="#1A82FF" d="M159.72 53.203c-3.293-4.371-5.645-9.932-6.475-15.327 6.64-2.822 13.557-5.644 20.252-8.273.775 5.257 3.071 10.735 6.336 14.968-6.668 2.96-13.39 5.837-20.114 8.632z" transform="translate(.682)"/>
        <path fill="#EBEFF2" d="M139.716 61.198c-3.126-4.205-5.367-9.517-6.197-14.663 6.419-2.905 13.03-5.81 19.726-8.66.83 5.396 3.182 10.957 6.474 15.328-6.723 2.794-13.446 5.45-20.003 7.995z" transform="translate(.682)"/>
        <path fill="#1A82FF" d="M121.54 67.95c-2.85-3.874-4.787-8.467-5.59-13.226 5.617-2.71 11.482-5.45 17.541-8.216.858 5.145 3.099 10.457 6.198 14.663-6.198 2.434-12.284 4.675-18.15 6.778z" transform="translate(.682)"/>
        <path fill="#EBEFF2" d="M121.54 67.95c-5.59 1.991-10.957 3.845-16.02 5.505-2.324-3.265-4.011-7.249-4.73-11.178 4.73-2.434 9.821-4.98 15.16-7.553.803 4.76 2.74 9.352 5.59 13.225zM153.245 37.876c-.36-2.38-.443-4.76-.166-6.945.581-4.62 2.684-7.58 5.506-8.77 6.612-2.6 13.307-4.98 19.975-7.083-2.656 1.135-4.62 3.874-5.201 8.245-.25 1.992-.194 4.122.11 6.28-6.667 2.629-13.612 5.45-20.224 8.273z" transform="translate(.682)"/>
        <path fill="#1A82FF" d="M138.637 30.765c6.502-3.043 13.17-5.92 19.92-8.576-2.822 1.19-4.897 4.122-5.506 8.77-.276 2.186-.22 4.537.166 6.944-6.695 2.85-13.307 5.755-19.726 8.66-.387-2.435-.498-4.842-.193-7.083.58-4.62 2.545-7.553 5.34-8.715z" transform="translate(.682)"/>
        <path fill="#EBEFF2" d="M115.95 54.752c-.387-2.296-.553-4.73-.276-6.833.553-4.261 2.435-7 5.035-8.107 5.727-3.098 11.786-6.197 17.956-9.102-2.794 1.162-4.786 4.178-5.367 8.743-.277 2.24-.194 4.648.193 7.082-6.059 2.74-11.924 5.506-17.54 8.217z" transform="translate(.682)"/>
        <path fill="#1A82FF" d="M100.79 62.305c-.388-2.158-.499-4.288-.25-6.28.47-3.735 2.158-6.142 4.455-7.11 4.924-3.071 10.209-6.142 15.714-9.13-2.6 1.079-4.482 3.845-5.035 8.106-.277 2.102-.11 4.537.277 6.833-5.34 2.601-10.43 5.119-15.162 7.581zM105.52 73.455c1.273 1.77 2.712 3.32 4.289 4.537 3.043 2.324 5.976 2.822 8.3 1.854 5.671-1.356 11.537-2.988 17.54-4.814-2.628 1.106-5.976.498-9.434-2.13-1.688-1.273-3.292-3.072-4.648-4.925-5.616 1.964-10.984 3.818-16.047 5.478z" transform="translate(.682)"/>
        <path fill="#EBEFF2" d="M139.716 61.198c1.467 1.965 3.099 3.68 4.87 5.036 3.707 2.822 7.331 3.513 10.153 2.324-6.419 2.38-12.837 4.51-19.09 6.446-2.628 1.107-5.976.498-9.434-2.13-1.688-1.273-3.292-3.071-4.648-4.925 5.838-2.103 11.924-4.344 18.15-6.75z" transform="translate(.682)"/>
        <path fill="#1A82FF" d="M154.711 68.53c6.696-2.49 13.419-5.229 20.031-8.19-2.85 1.19-6.446.637-10.237-2.24-1.743-1.328-3.375-3.016-4.814-4.925-6.695 2.822-13.418 5.478-19.975 8.023 1.467 1.965 3.099 3.68 4.87 5.036 3.734 2.822 7.303 3.486 10.125 2.296z" transform="translate(.682)"/>
        <path fill="#EBEFF2" d="M159.72 53.203c1.438 1.909 3.042 3.596 4.813 4.924 3.763 2.878 7.387 3.431 10.237 2.241 6.501-2.905 12.92-6.003 19.09-9.323-2.684 1.134-6.115.664-9.656-2.048-1.577-1.19-3.043-2.71-4.371-4.426-6.668 2.96-13.39 5.837-20.114 8.632z" transform="translate(.682)"/>
        <path fill="#1A82FF" d="M80.925 130.78c2.905-1.162 5.616-2.462 8.078-3.818.526.58 1.08 1.079 1.688 1.522 2.186 1.66 4.288 2.047 5.948 1.355.36-.138.692-.36.996-.608-1.632 1.798-3.513 3.513-5.671 5.035-.388.304-.803.498-1.245.692-1.992.83-4.538.36-7.166-1.66-.913-.664-1.798-1.55-2.628-2.518z" transform="translate(.682)"/>
        <path fill="#EBEFF2" d="M72.1 133.768c3.07-.83 6.058-1.854 8.825-2.96.83.968 1.715 1.826 2.628 2.545 2.628 1.992 5.174 2.49 7.166 1.66.442-.194.857-.387 1.245-.692-2.767 1.965-5.949 3.625-9.518 4.814-1.992.609-4.454 0-7-1.909-1.189-.968-2.323-2.13-3.347-3.458zM70.799 111.247c3.181-1.632 6.418-2.711 9.6-3.347-.36.055-.692.138-1.024.276-1.964.83-3.403 2.96-3.818 6.17-.166 1.217-.027 2.462.111 3.79-2.767 1.19-5.616 2.629-8.383 4.233-.249-1.687-.304-3.347-.11-4.87.414-3.153 1.77-5.283 3.624-6.252z" transform="translate(.682)"/>
        <path fill="#1A82FF" d="M67.285 122.397c2.794-1.632 5.616-3.043 8.383-4.233.47 4.427 2.352 9.213 5.23 12.644-2.768 1.134-5.728 2.13-8.827 2.96-2.407-3.182-4.177-7.387-4.786-11.371zM75.696 118.164c2.85-1.245 5.616-2.241 8.3-3.071-.028-.775 0-1.55.083-2.296.332-2.684 1.521-4.427 3.154-5.119.442-.193.94-.304 1.438-.332-2.434-.11-4.98.028-7.553.47-.608.028-1.19.167-1.743.388-1.964.83-3.403 2.96-3.818 6.17-.138 1.217 0 2.462.139 3.79z" transform="translate(.682)"/>
        <path fill="#EBEFF2" d="M80.925 130.78c2.905-1.162 5.616-2.462 8.078-3.818-2.85-3.071-4.814-7.72-5.035-11.897-2.684.803-5.45 1.826-8.3 3.071.47 4.455 2.38 9.24 5.257 12.644z" transform="translate(.682)"/>
        <path fill="#0070E0" d="M83.747 37.212c-8.743-5.672-25.205-6.779-38.43 4.122-1.3 1.051-2.212 2.822-2.517 5.284-.774 6.17 2.546 14.165 7.525 17.956 1.965 1.494 3.874 2.102 5.534 1.909C72.9 64.684 83.664 52.179 85.766 41.97c.194-1.632-.691-3.762-2.02-4.758z" transform="translate(.682)"/>
        <path fill="#1A82FF" d="M62.084 56.495c2.905-1.162 5.616-2.462 8.078-3.818.526.581 1.08 1.08 1.688 1.522 2.186 1.66 4.288 2.047 5.948 1.355.36-.138.692-.36.996-.608-1.632 1.798-3.513 3.513-5.671 5.035-.388.304-.803.498-1.245.692-1.992.83-4.538.36-7.166-1.66-.94-.692-1.826-1.55-2.628-2.518z" transform="translate(.682)"/>
        <path fill="#EBEFF2" d="M53.258 59.483c3.071-.83 6.06-1.854 8.826-2.96.83.968 1.715 1.826 2.628 2.545 2.628 1.992 5.174 2.49 7.166 1.66.442-.194.857-.387 1.245-.692-2.767 1.965-5.949 3.625-9.518 4.814-1.992.61-4.454 0-7-1.909-1.189-.968-2.323-2.13-3.347-3.458zM51.958 36.963c3.181-1.633 6.418-2.712 9.6-3.348-.36.055-.692.138-1.024.277-1.964.83-3.403 2.96-3.818 6.17-.166 1.217-.027 2.462.111 3.79-2.767 1.19-5.616 2.628-8.383 4.233-.249-1.688-.304-3.348-.11-4.87.415-3.154 1.742-5.284 3.624-6.252z" transform="translate(.682)"/>
        <path fill="#1A82FF" d="M48.444 48.112c2.794-1.632 5.616-3.043 8.383-4.233.47 4.427 2.352 9.213 5.23 12.644-2.768 1.134-5.728 2.13-8.827 2.96-2.407-3.182-4.177-7.415-4.786-11.37z" transform="translate(.682)"/>
        <path fill="#1A82FF" d="M56.827 43.88c2.85-1.246 5.616-2.242 8.3-3.072-.028-.774 0-1.55.083-2.296.332-2.684 1.522-4.427 3.154-5.118.443-.194.94-.305 1.439-.332-2.435-.111-4.98.027-7.553.47-.609.028-1.19.166-1.743.387-1.965.83-3.403 2.96-3.818 6.17-.11 1.217 0 2.462.138 3.79z" transform="translate(.682)"/>
        <path fill="#EBEFF2" d="M62.084 56.495c2.905-1.162 5.616-2.462 8.078-3.818-2.85-3.07-4.814-7.719-5.035-11.896-2.684.802-5.45 1.826-8.3 3.07.47 4.455 2.352 9.241 5.257 12.644z" transform="translate(.682)"/>
        <path fill="#0070E0" d="M41.223 79.763c-8.742-5.672-25.204-6.779-38.429 4.122-1.3 1.051-2.213 2.822-2.517 5.284-.775 6.17 2.545 14.166 7.525 17.956 1.964 1.494 3.873 2.103 5.533 1.909 17.043-1.798 27.805-14.304 29.908-24.513.166-1.632-.72-3.762-2.02-4.758z" transform="translate(.682)"/>
        <path fill="#1A82FF" d="M19.533 99.046c2.905-1.162 5.616-2.462 8.078-3.818.526.581 1.08 1.08 1.688 1.522 2.186 1.66 4.288 2.047 5.948 1.356.36-.139.692-.36.996-.609-1.632 1.798-3.513 3.514-5.671 5.035-.388.305-.803.498-1.245.692-1.992.83-4.538.36-7.166-1.66-.913-.664-1.826-1.55-2.628-2.518z" transform="translate(.682)"/>
        <path fill="#EBEFF2" d="M10.707 102.034c3.071-.83 6.059-1.853 8.826-2.96.83.968 1.715 1.826 2.628 2.545 2.628 1.992 5.174 2.49 7.166 1.66.442-.193.857-.387 1.245-.691-2.767 1.964-5.949 3.624-9.518 4.814-1.992.608-4.454 0-7-1.91-1.189-.968-2.323-2.13-3.347-3.458zM9.407 79.514c3.181-1.633 6.418-2.712 9.6-3.348-.36.055-.692.138-1.024.277-1.964.83-3.403 2.96-3.818 6.17-.166 1.217-.027 2.462.111 3.79-2.767 1.19-5.616 2.628-8.383 4.233-.249-1.688-.304-3.348-.11-4.87.414-3.154 1.77-5.284 3.624-6.252z" transform="translate(.682)"/>
        <path fill="#1A82FF" d="M5.893 90.663c2.794-1.632 5.616-3.043 8.383-4.233.47 4.427 2.352 9.213 5.229 12.644-2.767 1.134-5.727 2.13-8.826 2.96-2.407-3.181-4.177-7.387-4.786-11.37zM14.304 86.43c2.85-1.245 5.616-2.24 8.3-3.07-.028-.775 0-1.55.083-2.297.332-2.684 1.521-4.427 3.154-5.118.442-.194.94-.305 1.438-.332-2.434-.11-4.98.027-7.553.47-.608.028-1.19.166-1.743.387-1.964.83-3.403 2.96-3.818 6.17-.138 1.217 0 2.462.139 3.79z" transform="translate(.682)"/>
        <path fill="#EBEFF2" d="M19.533 99.046c2.905-1.162 5.616-2.462 8.078-3.818-2.85-3.07-4.814-7.719-5.035-11.896-2.684.802-5.45 1.826-8.3 3.07.47 4.455 2.38 9.241 5.257 12.644z" transform="translate(.682)"/>
        <path fill="#111D28" d="M245.292 10.292l-.028-.72s-42.385 36.189-121.76 58.405c-21.58 6.059-37.295 10.458-48.749 13.667.609 1.024 1.356 1.909 2.213 2.545.72.554 1.44.858 2.075.941 0 0 4.787 10.79-6.529 25.26-2.85 1.272-5.672 3.015-8.355 5.2-1.3 1.052-2.214 2.823-2.518 5.285v.11c-.194 3.155.304 6.226 1.3 8.965.747 1.992 1.771 3.873 2.988 5.533 2.407 3.154 5.561 5.174 8.77 5.23 2.74-.277 5.34-.858 7.747-1.633h.028c.028 0 .055-.028.11-.028l1.163-.415c.055-.027.11-.027.138-.055.387-.138.775-.304 1.162-.443.028-.027.083-.027.11-.055l1.163-.498c.027 0 .027-.028.055-.028.387-.193.775-.36 1.162-.553 0 0 .028 0 .028-.028.387-.193.747-.387 1.106-.58.028-.028.056-.028.083-.056.36-.194.692-.387 1.024-.609.028-.027.083-.055.11-.083.333-.193.665-.415.969-.608.055-.028.083-.056.138-.083.222-.139.443-.305.664-.443.111-.083.222-.138.332-.221.028-.028.056-.028.083-.056.222-.166.47-.332.692-.498l.055-.055c.222-.166.415-.332.637-.498.055-.055.11-.083.166-.138.221-.166.442-.36.636-.526.221-.194.443-.36.636-.553.056-.056.111-.111.166-.139.194-.166.36-.332.554-.498.027-.027.055-.055.083-.055l.58-.581.139-.138.498-.498c.028-.028.055-.056.083-.111.194-.194.36-.387.553-.581l.056-.055c3.707-4.123 6.086-8.77 6.972-13.031 0 0 15.078-17.375 11.869-35.995.58-.055 1.106-.193 1.632-.415.083-.027.194-.055.277-.055.525-.138 1.05-.249 1.604-.387.11-.028.25-.056.36-.083.636-.166 1.245-.305 1.881-.47.139-.028.277-.084.443-.111.553-.139 1.079-.277 1.632-.415.139-.028.25-.056.388-.11.636-.167 1.272-.333 1.909-.527.138-.027.276-.083.442-.11.554-.139 1.107-.305 1.633-.47.138-.028.276-.084.415-.111.636-.194 1.3-.36 1.936-.554.139-.055.277-.083.443-.138l1.66-.498c.138-.028.277-.083.415-.11.277-.084.58-.167.858-.25.442-.083.857-.22 1.245-.387.11-.028.249-.083.36-.11.442-.139.885-.277 1.3-.416 5.533-1.715 11.204-3.624 16.848-5.727-.138.028-.249.083-.387.111.138-.055.25-.083.387-.138.194-.056.388-.139.554-.194.055-.028.11-.028.138-.055.72-.277 1.466-.554 2.186-.83.138-.056.304-.11.442-.166.747-.277 1.467-.554 2.214-.858.027 0 .027-.028.055-.028.747-.304 1.494-.58 2.241-.885.166-.055.304-.11.47-.194.72-.304 1.467-.58 2.186-.885.138-.055.25-.11.387-.166.692-.277 1.356-.553 2.048-.858.083-.027.193-.083.276-.11.72-.305 1.467-.609 2.186-.913.166-.056.304-.139.47-.194.72-.304 1.467-.636 2.186-.94.083-.028.166-.084.25-.111.69-.305 1.355-.609 2.046-.913.083-.028.166-.083.25-.11.055-.029.082-.029.138-.056.72-.305 1.41-.637 2.13-.969.138-.055.304-.138.443-.193.691-.305 1.355-.637 2.047-.94.055-.029.11-.056.138-.056.72-.332 1.411-.664 2.13-.996.167-.083.305-.139.471-.222.692-.332 1.411-.664 2.103-1.023.083-.056.193-.083.276-.139.637-.304 1.273-.636 1.91-.94.138-.056.248-.139.387-.194.691-.332 1.383-.692 2.047-1.024.138-.083.277-.138.443-.22.664-.333 1.328-.693 1.992-1.025.027-.027.083-.055.11-.055.692-.36 1.384-.72 2.048-1.079.083-.055.166-.083.249-.138 21.856-11.73 40.836-25.675 51.515-40.836z" opacity=".2" transform="translate(.682)"/>
    </g>
</svg>
