<svg xmlns="http://www.w3.org/2000/svg" width="746" height="375" viewBox="0 0 746 375">
    <g fill="#FFF">
        <path d="M680.657 40.725L689.04 62.167 20.845 318.636 17.526 282.393z" opacity=".9" transform="translate(.083 .279)"/>
        <path d="M672.606 49.357L677.503 61.89 23.889 311 21.952 289.807z" transform="translate(.083 .279)"/>
        <path d="M737.512 75.087L745.923 96.501 21.952 373.886 18.605 337.643z" opacity=".9" transform="translate(.083 .279)"/>
        <path d="M732.587 82.363L737.346 94.537 20.818 365.448 18.909 344.808z" transform="translate(.083 .279)"/>
        <path d="M719.501 0L727.884 21.442 3.941 298.827 0.594 262.556z" opacity=".9" transform="translate(.083 .279)"/>
        <path d="M716.015 5.506L721.825 20.39 23.059 285.685 20.735 260.508z" transform="translate(.083 .279)"/>
    </g>
</svg>
