<svg xmlns="http://www.w3.org/2000/svg" xmlns:xlink="http://www.w3.org/1999/xlink" width="150" height="150" viewBox="0 0 150 150">
    <defs>
        <radialGradient id="prefix__c" cx="49.345%" cy="49.707%" r="49.372%" fx="49.345%" fy="49.707%">
            <stop offset="83.08%" stop-color="#1A82FF" stop-opacity=".9"/>
            <stop offset="100%" stop-color="#1A82FF" stop-opacity=".5"/>
        </radialGradient>
        <circle id="prefix__a" cx="75.042" cy="75.014" r="70.791"/>
    </defs>
    <g fill="none" fill-rule="evenodd">
        <circle cx="75.042" cy="75.014" r="74.958" fill="#FFF" fill-rule="nonzero"/>
        <mask id="prefix__b" fill="#fff">
            <use xlink:href="#prefix__a"/>
        </mask>
        <use fill="#111D28" fill-rule="nonzero" xlink:href="#prefix__a"/>
        <g mask="url(#prefix__b)">
            <g fill-rule="nonzero">
                <g transform="translate(-42.09 -41.384)">
                    <circle cx="81.045" cy="80.918" r="64.718" fill="url(#prefix__c)" opacity=".8"/>
                    <g>
                        <circle cx="81.043" cy="80.923" r="57.217" fill="#0971D8" transform="rotate(-45 81.043 80.923)"/>
                        <path fill="#1A82FF" d="M118.983 38.08c-22.472-19.93-56.864-19.14-78.39 2.386-21.695 21.68-22.33 56.44-1.92 78.898.508.664 1.059 1.286 1.638 1.865 5.96 5.946 15.833 7.966 28.22 4.647 24.887-6.667 50.494-32.373 57.203-57.416 3.376-12.584 1.328-22.598-4.689-28.615-.65-.622-1.342-1.215-2.062-1.766z"/>
                        <path fill="#FFF" d="M97.034 25.975c-19.393-5.622-41.158-.791-56.44 14.491-16.201 16.187-20.65 39.661-13.39 59.859l.028-.028c1.017 2.768 2.514 5.14 4.449 7.076 5.579 5.565 14.802 7.458 26.384 4.35 23.29-6.229 47.246-30.282 53.517-53.715 3.15-11.765 1.243-21.144-4.393-26.765-2.627-2.613-6.06-4.421-10.155-5.268z" opacity=".2"/>
                        <path fill="#FFF" d="M46.257 74.647c-6.144 1.652-11.031.65-13.997-2.302-2.994-2.98-3.997-7.952-2.33-14.195 3.333-12.43 16.03-25.17 28.375-28.489 6.144-1.653 11.031-.65 13.997 2.302 2.995 2.98 3.997 7.952 2.33 14.195-3.318 12.43-16.03 25.184-28.375 28.489z" opacity=".2"/>
                        <path fill="#046BB2" d="M135.042 81.285c-6.3 23.503-30.339 47.642-53.7 53.899-5.198 1.398-9.915 1.78-14.054 1.285 18.814 4.647 39.52-.381 54.223-15.085 15.184-15.183 20.057-36.794 14.59-56.087.848 4.59.552 9.971-1.059 15.988z"/>
                    </g>
                </g>
                <g transform="translate(-42.09 -41.384) translate(91.808 98.164)">
                    <g>
                        <path fill="#FFF" d="M.085 19.322c-.184 1.525.904 2.91 2.43 3.093 1.525.184 2.909-.904 3.092-2.43l1.031-8.784c.184-1.526-.904-2.91-2.429-3.094-1.525-.183-2.91.904-3.093 2.43L.085 19.322z" transform="translate(44.633 25.706)"/>
                        <path fill="#FFF" d="M2.316 8.56c-1.257.89-1.553 2.626-.678 3.884.876 1.257 2.628 1.553 3.885.677l7.231-5.113c1.257-.89 1.554-2.627.678-3.884-.876-1.257-2.627-1.553-3.884-.678L2.316 8.56z" transform="translate(44.633 25.706)"/>
                        <path fill="#98A7B4" d="M9.859 2.585c-1.512 1.06-1.879 3.15-.805 4.66 1.059 1.512 3.15 1.88 4.66.806l2.797-1.963c1.512-1.06 1.879-3.15.805-4.661-1.059-1.512-3.15-1.879-4.66-.806L9.858 2.585z" transform="translate(44.633 25.706)"/>
                        <path fill="#98A7B4" d="M12.43 6.158c-.594-.099-1.173.297-1.272.89-.099.593.297 1.172.89 1.271l4.11.72c.593.1 1.173-.296 1.271-.89.1-.593-.296-1.172-.89-1.27l-4.11-.72z" transform="translate(44.633 25.706)"/>
                        <path fill="#2E3F53" d="M.452 16.243l-.367 3.079c-.184 1.525.904 2.91 2.43 3.093 1.525.184 2.909-.904 3.092-2.43l.368-3.078-5.523-.664z" transform="translate(44.633 25.706)"/>
                        <path fill="#C2CBD3" d="M2.7 11.687L4.239 11.687 4.239 17.252 2.7 17.252z" transform="translate(44.633 25.706) rotate(-83.2 3.47 14.47)"/>
                    </g>
                    <path fill="#FFF" d="M31.624 21.455c-2.881.692-4.647 3.601-3.94 6.469.692 2.881 3.601 4.647 6.469 3.94l7.203-1.751c2.881-.692 4.647-3.602 3.94-6.469-.706-2.867-3.601-4.647-6.468-3.94l-7.204 1.75zM41.073 8.347l1.837 3.122c.692 1.172 2.203 1.568 3.375.876l6.328-3.73c2.5-1.468 3.333-4.703 1.864-7.203l-.423-.72-12.98 7.655z"/>
                    <path fill="#FFF" d="M38.94 22.048c-.536 2.218.82 4.45 3.037 4.986 2.218.537 4.45-.82 4.986-3.037l2.74-11.229c.537-2.217-.819-4.449-3.036-4.986-2.218-.536-4.45.82-4.986 3.037l-2.74 11.229z"/>
                    <path fill="#C2CBD3" d="M40.028 17.585l-1.087 4.463c-.537 2.218.819 4.45 3.036 4.986 2.218.537 4.45-.82 4.986-3.037l1.088-4.463-8.023-1.95z"/>
                    <path fill="#C2CBD3" d="M43.641 11.402L45.915 11.402 45.915 19.651 43.641 19.651z" transform="rotate(-76.29 44.778 15.526)"/>
                    <path fill="#D4DDDB" d="M39.862 3.793L54.933 3.793 54.933 4.669 39.862 4.669z" transform="rotate(-30.483 47.398 4.23)"/>
                    <path fill="#C2CBD3" d="M40.692 31.737l-2.839-4.082c-2.81-4.025-8.347-5.028-12.373-2.217-4.025 2.81-5.028 8.347-2.217 12.373l2.839 4.082 14.59-10.156z"/>
                    <path fill="#FFF" d="M27.119 43.362l5.607 7.952c2.81 4.025 8.347 5.028 12.373 2.217 4.025-2.81 5.028-8.347 2.217-12.373l-5.607-7.952-14.59 10.156z"/>
                    <path fill="#98A7B4" d="M24.73 35.778L42.512 35.778 42.512 38.519 24.73 38.519z" transform="rotate(-34.826 33.62 37.149)"/>
                    <path fill="#C2CBD3" d="M36.637 39.924L44.857 39.924 44.857 47.438 36.637 47.438z" transform="rotate(-34.826 40.747 43.68)"/>
                    <circle cx="49.684" cy="58.026" r="9.251" fill="#FFF" transform="rotate(-42.069 49.684 58.026)"/>
                    <path fill="#1A82FF" d="M55.89 64.887c3.785-3.418 4.096-9.266.664-13.05-3.433-3.786-9.266-4.097-13.051-.665-3.8 3.404 8.602 17.133 12.387 13.715z"/>
                    <path fill="#FFF" d="M55.89 64.887c-1.413 1.271-3.122 2.034-4.873 2.288.932-.395 1.808-.946 2.613-1.652 3.785-3.418 4.096-9.266.664-13.051-2.147-2.373-5.24-3.376-8.192-2.952 3.517-1.483 7.74-.664 10.452 2.33 3.418 3.771 3.121 9.619-.664 13.037z" opacity=".2"/>
                    <g>
                        <path fill="#FFF" d="M21.412 15.523c1.54-.043 2.74-1.328 2.698-2.868-.042-1.54-1.328-2.74-2.867-2.697l-8.842.296c-1.54.043-2.74 1.328-2.698 2.867.043 1.54 1.328 2.74 2.868 2.698l8.841-.296z" transform="translate(13.277 39.266)"/>
                        <path fill="#FFF" d="M10.41 14.958c1.059 1.115 2.824 1.158 3.94.084 1.116-1.073 1.158-2.824.085-3.94l-6.13-6.384c-1.06-1.116-2.825-1.159-3.94-.085-1.116 1.06-1.159 2.825-.085 3.94l6.13 6.385z" transform="translate(13.277 39.266)"/>
                        <path fill="#98A7B4" d="M3.376 8.404c1.27 1.328 3.39 1.384 4.731.099 1.328-1.271 1.385-3.39.1-4.732L5.846 1.3c-1.27-1.327-3.39-1.384-4.731-.098-1.342 1.285-1.384 3.39-.1 4.731l2.36 2.472z" transform="translate(13.277 39.266)"/>
                        <path fill="#98A7B4" d="M6.525 5.325c-.014.607.467 1.116 1.074 1.116s1.116-.466 1.116-1.074l.099-4.166C8.828.593 8.347.085 7.74.085S6.624.55 6.624 1.158l-.099 4.167z" transform="translate(13.277 39.266)"/>
                        <path fill="#2E3F53" d="M18.32 15.621l3.092-.098c1.54-.043 2.74-1.328 2.698-2.868-.042-1.54-1.328-2.74-2.867-2.697l-3.093.098.17 5.565z" transform="translate(13.277 39.266)"/>
                        <path fill="#C2CBD3" d="M15.352 10.127H16.892V15.692H15.352z" transform="translate(13.277 39.266) rotate(-1.794 16.122 12.91)"/>
                    </g>
                    <path fill="#FFF" d="M34.223 50.777c-.395.014-.748.141-1.017.381-.268.24-.41.58-.395.96.014.34.127.622.353.834l.014.014.042.042c.014.015.029.029.043.029.07.056.141.099.212.141l1.497-1.596c.113.113.17.268.183.452.014.24-.084.424-.254.55-.155.114-.353.17-.621.184-.1 0-.198 0-.283-.014l-.438.466c.212.1.466.142.735.127.395-.014.762-.14 1.017-.367.268-.24.41-.579.395-.96-.014-.325-.127-.622-.353-.834 0 0-.014-.014-.028-.014l-.014-.014c-.029-.028-.057-.042-.07-.07-.072-.057-.142-.1-.213-.142l-1.497 1.596c-.113-.113-.184-.268-.184-.452-.014-.437.311-.72.876-.734.099 0 .198 0 .297.014l.438-.466c-.212-.085-.466-.127-.735-.127zM19.816 32.853c.48 2.924 3.249 4.887 6.159 4.407 2.91-.48 4.887-3.249 4.406-6.158l-1.214-7.303c-.48-2.923-3.249-4.887-6.159-4.406-2.923.48-4.887 3.248-4.406 6.158l1.214 7.302zM7.43 22.486l3.248-1.61c1.229-.608 1.723-2.077 1.116-3.305l-3.249-6.596C7.26 8.375 4.11 7.302 1.497 8.588l-.748.367 6.68 13.53z"/>
                    <path fill="#FFF" d="M20.932 25.607c2.161.707 4.492-.494 5.198-2.655.706-2.161-.494-4.492-2.655-5.198l-10.99-3.56c-2.16-.705-4.49.495-5.197 2.656-.706 2.161.494 4.492 2.656 5.198l10.988 3.56z"/>
                    <path fill="#C2CBD3" d="M16.568 24.195l4.364 1.412c2.161.707 4.492-.494 5.198-2.655.706-2.161-.494-4.492-2.655-5.198l-4.365-1.412-2.542 7.853z"/>
                    <path fill="#C2CBD3" d="M10.752 18.171L19.001 18.171 19.001 20.444 10.752 20.444z" transform="rotate(-72.085 14.876 19.308)"/>
                    <path fill="#D4DDDB" d="M3.361 8.331L4.237 8.331 4.237 23.402 3.361 23.402z" transform="rotate(-26.276 3.799 15.866)"/>
                </g>
                <path fill="#FFF" d="M86.893 156.95c-2.048 0-3.998-.184-5.834-.58-4.915-1.031-8.7-3.39-10.918-6.822-1.836-2.825-3.319-7.867 0-15.777 2.387-5.678 6.413-10.763 9.393-13.63 2.98-2.867 4.435-5.395 4.308-7.514-.085-1.54-.96-2.867-2.712-4.209-1.667-1.257-3.771-1.95-5.805-2.613-1.54-.508-3.136-1.017-4.548-1.794-2.09-1.144-3.263-2.4-3.56-3.856-.353-1.709.664-4.096 3.263-5.183 2.048-.848 4.365-.706 6.413-.565l-.029.325c-2.005-.127-4.28-.283-6.257.536-2.344.975-3.404 3.207-3.065 4.817.283 1.356 1.399 2.542 3.39 3.644 1.384.763 2.966 1.271 4.492 1.765 2.062.664 4.195 1.37 5.904 2.656 1.85 1.398 2.754 2.81 2.853 4.449.127 2.26-1.314 4.802-4.407 7.782-2.952 2.84-6.95 7.882-9.322 13.517-3.263 7.783-1.822 12.712-.028 15.466 2.175 3.362 5.875 5.664 10.706 6.681 14.816 3.093 32.994-6.991 42.5-13.29l.184.282c-13.758 9.11-26.61 13.912-36.921 13.912z" transform="translate(-42.09 -41.384)"/>
                <g>
                    <g transform="translate(-42.09 -41.384) translate(71.186 73.446) translate(10.452 21.893)">
                        <path fill="#FBFBFB" d="M3.446 6.907h-.198c-.098 0-.197 0-.282-.014-.07.028-.155.056-.226.084 0 0 .58.085 1.215-.17-.17.043-.34.086-.509.1z"/>
                        <path fill="#720C11" d="M.41 4.534c0-.918.536-1.71 1.327-2.133-.96.353-1.624 1.2-1.624 2.218 0 1.666 1.158 2.373 2.57 2.373h.085C1.455 6.892.41 6.144.41 4.534z"/>
                        <path fill="#FBFBFB" d="M.89 4.45c0-1.06.635-1.964 1.525-2.317C1.257 2.4.395 3.376.395 4.52v.141c.142-.07.311-.127.48-.184.029 0 .015-.014.015-.028z"/>
                        <path fill="#ED2A28" d="M2.726 6.977c.085-.028.155-.056.226-.084C1.808 6.75.904 5.734.89 4.492c-.17.056-.34.113-.48.183.07 1.483 1.059 2.19 2.316 2.302zM5.593 4.322c-.042.904-.607 1.653-1.327 1.794-.198.212-.594.508-1.314.777.099.014.184.014.282.014 1.3 0 2.345-1.102 2.345-2.472.014-.028.014-.07.014-.113z"/>
                        <ellipse cx="4.011" cy="4.209" fill="#720C11" rx="1.596" ry="1.935"/>
                        <path fill="#ED2A28" d="M2.415 4.209c0-1.073.706-1.935 1.596-1.935.17 0 .34.028.509.099-.367-.24-.791-.381-1.257-.381-1.3 0-2.345 1.101-2.345 2.471v.043c.057-.014.099-.029.155-.043.424-.113 1.074-.183 1.356-.226-.014-.014-.014-.028-.014-.028z"/>
                        <path fill="#FBFBFB" d="M.904 4.492c.014 1.242.918 2.26 2.062 2.4.72-.282 1.102-.564 1.314-.776-.085.014-.17.028-.269.028-.875 0-1.582-.862-1.596-1.92-.296.027-.932.112-1.356.225-.056.014-.113.028-.155.043z"/>
                        <path fill="#FF4D4D" d="M3.616.353s1.186 1.752.452 4.18c0 0-.41-1.143-2.288-1.638 0 0 .89-.762.113-2.302l1.723-.24z"/>
                        <path fill="#ED2A28" d="M4.068 4.52C4.802 2.105 3.616.339 3.616.339L5 .056s.932 2.147.212 3.588l-1.144.876z"/>
                    </g>
                    <g transform="translate(-42.09 -41.384) translate(71.186 73.446) translate(9.887 12.712)">
                        <path fill="#720C11" d="M2.684 4.873C1.328 4.873.24 3.828.24 2.543c0-.566.212-1.088.565-1.484-.494.424-.79 1.046-.79 1.723 0 1.286 1.1 2.331 2.443 2.331.762 0 1.44-.325 1.892-.847-.452.367-1.03.607-1.666.607z"/>
                        <circle cx="3.573" cy="1.709" r="1.427" fill="#720C11"/>
                        <path fill="#ED2A28" d="M5.113 2.867c-.282.848-1.116 1.47-2.105 1.47C1.78 4.336.791 3.39.791 2.231c-.184.084-.367.183-.55.31 0 1.286 1.1 2.317 2.443 2.317 1.228.014 2.245-.862 2.429-1.992z"/>
                        <path fill="#FBFBFB" d="M2.302.226C1.13.396.226 1.37.226 2.528v.014c.184-.127.367-.24.55-.31.015-.933.65-1.724 1.526-2.006zM2.994 4.336c1.23 0 2.218-.946 2.218-2.104 0-.424-.127-.805-.353-1.13.085.183.141.395.141.607 0 .791-.636 1.427-1.427 1.427-.762 0-1.398-.608-1.426-1.37-.226.042-.65.155-1.37.48.014 1.144 1.003 2.09 2.217 2.09z"/>
                        <path fill="#ED2A28" d="M2.147 1.709c0-.79.635-1.427 1.426-1.427.142 0 .269.015.396.057-.297-.141-.622-.212-.975-.212-1.228 0-2.217.946-2.217 2.105.72-.311 1.144-.438 1.37-.48.014-.015 0-.029 0-.043z"/>
                    </g>
                    <g>
                        <path fill="#720C11" d="M24.393 15.41c5.028-2.656 10.395-7.783 10.296-10.184-1.85-1.398-8.375-1.158-14.195 1.003-.536.198-2.316 2.048-.565 5.876 1.455 3.192 3.503 3.615 4.464 3.305zM2.514 20.028c-.565-1.257-.494-2.599.113-3.404-.72.551-1.44 1.116-2.19 1.71 0 0-.832.96.128 2.725.876 1.625 2.119 1.639 2.119 1.639.904-.156 1.78-.325 2.64-.509-1.044.029-2.203-.805-2.81-2.16z" transform="translate(-42.09 -41.384) translate(71.186 73.446) translate(8.616)"/>
                        <path fill="#FBFBFB" d="M4.379 17.246c-.071-.848.084-1.653.452-2.246-.72.523-1.47 1.06-2.218 1.624-.367.495-.55 1.2-.494 1.964.635-.382 1.384-.834 2.26-1.342zM5.621 20.212c-.847.31-1.666.607-2.443.876.621.72 1.412 1.13 2.161 1.13.24-.057.466-.1.706-.156h.014l.127-.028c.608-.141 1.215-.283 1.794-.424-.833-.099-1.68-.607-2.359-1.398z" transform="translate(-42.09 -41.384) translate(71.186 73.446) translate(8.616)"/>
                        <path fill="#ED2A28" d="M4.83 18.955c-.254-.565-.41-1.158-.451-1.71-.876.51-1.625.947-2.246 1.343.042.466.155.96.381 1.44.184.396.41.749.664 1.045.777-.268 1.596-.565 2.443-.875-.31-.353-.579-.763-.79-1.243zM7.19 15.706c-.1-1.06.126-2.048.62-2.754-.96.636-1.948 1.314-2.98 2.034-.367.607-.536 1.398-.451 2.246.819-.452 1.737-.96 2.81-1.526zM8.616 19.082c-1.017.395-2.02.777-3.009 1.13.678.79 1.526 1.3 2.36 1.384 1.214-.31 2.372-.621 3.488-.96-.975-.043-2.02-.608-2.84-1.554z" transform="translate(-42.09 -41.384) translate(71.186 73.446) translate(8.616)"/>
                        <path fill="#FBFBFB" d="M7.698 17.627c-.283-.635-.452-1.285-.509-1.907-1.06.565-1.991 1.074-2.81 1.54.042.55.197 1.144.452 1.709.211.466.48.89.79 1.257.975-.353 1.992-.734 3.009-1.13-.367-.438-.678-.918-.932-1.469zM9.746 14.407c.296-.156.593-.297.875-.438-.127-1.271.17-2.458.82-3.249-1.13.664-2.345 1.413-3.616 2.246-.509.706-.72 1.695-.622 2.754.763-.423 1.61-.847 2.543-1.313z" transform="translate(-42.09 -41.384) translate(71.186 73.446) translate(8.616)"/>
                        <path fill="#FBFBFB" d="M12.175 17.627c-.282.127-.565.24-.861.367-.876.368-1.794.735-2.698 1.088.819.946 1.85 1.511 2.839 1.554 1.384-.424 2.698-.848 3.898-1.286-1.102-.028-2.26-.664-3.178-1.723z" transform="translate(-42.09 -41.384) translate(71.186 73.446) translate(8.616)"/>
                        <path fill="#ED2A28" d="M12.175 17.627c-.395-.452-.734-.989-1.003-1.596-.31-.692-.494-1.384-.565-2.062l-.875.438c-.933.466-1.78.89-2.557 1.3.057.62.226 1.27.509 1.906.254.55.565 1.045.918 1.455.904-.353 1.808-.72 2.697-1.088.311-.113.594-.24.876-.353zM14.859 11.907c-.156-1.37.141-2.641.819-3.503-1.229.621-2.67 1.398-4.251 2.316-.664.791-.947 1.978-.82 3.249 1.724-.848 3.122-1.525 4.252-2.062zM16.525 15.692c-1.214.565-2.655 1.215-4.336 1.935.918 1.06 2.077 1.695 3.192 1.723 1.766-.635 3.305-1.257 4.605-1.822-1.215 0-2.486-.678-3.46-1.836z" transform="translate(-42.09 -41.384) translate(71.186 73.446) translate(8.616)"/>
                        <path fill="#FBFBFB" d="M11.172 16.031c.269.607.622 1.13 1.003 1.596 1.68-.72 3.122-1.37 4.336-1.935-.41-.48-.777-1.06-1.073-1.695-.31-.692-.509-1.412-.593-2.09-1.13.537-2.529 1.214-4.252 2.062.085.678.269 1.37.58 2.062zM20.777 13.602c-.608.325-2.048 1.059-4.266 2.09.989 1.158 2.26 1.836 3.447 1.836 2.81-1.214 4.42-2.118 4.42-2.118-.776.254-2.273.014-3.601-1.808zM20.494 6.229s-1.822.664-4.802 2.16c-.692.862-.974 2.134-.82 3.504 2.642-1.243 3.857-1.752 4.38-1.95-.382-2.358.819-3.559 1.242-3.714z" transform="translate(-42.09 -41.384) translate(71.186 73.446) translate(8.616)"/>
                        <path fill="#ED2A28" d="M19.915 12.105c-.367-.791-.579-1.512-.678-2.133-.536.197-1.751.692-4.378 1.949.085.692.268 1.398.593 2.09.282.636.65 1.215 1.073 1.695 2.218-1.03 3.659-1.765 4.266-2.09-.31-.424-.593-.918-.876-1.511z" transform="translate(-42.09 -41.384) translate(71.186 73.446) translate(8.616)"/>
                        <path fill="#FBFBFB" d="M45.96.042L34.266 4.93s-.043.184.084.466c.113.297.368.396.368.396L45.96.042z" transform="translate(-42.09 -41.384) translate(71.186 73.446) translate(8.616)"/>
                    </g>
                    <g transform="translate(-42.09 -41.384) translate(71.186 73.446) translate(0 17.514)">
                        <path fill="#720C11" d="M.325 2.754c0-.621.212-1.2.579-1.666-.509.452-.82 1.115-.82 1.864 0 1.384 1.117 2.5 2.5 2.5.1 0 .184 0 .283-.014C1.441 5.353.325 4.18.325 2.754z"/>
                        <circle cx="4.082" cy="2.203" r="1.963" fill="#720C11"/>
                        <path fill="#FFF" d="M.664 2.514c.014 0 .014 0 0 0C.72 1.356 1.525.381 2.599.1 1.314.297.339 1.399.31 2.726c.113-.07.226-.141.353-.212z"/>
                        <path fill="#ED2A28" d="M2.119 2.034C2.203 1.03 3.05.24 4.068.24c.141 0 .282.014.41.042C4.123.1 3.714 0 3.276 0 1.864 0 .72 1.116.664 2.514c.565-.31 1.215-.438 1.455-.48z"/>
                        <path fill="#FFF" d="M3.192 5.424c.622-.043 1.187-.283 1.61-.678-.381.268-.833.438-1.313.48-.156.113-.24.17-.297.198z"/>
                        <path fill="#ED2A28" d="M3.489 5.226c-.07 0-.127.014-.198.014-1.44 0-2.613-1.172-2.613-2.613v-.113c-.127.07-.24.141-.339.212v.028c0 1.483 1.2 2.684 2.684 2.684h.17c.056-.043.14-.099.296-.212zM4.18 4.167l-.013.028s-.283.749-.678 1.031c1.229-.099 2.217-1.031 2.387-2.246-.283.678-.932 1.144-1.695 1.187z"/>
                        <path fill="#FFF" d="M2.119 2.034c-.255.042-.904.17-1.441.466v.113c0 1.44 1.172 2.613 2.613 2.613h.141c.41-.282.749-1.06.749-1.06h-.1c-1.087 0-1.962-.875-1.962-1.963 0-.056-.014-.113 0-.17z"/>
                        <path fill="#FF4D4D" d="M10.395 2.203s-2.782-.113-5.579.495c0 0 .17-.198.113-.904-.042-.664-.31-.706-.31-.706S7.514.438 10.198.55c0 0-.113.777.197 1.652z"/>
                        <path fill="#ED2A28" d="M10.395 2.203s-2.782-.113-5.579.495c0 0 .777-.17.975.31.085.198-.042.311-.042.311s1.37-.353 3.517-.367l1.13-.749z"/>
                    </g>
                </g>
                <g>
                    <g>
                        <path fill="#1A82FF" d="M12.641 1.215l.777 1.059c.65.904.706 2.232.014 3.785-1.384 3.094-5.212 5.89-8.56 6.243-1.666.17-2.895-.282-3.544-1.172l-.805-1.116 12.118-8.8z" transform="translate(-42.09 -41.384) translate(60.31 112.57)"/>
                        <path fill="#40A0FF" d="M4.11 11.243c-1.666.17-2.895-.283-3.545-1.172-.65-.904-.706-2.232-.014-3.786C1.935 3.192 5.763.395 9.11.042c1.666-.17 2.895.283 3.544 1.173.65.904.707 2.231.014 3.785-1.384 3.093-5.211 5.89-8.559 6.243z" transform="translate(-42.09 -41.384) translate(60.31 112.57)"/>
                        <path fill="#1A82FF" d="M8.573 8.446C7.09 9.52 5.466 10.198 4.011 10.353c-1.285.127-2.245-.155-2.726-.82-.48-.663-.452-1.722.07-2.895.608-1.356 1.766-2.711 3.264-3.799C6.102 1.766 7.726 1.088 9.18.932c1.285-.127 2.246.156 2.726.82.48.663.452 1.708-.07 2.895-.594 1.356-1.752 2.712-3.264 3.8z" transform="translate(-42.09 -41.384) translate(60.31 112.57)"/>
                        <path fill="#0F7CE8" d="M1.469 6.78c.607-1.356 1.765-2.712 3.263-3.8C6.215 1.907 7.839 1.23 9.294 1.073c1.229-.127 2.175.142 2.67.749-.015-.028-.029-.056-.043-.07-.48-.664-1.455-.947-2.726-.82-1.455.156-3.08.834-4.562 1.907-1.497 1.088-2.656 2.443-3.263 3.8C.847 7.824.82 8.883 1.3 9.533c.014.028.042.042.056.07-.438-.663-.396-1.68.113-2.824z" transform="translate(-42.09 -41.384) translate(60.31 112.57)"/>
                    </g>
                    <path fill="#FFF" d="M6.95 7.5l-.51-.706c-.183.042-.38.085-.578.113-1.088.113-1.526-.283-1.173-1.074.142-.325.382-.621.692-.847l1.738 2.43c.17-.085.339-.184.508-.297.07-.043.127-.085.198-.142.014 0 .014-.014.028-.014.014-.014.042-.028.057-.042.579-.438 1.017-.975 1.285-1.554.297-.678.282-1.229-.07-1.582-.326-.339-.933-.48-1.696-.395-.508.056-1.03.198-1.51.424l.508.706c.169-.043.353-.07.55-.1.495-.056.862 0 1.074.156.254.184.282.495.099.918-.142.325-.382.608-.678.834l-1.738-2.43c-.183.085-.353.198-.522.297-.028.028-.07.042-.099.07-.042.029-.07.057-.113.085 0 0-.014 0-.014.014-.014.015-.028.015-.042.029-.594.438-1.032.974-1.3 1.567-.297.678-.282 1.23.07 1.596.326.34.933.48 1.681.41.537-.085 1.06-.226 1.554-.466z" transform="translate(-42.09 -41.384) translate(60.31 112.57)"/>
                </g>
                <g>
                    <g>
                        <path fill="#1A82FF" d="M15.042 4.463l-.028 1.314c-.014 1.116-.777 2.217-2.26 3.037-2.966 1.638-7.698 1.567-10.593-.17C.721 7.782.014 6.667.042 5.565l.029-1.37 14.971.268z" transform="translate(-42.09 -41.384) translate(176.13 136.582)"/>
                        <path fill="#40A0FF" d="M2.19 7.345C.748 6.483.041 5.367.07 4.265.086 3.15.848 2.049 2.33 1.23c2.967-1.639 7.698-1.568 10.594.17 1.44.86 2.147 1.977 2.118 3.078-.014 1.116-.776 2.218-2.26 3.037-2.966 1.624-7.711 1.554-10.593-.17z" transform="translate(-42.09 -41.384) translate(176.13 136.582)"/>
                        <path fill="#1A82FF" d="M7.444 7.797C5.607 7.768 3.898 7.33 2.64 6.582 1.54 5.918.932 5.099.946 4.294c.014-.82.664-1.639 1.808-2.274C4.054 1.3 5.791.918 7.655.946c1.837.029 3.546.466 4.803 1.215 1.101.664 1.709 1.483 1.695 2.288-.015.82-.664 1.639-1.808 2.274-1.3.72-3.037 1.102-4.901 1.074z" transform="translate(-42.09 -41.384) translate(176.13 136.582)"/>
                        <path fill="#0F7CE8" d="M2.754 2.19c1.3-.721 3.037-1.102 4.901-1.074 1.837.028 3.546.466 4.803 1.215 1.059.635 1.652 1.412 1.68 2.203v-.085c.015-.82-.593-1.624-1.694-2.288C11.186 1.412 9.477.975 7.64.946c-1.85-.028-3.587.353-4.9 1.074C1.61 2.64.945 3.475.931 4.294v.085c.085-.791.735-1.582 1.822-2.19z" transform="translate(-42.09 -41.384) translate(176.13 136.582)"/>
                    </g>
                    <path fill="#FFF" d="M6.709 6.06l.014-.862c-.17-.07-.353-.156-.522-.269-.933-.565-1.046-1.144-.283-1.567.31-.17.678-.269 1.06-.269l-.071 2.995c.198.028.381.056.579.07.085 0 .155.014.24.014h.098c.721 0 1.4-.17 1.964-.48.65-.353.96-.82.904-1.313-.056-.467-.452-.947-1.102-1.342-.437-.269-.932-.452-1.469-.58l-.014.862c.17.07.34.156.495.254.423.255.692.523.762.763.1.297-.07.565-.466.791-.31.17-.664.254-1.045.268l.07-2.98c-.197-.042-.395-.056-.607-.07h-.268-.056c-.735 0-1.413.155-1.978.48-.65.353-.96.82-.904 1.313.057.467.452.947 1.102 1.342.452.269.96.466 1.497.58z" transform="translate(-42.09 -41.384) translate(176.13 136.582)"/>
                </g>
                <g>
                    <g>
                        <path fill="#1A82FF" d="M8.46 3.418l-.14.72c-.128.608-.65 1.144-1.54 1.441-1.794.607-4.379.099-5.791-1.144-.707-.621-.975-1.3-.862-1.893l.155-.748L8.46 3.418z" transform="translate(-42.09 -41.384) translate(152.119 85.876)"/>
                        <path fill="#40A0FF" d="M1.116 3.715C.41 3.093.14 2.415.254 1.822c.127-.607.65-1.144 1.54-1.44 1.794-.608 4.378-.1 5.79 1.143.707.622.975 1.3.862 1.893-.127.607-.65 1.144-1.54 1.44-1.779.608-4.378.1-5.79-1.143z" transform="translate(-42.09 -41.384) translate(152.119 85.876)"/>
                        <path fill="#1A82FF" d="M3.955 4.492c-1.003-.198-1.893-.608-2.514-1.145-.537-.48-.791-.974-.692-1.426.084-.452.536-.833 1.214-1.074C2.754.58 3.743.551 4.76.75c1.003.197 1.893.607 2.514 1.144.537.48.791.974.692 1.426-.085.452-.537.834-1.215 1.074-.776.268-1.78.296-2.796.099z" transform="translate(-42.09 -41.384) translate(152.119 85.876)"/>
                        <path fill="#0F7CE8" d="M1.95.946C2.74.678 3.728.65 4.745.847c1.003.198 1.892.608 2.514 1.145.522.452.763.946.706 1.384 0-.014.014-.029.014-.043.085-.452-.155-.96-.692-1.426C6.667 1.37 5.777.96 4.774.763 3.757.565 2.768.593 1.977.862 1.3 1.088.847 1.483.763 1.935c0 .014 0 .028-.014.042.098-.437.536-.819 1.2-1.03z" transform="translate(-42.09 -41.384) translate(152.119 85.876)"/>
                    </g>
                    <path fill="#FFF" d="M3.729 3.46l.099-.466c-.085-.056-.184-.127-.269-.197-.452-.396-.452-.735 0-.89.184-.07.396-.07.608-.043l-.34 1.639c.1.042.213.07.311.099.043.014.085.014.128.028h.014c.014 0 .028 0 .042.014.396.07.791.042 1.13-.07.395-.128.607-.354.621-.636.015-.269-.155-.565-.48-.848-.212-.183-.466-.339-.748-.466l-.1.48c.086.057.17.114.255.184.212.184.325.353.339.494.014.17-.099.311-.339.382-.184.07-.395.07-.593.042l.339-1.624c-.1-.042-.212-.07-.325-.099-.028 0-.042-.014-.07-.014-.029 0-.057-.014-.071-.014H4.237c-.41-.07-.79-.057-1.13.056-.395.127-.607.353-.621.636-.014.268.155.565.466.847.24.198.494.353.777.466z" transform="translate(-42.09 -41.384) translate(152.119 85.876)"/>
                </g>
                <g>
                    <g>
                        <path fill="#1A82FF" d="M.55 5.692l-.352-.636c-.297-.536-.24-1.285.24-2.104.974-1.624 3.29-2.91 5.17-2.867.932.014 1.581.353 1.878.89l.367.663L.551 5.692z" transform="translate(-42.09 -41.384) translate(158.05 60.734)"/>
                        <path fill="#40A0FF" d="M5.946.72c.933.014 1.582.353 1.879.89.296.537.24 1.285-.24 2.105-.975 1.624-3.291 2.91-5.17 2.867-.932-.014-1.582-.353-1.878-.89-.297-.537-.24-1.285.24-2.104C1.766 1.978 4.082.692 5.947.72z" transform="translate(-42.09 -41.384) translate(158.05 60.734)"/>
                        <path fill="#1A82FF" d="M3.291 1.963c.89-.494 1.836-.762 2.655-.748.72.014 1.23.24 1.455.635.226.396.141.975-.24 1.596-.424.707-1.158 1.385-2.062 1.879-.89.494-1.836.763-2.655.748-.72-.014-1.23-.24-1.455-.635-.226-.396-.142-.975.24-1.596.424-.706 1.158-1.37 2.062-1.879z" transform="translate(-42.09 -41.384) translate(158.05 60.734)"/>
                        <path fill="#0F7CE8" d="M7.119 3.376c-.424.706-1.159 1.384-2.063 1.878-.89.495-1.836.763-2.655.749-.692-.014-1.2-.226-1.426-.593.014.014.014.028.028.042.226.395.734.621 1.455.636.819.014 1.765-.255 2.655-.749.904-.508 1.638-1.172 2.062-1.879.367-.621.452-1.2.24-1.596-.014-.014-.014-.028-.028-.042.184.396.085.946-.268 1.554z" transform="translate(-42.09 -41.384) translate(158.05 60.734)"/>
                    </g>
                    <path fill="#FFF" d="M4.124 2.599l.226.424c.1-.015.212-.029.325-.015.607.015.82.269.58.678-.1.17-.255.311-.439.424l-.805-1.469-.296.127c-.043.014-.085.043-.113.057 0 0-.014 0-.014.014-.015 0-.029.014-.029.014-.353.198-.635.466-.819.777-.212.353-.24.664-.07.89.155.212.48.325.903.339.283 0 .58-.043.862-.127l-.226-.424c-.099.014-.198.014-.31.014-.283 0-.48-.056-.58-.155-.127-.113-.127-.297.014-.509.1-.17.255-.31.438-.424l.805 1.455c.113-.042.212-.084.311-.127.014-.014.042-.014.057-.028.028-.014.042-.028.07-.042h.014c.014 0 .014-.015.028-.015.354-.197.636-.466.82-.776.212-.354.24-.664.07-.89-.155-.212-.48-.325-.904-.34-.324-.013-.621.029-.918.128z" transform="translate(-42.09 -41.384) translate(158.05 60.734)"/>
                </g>
                <g>
                    <g>
                        <path fill="#1A82FF" d="M7.726 1.073l.31.664c.255.565.142 1.3-.409 2.077-1.087 1.54-3.503 2.64-5.367 2.471-.932-.084-1.554-.48-1.808-1.03l-.325-.693 7.599-3.489z" transform="translate(-42.09 -41.384) translate(130.791 62.712)"/>
                        <path fill="#40A0FF" d="M1.963 5.621C1.031 5.537.41 5.141.155 4.591c-.254-.566-.14-1.3.41-2.077C1.653.974 4.068-.127 5.932.042c.932.085 1.554.48 1.808 1.031.254.565.141 1.3-.41 2.077C6.23 4.69 3.829 5.79 1.964 5.62z" transform="translate(-42.09 -41.384) translate(130.791 62.712)"/>
                        <path fill="#1A82FF" d="M4.718 4.576c-.933.424-1.893.622-2.712.551-.72-.07-1.215-.325-1.399-.748-.183-.41-.056-.99.353-1.582.48-.678 1.272-1.286 2.204-1.724C4.096.65 5.056.452 5.876.523c.72.07 1.214.339 1.398.748.184.41.057.989-.353 1.582-.48.678-1.271 1.3-2.203 1.723z" transform="translate(-42.09 -41.384) translate(130.791 62.712)"/>
                        <path fill="#0F7CE8" d="M1.003 2.895c.48-.677 1.271-1.285 2.203-1.723C4.138.75 5.1.551 5.918.622c.692.07 1.172.31 1.384.706 0-.014-.014-.029-.014-.043C7.105.875 6.596.607 5.89.537c-.82-.07-1.78.113-2.712.55-.946.438-1.723 1.046-2.203 1.724C.55 3.404.424 3.969.62 4.393c0 .014.015.028.029.042-.184-.424-.043-.975.353-1.54z" transform="translate(-42.09 -41.384) translate(130.791 62.712)"/>
                    </g>
                    <path fill="#FFF" d="M3.927 3.884l-.198-.438h-.325c-.607-.056-.805-.325-.523-.72.113-.17.283-.297.466-.381L4.04 3.87c.098-.028.211-.07.31-.099.043-.014.085-.042.127-.056 0 0 .015 0 .015-.014.014 0 .028-.015.042-.015.367-.183.664-.423.876-.706.24-.339.282-.635.14-.875-.14-.226-.451-.368-.875-.41-.282-.028-.579 0-.876.056l.198.438c.099 0 .212 0 .31.014.283.029.467.1.566.198.113.127.099.297-.042.509-.113.155-.269.296-.467.381L3.672 1.78c-.113.028-.212.07-.325.113-.014.014-.042.014-.056.028-.028.014-.042.014-.07.028h-.015c-.014 0-.014 0-.028.014-.367.184-.678.424-.876.72-.24.34-.282.636-.141.876.141.226.452.368.876.41.282.014.593-.014.89-.085z" transform="translate(-42.09 -41.384) translate(130.791 62.712)"/>
                </g>
                <g>
                    <g>
                        <path fill="#1A82FF" d="M6.2 7.19l-.593.423c-.508.353-1.257.367-2.118-.028C1.779 6.78.269 4.619.099 2.74.014 1.808.297 1.13.79.777l.621-.438 4.789 6.85z" transform="translate(-42.09 -41.384) translate(160.028 148.164)"/>
                        <path fill="#40A0FF" d="M.692 2.316C.607 1.384.89.706 1.384.353 1.893 0 2.641-.014 3.503.381c1.709.805 3.22 2.966 3.39 4.845.084.932-.198 1.61-.692 1.963-.509.353-1.257.367-2.12-.028C2.374 6.356.848 4.195.693 2.316z" transform="translate(-42.09 -41.384) translate(160.028 148.164)"/>
                        <path fill="#1A82FF" d="M2.203 4.845c-.579-.848-.946-1.752-1.017-2.571-.056-.72.113-1.257.48-1.511.368-.255.961-.24 1.61.07.75.353 1.498 1.017 2.091 1.865.58.847.947 1.751 1.017 2.57.057.72-.113 1.257-.48 1.512-.367.254-.96.24-1.61-.071-.749-.353-1.497-1.017-2.09-1.864z" transform="translate(-42.09 -41.384) translate(160.028 148.164)"/>
                        <path fill="#0F7CE8" d="M3.206.89c.749.353 1.497 1.017 2.09 1.864.58.848.947 1.752 1.018 2.57.056.693-.1 1.216-.438 1.484.014-.014.028-.014.042-.028.367-.255.55-.805.48-1.512-.07-.819-.423-1.723-1.017-2.57-.593-.848-1.327-1.512-2.09-1.865-.65-.31-1.243-.339-1.61-.07-.014.014-.028.014-.043.028.368-.226.947-.198 1.568.099z" transform="translate(-42.09 -41.384) translate(160.028 148.164)"/>
                    </g>
                    <path fill="#FFF" d="M2.754 3.955l.396-.269c-.029-.098-.043-.211-.057-.324-.056-.608.184-.848.608-.636.183.085.339.226.466.395l-1.37.947c.042.099.098.198.155.282.028.043.056.07.07.113 0 0 0 .014.015.014.014.015.014.029.028.029.24.325.537.579.862.734.38.17.678.17.89-.028.197-.184.282-.509.24-.932-.029-.283-.1-.58-.212-.848l-.396.269c.028.098.043.197.043.31.028.283-.015.48-.1.594-.098.14-.282.155-.508.042-.183-.085-.339-.212-.466-.381l1.37-.947c-.042-.099-.099-.198-.17-.296-.013-.015-.028-.043-.042-.057-.014-.028-.028-.042-.042-.07V2.88l-.014-.014c-.24-.339-.537-.593-.862-.734-.381-.17-.678-.17-.89.014-.197.184-.282.508-.24.932.014.297.1.593.226.876z" transform="translate(-42.09 -41.384) translate(160.028 148.164)"/>
                </g>
                <g>
                    <g>
                        <path fill="#1A82FF" d="M6.229 7.232l-.593.423c-.509.353-1.257.368-2.12-.028C1.809 6.822.297 4.661.128 2.782.042 1.85.325 1.172.82.82l.622-.438 4.788 6.85z" transform="translate(-42.09 -41.384) translate(75.847 163.418)"/>
                        <path fill="#40A0FF" d="M.734 2.359C.65 1.427.932.749 1.427.395 1.935.042 2.684.028 3.545.424c1.71.805 3.22 2.966 3.39 4.844.085.933-.198 1.61-.692 1.964-.509.353-1.257.367-2.119-.029C2.401 6.398.89 4.223.734 2.36z" transform="translate(-42.09 -41.384) translate(75.847 163.418)"/>
                        <path fill="#1A82FF" d="M2.246 4.887c-.58-.847-.947-1.751-1.017-2.57-.057-.721.113-1.258.48-1.512s.96-.24 1.61.07c.749.354 1.497 1.018 2.09 1.865.58.848.947 1.752 1.018 2.57.056.721-.113 1.258-.48 1.512-.368.254-.961.24-1.61-.07-.764-.354-1.498-1.018-2.091-1.865z" transform="translate(-42.09 -41.384) translate(75.847 163.418)"/>
                        <path fill="#0F7CE8" d="M3.249.932c.748.353 1.497 1.017 2.09 1.865.58.847.946 1.751 1.017 2.57.056.692-.099 1.215-.438 1.483.014-.014.028-.014.042-.028.368-.254.551-.805.48-1.511-.07-.82-.423-1.723-1.016-2.57-.593-.848-1.328-1.512-2.09-1.865-.65-.311-1.244-.34-1.61-.07-.015.013-.03.013-.043.027.367-.226.932-.197 1.568.1z" transform="translate(-42.09 -41.384) translate(75.847 163.418)"/>
                    </g>
                    <path fill="#FFF" d="M2.782 3.983l.396-.268c-.028-.1-.042-.212-.057-.325-.056-.608.184-.848.608-.636.183.085.339.226.466.396l-1.37.946c.042.099.099.198.155.283.028.042.057.07.07.113 0 0 0 .014.015.014.014.014.014.028.028.028.24.325.537.579.862.734.381.17.678.17.89-.028.197-.184.282-.508.24-.932-.029-.283-.1-.58-.212-.848l-.396.269c.029.099.043.198.043.31.028.283-.014.48-.1.594-.098.141-.282.155-.508.042-.183-.085-.339-.212-.466-.381l1.37-.947c-.042-.098-.098-.197-.17-.296-.013-.014-.027-.043-.041-.057-.015-.028-.029-.042-.043-.07V2.91l-.014-.015c-.24-.339-.537-.593-.862-.734-.38-.17-.678-.17-.89.014-.197.184-.282.509-.24.932.029.297.1.594.226.876z" transform="translate(-42.09 -41.384) translate(75.847 163.418)"/>
                </g>
                <g>
                    <g>
                        <path fill="#1A82FF" d="M8.432 2.542l-.014.735c0 .621-.424 1.243-1.257 1.709-1.653.932-4.294.904-5.904-.057-.805-.48-1.2-1.087-1.2-1.709l.014-.762 8.361.084z" transform="translate(-42.09 -41.384) translate(177.966 89.266)"/>
                        <path fill="#40A0FF" d="M1.271 4.18C.466 3.7.071 3.094.071 2.473c0-.622.423-1.243 1.257-1.71C2.98-.168 5.62-.14 7.232.82c.805.48 1.2 1.088 1.2 1.71 0 .62-.424 1.242-1.257 1.708-1.652.932-4.294.904-5.904-.056z" transform="translate(-42.09 -41.384) translate(177.966 89.266)"/>
                        <path fill="#1A82FF" d="M4.209 4.42c-1.031-.013-1.977-.24-2.684-.663-.621-.367-.96-.82-.946-1.271 0-.452.367-.918 1.003-1.271.72-.41 1.695-.622 2.726-.622 1.031.014 1.977.24 2.684.664.621.367.96.82.946 1.271 0 .452-.367.918-1.003 1.271-.734.41-1.695.636-2.726.622z" transform="translate(-42.09 -41.384) translate(177.966 89.266)"/>
                        <path fill="#0F7CE8" d="M1.568 1.314c.72-.41 1.695-.622 2.726-.622 1.03.014 1.977.24 2.683.664.594.353.933.79.947 1.229v-.057c0-.452-.34-.904-.947-1.27C6.271.832 5.325.607 4.294.592 3.263.58 2.288.805 1.568 1.215c-.636.353-.989.819-1.003 1.27v.057c.042-.452.395-.89 1.003-1.228z" transform="translate(-42.09 -41.384) translate(177.966 89.266)"/>
                    </g>
                    <path fill="#FFF" d="M3.785 3.46l.014-.48c-.098-.042-.197-.085-.296-.141-.523-.31-.58-.636-.17-.876.17-.099.382-.155.594-.155l-.029 1.667.325.042H4.421c.41 0 .777-.099 1.087-.268.368-.198.537-.452.495-.735-.028-.254-.254-.522-.622-.734-.24-.142-.522-.255-.819-.311l-.014.48c.099.043.184.085.283.141.24.142.38.283.423.424.057.17-.042.31-.254.438-.17.099-.367.141-.58.155l.03-1.666-.34-.043H3.97h-.042c-.41 0-.791.1-1.102.269-.367.197-.537.452-.494.734.028.254.254.523.621.749.254.141.537.24.833.31z" transform="translate(-42.09 -41.384) translate(177.966 89.266)"/>
                </g>
                <g>
                    <g>
                        <path fill="#1A82FF" d="M8.432 2.472l-.014.734c0 .622-.424 1.243-1.257 1.71-1.653.931-4.294.903-5.904-.057-.805-.48-1.2-1.088-1.2-1.71l.014-.762 8.361.085z" transform="translate(-42.09 -41.384) translate(53.107 149.011)"/>
                        <path fill="#40A0FF" d="M1.271 4.124c-.805-.48-1.2-1.087-1.2-1.709 0-.621.423-1.243 1.257-1.709C2.98-.226 5.62-.198 7.232.763c.805.48 1.2 1.087 1.2 1.709 0 .621-.424 1.243-1.257 1.709-1.638.918-4.294.904-5.904-.057z" transform="translate(-42.09 -41.384) translate(53.107 149.011)"/>
                        <path fill="#1A82FF" d="M4.209 4.364c-1.031-.014-1.977-.24-2.684-.663-.621-.368-.96-.82-.946-1.272 0-.452.367-.918 1.003-1.27.72-.41 1.695-.622 2.726-.622 1.031.014 1.977.24 2.684.664.621.367.96.819.946 1.27 0 .453-.367.919-1.003 1.272-.72.41-1.695.621-2.726.621z" transform="translate(-42.09 -41.384) translate(53.107 149.011)"/>
                        <path fill="#0F7CE8" d="M1.568 1.243C2.288.833 3.263.62 4.294.62c1.03.015 1.977.24 2.683.664.594.353.933.791.947 1.23v-.057c0-.452-.34-.904-.947-1.272C6.271.763 5.325.536 4.294.523c-1.031-.015-2.006.211-2.726.621-.636.353-.989.82-1.003 1.271v.057c.042-.438.395-.876 1.003-1.23z" transform="translate(-42.09 -41.384) translate(53.107 149.011)"/>
                    </g>
                    <path fill="#FFF" d="M3.785 3.404l.014-.48c-.098-.043-.197-.085-.296-.142-.523-.31-.58-.635-.17-.875.17-.1.382-.156.594-.156l-.029 1.667.325.042H4.421c.41 0 .777-.098 1.087-.268.368-.198.537-.452.495-.734-.028-.255-.254-.523-.622-.735-.24-.141-.522-.254-.819-.31l-.014.48c.099.042.184.084.283.14.24.142.38.283.423.425.057.17-.042.31-.254.437-.17.1-.367.142-.58.156l.03-1.667-.34-.042H3.97h-.042c-.41 0-.791.099-1.102.268-.367.198-.537.452-.494.735.028.254.254.522.621.748.254.127.537.24.833.311z" transform="translate(-42.09 -41.384) translate(53.107 149.011)"/>
                </g>
                <g>
                    <g>
                        <path fill="#1A82FF" d="M6.3.184l1.016.395c.862.34 1.498 1.243 1.71 2.641.423 2.783-1.018 6.441-3.207 8.192-1.087.862-2.16 1.088-3.008.763l-1.06-.41L6.3.185z" transform="translate(-42.09 -41.384) translate(102.401 162.006)"/>
                        <path fill="#40A0FF" d="M4.802 11.017c-1.087.862-2.16 1.088-3.008.763-.862-.34-1.497-1.243-1.71-2.642-.423-2.782 1.018-6.44 3.207-8.192C4.379.085 5.452-.14 6.299.184c.862.339 1.498 1.243 1.71 2.64.41 2.783-1.017 6.456-3.207 8.193z" transform="translate(-42.09 -41.384) translate(102.401 162.006)"/>
                        <path fill="#1A82FF" d="M6.68 7.062c-.564 1.413-1.383 2.613-2.344 3.376-.833.664-1.638.89-2.274.65-.635-.24-1.087-1.003-1.243-2.063-.183-1.228.028-2.683.593-4.124.565-1.412 1.385-2.613 2.345-3.376.833-.663 1.638-.89 2.274-.65.636.24 1.088 1.004 1.243 2.063.184 1.229-.028 2.698-.593 4.124z" transform="translate(-42.09 -41.384) translate(102.401 162.006)"/>
                        <path fill="#0F7CE8" d="M.96 9.082c-.183-1.229.029-2.684.594-4.124.565-1.413 1.384-2.613 2.344-3.376C4.703.946 5.48.706 6.102.904 6.073.89 6.059.876 6.032.876 5.394.62 4.59.862 3.756 1.526c-.946.762-1.78 1.963-2.345 3.375C.847 6.328.636 7.797.82 9.025c.156 1.06.608 1.808 1.243 2.063.028.014.043.014.07.028-.592-.283-1.016-1.017-1.172-2.034z" transform="translate(-42.09 -41.384) translate(102.401 162.006)"/>
                    </g>
                    <path fill="#FFF" d="M5.127 7.133l-.664-.269c-.113.113-.226.226-.353.34-.706.564-1.186.48-1.3-.227-.042-.296-.013-.607.1-.904l2.302.919c.085-.142.155-.283.226-.424.028-.057.056-.127.07-.184 0-.014 0-.014.015-.028 0-.014.014-.042.028-.057.212-.565.282-1.13.198-1.666-.085-.608-.354-.989-.763-1.074-.381-.084-.862.07-1.356.48-.325.269-.636.594-.876.975l.664.268c.099-.113.212-.211.34-.31.324-.254.606-.382.818-.367.255.014.424.226.48.593.043.296.015.593-.098.89l-2.303-.919c-.084.142-.17.297-.226.452-.014.029-.028.057-.042.1-.014.042-.028.07-.042.112v.014c0 .015-.014.029-.014.029-.212.565-.283 1.144-.212 1.68.084.608.353.99.762 1.088.382.099.862-.07 1.356-.466.34-.325.636-.664.89-1.045z" transform="translate(-42.09 -41.384) translate(102.401 162.006)"/>
                </g>
                <g>
                    <g>
                        <path fill="#1A82FF" d="M6.285 12.26l-1.059.24c-.904.212-1.935-.184-2.895-1.215C.424 9.223-.466 5.381.367 2.712.777 1.384 1.525.593 2.43.395L3.531.141 6.285 12.26z" transform="translate(-42.09 -41.384) translate(159.463 107.345)"/>
                        <path fill="#40A0FF" d="M1.427 2.486C1.837 1.158 2.585.367 3.489.169c.904-.211 1.935.184 2.895 1.215 1.907 2.062 2.797 5.904 1.963 8.574-.41 1.327-1.158 2.118-2.062 2.316-.904.212-1.935-.184-2.895-1.215C1.483 8.983.593 5.155 1.427 2.486z" transform="translate(-42.09 -41.384) translate(159.463 107.345)"/>
                        <path fill="#1A82FF" d="M2.105 6.808c-.34-1.483-.325-2.952.028-4.11.31-1.017.847-1.667 1.511-1.822.664-.156 1.455.212 2.19 1.003.847.903 1.497 2.231 1.835 3.728.34 1.483.325 2.952-.028 4.11-.31 1.017-.847 1.667-1.511 1.823-.664.155-1.455-.212-2.19-1.003-.847-.904-1.496-2.232-1.835-3.73z" transform="translate(-42.09 -41.384) translate(159.463 107.345)"/>
                        <path fill="#0F7CE8" d="M5.692 1.92c.848.905 1.497 2.233 1.836 3.73.34 1.483.325 2.952-.028 4.11-.31.989-.82 1.624-1.44 1.794.028 0 .042-.014.07-.014.664-.156 1.2-.791 1.511-1.822.353-1.159.367-2.628.028-4.11-.338-1.498-.988-2.826-1.836-3.73C5.1 1.089 4.308.72 3.644.877c-.028 0-.042.014-.07.014.65-.099 1.412.268 2.118 1.03z" transform="translate(-42.09 -41.384) translate(159.463 107.345)"/>
                    </g>
                    <path fill="#FFF" d="M3.347 5.876l.707-.156c.028-.155.056-.31.113-.48.268-.861.72-1.06 1.2-.537.198.212.353.495.424.805l-2.43.537c.015.156.029.325.057.48.014.071.028.128.042.198v.028c0 .015.015.043.015.057.14.579.41 1.102.776 1.483.424.452.848.607 1.23.466.366-.141.663-.55.86-1.158.128-.41.184-.848.17-1.3l-.706.156c-.028.155-.056.296-.099.452-.127.395-.282.65-.466.762-.226.128-.466.057-.734-.225-.198-.212-.34-.48-.424-.791l2.415-.537c-.014-.17-.028-.34-.056-.495 0-.028-.014-.07-.014-.098-.015-.043-.015-.071-.029-.113v-.015c0-.014 0-.028-.014-.042-.141-.593-.41-1.102-.777-1.497-.423-.452-.847-.607-1.228-.466-.368.141-.678.55-.862 1.158-.127.41-.184.862-.17 1.328z" transform="translate(-42.09 -41.384) translate(159.463 107.345)"/>
                </g>
                <g>
                    <g>
                        <path fill="#1A82FF" d="M1.045 1.172l.876-.635C2.669 0 3.77-.056 5.07.523c2.57 1.144 4.873 4.336 5.155 7.118.141 1.384-.24 2.401-.989 2.938l-.918.664-7.274-10.07z" transform="translate(-42.09 -41.384) translate(129.52 176.836)"/>
                        <path fill="#40A0FF" d="M9.35 8.291c.142 1.384-.24 2.401-.988 2.938-.749.537-1.85.593-3.15.014C2.642 10.099.339 6.907.056 4.124c-.14-1.384.24-2.4.99-2.938.748-.536 1.85-.593 3.149-.014C6.75 2.316 9.068 5.508 9.35 8.291z" transform="translate(-42.09 -41.384) translate(129.52 176.836)"/>
                        <path fill="#1A82FF" d="M7.034 4.562c.89 1.243 1.455 2.585 1.582 3.8.113 1.059-.127 1.864-.678 2.26-.551.395-1.427.367-2.401-.071-1.13-.509-2.246-1.47-3.15-2.726C1.497 6.582.932 5.24.805 4.025c-.113-1.059.127-1.864.678-2.26.55-.395 1.427-.367 2.401.071 1.13.509 2.246 1.483 3.15 2.726z" transform="translate(-42.09 -41.384) translate(129.52 176.836)"/>
                        <path fill="#0F7CE8" d="M5.65 10.466C4.52 9.958 3.404 8.997 2.5 7.74 1.61 6.497 1.045 5.155.918 3.94c-.099-1.016.113-1.807.622-2.217-.015.014-.043.028-.057.043-.55.395-.79 1.2-.678 2.26.127 1.214.678 2.556 1.582 3.799.904 1.243 2.02 2.217 3.15 2.726.974.438 1.864.466 2.4.07.015-.014.043-.028.057-.042-.55.353-1.398.31-2.344-.113z" transform="translate(-42.09 -41.384) translate(129.52 176.836)"/>
                    </g>
                    <path fill="#FFF" d="M6.257 5.918l-.579.41c.042.155.07.31.085.48.099.904-.24 1.257-.89.974-.268-.127-.509-.324-.706-.579l2.02-1.44c-.071-.142-.156-.283-.24-.424-.043-.057-.071-.113-.114-.17 0-.014-.014-.014-.014-.014-.014-.014-.028-.028-.028-.042-.367-.48-.805-.847-1.3-1.06-.564-.254-1.016-.24-1.313.057-.283.269-.396.763-.339 1.398.042.424.17.848.339 1.258l.593-.424c-.042-.141-.056-.297-.085-.452-.042-.41 0-.72.128-.89.155-.212.41-.24.762-.085.269.127.509.311.692.565l-2.02 1.427c.071.155.156.296.255.438.014.028.042.056.056.084.029.029.043.057.07.1 0 0 0 .013.015.013l.028.029c.368.494.805.861 1.3 1.073.565.254 1.017.24 1.313-.056.283-.269.41-.763.34-1.399-.057-.423-.184-.861-.368-1.27z" transform="translate(-42.09 -41.384) translate(129.52 176.836)"/>
                </g>
            </g>
        </g>
    </g>
</svg>
