<svg xmlns="http://www.w3.org/2000/svg" xmlns:xlink="http://www.w3.org/1999/xlink" width="150" height="150" viewBox="0 0 150 150">
    <defs>
        <radialGradient id="prefix__c" cx="50.302%" cy="49.344%" r="49.374%" fx="50.302%" fy="49.344%">
            <stop offset="83.08%" stop-color="#ED2A28" stop-opacity=".9"/>
            <stop offset="100%" stop-color="#ED2A28" stop-opacity=".5"/>
        </radialGradient>
        <circle id="prefix__a" cx="74.972" cy="75" r="70.42"/>
    </defs>
    <g fill="none" fill-rule="evenodd">
        <circle cx="74.972" cy="75" r="74.944" fill="#FFF" fill-rule="nonzero"/>
        <mask id="prefix__b" fill="#fff">
            <use xlink:href="#prefix__a"/>
        </mask>
        <use fill="#111D28" fill-rule="nonzero" xlink:href="#prefix__a"/>
        <g mask="url(#prefix__b)">
            <g fill-rule="nonzero">
                <g transform="translate(-15.546 -35.434) translate(45.098)">
                    <circle cx="80.112" cy="80.112" r="63.978" fill="url(#prefix__c)" opacity=".8"/>
                    <g>
                        <circle cx="80.111" cy="80.119" r="56.568" fill="#A51927" transform="rotate(-45 80.111 80.119)"/>
                        <path fill="#ED2A28" d="M122.479 117.605c19.706-22.213 18.922-56.218-2.353-77.493-21.443-21.443-55.798-22.073-78.011-1.905-.658.504-1.275 1.05-1.849 1.625-5.882 5.896-7.885 15.658-4.594 27.9 6.597 24.607 32.003 49.93 56.765 56.554 12.437 3.333 22.353 1.316 28.291-4.636.617-.63 1.205-1.317 1.751-2.045z"/>
                        <path fill="#FFF" d="M134.454 95.91c5.56-19.16.784-40.686-14.328-55.798-16.008-16.008-39.216-20.42-59.188-13.235l.028.028c-2.73.994-5.084 2.465-6.988 4.384-5.505 5.518-7.367 14.635-4.3 26.092 6.162 23.011 29.944 46.695 53.095 52.913 11.639 3.123 20.91 1.233 26.457-4.342 2.59-2.59 4.37-5.98 5.224-10.042z" opacity=".2"/>
                        <path fill="#FFF" d="M86.317 45.714c-1.625-6.078-.63-10.91 2.282-13.837 2.942-2.955 7.858-3.95 14.034-2.297 12.283 3.291 24.888 15.854 28.151 28.053 1.625 6.078.63 10.91-2.283 13.838-2.94 2.955-7.857 3.95-14.033 2.297-12.27-3.278-24.874-15.84-28.151-28.054z" opacity=".2"/>
                        <path fill="#720C11" d="M79.762 133.501c-23.235-6.232-47.1-30-53.291-53.095-1.373-5.14-1.765-9.804-1.275-13.893-4.594 18.599.378 39.075 14.916 53.599 15.014 15.014 36.373 19.818 55.448 14.426-4.524.84-9.846.546-15.798-1.037z"/>
                    </g>
                </g>
                <g transform="translate(-15.546 -35.434) translate(0 73.95)">
                    <g>
                        <path fill="#FFF" d="M2.549 13.193C-.546 10.378-.771 5.574 2.045 2.48 4.86-.616 9.664-.841 12.759 1.975l17.773 16.288c3.095 2.815 3.32 7.62.504 10.715-2.815 3.095-7.619 3.319-10.714.504L2.55 13.193z" transform="translate(60.504 48.18)"/>
                        <path fill="#FFF" d="M26.317 31.345c-4.16.42-7.886-2.62-8.306-6.78-.42-4.159 2.62-7.884 6.779-8.304l23.978-2.353c4.16-.42 7.885 2.619 8.305 6.778.42 4.16-2.62 7.885-6.779 8.306l-23.977 2.353z" transform="translate(60.504 48.18)"/>
                        <path fill="#98A7B4" d="M52.465 30.224c-5 .504-9.454-3.137-9.958-8.137-.504-5 3.137-9.454 8.137-9.958l9.258-.939c5-.504 9.454 3.138 9.958 8.138.504 5-3.137 9.454-8.137 9.958l-9.258.938z" transform="translate(60.504 48.18)"/>
                        <path fill="#98A7B4" d="M51.387 18.277c-1.05 1.275-2.928 1.47-4.202.42-1.275-1.05-1.47-2.927-.42-4.201l7.17-8.782c1.051-1.274 2.928-1.47 4.202-.42 1.275 1.05 1.47 2.927.42 4.202l-7.17 8.781z" transform="translate(60.504 48.18)"/>
                        <path fill="#2E3F53" d="M8.782 18.88l-6.247-5.687C-.56 10.378-.785 5.574 2.031 2.48 4.846-.616 9.65-.841 12.745 1.975l6.247 5.686L8.782 18.88z" transform="translate(60.504 48.18)"/>
                        <path fill="#C2CBD3" d="M10.546 15.049L25.7 15.049 25.7 19.223 10.546 19.223z" transform="translate(60.504 48.18) rotate(-47.671 18.123 17.136)"/>
                    </g>
                    <path fill="#FFF" d="M78.11 133.18c-7.158 3.683-15.953.868-19.637-6.303-3.683-7.157-.868-15.953 6.303-19.636l17.927-9.216c7.157-3.683 15.952-.868 19.636 6.303 3.683 7.157.868 15.952-6.303 19.636l-17.927 9.215z"/>
                    <path fill="#FFF" d="M92.115 118.95c-5.056-3.6-6.233-10.603-2.647-15.659 3.585-5.056 10.602-6.232 15.658-2.647l25.63 18.222c5.056 3.599 6.233 10.602 2.647 15.658-3.6 5.056-10.602 6.232-15.658 2.647l-25.63-18.221z"/>
                    <path fill="#C2CBD3" d="M102.297 126.19l-10.182-7.24c-5.056-3.6-6.233-10.603-2.647-15.659 3.585-5.056 10.602-6.232 15.658-2.647l10.182 7.241-13.011 18.305z"/>
                    <path fill="#C2CBD3" d="M104.498 118.863L126.95 118.863 126.95 125.053 104.498 125.053z" transform="rotate(-54.586 115.724 121.958)"/>
                    <path fill="#C2CBD3" d="M78.445 95.896l1.429 13.474c1.415 13.291-8.221 25.21-21.513 26.61-13.291 1.415-25.21-8.22-26.61-21.512l-1.429-13.474 48.123-5.098z"/>
                    <path fill="#FFF" d="M29.804 96.162l-2.605-26.358c-1.415-13.291 8.221-25.21 21.512-26.61 13.292-1.401 25.21 8.22 26.611 21.512l2.605 26.358-48.123 5.098z"/>
                    <path fill="#98A7B4" d="M30.056 93.583L78.458 93.583 78.458 101.048 30.056 101.048z" transform="rotate(-6.05 54.257 97.315)"/>
                    <path fill="#C2CBD3" d="M51.666 60.965L74.032 60.965 74.032 81.426 51.666 81.426z" transform="rotate(-6.05 62.85 71.196)"/>
                    <circle cx="50.157" cy="25.746" r="25.168" fill="#FFF" transform="rotate(-88.806 50.157 25.746)"/>
                    <path fill="#1A82FF" d="M50.672.588c13.894.294 24.916 11.793 24.636 25.687-.28 13.893-11.793 24.915-25.686 24.635C35.728 50.616 36.779.308 50.672.588z"/>
                    <path fill="#FFF" d="M50.672.588C45.49.476 40.63 1.947 36.57 4.552c2.619-.855 5.42-1.289 8.319-1.233 13.894.294 24.916 11.793 24.636 25.687-.182 8.711-4.762 16.288-11.583 20.672 9.888-3.221 17.129-12.423 17.367-23.403C75.602 12.38 64.566.882 50.672.588z" opacity=".2"/>
                    <g>
                        <path fill="#FFF" d="M25.028 1.695C28.278-.938 33.053-.448 35.686 2.8c2.633 3.25 2.143 8.025-1.106 10.658L15.84 28.613c-3.249 2.633-8.025 2.143-10.658-1.106-2.633-3.25-2.143-8.025 1.107-10.658L25.028 1.695z" transform="translate(0 57.423)"/>
                        <path fill="#FFF" d="M3.39 22.479c.21-4.188 3.767-7.409 7.94-7.199 4.188.21 7.41 3.768 7.2 7.941l-1.261 24.062c-.21 4.188-3.768 7.409-7.941 7.199-4.188-.21-7.41-3.768-7.2-7.941L3.39 22.479z" transform="translate(0 57.423)"/>
                        <path fill="#98A7B4" d="M.588 48.501c.252-5.014 4.524-8.88 9.538-8.627 5.014.252 8.88 4.524 8.628 9.538l-.463 9.285c-.252 5.014-4.523 8.88-9.537 8.628-5.015-.252-8.88-4.524-8.628-9.538l.462-9.286z" transform="translate(0 57.423)"/>
                        <path fill="#98A7B4" d="M12.563 49.216c-1.106-1.219-1.008-3.11.21-4.23 1.219-1.12 3.11-1.008 4.23.21l7.605 8.403c1.106 1.219 1.008 3.11-.21 4.23-1.219 1.12-3.11 1.009-4.23-.21l-7.605-8.403z" transform="translate(0 57.423)"/>
                        <path fill="#2E3F53" d="M18.473 7.017l6.555-5.322C28.278-.938 33.053-.448 35.686 2.8c2.633 3.25 2.143 8.025-1.106 10.658l-6.555 5.323-9.552-11.765z" transform="translate(0 57.423)"/>
                        <path fill="#C2CBD3" d="M16.718 8.934L20.892 8.934 20.892 24.089 16.718 24.089z" transform="translate(0 57.423) rotate(-39.079 18.805 16.512)"/>
                    </g>
                    <path fill="#FFF" d="M33.473 130.77c-4.201-6.876-2.03-15.854 4.846-20.042 6.877-4.187 15.855-2.03 20.042 4.846l10.519 17.2c4.201 6.876 2.03 15.853-4.846 20.041-6.877 4.188-15.855 2.03-20.042-4.846L33.473 130.77z"/>
                    <g>
                        <g>
                            <path fill="#111D28" d="M2.927 12.339C1.05 11.26.112 9.832.112 8.417c0-1.442.952-2.87 2.857-3.977 3.796-2.185 9.916-2.2 13.684-.028 1.876 1.078 2.815 2.507 2.815 3.921 0 1.443-.953 2.871-2.857 3.978-3.796 2.185-9.916 2.199-13.684.028z" opacity=".2" transform="translate(106.022 46.218) translate(2.1 12.185)"/>
                            <path fill="#1A82FF" d="M19.468 5.644V7.34c0 1.443-.953 2.871-2.857 3.978-3.796 2.184-9.916 2.198-13.684.028C1.05 10.266.112 8.838.112 7.423V5.644h19.356z" transform="translate(106.022 46.218) translate(2.1 12.185)"/>
                            <path fill="#40A0FF" d="M2.927 9.65C1.05 8.57.112 7.143.112 5.728c0-1.442.952-2.87 2.857-3.977 3.796-2.185 9.916-2.2 13.684-.028 1.876 1.078 2.815 2.507 2.815 3.921 0 1.443-.953 2.871-2.857 3.978-3.796 2.185-9.916 2.199-13.684.028z" transform="translate(106.022 46.218) translate(2.1 12.185)"/>
                            <path fill="#1A82FF" d="M9.72 10.112c-2.381 0-4.58-.518-6.233-1.47-1.442-.827-2.24-1.877-2.24-2.928 0-1.05.826-2.143 2.282-2.969 1.667-.966 3.908-1.499 6.303-1.499 2.367 0 4.58.519 6.232 1.471 1.443.826 2.241 1.877 2.241 2.927s-.826 2.143-2.283 2.97c-1.666.966-3.893 1.498-6.302 1.498z" transform="translate(106.022 46.218) translate(2.1 12.185)"/>
                            <path fill="#0F7CE8" d="M3.543 2.97c1.667-.967 3.908-1.5 6.303-1.5 2.367 0 4.58.519 6.232 1.471 1.387.798 2.171 1.793 2.227 2.815v-.112c0-1.05-.798-2.087-2.24-2.927-1.64-.952-3.852-1.47-6.233-1.47-2.395 0-4.636.532-6.303 1.498-1.442.84-2.283 1.919-2.283 2.97v.111c.085-1.008.897-2.044 2.297-2.857z" transform="translate(106.022 46.218) translate(2.1 12.185)"/>
                            <path fill="#FFF" d="M8.74 7.9V6.778c-.225-.084-.463-.196-.687-.322C6.835 5.757 6.681 5 7.647 4.44c.406-.238.868-.35 1.373-.364L9.006 7.94c.252.042.504.07.756.084H10.21c.938-.014 1.807-.238 2.521-.658.826-.476 1.219-1.064 1.135-1.709-.084-.602-.603-1.204-1.457-1.694-.574-.323-1.219-.575-1.905-.715v1.12c.224.085.434.197.644.323.56.322.897.658 1.009.98.126.378-.084.743-.588 1.037-.407.224-.855.35-1.345.364l.014-3.852c-.252-.042-.518-.07-.784-.084h-.42c-.953.014-1.821.238-2.55.659-.826.476-1.218 1.078-1.134 1.708.084.602.602 1.205 1.457 1.709.574.294 1.232.546 1.932.686z" transform="translate(106.022 46.218) translate(2.1 12.185)"/>
                        </g>
                        <g>
                            <path fill="#111D28" d="M2.815 12.24c-.21-.125-.406-.251-.588-.377 0 0-.028-1.807-.028-3.067 0-1.443-1.247-3.362.672-4.454 3.796-2.185 9.916-2.2 13.684-.028C18.43 5.392 19.37 6.82 19.37 8.235c0 1.443-.953 2.871-2.857 3.978-3.81 2.199-9.93 2.213-13.698.028z" opacity=".2" transform="translate(106.022 46.218) translate(0 7.843)"/>
                            <path fill="#1A82FF" d="M19.356 5.56v1.695c0 1.442-.953 2.871-2.857 3.977-3.796 2.185-9.916 2.2-13.684.029C.938 10.182 0 8.754 0 7.339V5.56h19.356z" transform="translate(106.022 46.218) translate(0 7.843)"/>
                            <path fill="#40A0FF" d="M2.815 9.552C.938 8.473 0 7.045 0 5.63c0-1.442.952-2.87 2.857-3.977 3.796-2.185 9.916-2.2 13.684-.028 1.876 1.078 2.815 2.507 2.815 3.921 0 1.443-.953 2.871-2.857 3.978-3.796 2.199-9.916 2.213-13.684.028z" transform="translate(106.022 46.218) translate(0 7.843)"/>
                            <path fill="#1A82FF" d="M9.608 10.028c-2.381 0-4.58-.518-6.233-1.47-1.442-.827-2.24-1.877-2.24-2.928 0-1.05.826-2.143 2.282-2.969 1.667-.966 3.908-1.499 6.303-1.499 2.367 0 4.58.519 6.232 1.471 1.443.826 2.241 1.877 2.241 2.927s-.826 2.143-2.283 2.97c-1.666.966-3.893 1.498-6.302 1.498z" transform="translate(106.022 46.218) translate(0 7.843)"/>
                            <path fill="#0F7CE8" d="M3.431 2.885C5.098 1.92 7.34 1.387 9.734 1.387c2.367 0 4.58.518 6.232 1.47 1.387.798 2.171 1.793 2.227 2.815V5.56c0-1.05-.798-2.087-2.24-2.927-1.64-.952-3.852-1.47-6.233-1.47-2.395 0-4.636.532-6.303 1.498-1.442.84-2.283 1.919-2.283 2.97v.111c.084-1.008.897-2.045 2.297-2.857z" transform="translate(106.022 46.218) translate(0 7.843)"/>
                            <path fill="#FFF" d="M8.627 7.815v-1.12c-.224-.084-.462-.196-.686-.322-1.218-.7-1.372-1.457-.406-2.017.406-.238.868-.35 1.373-.364l-.014 3.865c.252.042.504.07.756.084H10.098c.938-.014 1.807-.238 2.521-.658.826-.476 1.219-1.065 1.135-1.709-.085-.602-.603-1.204-1.457-1.694-.574-.323-1.219-.575-1.905-.715v1.12c.224.085.434.197.644.323.56.322.897.658 1.009.98.126.378-.084.743-.588 1.037-.407.224-.855.35-1.345.364l.014-3.852c-.252-.042-.518-.07-.784-.084h-.42c-.953.014-1.821.238-2.55.658-.826.477-1.218 1.079-1.134 1.71.084.601.602 1.204 1.457 1.708.574.294 1.232.546 1.932.686z" transform="translate(106.022 46.218) translate(0 7.843)"/>
                        </g>
                        <g>
                            <path fill="#111D28" d="M2.913 12.297C1.036 11.218.098 9.79.098 8.375c0-1.442.952-2.87 2.857-3.977 3.796-2.185 9.916-2.2 13.684-.028 1.876 1.078 2.815 2.507 2.815 3.921 0 1.443-.953 2.871-2.857 3.978-3.796 2.185-9.916 2.199-13.684.028z" opacity=".2" transform="translate(106.022 46.218) translate(3.221 3.922)"/>
                            <path fill="#1A82FF" d="M19.454 5.602v1.695c0 1.442-.953 2.871-2.857 3.978-3.796 2.184-9.916 2.198-13.684.028C1.036 10.224.098 8.796.098 7.38V5.602h19.356z" transform="translate(106.022 46.218) translate(3.221 3.922)"/>
                            <path fill="#40A0FF" d="M2.913 9.608C1.036 8.529.098 7.1.098 5.686c0-1.442.952-2.87 2.857-3.977 3.796-2.185 9.916-2.2 13.684-.028 1.876 1.078 2.815 2.507 2.815 3.921 0 1.443-.953 2.871-2.857 3.978-3.796 2.185-9.916 2.199-13.684.028z" transform="translate(106.022 46.218) translate(3.221 3.922)"/>
                            <path fill="#1A82FF" d="M9.706 10.07c-2.381 0-4.58-.518-6.233-1.47-1.442-.827-2.24-1.877-2.24-2.928 0-1.05.826-2.143 2.282-2.969 1.667-.966 3.908-1.499 6.303-1.499 2.367 0 4.58.519 6.232 1.471 1.443.826 2.241 1.877 2.241 2.927s-.826 2.143-2.283 2.97c-1.666.98-3.893 1.498-6.302 1.498z" transform="translate(106.022 46.218) translate(3.221 3.922)"/>
                            <path fill="#0F7CE8" d="M3.53 2.941c1.666-.966 3.907-1.498 6.302-1.498 2.367 0 4.58.518 6.232 1.47 1.387.798 2.171 1.793 2.227 2.815v-.112c0-1.05-.798-2.087-2.24-2.927-1.64-.952-3.852-1.47-6.233-1.47-2.395 0-4.636.532-6.303 1.498-1.442.84-2.283 1.919-2.283 2.97v.111c.085-1.022.897-2.059 2.297-2.857z" transform="translate(106.022 46.218) translate(3.221 3.922)"/>
                            <path fill="#FFF" d="M8.725 7.857v-1.12c-.224-.084-.462-.196-.686-.322-1.218-.7-1.372-1.457-.406-2.017.406-.238.868-.35 1.373-.364l-.014 3.865c.252.042.504.07.756.084H10.196c.938-.014 1.807-.238 2.521-.658.826-.476 1.219-1.064 1.135-1.709-.084-.602-.603-1.204-1.457-1.694-.574-.323-1.219-.575-1.905-.715v1.12c.224.085.434.197.644.323.56.322.897.658 1.009.98.126.378-.084.743-.588 1.037-.407.224-.855.35-1.345.364l.014-3.852c-.252-.042-.518-.07-.784-.084h-.42c-.953.014-1.821.238-2.55.659-.826.476-1.218 1.078-1.134 1.708.084.602.602 1.205 1.457 1.709.574.308 1.232.546 1.932.686z" transform="translate(106.022 46.218) translate(3.221 3.922)"/>
                        </g>
                        <g>
                            <path fill="#111D28" d="M2.941 12.339c-1.022-.588-1.779-1.289-2.24-2.03.644-.645 1.876-.673 1.876-1.303 0-1.443-1.499-3.46.406-4.566 3.796-2.185 9.916-2.2 13.684-.028 1.876 1.078 2.815 2.507 2.815 3.921 0 1.443-.953 2.871-2.857 3.978-3.796 2.199-9.916 2.213-13.684.028z" opacity=".2" transform="translate(106.022 46.218) translate(.98)"/>
                            <path fill="#1A82FF" d="M19.482 5.658v1.695c0 1.443-.953 2.871-2.857 3.978-3.796 2.184-9.916 2.198-13.684.028C1.064 10.28.126 8.852.126 7.437V5.658h19.356z" transform="translate(106.022 46.218) translate(.98)"/>
                            <path fill="#40A0FF" d="M2.941 9.65C1.064 8.57.126 7.143.126 5.728c0-1.442.952-2.87 2.857-3.977C6.78-.434 12.9-.45 16.667 1.723c1.876 1.078 2.815 2.507 2.815 3.921 0 1.443-.953 2.871-2.857 3.978-3.796 2.199-9.916 2.213-13.684.028z" transform="translate(106.022 46.218) translate(.98)"/>
                            <path fill="#1A82FF" d="M9.734 10.126c-2.381 0-4.58-.518-6.233-1.47-1.442-.827-2.24-1.877-2.24-2.928 0-1.05.826-2.143 2.282-2.969 1.667-.966 3.908-1.498 6.303-1.498 2.367 0 4.58.518 6.232 1.47 1.443.826 2.241 1.877 2.241 2.927s-.826 2.143-2.283 2.97c-1.666.966-3.893 1.498-6.302 1.498z" transform="translate(106.022 46.218) translate(.98)"/>
                            <path fill="#0F7CE8" d="M3.557 2.983c1.667-.966 3.908-1.498 6.303-1.498 2.367 0 4.58.518 6.232 1.47 1.387.799 2.171 1.793 2.227 2.815v-.112c0-1.05-.798-2.087-2.24-2.927-1.64-.952-3.838-1.47-6.22-1.47-2.394 0-4.635.532-6.302 1.498-1.442.84-2.282 1.919-2.282 2.97v.111c.07-1.008.882-2.044 2.282-2.857z" transform="translate(106.022 46.218) translate(.98)"/>
                            <path fill="#FFF" d="M8.754 7.913v-1.12c-.225-.084-.463-.196-.687-.322-1.218-.7-1.372-1.457-.406-2.017.406-.238.868-.35 1.373-.364L9.02 7.955c.252.042.504.07.756.084H10.224c.938-.014 1.807-.238 2.521-.658.826-.476 1.219-1.064 1.135-1.709-.084-.602-.603-1.204-1.457-1.694-.574-.323-1.219-.575-1.905-.715v1.12c.224.085.434.197.644.323.56.322.897.658 1.009.98.126.378-.084.743-.588 1.037-.407.224-.855.35-1.345.364l.014-3.852c-.252-.042-.518-.07-.784-.084h-.42c-.953.014-1.821.238-2.55.659-.826.476-1.218 1.078-1.134 1.708.084.602.602 1.205 1.457 1.709.574.294 1.232.546 1.933.686z" transform="translate(106.022 46.218) translate(.98)"/>
                        </g>
                    </g>
                    <path fill="#FFF" d="M111.933 50.154c-2.83 0-3.866.924-3.866 3.866 0-2.956-1.05-3.866-3.865-3.866 2.829 0 3.865-.924 3.865-3.865 0 2.955 1.037 3.865 3.866 3.865z"/>
                </g>
                <path fill="#FFF" d="M84.552 147.059c21.596 12.717 51.989 16.106 54.846-1.807 2.829-17.717-17.101-28.543-15.869-34.3 1.233-5.756 17.507-5.42 15.953-12.829-1.429-6.82-10.154-4.762-10.154-4.762l.07.294c2.129-.14 4.327-.266 6.302.547 1.975.812 3.586 2.885 3.152 4.972-.35 1.708-1.92 2.885-3.46 3.725-3.235 1.765-7.38 2.157-10.322 4.398-2.941 2.227-4.986 5.63 1.569 11.919 6.554 6.288 15.154 20.014 9.327 29.033-5.84 9.034-24.44 12.48-53.179-6.512l1.765 5.322z" transform="translate(-15.546 -35.434)"/>
                <g>
                    <g transform="translate(-15.546 -35.434) translate(80.672 72.549) translate(38.375 21.849)">
                        <path fill="#FBFBFB" d="M2.185 6.877h.196c.098 0 .196 0 .28-.014.07.028.154.056.224.084 0 0-.574.084-1.204-.168.168.056.336.084.504.098z"/>
                        <path fill="#004870" d="M5.196 4.51c0-.91-.532-1.695-1.33-2.129.952.35 1.624 1.204 1.624 2.199 0 1.666-1.148 2.367-2.563 2.367h-.084c1.33-.084 2.353-.827 2.353-2.437z"/>
                        <path fill="#FBFBFB" d="M4.72 4.44c0-1.05-.63-1.947-1.527-2.297 1.149.266 2.003 1.232 2.003 2.38v.14c-.14-.07-.308-.125-.476-.181V4.44z"/>
                        <path fill="#1A82FF" d="M2.9 6.96c-.085-.027-.155-.055-.225-.083 1.149-.14 2.03-1.163 2.045-2.395.168.056.336.112.476.182C5.14 6.148 4.16 6.849 2.9 6.96zM.042 4.314c.042.91.602 1.638 1.317 1.792.196.21.588.505 1.302.77-.098.015-.182.015-.28.015C1.092 6.89.042 5.798.042 4.44v-.126z"/>
                        <ellipse cx="1.625" cy="4.202" fill="#004870" rx="1.583" ry="1.933"/>
                        <path fill="#1A82FF" d="M3.207 4.202c0-1.065-.714-1.933-1.582-1.933-.168 0-.35.042-.505.098.365-.238.799-.378 1.261-.378 1.288 0 2.339 1.092 2.339 2.45v.043c-.056-.014-.098-.028-.154-.042-.42-.112-1.065-.182-1.359-.224v-.014z"/>
                        <path fill="#FBFBFB" d="M4.72 4.482c-.014 1.232-.91 2.24-2.045 2.395-.714-.28-1.092-.56-1.302-.77.084.013.168.027.266.027.868 0 1.568-.854 1.582-1.904.294.028.925.112 1.359.224.042 0 .084.014.14.028z"/>
                        <path fill="#40A0FF" d="M2.017.364S.84 2.101 1.569 4.524c0 0 .406-1.135 2.269-1.625 0 0-.883-.77-.113-2.297L2.017.364z"/>
                        <path fill="#1A82FF" d="M1.569 4.51C.84 2.1 2.017.35 2.017.35L.644.07S-.28 2.199.434 3.641l1.135.869z"/>
                    </g>
                    <g transform="translate(-15.546 -35.434) translate(80.672 72.549) translate(39.356 12.745)">
                        <path fill="#004870" d="M2.521 4.832c1.345 0 2.437-1.036 2.437-2.325 0-.56-.21-1.078-.56-1.485.49.42.798 1.037.798 1.71 0 1.288-1.092 2.324-2.437 2.324-.756 0-1.428-.322-1.877-.84.435.378 1.009.616 1.639.616z"/>
                        <circle cx="1.639" cy="1.681" r="1.415" fill="#004870"/>
                        <path fill="#1A82FF" d="M.112 2.843c.28.84 1.12 1.457 2.1 1.457 1.22 0 2.2-.939 2.2-2.101.182.084.364.182.546.308 0 1.275-1.092 2.31-2.437 2.31-1.218.015-2.24-.853-2.409-1.974z"/>
                        <path fill="#FBFBFB" d="M2.9.21c1.162.168 2.058 1.135 2.058 2.297v.014c-.182-.126-.364-.238-.546-.308 0-.938-.63-1.723-1.513-2.003z"/>
                        <path fill="#FBFBFB" d="M2.213 4.3C.994 4.3.014 3.36.014 2.199c0-.42.126-.798.35-1.135-.084.182-.14.393-.14.603 0 .784.63 1.414 1.415 1.414.77 0 1.386-.602 1.414-1.358.224.042.644.154 1.359.476 0 1.162-.98 2.1-2.2 2.1z"/>
                        <path fill="#1A82FF" d="M3.053 1.68c0-.784-.63-1.414-1.414-1.414-.14 0-.266.014-.393.056.295-.14.617-.21.967-.21 1.218 0 2.199.938 2.199 2.1-.729-.307-1.149-.433-1.359-.475V1.68z"/>
                    </g>
                    <g>
                        <path fill="#004870" d="M21.555 15.406c-5-2.647-10.35-7.745-10.252-10.126 1.834-1.386 8.319-1.162 14.131.995.532.196 2.297 2.044.574 5.84-1.456 3.18-3.501 3.613-4.453 3.291zM43.32 20.014c.574-1.26.49-2.591-.113-3.39.715.547 1.443 1.107 2.171 1.71 0 0 .826.966-.126 2.716-.868 1.611-2.1 1.64-2.1 1.64-.897-.155-1.78-.323-2.634-.505 1.037 0 2.2-.84 2.801-2.171z" transform="translate(-15.546 -35.434) translate(80.672 72.549)"/>
                        <path fill="#FBFBFB" d="M41.457 17.24c.07-.853-.084-1.638-.463-2.24.715.518 1.457 1.05 2.2 1.625.377.49.545 1.19.49 1.946-.617-.378-1.345-.826-2.227-1.33zM40.224 20.182c.84.308 1.653.602 2.423.868-.616.715-1.4 1.135-2.143 1.12-.238-.055-.476-.097-.7-.153h-.014l-.126-.028c-.602-.14-1.205-.28-1.793-.42.826-.084 1.68-.589 2.353-1.387z" transform="translate(-15.546 -35.434) translate(80.672 72.549)"/>
                        <path fill="#1A82FF" d="M41.008 18.936c.253-.56.407-1.149.449-1.695.868.504 1.61.952 2.226 1.33-.042.463-.154.953-.378 1.429-.182.392-.406.742-.658 1.036-.77-.266-1.597-.56-2.423-.868.308-.336.574-.756.784-1.232z" transform="translate(-15.546 -35.434) translate(80.672 72.549)"/>
                        <path fill="#1A82FF" d="M38.67 15.714c.098-1.05-.127-2.03-.63-2.73.952.63 1.946 1.302 2.954 2.03.365.602.533 1.387.463 2.24-.813-.475-1.737-.98-2.788-1.54zM37.24 19.062c1.01.392 2.018.77 2.984 1.12-.672.798-1.527 1.289-2.353 1.373-1.204-.309-2.367-.63-3.46-.953.981-.028 2.018-.602 2.83-1.54z" transform="translate(-15.546 -35.434) translate(80.672 72.549)"/>
                        <path fill="#FBFBFB" d="M38.151 17.619c.28-.63.448-1.288.518-1.905 1.065.56 1.99 1.065 2.788 1.527-.042.56-.196 1.134-.449 1.695-.21.462-.476.882-.784 1.246-.98-.35-1.975-.728-2.983-1.12.35-.407.672-.897.91-1.443zM36.12 14.412c-.294-.154-.588-.294-.868-.434.126-1.275-.168-2.451-.812-3.236 1.134.659 2.339 1.4 3.6 2.227.503.7.728 1.68.63 2.731-.77-.392-1.625-.826-2.55-1.288zM33.697 17.619c.28.126.56.238.855.364.882.364 1.779.728 2.675 1.079-.812.938-1.849 1.512-2.83 1.54-1.386-.42-2.674-.854-3.879-1.274 1.12-.028 2.27-.659 3.18-1.709z" transform="translate(-15.546 -35.434) translate(80.672 72.549)"/>
                        <path fill="#1A82FF" d="M33.697 17.619c.393-.448.729-.98 1.009-1.583.308-.686.49-1.372.56-2.044.28.14.574.28.868.434.925.462 1.765.896 2.535 1.302-.056.617-.224 1.275-.518 1.905-.252.546-.56 1.036-.91 1.443-.896-.35-1.807-.715-2.675-1.079-.294-.14-.588-.266-.869-.378zM31.036 11.933c.154-1.359-.14-2.633-.812-3.488 1.233.617 2.647 1.387 4.23 2.311.658.799.952 1.961.812 3.236-1.709-.855-3.11-1.527-4.23-2.06zM29.384 15.7c1.204.56 2.647 1.205 4.313 1.919-.91 1.064-2.072 1.695-3.165 1.709-1.75-.63-3.291-1.247-4.58-1.807 1.19 0 2.451-.686 3.432-1.82z" transform="translate(-15.546 -35.434) translate(80.672 72.549)"/>
                        <path fill="#FBFBFB" d="M34.706 16.036c-.266.603-.616 1.135-1.009 1.583-1.666-.714-3.109-1.358-4.313-1.919.42-.476.784-1.05 1.064-1.68.308-.687.504-1.401.588-2.087 1.135.532 2.521 1.204 4.23 2.059-.07.658-.252 1.358-.56 2.044zM25.14 13.613c.602.323 2.03 1.05 4.244 2.087-.98 1.149-2.241 1.821-3.432 1.821-2.787-1.204-4.397-2.1-4.397-2.1.784.251 2.283.013 3.585-1.808zM25.434 6.289s1.82.658 4.79 2.156c.686.869.98 2.13.812 3.488-2.619-1.247-3.837-1.737-4.355-1.933.364-2.367-.827-3.557-1.247-3.711z" transform="translate(-15.546 -35.434) translate(80.672 72.549)"/>
                        <path fill="#1A82FF" d="M25.994 12.115c.365-.798.575-1.499.673-2.129.532.196 1.736.7 4.355 1.933-.084.686-.266 1.386-.588 2.087-.294.63-.658 1.204-1.064 1.68-2.213-1.022-3.628-1.764-4.244-2.087.308-.392.602-.896.868-1.484z" transform="translate(-15.546 -35.434) translate(80.672 72.549)"/>
                        <path fill="#FBFBFB" d="M.098.126l11.639 4.86s.042.182-.084.476c-.112.294-.378.392-.378.392L.098.126z" transform="translate(-15.546 -35.434) translate(80.672 72.549)"/>
                    </g>
                    <g>
                        <g transform="translate(-15.546 -35.434) translate(80.672 72.549) translate(43.978 17.507) translate(4.342)">
                            <path fill="#004870" d="M5.742 2.731c0-.63-.21-1.204-.574-1.653.504.463.826 1.12.826 1.85 0 1.372-1.12 2.492-2.493 2.492-.098 0-.182 0-.28-.014 1.4-.084 2.521-1.246 2.521-2.675z"/>
                            <circle cx="2.003" cy="2.199" r="1.947" fill="#004870"/>
                            <path fill="#FFF" d="M5.406 2.493c-.014 0-.014 0 0 0C5.35 1.331 4.552.378 3.473.084c1.275.196 2.255 1.289 2.27 2.62-.099-.07-.21-.141-.337-.211z"/>
                            <path fill="#1A82FF" d="M3.95 2.03C3.866 1.037 3.025.253 2.003.253c-.14 0-.28.014-.406.042C1.947.112 2.353 0 2.787 0c1.4 0 2.55 1.106 2.605 2.493-.546-.294-1.204-.434-1.442-.462z"/>
                            <path fill="#FFF" d="M2.9 5.406c-.617-.042-1.177-.294-1.611-.672.378.266.826.434 1.302.476.154.098.252.154.308.196z"/>
                            <path fill="#1A82FF" d="M2.591 5.196c.07 0 .126.014.196.014 1.443 0 2.605-1.162 2.605-2.605v-.112c.126.07.238.14.336.21v.028c0 1.47-1.19 2.675-2.675 2.675h-.168c-.042-.042-.14-.098-.294-.21zM1.905 4.146l.014.028s.28.742.672 1.036C1.373 5.112.378 4.174.211 2.983c.293.644.937 1.12 1.694 1.163z"/>
                            <path fill="#FFF" d="M3.964 2.03c.252.043.896.169 1.428.463v.112c0 1.443-1.162 2.605-2.605 2.605h-.14c-.406-.294-.742-1.064-.742-1.064h.098c1.078 0 1.947-.869 1.947-1.947.014-.056.014-.112.014-.168z"/>
                        </g>
                        <path fill="#40A0FF" d="M.07 2.199s2.76-.112 5.546.49c0 0-.168-.196-.112-.896.042-.659.308-.7.308-.7S2.927.447.266.56c0-.014.112.77-.196 1.639z" transform="translate(-15.546 -35.434) translate(80.672 72.549) translate(43.978 17.507)"/>
                        <path fill="#1A82FF" d="M.07 2.199s2.76-.112 5.546.49c0 0-.784-.168-.966.308-.084.196.042.308.042.308s-1.359-.35-3.502-.364L.07 2.2z" transform="translate(-15.546 -35.434) translate(80.672 72.549) translate(43.978 17.507)"/>
                    </g>
                </g>
            </g>
        </g>
    </g>
</svg>
