<svg xmlns="http://www.w3.org/2000/svg" width="151" height="151" viewBox="0 0 151 151">
    <g fill="none" transform="translate(-18 -18)">
        <circle cx="93.679" cy="93.762" r="74.866" fill="#C2CBD3" fill-opacity=".5" opacity=".8"/>
        <circle cx="93.67" cy="93.775" r="66.205" fill="#9CAAB5" transform="rotate(-45 93.67 93.775)"/>
        <path fill="#C2CBD3" d="M143.258 137.669c23.073-26.007 22.133-65.791-2.767-90.691-25.094-25.094-65.32-25.84-91.3-2.213-.774.58-1.494 1.217-2.158 1.909-6.889 6.888-9.213 18.315-5.395 32.646 7.72 28.801 37.46 58.432 66.428 66.179 14.552 3.9 26.145 1.549 33.117-5.423.747-.775 1.438-1.577 2.075-2.407z"/>
        <path fill="#FFF" d="M157.257 112.271c6.501-22.438.913-47.614-16.766-65.293-18.73-18.73-45.899-23.904-69.277-15.493l.027.027c-3.209 1.162-5.948 2.905-8.189 5.146-6.446 6.447-8.632 17.126-5.035 30.544 7.22 26.947 35.026 54.67 62.139 61.918 13.612 3.652 24.457 1.439 30.959-5.09 3.07-3.044 5.173-7.028 6.142-11.759z" opacity=".2"/>
        <path fill="#FFF" d="M100.955 53.507c-1.909-7.11-.747-12.782 2.684-16.185 3.458-3.458 9.213-4.62 16.434-2.683 14.359 3.845 29.133 18.564 32.95 32.84 1.91 7.11.748 12.782-2.683 16.185-3.458 3.458-9.213 4.62-16.434 2.683-14.386-3.845-29.133-18.536-32.95-32.84z" opacity=".2"/>
        <path fill="#83919B" d="M93.264 156.233c-27.196-7.276-55.112-35.109-62.36-62.139-1.605-6.004-2.048-11.482-1.494-16.268-5.368 21.774.442 45.733 17.457 62.748 17.568 17.568 42.579 23.184 64.906 16.876-5.312.996-11.537.664-18.509-1.217z"/>
    </g>
</svg>
