<svg xmlns="http://www.w3.org/2000/svg" width="214" height="214" viewBox="0 0 214 214">
    <g fill="none" transform="translate(-26 -26)">
        <circle cx="133.27" cy="133.242" r="106.433" fill="#0070E0" fill-opacity=".5" opacity=".8"/>
        <circle cx="133.262" cy="133.254" r="94.121" fill="#0067BC" transform="rotate(-45 133.262 133.254)"/>
        <path fill="#0070E0" d="M203.737 195.63c32.785-36.962 31.484-93.54-3.929-128.926-35.662-35.662-92.849-36.713-129.784-3.154-1.079.83-2.103 1.743-3.07 2.711-9.795 9.822-13.115 26.035-7.665 46.397 10.956 40.92 53.259 83.055 94.426 94.094 20.695 5.534 37.184 2.186 47.061-7.719 1.107-1.079 2.075-2.185 2.96-3.403z"/>
        <path fill="#FFF" d="M223.657 159.525c9.24-31.9 1.3-67.7-23.849-92.82-26.615-26.616-65.238-33.975-98.465-22.023l.055.055c-4.537 1.66-8.466 4.122-11.648 7.304-9.157 9.185-12.256 24.374-7.165 43.409 10.264 38.29 49.8 77.687 88.34 88.007 19.366 5.174 34.776 2.047 44.017-7.22 4.343-4.29 7.331-9.96 8.715-16.712z" opacity=".2"/>
        <path fill="#FFF" d="M143.59 76.028c-2.712-10.099-1.052-18.15 3.79-23.019 4.897-4.924 13.086-6.584 23.35-3.818 20.418 5.478 41.417 26.366 46.84 46.674 2.711 10.098 1.051 18.149-3.79 23.018-4.897 4.925-13.087 6.585-23.351 3.818-20.418-5.478-41.39-26.366-46.84-46.673z" opacity=".2"/>
        <path fill="#005FA0" d="M132.689 222.052c-38.678-10.347-78.352-49.91-88.644-88.34-2.296-8.548-2.932-16.295-2.13-23.101-7.636 30.931.636 65.016 24.817 89.197 24.983 24.983 60.507 32.979 92.268 23.987-7.553 1.383-16.406.913-26.311-1.743z"/>
    </g>
</svg>
