<svg xmlns="http://www.w3.org/2000/svg" width="104" height="104" viewBox="0 0 104 104">
    <g fill="none" transform="translate(-13 -12.585)">
        <circle cx="64.795" cy="64.767" r="51.626" fill="#ED2A28" fill-opacity=".5" opacity=".8"/>
        <circle cx="64.794" cy="64.765" r="45.649" fill="#A51927" transform="rotate(-45 64.794 64.765)"/>
        <path fill="#ED2A28" d="M98.963 95.035c15.909-17.928 15.272-45.374-1.909-62.554-17.291-17.292-45.04-17.818-62.969-1.522-.525.415-1.023.83-1.494 1.3-4.758 4.759-6.363 12.644-3.707 22.52 5.312 19.865 25.84 40.283 45.816 45.65 10.043 2.684 18.038 1.052 22.825-3.734.553-.526 1.023-1.08 1.438-1.66z"/>
        <path fill="#FFF" d="M108.647 77.522c4.482-15.466.636-32.84-11.565-45.041-12.92-12.92-31.65-16.49-47.78-10.68l.027.028c-2.213.802-4.094 1.992-5.643 3.541-4.455 4.455-5.949 11.814-3.486 21.055 4.98 18.564 24.152 37.681 42.855 42.689 9.379 2.518 16.877.996 21.359-3.514 2.102-2.075 3.541-4.814 4.233-8.078z" opacity=".2"/>
        <path fill="#FFF" d="M69.803 37.018c-1.3-4.897-.526-8.798 1.853-11.177 2.38-2.38 6.336-3.182 11.316-1.854 9.905 2.656 20.086 12.782 22.714 22.631 1.3 4.897.526 8.798-1.853 11.177-2.38 2.38-6.336 3.182-11.316 1.854-9.905-2.656-20.086-12.782-22.714-22.631z" opacity=".2"/>
        <path fill="#720C11" d="M64.49 107.844C45.734 102.81 26.478 83.636 21.47 64.99c-1.107-4.15-1.412-7.913-1.024-11.205-3.708 15.023.304 31.54 12.035 43.27 12.118 12.118 29.354 15.992 44.764 11.648-3.652.664-7.94.443-12.754-.858z"/>
    </g>
</svg>
