<svg xmlns="http://www.w3.org/2000/svg" width="391" height="286" viewBox="0 0 391 286">
    <g fill="none" fill-rule="evenodd">
        <g fill-rule="nonzero">
            <path fill="#FFF" d="M2.988 14.497C-.442 11.592-.885 6.474 2.02 3.043c2.905-3.43 8.023-3.873 11.454-.968l25.26 21.303c3.43 2.905 3.873 8.024.968 11.454-2.905 3.43-8.024 3.874-11.454.969L2.988 14.497z" transform="translate(.138 -3.447) translate(187.303 60.866)"/>
            <path fill="#FFF" d="M29.548 36.714c-3.956-2.103-5.45-7.028-3.348-10.984 2.103-3.956 7.028-5.45 10.984-3.348l29.16 15.577c3.957 2.102 5.45 7.027 3.348 10.983-2.103 3.956-7.027 5.45-10.984 3.348l-29.16-15.576z" transform="translate(.138 -3.447) translate(187.303 60.866)"/>
            <path fill="#98A7B4" d="M63.412 51.93c-3.182-2.158-4.012-6.501-1.826-9.683 2.158-3.182 6.501-4.012 9.683-1.826l5.893 4.012c3.182 2.158 4.012 6.501 1.826 9.683-2.158 3.181-6.502 4.011-9.683 1.826l-5.893-4.012z" transform="translate(.138 -3.447) translate(187.303 60.866)"/>
            <path fill="#2E3F53" d="M9.905 20.335l-6.917-5.838C-.442 11.592-.885 6.474 2.02 3.043c2.905-3.43 8.023-3.873 11.454-.968l6.916 5.838L9.905 20.335z" transform="translate(.138 -3.447) translate(187.303 60.866)"/>
            <path fill="#C2CBD3" d="M11.723 15.835L27.964 15.835 27.964 20.317 11.723 20.317z" transform="translate(.138 -3.447) translate(187.303 60.866) rotate(-49.851 19.843 18.076)"/>
            <path fill="#B3BDC6" d="M29.99 75.751c-8.631-.277-15.41-7.47-15.133-16.102.277-8.632 7.47-15.41 16.102-15.133l50.906 1.328c8.632.276 15.41 7.47 15.134 16.101-.277 8.632-7.47 15.41-16.102 15.134l-50.906-1.328z" transform="translate(.138 -3.447) translate(187.303 60.866)"/>
        </g>
        <g fill-rule="nonzero">
            <path fill="#ED2A28" d="M111.358 105.105s-3.375-9.794-12.505-11.509l24.927-36.658c19.976 0 32.674 14.414 32.674 14.414l-45.096 33.753zM116.615 125.496s7.22 16.212-10.154 37.903l47.78 7.94s22.465-25.896 17.43-53.48l-55.056 7.637z" transform="translate(.138 -3.447) translate(0 81.893)"/>
            <path fill="#9E1D20" d="M109.09 107.512C149.066 64.408 283.858-2.545 359.941 10.21c.25.028.498.166.775.36.968.719 1.604 2.324 1.466 3.513-.055.332-.138.581-.277.775-44.238 63.163-186.5 112.354-245.264 110.61-.968-.137-2.02-.58-3.07-1.41-3.708-2.822-6.226-8.826-5.645-13.418.139-1.273.554-2.352 1.162-3.127zM151.308 164.367c-12.892-8.355-37.156-9.988-56.66 6.087-1.91 1.521-3.265 4.177-3.708 7.774-1.162 9.075 3.763 20.888 11.094 26.477 2.905 2.213 5.727 3.099 8.134 2.794 25.122-2.628 41.002-21.11 44.073-36.132.332-2.407-.996-5.534-2.933-7z" transform="translate(.138 -3.447) translate(0 81.893)"/>
            <path fill="#ED2A28" d="M63.163 127.598c21.386-8.3 45.4-11.094 45.4-11.094l33.782-19.118s-50.713 11.648-80.317 21.58l1.135 8.632z" transform="translate(.138 -3.447) translate(0 81.893)"/>
            <path fill="#EBEFF2" d="M361.657 14.082c-.22.111-.525.028-.83-.193-.608-.47-1.023-1.439-.94-2.214.055-.387.221-.636.442-.719L390.32.221l-28.663 13.861z" transform="translate(.138 -3.447) translate(0 81.893)"/>
            <path fill="#ED2A28" d="M235.498 78.407c-4.842-6.446-8.328-14.663-9.545-22.604 9.766-4.15 20.003-8.327 29.852-12.2 1.134 7.746 4.537 15.825 9.324 22.05-9.767 4.371-19.699 8.632-29.631 12.754z" transform="translate(.138 -3.447) translate(0 81.893)"/>
            <path fill="#EBEFF2" d="M206.005 90.193c-4.592-6.197-7.912-14.027-9.157-21.635 9.462-4.289 19.228-8.577 29.105-12.755 1.245 7.94 4.703 16.158 9.545 22.604-9.905 4.095-19.782 8.051-29.493 11.786z" transform="translate(.138 -3.447) translate(0 81.893)"/>
            <path fill="#ED2A28" d="M179.224 100.153c-4.205-5.727-7.083-12.478-8.245-19.477 8.273-3.984 16.932-8.051 25.869-12.118 1.245 7.608 4.565 15.438 9.157 21.635-9.157 3.541-18.121 6.861-26.78 9.96z" transform="translate(.138 -3.447) translate(0 81.893)"/>
            <path fill="#EBEFF2" d="M179.224 100.153c-8.217 2.933-16.157 5.672-23.627 8.134-3.403-4.786-5.893-10.68-6.972-16.462 7-3.596 14.497-7.331 22.354-11.15 1.19 7 4.04 13.751 8.245 19.478zM225.953 55.803c-.553-3.513-.664-7-.25-10.236.859-6.834 3.93-11.177 8.107-12.92 9.767-3.846 19.643-7.36 29.465-10.43-3.929 1.66-6.834 5.699-7.664 12.145-.36 2.933-.304 6.059.166 9.24-9.821 3.874-20.03 8.051-29.824 12.201z" transform="translate(.138 -3.447) translate(0 81.893)"/>
            <path fill="#ED2A28" d="M204.428 45.318c9.573-4.482 19.422-8.743 29.382-12.644-4.177 1.743-7.248 6.087-8.106 12.92-.415 3.238-.304 6.696.249 10.237-9.877 4.178-19.643 8.466-29.105 12.754-.581-3.596-.72-7.165-.305-10.458.886-6.75 3.79-11.094 7.885-12.81z" transform="translate(.138 -3.447) translate(0 81.893)"/>
            <path fill="#EBEFF2" d="M170.98 80.676c-.582-3.403-.803-6.972-.416-10.099.803-6.28 3.597-10.347 7.415-11.952 8.466-4.592 17.375-9.13 26.477-13.418-4.122 1.716-7.083 6.142-7.94 12.893-.415 3.292-.305 6.861.304 10.458-8.909 4.067-17.568 8.106-25.84 12.118z" transform="translate(.138 -3.447) translate(0 81.893)"/>
            <path fill="#ED2A28" d="M148.625 91.825c-.581-3.181-.72-6.335-.36-9.24.692-5.506 3.182-9.047 6.557-10.486 7.276-4.537 15.05-9.047 23.185-13.446-3.818 1.605-6.64 5.672-7.415 11.952-.387 3.126-.166 6.695.415 10.098-7.885 3.763-15.383 7.498-22.382 11.122zM155.597 108.287c1.853 2.628 3.984 4.897 6.308 6.668 4.51 3.43 8.825 4.15 12.228 2.71 8.356-2.019 17.043-4.398 25.896-7.11-3.873 1.633-8.798.748-13.916-3.153-2.49-1.882-4.842-4.51-6.861-7.249-8.245 2.96-16.185 5.672-23.655 8.134z" transform="translate(.138 -3.447) translate(0 81.893)"/>
            <path fill="#EBEFF2" d="M206.005 90.193c2.158 2.905 4.565 5.423 7.194 7.442 5.478 4.178 10.79 5.174 14.94 3.431-9.435 3.514-18.897 6.668-28.11 9.49-3.873 1.632-8.798.747-13.916-3.154-2.49-1.882-4.842-4.51-6.861-7.249 8.632-3.099 17.596-6.419 26.753-9.96z" transform="translate(.138 -3.447) translate(0 81.893)"/>
            <path fill="#ED2A28" d="M228.139 101.01c9.877-3.679 19.781-7.718 29.547-12.062-4.205 1.77-9.517.94-15.078-3.292-2.573-1.965-4.952-4.427-7.082-7.249-9.905 4.095-19.81 8.051-29.493 11.786 2.158 2.905 4.565 5.423 7.193 7.442 5.478 4.15 10.763 5.119 14.913 3.376z" transform="translate(.138 -3.447) translate(0 81.893)"/>
            <path fill="#EBEFF2" d="M235.526 78.407c2.13 2.822 4.51 5.312 7.082 7.249 5.561 4.233 10.873 5.063 15.078 3.292 9.6-4.288 19.035-8.88 28.137-13.723-3.984 1.66-8.991.969-14.248-3.043-2.324-1.77-4.51-3.984-6.446-6.53-9.767 4.372-19.699 8.633-29.603 12.755z" transform="translate(.138 -3.447) translate(0 81.893)"/>
            <path fill="#ED2A28" d="M119.354 192.808c4.26-1.715 8.272-3.624 11.924-5.616.775.83 1.605 1.605 2.49 2.269 3.21 2.434 6.336 3.043 8.77 2.02.526-.222 1.024-.526 1.467-.886-2.407 2.656-5.202 5.174-8.356 7.415-.553.442-1.19.747-1.826 1.023-2.932 1.245-6.695.526-10.568-2.434-1.384-1.107-2.712-2.38-3.901-3.79z" transform="translate(.138 -3.447) translate(0 81.893)"/>
            <path fill="#EBEFF2" d="M106.35 197.18c4.538-1.245 8.937-2.74 13.004-4.372 1.19 1.411 2.517 2.684 3.9 3.735 3.874 2.96 7.637 3.652 10.57 2.435.636-.277 1.272-.553 1.825-1.024-4.094 2.905-8.77 5.368-14.027 7.083-2.932.913-6.584 0-10.292-2.822-1.798-1.356-3.486-3.071-4.98-5.035zM104.441 164.007c4.676-2.407 9.435-4.011 14.138-4.924-.526.083-1.024.193-1.494.387-2.905 1.217-5.008 4.344-5.616 9.102-.222 1.799-.056 3.625.166 5.59-4.067 1.77-8.273 3.872-12.367 6.252-.36-2.49-.443-4.925-.139-7.194.581-4.648 2.546-7.83 5.312-9.213z" transform="translate(.138 -3.447) translate(0 81.893)"/>
            <path fill="#ED2A28" d="M99.268 180.441c4.122-2.407 8.272-4.482 12.367-6.252.691 6.53 3.486 13.612 7.719 18.62-4.095 1.66-8.439 3.153-13.004 4.37-3.596-4.703-6.197-10.9-7.082-16.738zM111.635 174.161c4.205-1.826 8.272-3.32 12.256-4.537-.055-1.162-.028-2.297.11-3.376.499-3.956 2.242-6.529 4.649-7.553.664-.276 1.383-.442 2.13-.47-3.597-.166-7.332.028-11.122.692-.913.055-1.77.221-2.573.58-2.905 1.218-5.008 4.344-5.616 9.103-.222 1.798-.056 3.624.166 5.561z" transform="translate(.138 -3.447) translate(0 81.893)"/>
            <path fill="#EBEFF2" d="M119.354 192.808c4.26-1.715 8.272-3.624 11.924-5.616-4.205-4.51-7.11-11.37-7.415-17.513-3.956 1.19-8.05 2.711-12.256 4.537.692 6.502 3.486 13.557 7.747 18.592z" transform="translate(.138 -3.447) translate(0 81.893)"/>
            <path fill="#9E1D20" d="M123.531 54.835c-12.892-8.355-37.156-9.987-56.66 6.087-1.91 1.521-3.266 4.177-3.708 7.774C62 77.771 66.925 89.584 74.257 95.173c2.905 2.213 5.727 3.099 8.134 2.794 25.121-2.628 41.002-21.11 44.073-36.132.304-2.407-1.024-5.534-2.933-7z" transform="translate(.138 -3.447) translate(0 81.893)"/>
            <path fill="#ED2A28" d="M91.549 83.276c4.26-1.715 8.272-3.624 11.924-5.616.775.83 1.605 1.605 2.49 2.269 3.21 2.434 6.336 3.043 8.77 2.02.526-.222 1.024-.526 1.467-.886-2.407 2.656-5.202 5.174-8.356 7.415-.553.442-1.19.747-1.826 1.023-2.932 1.245-6.695.526-10.568-2.434-1.384-1.107-2.684-2.38-3.901-3.79z" transform="translate(.138 -3.447) translate(0 81.893)"/>
            <path fill="#EBEFF2" d="M78.545 87.648c4.538-1.245 8.937-2.74 13.004-4.372 1.19 1.411 2.517 2.684 3.9 3.735 3.874 2.96 7.637 3.652 10.57 2.435.636-.277 1.272-.553 1.825-1.024-4.094 2.905-8.77 5.368-14.027 7.083-2.932.913-6.584 0-10.292-2.822-1.798-1.356-3.486-3.071-4.98-5.035zM76.636 54.475c4.676-2.407 9.435-4.011 14.138-4.924-.526.083-1.024.193-1.494.387-2.905 1.217-5.008 4.344-5.616 9.102-.222 1.799-.056 3.625.166 5.59-4.067 1.77-8.273 3.872-12.367 6.252-.36-2.49-.443-4.925-.139-7.194.581-4.648 2.546-7.802 5.312-9.213z" transform="translate(.138 -3.447) translate(0 81.893)"/>
            <path fill="#ED2A28" d="M71.463 70.91c4.122-2.408 8.272-4.483 12.367-6.253.691 6.53 3.486 13.612 7.719 18.62-4.095 1.66-8.439 3.153-13.004 4.37-3.596-4.703-6.197-10.9-7.082-16.738zM83.83 64.63c4.205-1.827 8.272-3.32 12.256-4.538-.055-1.162-.028-2.297.11-3.376.499-3.956 2.242-6.529 4.649-7.553.664-.276 1.383-.442 2.13-.47-3.597-.166-7.332.028-11.122.692-.913.055-1.77.221-2.573.58-2.905 1.218-5.008 4.344-5.616 9.103-.222 1.798-.056 3.624.166 5.561z" transform="translate(.138 -3.447) translate(0 81.893)"/>
            <path fill="#EBEFF2" d="M91.549 83.276c4.26-1.715 8.272-3.624 11.924-5.616-4.205-4.51-7.11-11.37-7.415-17.513-3.956 1.19-8.05 2.711-12.256 4.537.692 6.502 3.486 13.557 7.747 18.592z" transform="translate(.138 -3.447) translate(0 81.893)"/>
            <path fill="#9E1D20" d="M60.811 117.583c-12.892-8.355-37.156-9.988-56.661 6.087-1.909 1.521-3.265 4.177-3.707 7.774-1.162 9.075 3.762 20.888 11.094 26.477 2.905 2.213 5.727 3.098 8.134 2.794 25.121-2.628 41.002-21.11 44.073-36.132.304-2.407-1.024-5.534-2.933-7z" transform="translate(.138 -3.447) translate(0 81.893)"/>
            <path fill="#ED2A28" d="M28.829 146.024c4.26-1.715 8.272-3.624 11.924-5.616.775.83 1.605 1.605 2.49 2.269 3.21 2.434 6.335 3.043 8.77 2.02.526-.222 1.024-.526 1.466-.886-2.407 2.656-5.2 5.173-8.355 7.414-.553.443-1.19.747-1.826 1.024-2.932 1.245-6.695.526-10.568-2.435-1.384-1.106-2.684-2.379-3.901-3.79z" transform="translate(.138 -3.447) translate(0 81.893)"/>
            <path fill="#EBEFF2" d="M15.825 150.395c4.538-1.245 8.937-2.739 13.004-4.37 1.19 1.41 2.517 2.683 3.9 3.734 3.874 2.96 7.637 3.652 10.57 2.435.636-.277 1.272-.554 1.825-1.024-4.094 2.905-8.77 5.367-14.027 7.083-2.932.913-6.584 0-10.292-2.822-1.798-1.356-3.486-3.071-4.98-5.036zM13.916 117.223c4.676-2.407 9.435-4.011 14.138-4.924-.526.083-1.024.193-1.494.387-2.905 1.217-5.008 4.344-5.616 9.102-.222 1.799-.056 3.625.166 5.589-4.067 1.77-8.273 3.873-12.367 6.253-.36-2.49-.443-4.925-.139-7.194.581-4.648 2.546-7.83 5.312-9.213z" transform="translate(.138 -3.447) translate(0 81.893)"/>
            <path fill="#ED2A28" d="M8.743 133.657c4.122-2.407 8.272-4.482 12.367-6.252.691 6.529 3.486 13.612 7.719 18.62-4.095 1.66-8.439 3.153-13.004 4.37-3.596-4.703-6.197-10.9-7.082-16.738zM21.11 127.377c4.205-1.826 8.272-3.32 12.256-4.537-.055-1.162-.028-2.297.11-3.376.499-3.956 2.242-6.53 4.649-7.553.664-.276 1.383-.442 2.13-.47-3.597-.166-7.332.028-11.122.692-.913.055-1.77.221-2.573.58-2.905 1.218-5.008 4.344-5.616 9.103-.222 1.798-.056 3.624.166 5.56z" transform="translate(.138 -3.447) translate(0 81.893)"/>
            <path fill="#EBEFF2" d="M28.829 146.024c4.26-1.715 8.272-3.624 11.924-5.616-4.205-4.51-7.11-11.371-7.415-17.513-3.956 1.19-8.05 2.711-12.256 4.537.692 6.502 3.514 13.557 7.747 18.592z" transform="translate(.138 -3.447) translate(0 81.893)"/>
            <path fill="#111D28" d="M361.74 15.106l-.027-1.051s-62.444 53.313-179.39 86.07c-31.79 8.909-54.946 15.383-71.823 20.114.913 1.494 2.02 2.794 3.265 3.763 1.051.802 2.103 1.272 3.07 1.41 0 0 7.056 15.881-9.627 37.212-4.205 1.881-8.355 4.427-12.312 7.691-1.909 1.522-3.237 4.178-3.707 7.775 0 .055 0 .11-.028.193-.304 4.62.443 9.158 1.937 13.197 1.107 2.933 2.6 5.727 4.427 8.162 3.541 4.62 8.189 7.608 12.892 7.719 4.04-.415 7.858-1.273 11.399-2.435h.028c.055-.027.11-.027.138-.055.58-.194 1.162-.387 1.715-.609.083-.027.139-.055.222-.083.58-.221 1.134-.442 1.715-.664.055-.027.11-.055.166-.055.58-.249 1.134-.498 1.715-.747.028 0 .056-.028.083-.028.581-.276 1.135-.553 1.688-.83 0 0 .028 0 .055-.027.554-.277 1.107-.581 1.633-.858.027-.028.083-.055.11-.055.526-.277 1.024-.581 1.522-.886.055-.027.11-.055.166-.11.498-.305.968-.609 1.439-.913.055-.056.138-.083.193-.139l.996-.664.498-.332c.028-.027.083-.055.11-.083.36-.249.693-.498 1.025-.747l.083-.083c.304-.249.608-.47.913-.719.083-.055.166-.138.249-.194.332-.249.636-.525.968-.774h.028c.332-.277.636-.554.94-.83.083-.083.166-.139.25-.222l.83-.747c.027-.027.082-.055.11-.083.304-.276.58-.553.885-.857l.222-.222c.249-.249.498-.498.719-.747.055-.055.083-.11.138-.138.277-.277.554-.581.803-.885l.083-.083c5.477-6.06 8.991-12.92 10.264-19.2 0 0 22.216-25.62 17.485-53.01.83-.11 1.632-.304 2.407-.609.138-.027.277-.055.415-.11.775-.194 1.577-.388 2.352-.581.193-.056.36-.083.553-.139.913-.221 1.854-.47 2.767-.72.221-.054.415-.11.636-.165.802-.194 1.605-.415 2.407-.636.194-.056.387-.111.581-.139.94-.249 1.881-.498 2.822-.774.221-.056.415-.111.636-.166.803-.222 1.605-.443 2.435-.664l.581-.166c.94-.277 1.909-.554 2.85-.83.221-.056.415-.139.636-.194.83-.249 1.632-.47 2.462-.72.194-.055.415-.11.609-.193.415-.138.83-.249 1.273-.387.636-.139 1.245-.305 1.853-.554.166-.055.36-.11.526-.166.636-.193 1.3-.387 1.937-.608 8.161-2.546 16.489-5.34 24.844-8.411l-.58.166c.193-.083.387-.138.553-.221.276-.083.553-.194.83-.305.083-.027.138-.055.22-.083 1.08-.387 2.131-.802 3.21-1.217l.664-.249 3.237-1.245c.028 0 .056-.028.083-.028 1.107-.415 2.186-.857 3.293-1.3.22-.083.442-.166.664-.277 1.079-.442 2.158-.857 3.209-1.3.194-.083.36-.138.553-.221.996-.415 2.02-.83 3.016-1.245l.415-.166c1.079-.443 2.158-.913 3.237-1.356.221-.11.47-.194.691-.304 1.08-.47 2.158-.913 3.237-1.384.111-.055.25-.11.36-.166.996-.442 2.02-.885 3.016-1.328.138-.055.249-.11.387-.166.055-.027.138-.055.194-.083 1.051-.47 2.075-.94 3.126-1.41.221-.111.443-.194.664-.305.996-.47 2.02-.913 3.016-1.383.083-.028.138-.056.221-.111 1.051-.498 2.103-.996 3.126-1.466.222-.111.47-.222.692-.332 1.024-.498 2.075-.996 3.099-1.494.138-.056.276-.139.415-.194.94-.47 1.881-.94 2.822-1.383.193-.083.387-.194.58-.277 1.024-.498 2.02-1.024 3.016-1.522.222-.11.415-.22.637-.332.968-.498 1.964-.996 2.932-1.521.056-.028.111-.056.194-.083 1.024-.526 2.02-1.052 3.043-1.605.111-.055.25-.11.36-.194 32.038-17.236 59.981-37.792 75.723-60.12z" opacity=".2" transform="translate(.138 -3.447) translate(0 81.893)"/>
        </g>
        <g transform="translate(.138 -3.447) translate(150.783)">
            <path fill="#C2CBD3" fill-rule="nonzero" d="M20.169 70.577l-4.62 1.245c-5.976 1.743-9.407 8.024-7.636 14l8.383 28.58c1.743 5.975 8.023 9.406 13.999 7.635l4.786-1.3-14.912-50.16z"/>
            <path stroke="#C2CBD3" stroke-linecap="round" stroke-linejoin="round" stroke-width="2" d="M7.913 60.894L12.505 76.553"/>
            <g fill-rule="nonzero">
                <circle cx="30.555" cy="30.486" r="26.586" fill="#FFF" transform="rotate(-9.161 30.555 30.486)"/>
                <path fill="#0070E0" d="M26.339 4.205c14.497-2.351 28.136 7.526 30.488 22.023 2.352 14.497-7.525 28.137-22.022 30.488-14.498 2.352-22.964-50.159-8.466-52.51z"/>
                <path fill="#FFF" d="M26.339 4.205c-5.423.886-10.182 3.32-13.889 6.806 2.545-1.383 5.395-2.379 8.41-2.85 14.498-2.351 28.137 7.526 30.49 22.023 1.465 9.075-1.855 17.845-8.107 23.683 9.683-5.23 15.438-16.157 13.612-27.64-2.38-14.496-16.02-24.346-30.516-22.022z" opacity=".2"/>
            </g>
            <path fill="#111D28" fill-rule="nonzero" d="M60.59 73.482L61.835 75.004 73.178 103.501 61.005 103.501zM37.488 134.764c2.767 2.767 17.153 8.853 26.56 11.343s24.347 5.533 24.347 5.533l-11.04 31.264 7.166 3.32 14.94-40.117-44.82-13.28-11.896-.553-5.257 2.49z" opacity=".2"/>
            <g fill-rule="nonzero">
                <path fill="#FFF" d="M48.72 47.78l3.487 11.703c3.098 10.43-2.878 21.414-13.308 24.485-10.43 3.099-21.414-2.877-24.485-13.308l-3.486-11.703L48.721 47.78zM9.794 55.14L1.051 25.535C-2.047 15.106 3.93 4.122 14.36 1.051 24.789-2.047 35.773 3.93 38.844 14.36l8.743 29.603L9.794 55.14z" transform="translate(19.92 52.566)"/>
                <path fill="#98A7B4" d="M9.875 49.454L49.301 49.454 49.301 55.541 9.875 55.541z" transform="translate(19.92 52.566) rotate(-16.469 29.588 52.498)"/>
                <path fill="#C2CBD3" d="M33.389 14.955L41.33 14.955 41.33 31.611 33.389 31.611z" transform="translate(19.92 52.566) rotate(-16.469 37.36 23.283)"/>
            </g>
            <path fill="#111D28" fill-rule="nonzero" d="M31.872 79.265c.553.193 4.62 2.683 11.62 2.85 7 .193 19.311-1.384 19.311-1.384l-1.577-5.589-29.354 4.123z" opacity=".2"/>
            <g fill-rule="nonzero">
                <path fill="#FFF" d="M9.351 33.809C4.897 34.389.83 31.236.277 26.78c-.581-4.454 2.573-8.521 7.027-9.074L40.089 13.5c4.454-.58 8.521 2.573 9.074 7.028.581 4.454-2.572 8.52-7.027 9.074L9.351 33.81z" transform="translate(28.22 46.757)"/>
                <path fill="#FFF" d="M44.903 28.884c-3.846 1.356-8.023-.664-9.38-4.51-1.355-3.845.665-8.023 4.51-9.379l28.248-9.932c3.846-1.356 8.023.664 9.38 4.51 1.355 3.845-.665 8.023-4.51 9.379l-28.248 9.932z" transform="translate(28.22 46.757)"/>
                <path fill="#98A7B4" d="M76.028 17.126c-3.735.885-7.498-1.44-8.356-5.174-.857-3.735 1.44-7.498 5.174-8.355l6.917-1.633c3.735-.885 7.497 1.439 8.355 5.174.885 3.735-1.439 7.498-5.174 8.355l-6.916 1.633z" transform="translate(28.22 46.757)"/>
                <path fill="#98A7B4" d="M82.668 6.114c-1.245.222-2.435-.636-2.629-1.881-.22-1.245.637-2.435 1.882-2.628L90.47.166c1.245-.221 2.434.636 2.628 1.881.194 1.245-.636 2.435-1.881 2.629l-8.55 1.438z" transform="translate(28.22 46.757)"/>
                <path fill="#2E3F53" d="M18.315 32.674l-8.964 1.162C4.897 34.417.83 31.263.277 26.81c-.581-4.454 2.573-8.521 7.027-9.075l8.964-1.162 2.047 16.102z" transform="translate(28.22 46.757)"/>
                <path fill="#C2CBD3" d="M21.135 15.692L25.617 15.692 25.617 31.933 21.135 31.933z" transform="translate(28.22 46.757) rotate(-7.302 23.376 23.812)"/>
            </g>
            <g fill-rule="nonzero">
                <path fill="#FFF" d="M11.73 30.876C3.404 28.607-1.521 20.03.748 11.703 3.016 3.375 11.592-1.549 19.92.719l49.219 13.087c8.327 2.268 13.252 10.845 10.983 19.173-2.268 8.327-10.845 13.252-19.173 10.983L11.731 30.876zM33.67 88.505l1.052-9.434c.387-3.541 3.596-6.087 7.138-5.7l19.117 2.159c7.553.857 13.003 7.663 12.146 15.216l-.25 2.158-39.203-4.399z" transform="translate(43.713 107.623)"/>
                <path fill="#FFF" d="M57.353 25.37c2.656-6.086 9.738-8.853 15.825-6.197 6.087 2.656 8.853 9.739 6.197 15.825L58.21 83.276c-2.656 6.087-9.738 8.854-15.825 6.198-6.086-2.656-8.853-9.739-6.197-15.826L57.353 25.37z" transform="translate(43.713 107.623)"/>
                <path fill="#FFF" d="M47.006 49.025l10.32-23.627c2.655-6.087 9.738-8.853 15.824-6.197 6.087 2.656 8.854 9.738 6.198 15.825l-10.32 23.627-22.022-9.628z" transform="translate(43.713 107.623)"/>
                <path fill="#C2CBD3" d="M51.159 50.049L57.771 50.049 57.771 74.091 51.159 74.091z" transform="translate(43.713 107.623) rotate(-66.409 54.465 62.07)"/>
                <path fill="#D4DDDB" d="M52.075 71.895L54.343 71.895 54.343 111.375 52.075 111.375z" transform="translate(43.713 107.623) rotate(-83.575 53.209 91.635)"/>
            </g>
            <path fill="#98A7B4" fill-rule="nonzero" d="M22.319 53.003L49.82 53.003 49.82 58.342 22.319 58.342z" transform="rotate(-12.257 36.07 55.673)"/>
            <path fill="#C2CBD3" fill-rule="nonzero" d="M112.824 121.429L71.63 110.473l-2.988-10.126.608 2.02-18.01 5.339c.636 1.992 1.466 4.344 2.24 6.225 1.66 4.067 7.194 7.747 20.667 11.98 13.474 4.233 31.9 8.3 35.054 9.047 3.126.747 2.213 2.96.36 8.106-1.633 4.565-6.668 15.825-7.802 18.37l11.039 4.814 10.098-23.101c.387-.802.692-1.66.94-2.573 2.242-8.328-2.683-16.904-11.01-19.145z"/>
            <circle cx="39.971" cy="96.441" r="2.656" fill="#98A7B4" fill-rule="nonzero" transform="rotate(-14.685 39.971 96.44)"/>
            <circle cx="23.616" cy="111.321" r="2.656" fill="#98A7B4" fill-rule="nonzero" transform="rotate(-14.685 23.616 111.32)"/>
            <path stroke="#2E3F53" stroke-linecap="round" stroke-linejoin="round" stroke-width="3" d="M23.434 111.109c1.494 5.367 7.055 8.494 12.422 7 5.367-1.494 8.494-7.055 7-12.423l-2.85-9.268"/>
            <circle cx="7.913" cy="60.894" r="2.296" fill="#C2CBD3" fill-rule="nonzero"/>
        </g>
    </g>
</svg>
