<svg xmlns="http://www.w3.org/2000/svg" width="1361" height="772" viewBox="0 0 1361 772">
    <defs>
        <linearGradient id="prefix__a" x1="17.26%" x2="94.247%" y1="53.014%" y2="37.1%">
            <stop offset="0%" stop-color="#ED2A28" stop-opacity=".3"/>
            <stop offset="47.894%" stop-color="#ED2A28" stop-opacity=".5"/>
            <stop offset="100%" stop-color="#ED2A28" stop-opacity=".2"/>
        </linearGradient>
        <linearGradient id="prefix__b" x1="2.748%" x2="92.676%" y1="50%" y2="49.998%">
            <stop offset="0%" stop-color="#0070E0" stop-opacity=".3"/>
            <stop offset="40.651%" stop-color="#0070E0" stop-opacity=".5"/>
            <stop offset="100%" stop-color="#0070E0" stop-opacity=".1"/>
        </linearGradient>
    </defs>
    <g fill="none">
        <path fill="url(#prefix__a)" d="M499.899 576.438c-32.066-9.739-62.914-25.98-84.992-51.156-62.139-70.881-38.346-187.773-95.588-262.666-39.84-52.096-114.705-71.325-177.343-51.903C79.34 230.135 30.342 283.836 8.956 345.837c-8.217 23.765-12.672 50.021-4.98 73.98 10.734 33.339 42.661 55.361 75.114 68.558 32.426 13.225 67.424 20.307 98.134 37.129 22.686 12.422 43.298 31.207 51.017 55.914 7.995 25.591 1.162 53.12-3.79 79.486-4.953 26.366-7.443 55.748 7.552 77.992 19.007 28.247 58.156 33.698 92.158 31.927 85.656-4.427 170.01-38.816 232.122-97.995 15.3-14.553 48.334-48.914 31.042-71.85-7.912-10.486-23.655-11.426-35.44-13.28-17.541-2.739-34.971-6.114-51.986-11.26z" opacity=".8" transform="translate(.31 .272)"/>
        <path fill="url(#prefix__b)" d="M829.78 224.464c32.868 34.97 49.247 81.782 67.921 126.02 18.675 44.24 42.524 89.475 83.747 114.07 45.982 27.418 104.746 23.24 155.403 5.948 50.658-17.291 96.418-46.286 145.471-67.7 24.291-10.596 50.907-20.528 65.93-42.357 22.354-32.453 9.655-77.55-11.178-110.998-14.386-23.102-32.73-44.378-56.329-57.907-65.487-37.515-152.304-7.082-221.028-38.345C987.48 120.299 952.924 27.256 876.675 5.123 850.336-2.541 822.172-.41 795.03 3.767 761.554 8.913 727.884 17.38 699.36 35.64c-28.524 18.26-51.432 47.614-55.25 81.257-2.96 25.896 11.37 74.976 43.52 77.162 13.224.913 27.057-7.664 40.088-9.6 17.347-2.573 34.998.138 51.35 6.225 19.145 7.11 36.713 18.896 50.712 33.78z" opacity=".8" transform="translate(.31 .272)"/>
        <g fill="#47555B">
            <path d="M828.326 376.623c-8.665 0-11.86 2.833-11.86 11.86 0-9.027-3.196-11.86-11.86-11.86 8.664 0 11.86-2.834 11.86-11.86 0 9.026 3.195 11.86 11.86 11.86zM905.35 249.72c-8.664 0-11.86 2.833-11.86 11.86 0-9.027-3.195-11.86-11.86-11.86 8.665 0 11.86-2.833 11.86-11.86 0 9.06 3.196 11.86 11.86 11.86zM865.158 494.169c-8.664 0-11.86 2.833-11.86 11.86 0-9.027-3.196-11.86-11.86-11.86 8.664 0 11.86-2.833 11.86-11.86 0 9.06 3.196 11.86 11.86 11.86zM1071.391 364.367c-8.664 0-11.86 2.833-11.86 11.86 0-9.027-3.196-11.86-11.86-11.86 8.664 0 11.86-2.833 11.86-11.86 0 9.06 3.196 11.86 11.86 11.86zM1037.788 556.105c-8.665 0-11.86 2.833-11.86 11.86 0-9.027-3.196-11.86-11.86-11.86 8.664 0 11.86-2.833 11.86-11.86 0 9.06 3.195 11.86 11.86 11.86zM711.636 465.837c-8.664 0-11.86 2.833-11.86 11.86 0-9.027-3.196-11.86-11.86-11.86 8.664 0 11.86-2.834 11.86-11.86 0 9.06 3.196 11.86 11.86 11.86zM867.794 428.28c-6.26 0-8.566 2.042-8.566 8.565 0-6.523-2.306-8.565-8.566-8.565 6.26 0 8.566-2.043 8.566-8.566 0 6.523 2.306 8.566 8.566 8.566zM816.17 331.225c-6.26 0-8.566 2.043-8.566 8.566 0-6.523-2.306-8.566-8.566-8.566 6.26 0 8.566-2.043 8.566-8.566 0 6.523 2.306 8.566 8.565 8.566zM1040.423 482.968c-6.26 0-8.565 2.042-8.565 8.565 0-6.523-2.306-8.565-8.566-8.565 6.26 0 8.566-2.043 8.566-8.566 0 6.523 2.306 8.566 8.565 8.566zM817.718 440.799c-6.26 0-8.566 2.042-8.566 8.565 0-6.523-2.306-8.565-8.565-8.565 6.259 0 8.565-2.043 8.565-8.566 0 6.523 2.306 8.566 8.566 8.566zM1159.024 484.286c-6.26 0-8.566 2.042-8.566 8.565 0-6.523-2.306-8.565-8.565-8.565 6.259 0 8.565-2.043 8.565-8.566 0 6.523 2.306 8.566 8.566 8.566zM824.966 543.586c-6.26 0-8.566 2.042-8.566 8.565 0-6.523-2.306-8.565-8.566-8.565 6.26 0 8.566-2.043 8.566-8.566 0 6.523 2.306 8.566 8.566 8.566zM1168.248 555.446c-6.26 0-8.565 2.042-8.565 8.565 0-6.523-2.306-8.565-8.566-8.565 6.26 0 8.566-2.043 8.566-8.566 0 6.523 2.306 8.566 8.565 8.566zM1099.065 463.86c-6.26 0-8.566 2.042-8.566 8.565 0-6.523-2.306-8.565-8.566-8.565 6.26 0 8.566-2.043 8.566-8.566 0 6.523 2.306 8.566 8.566 8.566zM1092.476 399.288c-6.26 0-8.566 2.043-8.566 8.566 0-6.523-2.306-8.566-8.566-8.566 6.26 0 8.566-2.042 8.566-8.565 0 6.523 2.306 8.565 8.566 8.565zM1022.633 299.137c-6.26 0-8.565 2.042-8.565 8.566 0-6.524-2.307-8.566-8.566-8.566 6.26 0 8.566-2.043 8.566-8.566 0 6.523 2.306 8.566 8.565 8.566zM877.018 328.787c-6.26 0-8.566 2.043-8.566 8.566 0-6.523-2.306-8.566-8.565-8.566 6.26 0 8.565-2.043 8.565-8.566 0 6.523 2.307 8.566 8.566 8.566zM758.417 416.42c-6.259 0-8.565 2.042-8.565 8.565 0-6.523-2.306-8.565-8.566-8.565 6.26 0 8.566-2.043 8.566-8.566 0 6.523 2.306 8.566 8.565 8.566zM1034.493 408.513c-6.26 0-8.565 2.043-8.565 8.566 0-6.523-2.307-8.566-8.566-8.566 6.26 0 8.566-2.043 8.566-8.566 0 6.523 2.306 8.566 8.565 8.566zM786.75 480.332c-6.26 0-8.566 2.043-8.566 8.566 0-6.523-2.306-8.566-8.565-8.566 6.26 0 8.565-2.042 8.565-8.565 0 6.523 2.306 8.565 8.566 8.565zM1097.088 526.455c-6.26 0-8.566 2.042-8.566 8.565 0-6.523-2.306-8.565-8.565-8.565 6.26 0 8.565-2.043 8.565-8.566 0 6.523 2.306 8.566 8.566 8.566zM1085.887 589.708c-6.26 0-8.566 2.043-8.566 8.566 0-6.523-2.306-8.566-8.565-8.566 6.259 0 8.565-2.042 8.565-8.565 0 6.523 2.306 8.565 8.566 8.565zM1219.642 506.029c-6.26 0-8.566 2.043-8.566 8.566 0-6.523-2.306-8.566-8.565-8.566 6.26 0 8.565-2.043 8.565-8.566 0 6.523 2.306 8.566 8.566 8.566zM624.597 107.4c-8.665 0-11.86 2.833-11.86 11.86 0-9.027-3.196-11.86-11.86-11.86 8.664 0 11.86-2.834 11.86-11.86 0 9.026 3.228 11.86 11.86 11.86zM590.993 299.137c-8.664 0-11.86 2.833-11.86 11.86 0-9.027-3.196-11.86-11.86-11.86 8.664 0 11.86-2.833 11.86-11.86 0 9.027 3.229 11.86 11.86 11.86zM593.629 226c-6.26 0-8.566 2.042-8.566 8.566 0-6.524-2.306-8.566-8.566-8.566 6.26 0 8.566-2.043 8.566-8.566 0 6.523 2.34 8.566 8.566 8.566zM712.23 227.318c-6.26 0-8.566 2.042-8.566 8.565 0-6.523-2.307-8.565-8.566-8.565 6.26 0 8.566-2.043 8.566-8.566 0 6.523 2.339 8.566 8.565 8.566zM721.454 298.478c-6.26 0-8.566 2.043-8.566 8.566 0-6.523-2.306-8.566-8.566-8.566 6.26 0 8.566-2.043 8.566-8.566 0 6.523 2.34 8.566 8.566 8.566zM652.27 206.892c-6.26 0-8.566 2.043-8.566 8.566 0-6.523-2.306-8.566-8.565-8.566 6.26 0 8.565-2.043 8.565-8.566 0 6.523 2.34 8.566 8.566 8.566zM645.681 142.32c-6.26 0-8.566 2.043-8.566 8.566 0-6.523-2.306-8.565-8.565-8.565 6.26 0 8.565-2.043 8.565-8.566 0 6.523 2.34 8.566 8.566 8.566zM587.699 151.545c-6.26 0-8.566 2.043-8.566 8.566 0-6.523-2.306-8.566-8.566-8.566 6.26 0 8.566-2.042 8.566-8.565 0 6.523 2.34 8.565 8.566 8.565zM650.293 269.487c-6.26 0-8.565 2.042-8.565 8.565 0-6.523-2.306-8.565-8.566-8.565 6.26 0 8.566-2.043 8.566-8.566 0 6.523 2.339 8.566 8.565 8.566zM639.092 332.74c-6.26 0-8.565 2.043-8.565 8.566 0-6.523-2.307-8.566-8.566-8.566 6.26 0 8.566-2.042 8.566-8.565 0 6.523 2.339 8.565 8.565 8.565zM772.847 249.061c-6.26 0-8.565 2.043-8.565 8.566 0-6.523-2.306-8.566-8.566-8.566 6.26 0 8.566-2.042 8.566-8.565 0 6.523 2.339 8.565 8.565 8.565zM867.794 585.755c-6.26 0-8.566 2.042-8.566 8.565 0-6.523-2.306-8.565-8.566-8.565 6.26 0 8.566-2.043 8.566-8.566 0 6.523 2.306 8.566 8.566 8.566zM559.366 482.012c-8.664 0-11.86 2.834-11.86 11.86 0-9.026-3.195-11.86-11.86-11.86 8.665 0 11.86-2.833 11.86-11.86 0 9.027 3.196 11.86 11.86 11.86zM596.198 640.078c-8.664 0-11.86 2.833-11.86 11.86 0-9.027-3.195-11.86-11.86-11.86 8.665 0 11.86-2.834 11.86-11.86 0 9.06 3.196 11.86 11.86 11.86zM442.677 571.226c-8.665 0-11.86 2.834-11.86 11.86 0-9.026-3.196-11.86-11.86-11.86 8.664 0 11.86-2.833 11.86-11.86 0 9.06 3.195 11.86 11.86 11.86zM598.834 533.67c-6.26 0-8.566 2.042-8.566 8.565 0-6.523-2.306-8.566-8.565-8.566 6.26 0 8.565-2.042 8.565-8.565 0 6.523 2.306 8.565 8.566 8.565zM547.21 436.615c-6.26 0-8.566 2.042-8.566 8.565 0-6.523-2.306-8.565-8.565-8.565 6.259 0 8.565-2.043 8.565-8.566 0 6.523 2.306 8.566 8.566 8.566zM548.758 546.188c-6.26 0-8.565 2.043-8.565 8.566 0-6.523-2.307-8.566-8.566-8.566 6.26 0 8.566-2.042 8.566-8.565 0 6.523 2.306 8.565 8.565 8.565zM556.006 730.013c-6.26 0-8.566 2.043-8.566 8.566 0-6.523-2.306-8.566-8.565-8.566 6.26 0 8.565-2.042 8.565-8.565 0 6.523 2.306 8.565 8.566 8.565zM608.058 434.177c-6.26 0-8.565 2.042-8.565 8.565 0-6.523-2.306-8.565-8.566-8.565 6.26 0 8.566-2.043 8.566-8.566 0 6.523 2.306 8.566 8.565 8.566zM489.458 521.81c-6.26 0-8.566 2.042-8.566 8.565 0-6.523-2.306-8.566-8.565-8.566 6.26 0 8.565-2.042 8.565-8.565 0 6.523 2.306 8.565 8.566 8.565zM517.79 585.722c-6.26 0-8.565 2.042-8.565 8.566 0-6.524-2.307-8.566-8.566-8.566 6.26 0 8.566-2.043 8.566-8.566 0 6.523 2.306 8.566 8.565 8.566zM653.917 506.72c-6.26 0-8.565 2.043-8.565 8.566 0-6.523-2.306-8.565-8.566-8.565 6.26 0 8.566-2.043 8.566-8.566 0 6.523 2.339 8.566 8.565 8.566zM993.082 252.06c-6.26 0-8.566 2.042-8.566 8.565 0-6.523-2.306-8.566-8.565-8.566 6.26 0 8.565-2.042 8.565-8.566 0 6.556 2.306 8.566 8.566 8.566zM1138.829 89.214c-8.665 0-11.86 2.833-11.86 11.86 0-9.027-3.196-11.86-11.86-11.86 8.664 0 11.86-2.833 11.86-11.86 0 9.06 3.195 11.86 11.86 11.86zM942.38 56.73c-8.664 0-11.86 2.834-11.86 11.86 0-9.026-3.196-11.86-11.86-11.86 8.664 0 11.86-2.833 11.86-11.86 0 9.06 3.196 11.86 11.86 11.86zM1105.225 280.951c-8.664 0-11.86 2.834-11.86 11.86 0-9.026-3.195-11.86-11.86-11.86 8.665 0 11.86-2.833 11.86-11.86 0 9.06 3.196 11.86 11.86 11.86zM1107.86 207.814c-6.259 0-8.565 2.043-8.565 8.566 0-6.523-2.306-8.566-8.565-8.566 6.26 0 8.565-2.042 8.565-8.565 0 6.523 2.306 8.565 8.566 8.565zM1226.461 209.132c-6.26 0-8.565 2.043-8.565 8.566 0-6.523-2.306-8.566-8.566-8.566 6.26 0 8.566-2.042 8.566-8.565 0 6.523 2.306 8.565 8.565 8.565zM1235.686 280.293c-6.26 0-8.566 2.042-8.566 8.565 0-6.523-2.306-8.565-8.565-8.565 6.26 0 8.565-2.043 8.565-8.566 0 6.523 2.306 8.566 8.566 8.566zM1166.502 188.707c-6.26 0-8.565 2.042-8.565 8.565 0-6.523-2.307-8.565-8.566-8.565 6.26 0 8.566-2.043 8.566-8.566 0 6.523 2.306 8.566 8.565 8.566zM1159.913 124.135c-6.26 0-8.565 2.043-8.565 8.566 0-6.523-2.306-8.566-8.566-8.566 6.26 0 8.566-2.042 8.566-8.565 0 6.523 2.306 8.565 8.565 8.565zM1090.07 23.984c-6.259 0-8.565 2.042-8.565 8.565 0-6.523-2.306-8.565-8.565-8.565 6.259 0 8.565-2.043 8.565-8.566 0 6.523 2.306 8.566 8.566 8.566zM1101.93 133.36c-6.259 0-8.565 2.042-8.565 8.565 0-6.523-2.306-8.565-8.565-8.565 6.26 0 8.565-2.043 8.565-8.566 0 6.523 2.306 8.566 8.566 8.566zM999.704 61.343c-6.26 0-8.566 2.042-8.566 8.565 0-6.523-2.306-8.565-8.565-8.565 6.259 0 8.565-2.043 8.565-8.566 0 6.523 2.306 8.566 8.566 8.566zM748.666 19.833c-6.26 0-8.566 2.042-8.566 8.565 0-6.523-2.306-8.565-8.565-8.565 6.26 0 8.565-2.043 8.565-8.566 0 6.523 2.306 8.566 8.566 8.566zM831.027 30.375c-6.26 0-8.565 2.042-8.565 8.566 0-6.524-2.306-8.566-8.566-8.566 6.26 0 8.566-2.043 8.566-8.566 0 6.523 2.306 8.566 8.565 8.566zM863.972 69.908c-6.26 0-8.566 2.043-8.566 8.566 0-6.523-2.306-8.566-8.565-8.566 6.26 0 8.565-2.042 8.565-8.565 0 6.523 2.306 8.565 8.566 8.565zM889.01 39.6c-6.26 0-8.566 2.042-8.566 8.565 0-6.523-2.306-8.566-8.565-8.566 6.26 0 8.565-2.042 8.565-8.565 0 6.523 2.306 8.565 8.566 8.565zM1164.525 251.301c-6.259 0-8.565 2.043-8.565 8.566 0-6.523-2.306-8.566-8.566-8.566 6.26 0 8.566-2.042 8.566-8.565 0 6.523 2.306 8.565 8.565 8.565zM1153.324 314.555c-6.26 0-8.565 2.043-8.565 8.566 0-6.523-2.306-8.566-8.566-8.566 6.26 0 8.566-2.043 8.566-8.566 0 6.523 2.306 8.566 8.565 8.566zM1064.143 77.716c-6.26 0-8.565 2.043-8.565 8.566 0-6.523-2.306-8.566-8.566-8.566 6.26 0 8.566-2.042 8.566-8.565 0 6.556 2.306 8.565 8.565 8.565zM164.558 234.17c8.665 0 11.86-2.833 11.86-11.86 0 9.027 3.196 11.86 11.86 11.86-8.664 0-11.86 2.833-11.86 11.86 0-9.027-3.195-11.86-11.86-11.86zM198.162 42.433c8.664 0 11.86-2.834 11.86-11.86 0 9.026 3.195 11.86 11.86 11.86-8.665 0-11.86 2.833-11.86 11.86 0-9.027-3.196-11.86-11.86-11.86zM195.526 115.57c6.26 0 8.566-2.043 8.566-8.566 0 6.523 2.306 8.566 8.565 8.566-6.26 0-8.565 2.042-8.565 8.565 0-6.523-2.306-8.565-8.566-8.565zM76.926 114.252c6.26 0 8.565-2.043 8.565-8.566 0 6.523 2.306 8.566 8.566 8.566-6.26 0-8.566 2.042-8.566 8.565 0-6.523-2.306-8.565-8.565-8.565zM67.701 43.092c6.26 0 8.566-2.043 8.566-8.566 0 6.523 2.306 8.566 8.565 8.566-6.26 0-8.565 2.042-8.565 8.565 0-6.523-2.306-8.565-8.566-8.565zM136.885 134.677c6.26 0 8.565-2.042 8.565-8.565 0 6.523 2.307 8.565 8.566 8.565-6.26 0-8.566 2.043-8.566 8.566 0-6.523-2.306-8.566-8.565-8.566zM143.474 199.249c6.26 0 8.565-2.043 8.565-8.566 0 6.523 2.306 8.566 8.566 8.566-6.26 0-8.566 2.042-8.566 8.565 0-6.523-2.306-8.565-8.565-8.565zM213.316 299.4c6.26 0 8.566-2.042 8.566-8.565 0 6.523 2.306 8.565 8.565 8.565-6.259 0-8.565 2.043-8.565 8.566 0-6.523-2.306-8.566-8.566-8.566zM201.456 190.024c6.26 0 8.566-2.042 8.566-8.565 0 6.523 2.306 8.565 8.565 8.565-6.26 0-8.565 2.043-8.565 8.566 0-6.523-2.306-8.566-8.566-8.566zM138.861 72.083c6.26 0 8.566-2.043 8.566-8.566 0 6.523 2.306 8.566 8.566 8.566-6.26 0-8.566 2.042-8.566 8.565 0-6.523-2.306-8.565-8.566-8.565zM150.063 8.83c6.26 0 8.565-2.043 8.565-8.566 0 6.523 2.306 8.565 8.566 8.565-6.26 0-8.566 2.043-8.566 8.566 0-6.523-2.306-8.566-8.565-8.566zM16.308 92.508c6.259 0 8.565-2.042 8.565-8.565 0 6.523 2.306 8.565 8.566 8.565-6.26 0-8.566 2.043-8.566 8.566 0-6.523-2.306-8.566-8.565-8.566zM242.868 346.478c6.259 0 8.565-2.042 8.565-8.565 0 6.523 2.306 8.565 8.566 8.565-6.26 0-8.566 2.043-8.566 8.566 0-6.523-2.306-8.566-8.565-8.566zM97.12 509.356c8.665 0 11.86-2.833 11.86-11.86 0 9.027 3.196 11.86 11.86 11.86-8.664 0-11.86 2.834-11.86 11.86 0-9.06-3.195-11.86-11.86-11.86zM130.724 317.619c8.665 0 11.86-2.833 11.86-11.86 0 9.027 3.196 11.86 11.86 11.86-8.664 0-11.86 2.833-11.86 11.86 0-9.06-3.195-11.86-11.86-11.86zM128.089 390.756c6.26 0 8.565-2.043 8.565-8.566 0 6.523 2.306 8.566 8.566 8.566-6.26 0-8.566 2.042-8.566 8.565 0-6.556-2.306-8.565-8.565-8.565zM9.488 389.438c6.26 0 8.566-2.043 8.566-8.566 0 6.523 2.306 8.566 8.565 8.566-6.26 0-8.565 2.043-8.565 8.566 0-6.556-2.306-8.566-8.566-8.566zM.264 318.278c6.259 0 8.565-2.043 8.565-8.566 0 6.523 2.306 8.566 8.566 8.566-6.26 0-8.566 2.042-8.566 8.565 0-6.556-2.306-8.565-8.565-8.565zM69.447 409.864c6.26 0 8.566-2.043 8.566-8.566 0 6.523 2.306 8.566 8.565 8.566-6.26 0-8.565 2.042-8.565 8.565 0-6.556-2.306-8.565-8.566-8.565zM76.036 474.435c6.26 0 8.566-2.042 8.566-8.566 0 6.524 2.306 8.566 8.565 8.566-6.26 0-8.565 2.043-8.565 8.566 0-6.556-2.306-8.566-8.566-8.566zM145.879 574.587c6.26 0 8.565-2.043 8.565-8.566 0 6.523 2.306 8.566 8.566 8.566-6.26 0-8.566 2.042-8.566 8.565 0-6.556-2.306-8.565-8.565-8.565zM134.019 465.21c6.26 0 8.565-2.042 8.565-8.565 0 6.523 2.306 8.566 8.566 8.566-6.26 0-8.566 2.042-8.566 8.565 0-6.556-2.306-8.565-8.565-8.565zM71.424 347.269c6.26 0 8.565-2.043 8.565-8.566 0 6.523 2.307 8.566 8.566 8.566-6.26 0-8.566 2.043-8.566 8.566 0-6.556-2.306-8.566-8.565-8.566zM82.625 284.015c6.26 0 8.566-2.042 8.566-8.565 0 6.523 2.306 8.565 8.565 8.565-6.26 0-8.565 2.043-8.565 8.566 0-6.556-2.306-8.566-8.566-8.566zM171.806 520.821c6.26 0 8.566-2.042 8.566-8.566 0 6.524 2.306 8.566 8.565 8.566-6.26 0-8.565 2.043-8.565 8.566 0-6.523-2.306-8.566-8.566-8.566zM593.3 77.716c-6.26 0-8.566 2.043-8.566 8.566 0-6.523-2.307-8.566-8.566-8.566 6.26 0 8.566-2.042 8.566-8.565 0 6.556 2.306 8.565 8.565 8.565zM360.38 562.727c8.665 0 11.861-2.834 11.861-11.86 0 9.026 3.196 11.86 11.86 11.86-8.664 0-11.86 2.833-11.86 11.86 0-9.06-3.229-11.86-11.86-11.86zM393.984 370.99c8.665 0 11.86-2.834 11.86-11.861 0 9.027 3.196 11.86 11.86 11.86-8.664 0-11.86 2.833-11.86 11.86 0-9.06-3.228-11.86-11.86-11.86zM391.349 444.126c6.26 0 8.565-2.042 8.565-8.566 0 6.524 2.307 8.566 8.566 8.566-6.26 0-8.566 2.043-8.566 8.566 0-6.556-2.339-8.566-8.565-8.566zM272.748 442.808c6.26 0 8.566-2.042 8.566-8.565 0 6.523 2.306 8.565 8.565 8.565-6.259 0-8.565 2.043-8.565 8.566 0-6.556-2.34-8.566-8.566-8.566zM263.524 371.648c6.26 0 8.565-2.043 8.565-8.566 0 6.523 2.307 8.566 8.566 8.566-6.26 0-8.566 2.043-8.566 8.566 0-6.556-2.339-8.566-8.565-8.566zM332.707 463.234c6.26 0 8.566-2.043 8.566-8.566 0 6.523 2.306 8.566 8.566 8.566-6.26 0-8.566 2.042-8.566 8.566 0-6.556-2.339-8.566-8.566-8.566zM339.296 527.805c6.26 0 8.566-2.042 8.566-8.565 0 6.523 2.306 8.565 8.566 8.565-6.26 0-8.566 2.043-8.566 8.566 0-6.556-2.34-8.566-8.566-8.566zM397.279 518.58c6.26 0 8.565-2.042 8.565-8.565 0 6.523 2.307 8.566 8.566 8.566-6.26 0-8.566 2.042-8.566 8.565 0-6.556-2.339-8.565-8.565-8.565zM334.684 400.64c6.26 0 8.566-2.043 8.566-8.566 0 6.523 2.306 8.565 8.565 8.565-6.26 0-8.565 2.043-8.565 8.566 0-6.556-2.34-8.566-8.566-8.566zM345.885 337.386c6.26 0 8.566-2.043 8.566-8.566 0 6.523 2.306 8.566 8.565 8.566-6.259 0-8.565 2.042-8.565 8.565 0-6.556-2.34-8.565-8.566-8.565zM212.13 421.065c6.26 0 8.566-2.043 8.566-8.566 0 6.523 2.306 8.566 8.565 8.566-6.259 0-8.565 2.042-8.565 8.565 0-6.556-2.34-8.565-8.566-8.565zM391.678 592.377c6.26 0 8.566-2.043 8.566-8.566 0 6.523 2.306 8.566 8.565 8.566-6.259 0-8.565 2.042-8.565 8.565 0-6.523-2.306-8.565-8.566-8.565zM460.532 237.53c8.665 0 11.86-2.833 11.86-11.86 0 9.027 3.196 11.86 11.86 11.86-8.664 0-11.86 2.834-11.86 11.86 0-9.06-3.228-11.86-11.86-11.86zM494.136 45.793c8.664 0 11.86-2.833 11.86-11.86 0 9.027 3.196 11.86 11.86 11.86-8.664 0-11.86 2.833-11.86 11.86 0-9.06-3.229-11.86-11.86-11.86zM491.5 118.93c6.26 0 8.566-2.043 8.566-8.566 0 6.523 2.306 8.566 8.566 8.566-6.26 0-8.566 2.043-8.566 8.566 0-6.556-2.306-8.566-8.566-8.566zM372.9 117.612c6.26 0 8.565-2.042 8.565-8.565 0 6.523 2.307 8.565 8.566 8.565-6.26 0-8.566 2.043-8.566 8.566 0-6.556-2.306-8.566-8.565-8.566zM363.675 46.452c6.26 0 8.566-2.043 8.566-8.566 0 6.523 2.306 8.566 8.566 8.566-6.26 0-8.566 2.042-8.566 8.565 0-6.556-2.306-8.565-8.566-8.565zM432.859 138.038c6.26 0 8.566-2.043 8.566-8.566 0 6.523 2.306 8.566 8.565 8.566-6.26 0-8.565 2.042-8.565 8.565 0-6.556-2.307-8.565-8.566-8.565zM439.448 202.61c6.26 0 8.566-2.043 8.566-8.566 0 6.523 2.306 8.565 8.565 8.565-6.26 0-8.565 2.043-8.565 8.566 0-6.556-2.307-8.566-8.566-8.566zM497.43 193.385c6.26 0 8.566-2.043 8.566-8.566 0 6.523 2.306 8.566 8.566 8.566-6.26 0-8.566 2.042-8.566 8.565 0-6.556-2.306-8.565-8.566-8.565zM434.836 75.443c6.26 0 8.565-2.042 8.565-8.565 0 6.523 2.306 8.565 8.566 8.565-6.26 0-8.566 2.043-8.566 8.566 0-6.556-2.306-8.566-8.565-8.566zM446.037 12.19c6.26 0 8.565-2.043 8.565-8.566 0 6.523 2.307 8.565 8.566 8.565-6.26 0-8.566 2.043-8.566 8.566 0-6.556-2.306-8.566-8.565-8.566zM312.282 95.869c6.26 0 8.565-2.043 8.565-8.566 0 6.523 2.307 8.566 8.566 8.566-6.26 0-8.566 2.042-8.566 8.565 0-6.556-2.306-8.565-8.565-8.565zM491.83 267.18c6.26 0 8.565-2.042 8.565-8.565 0 6.523 2.307 8.566 8.566 8.566-6.26 0-8.566 2.042-8.566 8.565 0-6.523-2.306-8.565-8.565-8.565z" transform="translate(.31 .272) translate(23.73 4.215)"/>
        </g>
    </g>
</svg>
