<svg width="288" height="57" viewBox="0 0 288 57" fill="none" xmlns="http://www.w3.org/2000/svg">
<path fill-rule="evenodd" clip-rule="evenodd" d="M179.258 27.0966V46.7987H174.43V27.0966H170.008V22.8706H174.438V18.8376C174.438 13.5138 177.97 10.627 182.298 10.627C183.891 10.627 184.885 10.9751 185.093 11.1352V15.3053C184.839 15.2062 184.247 15.0055 183.06 15.0055C181.418 15.0055 179.279 15.8009 179.279 19.0867V22.8706H185.05V27.0992L179.258 27.0966ZM53.7498 46.7994V10.7776H58.4282V46.7994H53.7498ZM29.8371 11.5236C36.5561 11.5236 40.4848 15.5032 40.4848 21.0761C40.4848 24.8574 38.2968 27.5435 35.2118 28.6997C39.2422 29.6959 41.5801 33.274 41.5801 37.2078C41.5801 42.7807 37.1508 46.8111 30.6833 46.8111H18.3457V11.5236H29.8371ZM29.2908 26.9361C33.222 26.9361 35.5599 24.5982 35.5599 21.315C35.5599 17.9809 33.1229 15.7903 29.0925 15.7903H23.2198V26.9361H29.2908ZM29.987 42.5189C33.9183 42.5189 36.5942 40.3284 36.5942 36.8977C36.5942 33.5128 34.4545 31.1241 30.1776 31.1241H23.2198V42.5189H29.987ZM81.3077 47.551C88.4638 47.551 93.5462 42.128 93.5462 34.8144C93.5462 27.544 88.4638 22.1286 81.3077 22.1286C74.1516 22.1286 69.0692 27.5516 69.0692 34.8144C69.0692 42.1204 74.1516 47.551 81.3077 47.551ZM81.3077 26.3064C85.2898 26.3064 88.7713 29.2923 88.7713 34.8144C88.7713 40.3797 85.2873 43.3732 81.3077 43.3732C77.3282 43.3732 73.8467 40.3873 73.8467 34.8144C73.8467 29.2847 77.3256 26.3064 81.3077 26.3064ZM108.966 34.8144C108.966 40.2882 112.399 43.2233 116.279 43.2233C120.757 43.2233 122.399 40.1891 122.945 38.2984L127.074 40.0773C125.931 43.5079 122.5 47.5383 116.279 47.5383C109.314 47.5434 104.191 42.0721 104.191 34.8144C104.191 27.3534 109.415 22.1286 116.231 22.1286C122.599 22.1286 125.888 26.1082 126.879 29.7523L122.65 31.5311C122.053 29.1932 120.312 26.4487 116.231 26.4487C112.45 26.4487 108.966 29.2364 108.966 34.8144ZM159.359 46.7994L148.96 32.9676L159.161 22.8713H152.693L142.343 33.4656V10.7776H137.715V46.7994H142.343V39.5849L145.677 36.2508L153.489 46.7994H159.359ZM207.961 47.551C215.117 47.551 220.199 42.128 220.199 34.8144C220.199 27.544 215.117 22.1286 207.961 22.1286C200.805 22.1286 195.722 27.5516 195.722 34.8144C195.722 42.1204 200.805 47.551 207.961 47.551ZM207.961 26.3064C211.94 26.3064 215.424 29.2923 215.424 34.8144C215.424 40.3797 211.945 43.3732 207.966 43.3732C203.986 43.3732 200.502 40.3873 200.502 34.8144C200.502 29.2847 203.981 26.3064 207.961 26.3064ZM230.844 46.7994V10.7776H235.52V46.7994H230.844ZM250.796 11.1539C250.413 10.9036 249.964 10.7727 249.506 10.7777C248.894 10.7844 248.31 11.0335 247.881 11.4703C247.452 11.9071 247.214 12.496 247.219 13.108C247.223 13.5657 247.362 14.012 247.619 14.3905C247.877 14.769 248.24 15.0626 248.665 15.2341C249.089 15.4056 249.555 15.4474 250.003 15.3541C250.451 15.2607 250.861 15.0366 251.182 14.7099C251.502 14.3833 251.719 13.9688 251.804 13.5191C251.889 13.0694 251.838 12.6045 251.659 12.1835C251.479 11.7624 251.179 11.4041 250.796 11.1539ZM251.836 22.8672H247.208V46.7979H251.836V22.8672ZM275.762 47.551C282.918 47.551 288.001 42.128 288.001 34.8144C288.001 27.544 282.921 22.1286 275.765 22.1286C268.609 22.1286 263.526 27.5516 263.526 34.8144C263.526 42.1204 268.606 47.551 275.762 47.551ZM275.762 26.3064C279.744 26.3064 283.226 29.2923 283.226 34.8144C283.226 40.3797 279.742 43.3732 275.762 43.3732C271.783 43.3732 268.301 40.3873 268.301 34.8144C268.301 29.2923 271.78 26.3064 275.762 26.3064Z" fill="black"/>
<path opacity="0.7" d="M53.3657 56.9234H3.55771C2.61415 56.9234 1.70923 56.5486 1.04203 55.8814C0.374829 55.2142 0 54.3093 0 53.3657L0 3.55771C0 2.61415 0.374829 1.70923 1.04203 1.04203C1.70923 0.374829 2.61415 0 3.55771 0L53.3657 0C54.3093 0 55.2142 0.374829 55.8814 1.04203C56.5486 1.70923 56.9234 2.61415 56.9234 3.55771V5.79399H55.6528V3.55771C55.6528 2.95114 55.4118 2.3694 54.9829 1.94049C54.554 1.51157 53.9723 1.27061 53.3657 1.27061H3.55771C2.95114 1.27061 2.3694 1.51157 1.94049 1.94049C1.51157 2.3694 1.27061 2.95114 1.27061 3.55771V53.3657C1.27061 53.9723 1.51157 54.554 1.94049 54.9829C2.3694 55.4118 2.95114 55.6528 3.55771 55.6528H53.3657C53.9723 55.6528 54.554 55.4118 54.9829 54.9829C55.4118 54.554 55.6528 53.9723 55.6528 53.3657V52.1256H56.9234V53.3657C56.9234 54.3093 56.5486 55.2142 55.8814 55.8814C55.2142 56.5486 54.3093 56.9234 53.3657 56.9234Z" fill="black"/>
</svg>
