<svg xmlns="http://www.w3.org/2000/svg" width="142" height="22" viewBox="0 0 142 22">
    <path fill="#1428A0" fill-rule="evenodd" d="M134.233 10.226v2.942h2.06v2.919c.01.269-.009.54-.058.806a2.17 2.17 0 0 1-4.11 0 4.92 4.92 0 0 1-.057-.806v-9.24c-.007-.319.022-.638.089-.95a2.106 2.106 0 0 1 4.023 0c.042.266.063.536.064.806v1.12h5.02v-.66c.026-.447.026-.893 0-1.34-.377-3.78-3.492-4.981-7.056-4.981s-6.623 1.209-7.065 4.982c0 .347-.104.967-.104 1.338v8.473c0 .445.028.889.08 1.33.33 3.677 3.516 4.983 7.073 4.983 3.556 0 6.742-1.306 7.072-4.982.057-.678.065-.96.073-1.33v-5.402l-7.104-.008zM99.118.842h-5.152v15.152c.016.274-.002.548-.048.819a2.026 2.026 0 0 1-2.504 1.403 2.034 2.034 0 0 1-1.395-1.403 3.287 3.287 0 0 1-.048-.82V.843h-5.144v14.685c0 .376 0 1.154.048 1.351.358 3.825 3.353 5.07 7.098 5.07 3.744 0 6.746-1.245 7.105-5.07.042-.45.056-.9.04-1.351V.842zm-46.809 0l-2.554 15.972L47.21.842h-8.245l-.436 20.425h5.051l.137-18.914 3.476 18.914h5.123l3.476-18.914.138 18.914h5.067L60.544.842H52.31zm-30.492 0l-3.713 20.425h5.422l2.8-18.914 2.735 18.914h5.383L30.746.842h-8.93zm95.74 16.635L112.759.842h-7.507v20.425h4.967l-.292-17.163 5.146 17.163h7.2V.842h-5l.284 16.635zM71.02 6.05a2.824 2.824 0 0 1 0-1.061c.154-.881.949-1.484 1.81-1.374.927-.084 1.744.622 1.826 1.577.007.091.008.182.002.274v1.258h4.922V5.293C79.581.86 75.728.16 72.935.16c-3.518 0-6.382 1.192-6.909 4.532a7.063 7.063 0 0 0 .048 2.738c.854 4.162 7.875 5.363 8.896 7.995a2.867 2.867 0 0 1 0 1.505c-.151.682-.598 1.373-1.922 1.373-.967.127-1.85-.576-1.974-1.572a1.904 1.904 0 0 1-.013-.27v-2.008h-5.298v1.572c0 4.548 3.455 5.922 7.18 5.922 3.567 0 6.51-1.259 6.982-4.655.18-1.102.18-2.228 0-3.331-.853-4.244-8.338-5.527-8.904-7.912zm-65.307.005a2.6 2.6 0 0 1 0-1.065c.15-.882.946-1.487 1.81-1.374.93-.083 1.75.626 1.83 1.583.007.087.009.174.003.262v1.26h4.932v-1.43C14.29.867 10.408.16 7.62.16c-3.51 0-6.38 1.195-6.91 4.52a7.227 7.227 0 0 0 0 2.74c.855 4.154 7.905 5.357 8.901 7.99.143.49.143 1.014 0 1.505-.187.912-1.033 1.514-1.928 1.374-.967.12-1.846-.586-1.964-1.58a1.777 1.777 0 0 1-.012-.274v-1.96H.402v1.56c0 4.546 3.47 5.912 7.185 5.912 3.572 0 6.505-1.252 6.979-4.658.178-1.101.178-2.225 0-3.325-.79-4.268-8.291-5.528-8.852-7.91z"/>
</svg>
