<svg xmlns="http://www.w3.org/2000/svg" width="86" height="35" viewBox="0 0 86 35">
    <defs>
        <linearGradient id="prefix__a" x1="50.017%" x2="50.017%" y1="9.269%" y2="105.433%">
            <stop offset="0%" stop-color="#42C1FD"/>
            <stop offset="100%" stop-color="#1F8EFA"/>
        </linearGradient>
        <linearGradient id="prefix__b" x1="50%" x2="50%" y1="0%" y2="99.986%">
            <stop offset="0%" stop-color="#42C1FD"/>
            <stop offset="100%" stop-color="#1F8EFA"/>
        </linearGradient>
    </defs>
    <g fill="none">
        <path fill="url(#prefix__a)" d="M44.899 11.334h-3.883l-.738 2.213H37.92l4.003-10.753h2.057l4.028 10.753h-2.36l-.749-2.213zm-3.278-1.79h2.685l-1.354-4.028-1.33 4.027zm9.665-5.952v1.972h1.366v1.56h-1.366v3.992c0 .29.06.508.169.629.109.133.326.193.653.193.242 0 .448-.012.629-.048v1.62c-.423.134-.847.194-1.294.194-1.5 0-2.262-.75-2.286-2.262V7.136h-1.162V5.564h1.162v-1.96h2.129v-.012zm2.007 5.891c0-.798.158-1.5.46-2.117.302-.617.738-1.1 1.318-1.44.581-.338 1.246-.507 1.996-.507 1.077 0 1.96.326 2.637.992.69.665 1.064 1.56 1.15 2.685l.011.544c0 1.222-.338 2.214-1.028 2.952-.69.737-1.596 1.112-2.758 1.112-1.149 0-2.068-.375-2.757-1.112-.69-.738-1.029-1.742-1.029-3.012v-.097zm2.13.157c0 .762.144 1.343.423 1.742.29.4.689.593 1.221.593.52 0 .92-.194 1.21-.593.29-.4.435-1.028.435-1.899 0-.738-.145-1.318-.435-1.73-.29-.41-.702-.617-1.222-.617s-.931.206-1.21.617c-.278.4-.423 1.028-.423 1.887zm8.744-4.076l.06.895c.57-.69 1.331-1.04 2.299-1.04 1.028 0 1.73.411 2.117 1.222.556-.81 1.367-1.222 2.395-1.222.87 0 1.512.254 1.935.762.423.496.629 1.258.629 2.274v5.092h-2.117V8.455c0-.448-.084-.786-.266-.992-.181-.218-.484-.314-.943-.314-.641 0-1.089.302-1.33.919l.011 5.48h-2.129V8.454c0-.46-.096-.798-.278-1.004-.181-.206-.496-.315-.931-.315-.605 0-1.04.254-1.319.75v5.661h-2.128V5.564h1.995zm13.354 7.983H75.38V5.564h2.141v7.983zM75.247 3.496c0-.315.109-.581.314-.787.218-.205.508-.314.883-.314.363 0 .654.109.871.314.218.206.327.472.327.787 0 .326-.109.592-.327.798-.217.206-.508.314-.858.314-.363 0-.654-.108-.871-.314-.23-.206-.339-.472-.339-.798zm7.354 8.479c.4 0 .714-.11.956-.327.242-.218.375-.508.387-.859h1.996c0 .545-.158 1.04-.448 1.488-.29.448-.69.798-1.197 1.052-.509.242-1.053.375-1.67.375-1.137 0-2.044-.363-2.697-1.088-.665-.726-.992-1.73-.992-3.012v-.145c0-1.234.327-2.214.98-2.952.653-.737 1.548-1.1 2.697-1.1 1.004 0 1.802.29 2.395.859.605.568.907 1.318.92 2.261h-1.984c-.012-.41-.133-.75-.387-1.004-.242-.266-.569-.387-.98-.387-.496 0-.871.182-1.125.545-.254.363-.375.943-.375 1.754v.217c0 .823.121 1.416.375 1.766.254.375.641.557 1.15.557zM50.245 28.11l1.452-7.644h2.201l-2.383 10.74H49.29l-1.754-7.184-1.754 7.185h-2.226l-2.382-10.753h2.201l1.451 7.632 1.766-7.632h1.875l1.778 7.656zm9.096 3.097c-.097-.194-.17-.436-.218-.714-.52.58-1.185.859-2.02.859-.786 0-1.427-.23-1.947-.677-.508-.448-.762-1.029-.762-1.718 0-.847.315-1.5.944-1.947.629-.448 1.536-.678 2.721-.69h.98v-.46c0-.374-.097-.665-.29-.883-.182-.217-.484-.326-.896-.326-.362 0-.64.085-.846.254-.206.17-.303.411-.303.714h-2.128c0-.46.145-.896.423-1.283.278-.387.69-.701 1.21-.919.52-.23 1.112-.339 1.753-.339.98 0 1.766.254 2.335.75.58.496.87 1.186.87 2.08v3.46c0 .762.11 1.33.315 1.718v.12h-2.14zm-1.766-1.488c.315 0 .605-.073.871-.206.266-.145.46-.326.593-.568v-1.367h-.798c-1.065 0-1.633.375-1.706 1.113l-.012.12c0 .267.097.485.278.654.194.17.448.254.774.254zm7.487 1.488h-2.14V19.86h2.14v11.346zm4.016 0h-2.14V19.86h2.14v11.346zm5.443.145c-1.173 0-2.129-.363-2.866-1.077-.738-.713-1.101-1.68-1.101-2.866v-.206c0-.798.157-1.524.46-2.153.314-.629.75-1.125 1.318-1.464.568-.338 1.222-.52 1.947-.52 1.089 0 1.948.34 2.577 1.029.629.689.943 1.669.943 2.927v.87h-5.092c.072.52.278.944.617 1.258.35.315.786.472 1.318.472.823 0 1.464-.302 1.923-.895l1.053 1.173c-.315.448-.75.81-1.295 1.065-.532.266-1.137.387-1.802.387zm-.242-6.556c-.423 0-.762.145-1.028.423-.266.29-.423.69-.508 1.222h2.964v-.17c-.012-.471-.133-.834-.387-1.088-.242-.254-.593-.387-1.04-.387zm7.306-3.544v1.972h1.367v1.56h-1.367v3.992c0 .29.06.508.17.629.108.133.326.193.653.193.242 0 .447-.012.629-.048v1.62c-.424.134-.847.194-1.295.194-1.5 0-2.262-.75-2.286-2.262v-4.306h-1.16v-1.572h1.16v-1.96h2.13v-.012z"/>
        <path fill="url(#prefix__b)" d="M0 34.823L10.765 5.431C12.132 1.996 14.685.06 18.071 0h.145c3.387.06 5.939 1.996 7.306 5.43l10.765 29.393-6.665-2.31L20.43 7.415c-.557-1.391-1.21-1.887-2.274-1.911-1.077.024-1.718.52-2.274 1.91l-9.193 25.1L0 34.823zm22.824-11.2c0 2.564-2.068 4.645-4.62 4.645s-4.62-2.08-4.62-4.645c0-2.564 2.068-4.645 4.62-4.645s4.62 2.08 4.62 4.645z"/>
    </g>
</svg>
