<svg xmlns="http://www.w3.org/2000/svg" xmlns:xlink="http://www.w3.org/1999/xlink" width="157" height="50" viewBox="0 0 157 50">
    <defs>
        <path id="prefix__a" d="M0 0.589L40.969 0.589 40.969 49.328 0 49.328z"/>
    </defs>
    <g fill="none" fill-rule="evenodd">
        <path fill="#000" d="M55.957 28.591c.387 3.462 3.652 6.321 7.096 6.376 4.486.07 7.544-2.89 7.544-7.268 0-4.38-2.99-7.27-7.349-7.27-4.661-.01-7.82 3.416-7.29 8.162m-3.854-1.316V10.522h1.583c1.29 0 2.336 1.058 2.336 2.364v7.45c2.537-2.292 4.694-3.21 7.57-3.268 5.516-.115 10.303 4.032 10.759 9.598.543 6.65-4.234 11.656-10.457 11.656-6.833 0-11.791-4.29-11.791-11.047M80.89 17.487v2.983c2.465-2.769 3.925-3.514 6.81-3.514.84.001 1.679.07 2.507.204v3.965c-.884-.247-1.797-.37-2.715-.368-2.09 0-3.843.693-5.13 2.002C81.236 23.904 80.9 24.8 80.9 26.6v11.036h-4.062v-20.15h4.052zM107.243 27.584c-2.577.758-5.223 1.251-7.898 1.471-3.636.367-4.764 1.062-4.764 2.9 0 2.043 1.672 3.116 4.972 3.116 2.715 0 4.764-.692 6.227-2.042 1.17-1.105 1.463-1.88 1.463-3.808v-1.637zM91.171 24.15c.21-1.963.586-3.026 1.42-4.046 1.672-2.078 4.682-3.147 8.942-3.147 3.385 0 5.85.533 7.564 1.675 1.422.938 2.008 2.33 2.008 4.78v8.948c0 1.963.502 2.656 1.88 2.618.307-.012.615-.04.92-.084v2.698c-.686.236-1.407.347-2.13.324-2.549 0-3.718-.775-4.512-3.025-2.506 2.33-5.097 3.31-8.815 3.31-4.971 0-8.022-2.29-8.022-6.01-.022-2.121 1.211-4.052 3.132-4.902 1.505-.654 2.425-.858 6.726-1.308 3.677-.367 4.305-.45 5.349-.78 1.128-.365 1.63-.979 1.63-2 0-2.167-1.795-3.146-5.556-3.146-3.556 0-5.389.713-6.124 2.533-.364.932-1.25 1.545-2.24 1.551l-2.172.011zM123.712 37.632h-1.046c-.922.007-1.766-.524-2.169-1.363l-8.764-18.783h2.434c1.42-.01 2.711.827 3.294 2.136l5.848 13.5 6.041-13.552c.591-1.29 1.873-2.109 3.276-2.097h2.213l-8.97 18.816c-.407.828-1.244 1.349-2.157 1.343M152.542 25.61c-.92-3.555-3.635-5.559-7.397-5.559-3.761 0-6.476 2.004-7.437 5.56h14.834zm-14.957 3.116c.417 3.884 3.42 6.294 7.895 6.294 2.541 0 4.446-.765 5.626-2.292.688-.875 1.733-1.386 2.838-1.385h2.356c-2.051 4.576-5.725 6.826-11.199 6.826-6.839 0-11.449-4.21-11.449-10.502 0-6.293 4.723-10.707 11.534-10.707 4.928 0 8.891 2.247 10.488 6.01.711 1.73 1.002 3.267 1.002 5.759l-19.091-.003z"/>
        <g transform="translate(0 .247)">
            <mask id="prefix__b" fill="#fff">
                <use xlink:href="#prefix__a"/>
            </mask>
            <path fill="#000" d="M39.535 12.28l1.127-2.805s-1.434-1.56-3.175-3.325c-1.742-1.767-5.428-.728-5.428-.728L27.859.59H13.11L8.91 5.422s-3.687-1.039-5.429.728C1.741 7.916.307 9.475.307 9.475l1.127 2.806L0 16.438S4.218 32.643 4.71 34.623c.973 3.896 1.64 5.403 4.405 7.377 2.765 1.974 7.784 5.404 8.603 5.923.82.52 1.844 1.405 2.765 1.405.922 0 1.947-.885 2.766-1.405.82-.52 5.838-3.949 8.604-5.923 2.766-1.974 3.431-3.481 4.404-7.377.494-1.98 4.711-18.185 4.711-18.185l-1.434-4.157z" mask="url(#prefix__b)"/>
        </g>
        <path fill="#FFF" d="M20.507 8.265c.137.004.914.042 2.026.418 1.229.416 2.56.935 3.175.935.614 0 5.172-.884 5.172-.884s5.402 6.625 5.402 8.042c0 1.415-.68 1.789-1.362 2.525-.684.736-3.668 3.95-4.05 4.363-.384.413-1.182 1.04-.712 2.165.469 1.127 1.16 2.56.39 4.015-.768 1.453-2.087 2.424-2.932 2.264-.845-.161-2.83-1.214-3.559-1.694-.73-.48-3.043-2.415-3.043-3.156 0-.74 2.39-2.07 2.833-2.372.441-.301 2.456-1.471 2.497-1.93.041-.46.025-.594-.569-1.727-.594-1.135-1.665-2.647-1.487-3.654.178-1.007 1.905-1.53 3.138-2.003 1.231-.472 3.605-1.364 3.9-1.503.297-.138.22-.27-.677-.357-.898-.086-3.446-.43-4.595-.104-1.149.324-3.11.818-3.27 1.08-.159.263-.3.272-.136 1.176.163.904 1.004 5.242 1.085 6.013.082.77.242 1.28-.577 1.47-.819.19-2.198.52-2.671.52-.474 0-1.852-.33-2.672-.52-.82-.19-.659-.7-.577-1.47.081-.771.922-5.109 1.084-6.013.164-.904.024-.913-.135-1.175-.16-.263-2.121-.757-3.27-1.081-1.148-.325-3.696.018-4.594.104-.898.087-.975.219-.678.357.296.14 2.669 1.031 3.901 1.503 1.232.472 2.959.996 3.137 2.003.179 1.007-.893 2.52-1.487 3.654-.595 1.133-.61 1.268-.568 1.727.04.459 2.055 1.629 2.496 1.93.443.302 2.833 1.632 2.833 2.372 0 .741-2.313 2.676-3.042 3.156-.73.48-2.715 1.533-3.56 1.694-.844.16-2.163-.81-2.933-2.264-.77-1.454-.077-2.888.391-4.015.47-1.126-.328-1.752-.712-2.165L6.05 19.301c-.683-.736-1.363-1.11-1.363-2.525 0-1.417 5.401-8.042 5.401-8.042s4.559.884 5.173.884c.615 0 1.946-.519 3.175-.935 1.112-.376 1.889-.414 2.027-.418h.044zm-.022 22.903c.28 0 2.08.644 3.523 1.401 1.443.758 2.49 1.294 2.823 1.507.334.212.13.612-.174.83-.304.219-4.397 3.435-4.794 3.79-.397.355-.982.942-1.378.942-.397 0-.98-.587-1.378-.942-.398-.355-4.49-3.571-4.795-3.79-.304-.218-.508-.618-.174-.83.335-.213 1.38-.749 2.824-1.507 1.443-.757 3.242-1.401 3.523-1.401z"/>
        <path fill="#000" d="M32.059 5.67l-4.2-4.834H13.11L8.91 5.67s-3.687-1.04-5.428.727c0 0 4.917-.45 6.607 2.338 0 0 4.558.884 5.172.884.615 0 1.946-.52 3.175-.936 1.229-.416 2.048-.418 2.048-.418s.82.002 2.049.418 2.56.936 3.175.936c.615 0 5.173-.884 5.173-.884 1.69-2.788 6.605-2.338 6.605-2.338-1.74-1.766-5.427-.727-5.427-.727"/>
    </g>
</svg>
