<svg xmlns="http://www.w3.org/2000/svg" width="223" height="37" viewBox="0 0 223 37">
    <path fill="#FFFFFF" fill-rule="evenodd" d="M217.457 14.49c-1.994 0-3.46.683-4.37 2.078V8.97h-3.783v20.78h3.783v-8.016c0-2.463 1.261-3.68 3.226-3.68 1.76 0 2.904 1.068 2.904 3.057v8.638H223v-9.113c0-1.93-.528-3.414-1.584-4.512-1.026-1.098-2.346-1.633-3.959-1.633zm-16.775 15.674c2.845 0 5.338-1.514 6.628-3.86l-3.285-1.899c-.586 1.217-1.847 1.96-3.372 1.96-1.144 0-2.083-.387-2.816-1.129-.733-.772-1.114-1.751-1.114-2.909 0-2.375 1.671-4.067 3.93-4.067 1.495 0 2.757.772 3.343 1.99l3.255-1.93c-1.202-2.345-3.724-3.83-6.569-3.83-2.2 0-4.047.742-5.543 2.256-1.466 1.514-2.2 3.355-2.2 5.581 0 2.227.734 4.067 2.2 5.58 1.496 1.515 3.343 2.257 5.543 2.257zm-13.08-15.258h-3.783v14.842h3.783v-7.094c0-1.425.44-2.434 1.35-3.058.909-.623 1.964-.86 3.108-.712v-4.275c-1.994 0-3.754.95-4.458 2.85v-2.553zm-17.184 6.026c.44-1.9 1.818-2.998 3.842-2.998 1.73 0 3.197.98 3.637 2.998h-7.479zm11.115 2.968c.088-.564.147-1.068.147-1.573 0-2.226-.704-4.067-2.112-5.58-1.378-1.515-3.167-2.257-5.308-2.257-2.258 0-4.135.742-5.572 2.256-1.437 1.485-2.17 3.355-2.17 5.581 0 2.256.733 4.126 2.199 5.61 1.466 1.485 3.402 2.227 5.836 2.227 2.816 0 4.957-1.069 6.394-3.176l-3.05-1.781c-.734.98-1.848 1.484-3.285 1.484-2.258 0-3.637-.92-4.135-2.79h11.056zM159.896 8.97l-5.865 9.826-5.895-9.826h-4.165v20.78h4.047V16.3l5.778 9.618h.47l5.777-9.648v13.477h4.018V8.97h-4.165zm-29.052 16.297c-.734-.772-1.115-1.751-1.115-2.939 0-1.187.381-2.167 1.115-2.939.762-.771 1.7-1.157 2.844-1.157s2.083.386 2.845 1.157c.763.772 1.144 1.752 1.144 2.94 0 1.187-.381 2.166-1.144 2.938-.762.772-1.7 1.158-2.845 1.158-1.143 0-2.082-.386-2.844-1.158zm8.358 2.642c1.496-1.514 2.258-3.384 2.258-5.58 0-2.198-.762-4.038-2.258-5.552-1.496-1.514-3.343-2.286-5.514-2.286-2.17 0-4.018.772-5.513 2.286-1.496 1.514-2.23 3.354-2.23 5.551s.734 4.067 2.23 5.58c1.495 1.515 3.343 2.257 5.513 2.257s4.018-.742 5.514-2.256zM124.48 14.906h-3.314V10.75l-3.784 1.158v2.998h-2.551v3.68h2.551v6.175c0 4.067 1.907 5.581 7.098 4.987v-3.473c-2.17.119-3.314.09-3.314-1.514v-6.174h3.314v-3.681zm-21.497 10.449c-.763-.801-1.144-1.81-1.144-3.028 0-1.217.381-2.226 1.144-2.998.762-.801 1.73-1.187 2.903-1.187s2.14.386 2.903 1.187c.792.772 1.174 1.781 1.174 2.998 0 1.217-.382 2.227-1.174 3.028-.762.772-1.73 1.158-2.903 1.158s-2.14-.386-2.903-1.158zm3.607-10.865c-2.053 0-3.637.713-4.751 2.167v-1.751h-3.783v20.78h3.783v-7.69c1.114 1.455 2.698 2.168 4.75 2.168 1.966 0 3.667-.742 5.045-2.256 1.408-1.514 2.112-3.384 2.112-5.58 0-2.198-.704-4.038-2.112-5.552-1.378-1.514-3.08-2.286-5.044-2.286zM88.964 24.88l-3.812-9.974h-4.135l6.012 14.367c-.704 2.019-1.819 2.88-3.842 2.85v3.562c3.754.208 6.217-1.662 7.742-5.937l5.338-14.842H92.22l-3.256 9.974zM75.68 14.906h-3.783v14.842h3.783v-7.094c0-1.425.44-2.434 1.349-3.058.91-.623 1.965-.86 3.109-.712v-4.275c-1.995 0-3.754.95-4.458 2.85v-2.553zM60.934 30.164c3.754 0 7.068-1.9 8.828-4.898l-3.49-2.048c-.968 1.81-2.991 2.938-5.338 2.938-1.994 0-3.607-.623-4.839-1.9-1.202-1.276-1.818-2.908-1.818-4.897 0-2.019.616-3.651 1.818-4.928 1.232-1.276 2.845-1.9 4.84-1.9 2.346 0 4.31 1.099 5.337 2.969l3.49-2.049c-1.76-2.998-5.103-4.898-8.828-4.898-3.079 0-5.63 1.04-7.654 3.117-2.024 2.049-3.02 4.631-3.02 7.689 0 3.057.996 5.61 3.02 7.688 2.024 2.078 4.575 3.117 7.654 3.117zM34.365 9.716C31.166 3.723 25.001 0 18.277 0c2.017 0 3.652 1.655 3.652 3.696 0 2.042-1.635 3.697-3.652 3.697 4.038 0 7.74 2.236 9.663 5.837a3.645 3.645 0 0 0 3.216 1.94 3.6 3.6 0 0 0 1.733-.445c1.774-.97 2.435-3.213 1.476-5.01zM32.89 22.275a3.63 3.63 0 0 0-4.95 1.495c-1.922 3.6-5.624 5.837-9.662 5.837 2.017 0 3.652 1.655 3.652 3.697 0 2.041-1.635 3.696-3.652 3.696 6.724 0 12.889-3.723 16.088-9.716.96-1.796.298-4.039-1.476-5.009zM14.626 33.304c0-2.042 1.635-3.697 3.651-3.697-6.05 0-10.973-4.982-10.973-11.107 0 2.041-1.635 3.696-3.652 3.696C1.635 22.196 0 20.541 0 18.5 0 28.701 8.2 37 18.277 37c-2.016 0-3.651-1.655-3.651-3.696zm3.651-25.911c-6.05 0-10.973 4.982-10.973 11.107 0-2.041-1.635-3.696-3.652-3.696C1.635 14.804 0 16.459 0 18.5 0 8.299 8.2 0 18.277 0c-2.016 0-3.651 1.655-3.651 3.696 0 2.042 1.635 3.697 3.651 3.697z"/>
</svg>
