<svg xmlns="http://www.w3.org/2000/svg" width="150" height="24" viewBox="0 0 150 24">
    <defs>
        <linearGradient id="prefix__a" x1="94.006%" x2="-3.194%" y1="24.832%" y2="73.384%">
            <stop offset="0%" stop-color="#11C4D1"/>
            <stop offset="100%" stop-color="#0062AD"/>
        </linearGradient>
    </defs>
    <g fill="none">
        <path fill="url(#prefix__a)" d="M33.394 1.048c1.099 14.85-8.436 21.864-16.996 22.613C8.436 24.359.948 19.468.3 11.955-.25 5.74 3.594 3.12 6.614 2.845c3.095-.274 5.69 1.872 5.915 4.443.225 2.496-1.323 3.619-2.42 3.719-.85.075-1.923-.45-2.022-1.548-.075-.948.274-1.098.2-2.096-.15-1.797-1.748-2.022-2.596-1.947-1.049.1-2.946 1.323-2.671 4.343.275 3.07 3.195 5.49 7.063 5.141 4.143-.374 7.038-3.594 7.263-8.136 0-.25.05-.474.15-.7.05-.099.1-.174.15-.274.1-.124.2-.274.349-.449.1-.125.225-.25.374-.4C20.191 3.22 26.73-.798 32.895.475c.3.075.5.3.5.574"/>
        <g fill="#11293B" transform="translate(45.923 1.622)">
            <path d="M.574 5.79h2.82c.05 0 .1.05.1.1v14.127c0 .05-.05.1-.1.1H.574c-.05 0-.1-.05-.1-.1V5.89c0-.05.05-.1.1-.1zM43.627.724v2.221c0 .05-.05.1-.1.1h-5.74c-.05 0-.1.05-.1.1v16.872c0 .05-.05.1-.1.1h-2.945c-.05 0-.1-.05-.1-.1V3.145c0-.05-.05-.1-.1-.1h-6.239c-.05 0-.1-.05-.1-.1V.724c0-.05.05-.1.1-.1h15.324c.025 0 .05 0 .075.025.025.025.025.05.025.075zM29.002 10.982h.025v9.035c0 .05-.05.1-.1.1h-2.77c-.05 0-.1-.05-.1-.1v-6.939-.873-.45c0-.424-.025-.848-.075-1.248-.2-1.497-.824-2.595-2.995-2.57-.624.025-1.248.2-1.797.499-.65.374-1.373.898-1.772 1.622.075.474.1.974.1 1.448v8.71c0 .05-.05.1-.1.1h-2.696c-.05 0-.1-.05-.1-.1v-7.138c0-1.572.075-3.22-.699-4.218-.474-.599-1.148-.898-2.445-.898-.525 0-1.223.2-1.773.449-.374.175-.698.374-1.023.649-.45.4-.749.898-.749 1.447v9.51c0 .05-.05.1-.1.1H7.089c-.05 0-.1-.05-.1-.1V5.99c0-.05.05-.1.1-.1h1.148c.474 0 .874.3 1.024.724l.174.574c0 .05.025.075.05.075.025.025.075 0 .1-.025 1.223-1.148 2.97-1.697 4.667-1.697 1.772 0 2.895.524 3.644 1.348l-.075-.1c.225.25.425.524.6.823.024.05.1.075.124.05l.025-.025c1.123-1.347 3.32-2.096 5.092-2.096 4.093 0 5.34 2.745 5.34 5.44zm45.124 9.134h-2.995c-.025 0-.05-.024-.074-.05-1.124-1.497-1.972-2.945-2.347-3.394l-.074-.075c-.624-.773-1.872-2.37-3.62-2.67-.024 0-.074 0-.074.025l-1.273 1.323c-.025.025-.025.05-.025.074v4.668c0 .05-.05.1-.1.1H60.75c-.05 0-.1-.05-.1-.1V.424c0-.05.05-.1.1-.1h2.795c.05 0 .1.05.1.1v11.281c0 .025.025.075.05.075.025.025.075 0 .1-.025l6.14-6.164c.024-.025.05-.025.074-.025h3.295c.05 0 .075.025.075.05.025.025 0 .075-.025.1l-6.265 6.24c-.025.024-.025.049-.025.074 0 .025.025.05.05.075 1.797.823 3.07 2.37 3.644 3.095l.075.075c.5.624 2.171 3.02 3.394 4.667.025.025.025.075 0 .1-.025.074-.05.074-.1.074z"/>
            <ellipse cx="1.972" cy="1.772" rx="1.822" ry="1.747"/>
            <path d="M50.466 5.166c-4.368 0-7.213 2.77-7.213 7.513 0 4.742 2.87 7.512 7.213 7.512s7.213-2.77 7.213-7.512c0-4.717-2.87-7.513-7.213-7.513zm0 12.68c-2.945 0-4.368-1.923-4.368-5.292 0-3.344 1.423-5.017 4.368-5.017 2.945 0 4.343 1.797 4.343 5.167 0 3.32-1.398 5.141-4.343 5.141zm32.321.174c-1.572.2-3.145-.45-4.043-1.697-.474-.624-.749-1.348-.924-2.296 0-.025 0-.05.025-.075.025-.025.05-.025.075-.025l7.962-1.073c2.171-.3 3.095-2.197 2.271-4.019-.749-1.522-2.047-2.695-3.644-3.294-2.171-.849-5.066-.35-6.614.898-2.071 1.648-2.77 3.62-2.895 5.74-.025.225-.025.475-.025.7 0 .499.05.973.125 1.447.549 3.17 2.87 6.065 6.764 6.065 4.392.025 6.489-2.546 6.838-4.468 0-.024 0-.05-.025-.074-.025-.025-.05-.025-.075-.025l-2.745.399c-.025 0-.05.025-.075.05-.774 1.073-1.647 1.547-2.995 1.747zm-4.118-8.935c.774-.949 1.897-1.523 3.12-1.597 1.248-.1 2.246.074 3.12.898.324.3.574.649.798.998.325.55-.025 1.348-.749 1.448l-7.262.973c-.025 0-.05 0-.075-.025-.025-.025-.025-.05-.025-.075.124-1.073.474-1.871 1.073-2.62zm25.408 2.146v8.76c0 .05-.05.1-.1.1h-2.746c-.05 0-.1-.05-.1-.1V12.73s.025-1.223-.074-2.371c-.075-.799-.35-1.598-.999-2.097-.923-.724-2.196-.574-2.196-.574-1.597.175-2.995 1.123-3.844 2.097l-.05.05.05-.025v10.183c0 .05-.05.1-.1.1h-2.745c-.05 0-.1-.05-.1-.1V5.69c0-.05.05-.1.1-.1h2.246c.05 0 .1.05.1.1v1.397c0 .025.025.075.05.075.025.025.075 0 .1-.025 1.173-1.198 2.92-1.922 4.767-1.922 1.547.025 5.64.075 5.64 6.015z"/>
        </g>
    </g>
</svg>
