<svg xmlns="http://www.w3.org/2000/svg" width="91" height="49" viewBox="0 0 91 49">
    <g fill="none">
        <g fill="#141927">
            <path d="M8.358 10.972c-.254.14-.54.208-.83.199-.114 0-.363 0-.775-.057v1.164c.355.092.72.135 1.087.128.509.019 1.009-.134 1.42-.433.442-.365.786-.833 1.002-1.363l3.188-7.187h-1.505L10.013 8.13 8.138 3.423H6.611l2.62 6.185-.269.604c-.12.309-.33.574-.604.76zM15.808 9.019c.249.333.579.597.959.767.414.189.865.283 1.32.277.863.034 1.695-.318 2.273-.959.617-.648.956-1.512.944-2.407.03-.908-.315-1.788-.951-2.436-.598-.634-1.437-.985-2.308-.966h.05c-.844-.034-1.656.322-2.202.966V.07h-1.42v9.871h1.306v-.923h.029zm.596-3.87c.38-.37.891-.573 1.42-.561.535-.01 1.05.204 1.42.589.39.403.597.946.576 1.505.025.569-.182 1.123-.575 1.534-.363.4-.88.622-1.42.611-.524.018-1.035-.17-1.42-.525-.417-.415-.632-.99-.59-1.577-.04-.586.175-1.16.59-1.576zM3.352 18.805c-.736-.027-1.448.26-1.96.788v-.64H.078v6.484h1.42v-3.87c-.02-.4.13-.789.412-1.072.288-.282.678-.433 1.08-.42.39-.01.768.142 1.044.42.275.295.418.69.397 1.093v3.85h1.42v-4.041c.033-.683-.198-1.352-.646-1.868-.482-.5-1.16-.765-1.853-.724zM10.46 18.798c-.895 0-1.754.357-2.385.993-.63.636-.981 1.498-.974 2.394-.023.908.34 1.784 1.002 2.407.668.643 1.565.993 2.492.973.974.01 1.912-.363 2.614-1.037l-.66-.944c-.517.48-1.192.75-1.897.76-.51.013-1.01-.145-1.42-.448-.394-.31-.65-.765-.71-1.264H13.4c.07-.283.101-.574.093-.866.024-.8-.29-1.574-.867-2.13-.574-.569-1.358-.872-2.166-.838zm-1.938 2.77c.096-.457.347-.866.71-1.158.336-.283.76-.44 1.2-.44.437-.01.861.147 1.186.44.307.304.472.725.454 1.157h-3.55zM26.07 10.077c.973.01 1.91-.363 2.613-1.037l-.668-.944c-.515.485-1.195.756-1.903.76-.51.012-1.01-.145-1.42-.448-.394-.311-.65-.765-.71-1.264h4.85c.084-.281.127-.573.128-.866.024-.8-.29-1.575-.867-2.13-.568-.556-1.335-.86-2.13-.846-.9-.002-1.763.356-2.397.993-.635.638-.99 1.502-.983 2.402-.02.906.34 1.78.994 2.407.666.646 1.565.996 2.492.973zm-1.42-5.149c.338-.281.766-.435 1.206-.433.434-.007.854.147 1.18.433.317.301.494.72.49 1.158h-3.552c.088-.453.328-.862.682-1.158h-.007zM18.166 24.301c-.338.03-.676-.055-.96-.241-.231-.226-.346-.545-.312-.867v-3.04h1.939v-1.2h-1.939v-1.69h-1.42v1.69h-1.051v1.2h1.058v3.154c-.046.628.188 1.244.64 1.683.502.393 1.13.59 1.768.554.392-.01.782-.06 1.164-.15V24.23c-.39.043-.66.071-.866.071h-.021zM27.603 23.115L25.587 18.805 25.111 18.805 23.129 23.172 21.404 18.954 19.92 18.954 22.824 25.544 23.3 25.544 25.352 21.255 27.397 25.544 27.887 25.544 30.785 18.954 29.301 18.954zM34.634 18.805c-.915-.02-1.798.33-2.45.973-.642.632-1.003 1.495-1.003 2.396 0 .901.361 1.764 1.003 2.397 1.371 1.308 3.528 1.308 4.9 0 .65-.629 1.018-1.495 1.018-2.4 0-.905-.367-1.772-1.018-2.4-.655-.638-1.537-.986-2.45-.966zm1.42 4.857c-.806.787-2.092.787-2.897 0-.385-.396-.593-.932-.576-1.484-.023-.558.185-1.1.576-1.499.375-.382.885-.601 1.42-.61.534.003 1.044.217 1.42.596.387.4.595.942.575 1.499.027.547-.159 1.084-.518 1.498zM40.684 19.792v-.845h-1.3v6.476h1.42v-3.465c-.023-.497.175-.978.54-1.314.378-.32.862-.488 1.357-.469h.419v-1.221c-.169-.046-.343-.067-.518-.064-.749-.033-1.466.304-1.918.902zM31.651 6.484c-.025-.497.173-.978.54-1.314.378-.32.86-.49 1.356-.476h.426V3.48c-.171-.045-.348-.067-.525-.064-.745-.028-1.457.312-1.903.909V3.48h-1.307v6.462h1.42V6.484h-.007zM44.405 15.545L45.804 15.545 45.804 25.43 44.405 25.43zM47.494 21.787L50.129 18.954 48.403 18.954 45.847 21.78 48.695 25.423 50.378 25.423zM5.802 3.466L4.069 3.466 1.52 6.299 4.367 9.949 6.05 9.949 3.167 6.313zM.078.064L1.477.064 1.477 9.949.078 9.949z" transform="translate(.16) translate(39.768 12.072)"/>
        </g>
        <path fill="#31CB9E" d="M14.203 24.507l17.754 10.17c.29.174.652.178.947.01.294-.168.475-.481.473-.82V15.133c.004-.34-.177-.654-.473-.821-.296-.168-.659-.16-.947.019L14.203 24.507zM31.58 9.828L19.444.902c-.256-.196-.593-.251-.899-.147-.305.104-.538.354-.62.665l-4.432 19.884 17.98-9.942c.279-.143.462-.42.484-.733.022-.312-.121-.613-.377-.793M19.43 48.105l12.15-8.926c.256-.183.4-.485.379-.798-.02-.314-.201-.595-.478-.743l-17.988-9.942 4.431 19.884c.075.314.302.569.605.679.304.11.642.06.9-.132" transform="translate(.16)"/>
        <path fill="#31CB9E" d="M9.587 24.145l4.616-21.596c.072-.366-.085-.739-.397-.943-.312-.204-.717-.2-1.023.013L.959 10.688c-.607.465-.962 1.188-.959 1.953v23.008c-.014.778.342 1.516.959 1.989l11.767 9.033c.306.212.711.217 1.023.013.312-.204.47-.578.397-.944L9.587 24.145z" transform="translate(.16)"/>
    </g>
</svg>
