<svg xmlns="http://www.w3.org/2000/svg" width="140" height="27" viewBox="0 0 140 27">
    <g fill="none">
        <path fill="#161616" d="M122.083 12.707c-.718-.473-1.51-.81-2.259-1.231-.486-.274-1.003-.516-1.425-.864-.718-.59-.57-1.747.18-2.253 1.076-.715 2.86-.315 3.05 1.148 0 .032.031.053.063.053h1.626c.042 0 .074-.032.063-.074-.084-1.01-.475-1.853-1.192-2.39-.687-.516-1.468-.79-2.302-.79-4.296 0-4.687 4.538-2.375 5.97.264.168 2.533 1.305 3.336 1.8.802.495 1.055 1.4.707 2.116-.317.653-1.14 1.106-1.963 1.053-.898-.053-1.594-.537-1.837-1.295-.042-.137-.064-.4-.064-.516 0-.031-.031-.063-.063-.063h-1.762c-.032 0-.064.032-.064.063 0 1.274.317 1.98 1.183 2.622.812.61 1.698.863 2.617.863 2.407 0 3.653-1.358 3.905-2.769.222-1.379-.189-2.621-1.424-3.442zM45.546 6.538H43.91c-.032 0-.053.021-.063.042L42.4 11.34c-.021.063-.106.063-.127 0L40.828 6.58c-.01-.031-.032-.042-.063-.042h-2.692c-.032 0-.063.032-.063.063v12.15c0 .031.031.063.063.063h1.763c.032 0 .063-.032.063-.063V9.518c0-.074.106-.085.127-.022l1.456 4.79.106.338c.01.031.032.042.063.042h1.351c.032 0 .053-.021.064-.042l.105-.337 1.457-4.79c.021-.074.127-.053.127.02v9.234c0 .031.031.063.063.063h1.763c.031 0 .063-.032.063-.063V6.6c0-.031-.032-.063-.063-.063h-1.035zM95.093 6.538c-.032 0-.053.021-.064.042l-1.445 4.759c-.021.063-.106.063-.127 0L92.011 6.58c-.01-.031-.032-.042-.064-.042h-2.68c-.033 0-.064.032-.064.063v12.15c0 .031.031.063.063.063h1.763c.032 0 .064-.032.064-.063V9.518c0-.074.105-.085.126-.022l1.456 4.79.106.338c.01.031.032.042.063.042h1.352c.031 0 .052-.021.063-.042l.106-.337 1.456-4.79c.022-.074.127-.053.127.02v9.234c0 .031.032.063.064.063h1.762c.031 0 .063-.032.063-.063V6.6c0-.031-.032-.063-.063-.063h-2.681zM72.357 6.538H64.028c-.031 0-.063.032-.063.063v1.516c0 .032.032.063.063.063h3.22v10.57c0 .032.031.064.063.064h1.763c.032 0 .063-.032.063-.063V8.18h3.22c.031 0 .063-.032.063-.064V6.601c0-.031-.021-.063-.063-.063zM82.754 18.814h1.604c.042 0 .074-.042.063-.084L81.107 6.538c-.01-.032-.032-.042-.063-.042h-2.301c-.032 0-.053.02-.064.042L75.365 18.73c-.01.042.021.084.063.084h1.605c.031 0 .053-.021.063-.042l.96-3.548c.011-.032.032-.042.064-.042h3.547c.031 0 .053.02.063.042l.96 3.548c.011.02.043.042.064.042zm-4.212-5.37l1.288-4.748c.021-.063.105-.063.127 0l1.287 4.748c.01.043-.02.085-.063.085h-2.576c-.042 0-.073-.042-.063-.085zM110.113 18.814h1.604c.042 0 .074-.042.064-.084l-3.315-12.192c-.01-.032-.031-.042-.063-.042h-2.301c-.032 0-.053.02-.063.042l-3.315 12.192c-.01.042.022.084.064.084h1.604c.032 0 .053-.021.064-.042l.96-3.548c.01-.032.032-.042.064-.042h3.546c.032 0 .053.02.064.042l.96 3.548c.01.02.032.042.063.042zm-4.212-5.37l1.288-4.748c.021-.063.106-.063.127 0l1.288 4.748c.01.043-.022.085-.064.085h-2.575c-.043 0-.074-.042-.064-.085zM53.8 17.014v-3.77c0-.031.032-.063.064-.063h4.697c.032 0 .063-.031.063-.063v-1.516c0-.031-.031-.063-.063-.063h-4.697c-.032 0-.063-.032-.063-.063V8.254c0-.031.031-.063.063-.063h5.34c.033 0 .064-.032.064-.063V6.612c0-.032-.031-.063-.063-.063h-7.231c-.031 0-.063.031-.063.063V18.75c0 .031.032.063.063.063h7.452c.032 0 .064-.032.064-.063v-1.6c0-.032-.032-.064-.064-.064h-5.573c-.031-.01-.053-.031-.053-.073zM138.19 18.709l-6.101-6.286c-.021-.02-.021-.063 0-.084l5.49-5.685c.041-.042.01-.105-.043-.105h-2.248c-.021 0-.032.01-.043.02l-4.654 4.823c-.043.042-.106.01-.106-.043V6.612c0-.032-.032-.063-.063-.063h-1.763c-.032 0-.064.031-.064.063v12.15c0 .03.032.062.064.062h1.763c.031 0 .063-.031.063-.063v-5.348c0-.053.074-.084.106-.042l5.277 5.432c.01.01.032.021.042.021h2.248c.043-.01.074-.084.032-.115z" transform="translate(1 1)"/>
        <path fill="#E17726" stroke="#E17726" stroke-linecap="round" stroke-linejoin="round" stroke-width=".25" d="M25.966 0L15.295 7.896 17.279 3.243z" transform="translate(1 1)"/>
        <path fill="#E27625" stroke="#E27625" stroke-linecap="round" stroke-linejoin="round" stroke-width=".25" d="M1.351 0L11.928 7.97 10.038 3.243zM22.124 18.308L19.284 22.646 25.364 24.32 27.106 18.403zM.222 18.403L1.953 24.32 8.022 22.646 5.193 18.308z" transform="translate(1 1)"/>
        <path fill="#E27625" stroke="#E27625" stroke-linecap="round" stroke-linejoin="round" stroke-width=".25" d="M7.695 10.981L6.006 13.529 12.022 13.802 11.822 7.328zM19.622 10.981L15.432 7.254 15.294 13.803 21.311 13.529zM8.022 22.646L11.664 20.888 8.529 18.445zM15.654 20.888L19.285 22.646 18.788 18.445z" transform="translate(1 1)"/>
        <path fill="#D5BFB2" stroke="#D5BFB2" stroke-linecap="round" stroke-linejoin="round" stroke-width=".25" d="M19.285 22.646L15.654 20.888 15.949 23.246 15.917 24.246zM8.022 22.646L11.4 24.246 11.379 23.246 11.664 20.888z" transform="translate(1 1)"/>
        <path fill="#233447" stroke="#233447" stroke-linecap="round" stroke-linejoin="round" stroke-width=".25" d="M11.463 16.887L8.444 16.003 10.576 15.024zM15.854 16.887L16.741 15.024 18.883 16.003z" transform="translate(1 1)"/>
        <path fill="#CC6228" stroke="#CC6228" stroke-linecap="round" stroke-linejoin="round" stroke-width=".25" d="M8.022 22.646L8.55 18.308 5.193 18.403zM18.767 18.308L19.284 22.646 22.124 18.403zM21.311 13.529L15.294 13.802 15.854 16.887 16.741 15.024 18.883 16.003zM8.444 16.003L10.576 15.024 11.463 16.887 12.022 13.802 6.006 13.529z" transform="translate(1 1)"/>
        <path fill="#E27525" stroke="#E27525" stroke-linecap="round" stroke-linejoin="round" stroke-width=".25" d="M6.006 13.529L8.529 18.445 8.444 16.003zM18.883 16.003L18.788 18.445 21.311 13.529zM12.023 13.802L11.463 16.887 12.17 20.53 12.329 15.729zM15.295 13.802L14.999 15.719 15.147 20.53 15.854 16.887z" transform="translate(1 1)"/>
        <path fill="#F5841F" stroke="#F5841F" stroke-linecap="round" stroke-linejoin="round" stroke-width=".25" d="M15.854 16.887L15.147 20.53 15.654 20.888 18.788 18.445 18.883 16.003zM8.444 16.003L8.529 18.445 11.664 20.888 12.17 20.53 11.463 16.887z" transform="translate(1 1)"/>
        <path fill="#C0AC9D" stroke="#C0AC9D" stroke-linecap="round" stroke-linejoin="round" stroke-width=".25" d="M15.917 24.246L15.949 23.246 15.675 23.015 11.643 23.015 11.379 23.246 11.4 24.246 8.022 22.646 9.204 23.615 11.6 25.268 15.706 25.268 18.113 23.615 19.285 22.646z" transform="translate(1 1)"/>
        <path fill="#161616" stroke="#161616" stroke-linecap="round" stroke-linejoin="round" stroke-width=".25" d="M15.653 20.888L15.147 20.53 12.17 20.53 11.664 20.888 11.379 23.246 11.642 23.015 15.675 23.015 15.949 23.246z" transform="translate(1 1)"/>
        <path fill="#763E1A" stroke="#763E1A" stroke-linecap="round" stroke-linejoin="round" stroke-width=".25" d="M26.42 8.412L27.317 4.053 25.966 0 15.654 7.633 19.622 10.981 25.227 12.613 26.462 11.17 25.924 10.781 26.779 10.002 26.124 9.496 26.979 8.844zM0 4.053L.908 8.412.327 8.844 1.193 9.496.538 10.002 1.393 10.781.855 11.17 2.09 12.613 7.695 10.981 11.664 7.633 1.351 0z" transform="translate(1 1)"/>
        <path fill="#F5841F" stroke="#F5841F" stroke-linecap="round" stroke-linejoin="round" stroke-width=".25" d="M25.227 12.613L19.622 10.981 21.311 13.529 18.788 18.445 22.124 18.403 27.106 18.403zM7.695 10.981L2.09 12.613.222 18.403 5.193 18.403 8.529 18.445 6.006 13.529zM15.295 13.802L15.653 7.633 17.279 3.243 10.038 3.243 11.664 7.633 12.022 13.802 12.16 15.74 12.17 20.53 15.147 20.53 15.157 15.74z" transform="translate(1 1)"/>
    </g>
</svg>
