<svg xmlns="http://www.w3.org/2000/svg" width="146" height="45" viewBox="0 0 146 45">
    <g fill="none" fill-rule="evenodd">
        <path fill="#000" d="M24.514 7.204l-4.532 4.532c.18.899.273 1.884.273 2.95 0 5.733-2.693 9.156-7.204 9.156-1.88 0-3.468-.602-4.666-1.748L24.09 6.39c-.42-.745-.9-1.442-1.44-2.078-.228-.268-.466-.518-.71-.76l.002-.002-.098-.094c-.073-.07-.143-.144-.216-.213l-.004.004C19.343 1.121 16.41 0 13.05 0 9.17 0 5.857 1.491 3.474 4.313 1.234 6.967 0 10.65 0 14.686c0 2.68.548 5.205 1.57 7.376l4.557-4.556c-.158-.863-.239-1.804-.239-2.82 0-2.639.537-4.773 1.597-6.342C8.727 6.502 10.652 5.53 13.05 5.53c1.868 0 3.424.588 4.605 1.684l-15.67 15.67c.43.782.928 1.51 1.488 2.174.112.132.229.26.345.386l.002.003c.136.147.273.289.413.428l.052.052.133.134.005-.005c2.281 2.17 5.234 3.315 8.627 3.315 3.886 0 7.204-1.491 9.597-4.313 2.254-2.656 3.495-6.34 3.495-10.372 0-2.723-.568-5.286-1.63-7.482zM127.184.707v27.987h-5.238L113.99 17.9c-2.52-3.44-5.598-7.837-5.638-7.837h-.04c-.04 0 .04 4.038.04 9.595v9.036h-5.557V.707h5.237l8.117 10.915c1.919 2.52 5.437 7.517 5.477 7.517h.04c.04 0-.04-4.558-.04-9.276V.707h5.558zM92.953 28.694h5.557V.707h-5.557v27.987zm-8.706-2.918c-1.52 1.719-4.838 3.478-8.476 3.478-8.036 0-14.513-6.117-14.513-14.553S67.735.147 75.77.147c5.558.04 10.195 2.92 12.714 7.397l-5.677 1.48c-1.52-2.08-4.278-3.399-7.037-3.399-5.237 0-8.716 3.758-8.716 9.076 0 5.557 3.838 9.116 9.036 9.116 4.798 0 7.317-2.64 8.196-4.798v-1.2H76.53v-4.518h12.515v15.393h-4.798c0-2.318.04-2.879.04-2.918h-.04zm-31.296 2.918h5.558V.707h-5.558v27.987zM34.053 14.181h4.958c3.078 0 4.518-1.999 4.518-4.118 0-2.199-1.48-4.158-4.518-4.158h-4.958v8.276zm10.115 14.513l-5.557-9.555H34.053v9.555h-5.557V.707h9.795c6.877 0 10.995 3.718 10.995 9.356 0 3.838-1.88 6.637-5.278 8.036l6.397 10.595h-6.237z" transform="translate(.811 .566)"/>
        <path fill="#FFF" d="M141.528 21.637c-.839-.937-2.176-1.834-3.568-2.281-1.399-.46-2.866-.56-4.361-.297-2.386.422-4.353 1.666-5.686 3.6-.315.456-.58.926-.8 1.408l-1.768-3.29-27.529 4.854c-.66-.054-1.344-.025-2.04.097-1.756.31-3.182 1.115-4.255 2.413-1.11 1.371-1.53 3.046-1.213 4.846.252 1.425.867 2.467 1.671 3.227l-1.908 1.611 1.035 1.791c1.539 2.663 4.501 3.891 7.925 3.288 1.912-.338 3.431-1.13 4.514-2.353.206-.234.39-.478.552-.732l.854 1.78 19.084-3.365.206-1.798.306-.054.808 1.619 8.448-1.49-.108-.203c.987.148 2.025.126 3.108-.065 2.384-.42 4.245-1.548 5.53-3.352 1.297-1.824 1.74-3.97 1.315-6.38 0 0-.294-2.835-2.12-4.874" transform="translate(.811 .566)"/>
        <path fill="#231F20" d="M90.592 37.916l.866 1.497c1.449 2.508 4.254 3.664 7.503 3.091 1.82-.32 3.26-1.069 4.28-2.222.186-.21.36-.44.514-.682l.392-.613 1.037 2.159 18.482-3.26.206-1.797.903-.16.808 1.62 7.597-1.34-.227-.421.802.119c.942.14 1.944.119 2.978-.063 2.276-.402 4.048-1.474 5.269-3.189 1.232-1.731 1.652-3.775 1.246-6.074-.007-.055-.31-2.76-2.022-4.673-.834-.932-2.133-1.762-3.39-2.166-1.338-.44-2.738-.534-4.166-.283-2.278.402-4.153 1.588-5.423 3.43-.296.427-.552.88-.764 1.346l-.339.746-2.018-3.754-27.29 4.812-.053-.004c-.64-.052-1.291-.02-1.937.093-1.657.292-3.008 1.057-4.013 2.272-1.031 1.273-1.421 2.836-1.125 4.516.216 1.226.737 2.236 1.55 3.002l.33.313-1.996 1.685zm6.753 5.545c-2.842 0-5.234-1.295-6.59-3.642l-1.205-2.085 1.834-1.549c-.762-.84-1.257-1.89-1.475-3.128-.339-1.918.11-3.706 1.296-5.171 1.134-1.371 2.647-2.23 4.5-2.557.697-.122 1.4-.158 2.091-.107l27.767-4.896 1.54 2.865c.146-.261.305-.516.476-.763 1.396-2.025 3.454-3.328 5.95-3.768 1.561-.276 3.094-.171 4.557.31 1.384.445 2.82 1.363 3.744 2.397 1.892 2.113 2.209 4.98 2.222 5.102.44 2.493-.026 4.742-1.389 6.657-1.348 1.894-3.296 3.077-5.79 3.517-.84.148-1.663.197-2.458.148l.012.022-9.299 1.64-.577-1.156-.147 1.284-19.686 3.47-.692-1.441c-.058.071-.117.141-.177.21-1.145 1.294-2.743 2.13-4.747 2.483-.6.106-1.188.158-1.757.158z" transform="translate(.811 .566)"/>
        <path fill="#000" d="M93.247 38.38l2.322-1.962c.624.97 1.495 1.358 2.61 1.161.93-.164 1.34-.515 1.247-1.039-.063-.355-.38-.578-.944-.705-.234-.046-.769-.109-1.568-.194-2.275-.244-3.813-1.054-4.17-3.084-.194-1.099.04-2.047.698-2.86.676-.816 1.597-1.328 2.764-1.534 1.978-.348 3.752.315 4.873 1.931l-2.274 1.935c-.527-.813-1.213-1.146-2.075-.994-.728.129-1.043.516-.963.972.093.524.566.737 2.256.927.605.068 1.088.14 1.47.229.382.09.79.227 1.263.44.924.395 1.485 1.203 1.691 2.37.206 1.166-.042 2.134-.754 2.94-.713.805-1.738 1.317-3.091 1.555-2.503.442-4.377-.396-5.355-2.089M106.368 38.838L100.967 27.585 104.23 27.01 107.372 34.145 108.171 26.316 110.555 25.895 113.984 32.979 114.512 25.197 117.758 24.625 116.548 37.043 113.352 37.606 110.281 31.261 109.564 38.274zM122.313 31.58l2.385-.42-1.91-3.813-.475 4.233zm4.43 3.665l-.808-1.618-3.94.695-.207 1.797-3.28.578 1.82-12.525 3.685-.65 5.994 11.148-3.264.575zM141.001 25.74l.212 1.2c.307 1.742.014 3.24-.895 4.517-.894 1.256-2.202 2.045-3.944 2.351-1.843.326-3.47.002-4.879-.97-1.392-.975-2.24-2.325-2.547-4.066-.308-1.742.028-3.3 1-4.71.972-1.41 2.339-2.26 4.08-2.568 1.1-.194 2.159-.118 3.159.21 1.016.327 1.842.861 2.513 1.598l-2.311 1.924c-.605-.661-1.655-.981-2.805-.779-.93.165-1.654.606-2.139 1.319-.484.713-.651 1.545-.484 2.492.16.913.585 1.64 1.287 2.161.702.521 1.605.694 2.67.506 1.37-.241 2.19-.927 2.448-2.036l-2.875.507-.459-2.604 5.97-1.052z" transform="translate(.811 .566)"/>
    </g>
</svg>
