<svg xmlns="http://www.w3.org/2000/svg" width="183" height="43" viewBox="0 0 183 43">
    <path fill="#FFFFFF" fill-rule="evenodd" d="M9.571 22.93c0-6.765 5.448-12.25 12.168-12.25.866 0 1.711.094 2.527.267C23.62 4.795 18.45 0 12.167 0 5.447 0 0 5.484 0 12.25v20.069s4.596-5.32 9.772-7.183a12.387 12.387 0 0 1-.2-2.206zm3.104 1.584c.141-.007.282-.015.422-.016a6 6 0 0 0-.422.016zm11.66-12.28zm-.069-1.286zM9.572 22.95zm14.694-12.002c.045.428.069.862.069 1.302 0 6.448-4.95 11.728-11.232 12.21v.04c-1.1 0-2.21.313-3.297.832a12.372 12.372 0 0 1-.173-1.172c.582 5.878 5.292 10.53 11.17 10.98v.04C27.156 35.18 33.906 43 33.906 43V22.93c0-5.893-4.133-10.812-9.64-11.983zM9.63 24.147zM21.74 10.68zm1.303.07zm-.023-.002zm153.828 10.037v14.372h-5.496V20.786h-6.153v-5.115H183v5.115h-6.153zm-21.673 4.037c1.59 0 2.35-.766 2.35-2.088 0-1.288-.725-2.088-2.35-2.088h-3.007v4.176h3.007zm-.45 4.176l-1.762.034h-.795v6.125h-5.462V15.671h8.158c5.254 0 8.261 2.644 8.261 6.716 0 2.958-1.486 4.698-3.249 5.498l4.39 7.273h-5.876l-3.664-6.16zM133.71 20.96c-.76-2.018-1.314-3.55-1.348-3.584h-.104c-.035.035-.588 1.53-1.348 3.55l-1.728 4.871h6.256l-1.728-4.837zm-6.43 10.161l-1.451 4.037h-6.118l9.332-24.36h6.602l9.368 24.36h-6.222l-1.452-4.037H127.28zm-15.588-6.298c1.59 0 2.35-.766 2.35-2.088 0-1.288-.726-2.088-2.35-2.088h-3.008v4.176h3.008zm-.45 4.176l-1.763.034h-.795v6.125h-5.461V15.671h8.157c5.254 0 8.262 2.644 8.262 6.716 0 2.958-1.487 4.698-3.25 5.498l4.39 7.273h-5.876l-3.664-6.16zM85.801 15.67h15.243v5.115h-9.782v2.366h6.706v4.316h-6.706v2.575h9.955v5.115H85.801V15.671zm-18.113 0h15.244v5.115H73.15v2.366h6.706v4.316H73.15v2.575h9.955v5.115H67.688V15.671zM55.66 22.49c2.455 0 3.56-1.287 3.56-3.201 0-1.914-1.105-3.167-3.56-3.167h-3.387v6.368h3.387zM55.486 10.8c5.946 0 9.541 3.167 9.541 8.386 0 5.116-3.595 8.387-9.54 8.387h-3.215v7.586h-5.807v-24.36h9.021z"/>
</svg>
