<svg xmlns="http://www.w3.org/2000/svg" width="387" height="53" viewBox="0 0 387 53">
    <path fill="#FFF" fill-opacity=".7" fill-rule="evenodd" d="M370.923 19.561h3.982v2.36c.574-.72 1.303-1.299 2.185-1.735.881-.436 1.887-.654 3.016-.654 2.159 0 3.848.637 5.066 1.912 1.219 1.275 1.828 3.052 1.828 5.33V36.83h-4.071v-9.605c0-1.307-.327-2.34-.98-3.1-.655-.759-1.635-1.14-2.943-1.14-1.15 0-2.115.395-2.897 1.183-.783.788-1.174 1.923-1.174 3.403v9.259h-4.012V19.56zm-6.358 17.269h4.041V19.56h-4.041V36.83zm-.506-21.49c0-.748.228-1.352.684-1.815.455-.462 1.07-.694 1.842-.694.792 0 1.411.232 1.857.694.446.463.669 1.067.669 1.815s-.223 1.348-.669 1.8c-.446.454-1.065.68-1.857.68-.812 0-1.436-.226-1.872-.68-.435-.452-.654-1.052-.654-1.8zm-10.787 17.859c.753 0 1.446-.13 2.08-.388.634-.258 1.179-.62 1.634-1.082.457-.462.818-.997 1.085-1.607.268-.61.402-1.267.402-1.969 0-.684-.134-1.33-.402-1.94-.267-.61-.628-1.142-1.085-1.595-.455-.453-1-.809-1.633-1.067-.635-.26-1.328-.388-2.081-.388-.733 0-1.421.129-2.065.388-.644.258-1.204.61-1.68 1.053-.474.444-.846.97-1.113 1.581-.268.61-.402 1.266-.402 1.968s.134 1.364.402 1.982c.267.62.639 1.155 1.114 1.608.475.454 1.035.81 1.679 1.068.644.259 1.332.388 2.065.388zm-.653 3.66c-1.05 0-2.086-.194-3.106-.583-1.02-.388-1.937-.953-2.748-1.693-.813-.74-1.467-1.645-1.962-2.717-.495-1.072-.743-2.29-.743-3.656 0-1.385.243-2.613.728-3.685s1.13-1.977 1.931-2.717c.803-.74 1.724-1.304 2.764-1.693 1.04-.388 2.106-.583 3.195-.583 1.149 0 2.209.206 3.18.619.97.413 1.772.975 2.407 1.687v-2.277h4.011V36.83h-4.011v-2.454c-.635.771-1.447 1.378-2.437 1.82-.991.443-2.06.663-3.21.663zM326.23 14.986h4.011v6.966c.595-.748 1.333-1.338 2.214-1.77.882-.433 1.877-.65 2.987-.65 2.16 0 3.848.637 5.066 1.912 1.22 1.275 1.828 3.052 1.828 5.33V36.83h-4.1v-9.575c0-1.327-.327-2.37-.982-3.13-.653-.759-1.633-1.14-2.941-1.14-.555 0-1.08.101-1.575.304-.496.202-.927.494-1.293.879-.367.384-.653.865-.861 1.442-.208.577-.312 1.23-.312 1.961v9.259h-4.042V14.986zm-9.866 21.873c-1.267 0-2.451-.227-3.55-.682-1.1-.456-2.056-1.072-2.868-1.85-.813-.777-1.451-1.693-1.917-2.745-.466-1.053-.698-2.177-.698-3.372 0-1.214.232-2.348.698-3.4.466-1.053 1.104-1.973 1.917-2.76.812-.787 1.768-1.404 2.868-1.85 1.099-.445 2.283-.668 3.55-.668.97 0 1.887.13 2.75.391.861.262 1.65.624 2.362 1.088.713.464 1.337 1.015 1.872 1.653.535.638.97 1.344 1.308 2.117l-3.596 1.41c-.397-.886-1.006-1.593-1.828-2.12-.822-.526-1.768-.79-2.838-.79-.733 0-1.41.13-2.035.388-.624.258-1.17.61-1.635 1.052-.465.443-.827.965-1.084 1.564-.258.6-.387 1.241-.387 1.925 0 .664.129 1.297.387 1.896.257.6.619 1.122 1.084 1.564.466.444 1.016.795 1.65 1.053.633.258 1.317.387 2.05.387 1.13 0 2.095-.281 2.897-.844.803-.563 1.402-1.286 1.799-2.172l3.595 1.44c-.338.771-.773 1.485-1.308 2.141-.534.657-1.154 1.221-1.857 1.694-.703.473-1.49.84-2.362 1.1-.873.26-1.813.39-2.824.39zm-24.397-21.873h4.011v12.9l7.4-8.325h4.814l-6.715 7.47 6.953 9.799h-4.487l-5.2-7.439-2.765 3.04v4.399h-4.01V14.986zm-9.866 21.873c-1.268 0-2.452-.227-3.55-.682-1.1-.456-2.056-1.072-2.869-1.85-.812-.777-1.451-1.693-1.917-2.745-.465-1.053-.697-2.177-.697-3.372 0-1.214.232-2.348.697-3.4.466-1.053 1.105-1.973 1.917-2.76.813-.787 1.769-1.404 2.868-1.85 1.1-.445 2.283-.668 3.55-.668.972 0 1.888.13 2.75.391.861.262 1.65.624 2.362 1.088.714.464 1.337 1.015 1.873 1.653.535.638.97 1.344 1.307 2.117l-3.596 1.41c-.396-.886-1.005-1.593-1.827-2.12-.823-.526-1.768-.79-2.838-.79-.733 0-1.411.13-2.036.388-.624.258-1.169.61-1.634 1.052-.466.443-.827.965-1.085 1.564-.258.6-.386 1.241-.386 1.925 0 .664.128 1.297.386 1.896.258.6.62 1.122 1.085 1.564.465.444 1.015.795 1.649 1.053.634.258 1.317.387 2.05.387 1.13 0 2.096-.281 2.898-.844.803-.563 1.401-1.286 1.798-2.172l3.596 1.44c-.338.771-.773 1.485-1.308 2.141-.535.657-1.154 1.221-1.858 1.694-.702.473-1.49.84-2.361 1.1-.873.26-1.814.39-2.824.39zm-19.375-3.749c.714 0 1.377-.129 1.991-.387.615-.258 1.15-.61 1.605-1.053.456-.442.812-.964 1.07-1.564.257-.6.387-1.232.387-1.896 0-.684-.13-1.325-.386-1.925-.259-.6-.615-1.121-1.07-1.564-.457-.443-.991-.794-1.606-1.052-.614-.259-1.277-.388-1.99-.388-.714 0-1.382.13-2.006.388-.624.258-1.16.61-1.605 1.052-.445.443-.797.965-1.055 1.564-.258.6-.386 1.241-.386 1.925 0 .664.128 1.297.386 1.896.258.6.61 1.122 1.055 1.564.446.444.98.795 1.605 1.053.624.258 1.292.387 2.005.387zm0 3.75c-1.247 0-2.421-.223-3.52-.67-1.1-.445-2.056-1.061-2.869-1.848-.812-.788-1.45-1.708-1.916-2.76-.466-1.053-.699-2.177-.699-3.372 0-1.214.233-2.348.699-3.4.465-1.053 1.104-1.973 1.916-2.76.813-.787 1.77-1.404 2.869-1.85 1.099-.445 2.273-.668 3.52-.668 1.249 0 2.418.223 3.507.669 1.09.445 2.045 1.062 2.868 1.848.822.788 1.466 1.708 1.931 2.76.466 1.053.698 2.187.698 3.4 0 1.196-.232 2.32-.698 3.373-.465 1.052-1.11 1.972-1.931 2.76-.823.787-1.778 1.403-2.868 1.849-1.089.446-2.258.668-3.507.668zm-14.798-.03h4.042V14.987h-4.042v21.845zm-12.897-9.21v5.52h3.329c1.227 0 2.154-.241 2.778-.723.624-.482.936-1.166.936-2.052 0-.885-.272-1.564-.817-2.037-.545-.472-1.57-.708-3.076-.708h-3.15zm0-8.65v4.901h2.794c1.287 0 2.189-.236 2.704-.708.515-.473.773-1.093.773-1.86 0-.806-.268-1.397-.803-1.771-.535-.374-1.426-.561-2.674-.561h-2.794zm-4.041-3.69h6.835c2.397 0 4.254.513 5.572 1.536 1.317 1.023 1.976 2.52 1.976 4.487 0 1.87-.793 3.267-2.378 4.192 1.01.453 1.788 1.092 2.333 1.919.545.826.817 1.84.817 3.04 0 2.125-.698 3.72-2.095 4.782-1.396 1.063-3.294 1.594-5.69 1.594h-7.37V15.28zm-24.814 9.56v2.967h2.098v2.943c.006.263-.008.546-.054.774-.083.548-.608 1.483-2.097 1.483-1.48 0-1.997-.935-2.086-1.483-.038-.228-.054-.511-.054-.774v-9.296c0-.329.023-.689.093-.96.101-.496.544-1.473 2.035-1.473 1.566 0 1.957 1.03 2.048 1.473.058.292.061.784.061.784v1.128h5.157v-.667s.023-.696-.04-1.346c-.387-3.815-3.55-5.022-7.18-5.022-3.635 0-6.736 1.218-7.188 5.022-.04.348-.102.974-.102 1.346v8.551c0 .373.012.661.081 1.341.337 3.711 3.574 5.026 7.195 5.026 3.643 0 6.857-1.315 7.2-5.026.06-.68.067-.968.075-1.34v-5.45h-7.242zm-35.555-8.922h-5.178v15.047c.008.262 0 .556-.046.772-.108.505-.539 1.477-1.968 1.477-1.41 0-1.851-.972-1.952-1.477-.052-.216-.058-.51-.052-.772V15.918h-5.177v14.58c-.006.376.023 1.143.046 1.344.357 3.8 3.372 5.033 7.135 5.033 3.772 0 6.784-1.234 7.148-5.033.029-.2.066-.968.044-1.345V15.918zm-47.58 0l-2.582 15.9-2.582-15.9h-8.353l-.443 20.339h5.118l.138-18.829 3.52 18.829h5.193l3.524-18.829.14 18.829h5.13l-.458-20.339h-8.344zm-30.925 0l-3.794 20.339h5.531l2.859-18.829 2.79 18.829h5.492l-3.777-20.339h-9.101zm96.602 16.375l-4.822-16.375h-7.598v20.127h5.026l-.292-16.9 5.18 16.9h7.286V15.918h-5.06l.28 16.375zm-46.493-11.082c-.09-.401-.064-.828-.017-1.051.146-.651.587-1.361 1.856-1.361 1.182 0 1.875.732 1.875 1.831v1.244h5.048v-1.418c0-4.382-3.955-5.071-6.819-5.071-3.606 0-6.552 1.181-7.09 4.479-.142.897-.177 1.693.05 2.71.876 4.111 8.082 5.304 9.128 7.904.184.493.132 1.12.037 1.491-.156.677-.614 1.357-1.973 1.357-1.274 0-2.04-.727-2.04-1.824l-.003-1.952h-5.433v1.552c0 4.495 3.545 5.852 7.364 5.852 3.656 0 6.677-1.24 7.16-4.606.232-1.739.058-2.87-.035-3.297-.846-4.218-8.526-5.486-9.108-7.84zm-57.375 7.865c.083.432.268 1.574.022 3.328-.496 3.404-3.534 4.657-7.233 4.657-3.849 0-7.444-1.368-7.444-5.915V29.59h5.494l.008 1.956c0 1.113.765 1.853 2.044 1.853 1.37 0 1.831-.69 2-1.374.097-.385.157-1.013-.04-1.502-1.06-2.631-8.336-3.834-9.223-7.992-.215-1.027-.19-1.83-.04-2.741.543-3.322 3.515-4.521 7.152-4.521 2.895 0 6.91.705 6.91 5.13v1.429h-5.107v-1.26c0-1.107-.705-1.847-1.902-1.847-1.292 0-1.734.723-1.875 1.371-.054.225-.078.659.021 1.068.583 2.381 8.349 3.645 9.213 7.915zm-41.903 4.606c0 1.802-1.471 3.264-3.285 3.264-.674 0-1.298-.204-1.82-.55l-8.208 4.709c.002.054.017.107.017.162 0 1.802-1.471 3.264-3.286 3.264-1.814 0-3.285-1.462-3.285-3.264 0-.042.011-.08.012-.122l-8.215-4.712c-.509.32-1.107.513-1.753.513-1.815 0-3.286-1.462-3.286-3.264 0-1.268.735-2.354 1.798-2.895V21.51c-1.063-.54-1.798-1.627-1.798-2.895 0-1.802 1.471-3.263 3.286-3.263.646 0 1.244.192 1.753.513l8.215-4.712c0-.042-.012-.081-.012-.123 0-1.802 1.471-3.263 3.285-3.263 1.815 0 3.286 1.461 3.286 3.263 0 .056-.015.108-.017.163l8.208 4.707c.522-.345 1.146-.548 1.82-.548 1.814 0 3.285 1.461 3.285 3.263 0 1.32-.793 2.45-1.927 2.965v9.138c1.134.514 1.927 1.644 1.927 2.964zm9.216-15.33c-.648-4.856-2.378-9.257-5.43-12.48C43.49 2.842 39.06 1.122 34.171.48c-4.669-.615-7.848-.464-7.848-.464s-3.18-.15-7.849.464c-4.889.643-9.318 2.362-12.562 5.392C2.86 9.095 1.13 13.496.481 18.352-.137 22.99.017 26.15.017 26.15s-.154 3.158.465 7.796c.648 4.855 2.378 9.256 5.43 12.48 3.244 3.03 7.673 4.749 12.562 5.393 4.67.615 7.849.463 7.849.463s3.18.152 7.848-.463c4.888-.644 9.318-2.363 12.563-5.393 3.052-3.224 4.782-7.625 5.43-12.48.618-4.638.466-7.796.466-7.796s.152-3.159-.466-7.796zm-24.339 8.815v4.17h-2.862v-4.17c-1.1-.53-1.86-1.645-1.86-2.94 0-1.804 1.474-3.268 3.29-3.268 1.818 0 3.29 1.464 3.29 3.269 0 1.294-.759 2.41-1.858 2.939zm8.553-8.552c0-.142.024-.278.042-.415l-8.038-4.61c-.558.435-1.252.704-2.016.704-.778 0-1.483-.28-2.046-.73l-7.96 4.566c.024.16.05.319.05.485 0 1.37-.852 2.539-2.057 3.023v9.021c1.205.484 2.057 1.653 2.057 3.023 0 .166-.026.326-.05.486l7.96 4.565c.563-.45 1.268-.73 2.046-.73.765 0 1.459.27 2.016.705l8.038-4.61c-.018-.138-.042-.274-.042-.416 0-1.32.792-2.45 1.927-2.964V21.58c-1.135-.515-1.927-1.645-1.927-2.965z"/>
</svg>
