<svg xmlns="http://www.w3.org/2000/svg" width="387" height="53" viewBox="0 0 387 53">
    <g fill="none" fill-rule="evenodd">
        <path fill="#1E4BC6" fill-rule="nonzero" d="M52.362 18.67c-.618-4.884-2.349-9.335-5.44-12.55-3.214-3.029-7.666-4.76-12.55-5.44-4.636-.618-7.85-.495-7.85-.495S23.367.062 18.67.68c-4.884.618-9.335 2.35-12.55 5.44C3.091 9.335 1.36 13.786.68 18.67c-.618 4.637-.495 7.851-.495 7.851s-.123 3.153.495 7.852c.618 4.883 2.35 9.335 5.44 12.55 3.215 3.028 7.666 4.76 12.55 5.44 4.637.618 7.851.494 7.851.494s3.153.124 7.852-.495c4.883-.618 9.335-2.349 12.55-5.44 3.028-3.214 4.76-7.666 5.44-12.55.618-4.636.494-7.85.494-7.85s.124-3.154-.495-7.852"/>
        <path fill="#FFF" fill-rule="nonzero" d="M26.583 43.46L11.87 34.99V18.053l14.713-8.47 14.652 8.47V34.99l-14.652 8.47zM14.59 33.445l11.993 6.924 11.932-6.924V19.66l-11.932-6.924L14.59 19.66v13.786z"/>
        <path fill="#FFF" fill-rule="nonzero" d="M29.86 11.313c0 1.793-1.484 3.277-3.277 3.277-1.793 0-3.276-1.484-3.276-3.277 0-1.793 1.483-3.276 3.276-3.276 1.793 0 3.277 1.483 3.277 3.276M29.86 41.73c0 1.792-1.484 3.276-3.277 3.276-1.793 0-3.276-1.484-3.276-3.277 0-1.793 1.483-3.276 3.276-3.276 1.793 0 3.277 1.483 3.277 3.276M16.63 18.98c0 1.792-1.484 3.276-3.277 3.276-1.792 0-3.276-1.484-3.276-3.277 0-1.793 1.484-3.276 3.276-3.276 1.855 0 3.277 1.421 3.277 3.276M43.151 18.98c0 1.792-1.484 3.276-3.276 3.276-1.793 0-3.277-1.484-3.277-3.277 0-1.793 1.484-3.276 3.277-3.276 1.792 0 3.276 1.421 3.276 3.276M16.63 34.125c0 1.793-1.484 3.277-3.277 3.277-1.792 0-3.276-1.484-3.276-3.277 0-1.793 1.484-3.276 3.276-3.276 1.855 0 3.277 1.422 3.277 3.276M43.151 34.125c0 1.793-1.484 3.277-3.276 3.277-1.793 0-3.277-1.484-3.277-3.277 0-1.793 1.484-3.276 3.277-3.276 1.792 0 3.276 1.422 3.276 3.276"/>
        <path fill="#45D2F9" d="M29.921 24.605c0-1.793-1.483-3.277-3.276-3.277-1.793 0-3.277 1.484-3.277 3.277 0 1.298.742 2.41 1.855 2.967v4.204h2.844v-4.204c1.05-.556 1.854-1.669 1.854-2.967"/>
        <path fill="#000" fill-rule="nonzero" d="M75.793 21.514c-.124-.433-.062-.866 0-1.051.123-.68.556-1.36 1.854-1.36 1.175 0 1.917.742 1.917 1.854v1.237h5.07v-1.422c0-4.451-4.02-5.131-6.925-5.131-3.647 0-6.615 1.174-7.171 4.574-.124.928-.186 1.731.062 2.782.865 4.204 8.16 5.379 9.211 8.037.185.495.124 1.113.062 1.484-.186.68-.618 1.36-1.978 1.36-1.299 0-2.04-.742-2.04-1.855v-1.978h-5.503v1.484c0 4.575 3.586 5.935 7.419 5.935 3.71 0 6.738-1.237 7.233-4.699.247-1.793.062-2.905 0-3.338-.866-4.266-8.655-5.502-9.211-7.913zm66.52.062c-.063-.433-.063-.804 0-1.051.123-.68.556-1.36 1.854-1.36 1.174 0 1.854.741 1.854 1.854v1.237h5.07v-1.422c0-4.39-3.957-5.07-6.8-5.07-3.586 0-6.554 1.175-7.11 4.513-.124.928-.185 1.731.062 2.72.865 4.142 8.098 5.317 9.088 7.975.185.495.123 1.113.061 1.484-.185.68-.618 1.36-1.978 1.36-1.298 0-2.04-.742-2.04-1.854v-1.979h-5.44v1.546c0 4.513 3.524 5.873 7.356 5.873 3.648 0 6.677-1.237 7.172-4.637.247-1.73.061-2.905-.062-3.338-.866-4.204-8.531-5.502-9.088-7.851zm46.427 11.127l-4.822-16.444h-7.604v20.215h5.007l-.309-17 5.193 17h7.295V16.26h-5.07l.31 16.444zM92.237 16.26l-3.771 20.463h5.502l2.844-18.918 2.782 18.918h5.502l-3.771-20.463h-9.088zm30.91 0l-2.596 15.95-2.596-16.012h-8.346l-.433 20.463h5.131l.124-18.917 3.524 18.917h5.193l3.523-18.917.124 18.917h5.131l-.433-20.463h-8.345v.062zm47.48 0h-5.194v15.146c0 .247 0 .557-.062.804-.123.494-.556 1.483-1.978 1.483s-1.855-.989-1.978-1.483c-.062-.247-.062-.495-.062-.804V16.26h-5.193V30.91c0 .37 0 1.174.062 1.36.37 3.833 3.338 5.069 7.11 5.069 3.77 0 6.8-1.236 7.109-5.07 0-.185.062-.989.062-1.36V16.26h.123zm35.546 8.964v2.967h2.102v2.968c0 .247 0 .556-.062.804-.061.556-.618 1.483-2.101 1.483-1.484 0-1.979-.927-2.102-1.483-.062-.248-.062-.495-.062-.804v-9.335c0-.31 0-.68.062-.99.123-.494.556-1.483 2.04-1.483 1.545 0 1.978 1.051 2.04 1.484.062.309.062.803.062.803v1.113h5.13v-.68s0-.68-.061-1.36c-.371-3.833-3.524-5.07-7.171-5.07-3.648 0-6.739 1.237-7.172 5.07-.061.371-.123.99-.123 1.36v8.593c0 .371 0 .68.062 1.36.309 3.71 3.585 5.07 7.17 5.07 3.648 0 6.863-1.299 7.172-5.07.062-.68.062-.989.062-1.36v-5.502h-7.048v.062z"/>
        <g fill="#000" fill-rule="nonzero">
            <path d="M.31 2.596h6.8c2.41 0 4.265.495 5.563 1.546 1.299 1.051 1.979 2.535 1.979 4.513 0 1.855-.804 3.276-2.35 4.204.99.433 1.793 1.113 2.35 1.916.556.804.803 1.855.803 3.03 0 2.163-.68 3.709-2.102 4.822-1.422 1.05-3.276 1.607-5.687 1.607H.309V2.596zm4.08 3.71v4.945H7.17c1.298 0 2.164-.247 2.72-.741.495-.495.742-1.113.742-1.855 0-.804-.247-1.422-.803-1.793-.557-.37-1.422-.556-2.659-.556H4.39zm0 8.717v5.563h3.338c1.236 0 2.163-.247 2.782-.741.618-.495.927-1.175.927-2.04 0-.866-.247-1.546-.804-2.04-.556-.495-1.545-.742-3.09-.742H4.388zM17.248 2.349L21.266 2.349 21.266 24.296 17.248 24.296zM32.023 24.296c-1.236 0-2.41-.248-3.523-.68-1.113-.433-2.04-1.051-2.844-1.855-.804-.804-1.422-1.731-1.917-2.782-.494-1.05-.68-2.164-.68-3.4 0-1.237.248-2.35.68-3.4.495-1.051 1.113-1.979 1.917-2.782.803-.804 1.793-1.422 2.844-1.855 1.112-.433 2.287-.68 3.523-.68 1.237 0 2.411.247 3.524.68 1.113.433 2.04 1.051 2.844 1.855.804.803 1.484 1.73 1.916 2.782.495 1.05.68 2.225.68 3.4 0 1.175-.247 2.35-.68 3.4-.432 1.051-1.112 1.978-1.916 2.782-.804.804-1.793 1.422-2.844 1.855-1.05.432-2.287.68-3.524.68zm0-3.771c.742 0 1.36-.124 1.979-.371.618-.248 1.174-.619 1.607-1.051.433-.433.804-.99 1.05-1.546.248-.618.372-1.236.372-1.916 0-.68-.124-1.36-.371-1.917-.247-.618-.618-1.112-1.051-1.545-.433-.433-.99-.804-1.607-1.051-.619-.247-1.299-.371-1.979-.371-.68 0-1.36.124-1.978.37-.618.248-1.175.619-1.607 1.052-.433.433-.804.989-1.051 1.545-.248.618-.371 1.237-.371 1.917 0 .68.123 1.298.37 1.916.248.618.619 1.113 1.052 1.546.432.432.989.803 1.607 1.05.618.248 1.298.372 1.978.372zM51.373 24.296c-1.236 0-2.473-.248-3.523-.68-1.113-.433-2.04-1.051-2.844-1.855-.804-.804-1.422-1.731-1.917-2.782-.494-1.05-.68-2.164-.68-3.4 0-1.237.248-2.35.68-3.4.495-1.051 1.113-1.979 1.917-2.782.803-.804 1.793-1.422 2.844-1.855 1.112-.433 2.287-.68 3.523-.68.99 0 1.855.124 2.72.371.866.247 1.67.618 2.35 1.113.742.494 1.36 1.05 1.854 1.669.557.618.99 1.36 1.299 2.102l-3.586 1.422c-.371-.866-.99-1.608-1.855-2.102-.865-.495-1.793-.804-2.843-.804-.742 0-1.422.124-2.04.371-.619.247-1.175.618-1.608 1.051-.495.433-.804.99-1.113 1.546-.247.618-.37 1.236-.37 1.916 0 .68.123 1.298.37 1.917.248.618.618 1.112 1.113 1.545.495.433.99.804 1.67 1.051.617.247 1.297.371 2.04.371 1.112 0 2.101-.31 2.905-.866.804-.556 1.422-1.298 1.793-2.163l3.585 1.422c-.309.803-.742 1.483-1.298 2.163-.556.68-1.174 1.237-1.855 1.731-.68.495-1.483.866-2.349 1.113-.803.371-1.793.495-2.782.495zM61.203 2.349L65.221 2.349 65.221 15.332 72.64 6.986 77.462 6.986 70.785 14.466 77.709 24.296 73.258 24.296 68.003 16.815 65.221 19.845 65.221 24.296 61.203 24.296z" transform="translate(230.593 12.982)"/>
            <path d="M85.56 24.296c-1.236 0-2.472-.248-3.523-.68-1.113-.433-2.04-1.051-2.844-1.855-.804-.804-1.422-1.731-1.917-2.782-.494-1.05-.68-2.164-.68-3.4 0-1.237.248-2.35.68-3.4.495-1.051 1.113-1.979 1.917-2.782.803-.804 1.793-1.422 2.844-1.855 1.112-.433 2.287-.68 3.523-.68.99 0 1.855.124 2.72.371.866.247 1.67.618 2.35 1.113.742.494 1.36 1.05 1.854 1.669.557.618.99 1.36 1.299 2.102L90.259 13.6c-.371-.866-.99-1.608-1.855-2.102-.865-.495-1.793-.804-2.844-.804-.741 0-1.422.124-2.04.371-.618.247-1.174.618-1.607 1.05-.495.434-.804.99-1.113 1.546-.247.619-.37 1.237-.37 1.917 0 .68.123 1.298.37 1.916.247.619.618 1.113 1.113 1.546.495.433.99.804 1.67 1.05.617.248 1.297.372 2.04.372 1.112 0 2.101-.31 2.905-.866.803-.556 1.422-1.298 1.793-2.163l3.585 1.421c-.309.804-.742 1.484-1.298 2.164-.556.68-1.175 1.237-1.855 1.731-.68.495-1.483.866-2.349 1.113-.865.309-1.793.433-2.844.433zM95.452 2.35h4.018v6.985c.618-.742 1.36-1.36 2.226-1.793.865-.433 1.854-.68 2.967-.68 2.164 0 3.833.618 5.07 1.917 1.236 1.298 1.854 3.09 1.854 5.378v10.077h-4.08v-9.582c0-1.36-.31-2.411-.99-3.153-.68-.742-1.607-1.175-2.967-1.175-.556 0-1.05.124-1.545.31-.495.185-.928.494-1.298.865-.371.37-.68.865-.866 1.422-.185.556-.31 1.236-.31 1.978v9.335h-4.017V2.349h-.062zM121.788 24.296c-1.051 0-2.102-.186-3.092-.557-.989-.37-1.916-.927-2.72-1.73-.803-.743-1.483-1.67-1.978-2.72-.494-1.052-.742-2.288-.742-3.648 0-1.422.248-2.597.742-3.71.495-1.112 1.113-1.978 1.917-2.72.803-.742 1.73-1.298 2.781-1.73 1.051-.372 2.102-.557 3.215-.557 1.175 0 2.226.185 3.153.618s1.793.99 2.411 1.67V6.923h4.018v17.372h-4.018v-2.473c-.618.804-1.422 1.36-2.41 1.854-1.052.433-2.103.619-3.277.619zm.68-3.648c.741 0 1.421-.123 2.101-.37.619-.248 1.175-.619 1.608-1.113.433-.495.804-.99 1.113-1.608.247-.618.37-1.298.37-1.978 0-.68-.123-1.36-.37-1.978-.248-.619-.619-1.175-1.113-1.608-.433-.432-.99-.803-1.608-1.05-.618-.248-1.298-.372-2.101-.372-.742 0-1.422.124-2.04.371-.619.248-1.175.619-1.67 1.051-.494.433-.865.99-1.112 1.608-.248.618-.371 1.298-.371 1.978 0 .68.123 1.36.37 1.978.248.618.619 1.175 1.113 1.608.495.432 1.051.803 1.67 1.05.618.31 1.298.433 2.04.433zM133.224 2.658c0-.742.248-1.36.68-1.854.433-.495 1.051-.68 1.855-.68s1.422.247 1.855.68c.432.494.68 1.05.68 1.854 0 .742-.248 1.36-.68 1.793-.433.433-1.051.68-1.855.68s-1.422-.247-1.855-.68c-.494-.433-.68-.989-.68-1.793zm.495 4.266h4.018v17.372h-4.018V6.924zM140.087 6.924h3.956v2.35c.557-.743 1.298-1.3 2.164-1.732.865-.433 1.855-.68 3.03-.68 2.163 0 3.832.618 5.068 1.917 1.237 1.298 1.855 3.09 1.855 5.378v10.077h-4.08v-9.582c0-1.299-.31-2.35-.99-3.091-.68-.742-1.607-1.175-2.967-1.175-1.174 0-2.102.37-2.905 1.175-.804.803-1.175 1.916-1.175 3.4v9.335h-4.018V6.924h.062z" transform="translate(230.593 12.982)"/>
        </g>
    </g>
</svg>
