<svg xmlns="http://www.w3.org/2000/svg" width="132" height="37" viewBox="0 0 132 37">
    <path fill="#FFFFFF" fill-rule="evenodd" d="M1.66 27.775c.018-.119.063-.234.1-.35.105-.33-.484-1.28-.827-1.302a.441.441 0 0 0-.32.125c-.327.373-.795.624-.54 1.332.245.68.138.72.873.782.575.049.629.002.715-.587zm.735-4.257c.018-.133.078-.259.118-.388.102-.332-.596-1.244-.93-1.202a.475.475 0 0 0-.27.14c-.343.376-.74.667-.52 1.35.225.697.125.73.815.753.694.022.695.018.787-.653zm-.029-10.406c.016-.104.09-.206.083-.304-.017-.21-.027-.439-.118-.619-.093-.182-.28-.315-.424-.47-.23-.245-.448-.2-.656.03-.365.403-.697.753-.472 1.428.207.623.103.659.769.645.718-.016.716-.016.818-.71zm-.04 4.088c-.035-.373-.564-.699-.867-1.046-.312.342-.826.648-.895 1.034-.154.876.19 1.216.919 1.213.751-.003.94-.157.843-1.201zm.243-8.434c.014-.12.063-.233.09-.351.075-.336-.582-1.16-.91-1.13a.38.38 0 0 0-.232.116c-.361.418-.825.745-.603 1.472.187.612.15.685.805.66.755-.028.762-.037.85-.767zM4.164 19.83c.016-.133.079-.26.117-.39.097-.33-.636-1.225-.971-1.177a.392.392 0 0 0-.233.12c-.331.406-.82.682-.55 1.418.248.676.137.718.841.724.71.006.706.005.796-.695zm.15 6.327c.141-.382.258-.846.165-1.222-.08-.324-.448-.588-.721-.843-.068-.063-.313-.039-.391.036-.4.384-.871.688-.608 1.443.236.675.14.714.888.812.232-.071.614-.086.667-.226zm.24-15.207c.016-.103.066-.2.103-.3.14-.377-.548-1.275-.939-1.212a.467.467 0 0 0-.265.153c-.335.414-.782.72-.534 1.442.226.655.112.695.78.672.74-.025.738-.025.855-.755zm-.106 19.411c.004-.194.056-.388.096-.58.07-.337-.609-1.251-.938-1.236a.449.449 0 0 0-.272.132c-.364.376-.89.695-.517 1.363.02.035.01.09.007.135-.04.465.213.624.625.629.165.002.33.02.527.032.307.03.465-.124.472-.475zm1.784-21.9c.014-.104.054-.205.072-.309.05-.295-.613-1.126-.901-1.112a.435.435 0 0 0-.269.136c-.398.435-.861.798-.617 1.556.185.576.173.674.792.63.81-.056.81-.057.923-.9zm-1.758 13.92c.016.075.11.186.173.189.385.018.785.069 1.15-.019.124-.03.162-.428.241-.658.03-.085.093-.17.09-.254-.006-.194.01-.42-.081-.574-.135-.23-.343-.422-.54-.61a.498.498 0 0 0-.313-.133c-.256.002-.925.773-.926.907.081.47.132.814.206 1.152zm1.679 6.368c.137-.429.3-.909.226-1.328-.057-.32-.443-.592-.716-.85-.072-.066-.33-.055-.396.019-.36.397-.915.656-.613 1.434.28.72.18.76.929.863.198-.044.539-.04.57-.138zm.269-11.097c.02-.119.075-.23.108-.347.092-.326-.634-1.226-.967-1.192-.083.01-.187.048-.238.11-.346.42-.854.71-.601 1.464.226.674.122.71.81.712.757.001.764-.007.888-.747zm1.855 1.984c.018-.104.098-.208.086-.303-.026-.21-.05-.44-.153-.616-.12-.203-.324-.355-.487-.533-.192-.21-.384-.21-.582-.012-.41.413-.825.758-.58 1.507.217.66.111.696.827.705.733.009.758-.014.889-.748zm-.02 12.98c.015-.104.09-.203.087-.303-.005-.182.001-.393-.087-.536-.149-.242-.368-.439-.555-.657-.184-.214-.398-.228-.59-.042-.39.375-.837.664-.568 1.404.26.712.158.75.88.816.714.066.725.054.833-.683zm4.27-13.144c.02-.103.102-.2.101-.299 0-.178.023-.434-.077-.518-.32-.27-.464-.786-.99-.774a.232.232 0 0 0-.16.077c-.348.451-.992.703-.665 1.544.264.677.147.723.907.735.744.011.742.01.885-.765zm.526 4.316c.02-.118.08-.228.111-.345.09-.333-.76-1.32-1.088-1.262a.306.306 0 0 0-.16.075c-.251.26-.66.502-.704.798-.068.448.11.937.208 1.404.01.05.183.083.283.093.148.016.3.004.45.004.772.009.77.008.9-.767zm1.595-2.187a.625.625 0 0 1 .088-.254c.17-.25.107-.449-.093-.644-.183-.179-.342-.384-.533-.554-.106-.094-.334-.226-.37-.191-.365.338-.794.66-1.007 1.088-.128.256.074.699.177 1.043.032.106.218.197.35.234.169.047.355.033.534.046.74.005.738.005.854-.768zm.086 13.68c.005-.177.101-.352.104-.529.002-.195-.003-.424-.1-.578-.158-.254-.39-.46-.596-.682-.195-.209-.421-.261-.629-.04-.378.402-1.007.709-.591 1.45.026.047.009.121.005.182-.024.378.176.564.52.62.237.037.476.061.83.106.258.024.445-.137.457-.53zm1.732-4.096c.002-.149.003-.32.072-.441.203-.364.072-.602-.186-.877-.89-.948-.762-.8-1.622-.006-.214.197-.305.4-.155.68.048.09.062.203.07.307.048.704.048.707.75.782l.537.057c.358.03.528-.137.534-.502zm-.92-12.962a.669.669 0 0 1 .065-.216c.16-.29.074-.518-.149-.732-.884-.85-.712-1.038-1.665-.008-.02.022-.043.042-.064.065-.204.228-.08 1.443.174 1.61.071.048.167.071.254.079.149.012.3.003.45.003.81.005.809.005.935-.8zM22.754 5.4c.15 0 .3.008.45-.001.539-.036.633-.145.666-.697.01-.179.092-.354.094-.532.003-.177.009-.447-.093-.517-.37-.256-.558-.799-1.108-.766-.086.005-.176.106-.249.179-.202.204-.396.416-.592.626-.2.215-.173 1.454.052 1.64.085.07.217.095.332.109.147.018.299.004.448.004V5.4zm2.415-2.833c.6-.03.67-.1.689-.695.004-.12-.005-.266.056-.355.287-.416.146-.695-.232-.943-.175-.114-.316-.281-.472-.424-.215-.197-.427-.205-.633.013-.27.287-.554.563-.796.872-.08.101-.074.296-.057.442.026.22.131.43.14.648.017.373.182.53.54.493.255-.017.51-.038.765-.05zM19.23 4.818c.806-.032.806-.033.887-.855.006-.06.008-.133.042-.176.358-.46.108-.743-.264-1.01-.158-.113-.293-.262-.434-.398-.23-.222-.443-.214-.662.024-.257.279-.542.532-.78.826-.082.102-.095.295-.079.439.027.234.137.459.153.692.027.37.196.525.552.492.12-.01.24-.017.457-.033-.022 0 .053.002.128 0zM29.234 26.73c.282-.023.579.002.841-.083.3-.098.467-1.487.233-1.717-.118-.117-.244-.226-.364-.342-.71-.69-.701-.68-1.428-.037-.363.322-.736.597-.338 1.147.067.093.034.268.029.404-.014.407.18.592.574.58.15-.004.3 0 .45 0l.003.048zm-.11-6.26c.12 0 .241-.002.361 0 .553.014.619-.063.65-.613.013-.22.125-.433.148-.654.016-.16.013-.376-.078-.482a5.282 5.282 0 0 0-.825-.775c-.117-.089-.383-.136-.478-.063-.357.274-.723.569-.977.934-.108.157.053.505.088.767.01.075.007.152.01.228.02.531.115.625.65.641.15.005.301 0 .451 0v.017zm.961-15.44c.21 0 .433.045.625-.014.173-.053.376-.19.448-.345.082-.178.034-.417.043-.63.001-.014.002-.033.01-.043.414-.508.056-.774-.31-1.046-.145-.108-.268-.244-.4-.368-.244-.227-.484-.213-.713.019-.201.204-.383.43-.598.618-.295.259-.448.516-.19.9.066.099.052.262.053.397.005.487.1.585.584.569.15-.005.299-.021.448-.032V5.03zM7.438 26.969c.326.044.668.073.77-.343.144-.592.36-1.212-.342-1.644-.095-.058-.174-.353-.145-.374.4-.29.302-.764.457-1.138.124-.296.068-.491-.116-.696-.89-.989-.748-.904-1.541-.079-.255.265-.202 1.345.079 1.585.034.03.075.05.115.07.51.271.559.4.094.72-.677.465-.233 1.028-.163 1.52.028.194.47.327.724.488l.068-.11zm2.75 4.106c.11-.632.352-1.32-.395-1.767-.024-.015-.042-.043-.06-.068-.156-.22-.231-.42.14-.483.28-.047.35-.237.358-.493.005-.165.017-.341.078-.49.114-.281.046-.488-.15-.7-.78-.846-.776-.85-1.592-.057-.218.212-.171 1.366.066 1.556.046.036.107.053.162.076.416.18.439.302.11.632-.106.107-.225.202-.333.307-.242.236-.184 1.386.09 1.584a.827.827 0 0 0 .334.12c.161.028.328.032.492.047.274.018.627.153.7-.264zm.341-7.335a.686.686 0 0 1 .055-.22c.15-.296.049-.527-.165-.736-.141-.137-.283-.274-.418-.416-.223-.235-.253-.432.13-.494.3-.049.386-.234.4-.511.01-.195.058-.389.1-.58.072-.32-.672-1.302-.988-1.29a.32.32 0 0 0-.204.082c-.25.262-.638.506-.694.81-.08.425.09.899.163 1.35.007.04.092.072.145.096.53.243.53.242.109.654-.087.084-.176.166-.26.253-.222.237-.21 1.42.029 1.631.072.065.185.1.284.113.148.018.3.004.45.004.762.043.762.043.864-.746zm1.598 10.246c.167-.137.444-.25.48-.415.126-.581.383-1.207-.328-1.658-.28-.177-.234-.41.11-.572.136-.064.227-.279.29-.445a1.56 1.56 0 0 0 .102-.575c-.006-.197-.035-.422-.137-.58-.153-.238-.378-.429-.573-.64-.19-.207-.395-.214-.587-.016-.384.392-.962.71-.57 1.426.014.023.007.06.006.09-.017.305.034.561.33.742.076.047.105.374.052.408-.556.356-.589.8-.445 1.422.102.442.226.655.663.667.179.005.358.039.537.059l.07.087zm6.994-6.327c-.207-.161-.323-.287-.466-.342-.049-.02-.247.19-.236.209.085.141.19.282.321.374.037.025.185-.113.381-.241zm.005 2.606c-.212-.148-.335-.268-.48-.316-.05-.016-.238.208-.226.226.094.138.21.272.347.36.034.022.175-.128.359-.27zm.006-5.218c-.214-.164-.344-.29-.499-.365-.042-.02-.159.12-.241.187.122.153.238.314.378.449.014.014.176-.13.362-.27zm-5.373-13.844c.222-.027.456-.018.664-.089.34-.116.59-1.363.32-1.609-.935-.855-.74-1.129-1.725-.023-.02.022-.056.039-.062.064-.047.191-.113.383-.124.577-.007.128.084.258.1.392.084.67.14.72.827.688zm6.697-.163v-.027c.12 0 .24.003.36-.001.533-.018.6-.098.616-.655.005-.161.095-.322.091-.482a1.659 1.659 0 0 0-.115-.603c-.055-.127-.213-.207-.321-.312-.623-.603-.622-.603-1.194.02-.123.133-.254.258-.377.39-.195.212-.053 1.454.19 1.597.086.05.199.062.301.07.149.012.3.003.45.003zm.572 18.492c.353.026.541-.149.553-.53.005-.15-.012-.328.058-.446.231-.39.062-.63-.217-.902-.87-.847-1.083-.838-1.817.167-.057.079-.11.193-.101.285.109 1.292.112 1.292 1.414 1.413.03.002.06.007.11.013zm3.813 2.529c.07-.066.322-.188.365-.362.172-.7.314-1.425-.479-1.888-.062-.036-.1-.11-.152-.166-.222-.242-.446-.28-.693-.027-.19.194-.397.37-.592.558-.222.213-.143 1.514.107 1.692.07.05.164.077.25.086.343.037.686.063 1.194.107zm-7.886-5.842c-.35.895-.35.895-1.25.851-.617-.03-.646-.078-.7-.73-.013-.161-.162-.312-.249-.467-.07.134-.127.277-.212.401-.102.148-.201.35-.347.403-.336.124-.316.273-.116.494.071.079.145.157.225.225.326.28.612.569.296 1.037-.008.012-.007.03-.01.044-.072.265-.107.737-.22.757-.43.075-.887.007-1.333-.013-.04-.002-.08-.04-.113-.07-.279-.255-.277-1.448.002-1.703.056-.052.115-.099.171-.15.453-.406.45-.428-.075-.697-.052-.027-.133-.063-.14-.105-.075-.443-.244-.905-.176-1.326.073-.455.488-.755.93-.911.09-.032.256.064.346.146.2.184.373.398.559.598.348.375.478.373.84-.01.072-.078.146-.155.217-.233.21-.23.416-.21.62.007.145.154.27.336.437.46.143.107.38.252.491.2.212-.103.375-.325.529-.52.022-.029-.11-.203-.192-.286-.109-.11-.308-.177-.347-.302-.103-.326-.15-.673-.194-1.015-.012-.089.05-.207.112-.282.115-.14.256-.257.386-.384.554-.535.55-.529 1.168-.04.104.083.275.114.414.111.403-.008.806-.063 1.209-.065.37-.001.573-.14.565-.534a2.039 2.039 0 0 1 .018-.32c.034-.244.192-.566.093-.717-.228-.347-.559-.637-.892-.891-.089-.069-.393.017-.5.13-.588.616-1.289.316-1.956.292-.028-.001-.055-.024-.08-.04-.321-.216-.404-1.405-.118-1.672.1-.093.209-.178.3-.278.197-.214.21-.425-.092-.53-.32-.113-.405-.333-.377-.64.003-.03.011-.066-.002-.09-.402-.772.23-1.115.629-1.55.197-.214.424-.23.63-.014.259.268.436.351.608-.101.053-.141.348-.252.539-.262.493-.026.99.018 1.487.02.386.003.59-.182.551-.598a1.4 1.4 0 0 1 .018-.317c.03-.215.171-.513.082-.627a4.934 4.934 0 0 0-.984-.922c-.073-.053-.37.125-.504.257-.46.455-.525.471-.972-.005-.255-.272-.491-.43-.848-.138-.124.1-.34.11-.516.116-1.098.03-2.196.042-3.294.078-.162.005-.32.104-.48.16.082.166.126.376.253.49.302.272.572.517.25.947-.025.032-.019.088-.03.132-.068.248-.106.692-.21.708-.462.073-.944.024-1.42.018-.012 0-.026-.014-.037-.023-.234-.191-.257-1.365-.056-1.602.157-.186.271-.41.404-.616-.232-.047-.465-.136-.698-.134-.797.006-1.594.034-2.39.076-.16.008-.313.113-.47.174.078.138.125.315.239.407.282.228.42.46.238.824-.057.113-.05.268-.045.403.009.28-.07.476-.374.527-.406.067-.372.275-.15.53.02.024.038.052.063.066.728.408.488 1.067.424 1.68-.001.015-.003.032-.01.044-.326.533-.841.242-1.273.288-.293.03-.424-.184-.434-.47-.001-.03.007-.064-.004-.09-.258-.64-.061-1.131.472-1.521.068-.05.109-.145.153-.224.02-.037.02-.086.042-.191-.984-.02-.53-.896-.774-1.379-.04-.081.23-.315.343-.489.078-.12.13-.256.193-.384-.142-.056-.285-.163-.425-.16-.903.023-1.804.072-2.706.107-.607.023-.565-.075-.755-.625-.232-.67.102-1.01.464-1.424.24-.276.449-.323.723-.077.246.221.415.174.438-.172.025-.368.223-.51.563-.502.397.01.56-.183.566-.589.011-.791.199-.988.965-1.056.311-.027.456-.172.476-.488.015-.225.116-.45.1-.667-.014-.18-.142-.352-.22-.528-.136.084-.324.136-.396.258-.094.16-.126.374-.131.566-.01.387-.206.552-.562.566-.18.008-.361.007-.542.015-.346.016-.551-.12-.535-.502.002-.045.014-.101-.006-.135-.392-.677.095-1.06.47-1.488.247-.281.475-.28.723-.013.114.122.226.25.358.346.075.055.244.103.28.066.384-.405.88-.247 1.328-.277 3.679-.242 7.359-.467 11.039-.697.6-.038 1.202-.065 1.802-.11.678-.05 1.015.248 1.042.946.027.697.059.727.724.694.135-.007.27-.012.406-.016.768-.024.768-.023.838-.817.004-.046-.002-.1.02-.135.282-.47.356-.866-.306-1.073-.076-.024-.11-.235-.135-.364-.025-.133-.007-.275-.025-.41-.03-.234-.187-.548-.091-.682.277-.39.597-.833 1.005-1.023.556-.26.758.455 1.151.688.206.122.264.303.161.584-.115.316-.142.683-.121 1.022.006.102.304.272.461.264 1.262-.064 2.522-.164 3.783-.252.135-.01.273-.03.405-.013.25.033.332.19.142.369-.274.259-.263.502-.096.813.072.134.057.327.049.491-.019.4.168.556.547.53.376-.025.752-.044 1.128-.054.358-.01.492-.2.517-.55.02-.278.132-.548.166-.827.015-.125-.053-.264-.097-.392-.046-.133-.108-.26-.163-.39.132-.054.26-.142.396-.157.449-.049.9-.064 1.35-.106.408-.038.582.149.581.554-.003 2.138-.004 4.275.001 6.413 0 .419-.172.602-.596.611-3.115.065-6.23.142-9.344.216-.573.014-.686.132-.674.709.002.153-.01.308.014.457.102.653-.116 1.159-.635 1.554-.322.246-.558.528-.223.955.062.079.053.236.04.352-.043.347.07.566.43.617.363.05.394.32.392.613-.008 1.038-.021 2.076-.014 3.114.001.162.098.322.15.483.136-.078.304-.128.402-.24.276-.316.522-.306.792-.003.14.159.29.313.452.448.316.263.559.526.215.945-.05.061-.043.175-.05.265-.047.72-.09.755-.813.733-1.05-.03-1.154-.256-1.147 1.145.02 3.68.011 7.36.014 11.039 0 .624-.15.699-.767.629-1.794-.204-3.593-.362-5.39-.536-.749-.073-1.498-.148-2.247-.208-.425-.034-.638-.23-.587-.678.01-.09.005-.184-.008-.274-.03-.214-.17-.504-.083-.626.227-.313.53-.59.854-.799.103-.066.373.117.558.205.14.066.265.163.397.246.059-.157.168-.315.169-.472.005-1.089-.002-1.089-1.056-1.172-.762-.06-.781-.082-.822-.863a.862.862 0 0 0-.056-.313c-.143-.308-.038-.525.211-.71.097-.071.188-.154.27-.243.201-.22.24-.39-.084-.568-.159-.088-.239-.328-.346-.504-.02-.033 0-.09-.001-.135-.02-.69.05-.864.46-1.449.073-.103.035-.435 0-.443-.469-.106-.53-.435-.503-.836.003-.047-.051-.098-.112-.208zM73.897 37c.06-.431.172-.862.172-1.293.012-9.968.01-19.936.013-29.904 0-.582-.087-.685-.636-.687-1.67-.005-3.34-.005-5.01-.001-.556 0-.66.115-.66.671 0 10.136-.003 20.272.008 30.408 0 .269.158.537.243.806h5.87zm12.63-21.757c0 1.525-.002 3.051 0 4.577 0 .515.1.632.599.633 2.03.002 4.061.035 6.09-.031.703-.023 1.435-.213 2.091-.483 1.342-.55 2.155-1.638 2.513-3.039.433-1.696.267-3.335-.707-4.825-.953-1.457-2.395-1.99-4.032-2.031-1.969-.048-3.94-.03-5.91-.032-.523 0-.647.152-.646.7l.001 4.53zM80.398 37c-.036-.362-.102-.724-.102-1.087-.007-10.028-.007-20.056-.01-30.085 0-.654.057-.716.681-.715 3.882.002 7.764.012 11.646 0 2.053-.007 4.056.256 5.945 1.105 2.242 1.007 3.956 2.593 4.918 4.918 1.04 2.514 1.058 5.1.235 7.655-.715 2.222-2.205 3.858-4.207 5-2.021 1.155-4.225 1.55-6.513 1.556-1.881.006-3.762 0-5.642 0-.762-.001-.824.067-.823.83.006 3.343.012 6.685.003 10.028 0 .265-.112.53-.171.795h-5.96zm41.63 0c.376-.102.746-.248 1.128-.3 1.382-.187 2.714-.545 3.972-1.156 1.534-.745 2.848-1.763 3.756-3.253 1.12-1.838 1.299-3.854.963-5.921-.312-1.918-1.24-3.512-2.724-4.766-2.165-1.829-4.727-2.816-7.375-3.625-1.658-.506-3.288-1.084-4.81-1.936-.651-.366-1.238-.827-1.594-1.511-.75-1.442-.392-3.215.941-4.28 1.834-1.465 3.94-1.402 6.067-.901.54.127 1.067.425 1.528.75 1.13.798 1.685 1.958 1.825 3.33.032.315.136.536.482.536 1.716.001 3.431.001 5.147-.004.367-.002.55-.191.528-.579-.098-1.695-.533-3.276-1.546-4.657-1.71-2.331-4.03-3.716-6.804-4.219-3.492-.633-6.941-.457-10.15 1.29-3.365 1.832-5.064 4.614-4.553 8.599.243 1.892 1.101 3.441 2.551 4.637 2.175 1.793 4.739 2.804 7.366 3.667 1.629.535 3.292.972 4.797 1.839.815.47 1.536 1.06 1.887 1.962.99 2.543-.329 4.777-2.945 5.348-1.417.308-2.849.271-4.26-.025-1.36-.284-2.568-.87-3.38-2.089-.505-.757-.686-1.618-.766-2.507-.032-.354-.122-.646-.539-.647-1.7-.004-3.4-.004-5.102.004-.38.002-.571.207-.553.613.125 2.891 1.247 5.243 3.614 6.932a14.338 14.338 0 0 0 6.312 2.543c.425.063.839.215 1.258.326h2.98zM44.628 14.635v3.936c-.002.591.117.72.717.721 1.443.003 2.887.018 4.33-.01a17.05 17.05 0 0 0 2.107-.184c1.77-.257 3.125-1.35 3.42-3.356.253-1.719-.04-3.29-1.349-4.527-.946-.896-2.143-1.144-3.379-1.174-1.728-.042-3.457-.027-5.186-.03-.529 0-.66.15-.66.689v3.935zM38.497 37c-.034-.393-.097-.786-.097-1.179-.007-10-.007-20-.01-30 0-.653.054-.709.687-.708 3.657.002 7.314.013 10.97-.002 1.805-.007 3.582.174 5.294.761 2.72.934 4.81 2.616 5.711 5.471.693 2.195.825 4.47-.326 6.542-.7 1.259-1.695 2.36-2.634 3.467-.494.581-1.137 1.038-1.738 1.518-.53.423-.566.414-.236 1.03 1.02 1.902 2.046 3.8 3.088 5.689 1.13 2.048 2.281 4.085 3.425 6.126.097.172.246.324.302.507.077.248.088.518.127.778h-6.141c-.158-.31-.319-.617-.473-.929-.539-1.088-1.077-2.177-1.613-3.267-.783-1.595-1.562-3.192-2.348-4.785-.57-1.158-1.134-2.32-1.738-3.46-.097-.182-.39-.362-.594-.366-1.64-.029-3.28-.02-4.92-.013-.506.002-.605.114-.604.626.002 3.755.01 7.51 0 11.264 0 .31-.112.62-.172.93h-5.96z"/>
</svg>
