<svg xmlns="http://www.w3.org/2000/svg" width="90" height="44" viewBox="0 0 90 44">
    <path fill="#0874C1" fill-rule="evenodd" d="M67.607 32.861l-3.422-.002c-.47 0-.472 0-.473-.46-.001-2.316 0-4.63-.002-6.945 0-.09.015-.19-.019-.267-.03-.069-.115-.148-.184-.157-.172-.023-.35-.008-.56-.008v2.847c0 .948-.005 1.897 0 2.845.005.931-.022 1.864.012 2.79h4.887v-.621c-.108-.01-.174-.022-.24-.022zm1.818.667l3.896-.003c.192 0 .384-.001.576.007.17.008.253-.07.26-.235.002-.068 0-.136 0-.203 0-.149-.064-.236-.223-.233h-.203c-1.107 0-2.214 0-3.32-.003-.13 0-.26-.022-.404-.035v-.47l.003-6.946c0-.056.003-.113-.002-.17-.01-.13-.075-.21-.213-.212h-.59v8.47c.09.014.155.033.22.033zm18.727-8.118c-.012-.372-.023-.378-.384-.378-1.887.002-3.775.002-5.662 0-.592 0-.595 0-.508.639.126.009.258.025.39.026.668.003 1.334.002 2 .003.467.001.472.002.472.46 0 2.068-.004 4.136-.007 6.204 0 .294-.01.588-.006.881.003.222.066.277.286.28.145.003.29 0 .47 0 .01-.173.025-.327.025-.481.001-2.306 0-4.611.002-6.917 0-.13.014-.26.023-.44h2.899c0-.144.002-.21 0-.277zm-28.35 5.056l-1.541-4.152c-.014-.036-.055-.062-.128-.142-.274.748-.528 1.453-.79 2.155-.261.7-.532 1.397-.78 2.139H59.8zm1.913 3.035h-.754c-.069-.155-.155-.324-.221-.5-.187-.496-.361-.996-.548-1.492-.135-.357-.144-.358-.513-.358l-3.014.004c-.352 0-.353.002-.48.336-.227.6-.457 1.2-.677 1.803-.06.163-.152.242-.324.234-.165-.008-.33-.013-.537-.02.04-.167.057-.3.102-.42.28-.751.566-1.5.852-2.248.31-.81.624-1.62.933-2.431.378-.99.755-1.98 1.127-2.972.145-.387.397-.532.772-.394.086.031.163.15.2.245.501 1.304.993 2.612 1.49 3.918.526 1.38 1.055 2.758 1.581 4.138.012.03.006.065.011.157zm19.045-.181c.04-.435.013-.459-.42-.458-1.208.002-2.417.001-3.626-.002-.142 0-.284-.024-.44-.038v-3.304c1.31-.06 2.603.011 3.892-.044v-.663h-.359c-1.073-.001-2.146 0-3.22-.004-.105 0-.211-.022-.308-.032-.068-.674-.037-2.82.05-3.062 1.45-.064 2.914.037 4.382-.035v-.627c-.085-.012-.14-.026-.194-.026l-3.965.005c-.293 0-.587.001-.88-.004-.154-.002-.234.062-.233.22v.168c-.002 2.587-.002 5.174-.002 7.761 0 .329.021.349.341.349l4.406-.002h.53c.023-.095.041-.148.046-.202zm-36.228-7.602c.219.839.445 1.676.663 2.516.15.578.286 1.16.435 1.738.216.84.432 1.68.659 2.517.093.344.103.716.336 1.04h.433c.17.002.266-.072.315-.242.128-.443.275-.88.406-1.322.296-1.005.586-2.012.88-3.018.214-.735.428-1.47.645-2.205.03-.101.079-.197.119-.296.165.384.276.758.382 1.134.142.499.274 1 .42 1.499.213.725.437 1.446.651 2.17.202.681.397 1.364.593 2.046.046.161.132.26.315.234.056-.008.113-.004.17-.004.284 0 .359-.05.428-.318.273-1.058.544-2.116.813-3.175.214-.841.423-1.684.638-2.525.183-.72.375-1.438.556-2.159.024-.098.003-.208.003-.32-.203 0-.371.003-.54 0-.15-.004-.213.069-.248.214-.234.965-.475 1.927-.717 2.89-.159.634-.33 1.266-.481 1.903-.16.668-.301 1.34-.453 2.01-.008.035-.04.065-.086.135-.055-.134-.103-.223-.129-.317-.103-.38-.19-.764-.299-1.143-.21-.736-.432-1.469-.645-2.205-.153-.53-.295-1.064-.45-1.594-.162-.551-.338-1.099-.5-1.65-.052-.18-.149-.27-.342-.244-.055.008-.113.005-.169-.002-.18-.024-.275.064-.32.228l-.15.519-.744 2.565c-.35 1.213-.697 2.427-1.048 3.639-.01.035-.05.06-.121.144-.13-.517-.248-.978-.36-1.44-.115-.471-.22-.944-.336-1.414-.119-.482-.246-.961-.37-1.442l-.36-1.409c-.12-.464-.187-.945-.384-1.37h-.753c.055.259.092.468.145.673zM46 13.078c0 2.575 0 5.15.002 7.725 0 .13.015.26.023.402.112.011.189.025.266.026.542.002 1.084.005 1.626 0 .326-.002.365-.05.364-.377l-.004-8.165c0-.076.016-.152.03-.273 1.088-.024 2.166.007 3.28-.02v-1.258c-.001-.562-.002-.562-.553-.562l-7.59-.002c-.169 0-.338.002-.507.004-.123 0-.191.065-.192.187-.002.528 0 1.056 0 1.626 1.08.04 2.136-.009 3.255.03v.657zm35.185-.677l3.17.011c.01.146.022.245.022.344.002.892.001 1.785.001 2.677 0 1.82.001 3.638.003 5.457 0 .323.012.336.35.34.508.007 1.017.008 1.525.004.439-.003.439-.008.44-.462l.003-7.965c0-.12.011-.24.019-.38.178-.008.322-.02.466-.02.814-.003 1.627-.002 2.44-.005.108 0 .214-.015.343-.025v-1.562c0-.17-.08-.249-.25-.24-.045.002-.09 0-.136 0-2.677.001-5.355.001-8.032.003-.122 0-.244.012-.356.018-.087.275-.095 1.48-.008 1.805zm-9.14 5.633c-.043.731.24 1.346.7 1.888.593.701 1.383 1.107 2.254 1.288 1.184.245 2.379.237 3.532-.212.538-.21.994-.54 1.338-1.005.377-.51.505-1.087.486-1.722-.022-.726-.272-1.34-.765-1.862-.55-.582-1.261-.907-1.99-1.19-.535-.208-1.091-.364-1.634-.555-.385-.136-.759-.3-1.05-.601-.374-.388-.372-.956.006-1.337.263-.266.582-.429.962-.44.282-.008.566-.015.847-.002.687.031 1.24.553 1.32 1.232.009.065.027.128.039.184.357.086 1.983.075 2.236-.014.08-.427-.054-.824-.221-1.205-.312-.712-.847-1.217-1.532-1.569-.766-.393-1.588-.483-2.434-.466-.923.018-1.788.232-2.568.738-1.437.933-1.656 2.837-.482 4.077.478.506 1.068.835 1.695 1.094.572.236 1.171.405 1.752.623.326.122.645.268.953.43.444.233.582.635.552 1.11-.029.467-.313.734-.72.894-.59.232-1.183.224-1.793.05-.694-.196-1.12-.596-1.179-1.341-.024-.294-.05-.31-.364-.312-.577-.004-1.153-.002-1.73 0-.054 0-.108.013-.173.022-.015.075-.034.139-.038.203zm-1.34-6.78c0-.147-.003-.294-.002-.441.001-.172-.085-.24-.253-.238-.587.003-1.175-.006-1.762.002-.272.004-.302.049-.302.325l-.002 3.694c0 1.096.017 2.192-.006 3.287-.02.902-.514 1.48-1.38 1.618-.387.062-.764.035-1.14-.056-.526-.127-1.027-.523-1.118-1.216-.056-.423-.067-.855-.068-1.282-.007-1.989-.002-3.977-.005-5.965 0-.38-.026-.403-.405-.406-.463-.003-.926 0-1.39 0-.505 0-.509.001-.509.506-.001 2.101-.001 4.202.001 6.303.001.508.03 1.01.188 1.503.197.61.522 1.124 1.015 1.53.589.484 1.26.787 2.02.87.903.1 1.794.104 2.677-.183 1.442-.469 2.46-1.78 2.444-3.412-.01-1.073-.002-2.147-.002-3.22v-3.22zm-15.588 4.243c.728 0 1.418.043 2.099-.012.733-.06 1.228-.554 1.302-1.212.028-.254.022-.523-.032-.772-.09-.412-.317-.747-.733-.908-.35-.134-.708-.212-1.09-.193-.393.02-.789.005-1.183.01-.12.001-.239.018-.363.029v3.058zm3.843 1.308l.91 1.706 1.265 2.358c.022.04.05.078.063.12.044.139-.002.21-.15.233-.033.005-.068.004-.102.004-.621.002-1.243 0-1.864.01-.18.002-.292-.06-.374-.224-.224-.443-.46-.88-.692-1.32-.381-.718-.764-1.435-1.142-2.154-.064-.123-.146-.19-.29-.189-.418.003-.836.002-1.254-.002-.154-.002-.234.058-.232.217v3.287c0 .35-.016.374-.354.378-.542.007-1.084.005-1.626.002-.099 0-.197-.02-.315-.033-.006-.125-.014-.225-.014-.324l-.001-9.897v-.034c.002-.357.005-.365.354-.366.972-.002 1.943-.006 2.915 0 .542.004 1.086-.004 1.624.05.98.1 1.87.424 2.53 1.21.349.417.559.902.596 1.444.027.392.05.793-.003 1.18-.086.64-.351 1.215-.849 1.65-.22.192-.47.348-.71.518-.08.057-.17.105-.285.176zM3.32 8.37c-.01.086-.024.151-.022.216.013.565.026 1.129.044 1.693.054 1.727.073 3.456.208 5.18.097 1.238.173 2.477.258 3.715.012.18.018.361.035.541.054.596.102 1.193.171 1.787.06.515.143 1.027.218 1.54.047.323.1.645.149.967.058.378.1.76.176 1.134.107.53.236 1.055.359 1.582.306 1.31.724 2.58 1.33 3.789.687 1.369 1.647 2.505 2.839 3.453 1.1.875 2.303 1.592 3.518 2.29.93.535 1.869 1.053 2.79 1.6 1.04.617 2.066 1.255 3.093 1.892.178.11.308.102.49-.008 1.566-.945 3.136-1.885 4.713-2.812 1.363-.801 2.749-1.563 4.05-2.468 2.027-1.413 3.409-3.295 4.21-5.622.35-1.015.634-2.047.845-3.099.161-.807.328-1.614.445-2.428.136-.948.225-1.903.327-2.856.08-.74.166-1.48.216-2.223.066-.958.097-1.917.147-2.876.04-.766.095-1.532.129-2.299.037-.835.06-1.67.085-2.506.02-.643.036-1.286.048-1.93.005-.254-.015-.27-.262-.285-.136-.008-.272-.002-.407-.01-.8-.041-1.605-.05-2.4-.139-.794-.088-1.58-.248-2.368-.39-.53-.097-1.061-.202-1.586-.329-1.13-.274-2.239-.617-3.317-1.053-.554-.224-1.109-.45-1.648-.708-1.141-.548-2.245-1.165-3.278-1.901-.147-.105-.256-.092-.393.01-.198.15-.407.287-.617.42-.812.513-1.648.98-2.514 1.399-1.007.486-2.04.906-3.103 1.253-.46.15-.926.28-1.391.412-.444.126-.886.266-1.337.36-.63.13-1.265.23-1.9.33-.545.086-1.091.18-1.64.222-.845.064-1.693.085-2.539.125-.044.002-.088.016-.17.032zm34.166.79c-.04.776-.1 1.813-.142 2.85-.035.836-.033 1.673-.075 2.508-.05.98-.13 1.959-.193 2.938-.05.755-.094 1.51-.14 2.265-.003.045 0 .091-.005.136-.083.717-.164 1.434-.25 2.151-.093.795-.186 1.59-.289 2.382-.038.29-.103.576-.16.863-.13.652-.237 1.31-.396 1.956-.395 1.6-.878 3.173-1.614 4.656-.71 1.43-1.647 2.69-2.806 3.794-.996.949-2.097 1.753-3.273 2.455-1.386.827-2.798 1.61-4.184 2.439-1.406.84-2.796 1.707-4.188 2.57-.35.217-.698.39-1.134.365-.335-.019-.613-.15-.88-.317-.91-.567-1.804-1.161-2.722-1.716-.985-.596-1.988-1.163-2.987-1.736-1.548-.888-3.112-1.75-4.543-2.826-.986-.741-1.886-1.578-2.665-2.542-.99-1.226-1.707-2.598-2.26-4.066-.426-1.133-.76-2.29-1.008-3.473-.129-.617-.235-1.24-.342-1.86-.128-.744-.252-1.489-.367-2.234-.052-.335-.08-.673-.112-1.01-.098-1.034-.211-2.066-.284-3.102-.151-2.152-.264-4.305-.335-6.462C.072 10.349.043 8.554 0 6.758c-.024-1.01.79-1.713 1.704-1.705.949.008 1.9.015 2.847-.034.866-.044 1.733-.14 2.593-.26.703-.098 1.403-.24 2.093-.41.788-.195 1.574-.408 2.34-.674 1.292-.448 2.542-.997 3.727-1.69.82-.48 1.617-.994 2.358-1.59.592-.475 1.517-.473 2.099-.017 1.283 1.008 2.68 1.84 4.168 2.512 1.103.498 2.23.93 3.406 1.224.656.164 1.313.328 1.975.463 1.074.219 2.16.364 3.254.414 1.037.047 2.077.059 3.116.063.807.003 1.394.324 1.705 1.084.058.142.094.303.096.455.01.768.004 1.537.004 2.568z"/>
</svg>
