<?xml version="1.0" encoding="UTF-8"?>
<svg xmlns="http://www.w3.org/2000/svg" width="640" height="640">

			<g class="color1" transform="scale(10)">
				<path style="fill:#4B3F80;stroke:#FFFFFF;stroke-width:2" d="M29.9,58.7L3.2,32c-1.3-1.3-1.3-3.4,0-4.7
					L25.1,5.3c0,0,4.3,5.1,8.4,0.9c2,8.7,11.4,4.7,11.4,4.7l16.3,16.3c1.3,1.3,1.3,3.4,0,4.7L34.6,58.7C33.3,60,31.2,60,29.9,58.7z"/>
				<path style="fill:#FFFFFF;stroke:none" d="M11.7,22.6h3.4c0.7,0,1.2,0,1.5,0.1c0.3,0.1,0.6,0.2,0.9,0.4c0.3,0.2,0.5,0.4,0.7,0.7
					c0.2,0.3,0.3,0.6,0.3,1c0,0.4-0.1,0.8-0.3,1.1c-0.2,0.3-0.5,0.6-0.9,0.8c0.5,0.2,0.9,0.4,1.2,0.8c0.3,0.4,0.4,0.8,0.4,1.3
					c0,0.4-0.1,0.8-0.3,1.1c-0.2,0.4-0.4,0.7-0.7,0.9c-0.3,0.2-0.7,0.4-1.2,0.4c-0.3,0-1,0.1-2.1,0.1h-2.9V22.6z M13.4,24v2h1.1
					c0.7,0,1.1,0,1.3,0c0.3,0,0.5-0.1,0.7-0.3c0.2-0.2,0.3-0.4,0.3-0.7c0-0.3-0.1-0.5-0.2-0.6c-0.1-0.2-0.4-0.3-0.7-0.3
					c-0.2,0-0.7,0-1.5,0H13.4z M13.4,27.4v2.3H15c0.6,0,1,0,1.2-0.1c0.3,0,0.5-0.2,0.6-0.3c0.2-0.2,0.2-0.4,0.2-0.7
					c0-0.3-0.1-0.5-0.2-0.7c-0.1-0.2-0.3-0.3-0.5-0.4c-0.2-0.1-0.7-0.1-1.5-0.1H13.4z"/>
				<path style="fill:#FFFFFF;stroke:none" d="M20.4,31.1v-8.5h1.7v7h4.3v1.4H20.4z"/>
				<path style="fill:#FFFFFF;stroke:none" d="M27.3,26.9c0-0.9,0.1-1.6,0.4-2.2c0.2-0.4,0.5-0.8,0.8-1.2c0.3-0.3,0.7-0.6,1.1-0.8
					c0.5-0.2,1.1-0.3,1.8-0.3c1.3,0,2.3,0.4,3,1.2c0.8,0.8,1.1,1.9,1.1,3.3c0,1.4-0.4,2.5-1.1,3.2c-0.8,0.8-1.8,1.2-3,1.2
					c-1.3,0-2.3-0.4-3-1.2C27.7,29.3,27.3,28.2,27.3,26.9z M29.1,26.8c0,1,0.2,1.7,0.7,2.2c0.4,0.5,1,0.8,1.7,0.8
					c0.7,0,1.3-0.2,1.7-0.7c0.4-0.5,0.7-1.2,0.7-2.2c0-1-0.2-1.7-0.6-2.2c-0.4-0.5-1-0.7-1.7-0.7s-1.3,0.2-1.7,0.7
					C29.3,25.1,29.1,25.8,29.1,26.8z"/>
				<path style="fill:#FFFFFF;stroke:none" d="M42.4,28l1.7,0.5c-0.3,0.9-0.7,1.6-1.3,2.1c-0.6,0.5-1.4,0.7-2.3,0.7c-1.1,0-2.1-0.4-2.8-1.2
					c-0.7-0.8-1.1-1.8-1.1-3.2c0-1.4,0.4-2.5,1.1-3.3c0.7-0.8,1.7-1.2,2.9-1.2c1,0,1.9,0.3,2.6,0.9c0.4,0.4,0.7,0.9,0.9,1.6l-1.7,0.4
					c-0.1-0.4-0.3-0.8-0.6-1.1c-0.3-0.3-0.7-0.4-1.2-0.4c-0.6,0-1.1,0.2-1.5,0.7c-0.4,0.5-0.6,1.2-0.6,2.2c0,1.1,0.2,1.9,0.6,2.3
					s0.9,0.7,1.5,0.7c0.5,0,0.9-0.1,1.2-0.4C42,29.1,42.3,28.6,42.4,28z"/>
				<path style="fill:#FFFFFF;stroke:none" d="M45.6,31.1v-8.6h1.7v3.8l3.5-3.8h2.3l-3.2,3.3l3.4,5.2h-2.2l-2.4-4l-1.4,1.4v2.6H45.6z"/>
				<path style="fill:#FFFFFF;stroke:none" d="M17.4,43.1l1.1-5.4h-0.9l0.2-0.8h0.9l0.2-0.9c0.1-0.4,0.2-0.8,0.3-1c0.1-0.2,0.3-0.4,0.5-0.5
					c0.2-0.1,0.5-0.2,0.9-0.2c0.3,0,0.7,0.1,1.2,0.2l-0.2,0.9c-0.4-0.1-0.7-0.1-0.9-0.1c-0.2,0-0.4,0.1-0.5,0.2
					c-0.1,0.1-0.2,0.3-0.3,0.7l-0.1,0.7h1.2l-0.2,0.8h-1.2l-1.1,5.4H17.4z"/>
				<path style="fill:#FFFFFF;stroke:none" d="M23.2,40.7c0-1.2,0.4-2.2,1.1-3c0.6-0.7,1.4-1,2.3-1c0.7,0,1.3,0.2,1.8,0.7c0.5,0.5,0.7,1.1,0.7,1.9
					c0,0.7-0.1,1.4-0.4,2c-0.3,0.6-0.7,1.1-1.2,1.4c-0.5,0.3-1.1,0.5-1.7,0.5c-0.5,0-0.9-0.1-1.3-0.3c-0.4-0.2-0.7-0.5-0.9-0.9
					C23.3,41.7,23.2,41.2,23.2,40.7z M24.2,40.6c0,0.6,0.1,1,0.4,1.3c0.3,0.3,0.6,0.5,1.1,0.5c0.2,0,0.4,0,0.7-0.1
					c0.2-0.1,0.4-0.2,0.6-0.4c0.2-0.2,0.4-0.4,0.5-0.6c0.1-0.2,0.2-0.5,0.3-0.8c0.1-0.4,0.2-0.8,0.2-1.1c0-0.6-0.1-1-0.4-1.3
					c-0.3-0.3-0.6-0.5-1.1-0.5c-0.3,0-0.6,0.1-0.9,0.2c-0.3,0.2-0.5,0.4-0.7,0.7s-0.4,0.7-0.5,1.1C24.3,39.9,24.2,40.3,24.2,40.6z"/>
				<path style="fill:#FFFFFF;stroke:none" d="M32.2,40.7c0-1.2,0.4-2.2,1.1-3c0.6-0.7,1.4-1,2.3-1c0.7,0,1.3,0.2,1.8,0.7s0.7,1.1,0.7,1.9
					c0,0.7-0.1,1.4-0.4,2c-0.3,0.6-0.7,1.1-1.2,1.4c-0.5,0.3-1.1,0.5-1.7,0.5c-0.5,0-0.9-0.1-1.3-0.3c-0.4-0.2-0.7-0.5-0.9-0.9
					C32.3,41.7,32.2,41.2,32.2,40.7z M33.3,40.6c0,0.6,0.1,1,0.4,1.3c0.3,0.3,0.6,0.5,1.1,0.5c0.2,0,0.4,0,0.7-0.1
					c0.2-0.1,0.4-0.2,0.6-0.4s0.4-0.4,0.5-0.6c0.1-0.2,0.2-0.5,0.3-0.8C37,40,37,39.7,37,39.3c0-0.6-0.1-1-0.4-1.3
					c-0.3-0.3-0.6-0.5-1.1-0.5c-0.3,0-0.6,0.1-0.9,0.2c-0.3,0.2-0.5,0.4-0.7,0.7s-0.4,0.7-0.5,1.1C33.3,39.9,33.3,40.3,33.3,40.6z"/>
				<path style="fill:#FFFFFF;stroke:none" d="M45.2,42.2c-0.6,0.7-1.2,1-1.9,1c-0.6,0-1.1-0.2-1.5-0.7c-0.4-0.4-0.6-1.1-0.6-1.9
					c0-0.8,0.2-1.4,0.5-2.1c0.3-0.6,0.7-1.1,1.2-1.4c0.5-0.3,0.9-0.5,1.4-0.5c0.8,0,1.4,0.4,1.7,1.1l0.7-3.3h1.1L46,43.1h-1L45.2,42.2z
					 M42.3,40.5c0,0.4,0,0.8,0.1,1s0.2,0.5,0.4,0.6c0.2,0.2,0.5,0.2,0.7,0.2c0.5,0,0.9-0.2,1.3-0.7c0.5-0.7,0.8-1.5,0.8-2.5
					c0-0.5-0.1-0.9-0.4-1.2s-0.6-0.4-1-0.4c-0.3,0-0.5,0.1-0.7,0.2s-0.4,0.3-0.6,0.6c-0.2,0.3-0.4,0.6-0.5,1S42.3,40.2,42.3,40.5z"/>
			</g>
		
</svg>