<?xml version="1.0" encoding="UTF-8" standalone="no"?>
<svg width="182px" height="49px" viewBox="0 0 182 49" version="1.1" xmlns="http://www.w3.org/2000/svg" xmlns:xlink="http://www.w3.org/1999/xlink" xmlns:sketch="http://www.bohemiancoding.com/sketch/ns">
    <!-- Generator: Sketch 3.4 (15575) - http://www.bohemiancoding.com/sketch -->
    <title>logo-reverse</title>
    <desc>Created with Sketch.</desc>
    <defs>
        <filter x="-50%" y="-50%" width="200%" height="200%" filterUnits="objectBoundingBox" id="filter-1">
            <feOffset dx="0" dy="2" in="SourceAlpha" result="shadowOffsetOuter1"></feOffset>
            <feGaussianBlur stdDeviation="2" in="shadowOffsetOuter1" result="shadowBlurOuter1"></feGaussianBlur>
            <feColorMatrix values="0 0 0 0 0   0 0 0 0 0   0 0 0 0 0  0 0 0 0.35 0" in="shadowBlurOuter1" type="matrix" result="shadowMatrixOuter1"></feColorMatrix>
            <feMerge>
                <feMergeNode in="shadowMatrixOuter1"></feMergeNode>
                <feMergeNode in="SourceGraphic"></feMergeNode>
            </feMerge>
        </filter>
        <filter x="-50%" y="-50%" width="200%" height="200%" filterUnits="objectBoundingBox" id="filter-2">
            <feOffset dx="0" dy="2" in="SourceAlpha" result="shadowOffsetOuter1"></feOffset>
            <feGaussianBlur stdDeviation="2" in="shadowOffsetOuter1" result="shadowBlurOuter1"></feGaussianBlur>
            <feColorMatrix values="0 0 0 0 0   0 0 0 0 0   0 0 0 0 0  0 0 0 0.35 0" in="shadowBlurOuter1" type="matrix" result="shadowMatrixOuter1"></feColorMatrix>
            <feMerge>
                <feMergeNode in="shadowMatrixOuter1"></feMergeNode>
                <feMergeNode in="SourceGraphic"></feMergeNode>
            </feMerge>
        </filter>
        <filter x="-50%" y="-50%" width="200%" height="200%" filterUnits="objectBoundingBox" id="filter-3">
            <feOffset dx="0" dy="2" in="SourceAlpha" result="shadowOffsetOuter1"></feOffset>
            <feGaussianBlur stdDeviation="2" in="shadowOffsetOuter1" result="shadowBlurOuter1"></feGaussianBlur>
            <feColorMatrix values="0 0 0 0 0   0 0 0 0 0   0 0 0 0 0  0 0 0 0.35 0" in="shadowBlurOuter1" type="matrix" result="shadowMatrixOuter1"></feColorMatrix>
            <feMerge>
                <feMergeNode in="shadowMatrixOuter1"></feMergeNode>
                <feMergeNode in="SourceGraphic"></feMergeNode>
            </feMerge>
        </filter>
        <filter x="-50%" y="-50%" width="200%" height="200%" filterUnits="objectBoundingBox" id="filter-4">
            <feOffset dx="0" dy="2" in="SourceAlpha" result="shadowOffsetOuter1"></feOffset>
            <feGaussianBlur stdDeviation="2" in="shadowOffsetOuter1" result="shadowBlurOuter1"></feGaussianBlur>
            <feColorMatrix values="0 0 0 0 0   0 0 0 0 0   0 0 0 0 0  0 0 0 0.35 0" in="shadowBlurOuter1" type="matrix" result="shadowMatrixOuter1"></feColorMatrix>
            <feMerge>
                <feMergeNode in="shadowMatrixOuter1"></feMergeNode>
                <feMergeNode in="SourceGraphic"></feMergeNode>
            </feMerge>
        </filter>
        <filter x="-50%" y="-50%" width="200%" height="200%" filterUnits="objectBoundingBox" id="filter-5">
            <feOffset dx="0" dy="2" in="SourceAlpha" result="shadowOffsetOuter1"></feOffset>
            <feGaussianBlur stdDeviation="2" in="shadowOffsetOuter1" result="shadowBlurOuter1"></feGaussianBlur>
            <feColorMatrix values="0 0 0 0 0   0 0 0 0 0   0 0 0 0 0  0 0 0 0.35 0" in="shadowBlurOuter1" type="matrix" result="shadowMatrixOuter1"></feColorMatrix>
            <feMerge>
                <feMergeNode in="shadowMatrixOuter1"></feMergeNode>
                <feMergeNode in="SourceGraphic"></feMergeNode>
            </feMerge>
        </filter>
        <filter x="-50%" y="-50%" width="200%" height="200%" filterUnits="objectBoundingBox" id="filter-6">
            <feOffset dx="0" dy="2" in="SourceAlpha" result="shadowOffsetOuter1"></feOffset>
            <feGaussianBlur stdDeviation="2" in="shadowOffsetOuter1" result="shadowBlurOuter1"></feGaussianBlur>
            <feColorMatrix values="0 0 0 0 0   0 0 0 0 0   0 0 0 0 0  0 0 0 0.35 0" in="shadowBlurOuter1" type="matrix" result="shadowMatrixOuter1"></feColorMatrix>
            <feMerge>
                <feMergeNode in="shadowMatrixOuter1"></feMergeNode>
                <feMergeNode in="SourceGraphic"></feMergeNode>
            </feMerge>
        </filter>
        <filter x="-50%" y="-50%" width="200%" height="200%" filterUnits="objectBoundingBox" id="filter-7">
            <feOffset dx="0" dy="2" in="SourceAlpha" result="shadowOffsetOuter1"></feOffset>
            <feGaussianBlur stdDeviation="2" in="shadowOffsetOuter1" result="shadowBlurOuter1"></feGaussianBlur>
            <feColorMatrix values="0 0 0 0 0   0 0 0 0 0   0 0 0 0 0  0 0 0 0.35 0" in="shadowBlurOuter1" type="matrix" result="shadowMatrixOuter1"></feColorMatrix>
            <feMerge>
                <feMergeNode in="shadowMatrixOuter1"></feMergeNode>
                <feMergeNode in="SourceGraphic"></feMergeNode>
            </feMerge>
        </filter>
        <filter x="-50%" y="-50%" width="200%" height="200%" filterUnits="objectBoundingBox" id="filter-8">
            <feOffset dx="0" dy="2" in="SourceAlpha" result="shadowOffsetOuter1"></feOffset>
            <feGaussianBlur stdDeviation="2" in="shadowOffsetOuter1" result="shadowBlurOuter1"></feGaussianBlur>
            <feColorMatrix values="0 0 0 0 0   0 0 0 0 0   0 0 0 0 0  0 0 0 0.35 0" in="shadowBlurOuter1" type="matrix" result="shadowMatrixOuter1"></feColorMatrix>
            <feMerge>
                <feMergeNode in="shadowMatrixOuter1"></feMergeNode>
                <feMergeNode in="SourceGraphic"></feMergeNode>
            </feMerge>
        </filter>
        <filter x="-50%" y="-50%" width="200%" height="200%" filterUnits="objectBoundingBox" id="filter-9">
            <feOffset dx="0" dy="2" in="SourceAlpha" result="shadowOffsetOuter1"></feOffset>
            <feGaussianBlur stdDeviation="2" in="shadowOffsetOuter1" result="shadowBlurOuter1"></feGaussianBlur>
            <feColorMatrix values="0 0 0 0 0   0 0 0 0 0   0 0 0 0 0  0 0 0 0.35 0" in="shadowBlurOuter1" type="matrix" result="shadowMatrixOuter1"></feColorMatrix>
            <feMerge>
                <feMergeNode in="shadowMatrixOuter1"></feMergeNode>
                <feMergeNode in="SourceGraphic"></feMergeNode>
            </feMerge>
        </filter>
        <filter x="-50%" y="-50%" width="200%" height="200%" filterUnits="objectBoundingBox" id="filter-10">
            <feOffset dx="0" dy="2" in="SourceAlpha" result="shadowOffsetOuter1"></feOffset>
            <feGaussianBlur stdDeviation="2" in="shadowOffsetOuter1" result="shadowBlurOuter1"></feGaussianBlur>
            <feColorMatrix values="0 0 0 0 0   0 0 0 0 0   0 0 0 0 0  0 0 0 0.35 0" in="shadowBlurOuter1" type="matrix" result="shadowMatrixOuter1"></feColorMatrix>
            <feMerge>
                <feMergeNode in="shadowMatrixOuter1"></feMergeNode>
                <feMergeNode in="SourceGraphic"></feMergeNode>
            </feMerge>
        </filter>
        <filter x="-50%" y="-50%" width="200%" height="200%" filterUnits="objectBoundingBox" id="filter-11">
            <feOffset dx="0" dy="2" in="SourceAlpha" result="shadowOffsetOuter1"></feOffset>
            <feGaussianBlur stdDeviation="2" in="shadowOffsetOuter1" result="shadowBlurOuter1"></feGaussianBlur>
            <feColorMatrix values="0 0 0 0 0   0 0 0 0 0   0 0 0 0 0  0 0 0 0.35 0" in="shadowBlurOuter1" type="matrix" result="shadowMatrixOuter1"></feColorMatrix>
            <feMerge>
                <feMergeNode in="shadowMatrixOuter1"></feMergeNode>
                <feMergeNode in="SourceGraphic"></feMergeNode>
            </feMerge>
        </filter>
    </defs>
    <g id="Page-1" stroke="none" stroke-width="1" fill="none" fill-rule="evenodd" sketch:type="MSPage">
        <g id="mockup/homepage-concept-1-copy" sketch:type="MSArtboardGroup" transform="translate(-224.000000, -20.000000)">
            <g id="header" sketch:type="MSLayerGroup">
                <g id="logo-reverse" transform="translate(224.000000, 21.800000)" sketch:type="MSShapeGroup">
                    <g id="Group">
                        <g id="Group-7">
                            <path d="M40.3087655,12.8098746 C39.3796923,10.6296358 38.096927,8.64560597 36.4904705,6.89915821 L36.3973105,7.34799403 L36.3035189,7.79933731 L35.8639303,9.91406866 L35.7628754,10.4014567 L35.65961,10.8973075 C37.634601,13.7404567 38.7910477,17.1866507 38.7910477,20.9011433 C38.7910477,30.6470239 30.8307663,38.5474119 21.0113912,38.5474119 C19.0604006,38.5474119 17.1826749,38.2352328 15.426215,37.6588299 C15.3791613,37.7738597 15.3292655,37.887009 15.2762116,37.9979642 C15.2225262,38.1108 15.1653671,38.2214418 15.1056816,38.330203 C14.8227279,38.8451731 14.473457,39.3140687 14.0597637,39.7325015 C13.978604,39.8146209 13.8952337,39.8954866 13.8090213,39.9738448 C13.7935473,39.9879493 13.7777574,40.0014269 13.7619676,40.0155313 C13.6571232,40.1089343 13.5494366,40.1995164 13.4379605,40.2866507 C15.8500138,41.2162925 18.3947017,41.6876955 21.0113912,41.6876955 C23.8384011,41.6876955 26.5814091,41.1382478 29.1639926,40.0540836 C31.6578372,39.0069045 33.8974657,37.5083821 35.8206662,35.5995761 C37.7438666,33.6907701 39.2540053,31.4679045 40.3087655,28.9924119 C41.4011054,26.4294716 41.9550124,23.706994 41.9550124,20.9011433 C41.9550124,18.0952925 41.4011054,15.3731284 40.3087655,12.8098746" id="Fill-1" fill="#FFCD02"></path>
                            <path d="M21.0115491,3.25481194 C22.9233808,3.25481194 24.7644742,3.55445373 26.4903018,4.10860299 C26.5212499,3.98855821 26.5547243,3.8700806 26.5913567,3.75348358 C26.6286207,3.6353194 26.6687268,3.51934925 26.7113594,3.40463284 C26.9128375,2.86427463 27.1768433,2.36434925 27.5011663,1.90830448 C27.5760101,1.80267761 27.6543276,1.69924478 27.7358031,1.59863284 C27.8046467,1.51369254 27.8747535,1.43000597 27.9480183,1.34851343 C27.9631765,1.33127463 27.9789664,1.31497612 27.9944404,1.29805075 C25.7589172,0.512274627 23.4157075,0.114528358 21.0115491,0.114528358 C18.1845391,0.114528358 15.4415311,0.664289552 12.8592634,1.74845373 C10.365103,2.7953194 8.1254745,4.29415522 6.20227406,6.20296119 C4.27907362,8.11145373 2.76925074,10.3346328 1.71417477,12.8098119 C0.622150606,15.3730657 0.068243615,18.0952299 0.068243615,20.9010806 C0.068243615,23.7069313 0.622150606,26.429409 1.71417477,28.9923493 C2.62430016,31.1274537 3.87327516,33.0741851 5.43362547,34.7943045 L5.53183817,34.3492299 L5.63099826,33.900394 L6.09490326,31.8010209 L6.20101087,31.3202149 L6.30996065,30.8274985 C4.36781242,27.999394 3.23220835,24.5820358 3.23220835,20.9010806 C3.23220835,11.1552 11.1921739,3.25481194 21.0115491,3.25481194" id="Fill-3" fill="#FFCD02"></path>
                            <path d="M13.70304,36.6245328 L16.5638401,23.7913388 L24.4300142,23.7872642 L22.2699664,33.8164881 L24.9311831,33.8152343 C24.9741315,33.8136672 25.0139218,33.8092791 25.0590807,33.8092791 C27.9107227,33.8077119 29.1038018,31.7412493 29.5203373,30.7166373 L34.0526481,8.9070403 L34.1442291,8.4660403 L34.2345469,8.03099552 L34.63624,6.09805522 L34.723084,5.68024925 L34.8096122,5.26401045 L35.6976319,0.990980597 L33.2145243,0.991920896 C33.2145243,0.991920896 31.4362744,1.00132388 29.9990847,2.12153284 C29.8942403,2.20302537 29.7909749,2.2911 29.6905516,2.38512985 C29.5970758,2.47257761 29.5058107,2.56535373 29.4173877,2.66439851 C29.0731695,3.05023433 28.7737945,3.52539851 28.5590529,4.10963731 C28.5173677,4.22278657 28.4788406,4.34032388 28.444103,4.46162239 C28.4103127,4.57884627 28.3799963,4.69983134 28.3528378,4.82489104 C28.3465219,4.85435373 28.3395743,4.88318955 28.3335742,4.9132791 L28.3430481,4.82363731 L25.690042,17.8057119 L17.8235522,17.8094731 L19.7675952,8.74781642 L17.0580616,8.74907015 C13.2703988,8.75095075 12.4082745,12.3964881 12.4066955,12.403697 L7.89680628,32.815697 L7.80017257,33.2529358 L7.70448624,33.6861 L7.2800558,35.6068164 L7.18784323,36.0236821 L7.09689385,36.4358463 L6.3254031,39.9274881 L8.8145108,39.9262343 C8.8145108,39.9262343 10.0315904,39.9193388 11.2868813,39.3150403 C11.4185684,39.2517269 11.5508871,39.1815179 11.6822585,39.1044134 C11.8032085,39.0329507 11.9232112,38.9552194 12.0416348,38.8712194 C12.4903816,38.5521448 12.9119699,38.1365328 13.2486089,37.5949209 C13.3123998,37.4924284 13.3727169,37.3846075 13.4301919,37.2727119 C13.4848246,37.1658313 13.5369311,37.0545627 13.5849321,36.9385925 C13.6269331,36.8373537 13.6664076,36.7329806 13.70304,36.6245328" id="Fill-5" fill="#FFFFFF" filter="url(#filter-1)"></path>
                        </g>
                        <path d="M62.2437981,13.4409403 C62.0720048,13.6590896 61.9046327,13.8227015 61.7423133,13.9317761 C61.5796781,14.0405373 61.3842001,14.0950746 61.1549319,14.0950746 C60.9351376,14.0950746 60.7153432,14.0239254 60.4958647,13.8819403 C60.2760704,13.7396418 60.0300649,13.5832388 59.7578484,13.4127313 C59.4856318,13.2419104 59.1726775,13.0855075 58.8193013,12.943209 C58.465925,12.8009104 58.0503369,12.7297612 57.5728527,12.7297612 C57.1335798,12.7297612 56.7489397,12.7918209 56.419564,12.915 C56.0898725,13.0381791 55.8154454,13.2086866 55.595651,13.4268358 C55.3758567,13.6449851 55.2110109,13.9007463 55.1014296,14.1947463 C54.9915324,14.4887463 54.9365838,14.8109552 54.9365838,15.1616866 C54.9365838,15.5409403 55.0439546,15.8584478 55.259012,16.1145224 C55.4737536,16.3702836 55.7604968,16.5956418 56.11861,16.7899701 C56.4767231,16.9846119 56.880311,17.1620149 57.3293736,17.3231194 C57.7781204,17.4845373 58.2391832,17.6597463 58.7119305,17.8493731 C59.1849936,18.0393134 59.6479512,18.2571493 60.1017507,18.5035075 C60.5552344,18.7501791 60.9616645,19.0582836 61.3197777,19.4281343 C61.6778908,19.7976716 61.964634,20.2433731 62.1793756,20.7646119 C62.3941172,21.2861642 62.5018038,21.9117761 62.5018038,22.6417612 C62.5018038,23.6848657 62.3202208,24.6662239 61.9573707,25.5855224 C61.5942048,26.5051343 61.0734564,27.3087761 60.3954414,27.9958209 C59.7171106,28.6834925 58.8931977,29.2285522 57.9240183,29.6313134 C56.9542074,30.0340746 55.8628148,30.2356119 54.6501564,30.2356119 C54.0482484,30.2356119 53.4438139,30.1691642 52.8374847,30.0365821 C52.2308397,29.904 51.6481953,29.7165672 51.0895513,29.4749104 C50.5305916,29.2329403 50.0123696,28.9464627 49.5348854,28.6145373 C49.0570853,28.2826119 48.6512869,27.9130746 48.3168584,27.5052985 L49.979211,25.3438657 C50.1127929,25.1827612 50.2773228,25.0498657 50.4734324,24.9454925 C50.6692262,24.8414328 50.8672306,24.7890896 51.0680772,24.7890896 C51.335241,24.7890896 51.5954573,24.8815522 51.848726,25.0664776 C52.101679,25.251403 52.3811588,25.4554478 52.6868498,25.6779851 C52.9928566,25.9008358 53.3484434,26.1045672 53.7545577,26.2894925 C54.1603561,26.4741045 54.6593145,26.5668806 55.2517487,26.5668806 C56.1208205,26.5668806 56.791888,26.3321194 57.2646353,25.8629104 C57.7376984,25.3933881 57.97423,24.6991343 57.97423,23.7795224 C57.97423,23.3529403 57.8665434,23.002209 57.6518018,22.7273284 C57.4367444,22.4521343 57.1550539,22.2198806 56.8064146,22.0302537 C56.4574596,21.8409403 56.0589244,21.6726269 55.6101777,21.5256269 C55.1607993,21.3786269 54.7022628,21.2197164 54.2345683,21.049209 C53.7665579,20.8783881 53.3080215,20.6771642 52.8589589,20.4449104 C52.4098963,20.2123433 52.0113612,19.9092537 51.6624061,19.5347015 C51.3137668,19.1601493 51.0320764,18.7003433 50.8173348,18.1552836 C50.6022774,17.6099104 50.4949066,16.9394776 50.4949066,16.1430448 C50.4949066,15.2234328 50.6692262,14.3392388 51.0178655,13.4907761 C51.3665048,12.6423134 51.8654632,11.8910149 52.5150565,11.2365672 C53.1646499,10.5827463 53.952562,10.061194 54.8794246,9.67253731 C55.8056557,9.2838806 56.8468366,9.08955224 58.0026516,9.08955224 C58.5950858,9.08955224 59.1704669,9.15129851 59.7294267,9.27416418 C60.2880706,9.39765672 60.8110296,9.56816418 61.2983035,9.78631343 C61.7852616,10.0044627 62.2295873,10.2627313 62.6306488,10.5614328 C63.0320261,10.8601343 63.3708757,11.1848507 63.6478292,11.5352687 L62.2437981,13.4409403 Z" id="Fill-9" fill="#FFFFFF" filter="url(#filter-2)"></path>
                        <path d="M76.5136927,18.8702239 C76.5136927,19.5434776 76.379795,20.1596866 76.1123154,20.7188507 C75.8451516,21.2783284 75.3793519,21.7735522 74.7155477,22.2048358 C74.0514277,22.6364328 73.1583554,23.0037761 72.0363305,23.3071791 C70.9136741,23.6105821 69.5023797,23.8475373 67.8021316,24.0180448 C67.8210794,25.0229104 68.0434001,25.7579104 68.4684621,26.2224179 C68.8935242,26.6869254 69.5216433,26.9191791 70.3525038,26.9191791 C70.7440914,26.9191791 71.0832568,26.8859552 71.37,26.8195075 C71.6564274,26.7533731 71.9071698,26.6681194 72.1222272,26.5637463 C72.3369688,26.4593731 72.530552,26.3502985 72.7023453,26.2365224 C72.8744543,26.1227463 73.0389843,26.0139851 73.1965667,25.9096119 C73.354465,25.8052388 73.5189949,25.7199851 73.691104,25.6535373 C73.8628973,25.5870896 74.0586911,25.5538657 74.2784854,25.5538657 C74.421857,25.5538657 74.5601758,25.589597 74.6940735,25.6607463 C74.8276554,25.7315821 74.9470265,25.8240448 75.0521867,25.9378209 L76.1985279,27.2605075 C75.6730426,27.7723433 75.1595575,28.2158507 74.6580727,28.5900896 C74.156588,28.9646418 73.6408923,29.2727463 73.1106701,29.514403 C72.5807636,29.7560597 72.0167512,29.9340896 71.4198958,30.0475522 C70.8230405,30.1616418 70.1709208,30.2183731 69.4641684,30.2183731 C68.5853068,30.2183731 67.7781311,30.0688657 67.0429569,29.7704776 C66.3071512,29.4717761 65.6746108,29.050209 65.1443886,28.5048358 C64.6141663,27.9597761 64.2033151,27.3031343 63.9121508,26.5352239 C63.6206707,25.7673134 63.4750885,24.9141493 63.4750885,23.9754179 C63.4750885,23.1887015 63.5635115,22.420791 63.7400417,21.6716866 C63.9168877,20.9228955 64.1701565,20.2189254 64.4995322,19.5600896 C64.8292237,18.9009403 65.2324958,18.2944478 65.7102958,17.7396716 C66.1877801,17.1848955 66.7252657,16.708791 67.322121,16.3104179 C67.9189763,15.9120448 68.5733065,15.6017463 69.2851118,15.3788955 C69.9966012,15.1563582 70.7538811,15.0447761 71.5563199,15.0447761 C72.348969,15.0447761 73.0535109,15.1585522 73.6696298,15.3861045 C74.2854329,15.6136567 74.8036549,15.9101642 75.22398,16.275 C75.6443051,16.6398358 75.9642069,17.049806 76.1840012,17.5052239 C76.4037956,17.9600149 76.5136927,18.4151194 76.5136927,18.8702239 M71.2983142,18.0170597 C70.5625085,18.0170597 69.9179679,18.3085522 69.3640609,18.8915373 C68.8098381,19.4745224 68.39425,20.2734627 68.1172965,21.2877313 C69.0438433,21.1454328 69.7938599,20.9962388 70.3670304,20.8398358 C70.9398852,20.6831194 71.3842108,20.5126119 71.6993757,20.328 C72.0145406,20.1427612 72.2270716,19.9437313 72.3369688,19.730597 C72.4468659,19.5171493 72.5018145,19.287403 72.5018145,19.0407313 C72.5018145,18.7943731 72.4061282,18.5621194 72.2150713,18.3439701 C72.0240145,18.1261343 71.7183235,18.0170597 71.2983142,18.0170597" id="Fill-11" fill="#FFFFFF" filter="url(#filter-3)"></path>
                        <path d="M76.7385398,30.1901122 L78.5439482,15.4430973 L80.8363147,15.4430973 C81.2948512,15.4430973 81.6529643,15.5496644 81.91097,15.7631122 C82.1689758,15.97656 82.2978207,16.3247839 82.2978207,16.8084107 L82.2978207,18.4865301 C82.6606708,17.8515152 83.0475215,17.3061421 83.4583727,16.8510376 C83.8689081,16.3959331 84.2917596,16.0430077 84.7262955,15.7916346 C85.1608314,15.5405749 85.605157,15.3982764 86.0589565,15.3650525 C86.5124403,15.3318286 86.9687662,15.4195898 87.4273026,15.6280227 L86.6248638,19.709545 C86.0804307,19.4819928 85.5716826,19.3776197 85.0989353,19.3964256 C84.626188,19.415545 84.1913363,19.5766495 83.7950117,19.8800525 C83.3986872,20.1834555 83.040574,20.63856 82.7203564,21.2453659 C82.4004546,21.8521719 82.1260274,22.6244704 81.8967592,23.5632018 L81.0943204,30.1901122 L76.7385398,30.1901122 Z" id="Fill-13" fill="#FFFFFF" filter="url(#filter-4)"></path>
                        <path d="M88.1072124,15.358209 L91.7751883,15.358209 C92.0808792,15.358209 92.3218319,15.4318657 92.498678,15.5788657 C92.6752082,15.7258657 92.7876317,15.9082836 92.8356328,16.1261194 L93.8095491,22.7389254 C93.8957615,23.298403 93.9674473,23.8459701 94.0246065,24.3813134 C94.0820814,24.9169701 94.1297667,25.4551343 94.1679781,25.9954925 C94.3397713,25.4645373 94.5235649,24.9313881 94.7196745,24.3954179 C94.9151525,23.8600746 95.1371574,23.3074925 95.3856892,22.7389254 L97.9935364,16.1261194 C98.0983808,15.9082836 98.2559632,15.7258657 98.4662837,15.5788657 C98.6762883,15.4318657 98.9106093,15.358209 99.1682992,15.358209 L102.692903,15.358209 L95.4719016,30.1052239 L91.7177133,30.1052239 L88.1072124,15.358209 Z" id="Fill-15" fill="#FFFFFF" filter="url(#filter-5)"></path>
                        <path d="M108.16313,15.4030299 L106.386459,30.1500448 L102.002257,30.1500448 L103.778928,15.4030299 L108.16313,15.4030299 Z M108.994306,11.3644478 C108.994306,11.7151791 108.917568,12.044597 108.765038,12.3527015 C108.612192,12.6611194 108.411346,12.9312985 108.16313,13.1632388 C107.914598,13.395806 107.630697,13.5804179 107.310795,13.7180149 C106.990578,13.8556119 106.663412,13.9242537 106.3293,13.9242537 C105.994871,13.9242537 105.674654,13.8556119 105.369278,13.7180149 C105.063588,13.5804179 104.793582,13.395806 104.559892,13.1632388 C104.325571,12.9312985 104.137041,12.6611194 103.993669,12.3527015 C103.850613,12.044597 103.778928,11.7151791 103.778928,11.3644478 C103.778928,11.0137164 103.850613,10.681791 103.993669,10.3689851 C104.137041,10.0561791 104.330624,9.78129851 104.574103,9.54434328 C104.817582,9.30738806 105.092009,9.11995522 105.398016,8.98235821 C105.703391,8.84507463 106.023609,8.7761194 106.358037,8.7761194 C106.701624,8.7761194 107.031315,8.8428806 107.34648,8.97514925 C107.661645,9.10835821 107.941125,9.29297015 108.184604,9.52992537 C108.428399,9.7668806 108.623877,10.0420746 108.771985,10.3548806 C108.920094,10.6676866 108.994306,11.0043134 108.994306,11.3644478 L108.994306,11.3644478 Z" id="Fill-17" fill="#FFFFFF" filter="url(#filter-6)"></path>
                        <path d="M118.690205,18.3724925 C118.556623,18.5433134 118.432515,18.6664925 118.317565,18.7423433 C118.203247,18.818194 118.050401,18.8561194 117.859344,18.8561194 C117.667972,18.8561194 117.479441,18.8134925 117.293437,18.7279254 C117.107117,18.6426716 116.906586,18.5455075 116.691529,18.4364328 C116.476472,18.3276716 116.232993,18.230194 115.960776,18.1449403 C115.688559,18.0596866 115.375605,18.0170597 115.022229,18.0170597 C114.363162,18.0170597 113.892625,18.1427463 113.610935,18.393806 C113.329244,18.6451791 113.188399,18.9695821 113.188399,19.3679552 C113.188399,19.6240299 113.267348,19.8421791 113.424615,20.0220896 C113.582513,20.2023134 113.789991,20.3634179 114.047997,20.505403 C114.306003,20.6480149 114.599693,20.7780896 114.929069,20.8968806 C115.25876,21.0153582 115.595399,21.1479403 115.939302,21.2949403 C116.283204,21.4419403 116.619843,21.6102537 116.949535,21.7995672 C117.27891,21.9895075 117.572601,22.2217612 117.830607,22.4963284 C118.088613,22.7715224 118.296091,23.0987463 118.453989,23.4776866 C118.611571,23.8569403 118.690205,24.3073433 118.690205,24.8285821 C118.690205,25.5682836 118.542096,26.2675522 118.246195,26.9263881 C117.949978,27.5852239 117.524916,28.158806 116.971009,28.6471343 C116.416786,29.1354627 115.745719,29.5241194 114.957806,29.8131045 C114.169894,30.1020896 113.283769,30.2468955 112.300063,30.2468955 C111.831737,30.2468955 111.36878,30.1992537 110.910243,30.104597 C110.451707,30.0099403 110.019381,29.8820597 109.613583,29.7206418 C109.207469,29.5595373 108.837355,29.367403 108.503243,29.1445522 C108.168498,28.9220149 107.896598,28.6825522 107.686593,28.4264776 L108.775459,26.805403 C108.909041,26.6157761 109.064097,26.4665821 109.240943,26.3575075 C109.417789,26.2487463 109.635057,26.1938955 109.892747,26.1938955 C110.131489,26.1938955 110.337073,26.2509403 110.509182,26.364403 C110.680975,26.4784925 110.867295,26.6016716 111.067826,26.7342537 C111.268356,26.8671493 111.507098,26.9903284 111.784368,27.1041045 C112.061005,27.2178806 112.424171,27.2746119 112.873234,27.2746119 C113.503564,27.2746119 113.971574,27.1348209 114.277265,26.8552388 C114.582956,26.5756567 114.735802,26.2462388 114.735802,25.8669851 C114.735802,25.5729851 114.656852,25.3313284 114.49927,25.1417015 C114.341688,24.9520746 114.133893,24.7884627 113.876204,24.6511791 C113.618198,24.5135821 113.326718,24.390403 113.002079,24.2810149 C112.677124,24.1722537 112.343012,24.0515821 111.999109,23.9186866 C111.655207,23.785791 111.320779,23.6318955 110.99614,23.4563731 C110.671501,23.2811642 110.380021,23.0605075 110.122015,22.7950299 C109.864325,22.5298657 109.656531,22.2029552 109.498949,21.8139851 C109.341051,21.4253284 109.262417,20.9561194 109.262417,20.4060448 C109.262417,19.7233881 109.389052,19.0598507 109.642005,18.4151194 C109.895273,17.7703881 110.27265,17.1993134 110.774135,16.7015821 C111.27562,16.2038507 111.898686,15.8032836 112.643966,15.4998806 C113.38893,15.1964776 114.258001,15.0447761 115.251497,15.0447761 C116.244993,15.0447761 117.130802,15.215597 117.909556,15.5569254 C118.687678,15.8979403 119.330324,16.3154328 119.836546,16.8081493 L118.690205,18.3724925 Z" id="Fill-19" fill="#FFFFFF" filter="url(#filter-7)"></path>
                        <path d="M152.936436,18.8702239 C152.936436,19.5434776 152.802538,20.1596866 152.535059,20.7188507 C152.267895,21.2783284 151.802095,21.7735522 151.138291,22.2048358 C150.474171,22.6364328 149.581099,23.0037761 148.458758,23.3071791 C147.336417,23.6105821 145.925123,23.8475373 144.224875,24.0180448 C144.243823,25.0229104 144.466143,25.7579104 144.891205,26.2224179 C145.316268,26.6869254 145.944387,26.9191791 146.775247,26.9191791 C147.166835,26.9191791 147.506,26.8859552 147.792743,26.8195075 C148.079171,26.7533731 148.329913,26.6681194 148.544971,26.5637463 C148.759712,26.4593731 148.953295,26.3502985 149.125089,26.2365224 C149.297198,26.1227463 149.461728,26.0139851 149.61931,25.9096119 C149.777208,25.8052388 149.941738,25.7199851 150.113847,25.6535373 C150.285641,25.5870896 150.481434,25.5538657 150.701229,25.5538657 C150.8446,25.5538657 150.982919,25.589597 151.116817,25.6607463 C151.250399,25.7315821 151.36977,25.8240448 151.47493,25.9378209 L152.621271,27.2605075 C152.095786,27.7723433 151.582301,28.2158507 151.080816,28.5900896 C150.579331,28.9646418 150.063636,29.2727463 149.533413,29.514403 C149.003507,29.7560597 148.439495,29.9340896 147.842639,30.0475522 C147.245784,30.1616418 146.593664,30.2183731 145.886912,30.2183731 C145.00805,30.2183731 144.200874,30.0688657 143.4657,29.7704776 C142.729895,29.4717761 142.097354,29.050209 141.567132,28.5048358 C141.03691,27.9597761 140.626058,27.3031343 140.334894,26.5352239 C140.043414,25.7673134 139.897832,24.9141493 139.897832,23.9754179 C139.897832,23.1887015 139.986255,22.420791 140.162785,21.6716866 C140.339631,20.9228955 140.5929,20.2189254 140.922276,19.5600896 C141.251967,18.9009403 141.655239,18.2944478 142.133039,17.7396716 C142.610523,17.1848955 143.148009,16.708791 143.744864,16.3104179 C144.34172,15.9120448 144.99605,15.6017463 145.707855,15.3788955 C146.419345,15.1563582 147.176624,15.0447761 147.979063,15.0447761 C148.771712,15.0447761 149.476254,15.1585522 150.092373,15.3861045 C150.708492,15.6136567 151.226398,15.9101642 151.646723,16.275 C152.067048,16.6398358 152.38695,17.049806 152.606745,17.5052239 C152.826539,17.9600149 152.936436,18.4151194 152.936436,18.8702239 M147.721058,18.0170597 C146.985252,18.0170597 146.340711,18.3085522 145.786804,18.8915373 C145.232581,19.4745224 144.816993,20.2734627 144.54004,21.2877313 C145.466587,21.1454328 146.216603,20.9962388 146.789774,20.8398358 C147.362629,20.6831194 147.806954,20.5126119 148.122119,20.328 C148.437284,20.1427612 148.649815,19.9437313 148.759712,19.730597 C148.869609,19.5171493 148.924558,19.287403 148.924558,19.0407313 C148.924558,18.7943731 148.828872,18.5621194 148.637815,18.3439701 C148.446758,18.1261343 148.141067,18.0170597 147.721058,18.0170597" id="Fill-21" fill="#FFFFFF" filter="url(#filter-8)"></path>
                        <path d="M154.108673,30.1901122 L155.914081,15.4430973 L158.206447,15.4430973 C158.664984,15.4430973 159.023097,15.5496644 159.281103,15.7631122 C159.539108,15.97656 159.667953,16.3247839 159.667953,16.8084107 L159.667953,18.4865301 C160.030804,17.8515152 160.417654,17.3061421 160.828505,16.8510376 C161.239041,16.3959331 161.661892,16.0430077 162.096428,15.7916346 C162.530964,15.5405749 162.97529,15.3982764 163.429089,15.3650525 C163.882573,15.3318286 164.338899,15.4195898 164.797435,15.6280227 L163.994997,19.709545 C163.450563,19.4819928 162.941815,19.3776197 162.469068,19.3964256 C161.996321,19.415545 161.561469,19.5766495 161.165144,19.8800525 C160.76882,20.1834555 160.410707,20.63856 160.090489,21.2453659 C159.770587,21.8521719 159.49616,22.6244704 159.266892,23.5632018 L158.464453,30.1901122 L154.108673,30.1901122 Z" id="Fill-23" fill="#FFFFFF" filter="url(#filter-9)"></path>
                        <path d="M170.117343,30.2468955 C169.286482,30.2468955 168.510254,30.1092985 167.789291,29.8344179 C167.067696,29.5595373 166.442103,29.1589701 165.912197,28.6327164 C165.381975,28.1067761 164.966386,27.4573433 164.665748,26.6847313 C164.364794,25.9121194 164.214159,25.0232239 164.214159,24.0180448 C164.214159,22.7097761 164.431427,21.5083881 164.865963,20.4132537 C165.300499,19.3184328 165.88567,18.3724925 166.62116,17.5760597 C167.35665,16.7799403 168.2093,16.1590299 169.178795,15.7133284 C170.148291,15.2676269 171.167997,15.0447761 172.237916,15.0447761 C173.069092,15.0447761 173.842793,15.1823731 174.55902,15.4572537 C175.275562,15.7324478 175.898628,16.1327015 176.428851,16.6589552 C176.959073,17.1848955 177.376872,17.8346418 177.682563,18.6072537 C177.988253,19.3801791 178.141099,20.2687612 178.141099,21.2736269 C178.141099,22.5630896 177.923831,23.7550746 177.489295,24.850209 C177.054443,25.9450299 176.469273,26.8931642 175.734098,27.6942985 C174.998293,28.4954328 174.145642,29.1210448 173.176463,29.5714478 C172.206652,30.0215373 171.186945,30.2468955 170.117343,30.2468955 M170.518404,26.9762239 C171.015152,26.9762239 171.459162,26.8267164 171.851065,26.5280149 C172.242653,26.2296269 172.574555,25.8218507 172.846771,25.305 C173.119304,24.7884627 173.328993,24.1866716 173.477417,23.499 C173.62521,22.8119552 173.699422,22.0794627 173.699422,21.3021493 C173.699422,20.2308358 173.553524,19.4654328 173.262359,19.0053134 C172.970879,18.5455075 172.495606,18.3157612 171.836854,18.3157612 C171.340106,18.3157612 170.895781,18.4649552 170.504193,18.7636567 C170.11229,19.0623582 169.780703,19.4676269 169.508487,19.9794627 C169.23627,20.4912985 169.02595,21.0937164 168.877841,21.7854627 C168.729733,22.4775224 168.655837,23.2125224 168.655837,23.9895224 C168.655837,25.0420299 168.801419,25.8027313 169.092899,26.2722537 C169.384063,26.7414627 169.859653,26.9762239 170.518404,26.9762239" id="Fill-25" fill="#FFFFFF" filter="url(#filter-10)"></path>
                        <path d="M137.853997,9.40298507 C137.853997,9.40298507 135.447944,9.41614925 135.165938,11.6803881 L134.435185,17.5484776 L126.898702,17.5484776 L127.912725,9.40298507 L125.614674,9.40298507 C125.614674,9.40298507 123.250937,9.41865672 122.936404,11.626791 L120.634248,30.1227761 L123.193147,30.1227761 C123.77137,30.0541343 125.196875,29.7297313 125.569831,28.210209 L126.355848,21.8465821 L133.892646,21.8465821 L132.870413,30.1227761 L135.43247,30.1227761 C136.008167,30.0544478 137.424198,29.7341194 137.805049,28.2324627 L140.14889,9.40298507 L137.853997,9.40298507 Z" id="Fill-27" fill="#FFFFFF" filter="url(#filter-11)"></path>
                    </g>
                </g>
            </g>
        </g>
    </g>
</svg>