<?xml version="1.0" encoding="utf-8"?>
<!-- Generator: Adobe Illustrator 21.1.0, SVG Export Plug-In . SVG Version: 6.00 Build 0)  -->
<svg version="1.1" id="Layer_1" xmlns="http://www.w3.org/2000/svg" xmlns:xlink="http://www.w3.org/1999/xlink" x="0px" y="0px"
	 viewBox="0 0 782 258" style="enable-background:new 0 0 782 258;" xml:space="preserve">
<title>pebbles-pad</title>
<desc>Created with Sketch.</desc>
<g id="Spread">
	<g id="pebbles-pad" transform="translate(1.000000, 1.000000)">
		<g id="pebbles" transform="translate(17.000000, 38.000000)">
			<g transform="translate(0.000000, 0.741803)">
				<path id="peb-bot" d="M155.9,109.2C194.8,115,222,128,222,143.2c0,20.5-49.7,37.1-111,37.1S0,163.7,0,143.2
					C0,128,27.2,115,66.1,109.2c13.4,2.7,28.7,4.3,44.9,4.3c15.8,0,30.7-1.5,43.9-4.1L155.9,109.2z"/>
				<path id="peb-med" d="M139.1,48.2c35.3,3.9,60.7,15,60.7,28.2c0,16.4-39.8,29.7-88.8,29.7S22.2,92.8,22.2,76.4
					c0-13.1,25.4-24.2,60.7-28.2c8.6,1.4,18.1,2.2,28.1,2.2c9.6,0,18.8-0.7,27.2-2L139.1,48.2z"/>
				<g id="peb-top" transform="translate(44.400000, 0.000000)">
					<ellipse id="peb-sm" cx="66.6" cy="22.3" rx="66.6" ry="22.3"/>
				</g>
			</g>
		</g>
	</g>
</g>
<g>
	<path d="M309.6,168.5V85.5h27.1c9,0,15.8,1.9,20.3,5.6c4.5,3.7,6.8,9.2,6.8,16.5c0,3.9-1.1,7.3-3.3,10.3c-2.2,3-5.2,5.3-9,6.9
		c4.5,1.3,8,3.6,10.6,7.1c2.6,3.5,3.9,7.7,3.9,12.6c0,7.4-2.4,13.3-7.2,17.5c-4.8,4.3-11.6,6.4-20.4,6.4H309.6z M320.6,120.9h16.5
		c4.8,0,8.6-1.2,11.5-3.6s4.3-5.7,4.3-9.8c0-4.6-1.3-7.9-4-10c-2.7-2.1-6.7-3.1-12.1-3.1h-16.2V120.9z M320.6,129.7v29.8h18.1
		c5.1,0,9.1-1.3,12-4c2.9-2.6,4.4-6.3,4.4-10.9c0-10-5.4-15-16.3-15H320.6z"/>
	<path d="M418.6,168.5c-0.6-1.2-1.1-3.4-1.5-6.5c-4.9,5.1-10.7,7.6-17.5,7.6c-6.1,0-11.1-1.7-15-5.2c-3.9-3.4-5.8-7.8-5.8-13.1
		c0-6.4,2.4-11.4,7.3-15c4.9-3.5,11.7-5.3,20.6-5.3H417v-4.8c0-3.7-1.1-6.6-3.3-8.8s-5.4-3.3-9.7-3.3c-3.8,0-6.9,1-9.5,2.8
		c-2.5,1.9-3.8,4.2-3.8,6.9h-10.6c0-3.1,1.1-6,3.3-8.9c2.2-2.9,5.1-5.1,8.9-6.8s7.9-2.5,12.3-2.5c7.1,0,12.7,1.8,16.7,5.3
		c4,3.5,6.1,8.4,6.3,14.7v28.4c0,5.7,0.7,10.2,2.2,13.5v0.9H418.6z M401.2,160.4c3.3,0,6.4-0.9,9.4-2.6c3-1.7,5.1-3.9,6.4-6.7v-12.6
		h-8.3c-12.9,0-19.4,3.8-19.4,11.3c0,3.3,1.1,5.9,3.3,7.7C394.9,159.5,397.7,160.4,401.2,160.4z"/>
	<path d="M455.5,168.5h-10.5V81h10.5V168.5z"/>
	<path d="M510.4,168.5c-0.6-1.2-1.1-3.4-1.5-6.5c-4.9,5.1-10.7,7.6-17.5,7.6c-6.1,0-11.1-1.7-15-5.2c-3.9-3.4-5.8-7.8-5.8-13.1
		c0-6.4,2.4-11.4,7.3-15c4.9-3.5,11.7-5.3,20.6-5.3h10.3v-4.8c0-3.7-1.1-6.6-3.3-8.8s-5.4-3.3-9.7-3.3c-3.8,0-6.9,1-9.5,2.8
		c-2.5,1.9-3.8,4.2-3.8,6.9h-10.6c0-3.1,1.1-6,3.3-8.9c2.2-2.9,5.1-5.1,8.9-6.8s7.9-2.5,12.3-2.5c7.1,0,12.7,1.8,16.7,5.3
		c4,3.5,6.1,8.4,6.3,14.7v28.4c0,5.7,0.7,10.2,2.2,13.5v0.9H510.4z M492.9,160.4c3.3,0,6.4-0.9,9.4-2.6c3-1.7,5.1-3.9,6.4-6.7v-12.6
		h-8.3c-12.9,0-19.4,3.8-19.4,11.3c0,3.3,1.1,5.9,3.3,7.7C486.6,159.5,489.4,160.4,492.9,160.4z"/>
	<path d="M545.8,106.8l0.3,7.7c4.7-5.9,10.9-8.9,18.5-8.9c13,0,19.6,7.3,19.7,22v40.7h-10.5v-40.8c0-4.4-1.1-7.7-3-9.9
		c-2-2.1-5.1-3.2-9.3-3.2c-3.4,0-6.4,0.9-9,2.7c-2.6,1.8-4.6,4.2-6,7.2v43.9h-10.5v-61.6H545.8z"/>
	<path d="M624.9,161c3.8,0,7-1.1,9.9-3.4c2.8-2.3,4.4-5.1,4.7-8.5h10c-0.2,3.5-1.4,6.9-3.6,10.1s-5.2,5.7-9,7.6
		c-3.7,1.9-7.7,2.8-11.9,2.8c-8.4,0-15.1-2.8-20-8.4c-5-5.6-7.4-13.3-7.4-23v-1.8c0-6,1.1-11.3,3.3-16c2.2-4.7,5.4-8.3,9.5-10.9
		c4.1-2.6,9-3.9,14.6-3.9c6.9,0,12.7,2.1,17.2,6.2c4.6,4.1,7,9.5,7.3,16.1h-10c-0.3-4-1.8-7.3-4.5-9.8s-6.1-3.8-10.1-3.8
		c-5.4,0-9.5,1.9-12.4,5.8c-2.9,3.9-4.4,9.4-4.4,16.7v2c0,7.1,1.5,12.6,4.4,16.4C615.3,159.1,619.4,161,624.9,161z"/>
	<path d="M686.8,169.6c-8.4,0-15.1-2.7-20.4-8.2c-5.2-5.5-7.9-12.8-7.9-22v-1.9c0-6.1,1.2-11.6,3.5-16.4c2.3-4.8,5.6-8.6,9.8-11.3
		c4.2-2.7,8.7-4.1,13.6-4.1c8,0,14.2,2.6,18.7,7.9c4.4,5.3,6.7,12.8,6.7,22.7v4.4h-41.7c0.2,6.1,1.9,11,5.3,14.7
		c3.4,3.7,7.7,5.6,13,5.6c3.7,0,6.9-0.8,9.5-2.3c2.6-1.5,4.8-3.5,6.8-6l6.4,5C704.8,165.6,697.1,169.6,686.8,169.6z M685.5,114.4
		c-4.3,0-7.8,1.5-10.7,4.6c-2.9,3.1-4.7,7.4-5.4,13h30.9v-0.8c-0.3-5.4-1.7-9.5-4.3-12.4C693.4,115.8,689.9,114.4,685.5,114.4z"/>
	<path d="M752.8,116.3c-1.6-0.3-3.3-0.4-5.2-0.4c-6.9,0-11.6,2.9-14.1,8.8v43.7H723v-61.6h10.3l0.2,7.1c3.5-5.5,8.4-8.3,14.7-8.3
		c2.1,0,3.6,0.3,4.7,0.8V116.3z"/>
</g>
</svg>
