<svg xmlns="http://www.w3.org/2000/svg" width="102" height="18" viewBox="0 0 102 18">
    <path fill="#FEC600" fill-rule="evenodd" d="M70.54 15.27c.008-.884-.674-1.567-1.576-1.58-.892-.01-1.606.671-1.618 1.545-.012.86.703 1.58 1.582 1.593.877.013 1.603-.689 1.611-1.558M60.495 3.255c.02.6.244 1.063.872.968.901-.136 2.09.617 2.649-.606.212-.465.1-1.111.002-1.65-.041-.223-.412-.463-.681-.548-.3-.095-.656-.022-.988-.022-1.901-.007-1.914.021-1.854 1.858M37.936 1.388c-.79-.064-1.099.32-1.062 1.054.016.323-.002.648.012.971.026.583.388.908.94.819.875-.142 2.101.598 2.563-.596.602-1.556.01-2.246-1.64-2.246h-.09c-.241 0-.483.017-.723-.002m35.178 9.03c-.157.855-.174 1.766-.067 2.629.4 3.224 4.08 4.926 6.856 3.135.653-.42 1.1-1.209 1.514-1.901.31-.52.253-1.13-.466-1.38-.7-.246-.972.232-1.184.764-.065.164-.143.326-.235.477-.494.82-1.24 1.173-2.2 1.126-.965-.047-1.684-.497-2.053-1.36-.562-1.316-.558-2.666.06-3.958.81-1.697 3.027-1.857 4.131-.331.174.24.27.582.5.726.292.183.756.373 1.015.263.263-.11.488-.576.505-.898.017-.315-.2-.676-.397-.963-.854-1.24-2.115-1.69-2.913-1.694-2.888.011-4.696 1.342-5.066 3.365m-32.657-2.46c0-2.428.234-2.277-2.374-2.265-1.03.005-1.202.173-1.205 1.204-.008 2.512.002 5.025-.004 7.537-.006 2.652-.192 2.38 2.526 2.404.783.006 1.077-.333 1.064-1.077-.026-1.477-.007-2.956-.007-4.433v-3.37m20.046 6.71c-.002 2.237-.218 2.182 2.209 2.165 1.231-.009 1.39-.156 1.393-1.393.006-2.455.002-4.909.002-7.363 0-2.489 0-2.472-2.559-2.395-.78.023-1.068.347-1.053 1.091.03 1.478.009 2.957.008 4.436v3.46m29.148-2.76c0-2.015-1.036-3.294-2.699-3.331-1.632-.037-2.693 1.185-2.758 3.175-.067 2.048.979 3.462 2.6 3.516 1.736.057 2.857-1.262 2.857-3.36m-2.748-4.853c2.994.003 4.756 1.787 4.77 4.829.013 3.066-1.816 4.96-4.774 4.943-2.9-.015-4.734-1.915-4.739-4.91-.005-3.027 1.788-4.865 4.743-4.862m13.326 3.06v5.494c0 .615.138 1.184.893 1.19.77.008.878-.556.875-1.179-.01-2.364-.016-4.728.003-7.092.005-.69-.079-1.223-.952-1.31-1.48-.148-1.95.018-2.207.934-.39 1.394-.757 2.795-1.139 4.192-.076.278-.173.55-.26.826-.632-1.663-1.058-3.289-1.513-4.907-.29-1.033-.812-1.241-2.302-1.035-.91.126-.954.76-.953 1.443.002 2.217 0 4.433.004 6.65 0 .235-.053.537.07.69.252.31.618.755.919.742.287-.012.75-.512.79-.837.11-.933.048-1.887.05-2.832.003-1.004.001-2.007.001-3.01.344.58.505 1.174.66 1.769.33 1.258.654 2.518.984 3.776.168.637.436 1.198 1.234 1.196.805-.003 1.039-.595 1.22-1.215.082-.284.145-.573.218-.858l1.213-4.68.192.052m-41.892 5.66c-1.787-2.344-3.57-4.692-5.384-7.015-.516-.66-.513-1.172.094-1.776 1.61-1.6 3.185-3.234 4.765-4.863.206-.212.36-.472.68-.9-1.273 0-2.292.029-3.309-.008-.794-.029-1.381.262-1.894.84-1.58 1.787-3.186 3.553-4.786 5.324-.265.293-.55.57-.997 1.031-.043-.545-.082-.823-.083-1.101-.007-1.3-.01-2.6-.002-3.901.013-2.452.099-2.177-2.266-2.183-1.224-.003-1.298.071-1.298 1.248-.002 4.107 0 8.215-.002 12.323 0 1.999-.252 2.066 2.055 2.04 1.447-.016 1.618-.075 1.482-1.523-.168-1.771.36-3.147 1.747-4.298.594-.493.94-.603 1.44.074 1.22 1.65 2.477 3.277 3.757 4.885.263.331.667.734 1.04.768 1.094.103 2.205.037 3.585.037-.294-.475-.436-.755-.624-1.002M32.102 8.533c1.85-1.125 2.459-2.38 2.073-4.283-.322-1.591-1.408-2.691-3.477-2.843-2.974-.218-5.972-.148-8.96-.147-.233 0-.61.389-.675.654-.268 1.108.104 1.506 1.29 1.513.453.003.906-.002 1.36 0 1.66.01 3.325-.04 4.982.047 1.27.067 1.925.852 1.915 2.04-.01 1.152-.637 1.853-1.891 1.957-.99.082-1.992.027-2.988.06-.799.026-1.149-.292-1.131-1.104.06-2.68.147-2.31-2.556-2.348-.679-.01-1.018.262-1.017.935.003 2.72.004 5.438-.001 8.158-.001.643.324.9.962.875.512-.021 1.028-.03 1.54.002.773.05 1.12-.265 1.087-1.031-.029-.679-.08-1.372.031-2.034.052-.304.458-.768.725-.782 1.294-.07 2.6-.074 3.892.018 1.093.078 1.693.664 1.912 1.603.418 1.794-.428 2.887-2.343 2.92-2.205.039-4.411.025-6.616-.002-.764-.01-1.204.178-1.203 1.03.001.829.404 1.074 1.181 1.068 2.417-.02 4.836.044 7.251-.026 1.012-.03 2.048-.21 3.015-.506 1.337-.409 2.142-1.368 2.363-2.763.378-2.394-.402-3.738-2.885-4.83.088-.1.118-.153.164-.181m-21.424 4.25c-.288-.361-.442-.598-.64-.795-.781-.78-1.565-1.559-2.371-2.314-.503-.47-.503-.863.011-1.335.814-.747 1.592-1.532 2.368-2.317.153-.154.228-.382.339-.576-.227-.102-.452-.287-.68-.29-1.57-.027-3.14-.003-4.71-.02-.535-.006-.767.197-.764.727.011 2.066.005 4.133.005 6.2 0 .642.352.878.978.873 1.57-.014 3.139-.002 4.708-.01.17 0 .339-.061.756-.142m1.03-3.788c.583.322 1.128.565 1.607.897 1.606 1.112 2.281 3.13 1.693 4.946-.605 1.868-2.272 3.131-4.254 3.147-3.08.024-6.162.012-9.244.003-1.032-.004-1.497-.438-1.5-1.462-.014-4.995-.013-9.989 0-14.983C.011.458.51.01 1.644.006c2.87-.007 5.74-.008 8.61 0 2.483.006 4.431 1.478 4.895 3.676.439 2.085-.754 4.113-2.994 5.09-.13.058-.254.127-.448.224"/>
</svg>
