<svg xmlns="http://www.w3.org/2000/svg" width="212" height="43" viewBox="0 0 212 43">
    <path fill="#061D2A" fill-rule="evenodd" d="M194.91 10.396h16.929v4.454h-12.045v4.615h10.6v4.453h-10.6v4.778H212v4.452h-17.09V10.396zm-15.04 23.142c-1.649 0-3.18-.303-4.592-.91-1.414-.606-2.635-1.435-3.662-2.486-1.028-1.051-1.832-2.292-2.41-3.722-.577-1.43-.866-2.958-.866-4.583v-.065c0-1.625.289-3.147.867-4.566.578-1.42 1.38-2.665 2.409-3.738 1.027-1.073 2.26-1.918 3.693-2.535 1.435-.618 3.02-.927 4.755-.927 1.048 0 2.006.087 2.874.26.867.174 1.654.412 2.361.715.707.304 1.36.672 1.96 1.105.598.434 1.155.91 1.67 1.43l-3.148 3.673c-.879-.801-1.772-1.43-2.682-1.885-.911-.454-1.933-.683-3.068-.683-.942 0-1.815.185-2.617.553-.803.369-1.494.878-2.073 1.528-.577.65-1.027 1.403-1.35 2.259-.32.856-.48 1.771-.48 2.746v.065c0 .975.16 1.896.48 2.762.323.867.766 1.625 1.334 2.275.567.65 1.253 1.166 2.056 1.545.803.38 1.687.568 2.65.568 1.285 0 2.37-.238 3.26-.715.889-.476 1.773-1.126 2.65-1.95l3.149 3.218c-.58.628-1.18 1.192-1.8 1.69-.62.499-1.3.927-2.04 1.285-.738.357-1.547.628-2.424.812-.879.184-1.864.276-2.955.276zM142.09 10.396h4.562l10.535 14.01v-14.01h4.882v22.752h-4.208l-10.889-14.463v14.463h-4.882V10.396zm-14.334 13.229l-2.987-7.378-2.987 7.378h5.974zm-5.203-13.39h4.56l9.637 22.913h-5.171l-2.057-5.102h-9.507l-2.056 5.102h-5.044l9.638-22.914zm-34.956.161h4.56l10.537 14.01v-14.01h4.882v22.752h-4.208L92.48 18.685v14.463h-4.883V10.396zm-12.44 22.752h4.948V10.396h-4.947v22.752zm-14.589-4.387c1.092 0 1.948-.2 2.57-.602.62-.4.931-1.024.931-1.869v-.065c0-.758-.29-1.36-.867-1.804-.579-.443-1.51-.666-2.795-.666H54.69v5.006h5.878zm-1.317-9.167c1.092 0 1.96-.189 2.602-.569.642-.379.963-.99.963-1.836v-.065c0-.758-.279-1.338-.835-1.739-.557-.4-1.36-.6-2.41-.6H54.69v4.809h4.56zm-9.38-9.198h10.422c2.586 0 4.542.672 5.867 2.015 1.026 1.04 1.539 2.33 1.539 3.868v.065c0 .65-.08 1.225-.24 1.723-.159.499-.372.947-.638 1.348-.266.402-.574.754-.925 1.057-.352.303-.729.564-1.133.78 1.3.499 2.323 1.175 3.07 2.031.745.857 1.118 2.043 1.118 3.56v.064c0 1.04-.197 1.95-.593 2.73-.395.78-.962 1.43-1.7 1.951-.737.52-1.624.91-2.661 1.17-1.037.26-2.186.39-3.447.39H49.871V10.396zM26.06 21.45h.002L21.2 16.53l-3.592 3.636-.414.418-.851.862-.007.006.007.008 4.857 4.915 4.862-4.92.003-.003-.004-.002zm16.342.004l-4.792 4.848-4.791-4.848 4.791-4.848 4.792 4.848zm-29.436 3.422l8.234 8.332 8.239-8.336 4.794 4.845-.003.003L21.2 42.905 8.175 29.725l-.007-.007 4.798-4.842zm-8.174-8.273l4.79 4.849-4.79 4.848L0 21.452l4.792-4.849zm8.174 1.426L21.2 9.697l8.24 8.336 4.79-4.848L21.2 0 8.175 13.18l4.791 4.85z"/>
</svg>
