<svg xmlns="http://www.w3.org/2000/svg" width="245" height="50" viewBox="0 0 245 50">
    <g fill="none" fill-rule="evenodd">
        <path fill="#061D2A" d="M224.628 11.978h19.509v5.131h-13.882v5.318h12.216v5.13h-12.216v5.505h14.067v5.13h-19.694V11.979zm-17.333 26.664c-1.902 0-3.665-.35-5.294-1.048-1.63-.699-3.036-1.654-4.22-2.866-1.185-1.21-2.11-2.64-2.776-4.287-.667-1.648-1-3.409-1-5.281v-.075c0-1.872.333-3.625 1-5.261.666-1.635 1.591-3.07 2.776-4.307 1.184-1.235 2.604-2.21 4.256-2.92 1.654-.712 3.481-1.068 5.48-1.068 1.208 0 2.312.1 3.312.3 1 .2 1.906.474 2.722.823.814.35 1.566.774 2.258 1.274.69.5 1.332 1.048 1.924 1.648l-3.627 4.23c-1.013-.922-2.042-1.647-3.091-2.171-1.05-.524-2.228-.786-3.535-.786-1.086 0-2.092.212-3.017.636-.925.425-1.722 1.012-2.388 1.76-.666.75-1.184 1.617-1.556 2.603-.369.987-.554 2.041-.554 3.164v.075c0 1.123.185 2.185.554 3.183.372.999.883 1.872 1.537 2.621.653.75 1.444 1.343 2.369 1.78.926.437 1.944.655 3.055.655 1.48 0 2.732-.275 3.756-.824 1.025-.549 2.043-1.298 3.055-2.247l3.628 3.708c-.667.723-1.359 1.373-2.073 1.947-.716.574-1.5 1.067-2.352 1.48-.85.411-1.783.723-2.794.935-1.013.212-2.148.319-3.405.319zm-43.543-26.664h5.257l12.142 16.141V11.98h5.627v26.214h-4.85L169.38 21.528v16.665h-5.627V11.978zM147.233 27.22l-3.443-8.5-3.442 8.5h6.885zm-5.997-15.428h5.256l11.106 26.4h-5.96l-2.37-5.878h-10.957l-2.369 5.879h-5.812l11.106-26.401zm-40.284.186h5.255L118.35 28.12V11.98h5.627v26.214h-4.85l-12.549-16.665v16.665h-5.626V11.978zM86.615 38.193h5.702V11.978h-5.702v26.215zm-16.814-5.056c1.259 0 2.245-.23 2.962-.693.715-.462 1.073-1.18 1.073-2.153v-.075c0-.874-.333-1.567-1-2.078-.666-.512-1.739-.768-3.22-.768h-6.59v5.767h6.775zm-1.518-10.561c1.26 0 2.259-.218 2.999-.655.74-.437 1.11-1.142 1.11-2.116v-.075c0-.873-.321-1.541-.962-2.003-.642-.462-1.568-.693-2.777-.693h-5.626v5.542h5.256zM57.474 11.978h12.01c2.98 0 5.235.774 6.762 2.322 1.182 1.199 1.773 2.684 1.773 4.456v.075c0 .75-.091 1.411-.276 1.985-.183.575-.429 1.092-.736 1.554-.305.462-.66.868-1.066 1.217-.405.35-.84.65-1.305.899 1.498.574 2.677 1.354 3.537 2.34.86.987 1.29 2.354 1.29 4.101v.075c0 1.198-.227 2.247-.684 3.146-.455.898-1.109 1.647-1.959 2.247-.85.6-1.872 1.048-3.067 1.348-1.195.3-2.52.45-3.972.45H57.474V11.977z" transform="translate(0 .304)"/>
        <path fill="#F3BA2F" d="M33.927 28.657l5.525 5.582-.003.004-15.016 15.19L9.42 34.249l-.008-.008 5.53-5.579 9.49 9.6 9.494-9.604zm-9.494-9.611l5.603 5.668h-.002l.005.003-.003.003-5.603 5.669-5.599-5.664-.007-.008.007-.008.982-.993.476-.482 4.14-4.188zm18.911.087l5.522 5.586-5.522 5.586-5.521-5.586 5.521-5.586zM5.522 19.13l5.522 5.586-5.522 5.586L0 24.716l5.522-5.586zM24.432 0L39.45 15.192l-5.521 5.586-9.495-9.605-9.49 9.6-5.522-5.586L24.433 0z" transform="translate(0 .304)"/>
    </g>
</svg>
