<svg xmlns="http://www.w3.org/2000/svg" width="219" height="50" viewBox="0 0 219 50">
    <g fill="none" fill-rule="evenodd">
        <path fill="#0079CA" d="M0 50h38.906c.041-2.496.102-4.992.086-7.488-.001-.212-.502-.572-.799-.604-.798-.086-1.611-.033-2.418-.033-1.688 0-1.688 0-1.67 1.665.014 1.475-.014 1.504-1.454 1.504H7.658c-.651 0-1.302-.008-1.953.001-.559.008-.814-.265-.804-.812.01-.468.028-.936.028-1.405-.006-8.566-.014-17.131-.022-25.696-.001-1.042.18-1.243 1.118-1.243 8.878.003 17.756.004 26.635.003 1.293 0 1.45.152 1.448 1.418-.006 4.321 0 8.643-.023 12.965-.004.705.269 1.008.96 1 1.015-.013 2.03-.012 3.046 0 .697.007.95-.313.949-1.01-.019-5.988-.013-11.976-.014-17.964 0-1.12-.2-1.325-1.315-1.326-12.263-.002-24.525-.004-36.788 0-.308 0-.615.078-.923.119V50zM49.063 0c.04.413.115.826.115 1.239.007 12.158.006 24.316.007 36.474 0 1.106-.194 1.31-1.328 1.31-12.158.002-24.316.001-36.474 0-1.158 0-1.317-.166-1.317-1.3V19.759c0-1.253.119-1.367 1.396-1.369.807 0 1.615.007 2.421-.014.927-.024 1.113.12 1.118 1.044.01 1.848 0 3.696-.001 5.545-.001 2.577 0 5.155-.003 7.732-.002 1.388.039 1.412 1.443 1.411 8.721-.006 17.443-.003 26.164-.003.287 0 .574.004.859-.013.497-.03.761-.311.781-.8.018-.442.006-.885.006-1.327l.009-26.009c0-.844-.151-.996-1.094-.997-4.842-.005-9.685-.002-14.527-.003H16.063c-.99 0-1.078.093-1.068 1.065.02 1.795.02 1.796-1.776 1.793l-2.265-.003c-.575-.002-.883-.303-.879-.866.018-2.315.053-4.63.081-6.945h38.907z"/>
        <path fill="#292929" d="M86.825 24.692c0 4.111.02 8.222-.008 12.333-.017 2.378.05 2.066 2.069 2.08 1.08.008 1.271-.185 1.271-1.266-.002-8.482-.005-16.964-.005-25.445 0-2.088.005-2.088-2.083-2.093-1.084-.002-1.253.172-1.252 1.279v13.112h.008zm21.586 1.46c0-3.905-.002-7.81.001-11.714 0-1.034.209-1.21 1.248-1.197 1.64.019 3.28.012 4.92.017 1.855.006 1.855.007 1.82-1.83-.018-.93-.23-1.13-1.17-1.13-5.493.005-10.986.011-16.479.01-1.794 0-1.794-.01-1.839 1.792-.026 1.018.105 1.159 1.159 1.158 1.978-.001 3.956-.018 5.935-.021.85-.001 1.076.23 1.075 1.06-.01 7.548-.006 15.097-.04 22.646-.011 2.453.1 2.155 2.092 2.178 1.06.011 1.293-.194 1.293-1.255V26.152h-.015zm23.96.03c0-3.905-.002-7.809 0-11.713 0-1.058.174-1.225 1.223-1.221 1.718.006 3.436.005 5.153.012 1.683.006 1.683.008 1.667-1.687-.01-1.052-.236-1.27-1.297-1.27-5.44.003-10.88.008-16.32.005-1.423-.001-1.988-.313-1.94 1.803.022.942.133 1.145 1.103 1.148 1.9.005 3.8-.004 5.7-.012 1.05-.004 1.233.165 1.232 1.212 0 7.574-.003 15.148-.007 22.722-.001 1.907-.006 1.907 1.94 1.918.13 0 .261.005.391.004.977-.008 1.171-.21 1.171-1.21V26.182h-.017zm41.035-1.507v1.64l-.007 11.556c0 .98.256 1.277 1.048 1.273 4.555-.02 9.109-.04 13.663-.044 1.883-.002 1.925.251 1.933-1.987.002-.672-.268-.927-.931-.923-3.774.02-7.548.012-11.322.026-.9.003-1.046-.111-1.046-1.021-.003-2.629 0-5.258-.002-7.886-.001-1.084.127-1.212 1.205-1.209 3.227.011 6.454.025 9.682.016.29-.001.808-.111.834-.245.134-.692.248-1.422.16-2.113-.074-.584-.696-.503-1.163-.502-3.253.008-6.506.01-9.76.034-.66.005-.964-.265-.962-.92.006-2.733.01-5.466.006-8.199 0-.624.211-.958.916-.95 2.889.032 5.777.028 8.666.036.86.002 1.718.011 2.577 0 .892-.011 1.056-.188 1.041-1.056-.003-.156-.009-.312-.01-.468-.007-1.296-.148-1.429-1.434-1.428-4.607.001-9.214.003-13.82-.007-1.066-.003-1.281.185-1.281 1.259v13.118h.007zm-23.25-10.294c-.002-.912.215-1.132 1.165-1.133 1.535-.003 3.069.01 4.603.005 3.818-.013 6.276 2.64 5.975 6.459-.258 3.28-2.139 5.25-5.435 5.545-1.73.154-3.475.15-5.213.186-.82.016-1.074-.256-1.08-1.077-.01-1.69-.003-3.381-.003-5.071h-.012c0-1.638.002-3.276 0-4.914zm-3.274 10.308c0 4.14.024 8.28-.009 12.42-.019 2.405.202 1.98 2.003 1.992 1.154.007 1.308-.142 1.306-1.295-.005-2.865-.012-5.729-.016-8.593 0-.936.201-1.136 1.154-1.139 1.328-.004 2.657.04 3.983-.016.769-.033 1.207.3 1.555.926 1.681 3.024 3.386 6.035 5.065 9.06.417.752.942 1.2 1.87 1.072.484-.066.99.035 1.481.007.288-.017.773-.089.81-.23.07-.27-.047-.648-.205-.91-.952-1.582-1.93-3.148-2.914-4.711-1.01-1.607-2.014-3.22-3.064-4.8-.499-.75-.51-.9.344-1.221 1.533-.576 2.77-1.49 3.679-2.881 1.168-1.79 1.383-3.766 1.362-5.828-.033-3.266-2.24-6.316-5.315-7.377-1.875-.647-3.793-.865-5.756-.857-2.031.01-4.062.001-6.093-.005-1.105-.003-1.245.134-1.244 1.263V24.69h.004zM63.656 14.452c-.005-1.005.187-1.21 1.155-1.208 1.742.003 3.485-.026 5.227.017 1.505.037 2.857.517 3.904 1.661 1.24 1.355 1.316 2.976.862 4.611-.505 1.824-1.675 3.108-3.599 3.509-.757.158-1.545.204-2.32.224-1.404.036-2.81 0-4.213.02-.728.01-1.037-.302-1.023-1.033.025-1.326.007-2.652.007-3.978.002-1.274.006-2.548 0-3.823zm.002 12.636c-.005-.885.214-1.138 1.074-1.14 2.08-.005 4.16-.021 6.24.006 3.784.049 6.217 3.237 5.184 6.773-.605 2.07-2.649 3.324-4.915 3.448-2.204.12-4.42.023-6.63.04-.712.004-.963-.34-.954-1.015.02-1.377.006-2.756.006-4.134h-.003c0-1.326.005-2.652-.002-3.978zm-3.511 10.79c0 .997.201 1.224 1.16 1.225 2.967.002 5.936.053 8.9-.026 2.134-.056 4.23-.35 6.154-1.45 4.144-2.368 4.636-8.597 1.32-11.381-.704-.59-1.576-.978-2.355-1.483-.247-.16-.444-.394-.665-.595.211-.165.421-.33.633-.494.51-.395 1.095-.723 1.521-1.195 1.57-1.736 1.83-3.863 1.565-6.07-.207-1.716-.99-3.147-2.425-4.2-1.987-1.457-4.283-1.83-6.643-1.888-2.627-.064-5.257-.016-7.886-.017-1.09 0-1.278.186-1.278 1.263v13.117l-.001 13.194zm157.978 1.028c-1.336.067-2.671.174-4.006.167-.268 0-.618-.387-.787-.678-1.338-2.321-2.647-4.659-3.953-6.998-.671-1.203-1.308-2.425-1.985-3.624-.102-.182-.36-.422-.504-.397-.198.034-.412.265-.523.465-1.393 2.498-2.766 5.007-4.15 7.51-.528.956-1.082 1.898-1.602 2.858-.357.66-.823 1.01-1.63.918-.64-.072-1.299.02-1.949.016-.682-.003-.901-.382-.552-.961 2.513-4.165 5-8.344 7.57-12.473.598-.96.581-1.625-.033-2.587-2.239-3.507-4.357-7.09-6.523-10.643-.244-.4-.52-.78-.744-1.19-.241-.441-.141-.797.41-.815.884-.029 1.776-.056 2.651.04.315.036.694.37.868.67 1.454 2.493 2.872 5.007 4.29 7.521.47.837.9 1.698 1.372 2.534.106.187.321.452.47.44.206-.014.474-.21.583-.403 1.495-2.65 2.965-5.314 4.446-7.971.405-.727.772-1.486 1.264-2.15.242-.326.71-.61 1.111-.667.74-.107 1.506-.051 2.26-.029.769.023.915.312.504.98-2.492 4.055-4.985 8.11-7.493 12.156-.324.523-.378.997-.057 1.529 2.5 4.142 4.98 8.295 7.51 12.419.241.392.781.6 1.182.895v.468z"/>
    </g>
</svg>
