<svg xmlns="http://www.w3.org/2000/svg" width="19" height="21" viewBox="0 0 19 21">
    <path fill="#FFF" fill-opacity=".8" fill-rule="evenodd" d="M13.512 17.23c-1.171.722-2.542 1.145-4.012 1.145-4.285 0-7.773-3.533-7.773-7.875 0-.922.164-1.803.453-2.625H.366C.132 8.711 0 9.588 0 10.5c0 5.316 4.253 9.625 9.5 9.625 1.836 0 3.54-.543 4.992-1.459l1.6 2.334 1.859-6.116h-6.04l1.601 2.347zM19 10.5c0 .912-.134 1.79-.367 2.625h-1.815c.289-.823.455-1.704.455-2.625 0-4.342-3.488-7.875-7.773-7.875-1.474 0-2.847.423-4.02 1.15l1.604 2.35h-6.04L2.901 0l1.597 2.338C5.954 1.421 7.659.875 9.5.875c5.246 0 9.5 4.308 9.5 9.625z"/>
</svg>
