<svg xmlns="http://www.w3.org/2000/svg" width="207" height="36" viewBox="0 0 207 36">
    <path fill="#061D2A" fill-rule="evenodd" d="M30.153 17.6s-2.282 3.41-4.1 5.575c-2.256 2.624-4.644 4.264-8.294 4.264-5.363.031-9.737-4.244-9.768-9.548 0-.098 0-.195.003-.292-.132-5.295 4.102-9.694 9.457-9.825.112-.002.223-.003.335-.002 3.65 0 6.038 1.587 8.293 4.251 1.792 2.165 4.074 5.576 4.074 5.576l4.378-5.983C31.19 2.478 20.99-2.25 11.748 1.053 2.506 4.358-2.277 14.444 1.065 23.582 4.407 32.72 14.607 37.449 23.85 34.145c4.97-1.777 8.885-5.648 10.682-10.563l-4.378-5.983zm164.772-7.48c-3.692-.057-6.905 2.487-7.656 6.062v.236h15.392c-.562-3.751-3.905-6.473-7.736-6.298zm-115.438.132c-4.397.072-7.902 3.654-7.83 8.001v.002c-.073 4.347 3.43 7.93 7.827 8.004h.003c4.368-.135 7.837-3.682 7.828-8.004.074-4.347-3.43-7.93-7.827-8.003h-.001zm62.76 0c-4.396.072-7.9 3.654-7.828 8.001v.002c0 4.275 3.505 7.741 7.829 7.741 4.323 0 7.828-3.466 7.828-7.74.074-4.348-3.43-7.931-7.826-8.004h-.002zm27.202-3.936c5.6 0 9.66 3.791 9.819 10.876v12.215h-4.246V17.6c0-5.117-2.388-7.347-6.104-7.347-3.715 0-6.634 2.873-6.767 7.15v11.809h-4.246V6.97h4.246v2.887c1.753-2.227 4.444-3.533 7.298-3.542zm-52.81 0c5.6 0 9.66 3.791 9.819 10.876v12.215h-4.246V17.6c0-5.117-2.388-7.347-6.104-7.347-3.715 0-6.634 2.873-6.766 7.15v11.809h-4.247V6.97h4.247v2.887c1.752-2.227 4.443-3.533 7.297-3.542zM95.41 29.407h4.246V7.103h-4.246v22.304zm99.516-23.091c6.647-.022 12.053 5.288 12.075 11.86v.08c0 .8-.106 1.705 0 1.836l-19.466-.131v.131c.667 3.583 3.88 6.147 7.564 6.035 2.837.007 5.542-1.187 7.43-3.28l.093-.092 2.786 2.756c-2.657 2.958-6.48 4.633-10.482 4.592-6.639-.071-12.002-5.375-12.074-11.94 0-6.521 5.345-11.808 11.94-11.809h.134v-.038zM55.602 6.184c3.832-.116 7.477 1.635 9.753 4.684l.2.302-2.92 2.887c-1.456-2.387-4.08-3.834-6.9-3.805-4.301-.023-7.807 3.407-7.83 7.66l.001.212c-.14 4.208 3.197 7.73 7.452 7.869.126.004.252.005.377.003 2.67-.027 5.17-1.301 6.74-3.437l.16-.237 2.92 2.756c-2.28 3.186-6.006 5.052-9.953 4.985-6.684-.013-12.12-5.33-12.207-11.939.087-6.61 5.523-11.926 12.207-11.94zm23.885.132c6.668 0 12.074 5.345 12.074 11.94 0 6.593-5.406 11.939-12.074 11.939-6.669 0-12.075-5.346-12.075-11.94.022-6.585 5.414-11.918 12.075-11.94zm62.76 0c6.67 0 12.076 5.345 12.076 11.94 0 6.593-5.407 11.939-12.075 11.939-6.669 0-12.074-5.346-12.074-11.94.02-6.585 5.414-11.918 12.074-11.94z"/>
</svg>
