<svg xmlns="http://www.w3.org/2000/svg" width="236" height="42" viewBox="0 0 236 42">
    <path fill="#0059FF" fill-rule="evenodd" d="M34.4 21.763s-2.599 3.928-4.67 6.421c-2.569 3.022-5.289 4.911-9.445 4.911-6.109.035-11.092-4.888-11.126-10.997 0-.111 0-.223.003-.335-.15-6.098 4.673-11.164 10.772-11.314.127-.003.254-.005.381-.003 4.156 0 6.877 1.828 9.446 4.895 2.04 2.493 4.64 6.422 4.64 6.422l4.987-6.89C35.582 4.349 23.963-1.097 13.438 2.708 2.911 6.515-2.537 18.13 1.27 28.653c3.806 10.522 15.425 15.969 25.95 12.164 5.662-2.047 10.12-6.503 12.167-12.164l-4.987-6.89zM111.146.76c1.554.075 2.796 1.317 2.872 2.87 0 1.586-1.285 2.871-2.872 2.871-1.585 0-2.871-1.285-2.871-2.87 0-1.585 1.286-2.871 2.871-2.871zm110.931 12.39c-4.204-.067-7.865 2.863-8.718 6.98v.272h17.53c-.64-4.32-4.447-7.455-8.812-7.252zm-131.484.15c-5.007.084-8.999 4.209-8.917 9.216v.001c-.083 5.006 3.906 9.133 8.915 9.217h.002c4.976-.155 8.927-4.238 8.916-9.217.085-5.005-3.906-9.132-8.913-9.216h-.003zm71.485 0c-5.007.084-8.998 4.209-8.915 9.216v.001c0 4.925 3.991 8.915 8.915 8.915 4.925 0 8.917-3.99 8.917-8.915.084-5.005-3.907-9.132-8.914-9.216h-.003zm30.982-4.532c6.378 0 11.002 4.366 11.184 12.526V35.36h-4.836V21.763c0-5.893-2.72-8.461-6.951-8.461-4.233 0-7.557 3.309-7.71 8.234v13.599h-4.835V9.525h4.836v3.323c1.996-2.564 5.063-4.069 8.312-4.08zm-60.15 0c6.377 0 11.002 4.366 11.185 12.526V35.36h-4.838V21.763c0-5.893-2.719-8.461-6.952-8.461-4.232 0-7.557 3.309-7.708 8.234v13.599h-4.836V9.525h4.836v3.323c1.997-2.564 5.063-4.069 8.312-4.08zM108.726 35.36h4.837V9.675h-4.837v25.686zM222.077 8.77c7.57-.026 13.727 6.09 13.752 13.659v.09c0 .922-.12 1.965 0 2.116l-22.17-.151v.15c.76 4.127 4.42 7.08 8.614 6.951 3.233.008 6.313-1.366 8.465-3.777l.104-.106 3.175 3.173c-3.027 3.407-7.383 5.337-11.94 5.288-7.562-.081-13.672-6.189-13.752-13.75-.002-7.51 6.087-13.598 13.6-13.598h.151V8.77zm-158.69-.151c4.365-.135 8.516 1.882 11.109 5.394l.227.347-3.325 3.324c-1.66-2.748-4.648-4.415-7.86-4.381-4.899-.026-8.892 3.924-8.917 8.82-.002.082 0 .164.001.245-.159 4.846 3.64 8.903 8.488 9.061.143.005.287.006.429.005 3.04-.03 5.89-1.499 7.677-3.959l.182-.272 3.325 3.173c-2.597 3.669-6.84 5.819-11.335 5.742-7.613-.017-13.805-6.14-13.904-13.75.1-7.61 6.291-13.733 13.904-13.75zm27.205.15c7.595 0 13.753 6.156 13.753 13.75 0 7.593-6.158 13.75-13.753 13.75-7.596 0-13.753-6.157-13.753-13.75.025-7.583 6.167-13.723 13.753-13.75zm71.485 0c7.596 0 13.754 6.156 13.754 13.75 0 7.593-6.158 13.75-13.754 13.75-7.594 0-13.753-6.157-13.753-13.75.026-7.583 6.168-13.723 13.753-13.75z"/>
</svg>
