<svg xmlns="http://www.w3.org/2000/svg" width="270" height="52" viewBox="0 0 270 52">
    <g fill="none" fill-rule="evenodd">
        <path fill="#FFF" d="M22.402 0L0 12.926 0 38.78 22.402 51.706 44.805 38.78 44.805 12.926z"/>
        <path fill="#07121C" d="M22.402 0L0 12.926V38.78l22.402 12.926L44.805 38.78V12.926L22.402 0zM13.56 11.176h17.643l2.11 8.977H11.493l2.066-8.977zm5.072 15.395l-1.93-5.027h11.403l-1.886 5.027.54 5.61h-8.71l.583-5.61zm5.612 11.535v-1.795l3.951-3.77v-5.97l5.162-3.366 5.882 4.443-7.992 13.96H28.06l-3.816-3.502zM5.567 27.648l5.926-4.398 5.208 3.321v5.97l3.951 3.77v1.795l-3.816 3.546h-3.233L5.567 27.648z"/>
        <g fill="#07121C">
            <path d="M10.67 25.856C4.743 25.856.389 21.233.389 15.533s4.4-10.458 10.326-10.458c3.77 0 6.105 1.391 7.946 3.41l-2.828 3.053c-1.392-1.48-2.874-2.469-5.163-2.469-3.322 0-5.747 2.873-5.747 6.374 0 3.59 2.47 6.463 5.97 6.463 2.156 0 3.727-1.032 5.164-2.469l2.739 2.738c-1.976 2.11-4.266 3.68-8.126 3.68M27.46 25.856h-4.579V5.12h4.58v4.847c1.256-2.962 3.546-5.027 7.048-4.847v4.847h-.27c-3.995 0-6.779 2.603-6.779 7.9v7.989zM58.438 5.03L48.337 31.422 43.712 31.422 45.912 25.856 37.247 5.03 42.141 5.03 48.022 20.425 53.679 5.03zM72.939 25.811c-3.277 0-5.343-1.66-6.734-3.5v9.11h-4.58V5.03h4.58v3.725C67.686 6.69 69.75 5.03 72.939 5.03c4.714 0 9.293 3.725 9.293 10.368 0 6.643-4.534 10.413-9.293 10.413M71.906 9.024c-3.098 0-5.791 2.514-5.791 6.419s2.738 6.418 5.791 6.418c3.143 0 5.702-2.468 5.702-6.418s-2.604-6.419-5.702-6.419M92.244 9.384v9.784c0 1.75.897 2.468 2.47 2.468h1.794v4.085h-3.142c-3.322 0-5.702-1.48-5.702-5.834V9.384H85.15V5.479h2.514V.003h4.58v5.476h4.264v3.905h-4.264zM110.92 25.856c-6.06 0-10.55-4.623-10.55-10.323 0-5.745 4.534-10.458 10.64-10.458 6.105 0 10.595 4.623 10.595 10.368 0 5.655-4.49 10.413-10.685 10.413m0-16.832c-3.681 0-6.016 2.873-6.016 6.374 0 3.546 2.514 6.463 6.06 6.463 3.682 0 6.016-2.872 6.016-6.373.09-3.546-2.468-6.464-6.06-6.464M165.288 25.856c-6.061 0-10.551-4.623-10.551-10.323 0-5.745 4.535-10.458 10.64-10.458 6.106 0 10.595 4.623 10.595 10.368 0 5.655-4.534 10.413-10.684 10.413m0-16.832c-3.681 0-6.016 2.873-6.016 6.374 0 3.546 2.514 6.463 6.06 6.463 3.682 0 6.016-2.872 6.016-6.373.045-3.546-2.469-6.464-6.06-6.464M203.09 5.03c4.354 0 7.003 2.738 7.003 7.63v13.151h-4.58v-11.76c0-3.186-1.481-4.847-4.04-4.847-2.47 0-4.265 1.75-4.265 4.937v11.715h-4.58V14.051c0-3.096-1.526-4.847-4.04-4.847-2.514 0-4.265 1.885-4.265 4.982v11.67h-4.58V5.075h4.58v3.411c1.302-1.75 3.008-3.411 6.06-3.411 2.874 0 4.85 1.392 5.927 3.5 1.661-2.153 3.771-3.545 6.78-3.545M130 21.637L130 23.971 129.865 24.195 127.845 25.318 127.576 25.318 125.601 24.195 125.466 23.971 125.466 21.637 125.601 21.412 127.576 20.29 127.845 20.29 129.865 21.412zM143.873 25.811c-5.927-.135-10.191-4.847-10.101-10.548.09-5.7 4.579-10.367 10.55-10.233 3.771.09 6.106 1.526 7.901 3.59l-2.873 3.008c-1.347-1.482-2.829-2.559-5.118-2.604-3.322-.045-5.791 2.739-5.836 6.284-.09 3.59 2.334 6.508 5.836 6.553 2.155.045 3.771-.942 5.208-2.379l2.694 2.783c-2.02 2.11-4.355 3.636-8.261 3.546" transform="translate(59.277 11.981)"/>
        </g>
    </g>
</svg>
