<svg xmlns="http://www.w3.org/2000/svg" width="1800" height="638" viewBox="-400 181 1800 638"><g fill="#DE5959"><path d="M-124.313 496.054l-4.342-4.359c-3.276-3.273-8.911-.955-8.911 3.688v62.254c0 2.878 2.355 5.214 5.241 5.214h62.265c4.639 0 6.984-5.624 3.679-8.901a5.218 5.218 0 0 1 0-7.368L-.149 480.17c2.033-2.03 2.033-5.327 0-7.372l-6.033-6.011c-3.278-3.273-.941-8.898 3.688-8.898h62.231c2.877 0 5.23 2.337 5.23 5.215v62.257c0 4.638-5.65 6.966-8.928 3.688l-4.203-4.194c-2.06-2.092-5.338-2.092-7.359 0L-67.177 636.461c-2.029 2.023-5.326 2.023-7.383 0l-136.605-136.612a5.208 5.208 0 0 1 0-7.395l189.112-189.107c2.023-2.035 2.023-5.356 0-7.384l-44.468-44.465a5.245 5.245 0 0 0-7.384 0l-244.797 244.824c-2.029 2.036-2.029 5.357 0 7.384l244.797 244.797c2.03 2.023 5.361 2.023 7.384 0l244.788-244.797c2.022-2.035 2.022-5.339 0-7.368L34.25 352.319c-2.014-2.026-5.327-2.026-7.368 0l-143.801 143.737a5.205 5.205 0 0 1-7.393 0l-.001-.002zM1005.676 557.995c-6.311 0-11.756 2.262-16.32 6.809-4.506 4.551-6.807 9.924-6.807 16.145 0 9.484 4.811 16.861 14.365 22.132 10.48 2.861 18.902.999 25.242-5.487 4.582-4.579 6.838-10.069 6.838-16.466 0-6.475-2.256-11.888-6.838-16.322-4.545-4.519-10.006-6.777-16.494-6.777l.014-.028v-.006zM633.684 382.03h-17.26c-7.455 0-13.518 6.018-13.518 13.473v9.627c-18.359-19.094-39.148-28.646-62.365-28.646-26.813 0-49.186 9.978-67.025 29.879-17.89 19.901-26.799 44.777-26.799 74.644 0 30.378 8.909 55.739 26.747 76.065 18.036 19.911 40.778 29.864 68.325 29.864 21.785 0 42.172-8.895 61.119-26.639v19.034c0 9.246 7.516 16.761 16.748 16.761h29.469V397.456c0-8.498-6.927-15.426-15.441-15.426zm-43.619 146.189c-10.502 11.728-24.252 17.583-41.307 17.583-15.975 0-29.209-6.062-39.674-18.186-10.249-11.977-15.359-27.562-15.359-46.639 0-17.846 5.259-32.876 15.75-44.995 10.627-12.008 23.854-17.979 39.676-17.979 16.773 0 30.387 5.916 40.889 17.831 10.506 12.122 15.758 27.503 15.758 46.186 0 18.684-5.252 34.063-15.758 46.215l.029-.015-.004-.001zM446.701 415.64v-19.695c0-7.688-6.222-13.881-13.914-13.881h-18.189c-7.663 0-13.898 6.164-13.898 13.881v8.603c-16.636-18.696-37.494-28.061-62.578-28.061-28.628 0-51.695 10.801-69.133 32.315-16.229 20.283-24.338 44.983-24.338 74.026 0 29.852 8.744 54.758 26.203 74.643 17.316 19.681 39.53 29.44 66.666 29.44 23.83 0 44.908-9.303 63.179-27.988v27.813c0 41.327-16.831 61.991-50.496 61.991-18.276 0-32.159-6.222-41.7-18.637-2.433-3.142-4.453-7.074-6.06-11.771-2.255-6.575-8.507-10.948-15.435-10.948h-17.436c-8.793 0-15.328 8.365-13.104 16.877 4.769 18.109 13.977 32.844 27.687 44.247C301.33 682.822 323.226 690 349.792 690c31.487 0 56.237-10.391 74.246-31.085 9.541-10.772 15.924-23.658 19.205-38.656 1.094-5.43 1.95-11.753 2.553-18.931.601-7.133.899-15.412.899-24.832v-28.941c-12.875-18.566-19.355-40.742-19.355-66.57 0-25.376 6.467-47.111 19.355-65.324v-.015l.006-.006zm-58.279 111.009c-10.22 12.768-24.105 19.151-41.716 19.151-17.588 0-31.354-6.343-41.326-19.035-9.115-11.563-13.681-26.447-13.681-44.556 0-18.419 4.564-33.417 13.681-44.995 10.113-12.931 23.864-19.4 41.326-19.4 16.351 0 29.786 5.926 40.271 17.771 10.366 11.58 15.568 27.052 15.568 46.438 0 18.124-4.718 32.976-14.125 44.599v.031l.002-.004zm440.774-144.472v-.146h-95.424v-58.426c0-7.513-6.074-13.604-13.604-13.604h-18.627c-7.602 0-13.768 6.164-13.768 13.767v58.264h-19.646v42.913h19.621v171.122h26.238a19.715 19.715 0 0 0 19.758-19.755V424.973h47.184a96.544 96.544 0 0 1 13.604-19.697c9.775-10.654 21.338-18.374 34.635-23.099h.031-.002zM1063.981 310c-8.16 0-15.176 2.936-21.045 8.806-5.842 5.854-8.807 12.826-8.807 20.854 0 8.471 2.939 15.572 8.807 21.488 5.869 5.854 12.973 8.776 21.279 8.776 8.32 0 15.32-2.921 21.031-8.793 5.855-5.899 8.824-12.942 8.824-21.264 0-8.294-2.939-15.336-8.809-21.03-5.886-5.899-12.97-8.837-21.28-8.837zm9.32 94.572h-16.688c-8.555 0-15.527 6.929-15.527 15.527v146.085c3.521 4.125 5.195 8.983 5.195 14.632s-1.674 10.565-5.195 14.72v8.221h29.617c9.072 0 16.408-7.354 16.408-16.44V418.339c0-7.604-6.191-13.767-13.826-13.767h.016zm216.25 28.21c-20.723-20.299-45.951-30.455-75.67-30.455-29.586 0-54.684 10.069-75.258 30.278-20.574 20.164-30.879 44.645-30.879 73.409 0 30.527 10.068 55.888 30.262 76.08 20.195 20.431 45.23 30.659 75.049 30.659 30.119 0 55.553-10.01 76.291-30.058 20.545-20.209 30.877-45.188 30.877-75.052 0-29.602-10.229-54.552-30.672-74.893v.032zm-32.553 121.487c-10.742 11.608-25.125 17.347-43.113 17.347-17.891 0-32.262-5.826-43.178-17.583-10.625-11.563-15.953-27.354-15.953-47.226 0-18.521 5.486-33.667 16.391-45.379 10.889-11.712 25.129-17.598 42.736-17.598 17.832 0 32.23 5.886 43.117 17.598 10.777 11.564 16.174 27.064 16.174 46.377 0 19.402-5.4 34.84-16.174 46.433v.031z"/><path d="M846.338 546.226c-9.484-9.6-14.779-22.69-16-39.039h131.879c6.018 0 10.98-4.814 11.066-10.816 0-32.918-8.455-58.573-25.346-77.126-17.066-18.664-40.258-28-69.551-28-29 0-52.332 9.627-69.912 28.825-17.465 19.518-26.184 44.994-26.184 76.49 0 31.761 9.012 57.266 26.975 76.465 12.561 13.354 27.959 22.011 46.229 26.048 7.662 1.803 15.617 2.742 23.643 2.624 32.771.677 61.256 1.351 94.014 2.027l.047-4.8c-4.01-4.357-6.02-9.611-6.02-15.748 0-5.957 2.1-11.079 6.189-15.51l.031-5.827c-25.859-.646-88.465-1.263-90.959-1.263-14.676 0-26.742-4.74-36.102-14.322v-.028h.001zm-6.402-91.989c2.895-4.492 6.314-8.337 10.35-11.536 4.035-3.243 8.469-5.666 13.4-7.367 4.9-1.703 10.154-2.555 15.758-2.555 24.512 0 39.98 12.255 46.436 36.78h-92.471c1.508-5.711 3.682-10.818 6.527-15.324v.002z"/></g></svg>