<svg xmlns="http://www.w3.org/2000/svg" width="159" height="36" viewBox="0 0 159 36">
    <path fill="#061D2A" fill-rule="evenodd" d="M154.22 27.169h4.335c.367 0 .575-.414.355-.703l-9.042-11.89-2.723 3.58 6.72 8.838c.084.11.216.175.355.175M138.574.016h-4.335c-.366 0-.575.414-.355.703l8.874 11.669 2.724-3.58L138.928.19c-.084-.11-.215-.174-.354-.174M153.7.19l-24.08 31.664c-.083.11-.215.176-.354.176H2.762c-.14 0-.271.064-.355.175L.09 35.252c-.22.29-.012.703.354.703h131.273c.14 0 .27-.065.354-.175L158.744.72c.22-.29.012-.703-.355-.703h-4.335c-.139 0-.27.064-.354.174M121.822 27.17h4.663c.316 0 .531-.319.41-.607L115.873.287c-.068-.165-.23-.271-.41-.271h-3.975c-.18 0-.341.106-.41.27l-11.021 26.276c-.121.288.094.607.41.607h4.44c.182 0 .345-.11.412-.277l2.567-6.393c.067-.166.23-.276.412-.276h10.12c.182 0 .345.11.412.276l2.58 6.394c.068.166.23.276.412.276M109.88 15.535l3.054-7.606c.148-.369.675-.37.824 0l3.07 7.605c.116.289-.099.602-.413.602h-6.123c-.313 0-.527-.313-.412-.601M27.504 12.05h-9.548c-.14 0-.27.064-.354.174l-2.44 3.21c-.22.288-.011.702.354.702h6.313c.305 0 .523.3.42.585-1.21 3.323-4.308 5.57-8.136 5.57-1.302 0-2.516-.266-3.604-.74-3.05-1.327-5.083-4.33-5.083-8.003 0-4.985 3.735-8.743 8.687-8.743 2.587 0 4.841 1.026 6.404 2.716.189.204.515.192.683-.029l2.555-3.358c.135-.179.117-.432-.05-.583C21.267 1.327 17.949 0 14.187 0 6.368 0 .243 5.983.243 13.62c0 5.224 2.898 9.663 7.243 11.907 1.939 1.002 4.165 1.57 6.554 1.57 7.819 0 13.943-5.983 13.943-13.621 0-.345-.012-.686-.036-1.023-.016-.229-.212-.403-.443-.403m50.534.779V4.97c0-.243.199-.439.444-.439h5.162c2.98 0 5.586 1.762 5.586 4.386 0 2.602-2.607 4.35-5.586 4.35h-5.162c-.245 0-.444-.196-.444-.438M84.084.016H73.297c-.245 0-.443.196-.443.439V26.73c0 .242.198.439.443.439h4.266c.245 0 .443-.196.444-.438l.03-8.621c0-.242.199-.438.443-.438h5.458c5.72 0 10.582-3.728 10.582-8.865 0-5.177-4.71-8.792-10.436-8.792M49.017 22.29c-4.952 0-8.687-3.759-8.687-8.743 0-4.985 3.735-8.743 8.687-8.743 4.951 0 8.686 3.758 8.686 8.743 0 4.984-3.735 8.743-8.686 8.743M49.09 0c-7.818 0-13.943 5.983-13.943 13.62 0 7.557 6.06 13.476 13.797 13.476 7.819 0 13.943-5.982 13.943-13.62C62.887 5.793 56.956 0 49.09 0"/>
</svg>
