<svg xmlns="http://www.w3.org/2000/svg" width="81" height="18" viewBox="0 0 81 18">
    <path fill="#061D2A" fill-rule="evenodd" d="M78.565 13.602h2.208c.187 0 .293-.208.18-.352l-4.605-5.953L74.96 9.09l3.423 4.425c.043.055.11.088.181.088M70.595.008h-2.21c-.186 0-.292.207-.18.352l4.52 5.842 1.388-1.793L70.775.095c-.043-.055-.11-.087-.18-.087M78.3.095L66.033 15.947c-.043.056-.11.088-.18.088H1.406c-.071 0-.138.032-.18.088L.045 17.648c-.112.145-.006.352.18.352h66.875c.071 0 .138-.032.18-.087L80.87.36c.113-.145.006-.352-.18-.352H78.48c-.07 0-.137.032-.18.087M62.06 13.602h2.376c.16 0 .27-.16.208-.305L59.03.144c-.035-.083-.117-.136-.209-.136h-2.025c-.092 0-.174.053-.209.136l-5.615 13.153c-.061.145.048.305.21.305h2.261c.093 0 .176-.056.21-.139l1.308-3.2c.034-.084.117-.139.21-.139h5.155c.093 0 .176.055.21.138l1.314 3.201c.035.084.118.139.21.139m-6.084-5.825l1.556-3.807c.075-.185.344-.185.42 0l1.563 3.807c.06.144-.05.301-.21.301h-3.119c-.16 0-.269-.157-.21-.3M14.012 6.031H9.147c-.07 0-.137.033-.18.088L7.724 7.726c-.112.145-.006.352.18.352h3.216c.156 0 .267.15.214.293-.616 1.663-2.194 2.788-4.144 2.788-.664 0-1.282-.132-1.837-.37-1.553-.664-2.589-2.167-2.589-4.007 0-2.495 1.903-4.377 4.426-4.377 1.317 0 2.466.514 3.262 1.36.096.102.263.096.348-.014l1.301-1.681c.07-.09.06-.217-.024-.292C10.834.664 9.143 0 7.227 0 3.244 0 .124 2.995.124 6.819c0 2.615 1.476 4.837 3.69 5.96.987.502 2.122.786 3.338.786 3.984 0 7.103-2.995 7.103-6.819 0-.172-.006-.343-.018-.512-.008-.114-.108-.202-.225-.202m25.743.39V2.488c0-.121.101-.22.226-.22h2.63c1.518 0 2.846.883 2.846 2.196 0 1.303-1.328 2.178-2.846 2.178h-2.63c-.125 0-.226-.098-.226-.22m3.08-6.414H37.34c-.125 0-.226.098-.226.22v13.154c0 .122.101.22.226.22h2.173c.125 0 .226-.098.226-.22l.016-4.315c0-.121.101-.22.225-.22h2.78c2.915 0 5.392-1.866 5.392-4.437 0-2.592-2.4-4.402-5.317-4.402M24.971 11.16c-2.523 0-4.425-1.882-4.425-4.378 0-2.495 1.902-4.377 4.425-4.377 2.522 0 4.425 1.882 4.425 4.377 0 2.496-1.903 4.378-4.425 4.378M25.008 0c-3.983 0-7.103 2.995-7.103 6.819 0 3.783 3.087 6.746 7.028 6.746 3.984 0 7.104-2.995 7.104-6.819C32.037 2.9 29.015 0 25.008 0"/>
</svg>
