<?xml version="1.0" encoding="utf-8"?>
<!-- Generator: Adobe Illustrator 21.1.0, SVG Export Plug-In . SVG Version: 6.00 Build 0)  -->
<svg version="1.1" id="Layer_1" xmlns="http://www.w3.org/2000/svg" xmlns:xlink="http://www.w3.org/1999/xlink" x="0px" y="0px"
	 viewBox="0 0 114.1 48.4" style="enable-background:new 0 0 114.1 48.4;" xml:space="preserve">
<style type="text/css">
	.st0{fill:#57BAE5;}
	.st1{fill:#005472;}
	.st2{fill:#34AFE4;}
	.st3{fill:#0076A7;}
	.st4{fill:#009DE2;}
	.st5{fill:#7ACDF2;}
	.st6{fill:#00ABE7;}
	.st7{fill:#008DBE;}
	.st8{fill:#00698D;}
	.st9{fill:#09A1CB;}
	.st10{fill:#8BDAFF;}
	.st11{fill:#42ACDB;}
</style>
<path class="st0" d="M80.4,10.1L78,19.5l-16.7,2.2L80.4,10.1z"/>
<path class="st1" d="M84.9,48.3l4.1-17.2l-5.4-2.2L84.9,48.3z"/>
<path class="st2" d="M78,19.5l-4.4,9l-12.2-6.8L78,19.5z"/>
<path class="st3" d="M84.9,48.3l-1.2-19.4l-10.1-0.4L84.9,48.3z"/>
<path class="st4" d="M78,19.5l5.8,9.3l-10.1-0.3L78,19.5z"/>
<g>
	<path class="st5" d="M80.4,10.1l13.8,1.7L78,19.5L80.4,10.1z"/>
	<path class="st5" d="M109.3,5.8l-8.7,10.1l0.6-9.3L109.3,5.8z"/>
	<path class="st5" d="M114.1,0l-4.8,5.8l3.8,0.5L114.1,0z"/>
</g>
<path class="st6" d="M104.6,11l8.4-4.8l-3.8-0.5L104.6,11z"/>
<path class="st3" d="M89.1,31.1l0.4-11.6l-5.8,9.4L89.1,31.1z"/>
<path class="st7" d="M89.5,19.5l-5.8,9.4L78,19.5L89.5,19.5z"/>
<path class="st0" d="M94.2,11.8l-4.7,7.7l-11.5,0L94.2,11.8z"/>
<path class="st8" d="M89.5,19.5l-0.4,11.6l10.6,10.8L89.5,19.5z"/>
<path class="st9" d="M105.2,35.8L99.6,22l0.1,19.9L105.2,35.8z"/>
<path class="st9" d="M100.6,15.9l-1,6.1l-10.1-2.5L100.6,15.9z"/>
<path class="st10" d="M105.8,24.2L99.6,22l1-6.1L105.8,24.2z"/>
<path class="st5" d="M108,35.5l-6.7-10.7h3.8L108,35.5z"/>
<path class="st0" d="M95.5,9.5l5.2,6.3l0.6-9.3L95.5,9.5z"/>
<path class="st7" d="M99.6,22l-10.1-2.5l10.2,22.4L99.6,22z"/>
<path class="st3" d="M105.2,35.8l2.2,1.2l-7.7,4.8L105.2,35.8z"/>
<path class="st0" d="M108,35.3L99.6,22l5.6,13.9L108,35.3z"/>
<path class="st5" d="M95.5,9.5l-6,10l11.1-3.7L95.5,9.5z"/>
<path d="M15.7,38.9l1.6,0.8l1.6-0.8v9.3h-3.2L15.7,38.9z M15.4,35.8c0.1-1,0.9-1.7,1.9-1.6c0.9-0.1,1.7,0.5,1.9,1.4
	c0.1,0.9-0.5,1.7-1.4,1.9c-0.2,0-0.3,0-0.5,0C16.4,37.5,15.5,36.8,15.4,35.8C15.4,35.8,15.4,35.8,15.4,35.8L15.4,35.8z"/>
<path d="M8.1,34v5.5H3.5V34H0v14.3h3.5v-5.5h4.5v5.5h3.5V34H8.1z"/>
<path d="M26.4,48.3h-3.3v-7.1h-1.3v-3.1h1.3v-3.4h3.3v3.4h1.3v3.1h-1.3V48.3z"/>
<path class="st11" d="M34.5,45h2.9c1.1,0,1.5-0.7,1.5-1.3s-0.4-1.3-1.5-1.3h-2.9V45z M34.5,39.5h2.6c0.6,0.1,1.2-0.3,1.3-0.9
	c0,0,0,0,0,0c0-0.1,0-0.1,0-0.2c0-0.4-0.2-1.1-1.3-1.1h-2.6L34.5,39.5z M36.8,34c4.3,0,5,2.6,5,3.9c0.1,1.3-0.6,2.5-1.8,3
	c1.4,0.4,2.3,1.8,2.2,3.2c0,2.2-1.3,4.2-5.6,4.2H31V34H36.8z"/>
<path class="st11" d="M51.3,48.3h-3.5v-11h-3.7V34h11v3.2h-3.7V48.3z"/>
<path class="st11" d="M69.8,36.3l-2.3,2.1c-0.9-0.8-2-1.2-3.2-1.2c-2.1-0.1-3.8,1.6-3.9,3.7c0,0,0,0,0,0c0,0.1,0,0.2,0,0.3
	c-0.1,2.1,1.5,3.9,3.5,4c0,0,0,0,0,0h0.3c1.2,0,2.3-0.4,3.2-1.2l2.3,2.1c-1.4,1.5-3.4,2.4-5.5,2.4c-4,0-7.3-3.3-7.3-7.3
	c0-4,3.3-7.3,7.3-7.3C66.4,33.9,68.4,34.7,69.8,36.3z"/>
</svg>
