<svg xmlns="http://www.w3.org/2000/svg" width="102" height="29" viewBox="0 0 102 29">
    <path fill="#1FAA8E" fill-rule="evenodd" d="M87.942 21.107h2.505V8.382h-2.505v12.725zm-17.386-10.62h3.355V8.4h-9.425v2.19h3.392V21.09h2.678V10.488zm-22.34-2.102h-2.65v4.825h-5.003V8.372h-2.568v12.711h2.65V15.71h5.02v5.396h2.551V8.385zm11.995 6.09c-.05-.367-.076-1.12-.261-1.828-.462-1.76-1.937-2.62-3.691-2.227-1.533.343-2.353 1.57-2.48 3.708-.15 2.535.58 4.224 2.049 4.729.171.058.355.086.535.115 2.43.382 3.777-1.065 3.848-4.496zm-9.251.81c.031-5.037 2.296-7.344 6.388-7.208 3.09.102 5.007 1.775 5.517 4.885.133.813.182 1.66.132 2.482-.293 4.828-4.626 7.406-8.947 5.298-2.536-1.237-3.072-3.584-3.09-5.456zm27.723-1.55s3.13.525 3.375-1.192c.024-.174.165-1.07-.08-1.347-.91-1.024-2.116-.643-3.295-.565v3.104zm-.012 5.155c1.255-.075 2.603.465 3.516-.74.308-.407.313-1.473 0-1.864-.93-1.165-2.274-.628-3.516-.712v3.316zm4.695-4.554c1.755 1.145 2.24 2.185 1.88 3.945-.302 1.472-1.537 2.625-3.381 2.77-1.898.15-3.816.034-5.828.034V8.421c1.977 0 3.969-.1 5.944.034 1.37.094 2.614.7 2.936 2.271.312 1.524-.07 2.823-1.55 3.61zM102 8.347h-9.41v2.246h3.374v10.473h2.726V10.573H102V8.347zm-92.926.781c.741-.465 1.294-.72 1.736-1.107.945-.827 1.753-.68 2.786-.045 3.2 1.967 6.473 3.812 9.72 5.701.737.43 1.479.85 2.423 1.39 0-1.484.074-2.725-.037-3.95-.044-.493-.376-1.147-.777-1.39-3.285-2.004-6.61-3.941-9.947-5.856-.333-.191-.926-.28-1.226-.109-3.612 2.068-7.19 4.193-10.963 6.412l8.61 5.047 2.603-3.182-4.928-2.91zM2.796 14.02c0 1.478.057 2.637-.018 3.787-.057.869.285 1.324 1.008 1.737 3.179 1.818 6.339 3.673 9.475 5.566.71.428 1.236.477 1.973.03 3.132-1.902 6.308-3.728 9.464-5.588.292-.173.555-.395.961-.687l-8.822-5.168-2.585 3.17 4.65 2.797c-.718.478-1.288.781-1.769 1.193-.843.722-1.564.733-2.532.104-2.035-1.32-4.17-2.482-6.265-3.707-1.766-1.033-3.533-2.062-5.54-3.234zM14.532 0c4.164 2.487 8.3 5.022 12.51 7.428 1.14.652 1.6 1.332 1.552 2.687-.112 3.194-.067 6.395-.015 9.593.013.86-.283 1.32-1.006 1.736-4.129 2.379-8.241 4.787-12.328 7.238-.732.439-1.255.413-1.973-.014C8.864 26.04 4.427 23.463 0 20.868V8.348c2.166-1.274 4.34-2.536 6.497-3.825C9 3.028 11.49 1.51 13.984 0h.548z"/>
</svg>
