<?xml version="1.0" encoding="UTF-8" standalone="no"?>
<svg
   xmlns:dc="http://purl.org/dc/elements/1.1/"
   xmlns:cc="http://creativecommons.org/ns#"
   xmlns:rdf="http://www.w3.org/1999/02/22-rdf-syntax-ns#"
   xmlns:svg="http://www.w3.org/2000/svg"
   xmlns="http://www.w3.org/2000/svg"
   height="67.047028"
   width="126.94056"
   id="svg40"
   version="1.1"
   viewBox="0 0 126.94056 67.047028">
  <metadata
     id="metadata46">
    <rdf:RDF>
      <cc:Work
         rdf:about="">
        <dc:format>image/svg+xml</dc:format>
        <dc:type
           rdf:resource="http://purl.org/dc/dcmitype/StillImage" />
      </cc:Work>
    </rdf:RDF>
  </metadata>
  <defs
     id="defs44" />
  <g
     transform="translate(5.6300363e-4,0.00952291)"
     style="fill:#141927"
     id="g30">
    <path
       id="path2"
       d="m 67.77,31.45 a 2.28,2.28 0 0 1 -1.17,0.28 c -0.16,0 -0.51,0 -1.09,-0.08 v 1.64 a 5.67,5.67 0 0 0 1.53,0.18 3.2,3.2 0 0 0 2,-0.61 4.87,4.87 0 0 0 1.41,-1.92 l 4.49,-10.12 h -2.12 l -2.72,6.63 -2.64,-6.63 h -2.15 l 3.69,8.71 -0.38,0.85 a 2.29,2.29 0 0 1 -0.85,1.07 z" />
    <path
       id="path4"
       d="m 78.26,28.7 a 3.43,3.43 0 0 0 1.35,1.08 4.33,4.33 0 0 0 1.86,0.39 4.09,4.09 0 0 0 3.2,-1.35 A 4.83,4.83 0 0 0 86,25.43 4.68,4.68 0 0 0 84.66,22 4.34,4.34 0 0 0 81.41,20.64 h 0.07 A 3.86,3.86 0 0 0 78.38,22 v -5.9 h -2 V 30 h 1.84 v -1.3 z m 0.84,-5.45 a 2.78,2.78 0 0 1 2,-0.79 2.71,2.71 0 0 1 2,0.83 2.9,2.9 0 0 1 0.81,2.12 2.94,2.94 0 0 1 -0.81,2.16 2.63,2.63 0 0 1 -2,0.86 2.81,2.81 0 0 1 -2,-0.74 2.85,2.85 0 0 1 -0.83,-2.22 2.87,2.87 0 0 1 0.83,-2.22 z" />
    <path
       id="path6"
       d="m 60.72,42.48 a 3.66,3.66 0 0 0 -2.76,1.11 v -0.9 h -1.85 v 9.13 h 2 v -5.45 a 2,2 0 0 1 0.58,-1.51 2.07,2.07 0 0 1 1.52,-0.59 2,2 0 0 1 1.47,0.59 2.1,2.1 0 0 1 0.56,1.54 v 5.42 h 2 V 46.13 A 3.74,3.74 0 0 0 63.33,43.5 3.35,3.35 0 0 0 60.72,42.48 Z" />
    <path
       id="path8"
       d="M 70.73,42.47 A 4.73,4.73 0 0 0 66,47.24 4.5,4.5 0 0 0 67.41,50.63 4.91,4.91 0 0 0 70.92,52 5.24,5.24 0 0 0 74.6,50.54 L 73.67,49.21 A 4,4 0 0 1 71,50.28 3.23,3.23 0 0 1 69,49.65 2.68,2.68 0 0 1 68,47.87 h 6.87 a 4.56,4.56 0 0 0 0.13,-1.22 4,4 0 0 0 -1.22,-3 4.09,4.09 0 0 0 -3.05,-1.18 z M 68,46.37 a 2.85,2.85 0 0 1 1,-1.63 2.64,2.64 0 0 1 1.69,-0.62 2.41,2.41 0 0 1 1.67,0.62 2.17,2.17 0 0 1 0.64,1.63 z" />
    <path
       id="path10"
       d="m 92.71,30.19 a 5.24,5.24 0 0 0 3.68,-1.46 L 95.45,27.4 a 3.94,3.94 0 0 1 -2.68,1.07 3.23,3.23 0 0 1 -2,-0.63 2.68,2.68 0 0 1 -1,-1.78 h 6.83 a 4.28,4.28 0 0 0 0.18,-1.22 4,4 0 0 0 -1.22,-3 4.18,4.18 0 0 0 -3,-1.19 4.75,4.75 0 0 0 -4.76,4.78 4.56,4.56 0 0 0 1.4,3.39 4.87,4.87 0 0 0 3.51,1.37 z m -2,-7.25 a 2.64,2.64 0 0 1 1.7,-0.61 2.45,2.45 0 0 1 1.66,0.61 2.21,2.21 0 0 1 0.69,1.63 h -5 a 2.82,2.82 0 0 1 0.96,-1.63 z" />
    <path
       id="path12"
       d="m 81.58,50.22 a 2.12,2.12 0 0 1 -1.35,-0.34 1.48,1.48 0 0 1 -0.44,-1.22 v -4.28 h 2.73 v -1.69 h -2.73 v -2.38 h -2 v 2.38 h -1.48 v 1.69 h 1.49 v 4.44 a 3,3 0 0 0 0.9,2.37 3.71,3.71 0 0 0 2.49,0.78 8.27,8.27 0 0 0 1.64,-0.21 v -1.64 c -0.55,0.06 -0.93,0.1 -1.22,0.1 z" />
    <path
       id="path14"
       d="m 94.87,48.55 -2.84,-6.07 h -0.67 l -2.79,6.15 -2.43,-5.94 h -2.09 l 4.09,9.28 h 0.67 l 2.89,-6.04 2.88,6.04 h 0.69 l 4.08,-9.28 h -2.09 z" />
    <path
       id="path16"
       d="m 104.77,42.48 a 4.77,4.77 0 0 0 -3.45,1.37 4.74,4.74 0 0 0 0,6.75 5,5 0 0 0 6.9,0 4.7,4.7 0 0 0 0,-6.76 4.8,4.8 0 0 0 -3.45,-1.36 z m 2,6.84 a 2.92,2.92 0 0 1 -4.08,0 2.87,2.87 0 0 1 -0.81,-2.09 2.84,2.84 0 0 1 0.81,-2.11 2.87,2.87 0 0 1 2,-0.86 2.84,2.84 0 0 1 2,0.84 2.89,2.89 0 0 1 0.81,2.11 3,3 0 0 1 -0.73,2.11 z" />
    <path
       id="path18"
       d="m 113.29,43.87 v -1.19 h -1.83 v 9.12 h 2 v -4.88 a 2.36,2.36 0 0 1 0.76,-1.85 2.79,2.79 0 0 1 1.91,-0.66 h 0.59 v -1.72 a 2.65,2.65 0 0 0 -0.73,-0.09 3.21,3.21 0 0 0 -2.7,1.27 z" />
    <path
       id="path20"
       d="m 100.57,25.13 a 2.35,2.35 0 0 1 0.76,-1.85 2.83,2.83 0 0 1 1.91,-0.67 h 0.6 V 20.9 a 2.78,2.78 0 0 0 -0.74,-0.09 3.2,3.2 0 0 0 -2.68,1.28 V 20.9 H 98.58 V 30 h 2 v -4.87 z" />
    <path
       id="path22"
       d="m 118.53,37.89 h 1.97 v 13.92 h -1.97 z" />
    <path
       id="path24"
       d="m 122.88,46.68 3.71,-3.99 h -2.43 l -3.6,3.98 4.01,5.13 h 2.37 z" />
    <path
       id="path26"
       d="m 64.17,20.88 h -2.44 l -3.59,3.99 4.01,5.14 h 2.37 l -4.06,-5.12 z" />
    <path
       id="path28"
       d="m 56.11,16.09 h 1.97 v 13.92 h -1.97 z" />
  </g>
  <path
     style="fill:#31cb9e"
     id="path32"
     d="m 20.000563,33.519523 25,14.32 a 1.32,1.32 0 0 0 2,-1.14 v -26.38 a 1.31,1.31 0 0 0 -2,-1.13 z" />
  <path
     style="fill:#31cb9e"
     id="path34"
     d="m 44.470563,12.849523 -17.09,-12.57000009 a 1.36,1.36 0 0 0 -2.14,0.72999999 l -6.24,28.0000001 25.32,-14 a 1.26,1.26 0 0 0 0.15,-2.15" />
  <path
     style="fill:#31cb9e"
     id="path36"
     d="m 27.360563,66.749523 17.11,-12.57 a 1.28,1.28 0 0 0 -0.14,-2.17 l -25.33,-14 6.24,28 a 1.35,1.35 0 0 0 2.12,0.77" />
  <path
     style="fill:#31cb9e"
     id="path38"
     d="m 13.500563,33.009523 6.5,-30.4100001 a 1.29,1.29 0 0 0 -2,-1.31 l -16.65,12.7700001 a 3.45,3.45 0 0 0 -1.34999999637,2.75 v 32.4 a 3.45,3.45 0 0 0 1.34999999637,2.8 l 16.57,12.72 a 1.29,1.29 0 0 0 2,-1.31 z" />
</svg>
