<svg xmlns="http://www.w3.org/2000/svg" xmlns:xlink="http://www.w3.org/1999/xlink" width="80" height="43" viewBox="0 0 80 43">
    <defs>
        <path id="prefix__a" d="M0 42.398L79.963 42.398 79.963 0 0 0z"/>
    </defs>
    <g fill="none" fill-rule="evenodd">
        <path fill="#141927" d="M42.69 19.894c-.225.124-.48.185-.737.177-.1 0-.321 0-.687-.05v1.036c.315.082.64.12.965.114.45.016.894-.119 1.26-.386.391-.325.696-.741.888-1.214l2.828-6.4h-1.335l-1.714 4.193-1.663-4.192H41.14l2.325 5.508-.24.537c-.105.275-.292.511-.535.677M49.827 14.708c.336-.33.79-.51 1.26-.5.475-.008.93.183 1.26.526.344.358.529.842.51 1.34.022.506-.161 1-.51 1.366-.322.355-.782.554-1.26.544-.465.016-.917-.152-1.26-.468-.369-.37-.56-.882-.523-1.404-.035-.522.156-1.033.523-1.404zm-.53 3.447c.222.296.515.531.852.683.367.168.767.252 1.17.246.766.03 1.504-.283 2.017-.854.547-.577.847-1.346.837-2.143.026-.809-.279-1.592-.843-2.17-.531-.564-1.275-.876-2.047-.86h.044c-.75-.03-1.47.288-1.954.86v-3.73h-1.26v8.79h1.16v-.822h.025zM38.25 26.869c-.653-.024-1.285.23-1.74.701v-.568h-1.165v5.773h1.26v-3.446c-.017-.356.115-.704.366-.955.255-.251.6-.386.957-.374.347-.009.682.126.926.374.244.263.371.614.353.974v3.427h1.26v-3.599c.029-.607-.177-1.203-.574-1.662-.427-.447-1.028-.683-1.644-.645M42.835 29.328c.086-.406.308-.77.63-1.03.299-.252.675-.391 1.065-.392.388-.01.764.131 1.051.392.273.27.42.645.404 1.03h-3.15zm1.72-2.466c-1.646 0-2.98 1.34-2.98 2.991v.025c-.02.81.302 1.589.888 2.144.594.572 1.389.884 2.211.866.863.01 1.696-.323 2.319-.923l-.586-.84c-.458.427-1.057.667-1.682.676-.452.011-.896-.13-1.26-.399-.35-.277-.576-.681-.63-1.125h4.328c.061-.252.089-.512.081-.772.022-.713-.257-1.402-.768-1.897-.509-.506-1.206-.776-1.921-.746zM57.14 14.512c.302-.25.68-.387 1.071-.386.385-.007.758.131 1.046.386.282.268.44.641.435 1.03h-3.15c.078-.403.291-.766.605-1.03h-.007zm1.26 4.585c.863.008 1.695-.323 2.318-.923l-.592-.842c-.456.432-1.06.674-1.688.677-.452.011-.896-.128-1.26-.398-.35-.277-.575-.682-.63-1.126h4.303c.075-.25.112-.51.113-.771.022-.713-.258-1.402-.768-1.897-.504-.495-1.185-.766-1.89-.753-1.652-.003-2.995 1.339-2.999 2.997v.026c-.017.807.302 1.584.882 2.143.592.575 1.388.888 2.211.867zM51.39 31.763c-.3.026-.6-.05-.851-.215-.206-.2-.308-.485-.277-.772V28.07h1.719v-1.068h-1.72v-1.506h-1.259v1.506h-.933v1.068h.94v2.808c-.042.558.166 1.108.566 1.499.446.349 1.004.525 1.569.492.347-.01.694-.053 1.033-.133V31.7c-.347.038-.586.064-.769.064h-.019zM59.761 30.707L57.972 26.869 57.55 26.869 55.793 30.757 54.262 27.002 52.945 27.002 55.522 32.869 55.943 32.869 57.764 29.05 59.578 32.869 60.012 32.869 62.582 27.002 61.267 27.002zM67.257 31.194c-.715.7-1.855.7-2.57 0-.342-.354-.526-.83-.51-1.322-.021-.496.163-.98.51-1.334.332-.34.785-.536 1.26-.544.473.003.927.194 1.26.53.343.358.527.84.51 1.336.024.487-.142.965-.46 1.334m-1.26-4.325c-.81-.018-1.594.294-2.173.865-1.174 1.163-1.187 3.06-.03 4.239l.03.03c1.217 1.164 3.13 1.164 4.346 0 1.176-1.14 1.208-3.022.072-4.202-.023-.025-.047-.049-.072-.072-.58-.568-1.363-.877-2.173-.86M71.364 27.747v-.752h-1.153v5.767h1.26v-3.086c-.02-.442.155-.87.479-1.17.335-.285.765-.434 1.203-.417h.372V27c-.15-.04-.305-.06-.46-.057-.664-.029-1.3.271-1.7.803M63.352 15.897c-.022-.442.153-.87.478-1.17.336-.285.765-.436 1.204-.423h.378v-1.082c-.153-.04-.31-.059-.467-.057-.661-.024-1.292.279-1.688.81v-.753h-1.159v5.755h1.26v-3.08h-.006z"/>
        <mask id="prefix__b" fill="#fff">
            <use xlink:href="#prefix__a"/>
        </mask>
        <path fill="#141927" d="M74.665 32.768L75.906 32.768 75.906 23.966 74.665 23.966zM77.405 29.524L79.742 27.002 78.211 27.002 75.944 29.518 78.47 32.762 79.963 32.762zM40.422 13.21L38.885 13.21 36.624 15.733 39.15 18.983 40.643 18.983 38.085 15.745zM35.345 18.983L36.586 18.983 36.586 10.181 35.345 10.181z" mask="url(#prefix__b)"/>
        <path fill="#31CB9E" d="M12.599 21.196l15.748 9.055c.394.238.904.11 1.141-.285.079-.131.12-.282.119-.435V12.85c.005-.457-.36-.833-.815-.839-.157-.001-.312.042-.445.124l-15.748 9.062zM28.013 8.125L17.248.177c-.376-.289-.914-.217-1.202.16-.068.09-.117.193-.146.301l-3.931 17.706 15.95-8.853c.39-.2.543-.681.342-1.073-.058-.114-.143-.212-.248-.286M17.235 42.21l10.778-7.95c.363-.26.446-.764.188-1.128-.073-.102-.167-.185-.276-.243l-15.956-8.853 3.93 17.705c.11.459.568.743 1.025.633.112-.027.218-.076.31-.146" mask="url(#prefix__b)"/>
        <path fill="#31CB9E" d="M8.504 20.874L12.6 1.644c.087-.442-.2-.87-.64-.958-.216-.043-.44.004-.62.13L.851 8.89C.313 9.305-.002 9.949 0 10.63v20.488c-.013.692.302 1.35.85 1.77l10.438 8.044c.369.257.875.164 1.13-.206.126-.182.172-.406.13-.622l-4.045-19.23z" mask="url(#prefix__b)"/>
    </g>
</svg>
