<svg xmlns="http://www.w3.org/2000/svg" width="105" height="22" viewBox="0 0 105 22">
    <defs>
        <linearGradient id="prefix__a" x1="45.707%" x2="104.861%" y1="50%" y2="50%">
            <stop offset="0%" stop-color="#67F9A5"/>
            <stop offset="100%" stop-color="#029075"/>
        </linearGradient>
    </defs>
    <g fill="none" fill-rule="evenodd">
        <path fill="#008477" d="M30.9 21.606H14.384c-2.795 0-4.559-3.005-3.183-5.451l8.13-14.21c1.462-2.575 5.16-2.575 6.623 0l8.128 14.21c1.377 2.404-.387 5.451-3.182 5.451"/>
        <path fill="url(#prefix__a)" d="M20.19 21.606H3.675c-2.796 0-4.56-3.005-3.183-5.451l8.129-14.21c1.462-2.575 5.161-2.575 6.623 0l8.13 14.21c1.935 3.09 3.655 5.451 7.225 5.451"/>
        <g fill="#000">
            <path d="M15.114 5.111c-.106.091-.235.166-.315.277-1.58 2.197-3.153 4.4-4.729 6.6-.49.684-.984.68-1.474-.002C6.96 9.706 5.322 7.426 3.68 5.15c-.07-.097-.18-.163-.273-.243-.059.12-.165.24-.17.362-.022.55-.02 1.103-.02 1.655-.002 2.177.001 4.355-.004 6.533-.001.553-.049.591-.603.593-.713.003-1.426-.016-2.138.007-.37.013-.473-.128-.472-.48.008-4.166.008-8.333.001-12.5 0-.365.12-.525.507-.518.872.017 1.745.017 2.617-.004.355-.008.57.155.757.418 1.69 2.382 3.382 4.764 5.075 7.145.099.138.222.26.388.453.455-.645.864-1.217 1.265-1.794 1.347-1.937 2.693-3.874 4.034-5.815.2-.29.46-.412.809-.407.843.012 1.687.017 2.53.006.363-.005.483.152.483.499-.006 4.18-.007 8.362-.001 12.543 0 .34-.123.46-.463.452-.726-.017-1.455-.02-2.181.004-.41.014-.571-.127-.57-.547.01-2.468.003-4.936 0-7.404V5.2l-.137-.089M30.742 7.02l-4.497-4.68c-.422-.44-.845-.88-1.255-1.331-.089-.097-.122-.243-.181-.367.125-.048.25-.137.376-.139.93-.013 1.861.005 2.791-.017.448-.01.768.16 1.061.484 1.114 1.238 2.244 2.461 3.371 3.687.115.125.257.226.444.39.526-.572 1.033-1.122 1.538-1.673.763-.833 1.513-1.678 2.292-2.494.166-.174.434-.346.66-.354 1.09-.037 2.18-.019 3.27-.017.055 0 .11.029.245.066-.068.146-.1.299-.191.395-1.77 1.857-3.547 3.708-5.325 5.558-.466.486-.477.488.01.994 1.836 1.91 3.678 3.814 5.516 5.723.198.206.383.425.642.713-.246.041-.405.089-.565.09-.988.007-1.978-.012-2.966.01-.34.008-.572-.117-.793-.351-1.363-1.442-2.734-2.876-4.102-4.313-.348-.366-.412-.368-.755.008-1.285 1.415-2.572 2.829-3.847 4.252-.25.278-.515.414-.902.404-.959-.024-1.919-.003-2.879-.008-.167 0-.335-.04-.63-.077l6.672-6.953M53.997 14.057c-1.803 0-3.607-.034-5.409.01-1.585.04-2.703-1.049-2.705-2.677-.004-2.568-.01-5.137.003-7.706.002-.458.05-.924.143-1.372.263-1.28 1.358-1.811 2.468-1.847C49.63.43 50.765.455 51.9.455c2.618 0 5.235 0 7.853.004.561 0 .583.03.586.597.003.42.003.842 0 1.262-.006.755-.007.758-.783.758-3.04.001-6.078 0-9.117-.001-1.336 0-1.333-.003-1.331 1.307.002 2.075-.005 4.15.002 6.226.002.797.119.903.914.904 3.243.002 6.486.002 9.728.005.589 0 .59.005.59.572 0 .508-.022 1.017.002 1.524.016.35-.123.45-.457.447-1.963-.01-3.926-.005-5.889-.005v.002z" transform="translate(44.485 3.833)"/>
        </g>
    </g>
</svg>
