<svg xmlns="http://www.w3.org/2000/svg" width="52" height="57" viewBox="0 0 52 57">
    <path fill="#007CFF" fill-rule="evenodd" d="M48.012 13.876l-8.719 8.718c.348 1.73.527 3.625.527 5.675 0 11.03-5.18 17.615-13.858 17.615-3.62 0-6.673-1.158-8.977-3.363l30.21-30.21a25.691 25.691 0 0 0-2.77-3.998 23.84 23.84 0 0 0-1.365-1.462l.003-.004c-.062-.061-.126-.118-.189-.18-.139-.135-.274-.277-.415-.41l-.007.008C38.065 2.174 32.425.016 25.962.016c-7.47 0-13.842 2.87-18.425 8.298C3.227 13.419.852 20.506.852 28.269c0 5.158 1.054 10.013 3.022 14.191l8.766-8.766c-.305-1.66-.46-3.47-.46-5.425 0-5.076 1.033-9.181 3.071-12.2 2.39-3.543 6.094-5.415 10.71-5.415 3.595 0 6.586 1.134 8.86 3.241L4.673 44.043a25.69 25.69 0 0 0 2.864 4.18c.215.256.439.5.663.744l.006.007c.258.282.523.554.791.82l.101.102c.086.084.168.174.255.256l.01-.009c4.389 4.176 10.07 6.378 16.599 6.378 7.474 0 13.858-2.869 18.462-8.297 4.336-5.111 6.724-12.198 6.724-19.955 0-5.238-1.093-10.168-3.136-14.393"/>
</svg>
