<svg xmlns="http://www.w3.org/2000/svg" width="20" height="20" viewBox="0 0 20 20">
    <path fill="#FFF" fill-opacity=".8" fill-rule="evenodd" d="M10.833 14.123V15H10v-.832c-.863-.015-1.755-.22-2.5-.605l.38-1.37c.796.309 1.857.637 2.687.45.957-.217 1.153-1.203.095-1.676-.776-.362-3.149-.671-3.149-2.703 0-1.136.866-2.152 2.487-2.375V5h.833v.848c.604.016 1.28.121 2.035.35l-.301 1.373c-.64-.225-1.348-.43-2.036-.388-1.241.073-1.35 1.147-.484 1.597 1.426.67 3.286 1.168 3.286 2.956.002 1.432-1.119 2.193-2.5 2.387M10 0C4.478 0 0 4.478 0 10s4.478 10 10 10 10-4.478 10-10S15.522 0 10 0"/>
</svg>
