<svg xmlns="http://www.w3.org/2000/svg" xmlns:xlink="http://www.w3.org/1999/xlink" width="240" height="179" viewBox="0 0 240 179">
    <defs>
        <path id="prefix__a" d="M0 0.142L106.275 0.142 106.275 61.5 0 61.5z"/>
        <path id="prefix__c" d="M0 0.228L106.275 0.228 106.275 40.425 0 40.425z"/>
        <path id="prefix__e" d="M0 0.142L106.275 0.142 106.275 61.5 0 61.5z"/>
        <path id="prefix__g" d="M0 0.142L106.275 0.142 106.275 61.5 0 61.5z"/>
    </defs>
    <g fill="none" fill-rule="evenodd">
        <path fill="#111D28" fill-opacity=".1" d="M133.927 155.003c-10.292-5.942-15.437-13.736-15.446-21.548-.01-7.89 5.222-15.8 15.681-21.838 20.817-12.019 54.462-12.08 75.147-.136 10.292 5.942 15.438 13.736 15.447 21.548.009 7.89-5.222 15.8-15.682 21.838-20.816 12.018-54.46 12.08-75.147.136"/>
        <path fill="#1A82FF" d="M224.756 118.263v9.305c.009 7.89-5.222 15.8-15.682 21.839-20.816 12.018-54.46 12.08-75.147.136-10.292-5.942-15.437-13.736-15.446-21.548v-9.732h106.275z"/>
        <path fill="#40A0FF" d="M133.927 140.237c-10.292-5.942-15.437-13.735-15.446-21.547-.01-7.89 5.222-15.8 15.681-21.839 20.817-12.018 54.462-12.079 75.147-.136 10.292 5.942 15.438 13.736 15.447 21.548.009 7.89-5.222 15.8-15.682 21.838-20.816 12.019-54.46 12.08-75.147.136"/>
        <path fill="#1A82FF" d="M171.285 142.812c-13.035 0-25.175-2.865-34.186-8.068-7.909-4.565-12.268-10.27-12.276-16.063-.006-5.788 4.554-11.743 12.511-16.337 9.164-5.29 21.457-8.204 34.618-8.204 13.034 0 25.175 2.866 34.187 8.068 7.908 4.566 12.267 10.27 12.274 16.062.007 5.79-4.553 11.744-12.51 16.339-9.163 5.29-21.458 8.203-34.618 8.203"/>
        <path fill="#0F7CE8" d="M137.334 103.613c9.164-5.291 21.457-8.204 34.618-8.204 13.034 0 25.176 2.865 34.186 8.067 7.62 4.4 11.934 9.857 12.244 15.43.012-.213.03-.425.03-.636-.006-5.79-4.365-11.495-12.274-16.062-9.01-5.203-21.152-8.068-34.186-8.068-13.16 0-25.454 2.913-34.618 8.204-7.957 4.594-12.517 10.549-12.51 16.338 0 .21.018.421.03.632.314-5.586 4.814-11.276 12.48-15.701"/>
        <path fill="#FFF" d="M165.848 130.642l.033-6.126c-1.26-.483-2.52-1.084-3.763-1.801-6.69-3.863-7.522-7.994-2.226-11.052 2.21-1.276 4.775-1.946 7.52-1.986l-.116 21.224c1.363.217 2.74.361 4.115.424.58.026 1.151.033 1.72.032v.001c.076 0 .15-.002.225-.003.167-.001.336.001.502-.003v-.005c5.159-.113 9.91-1.345 13.855-3.623 4.559-2.632 6.707-5.882 6.212-9.398-.465-3.306-3.315-6.624-8.024-9.343-3.128-1.806-6.716-3.135-10.45-3.905l-.034 6.16c1.193.473 2.385 1.052 3.57 1.737 3.08 1.777 4.939 3.579 5.526 5.355.69 2.082-.435 4.043-3.253 5.67-2.193 1.266-4.706 1.923-7.373 1.986l.115-21.18c-1.418-.235-2.851-.388-4.283-.455-.287-.013-.571-.02-.855-.027h-.009c-.328-.008-.655-.01-.98-.009h-.435v.007c-5.212.084-10.015 1.315-13.999 3.616-4.562 2.634-6.719 5.888-6.236 9.41.454 3.319 3.295 6.642 8 9.358 3.177 1.834 6.834 3.176 10.643 3.936"/>
        <path fill="#111D28" fill-opacity=".1" d="M149.117 118.547C138.825 112.605 133.68 104.812 133.67 97c-.01-7.89 5.221-15.8 15.681-21.839 20.817-12.018 54.461-12.079 75.147-.136 10.292 5.942-6.15 21-6.142 28.811.009 7.781 6.33 4.102 6.338 14.324l-.431.252c-20.816 12.018-54.46 12.079-75.147.135"/>
        <path fill="#1A82FF" d="M239.946 81.807v9.306c.009 7.89-5.222 15.8-15.682 21.838-20.816 12.018-54.46 12.08-75.147.136-10.292-5.942-15.437-13.736-15.446-21.548v-9.732h106.275z"/>
        <g transform="translate(133.67 51.2)">
            <mask id="prefix__b" fill="#fff">
                <use xlink:href="#prefix__a"/>
            </mask>
            <path fill="#40A0FF" d="M15.446 52.582C5.154 46.64.009 38.846 0 31.034c-.01-7.89 5.221-15.8 15.681-21.838C36.498-2.823 70.142-2.884 90.83 9.06 101.12 15 106.266 22.795 106.275 30.608c.009 7.89-5.222 15.799-15.682 21.838-20.816 12.018-54.46 12.079-75.147.136" mask="url(#prefix__b)"/>
        </g>
        <path fill="#1A82FF" d="M186.475 106.357c-13.035 0-25.175-2.866-34.186-8.068-7.91-4.566-12.268-10.27-12.276-16.063-.006-5.789 4.554-11.744 12.51-16.338 9.164-5.29 21.458-8.204 34.62-8.204 13.033 0 25.174 2.866 34.186 8.069 7.908 4.566 12.267 10.27 12.274 16.061.007 5.79-4.553 11.745-12.51 16.339-9.163 5.29-21.459 8.204-34.618 8.204"/>
        <path fill="#0F7CE8" d="M152.524 67.157c9.163-5.29 21.457-8.204 34.618-8.204 13.034 0 25.175 2.865 34.186 8.068 7.62 4.4 11.933 9.856 12.244 15.429.012-.212.03-.424.03-.635-.006-5.792-4.365-11.496-12.274-16.063-9.01-5.202-21.152-8.067-34.186-8.067-13.16 0-25.455 2.912-34.618 8.203-7.957 4.594-12.517 10.549-12.511 16.338 0 .211.019.422.03.632.314-5.586 4.815-11.275 12.481-15.701"/>
        <path fill="#FFF" d="M181.038 94.186l.033-6.126c-1.26-.483-2.52-1.083-3.763-1.801-6.69-3.863-7.522-7.994-2.226-11.052 2.21-1.275 4.775-1.946 7.52-1.985l-.116 21.224c1.363.216 2.74.36 4.115.423.58.026 1.151.033 1.72.032v.002c.076 0 .15-.003.225-.004.167-.001.336.001.502-.003v-.004c5.159-.113 9.91-1.346 13.855-3.623 4.559-2.633 6.707-5.882 6.212-9.399-.466-3.306-3.315-6.624-8.024-9.343-3.128-1.806-6.716-3.135-10.45-3.905l-.034 6.16c1.193.473 2.385 1.052 3.57 1.737 3.08 1.778 4.939 3.58 5.526 5.355.69 2.082-.435 4.043-3.253 5.67-2.193 1.266-4.707 1.923-7.373 1.987l.115-21.18c-1.418-.235-2.851-.389-4.283-.456-.287-.013-.571-.02-.856-.027h-.008c-.328-.007-.655-.01-.98-.008h-.123c-.104 0-.209-.002-.312 0v.006c-5.212.085-10.015 1.316-14 3.616-4.561 2.634-6.718 5.888-6.236 9.411.455 3.318 3.296 6.64 8 9.357 3.178 1.834 6.835 3.176 10.644 3.936"/>
        <path fill="#111D28" fill-opacity=".1" d="M136.965 97.282c-10.291-5.942-15.437-13.736-15.446-21.548-.01-7.89 5.221-15.8 15.681-21.839 20.817-12.018 54.461-12.079 75.148-.136 10.291 5.942 15.437 13.736 15.446 21.548.009 7.89-5.222 15.8-15.682 21.839-20.816 12.018-54.46 12.079-75.147.136"/>
        <path fill="#1A82FF" d="M227.794 60.542v9.305c.009 7.89-5.222 15.8-15.682 21.838-20.816 12.019-54.46 12.08-75.147.136-10.292-5.942-15.437-13.735-15.446-21.548v-9.731h106.275z"/>
        <path fill="#40A0FF" d="M136.965 82.516c-10.291-5.942-15.437-13.736-15.446-21.548-.01-7.89 5.221-15.8 15.681-21.838 20.817-12.019 54.461-12.08 75.148-.136 10.291 5.942 15.437 13.735 15.446 21.548.009 7.89-5.222 15.799-15.682 21.838-20.816 12.018-54.46 12.08-75.147.136"/>
        <path fill="#1A82FF" d="M174.323 85.09c-13.035 0-25.175-2.865-34.186-8.067-7.909-4.566-12.268-10.27-12.276-16.063-.006-5.789 4.554-11.744 12.511-16.337 9.163-5.291 21.457-8.204 34.618-8.204 13.034 0 25.175 2.865 34.187 8.068 7.908 4.566 12.267 10.27 12.274 16.061.007 5.79-4.553 11.745-12.51 16.34-9.163 5.29-21.458 8.203-34.618 8.203"/>
        <path fill="#0F7CE8" d="M140.372 45.891c9.164-5.29 21.457-8.204 34.618-8.204 13.034 0 25.175 2.866 34.186 8.068 7.62 4.4 11.934 9.857 12.244 15.429.012-.212.03-.424.03-.635-.006-5.791-4.365-11.496-12.274-16.063-9.01-5.202-21.152-8.067-34.186-8.067-13.16 0-25.454 2.913-34.618 8.204-7.957 4.593-12.517 10.548-12.51 16.337 0 .211.018.422.03.632.314-5.586 4.814-11.275 12.48-15.7"/>
        <path fill="#FFF" d="M168.886 72.92l.033-6.125c-1.26-.484-2.52-1.084-3.763-1.802-6.69-3.862-7.522-7.994-2.226-11.052 2.21-1.275 4.775-1.946 7.52-1.985l-.116 21.224c1.363.217 2.74.36 4.115.424.58.026 1.151.032 1.72.03v.003c.076 0 .15-.003.225-.003.167-.002.336 0 .502-.003v-.005c5.159-.113 9.91-1.346 13.855-3.623 4.559-2.632 6.707-5.882 6.212-9.398-.465-3.307-3.315-6.625-8.024-9.343-3.128-1.807-6.716-3.136-10.45-3.905l-.034 6.159c1.193.473 2.385 1.052 3.57 1.737 3.08 1.778 4.939 3.58 5.526 5.355.69 2.083-.435 4.043-3.253 5.67-2.193 1.266-4.706 1.923-7.373 1.987l.115-21.18c-1.418-.235-2.851-.389-4.283-.456-.287-.013-.571-.02-.855-.026h-.009c-.328-.008-.655-.01-.98-.01h-.123c-.104.002-.209 0-.312.001v.006c-5.212.085-10.015 1.316-14 3.616-4.56 2.634-6.718 5.888-6.235 9.411.454 3.318 3.295 6.641 8 9.357 3.177 1.835 6.834 3.176 10.643 3.936"/>
        <path fill="#111D28" fill-opacity=".1" d="M27.598 161.687c-10.292-5.943-15.437-13.736-15.446-21.548-.01-7.89 5.221-15.8 15.681-21.839 20.816-12.018 54.461-12.079 75.148-.136 10.291 5.942 15.436 13.736 15.446 21.548.009 7.89-5.222 15.8-15.682 21.839-20.816 12.018-54.46 12.079-75.147.136"/>
        <path fill="#1A82FF" d="M118.427 124.947v9.305c.009 7.89-5.222 15.8-15.682 21.838-20.816 12.019-54.46 12.08-75.147.136-10.292-5.942-15.437-13.735-15.446-21.548v-9.731h106.275z"/>
        <path fill="#40A0FF" d="M27.598 146.92c-10.292-5.941-15.437-13.735-15.446-21.547-.01-7.89 5.221-15.8 15.681-21.838 20.816-12.019 54.461-12.08 75.148-.136 10.291 5.942 15.436 13.735 15.446 21.548.009 7.89-5.222 15.8-15.682 21.838-20.816 12.018-54.46 12.079-75.147.136"/>
        <path fill="#1A82FF" d="M64.956 149.496c-13.035 0-25.175-2.865-34.186-8.068-7.91-4.566-12.268-10.27-12.276-16.063-.006-5.789 4.554-11.744 12.511-16.337 9.164-5.29 21.457-8.204 34.618-8.204 13.034 0 25.175 2.865 34.186 8.068 7.909 4.566 12.268 10.27 12.275 16.061.007 5.79-4.553 11.745-12.51 16.34-9.163 5.29-21.458 8.203-34.618 8.203"/>
        <path fill="#0F7CE8" d="M31.005 110.296c9.163-5.29 21.457-8.204 34.618-8.204 13.034 0 25.175 2.866 34.186 8.068 7.62 4.4 11.933 9.857 12.244 15.429.012-.212.03-.424.03-.635-.006-5.791-4.365-11.496-12.274-16.062-9.01-5.203-21.152-8.068-34.186-8.068-13.16 0-25.455 2.913-34.618 8.204-7.957 4.593-12.517 10.548-12.51 16.337 0 .211.018.422.03.632.314-5.586 4.814-11.275 12.48-15.7"/>
        <path fill="#FFF" d="M59.52 137.325l.032-6.125c-1.26-.483-2.52-1.084-3.763-1.802-6.69-3.862-7.522-7.994-2.226-11.052 2.21-1.275 4.776-1.946 7.52-1.985l-.116 21.224c1.363.216 2.74.36 4.116.423.578.027 1.15.033 1.72.032v.002c.075 0 .149-.003.224-.003.167-.002.336 0 .502-.003v-.005c5.159-.114 9.91-1.345 13.854-3.623 4.56-2.632 6.708-5.882 6.213-9.398-.465-3.307-3.315-6.625-8.024-9.343-3.128-1.807-6.716-3.135-10.451-3.905l-.033 6.159c1.193.474 2.385 1.053 3.57 1.737 3.08 1.778 4.939 3.58 5.526 5.355.69 2.083-.436 4.043-3.253 5.67-2.193 1.266-4.706 1.923-7.373 1.987l.115-21.18c-1.418-.235-2.851-.388-4.283-.456-.287-.013-.571-.02-.856-.026h-.008c-.328-.008-.655-.01-.98-.01h-.124c-.103.002-.208 0-.31.001v.007c-5.213.084-10.016 1.315-14 3.615-4.562 2.634-6.718 5.888-6.237 9.411.455 3.318 3.296 6.641 8 9.358 3.178 1.834 6.835 3.175 10.644 3.935"/>
        <path fill="#111D28" fill-opacity=".1" d="M15.446 137.383c-1.15-.665-2.237-1.352-3.26-2.06 0 0-.15-9.915-.158-16.854-.01-7.89-6.806-18.433 3.653-24.472 20.817-12.019 54.461-12.08 75.148-.136 10.291 5.942 15.437 13.735 15.446 21.547.009 7.89-5.222 15.8-15.682 21.84-20.816 12.017-54.46 12.078-75.147.135"/>
        <g transform="translate(0 100.415)">
            <mask id="prefix__d" fill="#fff">
                <use xlink:href="#prefix__c"/>
            </mask>
            <path fill="#1A82FF" d="M106.275.228v9.305c.009 7.89-5.222 15.8-15.682 21.839-20.816 12.018-54.46 12.079-75.147.135C5.154 25.565.01 17.772 0 9.96V.228h106.275z" mask="url(#prefix__d)"/>
        </g>
        <g transform="translate(0 70.035)">
            <mask id="prefix__f" fill="#fff">
                <use xlink:href="#prefix__e"/>
            </mask>
            <path fill="#40A0FF" d="M15.446 52.582C5.154 46.64.01 38.846 0 31.034c-.01-7.89 5.222-15.8 15.681-21.838C36.498-2.823 70.142-2.884 90.83 9.06 101.12 15 106.266 22.795 106.275 30.608c.009 7.89-5.222 15.799-15.682 21.838-20.816 12.018-54.46 12.079-75.147.136" mask="url(#prefix__f)"/>
        </g>
        <path fill="#1A82FF" d="M52.804 125.192c-13.035 0-25.175-2.865-34.186-8.068-7.909-4.566-12.268-10.27-12.276-16.063-.006-5.788 4.554-11.743 12.511-16.337 9.164-5.29 21.457-8.204 34.619-8.204 13.033 0 25.174 2.865 34.186 8.068 7.908 4.566 12.268 10.27 12.274 16.062.007 5.789-4.553 11.744-12.51 16.338-9.163 5.29-21.458 8.204-34.618 8.204"/>
        <path fill="#0F7CE8" d="M18.853 85.992c9.164-5.29 21.457-8.204 34.618-8.204 13.034 0 25.176 2.866 34.186 8.068 7.62 4.4 11.933 9.857 12.244 15.429.012-.212.03-.424.03-.635-.006-5.791-4.365-11.496-12.274-16.062-9.01-5.203-21.152-8.068-34.186-8.068-13.16 0-25.454 2.913-34.618 8.204-7.957 4.594-12.517 10.548-12.51 16.337 0 .212.018.422.03.633.314-5.587 4.814-11.276 12.48-15.702"/>
        <path fill="#FFF" d="M47.367 113.021l.033-6.125c-1.26-.483-2.52-1.084-3.763-1.802-6.69-3.862-7.522-7.994-2.225-11.052 2.208-1.275 4.775-1.945 7.518-1.985l-.115 21.224c1.363.217 2.74.36 4.116.424.578.026 1.15.033 1.72.031v.002c.075 0 .149-.003.224-.003.167-.002.336 0 .502-.003v-.005c5.159-.113 9.91-1.345 13.854-3.623 4.56-2.632 6.708-5.882 6.213-9.398-.465-3.306-3.315-6.625-8.024-9.343-3.128-1.806-6.716-3.135-10.451-3.905l-.033 6.159c1.193.474 2.385 1.053 3.57 1.738 3.08 1.777 4.939 3.579 5.526 5.354.69 2.083-.435 4.043-3.253 5.67-2.193 1.267-4.706 1.924-7.373 1.987l.115-21.18c-1.418-.235-2.851-.388-4.283-.456-.287-.013-.571-.02-.856-.026h-.008c-.328-.008-.655-.01-.98-.009h-.434v.007c-5.213.084-10.016 1.315-14 3.616-4.562 2.633-6.718 5.887-6.237 9.41.455 3.318 3.296 6.641 8 9.358 3.178 1.834 6.835 3.175 10.644 3.935"/>
        <path fill="#111D28" fill-opacity=".1" d="M33.674 116.117c-10.292-5.942-15.437-13.736-15.446-21.548-.01-7.89 5.221-15.8 15.681-21.838 20.816-12.019 54.461-12.08 75.148-.136 10.291 5.942 15.436 13.736 15.446 21.548.009 7.89-5.222 15.799-15.682 21.838-20.816 12.018-54.46 12.08-75.147.136"/>
        <path fill="#1A82FF" d="M124.503 79.377v9.305c.009 7.89-5.222 15.8-15.682 21.839-20.816 12.018-54.46 12.079-75.147.136-10.292-5.942-15.437-13.736-15.446-21.548v-9.732h106.275z"/>
        <path fill="#40A0FF" d="M33.674 101.351C23.382 95.41 18.237 87.616 18.228 79.804c-.01-7.89 5.221-15.8 15.681-21.839 20.816-12.018 54.461-12.08 75.148-.136 10.291 5.942 15.436 13.736 15.446 21.548.009 7.89-5.222 15.8-15.682 21.839-20.816 12.018-54.46 12.079-75.147.135"/>
        <path fill="#1A82FF" d="M71.032 103.926c-13.035 0-25.175-2.865-34.186-8.068-7.91-4.565-12.268-10.27-12.276-16.063-.006-5.788 4.554-11.743 12.511-16.337 9.164-5.29 21.457-8.204 34.618-8.204 13.034 0 25.175 2.865 34.186 8.068 7.909 4.566 12.268 10.27 12.274 16.062.008 5.79-4.552 11.744-12.509 16.339-9.163 5.29-21.458 8.203-34.618 8.203"/>
        <path fill="#0F7CE8" d="M37.08 64.727c9.164-5.291 21.458-8.204 34.62-8.204 13.033 0 25.174 2.865 34.185 8.067 7.62 4.4 11.933 9.857 12.244 15.43.012-.213.03-.425.03-.636-.006-5.791-4.365-11.495-12.274-16.062-9.01-5.203-21.152-8.068-34.186-8.068-13.16 0-25.455 2.913-34.618 8.204-7.957 4.594-12.517 10.548-12.51 16.338 0 .21.018.421.03.632.313-5.586 4.814-11.276 12.48-15.701"/>
        <path fill="#FFF" d="M65.595 91.755l.033-6.125c-1.26-.483-2.52-1.084-3.763-1.802-6.69-3.862-7.522-7.993-2.226-11.051 2.21-1.276 4.775-1.946 7.52-1.986l-.116 21.224c1.363.217 2.74.36 4.115.424.579.026 1.151.033 1.72.031v.002c.076 0 .15-.002.224-.003.168-.001.337.001.503-.003v-.005c5.159-.113 9.91-1.345 13.854-3.623 4.56-2.632 6.708-5.882 6.213-9.398-.465-3.306-3.315-6.625-8.024-9.343-3.128-1.806-6.716-3.135-10.451-3.905l-.033 6.159c1.193.474 2.385 1.053 3.57 1.738 3.08 1.777 4.939 3.579 5.526 5.354.69 2.083-.436 4.044-3.253 5.67-2.193 1.267-4.706 1.924-7.373 1.987l.115-21.18c-1.418-.235-2.851-.388-4.283-.456-.287-.013-.571-.02-.856-.026h-.008c-.328-.008-.655-.01-.98-.009h-.434v.007c-5.213.084-10.016 1.315-14 3.616-4.562 2.634-6.719 5.888-6.237 9.41.454 3.319 3.296 6.641 8 9.358 3.178 1.834 6.835 3.176 10.644 3.935"/>
        <path fill="#111D28" fill-opacity=".1" d="M21.522 94.851c-5.648-3.26-9.747-7.08-12.296-11.153 3.51-3.532 10.274-3.653 10.27-7.178-.009-7.89-8.198-19.016 2.261-25.055 20.816-12.018 54.461-12.08 75.148-.136 10.291 5.942 15.436 13.736 15.446 21.548.009 7.89-5.222 15.8-15.682 21.838-20.816 12.019-54.46 12.08-75.147.136"/>
        <path fill="#1A82FF" d="M112.35 58.111v9.306c.01 7.89-5.22 15.8-15.68 21.838-20.817 12.018-54.462 12.079-75.148.136C11.23 83.449 6.085 75.655 6.076 67.843v-9.732H112.35z"/>
        <path fill="#40A0FF" d="M21.522 80.086C11.23 74.144 6.085 66.35 6.076 58.538c-.01-7.89 5.222-15.8 15.681-21.839 20.816-12.018 54.461-12.079 75.148-.136 10.291 5.942 15.436 13.736 15.446 21.548.009 7.89-5.222 15.8-15.682 21.839-20.816 12.018-54.46 12.079-75.147.136"/>
        <path fill="#1A82FF" d="M58.88 82.66c-13.035 0-25.175-2.865-34.186-8.067-7.909-4.566-12.268-10.27-12.276-16.063-.006-5.789 4.554-11.744 12.511-16.338 9.164-5.29 21.457-8.204 34.618-8.204 13.034 0 25.175 2.866 34.187 8.068 7.908 4.567 12.267 10.27 12.274 16.062.007 5.79-4.553 11.744-12.51 16.339-9.163 5.29-21.458 8.203-34.618 8.203"/>
        <path fill="#0F7CE8" d="M24.929 43.46c9.163-5.29 21.457-8.203 34.618-8.203 13.034 0 25.175 2.865 34.186 8.067 7.62 4.4 11.933 9.857 12.244 15.43.012-.213.03-.424.03-.636-.006-5.79-4.365-11.495-12.274-16.062-9.01-5.202-21.152-8.068-34.186-8.068-13.16 0-25.455 2.913-34.618 8.204-7.957 4.594-12.517 10.549-12.51 16.338 0 .21.018.421.03.632.314-5.586 4.814-11.275 12.48-15.701"/>
        <path fill="#FFF" d="M53.443 70.49l.033-6.126c-1.26-.483-2.52-1.084-3.763-1.801-6.69-3.863-7.522-7.994-2.226-11.052 2.21-1.276 4.776-1.946 7.52-1.986L54.89 70.75c1.363.217 2.74.361 4.116.424.578.026 1.15.033 1.72.031v.003c.075 0 .149-.003.224-.004.167-.001.336.001.502-.003v-.005c5.159-.113 9.91-1.345 13.854-3.622 4.56-2.633 6.708-5.883 6.213-9.399-.465-3.306-3.315-6.624-8.024-9.343-3.128-1.806-6.716-3.135-10.451-3.905l-.033 6.16c1.193.473 2.385 1.052 3.57 1.737 3.08 1.777 4.939 3.579 5.526 5.355.69 2.082-.435 4.043-3.253 5.67-2.193 1.266-4.706 1.923-7.373 1.987l.115-21.18c-1.418-.235-2.851-.389-4.283-.456-.287-.013-.571-.02-.856-.027h-.008c-.328-.008-.655-.01-.98-.009h-.434v.007c-5.213.085-10.016 1.316-14 3.616-4.562 2.634-6.718 5.888-6.237 9.411.455 3.318 3.296 6.64 8 9.357 3.178 1.834 6.835 3.176 10.644 3.936"/>
        <path fill="#111D28" fill-opacity=".1" d="M100.51 88.775C90.217 82.833 85.071 75.04 85.062 67.227c-.009-7.89 5.222-15.8 15.682-21.838 20.816-12.018 54.46-12.079 75.147-.136 10.291 5.942 15.437 13.736 15.446 21.548.009 7.89-5.221 15.8-15.681 21.838-20.817 12.019-54.461 12.08-75.148.136"/>
        <path fill="#1A82FF" d="M191.338 52.035v9.306c.01 7.89-5.221 15.8-15.681 21.838-20.817 12.018-54.461 12.079-75.147.136-10.292-5.942-15.438-13.736-15.447-21.548v-9.732h106.275z"/>
        <path fill="#40A0FF" d="M100.51 74.01c-10.292-5.942-15.438-13.736-15.447-21.548-.009-7.89 5.222-15.8 15.682-21.839 20.816-12.018 54.46-12.079 75.147-.135 10.291 5.941 15.437 13.735 15.446 21.547.009 7.89-5.221 15.8-15.681 21.839-20.817 12.018-54.461 12.079-75.148.136"/>
        <path fill="#1A82FF" d="M137.867 76.585c-13.035 0-25.175-2.866-34.186-8.068-7.909-4.566-12.268-10.27-12.275-16.063-.007-5.789 4.554-11.744 12.51-16.338 9.164-5.29 21.458-8.204 34.619-8.204 13.034 0 25.175 2.866 34.186 8.068 7.908 4.567 12.268 10.271 12.274 16.062.007 5.79-4.552 11.744-12.51 16.339-9.163 5.29-21.458 8.204-34.618 8.204"/>
        <path fill="#0F7CE8" d="M103.916 37.385c9.164-5.291 21.458-8.204 34.619-8.204 13.033 0 25.175 2.865 34.186 8.067 7.62 4.401 11.933 9.857 12.244 15.43.011-.213.03-.424.03-.635-.006-5.792-4.366-11.496-12.274-16.063-9.011-5.202-21.153-8.068-34.186-8.068-13.161 0-25.455 2.913-34.619 8.204C95.96 40.71 91.4 46.665 91.406 52.454c0 .211.018.422.03.632.314-5.586 4.815-11.275 12.48-15.701"/>
        <path fill="#FFF" d="M132.43 64.414l.034-6.126c-1.26-.483-2.52-1.083-3.764-1.801-6.69-3.863-7.522-7.994-2.225-11.052 2.209-1.276 4.775-1.946 7.519-1.985l-.116 21.223c1.363.217 2.74.361 4.116.424.578.026 1.15.033 1.72.031v.003c.075 0 .15-.003.224-.004.167-.001.336.001.503-.003v-.005c5.158-.113 9.909-1.345 13.854-3.622 4.559-2.633 6.707-5.883 6.212-9.399-.465-3.306-3.315-6.624-8.023-9.343-3.129-1.806-6.717-3.135-10.451-3.905l-.034 6.16c1.193.473 2.385 1.052 3.57 1.737 3.08 1.777 4.939 3.579 5.526 5.355.69 2.082-.435 4.043-3.253 5.67-2.193 1.266-4.706 1.923-7.372 1.987l.114-21.18c-1.417-.235-2.85-.389-4.283-.456-.287-.013-.571-.02-.855-.027h-.008c-.329-.008-.656-.01-.981-.009h-.434v.007c-5.212.085-10.016 1.316-14 3.616-4.562 2.634-6.718 5.888-6.236 9.411.454 3.318 3.295 6.64 8 9.357 3.177 1.834 6.834 3.176 10.643 3.936"/>
        <path fill="#111D28" fill-opacity=".1" d="M94.434 67.51c-10.292-5.943-15.438-13.736-15.447-21.548-.009-7.89 5.222-15.8 15.682-21.839 20.816-12.018 54.46-12.079 75.147-.136 10.291 5.942 15.437 13.736 15.446 21.548.01 7.89-5.221 15.8-15.681 21.839-20.817 12.018-54.461 12.079-75.147.135"/>
        <path fill="#1A82FF" d="M185.262 30.77v9.305c.01 7.89-5.221 15.8-15.681 21.838-20.817 12.018-54.461 12.08-75.147.136-10.292-5.942-15.438-13.736-15.447-21.548V30.77h106.275z"/>
        <g transform="translate(78.987 .162)">
            <mask id="prefix__h" fill="#fff">
                <use xlink:href="#prefix__g"/>
            </mask>
            <path fill="#40A0FF" d="M15.446 52.582C5.154 46.64.01 38.846 0 31.034c-.01-7.89 5.222-15.8 15.681-21.838C36.498-2.823 70.142-2.884 90.828 9.06 101.12 15 106.266 22.795 106.275 30.608c.009 7.89-5.222 15.799-15.682 21.838-20.816 12.018-54.46 12.079-75.147.136" mask="url(#prefix__h)"/>
        </g>
        <path fill="#1A82FF" d="M131.791 55.319c-13.035 0-25.175-2.866-34.186-8.068-7.909-4.566-12.268-10.27-12.275-16.063-.007-5.789 4.553-11.744 12.51-16.338 9.164-5.29 21.458-8.204 34.619-8.204 13.033 0 25.175 2.866 34.186 8.069 7.908 4.566 12.268 10.27 12.274 16.061.008 5.79-4.552 11.745-12.51 16.339-9.163 5.29-21.458 8.204-34.618 8.204"/>
        <path fill="#0F7CE8" d="M97.84 16.12c9.164-5.292 21.458-8.205 34.619-8.205 13.033 0 25.175 2.865 34.186 8.068 7.62 4.4 11.933 9.856 12.244 15.429.011-.212.03-.424.03-.635-.006-5.792-4.365-11.496-12.274-16.063-9.011-5.202-21.153-8.067-34.186-8.067-13.161 0-25.455 2.912-34.619 8.203-7.956 4.594-12.517 10.549-12.51 16.338 0 .211.018.422.03.632.314-5.586 4.815-11.275 12.48-15.7"/>
        <path fill="#FFF" d="M126.355 43.148l.033-6.126c-1.26-.483-2.52-1.083-3.764-1.801-6.69-3.863-7.522-7.994-2.225-11.052 2.209-1.275 4.775-1.946 7.519-1.985l-.116 21.224c1.363.216 2.74.36 4.116.423.578.027 1.15.033 1.72.032v.002c.075 0 .15-.003.224-.004.167-.001.336.001.503-.003v-.004c5.158-.113 9.909-1.346 13.854-3.623 4.559-2.633 6.707-5.882 6.212-9.399-.465-3.306-3.315-6.624-8.023-9.342-3.129-1.807-6.716-3.136-10.452-3.905l-.033 6.158c1.193.474 2.385 1.053 3.57 1.738 3.08 1.778 4.939 3.58 5.527 5.355.689 2.082-.436 4.043-3.254 5.67-2.193 1.266-4.706 1.923-7.372 1.987l.114-21.18c-1.417-.235-2.85-.389-4.283-.456-.287-.013-.57-.02-.855-.027h-.008c-.329-.007-.655-.01-.981-.008h-.123c-.103 0-.208-.002-.311 0v.006c-5.212.085-10.016 1.316-14 3.616-4.562 2.634-6.718 5.888-6.236 9.411.454 3.318 3.295 6.64 8 9.357 3.177 1.834 6.834 3.176 10.644 3.936"/>
        <path fill="#111D28" fill-opacity=".1" d="M92.394 172.281c-7.808-4.414-12.026-10.248-12.542-16.122-.521-5.933 2.735-11.908 9.882-16.503 14.224-9.144 38.478-9.364 54.172-.491 7.808 4.414 12.026 10.248 12.542 16.122.52 5.933-2.735 11.908-9.882 16.503-14.224 9.144-38.478 9.364-54.172.491"/>
        <path fill="#0F7CE8" d="M67.425 122.016c0-28.69 23.257-51.947 51.947-51.947s51.946 23.257 51.946 51.947-23.257 51.947-51.946 51.947c-28.69 0-51.947-23.258-51.947-51.947"/>
        <path fill="#40A0FF" d="M65.906 120.8c0-28.689 23.257-51.946 51.947-51.946s51.946 23.257 51.946 51.947c0 28.689-23.257 51.947-51.946 51.947-28.69 0-51.947-23.258-51.947-51.947"/>
        <path fill="#1A82FF" d="M75.592 120.8c0-23.339 18.921-42.26 42.26-42.26 23.34 0 42.26 18.921 42.26 42.26 0 23.34-18.92 42.26-42.26 42.26-23.339 0-42.26-18.92-42.26-42.26"/>
        <path fill="#0F7CE8" d="M76.808 122.016c0-23.34 18.92-42.26 42.26-42.26 11.36 0 21.673 4.483 29.267 11.777-7.69-8.007-18.504-12.992-30.482-12.992-23.34 0-42.26 18.92-42.26 42.26 0 11.978 4.985 22.792 12.992 30.482-7.293-7.594-11.777-17.906-11.777-29.267"/>
        <path fill="#FFF" d="M136.453 108.972l-7.32 7.321c.29 1.452.441 3.043.441 4.764 0 9.26-4.35 14.79-11.635 14.79-3.04 0-5.603-.973-7.537-2.824l25.364-25.364c-.68-1.203-1.454-2.329-2.326-3.357-.367-.431-.752-.836-1.145-1.228l.002-.002c-.052-.052-.106-.1-.158-.151-.117-.114-.23-.234-.35-.345l-.005.006c-3.683-3.434-8.419-5.246-13.845-5.246-6.272 0-11.622 2.41-15.47 6.967-3.619 4.286-5.612 10.236-5.612 16.754 0 4.331.885 8.407 2.537 11.915l7.36-7.36c-.256-1.394-.386-2.913-.386-4.555 0-4.262.867-7.708 2.578-10.243 2.007-2.974 5.117-4.546 8.993-4.546 3.017 0 5.528.951 7.438 2.72l-25.312 25.313c.696 1.263 1.5 2.438 2.404 3.51.181.215.37.42.557.624l.005.006c.217.237.439.466.664.69l.085.084c.072.07.141.146.214.215l.008-.007c3.685 3.506 8.456 5.355 13.937 5.355 6.275 0 11.635-2.41 15.5-6.966 3.641-4.292 5.646-10.242 5.646-16.755 0-4.398-.918-8.537-2.632-12.085M173.11 80.893c-15.074 0-20.658 4.913-20.658 20.658 0-15.745-5.584-20.658-20.658-20.658 15.074 0 20.658-4.912 20.658-20.658 0 15.746 5.584 20.658 20.658 20.658"/>
    </g>
</svg>
