<svg xmlns="http://www.w3.org/2000/svg" xmlns:xlink="http://www.w3.org/1999/xlink" width="104" height="23" viewBox="0 0 104 23">
    <defs>
        <path id="prefix__a" d="M0 0.071L14.645 0.071 14.645 18.668 0 18.668z"/>
        <path id="prefix__c" d="M0.061 0.116L7.865 0.116 7.865 7.651 0.061 7.651z"/>
        <path id="prefix__e" d="M0 22.949L103.892 22.949 103.892 0 0 0z"/>
    </defs>
    <g fill="none" fill-rule="evenodd">
        <g transform="translate(0 4.056)">
            <mask id="prefix__b" fill="#fff">
                <use xlink:href="#prefix__a"/>
            </mask>
            <path fill="#007EA4" d="M0 7.15c.028-.07.069-.136.082-.208.157-.878.84-1.604 1.723-1.792.262-.055.538-.046.808-.063.092-.005.186.005.278-.001.3-.02.532-.159.676-.418.07-.128.122-.27.16-.411.365-1.32.975-2.52 1.774-3.632.09-.126.195-.244.308-.35.255-.242.498-.267.795-.084.126.078.246.17.352.273.657.637 1.309 1.279 1.962 1.919.02.02.039.041.057.063.296.345.31.661.065 1.043-.167.26-.319.532-.467.804-.054.097-.088.208-.112.317-.047.214.038.364.25.423.128.036.266.05.4.05 1.057.005 2.113 0 3.17.012.24.002.485.036.717.095.534.136.952.447 1.241.91.44.703.559 1.44.175 2.207-.338.676-.897 1.06-1.65 1.163-.283.038-.569.065-.853.075-.592.02-1.184.026-1.776.035-.278.004-.556 0-.835.006-.178.005-.236.07-.193.241.039.156.086.318.17.453.227.373.457.748.72 1.096.571.753 1.229 1.427 1.991 1.996.47.35.973.633 1.555.774.465.112.633.35.634.822 0 .936 0 1.872-.002 2.809 0 .098-.004.197-.021.294-.075.435-.367.661-.807.582-.553-.1-1.107-.208-1.648-.358-1.652-.455-3.146-1.213-4.431-2.343-1.67-1.468-2.82-3.27-3.498-5.369-.06-.187-.127-.373-.199-.556-.09-.229-.257-.371-.509-.396-.277-.027-.555-.037-.83-.069-.198-.023-.399-.05-.588-.107C.757 9.187.269 8.569.084 7.693.067 7.622.027 7.556 0 7.488V7.15z" mask="url(#prefix__b)"/>
        </g>
        <path fill="#1AA64A" d="M25.28 7.026c.005.4-.135.794-.427 1.124-.487.55-1.104.86-1.847.9-.585.03-1.09-.176-1.525-.556-.216-.188-.385-.413-.538-.653-.554-.867-1.235-1.618-2.096-2.2-.96-.65-2.027-1.02-3.18-1.157-1.589-.189-3.06.154-4.43.954-.16.093-.325.177-.495.249-.212.09-.423.063-.609-.071-.126-.091-.248-.191-.359-.3-.607-.596-1.213-1.193-1.812-1.796-.118-.12-.22-.26-.306-.403-.116-.194-.1-.402.043-.574.12-.146.26-.28.413-.394.792-.588 1.663-1.035 2.59-1.375C11.8.373 12.933.139 14.099.043c2.029-.168 3.967.158 5.804 1.029 1.66.787 3.017 1.94 4.128 3.38.293.38.563.778.824 1.182.264.409.429.856.427 1.392M15.64 20.391v-1.35c0-.05-.001-.1.001-.148.016-.37.198-.58.56-.675.378-.099.76-.191 1.128-.323 1.457-.524 2.587-1.46 3.454-2.716.113-.163.215-.333.325-.497.503-.745 1.213-1.039 2.1-.912.252.035.51.093.742.192.783.333 1.239.926 1.34 1.765.045.375-.067.724-.243 1.055-.409.77-.896 1.488-1.486 2.134-1.729 1.895-3.846 3.13-6.386 3.642-.23.046-.464.077-.697.107-.091.011-.186.007-.277-.003-.27-.03-.449-.179-.512-.438-.031-.129-.045-.265-.047-.397-.005-.479-.002-.957-.002-1.436zM88.572 8.794c-.039-.285-.057-.574-.12-.853-.125-.55-.405-1.007-.918-1.29-1.116-.615-2.465-.059-2.8 1.155-.156.567-.16 1.141-.027 1.712.179.768.735 1.53 1.782 1.584.886.046 1.555-.327 1.875-1.165.14-.366.185-.75.208-1.143m-3.9 2.636v4.067c-.169.051-1.4.057-1.614.011V5.26h1.61c.013.33 0 .664.009 1.024.04-.033.058-.042.066-.057.356-.655.923-1.022 1.647-1.161.728-.14 1.438-.086 2.103.262.758.396 1.23 1.033 1.508 1.818.224.634.277 1.291.238 1.958-.031.53-.117 1.05-.328 1.542-.402.94-1.075 1.58-2.107 1.806-.486.106-.979.112-1.467.013-.57-.116-1.045-.402-1.43-.833l-.191-.219-.043.017"/>
        <path fill="#007EA4" d="M49.275 8.33l3.516 3.905c-.111.006-.18.013-.248.013-.542.001-1.085-.004-1.628.004-.148.002-.25-.043-.347-.155-.948-1.08-1.902-2.157-2.854-3.235-.05-.057-.104-.113-.174-.189-.053.185-.023.35-.028.512-.006.17-.001.338-.001.507v2.543H45.9V.836c.159-.041 1.183-.056 1.607-.02.007.26.003.526.003.79V8.14c.092-.086.147-.136.2-.187.878-.857 1.757-1.712 2.631-2.573.1-.097.198-.138.337-.136.521.007 1.042.002 1.564.002h.187l.02.039-3.174 3.047M38.068 8.778c.004.807.325 1.46.986 1.938.723.521 1.745.501 2.458-.032 1.255-.94 1.262-2.88.014-3.828-.726-.552-1.78-.563-2.51-.014-.643.486-.952 1.138-.948 1.936m2.186 3.751c-1.802.005-3.402-1.214-3.8-2.894-.476-2.01.736-4.005 2.769-4.503 1.388-.341 2.645-.058 3.718.9 1.735 1.55 1.636 4.316-.313 5.723-.703.507-1.495.772-2.374.774M54.688 8.761c0 .824.327 1.49 1.007 1.97.72.508 1.736.48 2.44-.05 1.247-.938 1.26-2.86.025-3.815-.728-.563-1.791-.577-2.526-.021-.637.481-.946 1.126-.946 1.916m-1.716.118c-.001-1.904 1.286-3.456 3.063-3.794 1.329-.252 2.518.04 3.53.95 1.718 1.545 1.599 4.226-.201 5.635-2.02 1.58-5.102.932-6.137-1.558-.18-.435-.258-.89-.255-1.233"/>
        <g transform="translate(96.027 4.878)">
            <mask id="prefix__d" fill="#fff">
                <use xlink:href="#prefix__c"/>
            </mask>
            <path fill="#1AA64A" d="M3.976 6.21c.499.005.931-.15 1.312-.45 1.16-.916 1.13-2.684.172-3.598-.832-.793-2.121-.808-2.949-.012-.627.604-.821 1.347-.693 2.183.153.992 1.047 1.913 2.158 1.876M7.86 3.84c.077 2.077-1.638 3.528-3.258 3.766-1.633.238-3.197-.466-4.018-1.846C-.63 3.72.34 1.04 2.788.293 4.64-.27 6.622.55 7.483 2.22c.27.525.412 1.078.377 1.62" mask="url(#prefix__d)"/>
        </g>
        <path fill="#007EA4" d="M33.443 2.92v9.288c-.169.05-1.515.06-1.783.013v-9.29h-2.899V1.453h7.56V2.92h-2.878z"/>
        <path fill="#1AA64A" d="M75.388 15.523c.04-.088.068-.157.102-.225.573-1.148 1.143-2.298 1.723-3.443.077-.151.087-.273.022-.432-.809-1.969-1.61-3.94-2.413-5.91l-.098-.253h1.785c.021.052.05.115.072.179.403 1.12.813 2.238 1.203 3.362.131.378.213.773.316 1.16.016.06.03.122.05.204.682-1.684 1.508-3.28 2.243-4.91h1.754c-.035.079-.06.142-.091.203-1.64 3.297-3.28 6.593-4.916 9.89-.068.14-.145.198-.305.194-.414-.012-.828-.004-1.242-.005-.062 0-.123-.008-.205-.014M67.804 5.433v1.779l-.19-.163c-.714-.605-1.536-.787-2.437-.552-.72.188-1.17.68-1.385 1.373-.183.586-.178 1.184.011 1.767.262.809.843 1.265 1.688 1.395.297.045.598.044.896-.004.479-.077.892-.284 1.23-.63l.182-.187v1.822c-.448.254-.928.403-1.436.46-.703.081-1.401.054-2.066-.204-1.206-.47-1.945-1.346-2.22-2.591-.143-.655-.135-1.315.026-1.968.282-1.137.976-1.947 2.064-2.4 1.015-.422 2.064-.445 3.118-.123.102.03.2.075.297.117.072.031.14.069.222.11M92.352 2.6h1.62v2.643h1.24v1.398h-1.227v5.595c-.55.026-1.08.006-1.63.013V6.656h-1.202c-.05-.165-.064-1.006-.026-1.406h1.225V2.6zM69.489 5.24h1.606v.976l.041.005c.074-.133.142-.269.221-.398.304-.501.751-.779 1.343-.82.367-.025.726.03 1.073.149.134.045.264.1.416.16l-.577 1.346c-.06-.028-.11-.049-.158-.074-.36-.188-.744-.234-1.142-.169-.428.07-.724.313-.905.696-.147.31-.22.64-.25.977-.032.364-.052.73-.055 1.096-.008.936-.003 1.872-.003 2.808v.241h-1.61V5.24z"/>
        <path fill="#007EA4" d="M29.672 16.857v3.596c.413.017.81.02 1.198-.102.39-.121.7-.35.91-.695.383-.623.387-1.266.061-1.912-.201-.398-.532-.654-.961-.786-.388-.12-.787-.11-1.208-.1m-.788 4.332v-5.042c.023-.013.035-.027.046-.027.641-.003 1.284-.047 1.921.065 1.018.18 1.785.948 1.961 1.953.064.365.065.729-.01 1.09-.203.982-1.016 1.76-2.022 1.9-.393.054-.796.046-1.194.06-.227.007-.455 0-.702 0M97.074 19.603c.007-.2-.033-.399-.136-.581-.167-.297-.424-.45-.768-.45-.337-.002-.592.147-.753.437-.21.378-.216.77-.02 1.154.29.564 1.077.624 1.463.12.153-.199.22-.424.214-.68m-.052-1.312l.017-.29h.738c.005.058.014.112.014.165 0 .957.006 1.914-.003 2.87-.003.266-.028.536-.083.796-.113.545-.456.894-1.002 1.04-.256.069-.513.1-.782.058-.696-.109-1.064-.545-1.246-1.177-.015-.054-.022-.11-.038-.192.24-.02.47-.007.712-.009.03.074.056.144.085.214.151.366.437.536.846.503.388-.031.643-.252.723-.634.05-.24.019-.483.029-.76-.057.042-.081.055-.098.073-.454.494-1.42.443-1.886-.019-.104-.104-.209-.215-.282-.341-.35-.596-.381-1.218-.088-1.84.296-.63.985-.957 1.671-.816.124.025.245.077.357.136.104.055.195.136.316.223M40.934 19.612c-.01-.09-.013-.183-.028-.272-.076-.434-.396-.732-.818-.767-.416-.034-.756.2-.906.626-.112.322-.094.639.057.944.286.577 1.077.652 1.474.141.154-.198.216-.425.22-.672m-.062-1.329l.027-.283h.742v.201c0 .95.005 1.901-.004 2.851-.002.26-.027.521-.078.775-.116.576-.488.922-1.06 1.063-.272.067-.545.08-.826.022-.61-.125-1.12-.683-1.167-1.302 0-.013.008-.026.015-.05h.688c.035.089.066.18.107.268.158.332.476.491.865.437.368-.051.63-.278.675-.635.03-.234.005-.474.005-.73-.031.022-.061.036-.083.059-.472.488-1.36.39-1.775.058-.4-.321-.61-.741-.652-1.238-.05-.565.09-1.072.518-1.484.494-.476 1.453-.545 1.928-.054.014.014.035.02.075.042M66.01 16.133c.004.058.01.107.01.155.002.176.001.351.001.552-.684.031-1.358-.005-2.04.02v1.27h1.977c.014.244.005.472.007.729H63.98v1.599h2.026v.718h-2.81v-5.027c.148-.043 2.44-.059 2.813-.016M78.45 15.65h.748v2.585c.068-.048.101-.07.133-.094.332-.25.707-.287 1.097-.194.46.11.73.434.788.916.01.084.014.169.015.253v1.92c0 .041-.005.082-.01.138h-.73c-.003-.068-.01-.142-.01-.216 0-.55.002-1.098-.001-1.647-.001-.111-.009-.225-.031-.335-.043-.204-.176-.33-.382-.382-.377-.092-.73.113-.816.486-.031.136-.045.279-.047.418-.006.485-.004.97-.005 1.456v.22h-.748v-5.523zM86.183 19.602c-.043-.173-.065-.358-.136-.523-.142-.329-.42-.494-.776-.505-.352-.011-.624.146-.787.454-.197.374-.2.76-.002 1.134.167.315.442.477.804.459.367-.019.64-.197.777-.537.06-.147.079-.31.12-.482zm.675 1.575h-.738l-.022-.28c-.04.031-.063.045-.082.063-.533.514-1.496.413-1.998-.143-.535-.593-.609-1.61-.147-2.259.377-.53.909-.723 1.549-.628.223.034.416.143.578.3.024.023.05.043.099.084l.02-.288c.158-.05.532-.056.741-.011v3.162zM53.25 19.611c-.03-.149-.044-.29-.086-.423-.118-.372-.418-.595-.808-.617-.36-.02-.692.187-.842.54-.146.342-.145.688.024 1.022.169.332.449.51.83.487.376-.022.646-.215.78-.563.055-.143.07-.3.102-.446m-.072-1.272l.018-.34c.245-.023.482-.014.73-.005v3.184h-.72l-.033-.266c-.032.018-.057.026-.074.042-.559.539-1.585.421-2.086-.229-.448-.58-.5-1.492-.11-2.111.359-.57 1.088-.846 1.711-.653.21.065.382.184.564.378M102.42 19.145c-.032-.345-.299-.583-.66-.597-.412-.017-.721.216-.783.597h1.443zm.164.977l.613.34c-.253.438-.606.71-1.094.792-.181.03-.37.047-.553.035-.67-.045-1.113-.401-1.326-1.021-.196-.571-.13-1.127.187-1.643.403-.657 1.115-.837 1.762-.656.141.039.283.106.4.192.548.395.654.967.646 1.609h-2.299c-.006.37.201.695.498.802.422.153.748.03 1.166-.45zM92.156 21.179h-.75v-.234c-.001-.506.005-1.013-.004-1.52-.003-.173-.03-.35-.068-.52-.045-.2-.186-.311-.395-.327-.085-.006-.171-.007-.256-.001-.24.015-.407.14-.466.368-.047.182-.082.372-.087.559-.013.478-.006.957-.007 1.435v.237h-.75v-3.151c.154-.05.529-.055.74-.01.007.066.012.135.02.223.045-.03.08-.048.11-.074.4-.358 1.068-.298 1.388-.117.334.189.494.483.51.85.017.414.012.83.015 1.244.002.337 0 .675 0 1.038M69.45 19.456l-.568-.72-.585-.748c.31 0 .571-.007.832.006.055.003.117.07.158.123.201.255.397.514.606.786.04-.038.078-.066.105-.101.18-.228.361-.455.531-.689.071-.097.151-.133.27-.129.233.007.467.002.748.002-.205.281-.407.511-.598.75-.19.236-.382.47-.585.721l1.377 1.723c-.181.004-.321-.009-.456.013-.326.05-.544-.067-.722-.343-.187-.288-.42-.548-.647-.837-.052.054-.096.094-.134.14-.245.303-.491.604-.73.91-.073.093-.152.133-.27.129-.235-.008-.47-.003-.756-.003l.363-.448.352-.425.35-.426c.118-.14.234-.282.359-.434M76.169 18.952c-.244-.19-.458-.322-.722-.362-.689-.106-1.21.346-1.189 1.035.024.765.667 1.19 1.402.918.17-.063.322-.17.495-.264.033.247.003.503.015.76-.377.232-.78.28-1.2.247-.953-.073-1.525-.847-1.482-1.743.032-.652.304-1.173.921-1.46.513-.238 1.046-.246 1.58-.042.129.049.194.113.183.261-.014.201-.003.404-.003.65M57.18 21.179h-.722v-5.524h.702c.044.155.064 5.013.02 5.524M48.18 18.671v2.504c-.25.026-.488.012-.753.01V18.69l-.306-.027v-.66l.297-.035v-1.145c.256-.009.494-.007.76 0v1.16h.563v.688h-.56z"/>
        <mask id="prefix__f" fill="#fff">
            <use xlink:href="#prefix__e"/>
        </mask>
        <path fill="#007EA4" d="M35.266 21.173L36 21.173 36 17.998 35.266 17.998zM44.153 21.172L44.887 21.172 44.887 18 44.153 18z" mask="url(#prefix__f)"/>
        <path fill="#000" d="M44.52 17.14c-.28 0-.485-.2-.485-.476 0-.276.203-.477.483-.477.279 0 .488.203.489.474 0 .272-.208.477-.487.478M36.114 16.664c0 .276-.206.476-.486.475-.278-.001-.487-.207-.486-.478.001-.272.211-.475.49-.474.28 0 .483.201.482.477" mask="url(#prefix__f)"/>
    </g>
</svg>
