<?xml version="1.0" encoding="UTF-8"?>
<svg width="2623px" height="823px" viewBox="0 0 2623 823" version="1.1" xmlns="http://www.w3.org/2000/svg" xmlns:xlink="http://www.w3.org/1999/xlink">
    <title>画板3</title>
    <g id="画板3" stroke="none" stroke-width="1" fill="none" fill-rule="evenodd">
        <g id="编组-2" transform="translate(161.000000, 74.000000)">
            <g id="logo">
                <path d="M420.694675,171 L236.776651,171 C174.91314,171 152.34071,238.311117 179.087978,290.671313 C182.831824,298.920538 190.834133,310.207268 200.734096,322.363684 L242.000023,279.70432 C240.314649,277.594054 238.590679,275.432629 237.046825,273.49502 C214.204221,241.642781 236.731622,218.967004 280.345494,218.967004 L383.603586,218.967004 C449.075855,218.967004 440.938459,256.146069 426.374771,273.49502 C411.386523,291.349156 376.849225,328.438694 359.22356,345.819619 C335.628327,369.275555 323.457613,369.051739 299.907409,345.640566 C299.444252,345.282461 298.820278,344.64938 298.318526,344.233722 L259.522765,384.175318 C262.481818,386.822743 265.27362,389.252747 267.70519,391.228725 C320.376338,443.588921 362.176181,418.655798 391.155604,393.166333 C423.029754,364.748073 466.669357,321.417261 485.903203,284.02717 C505.130616,246.624289 485.903203,171 420.694675,171" id="Fill-1" fill="#FF0000"></path>
                <path d="M240.305861,504 L424.225249,504 C486.089219,504 508.661816,436.688883 481.907917,384.328687 C478.164043,376.079462 470.161675,364.792732 460.261638,352.636316 L418.995405,395.302074 C420.687224,397.405946 422.411207,399.567371 423.955073,401.50498 C446.797846,433.357219 424.270278,456.032996 380.656083,456.032996 L277.397225,456.032996 C211.92447,456.032996 220.055494,418.853931 234.625723,401.50498 C249.614082,383.650844 284.145203,346.561306 301.777432,329.186775 C325.37284,305.724445 337.537212,305.948261 361.094023,329.365828 C361.557183,329.717539 362.181162,330.35062 362.682918,330.766278 L401.472534,290.824682 C398.513459,288.177257 395.721636,285.747253 393.296481,283.771275 C340.624942,231.411079 298.824789,256.344202 269.845151,281.833667 C237.970765,310.251927 194.324406,353.582739 175.09685,390.97283 C155.869294,428.375711 175.09685,504 240.305861,504" id="Fill-3" fill="#FF0000"></path>
                <path d="M337.5,620.567218 C181.16766,620.567218 54.4392256,493.83234 54.4392256,337.5 C54.4392256,181.16766 181.16766,54.4392256 337.5,54.4392256 C493.83234,54.4392256 620.567218,181.16766 620.567218,337.5 C620.567218,493.83234 493.83234,620.567218 337.5,620.567218 M337.5,0 C151.106226,0 0,151.099782 0,337.5 C0,523.893774 151.106226,675 337.5,675 C523.893774,675 675,523.893774 675,337.5 C675,151.099782 523.893774,0 337.5,0" id="Fill-5" fill="#FF0000"></path>
                <g id="编组" transform="translate(836.000000, 141.000000)" fill="#424244">
                    <polygon id="Fill-7" points="601.866667 366.428571 658.8 366.428571 658.8 317.571429 601.866667 317.571429"></polygon>
                    <path d="M904.210297,316.977989 C901.254698,323.411607 896.148996,332.769012 884.5803,343.884552 C868.990468,358.786846 843.982042,374.571429 797.199859,374.571429 C786.449344,374.571429 748.806684,374.281626 719.225325,350.31173 C684.810992,322.535759 683.2,279.271449 683.2,264.060032 C683.2,243.013922 687.766591,221.079084 698.523448,203.542806 C702.290885,197.405431 705.779253,193.013311 710.624913,188.041586 C717.075222,181.324606 720.303548,178.980425 724.064643,176.352881 C736.432492,167.291719 761.980029,154.714286 799.889073,154.714286 C810.379547,154.714286 846.943983,155.590134 876.519,177.228729 C892.654286,188.917434 901.527425,203.542806 905.015793,210.266227 C906.3604,213.190013 907.705008,216.113799 908.78323,219.037586 L856.889003,226.050809 C853.933404,221.079084 848.554975,212.017923 837.798117,204.128851 C831.614193,199.743172 818.707232,192.723509 799.889073,192.723509 C795.049756,192.723509 782.948291,193.013311 770.314057,198.860884 C745.578358,209.976424 732.405013,235.704456 732.405013,264.646077 C732.405013,278.975206 736.432492,294.759789 744.233751,306.744737 C745.844743,309.378721 749.878564,314.646688 756.062489,319.908216 C763.318294,326.335394 777.842589,336.568646 801.233681,336.568646 C828.924978,336.568646 843.715658,323.997652 851.244189,314.350445 C854.472515,310.550811 856.622618,306.744737 860.922824,297.979818 L910.933333,297.393773 C908.244119,307.916827 906.633127,311.716462 904.210297,316.977989" id="Fill-9"></path>
                    <path d="M1105.01188,214.521288 C1091.6676,198.724449 1070.96695,191.402862 1051.08224,191.989363 C1046.72624,192.285835 1035.2837,193.162363 1023.3079,198.724449 C987.62465,215.694288 984.900541,252.263551 984.900541,266.017306 C984.900541,270.116363 985.170382,283.573646 990.078917,295.864373 C991.440971,299.666957 993.072866,303.475987 997.42887,309.908155 C998.790924,311.661211 1002.3374,317.223297 1007.23309,321.612382 C1014.85931,328.631051 1029.57206,337.409221 1053.26667,337.409221 C1057.62267,337.409221 1069.06521,337.119193 1081.04743,332.44008 C1118.90226,317.803352 1122.17247,277.721533 1122.17247,264.85075 C1122.17247,256.066136 1121.08026,233.540656 1105.01188,214.521288 M1169.01557,288.839259 C1166.56773,302.593014 1158.94151,332.44008 1129.79869,353.502532 C1116.45442,362.873647 1091.94387,374.571429 1053.81277,374.571429 C996.612922,374.571429 966.377889,349.706392 952.493931,327.754523 C945.953501,317.803352 935.333333,296.1544 935.333333,264.560723 C935.333333,216.860844 956.849935,191.989363 971.010158,180.285136 C991.980653,163.025269 1020.03126,156.000155 1045.91029,154.827155 C1069.88116,153.957072 1098.74771,158.049684 1120.26431,169.463883 C1123.25826,171.216939 1128.70648,174.142995 1135.51675,179.408608 C1140.96497,183.797693 1146.41318,189.063306 1150.76919,194.915419 C1158.94151,205.163062 1171.2,227.985015 1171.2,262.504749 C1171.2,266.603806 1171.2,277.431505 1169.01557,288.839259" id="Fill-10"></path>
                    <polygon id="Fill-11" points="1417.73008 366.428571 1418.83453 209.856661 1356.30972 366.428571 1311.96934 366.428571 1248.8988 209.856661 1250.00325 366.428571 1203.73333 366.428571 1203.73333 162.857143 1274.23616 162.857143 1334.55207 312.220343 1394.31576 162.857143 1464 162.857143 1464 366.428571"></polygon>
                    <polygon id="Fill-12" points="0 358.285714 0 307.0468 168.443439 89.2958677 7.20551383 89.2958677 7.20551383 32.5714286 259.314412 32.5714286 259.314412 82.8918063 90.3211805 301.561275 292.8 301.561275 292.8 358.285714"></polygon>
                    <path d="M515.263217,191.311216 C535.130572,183.532562 563.820706,160.203022 563.820706,124.058937 C563.820706,68.2530342 519.133649,32.5714286 442.446305,32.5714286 L284.666667,32.5714286 L284.666667,277.827066 L350.792435,277.827066 L350.792435,267.048716 L350.792435,221.500873 L350.792435,164.320378 L350.792435,142.680174 L350.792435,89.2958677 L436.379838,89.2958677 C468.933964,89.2958677 487.133362,104.390696 487.133362,126.808123 C487.133362,149.225549 468.933964,164.320378 436.379838,164.320378 L377.788853,164.320378 L377.788853,221.500873 L441.345067,221.500873 C476.095227,221.500873 492.652429,239.351311 492.652429,261.299834 C492.652429,283.261204 476.095227,301.561275 441.345067,301.561275 L384.215958,301.561275 L361.354011,301.561275 L284.666667,301.561275 L284.666667,358.285714 L449.073049,358.285714 C519.133649,358.285714 569.333333,325.346871 569.333333,264.5115 C569.333333,221.05124 538.994563,200.45804 515.263217,191.311216" id="Fill-13"></path>
                    <polygon id="Fill-14" points="349.733333 65.1428571 374.133333 65.1428571 374.133333 0 349.733333 0"></polygon>
                    <polygon id="Fill-15" points="414.8 65.1428571 439.2 65.1428571 439.2 0 414.8 0"></polygon>
                    <polygon id="Fill-16" points="349.733333 399 374.133333 399 374.133333 333.857143 349.733333 333.857143"></polygon>
                    <polygon id="Fill-17" points="414.8 399 439.2 399 439.2 333.857143 414.8 333.857143"></polygon>
                </g>
            </g>
            <text id="Since-2013" font-family="PingFangSC-Light, PingFang SC" font-size="113" font-weight="300" letter-spacing="0.565000071" fill="#424244">
                <tspan x="1741.0365" y="227">Since 2013</tspan>
            </text>
        </g>
    </g>
</svg>