<svg xmlns="http://www.w3.org/2000/svg" width="1087" height="577" viewBox="0 0 1087 577">
    <g fill="none" fill-rule="evenodd">
        <path stroke="#98A7B4" stroke-width=".25" d="M334.212 0v526.726M541.474 0v526.726M126.95 0v526.726"/>
        <path stroke="#98A7B4" stroke-width=".5" d="M976.337 527.571H106.863"/>
        <path stroke="#98A7B4" stroke-width=".25" d="M976.337 427.571H106.863M976.337 327.571H106.863M976.337 227.571H106.863M976.337 127.571H106.863M976.337 27.571H106.863M748.736 0v526.726M955.999 526.726V0"/>
        <text fill="#000" font-family="Lato-Regular, Lato" font-size="14">
            <tspan x="0" y="31.549">Amount raised</tspan>
        </text>
        <text fill="#98A7B4" font-family="Lato-Regular, Lato" font-size="14">
            <tspan x="55.986" y="429.529">$10M</tspan>
        </text>
        <text fill="#98A7B4" font-family="Lato-Regular, Lato" font-size="14">
            <tspan x="55.986" y="329.527">$20M</tspan>
        </text>
        <text fill="#98A7B4" font-family="Lato-Regular, Lato" font-size="14">
            <tspan x="55.986" y="229.525">$30M</tspan>
        </text>
        <text fill="#98A7B4" font-family="Lato-Regular, Lato" font-size="14">
            <tspan x="55.986" y="129.523">$40M</tspan>
        </text>
        <text fill="#98A7B4" font-family="Lato-Regular, Lato" font-size="14">
            <tspan x="999.166" y="429.529">2K</tspan>
        </text>
        <text fill="#98A7B4" font-family="Lato-Regular, Lato" font-size="14">
            <tspan x="999.166" y="333.531">4K</tspan>
        </text>
        <text fill="#98A7B4" font-family="Lato-Regular, Lato" font-size="14">
            <tspan x="999.166" y="233.529">6K</tspan>
        </text>
        <text fill="#98A7B4" font-family="Lato-Regular, Lato" font-size="14">
            <tspan x="999.166" y="133.527">8K</tspan>
        </text>
        <text fill="#000" font-family="Lato-Regular, Lato" font-size="18.313" transform="translate(126 16.173)">
            <tspan x="147.022" y="556.673">Advisor Round</tspan>
        </text>
        <text fill="#000" font-family="Lato-Regular, Lato" font-size="18.313" transform="translate(126 16.173)">
            <tspan x="351.195" y="556.673">St</tspan> <tspan x="367.732" y="556.673" letter-spacing="-.348">r</tspan> <tspan x="374.417" y="556.673">ategic Round</tspan>
        </text>
        <text fill="#000" font-family="Lato-Regular, Lato" font-size="18.313" transform="translate(126 16.173)">
            <tspan x="562.255" y="556.673">Coinlist Round</tspan>
        </text>
        <text fill="#8FA7B7" font-family="Lato-Regular, Lato" font-size="18.313" transform="translate(126 16.173)">
            <tspan x="771.997" y="556.673">Lorem Ipsum</tspan>
        </text>
        <text fill="#000" font-family="Lato-Regular, Lato" font-size="14" transform="translate(126 16.173)">
            <tspan x="873.163" y="14.376">I</tspan> <tspan x="877.461" y="14.376" letter-spacing="-.224">n</tspan> <tspan x="884.797" y="14.376" letter-spacing="-.181">v</tspan> <tspan x="891.602" y="14.376">estor count</tspan>
        </text>
        <path fill="#1A82FF" fill-opacity=".4" d="M126.95 526.726s76.877-7.656 207.371-22.655c130.493-15 102.304-213.104 208.49-289.486C606.18 169 651.013 162 748.3 145.588c96.59-16.295 208.488-29.998 208.488-29.998L956 526.726h-829.05z"/>
        <path stroke="#1A82FF" stroke-width="2" d="M126.95 526.726s76.877-7.656 207.371-22.655c130.493-15 102.304-213.104 208.49-289.486C606.18 169 651.013 162 748.3 145.588M748.3 145.588l2.957-.497"/>
        <path stroke="#1A82FF" stroke-dasharray="5.847,5.847" stroke-width="2" d="M757.027 144.13c81.252-13.456 170.504-24.877 193.895-27.811"/>
        <path stroke="#1A82FF" stroke-width="2" d="M953.816 115.958c1.945-.242 2.974-.368 2.974-.368"/>
        <path fill="#6E3BEA" fill-opacity=".4" d="M126.95 526.726l207.371-1.655s145.618-1.931 208.49-9.001c62.87-7.07 81.213-8.33 205.49-30.498C919.68 455 956.788 28.594 956.788 28.594L956 526.726h-829.05z"/>
        <path stroke="#6E3BEA" stroke-width="2" d="M126.95 526.726l207.371-1.655s145.618-1.931 208.49-9.001c62.87-7.07 81.213-8.33 205.49-30.498M748.3 485.571a110.1 110.1 0 0 0 2.945-.567"/>
        <path stroke="#6E3BEA" stroke-dasharray="6.003,6.003" stroke-width="2" d="M757.086 483.631C909.3 443.433 951.044 85.308 956.212 34.564"/>
        <path stroke="#6E3BEA" stroke-width="2" d="M956.51 31.576c.19-1.956.28-2.982.28-2.982"/>
        <text fill="#007CFF" font-family="Lato-Bold, Lato" font-size="18.313" font-weight="bold">
            <tspan x="313.384" y="492.846">$3M</tspan>
        </text>
        <text fill="#8900FD" font-family="Lato-Bold, Lato" font-size="18.313" font-weight="bold">
            <tspan x="526.589" y="502.846">193</tspan>
        </text>
        <text fill="#8900FD" font-family="Lato-Bold, Lato" font-size="18.313" font-weight="bold">
            <tspan x="731.589" y="471.846">693</tspan>
        </text>
        <text fill="#007CFF" font-family="Lato-Bold, Lato" font-size="18.313" font-weight="bold">
            <tspan x="510.702" y="187.846">$31.5M</tspan>
        </text>
        <text fill="#007CFF" font-family="Lato-Bold, Lato" font-size="18.313" font-weight="bold">
            <tspan x="716.702" y="127.846">$38.1M</tspan>
        </text>
    </g>
</svg>
