<svg xmlns="http://www.w3.org/2000/svg" xmlns:xlink="http://www.w3.org/1999/xlink" width="111" height="112" viewBox="0 0 111 112">
    <defs>
        <path id="prefix__a" d="M0 0.557L110.445 0.557 110.445 111.384 0 111.384z"/>
    </defs>
    <g fill="none" fill-rule="evenodd">
        <g transform="translate(0 .058)">
            <mask id="prefix__b" fill="#fff">
                <use xlink:href="#prefix__a"/>
            </mask>
            <path fill="#FF672A" d="M.002 56.385C-.227 25.782 24.312.787 54.81.558c30.498-.228 55.406 24.395 55.634 54.999.228 30.603-24.311 55.597-54.809 55.826C25.137 111.612.23 86.988.002 56.385" mask="url(#prefix__b)"/>
        </g>
        <path fill="#FF672A" d="M55.222 98.265c-1.345 0-2.69-.939-3.876-1.768-.3-.208-.588-.41-.863-.586-1.307-.835-9.283-6.325-13.747-9.536-4.478-3.222-5.629-5.623-7.26-12.208-.779-3.14-7.445-28.953-7.512-29.214l-.047-.18 2.273-6.637-1.855-4.655.26-.285c.023-.025 2.326-2.545 5.077-5.359 1.195-1.222 2.999-1.841 5.36-1.841 1.53 0 2.881.266 3.518.414l6.632-7.693h24.08l6.633 7.693c.637-.148 1.988-.414 3.519-.414 2.36 0 4.164.62 5.359 1.841 2.751 2.814 5.054 5.334 5.077 5.359l.26.285-1.855 4.655 2.273 6.638-.047.18c-.067.26-6.733 26.073-7.511 29.213-1.632 6.585-2.783 8.986-7.26 12.208-4.465 3.21-12.44 8.7-13.748 9.536-.275.175-.564.378-.863.586-1.186.83-2.531 1.768-3.877 1.768"/>
        <path fill="#FFF" d="M67.543 18.102H42.903l-.367.425-6.211 7.204c-.748-.155-1.957-.35-3.293-.35-2.532 0-4.482.681-5.797 2.025-2.76 2.821-5.07 5.35-5.092 5.374l-.52.57.285.718 1.628 4.084-2.139 6.247-.12.35.093.359c.067.26 6.732 26.07 7.51 29.208 1.535 6.195 2.644 9.066 7.499 12.56 4.467 3.213 12.46 8.714 13.775 9.554.26.167.543.364.844.574 1.259.88 2.686 1.876 4.224 1.876 1.538 0 2.966-.997 4.226-1.876.3-.21.583-.407.843-.574 1.314-.84 9.309-6.341 13.776-9.555 4.855-3.493 5.963-6.364 7.498-12.559.778-3.138 7.443-28.948 7.51-29.208l.093-.36-.12-.35-2.139-6.246 1.628-4.084.285-.718-.52-.57c-.023-.025-2.333-2.553-5.092-5.374-1.315-1.344-3.265-2.026-5.797-2.026-1.336 0-2.545.196-3.292.351l-6.211-7.204-.367-.425zm-.561 1.23l6.696 7.767s1.718-.488 3.735-.488c1.715 0 3.646.353 4.922 1.657 2.776 2.838 5.063 5.343 5.063 5.343L85.6 38.12l2.287 6.68s-6.725 26.04-7.513 29.22c-1.552 6.262-2.613 8.683-7.023 11.855-4.41 3.173-12.413 8.684-13.72 9.519-1.306.834-2.939 2.256-4.41 2.256-1.47 0-3.103-1.422-4.409-2.256-1.307-.835-9.31-6.346-13.72-9.519-4.41-3.172-5.47-5.593-7.023-11.855-.788-3.18-7.513-29.22-7.513-29.22l2.287-6.68-1.797-4.508s2.287-2.505 5.063-5.343c1.276-1.304 3.207-1.657 4.922-1.657 2.017 0 3.734.488 3.734.488l6.697-7.767h23.519z"/>
        <path fill="#FFF" d="M55.257 31.27c.22.006 1.459.067 3.232.671 1.96.668 4.083 1.503 5.063 1.503.98 0 8.249-1.419 8.249-1.419s8.612 10.644 8.612 12.92c0 2.275-1.083 2.875-2.173 4.058l-6.458 7.011c-.611.663-1.883 1.669-1.134 3.48.747 1.81 1.851 4.113.624 6.45-1.228 2.335-3.33 3.895-4.678 3.637-1.347-.258-4.512-1.948-5.676-2.72-1.163-.773-4.852-3.883-4.852-5.073 0-1.19 3.813-3.326 4.517-3.81.705-.486 3.917-2.365 3.984-3.102.065-.738.04-.954-.908-2.776-.948-1.823-2.655-4.254-2.372-5.872.285-1.617 3.039-2.459 5.003-3.217 1.965-.759 5.749-2.191 6.221-2.414.473-.224.351-.435-1.08-.574-1.432-.139-5.495-.69-7.327-.168-1.832.522-4.961 1.315-5.214 1.737-.254.42-.478.435-.217 1.888.26 1.453 1.6 8.423 1.73 9.661.13 1.239.385 2.057-.921 2.362-1.306.305-3.504.835-4.26.835-.755 0-2.953-.53-4.259-.835-1.306-.305-1.052-1.123-.922-2.362.131-1.238 1.471-8.208 1.731-9.661.26-1.453.037-1.467-.216-1.888-.254-.422-3.384-1.215-5.215-1.737-1.832-.522-5.895.03-7.326.168-1.432.139-1.555.35-1.082.574.473.223 4.256 1.655 6.222 2.414 1.965.758 4.718 1.6 5.003 3.217.284 1.618-1.424 4.05-2.372 5.872s-.973 2.038-.907 2.776c.065.737 3.278 2.616 3.982 3.101.705.485 4.517 2.622 4.517 3.811 0 1.19-3.688 4.3-4.852 5.072-1.163.773-4.327 2.463-5.675 2.72-1.348.259-3.45-1.3-4.678-3.637-1.227-2.336-.124-4.64.625-6.45.748-1.81-.524-2.816-1.136-3.479l-6.458-7.011c-1.089-1.183-2.173-1.783-2.173-4.058 0-2.276 8.614-12.92 8.614-12.92s7.268 1.42 8.248 1.42c.98 0 3.103-.836 5.063-1.504 1.774-.604 3.012-.665 3.232-.672h.07zm-.035 36.8c.448 0 3.317 1.035 5.618 2.253 2.301 1.218 3.97 2.079 4.503 2.42.533.341.208.985-.278 1.336-.486.35-7.012 5.517-7.645 6.088-.634.572-1.564 1.515-2.198 1.515-.633 0-1.563-.943-2.197-1.515-.633-.57-7.16-5.738-7.646-6.088-.485-.351-.81-.995-.277-1.336.533-.341 2.201-1.202 4.503-2.42 2.301-1.218 5.17-2.253 5.617-2.253z"/>
    </g>
</svg>
