<svg xmlns="http://www.w3.org/2000/svg" xmlns:xlink="http://www.w3.org/1999/xlink" width="232" height="344" viewBox="0 0 232 344">
    <defs>
        <path id="a" d="M0 .057h124.986v71.987H0z"/>
        <path id="c" d="M0 .09h124.986V71.9H0z"/>
        <path id="e" d="M0 .091h124.986V72.29H0z"/>
        <path id="g" d="M0 .091h124.986V72.29H0z"/>
        <path id="i" d="M0 210.29h124.986V0H0z"/>
    </defs>
    <g fill="none" fill-rule="evenodd">
        <g transform="translate(63 137.956)">
            <mask id="b" fill="#fff">
                <use xlink:href="#a"/>
            </mask>
            <path fill="#111D28" fill-opacity=".2" d="M121.97 31.96c4.02 2.317 4.02 6.106 0 8.421L70.013 70.307c-4.02 2.316-10.6 2.316-14.62 0L3.015 40.14c-4.02-2.315-4.02-6.104 0-8.42l51.96-29.926c4.02-2.315 10.598-2.315 14.619 0l52.377 30.167z" mask="url(#b)"/>
        </g>
        <path fill="#C2CBD3" d="M125.117 116.56c-2.625 0-5.25-.58-7.241-1.74L65.978 84.579c-1.941-1.131-2.93-2.614-2.978-4.105v74.28c.049 1.49 1.037 2.973 2.978 4.103l51.898 30.241c1.991 1.16 4.616 1.741 7.24 1.741V116.56z"/>
        <path fill="#98A7B4" d="M125.117 116.56c2.643 0 5.287-.58 7.292-1.74l51.825-30c2.06-1.192 3.053-2.774 2.997-4.346v74.28c.056 1.57-.937 3.153-2.997 4.345l-51.825 30c-2.005 1.16-4.649 1.74-7.292 1.74V116.56z"/>
        <g transform="translate(63 44.453)">
            <mask id="d" fill="#fff">
                <use xlink:href="#c"/>
            </mask>
            <path fill="#EBF0F3" d="M121.97 31.916c4.02 2.31 4.02 6.09 0 8.4L70.013 70.166c-4.02 2.31-10.6 2.31-14.62 0L3.015 40.075c-4.02-2.31-4.02-6.09 0-8.4l51.96-29.852c4.02-2.31 10.598-2.31 14.619 0l52.377 30.093z" mask="url(#d)"/>
        </g>
        <path fill="#2E3F53" d="M125.326 108.832c-1.71 0-3.02-.404-3.62-.75L72.97 79.97l48.318-27.869c.6-.346 1.909-.75 3.62-.75s3.02.404 3.62.75l48.737 28.111-48.318 27.87c-.6.346-1.909.75-3.62.75"/>
        <path fill="#252C33" d="M125.117 108.832c-1.705 0-3.008-.404-3.606-.75L72.969 79.97l48.124-27.869c.598-.346 1.901-.75 3.606-.75l.418 57.481z"/>
        <path fill="#111D28" d="M105.71 133.9l-4.919 2.807c.196 1.234.297 2.52.297 3.849 0 7.146-2.923 9.724-7.818 6.895-2.042-1.18-3.765-2.925-5.064-5.105l17.042-9.726a34.18 34.18 0 0 0-1.562-3.493 32.998 32.998 0 0 0-.77-1.393l.002-.001-.107-.178c-.078-.133-.154-.27-.234-.401l-.004.002c-2.475-4.08-5.657-7.317-9.303-9.424-4.214-2.435-7.809-2.653-10.395-.63-2.431 1.902-3.77 5.72-3.77 10.75 0 3.343.594 6.832 1.704 10.18l4.945-2.822a25.297 25.297 0 0 1-.259-3.665c0-3.289.583-5.612 1.733-6.904 1.348-1.516 3.438-1.521 6.042-.016 2.027 1.171 3.715 2.88 4.998 4.988l-17.008 9.705a34.142 34.142 0 0 0 1.615 3.643c.122.235.248.466.374.697l.004.007c.146.267.295.53.446.79l.057.098c.049.083.095.168.144.25l.005-.003c2.477 4.136 5.682 7.415 9.365 9.543 4.217 2.437 7.818 2.66 10.416.644 2.445-1.899 3.793-5.712 3.793-10.738 0-3.394-.617-6.945-1.77-10.349"/>
        <path fill="#1A82FF" d="M82.172 42.536C82.172 19.044 101.055 0 124.35 0c23.294 0 42.178 19.044 42.178 42.536 0 23.493-18.884 42.537-42.178 42.537-23.295 0-42.178-19.044-42.178-42.537"/>
        <path fill="#05589B" d="M88.307 42.153c0-20.317 16.48-36.788 36.81-36.788 20.33 0 36.81 16.47 36.81 36.788 0 20.318-16.48 36.789-36.81 36.789-20.33 0-36.81-16.471-36.81-36.789"/>
        <path fill="#FFF" d="M121.282 27.591v19.183c0 2.94-.805 5.203-2.416 6.792-1.611 1.589-3.841 2.383-6.69 2.383-3.09 0-5.54-.867-7.35-2.602-1.81-1.733-2.716-4.23-2.716-7.486h6.75c0 2.621 1 3.932 2.996 3.932 1.73 0 2.596-1.006 2.596-3.019V27.591h6.83zM145.432 51.811c-.771 1.26-1.908 2.264-3.41 3.013-1.501.75-3.322 1.125-5.459 1.125-3.22 0-5.872-.776-7.956-2.33-2.084-1.553-3.22-3.722-3.41-6.508h7.388c.108 1.072.494 1.915 1.157 2.531.663.616 1.508.924 2.537.924.893 0 1.596-.24 2.11-.723.514-.482.772-1.125.772-1.928 0-.723-.237-1.326-.71-1.808-.474-.482-1.063-.877-1.766-1.185-.704-.308-1.679-.676-2.923-1.105-1.813-.615-3.295-1.211-4.445-1.787-1.15-.576-2.137-1.433-2.963-2.571-.825-1.138-1.237-2.618-1.237-4.44 0-1.687.432-3.146 1.298-4.378.866-1.231 2.064-2.175 3.593-2.832 1.528-.656 3.28-.984 5.256-.984 3.193 0 5.73.75 7.61 2.25 1.881 1.5 2.944 3.562 3.187 6.186h-7.51c-.135-.937-.48-1.68-1.034-2.23-.555-.548-1.306-.823-2.253-.823-.812 0-1.468.214-1.968.642-.502.43-.751 1.059-.751 1.888 0 .67.223 1.24.67 1.708.446.469 1.007.85 1.684 1.145.676.295 1.65.67 2.922 1.124 1.84.617 3.342 1.226 4.506 1.828 1.163.603 2.164 1.48 3.004 2.632.838 1.151 1.258 2.65 1.258 4.499 0 1.5-.386 2.879-1.157 4.137"/>
        <g>
            <path fill="#111D28" d="M228.97 257.09c4.02 2.322 4.02 6.122 0 8.444l-51.958 30.014c-4.02 2.323-10.6 2.323-14.62 0l-52.377-30.255c-4.02-2.323-4.02-6.123 0-8.445l51.96-30.014c4.02-2.323 10.598-2.323 14.619 0l52.377 30.255z" opacity=".2"/>
            <path fill="#C2CBD3" d="M169.7 203.48c-2.649 0-5.298-.58-7.308-1.741l-52.377-30.256c-1.959-1.132-2.956-2.615-3.005-4.107v74.316c.05 1.492 1.046 2.975 3.005 4.106l52.377 30.256c2.01 1.161 4.659 1.742 7.308 1.742V203.48z"/>
            <path fill="#98A7B4" d="M169.7 203.48c2.65 0 5.3-.58 7.312-1.741l51.959-30.015c2.065-1.193 3.06-2.775 3.004-4.348v74.316c.057 1.572-.94 3.155-3.004 4.348l-51.96 30.014c-2.01 1.162-4.66 1.742-7.311 1.742V203.48z"/>
            <g transform="translate(107 131.19)">
                <mask id="f" fill="#fff">
                    <use xlink:href="#e"/>
                </mask>
                <path fill="#EBF0F3" d="M121.97 32.089c4.02 2.322 4.02 6.122 0 8.445L70.013 70.548c-4.02 2.322-10.6 2.322-14.62 0L3.015 40.292c-4.02-2.322-4.02-6.122 0-8.445l51.96-30.014c4.02-2.322 10.598-2.322 14.619 0L121.97 32.09z" mask="url(#f)"/>
            </g>
            <path fill="#2E3F53" d="M169.113 195.827c-1.706 0-3.01-.404-3.609-.75l-48.583-28.064 48.165-27.822c.599-.346 1.903-.75 3.609-.75s3.01.404 3.609.75l48.583 28.064-48.165 27.823c-.599.345-1.903.75-3.609.75"/>
            <path fill="#252C33" d="M169.113 195.827c-1.706 0-3.01-.404-3.609-.75l-48.583-28.064 48.165-27.822c.599-.346 1.903-.75 3.609-.75l.418 57.386z"/>
            <path fill="#111D28" d="M149.738 220.944l-4.942 2.819c.197 1.238.298 2.53.298 3.865 0 7.176-2.936 9.765-7.854 6.924-2.051-1.185-3.782-2.938-5.087-5.127l17.121-9.767a34.36 34.36 0 0 0-1.57-3.508 33.135 33.135 0 0 0-.773-1.398l.002-.002-.107-.178c-.08-.134-.156-.27-.236-.403l-.004.002c-2.486-4.098-5.683-7.348-9.346-9.464-4.233-2.446-7.844-2.664-10.442-.633-2.443 1.91-3.789 5.745-3.789 10.796 0 3.357.598 6.86 1.713 10.223l4.968-2.834a25.395 25.395 0 0 1-.26-3.68c0-3.303.585-5.636 1.74-6.934 1.355-1.522 3.454-1.527 6.07-.016 2.037 1.177 3.732 2.893 5.021 5.009l-17.086 9.747a34.28 34.28 0 0 0 1.623 3.658c.122.236.249.468.376.7l.003.007c.146.268.296.532.449.793l.057.099c.048.083.095.168.144.25l.006-.003c2.487 4.154 5.707 7.447 9.407 9.584 4.236 2.447 7.854 2.67 10.464.646 2.457-1.906 3.81-5.736 3.81-10.783 0-3.408-.619-6.974-1.777-10.392"/>
            <path fill="#1CB981" d="M126.106 129.82c0-23.649 19.16-42.82 42.796-42.82s42.796 19.171 42.796 42.82c0 23.647-19.16 42.818-42.796 42.818s-42.796-19.17-42.796-42.819"/>
            <path fill="#13A26B" d="M131.935 129.82c0-20.428 16.55-36.987 36.967-36.987 20.416 0 36.967 16.559 36.967 36.986 0 20.427-16.55 36.987-36.967 36.987-20.416 0-36.967-16.56-36.967-36.987"/>
            <path fill="#FFF" d="M175.71 128.976c1.735.407 3.11 1.247 4.126 2.521 1.016 1.274 1.524 2.752 1.524 4.433 0 2.467-.82 4.392-2.459 5.774-1.639 1.383-3.99 2.074-7.051 2.074h-13.372v-28.75h13.047c2.926 0 5.188.637 6.787 1.911 1.599 1.274 2.398 3.09 2.398 5.45 0 1.734-.46 3.178-1.382 4.33-.921 1.152-2.127 1.905-3.617 2.257zm-10.282-2.196h4.552c2.412 0 3.617-1.03 3.617-3.09 0-2.06-1.232-3.091-3.698-3.091h-4.471v6.181zm4.959 11.346c2.574 0 3.86-1.058 3.86-3.172 0-1.03-.338-1.837-1.015-2.42-.678-.583-1.64-.874-2.886-.874h-4.918v6.466h4.959z"/>
        </g>
        <g transform="translate(0 133)">
            <path fill="#111D28" d="M121.97 170.09c4.02 2.322 4.02 6.122 0 8.444l-51.958 30.014c-4.02 2.323-10.6 2.323-14.62 0L3.015 178.293c-4.02-2.323-4.02-6.123 0-8.445l51.96-30.014c4.02-2.323 10.598-2.323 14.619 0l52.377 30.255z" opacity=".2"/>
            <path fill="#C2CBD3" d="M62.7 116.48c-2.649 0-5.298-.58-7.308-1.741L3.015 84.483C1.056 83.35.06 81.868.01 80.376v74.316c.05 1.492 1.046 2.975 3.005 4.106l52.377 30.256c2.01 1.161 4.659 1.742 7.308 1.742V116.48z"/>
            <path fill="#98A7B4" d="M62.7 116.48c2.65 0 5.3-.58 7.312-1.741l51.959-30.015c2.065-1.193 3.06-2.775 3.004-4.348v74.316c.057 1.572-.94 3.155-3.004 4.348l-51.96 30.014c-2.01 1.162-4.66 1.742-7.311 1.742V116.48z"/>
            <g transform="translate(0 44.19)">
                <mask id="h" fill="#fff">
                    <use xlink:href="#g"/>
                </mask>
                <path fill="#EBF0F3" d="M121.97 32.089c4.02 2.322 4.02 6.122 0 8.445L70.013 70.548c-4.02 2.322-10.6 2.322-14.62 0L3.015 40.292c-4.02-2.322-4.02-6.122 0-8.445l51.96-30.014c4.02-2.322 10.598-2.322 14.619 0L121.97 32.09z" mask="url(#h)"/>
            </g>
            <path fill="#2E3F53" d="M62.113 108.827c-1.706 0-3.01-.404-3.609-.75L9.921 80.014l48.165-27.822c.599-.346 1.903-.75 3.609-.75s3.01.404 3.609.75l48.583 28.064-48.165 27.823c-.599.345-1.903.75-3.609.75"/>
            <path fill="#252C33" d="M62.113 108.827c-1.706 0-3.01-.404-3.609-.75L9.921 80.014l48.165-27.822c.599-.346 1.903-.75 3.609-.75l.418 57.386z"/>
            <path fill="#111D28" d="M42.737 133.944l-4.941 2.819c.197 1.238.298 2.53.298 3.865 0 7.176-2.936 9.765-7.854 6.924-2.051-1.185-3.782-2.938-5.087-5.127l17.121-9.767a34.36 34.36 0 0 0-1.57-3.508 33.135 33.135 0 0 0-.773-1.398l.002-.002-.107-.178c-.08-.134-.156-.27-.236-.403l-.004.002c-2.486-4.098-5.683-7.348-9.346-9.464-4.233-2.446-7.844-2.664-10.442-.633-2.443 1.91-3.789 5.745-3.789 10.796 0 3.357.598 6.86 1.713 10.223l4.968-2.834a25.395 25.395 0 0 1-.26-3.68c0-3.303.585-5.636 1.74-6.934 1.355-1.522 3.454-1.527 6.07-.016 2.037 1.177 3.732 2.893 5.021 5.009l-17.086 9.747a34.28 34.28 0 0 0 1.623 3.658c.122.236.249.468.376.7l.003.007c.146.268.296.532.449.793l.057.099c.048.083.095.168.144.25l.006-.003c2.487 4.154 5.707 7.447 9.407 9.584 4.236 2.447 7.854 2.67 10.464.646 2.457-1.906 3.81-5.736 3.81-10.783 0-3.408-.619-6.974-1.777-10.392"/>
            <path fill="#6E3BEA" d="M19.106 42.82C19.106 19.17 38.266 0 61.902 0s42.796 19.171 42.796 42.82c0 23.647-19.16 42.818-42.796 42.818s-42.796-19.17-42.796-42.819"/>
            <path fill="#4019BA" d="M24.935 42.82c0-20.428 16.55-36.987 36.967-36.987 20.416 0 36.967 16.559 36.967 36.986 0 20.427-16.55 36.987-36.967 36.987-20.416 0-36.967-16.56-36.967-36.987"/>
            <path fill="#FFF" d="M68.778 47.655c1.493-1.426 2.239-3.43 2.239-6.013 0-2.583-.746-4.587-2.239-6.013-1.492-1.426-3.583-2.139-6.272-2.139H59.24v16.304h3.267c2.689 0 4.78-.713 6.272-2.14m7.422 1.433c-1.197 2.166-2.918 3.854-5.163 5.065-2.245 1.21-4.887 1.816-7.926 1.816H52.342V27.437h10.77c3.065 0 5.713.592 7.945 1.776 2.232 1.184 3.946 2.851 5.143 5.004 1.196 2.152 1.795 4.627 1.795 7.425s-.6 5.28-1.795 7.445"/>
            <mask id="j" fill="#fff">
                <use xlink:href="#i"/>
            </mask>
            <path fill="#FFF" d="M46.863 44.577H64.41v-5.959H46.863z" mask="url(#j)"/>
        </g>
    </g>
</svg>
