<svg xmlns="http://www.w3.org/2000/svg" xmlns:xlink="http://www.w3.org/1999/xlink" width="328" height="206" viewBox="0 0 328 206">
    <defs>
        <path id="a" d="M.134.074h87.05v162.079H.133z"/>
        <path id="c" d="M.357.206h54.096V27.84H.357z"/>
    </defs>
    <g fill="none" fill-rule="evenodd">
        <path fill="#C0CBD4" d="M291.187 111.225l2.435-1.406c.584-.33.944-1.04.944-2.051l.02.011V52.216c0-2.02-1.441-4.507-3.223-5.535l-19.597-11.315c-.907-.523-1.726-.567-2.311-.217l-2.436 1.406 24.168 74.67z"/>
        <path fill="#111D28" d="M294.824 113.3l-2.53 1.461c-.539.31-1.479.272-2.1-.087l-24.461-14.123c-.621-.359-.689-.901-.15-1.212l2.53-1.461c.538-.311 1.478-.272 2.1.087l24.46 14.123c.622.358.69.901.151 1.212" opacity=".1"/>
        <path fill="#FFF" d="M292.13 109.174c0 1.01-.36 1.721-.943 2.051-.583.33-1.389.278-2.28-.236l-19.576-11.303c-1.782-1.029-3.223-3.515-3.223-5.536V38.587c0-.992.347-1.695.911-2.032.586-.35 1.405-.306 2.312.218l19.596 11.314c1.782 1.029 3.223 3.514 3.223 5.536v55.563l-.02-.012z"/>
        <path fill="#1A82FF" d="M267.91 44.198l22.399 12.932v45.733l-22.4-12.933z"/>
        <path fill="#192A32" d="M281.521 49.691c0 .138-.08.207-.2.137l-4.023-2.323a.488.488 0 0 1-.2-.368v-.597c0-.138.08-.206.2-.138l4.023 2.324c.1.057.2.23.2.368v.597zM279.32 44.584c.33.191.6.655.6 1.035 0 .381-.27.534-.6.343-.332-.192-.601-.655-.601-1.036 0-.38.269-.534.6-.342M279.119 98.446c1.105.639 2.002 2.184 2.002 3.453 0 1.268-.897 1.78-2.002 1.141-1.106-.638-2.002-2.184-2.002-3.452 0-1.269.896-1.78 2.002-1.142M294.065 66.57c0 .363-.256.805-.573.988-.317.183-.573.036-.573-.327v-4.226c0-.363.256-.805.573-.988.317-.182.573-.036.573.327v4.226z"/>
        <path fill="#111D28" d="M324.096 155.368l-8.285 4.783c-1.762 1.017-4.839.89-6.873-.285l-42.715-24.662c-2.035-1.174-2.256-2.951-.494-3.968l8.285-4.783c1.762-1.017 4.84-.89 6.873.285l42.715 24.661c2.035 1.175 2.255 2.951.494 3.969" opacity=".1"/>
        <path fill="#2E3F53" d="M321.305 127.914s-.993-1.17-4.345-1.17c-4.94 0-9.859 4.846-12.198 10.61-2.34 5.766-2.006 11.782.919 13.87 2.924 2.09 6.672 3.138 8.271 3.092 1.691-.049 7.353-26.402 7.353-26.402"/>
        <path fill="#6F8294" d="M313.952 154.316c-3.426 0-5.18-2.507-5.18-5.765 0-3.259 2.411-17.128 13.536-17.128 4.094 0 5.514 2.089 5.514 5.43 0 3.343-3.927 17.463-13.87 17.463"/>
        <path fill="#40A0FF" d="M318.798 133.553s-6.642 4.261-6.642 12.283c0 4.887 2.694 6.14 4.888 6.14 4.7 0 8.898-8.773 8.898-12.657v-3.886s5.89-29.703-17.797-47.75c-13.598-10.36-25.692-1.88-25.692-1.88s10.841-3.509 21.807 6.267c10.095 8.999 19.426 22.308 14.538 41.483"/>
        <path fill="#1A82FF" d="M279.195 102.514c0-4.178 11.446-21.557 25.065-9.024 21.222 19.53 13.452 39.77 13.452 39.77-2.757 2.257-6.768 6.518-6.768 12.367 0 5.848 2.84 6.35 2.84 6.35h3.26c-2.194 0-4.888-1.254-4.888-6.141 0-8.022 6.642-12.283 6.642-12.283 4.888-19.175-4.443-32.484-14.538-41.483-10.966-9.776-21.807-6.266-21.807-6.266s-16.71 5.931-11.948 33.337l8.69-16.627z"/>
        <path fill="#2E3F53" d="M283.444 102.393c-.25-.084-1.909-.289-4.5.12-4.523.716-8.523 2.257-8.523 15.207 0 11.075 9.609 11.698 10.946 11.698 1.337 0 4.01-.168 4.846-1.42.836-1.254-2.769-25.605-2.769-25.605"/>
        <path fill="#6F8294" d="M283.038 102.347c4.01 0 9.441 3.258 9.441 14.12 0 10.862-5.848 12.282-8.355 12.282-2.506 0-9.859-3.342-9.859-13.87 0-10.527 6.768-12.532 8.773-12.532"/>
        <path fill="#2E3F53" d="M283.122 105.605c4.584 0 6.85 4.512 6.85 9.441 0 4.93-1.503 10.11-4.51 10.11-5.11 0-7.354-4.93-7.354-9.775 0-4.846 1.41-9.776 5.014-9.776"/>
        <path stroke="#2FB7EC" stroke-width=".08" d="M318.656 146.546c-1.1 0-1.664-.805-1.664-1.852 0-1.047 1.128-5.501 4.348-5.501 1.314 0 1.77.671 1.77 1.744 0 1.074-1.26 5.609-4.454 5.609z"/>
        <path fill="#111D28" d="M235.892 111.267c4.083-3.712 7.85-8.882 9.031-13.797 1.182-4.914.709-10.06.107-15.08-.746-6.216-1.728-12.562-4.74-18.05-4.5-8.195-12.866-13.387-20.872-18.213-8.203-4.945-18.74-8.666-26.943-13.61-9.044-5.451-20.434-11.096-30.755-8.864-3.992.864-7.63 2.865-11.204 4.841-8.186 4.527-12.859 7.808-21.044 12.335-10.712 5.924-21.442 11.86-31.545 18.77-13.93 9.53-26.523 22.008-39.092 33.272-15.847 14.2-31.721 27.227-47.016 42.02C6.323 140.206.559 146.307.037 153.934c-.49 7.143 3.992 19.697 9.335 24.463 5.483 4.89 23.098 17.202 31.749 20.465 10.83 4.084 35.207 11.446 52.621.93s136.578-83.46 142.15-88.525" opacity=".1"/>
        <path fill="#000" d="M239.371 72.33l-3.479 17.72-111.76 77.19-46.59 11.915-6.6-37.01 164.736-77.997z"/>
        <path fill="#48636F" d="M101.759 189.208l-5.55-3.065c-2.456-1.325-4.016-4.268-4.097-8.51-.16-8.457 5.617-18.876 12.906-23.271 3.645-2.198 6.977-2.473 9.418-1.143l5.55 3.065-18.227 32.924z"/>
        <path fill="#7E9AA6" d="M97.663 180.698c-.161-8.457 5.617-18.876 12.906-23.271 3.644-2.198 6.976-2.473 9.417-1.143 2.441 1.331 3.991 4.268 4.072 8.497.161 8.457-5.617 18.876-12.906 23.271-3.633 2.19-6.955 2.471-9.393 1.156-2.455-1.325-4.015-4.268-4.096-8.51"/>
        <path fill="#D4E3EB" d="M100.686 178.875c-.124-6.52 4.33-14.552 9.95-17.94 2.809-1.694 5.377-1.907 7.26-.88 1.88 1.025 3.076 3.29 3.138 6.549.124 6.52-4.33 14.551-9.95 17.94-2.8 1.688-5.36 1.905-7.24.89-1.892-1.02-3.095-3.289-3.158-6.56"/>
        <path fill="#FFF" d="M107.516 174.756c-.04-2.143 1.424-4.783 3.27-5.896.924-.557 1.768-.627 2.387-.29.618.337 1.01 1.081 1.031 2.153.04 2.142-1.423 4.783-3.27 5.896-.92.555-1.762.627-2.38.293-.622-.335-1.017-1.081-1.038-2.156"/>
        <path fill="#48636F" d="M213.72 119.641l-5.55-3.065c-2.455-1.324-4.016-4.267-4.097-8.51-.16-8.457 5.618-18.875 12.906-23.27 3.645-2.199 6.977-2.474 9.418-1.143l5.55 3.065-18.227 32.923z"/>
        <path fill="#7E9AA6" d="M209.624 111.131c-.161-8.456 5.617-18.875 12.906-23.27 3.644-2.198 6.976-2.474 9.418-1.143 2.44 1.33 3.99 4.268 4.07 8.496.162 8.457-5.616 18.876-12.905 23.272-3.632 2.19-6.954 2.47-9.393 1.155-2.455-1.324-4.015-4.267-4.096-8.51"/>
        <path fill="#D4E3EB" d="M212.648 109.308c-.125-6.52 4.33-14.551 9.948-17.94 2.81-1.694 5.379-1.906 7.26-.88 1.882 1.026 3.078 3.29 3.14 6.55.124 6.519-4.33 14.55-9.95 17.94-2.8 1.688-5.36 1.904-7.24.89-1.893-1.02-3.096-3.29-3.158-6.56"/>
        <path fill="#FFF" d="M219.478 105.19c-.041-2.143 1.423-4.783 3.27-5.897.923-.557 1.767-.627 2.386-.29.618.338 1.011 1.082 1.032 2.153.04 2.143-1.424 4.783-3.27 5.897-.921.555-1.763.626-2.38.293-.623-.336-1.018-1.081-1.038-2.157"/>
        <path fill="#DD0A0A" d="M235.892 90.051c4.72-1.81 7.85-6.525 9.031-11.44 1.182-4.914.709-10.06.107-15.08-.746-6.216-1.728-12.562-4.74-18.05-4.5-8.194-12.866-13.387-20.872-18.213-8.203-4.944-18.74-8.665-26.943-13.61-9.044-5.451-20.434-11.095-30.755-8.864-3.992.864-7.63 2.865-11.204 4.841-8.186 4.528-12.859 7.809-21.044 12.335-10.712 5.924-21.442 11.86-31.545 18.77-13.93 9.53-26.523 22.008-39.092 33.272-15.847 14.2-31.721 27.227-47.016 42.02C6.323 121.347.559 127.45.037 135.076c-.49 7.143 3.992 19.696 9.335 24.462 5.483 4.89 23.098 17.203 31.749 20.465 10.83 4.084 43.854 12.592 52.621.93 0 0-1.684-19.423 20.067-29.56 11.539-5.377 10.323 15.866 10.323 15.866L205.364 115s-.076-19.45 15.495-29.767c15.57-10.317 15.033 4.819 15.033 4.819"/>
        <path fill="#FFF" d="M11.123 128.299l3.731 4.2c.362.408.735.835.885 1.36.102.355.093.73.084 1.1l-.25 9.93c-.024.983-.327 2.274-1.31 2.323-.457.023-.865-.266-1.219-.556-4.42-3.62-6.625-9.215-8.654-14.556-.278-.732-.56-1.485-.558-2.269.003-.735.256-1.445.532-2.127.696-1.714 1.576-3.895 2.955-5.025 1.358 1.816 2.246 3.866 3.804 5.62M60.855 158.514c-.875-.39-1.83-.842-2.751-.578-.47.135-.87.444-1.254.747l-7.139 5.606c-.83.653-1.698 1.918-.89 2.599.237.2.558.263.864.317a127.932 127.932 0 0 0 24.283 1.936c1.1-.018 2.224-.054 3.25-.453 4.474-1.74 4.45-6.557-.193-7.194-5.579-.765-10.886-.62-16.17-2.98"/>
        <path fill="#48636F" d="M52.383 160.354s-8.855-.715-20.185-7.573c-11.33-6.857-15.833-11.192-15.833-11.192l-2.102 5.623s7.669 8.122 15.696 11.8c8.028 3.68 16.928 6.751 16.928 6.751l5.496-5.409z"/>
        <path fill="#B70808" d="M205.429 101.123c.166-.486.41-1.158.706-1.976 2.247-6.198 8.215-22.662 4.704-27.59-.666-.933-1.631-1.34-2.993-1.357-4.31.064-9.5 3.964-13.291 6.811-.627.47-1.219.916-1.771 1.317-5.21 3.79-10.074 8.05-14.777 12.167l-8.765 7.678c2.529 10.684 2.995 22.016 1.362 32.882a437.756 437.756 0 0 0 24.147-15.775c2.613-1.832 4.917-3.53 6.645-5.75 1.915-2.466 3.043-5.505 4.033-8.407zm-36.186 30.995c1.86-11.207 1.434-22.97-1.23-34.017l-.084-.346 9.3-8.145c4.723-4.137 9.607-8.414 14.862-12.235.547-.398 1.135-.839 1.756-1.306 3.92-2.945 9.288-6.977 13.982-7.048 1.724.03 3.074.597 3.97 1.852 3.87 5.432-2.035 21.72-4.555 28.675-.295.81-.535 1.475-.699 1.956-1.022 2.996-2.19 6.14-4.217 8.749-1.832 2.35-4.208 4.104-6.899 5.992a438.448 438.448 0 0 1-25.3 16.474l-1.095.66.21-1.26z"/>
        <path fill="#B70808" d="M131.081 154.944c1.299 0 2.867-.531 4.626-1.59l34.78-20.946-.609-1.012-34.779 20.947c-1.261.76-4.355 2.343-5.811.673-.543-.624-.683-1.545-.8-2.596l-2.584-23.389-1.17.128 2.584 23.39c.105.966.252 2.288 1.08 3.242.67.77 1.58 1.153 2.683 1.153"/>
        <path fill="#40A0FF" d="M215.194 45.854c-4.955-.303-9.8 1.382-14.41 3.217a196.12 196.12 0 0 0-37.96 20.175c-4.563 3.11-9.014 6.433-12.873 10.383-7.608 7.787-12.613 17.685-17.5 27.413-2.988 5.948-6.015 12.016-7.061 18.589-.148.925-.168 2.061.611 2.581.927.619 2.128-.147 2.975-.87 11.2-9.565 23.565-17.651 35.679-26.029 9.905-6.85 19.664-13.909 29.421-20.967l8.742-6.324c6.987-5.055 13.977-10.111 20.693-15.518 3.055-2.46 8.224-5.435 3.633-8.727-3.195-2.291-8.074-3.687-11.95-3.923"/>
        <path fill="#FFF" d="M240.128 43.836c-1.475 3.58-5.85 4.946-8.308 7.939 4.011 3.735 8.558 7.698 14.038 7.786"/>
        <path fill="#40A0FF" d="M223.416 35.84c-.672-.213-1.358-.434-1.919-.86-.874-.665-1.325-1.729-1.923-2.65-1.305-2.007-3.363-3.381-5.364-4.698l-12.903-8.494c8.945 3.058 16.837 8.518 24.6 13.911 2.507 1.743 6.463 3.621 8.26 6.06-3.526-.414-7.317-2.175-10.751-3.268"/>
        <path fill="#B70808" d="M55.682 76.788a17.703 17.703 0 0 1-3.186-5.168c-.79-1.98-1.218-4.09-2.008-6.07-.145-.365-.31-.736-.598-1.004-.62-.578-1.658-.488-2.347.005-.688.493-1.09 1.291-1.38 2.087-2 5.482.76 12.259 6.017 14.787M125.3 118.22c4.614 2.817 10.44 2.248 15.824 1.765.594-.053 1.231-.095 1.747.203.49.283.776.828.904 1.379.503 2.167-1.195 4.355-3.258 5.189-2.062.834-4.376.652-6.591.458-3.32-.292-6.912-.702-9.325-2.999M157.397 115.983a56.358 56.358 0 0 1 9.37-6.228c.707.416.58 1.546.009 2.134-.571.588-2.413 1.8-3.107 2.235-2.34 1.464-3.451 1.932-5.713 2.657-.69.363-.92-.198-.56-.798M197.545 88.497a56.358 56.358 0 0 1 9.37-6.228c.706.416.58 1.546.008 2.134-.57.588-2.412 1.8-3.106 2.235-2.341 1.464-3.452 1.932-5.714 2.657-.689.363-.92-.198-.558-.798"/>
        <path fill="#FFF" d="M41.942 169.198s-8.502-2.785-14.658-6.205c-6.156-3.419-11.133-6.86-11.133-6.86l-.077 6.288s5.16 2.653 11.115 5.88c5.956 3.226 14.076 6.608 14.076 6.608l.677-5.711z"/>
        <path fill="#48636F" d="M72.47 183.352s-27.973-3.79-44.27-13.5c-16.295-9.71-23.976-20.959-23.976-20.959s3.36 11.332 23.417 22.542c20.059 11.21 44.829 11.917 44.829 11.917"/>
        <path fill="#B70808" d="M66.143 155.424c1.314 0 2.633-.126 3.941-.416 3.385-.749 6.417-2.54 8.995-4.162a129.508 129.508 0 0 0 23.456-18.886c1.373-1.396 3.612-4.005 3.2-5.779l-1.148.267c.195.842-.967 2.726-2.892 4.687a128.347 128.347 0 0 1-23.243 18.714c-2.494 1.568-5.424 3.3-8.622 4.009-5.12 1.13-10.493-.423-15.07-2.095a105.17 105.17 0 0 1-29.692-16.716c-2.306-1.845-4.845-4.063-5.813-7.039-1.319-4.055.401-8.846 5.255-14.65 4.713-5.635 13.67-12.758 20.208-17.958l1.767-1.408-.734-.92-1.766 1.406c-6.58 5.23-15.59 12.396-20.38 18.123-5.135 6.14-6.926 11.299-5.472 15.771 1.069 3.285 3.76 5.643 6.198 7.595a106.357 106.357 0 0 0 30.024 16.904c3.593 1.311 7.666 2.553 11.788 2.553"/>
        <path fill="#40A0FF" d="M98.568 127.279c5.374 1.3 11.4 2.425 16.143-.417 3.438-2.062 5.45-5.799 7.267-9.371 5.544-10.9 10.363-20.842 15.332-32.016-19.495-7.642-38.841-16.162-54.789-29.73-7.884 5.763-12.988 12.247-20.185 18.557-6.184 5.423-17.426 12.532-19.07 17.408-2.65 7.86 11.837 18.048 22.262 23.743 11.05 6.04 23.857 9.604 33.04 11.826"/>
        <path fill="#111D28" d="M201.01 129.14c18.512-10.688 48.62-10.633 67.248.122 9.314 5.377 13.995 12.411 14.033 19.438.038 7.026-4.567 14.043-13.822 19.387-18.512 10.688-48.62 10.634-67.249-.121-9.314-5.378-13.994-12.412-14.032-19.438-.038-7.026 4.566-14.044 13.822-19.388" opacity=".1"/>
        <path fill="#5028CE" d="M235.01 2.874s-2.064 1.396-2.064 6.13c0 4.735 3.217 13.537 6.555 13.537 3.34 0 4.614-.91 4.614-.91l-4.614 5.523-17.057 11.716-5.949-5.949-2.366-4.795s7.647-.183 13.353-3.885c5.707-3.703 5.403-6.01 5.403-6.01s-1.942-4.977-1.942-9.166c0-5.341 4.067-6.191 4.067-6.191"/>
        <g transform="translate(190.321 .432)">
            <mask id="b" fill="#fff">
                <use xlink:href="#a"/>
            </mask>
            <path fill="#6E3BEA" d="M31.473 33.79c-2.092 0-8.004-7.912-8.004-13.642 0-5.73 1.729-7.64 3.548-7.64 4.002 0 7.64 8.095 7.64 15.916 0 3.184-1.092 5.367-3.184 5.367m34.158 31.296s-2.671-2.793-1.7-23.675c.073-1.564 4.007-5.463 4.007-9.651S55.737.074 48.27.074c-5.372 0-6.799 4.644-6.799 4.644s2.459-2.731 5.403-2.731c2.944 0 7.102 7.405 7.102 13.354 0 5.949-3.4 7.588-6.161 7.588-2.762 0-7.679-2.004-10.35-5.039-2.67-3.035-5.342-7.678-9.773-7.678s-6.98 4.249-6.98 8.316c0 4.067 8.559 24.706 8.559 34.114C29.27 69.578.134 93.737.134 136.896c0 7.588 9.65 21.489 19.363 22.824 0 0 5.221 4.31 18.757 1.457 0 0 13.901 3.703 25.738-6.86 0 0 10.259-1.152 16.268-12.504 0 0 6.603-7.42 6.91-14.695.005-.14.009-.28.01-.42.06-7.405-.425-40.973-21.55-61.611" mask="url(#b)"/>
        </g>
        <path fill="#5028CE" d="M205.508 158.773c1.414.696 2.861 1.18 4.31 1.38l.016.012c.97-20.608 6.783-58.955 6.783-58.955s-9.031 38.314-11.11 57.563M228.106 161.702c-.016-9.688.102-30.148 1.015-62.555 0 0-3.316 43.203-4.17 63.089a48.754 48.754 0 0 0 3.155-.534M254.467 154.728c-1.251-31.481-10.049-64.686-10.049-64.686s6.186 32.256 6.757 67.158a30.201 30.201 0 0 0 3.138-2.45s.057-.007.154-.022M270.581 142.245s.503-.566 1.236-1.535c-3.195-32.855-17.2-57.346-17.2-57.346s12.04 30.44 14.84 60.813a27.99 27.99 0 0 0 1.124-1.932"/>
        <path fill="#111D28" d="M201.71 155.328a9.014 9.014 0 0 0 .18-1.83c-.022-3.921-2.634-7.847-7.832-10.848-10.396-6.002-27.2-6.033-37.53-.068-5.166 2.983-7.736 6.9-7.715 10.82.022 3.921 2.634 7.847 7.832 10.848 2.7 1.56 5.835 2.715 9.175 3.468 7.933 4.32 20.093 10.736 24.001 10.633 5.334-.14 23.513-11.861 23.653-12.984.208-1.666-7.114-7.314-11.764-10.039" opacity=".1"/>
        <path fill="#8C9DAA" d="M159.43 155.314c4.352 2.246 25.057 14.248 30.392 14.108 5.334-.14 1.405-2.913 12.212-9.335 9.686-5.755 11.3-2.527 11.44-3.65.212-1.694-7.37-7.51-12.002-10.177l-4-.982-31.795 9.334-6.246.702z"/>
        <path fill="#26D198" d="M201.972 142.399c-.255-14.488-12.071-26.157-26.62-26.157-14.437 0-26.183 11.489-26.613 25.821-.023.27-.037.541-.035.812.021 3.937 2.644 7.88 7.864 10.893 10.439 6.027 27.31 6.057 37.685.068 5.187-2.995 7.767-6.928 7.746-10.865a9.026 9.026 0 0 0-.027-.572"/>
        <path fill="#4CE5AB" d="M175.51 116.244l-.042.046c10.037 4.984 17.301 17.126 17.301 38.112l.017.22c.502-.25.991-.512 1.466-.786 5.188-2.995 7.768-6.928 7.746-10.865a8.665 8.665 0 0 0-.026-.572c-.254-14.435-11.986-26.07-26.461-26.155"/>
        <path fill="#4CE5AB" d="M175.445 116.244l-.094-.001c-14.437 0-26.182 11.488-26.612 25.82-.023.27-.036.541-.035.812.021 3.937 2.644 7.88 7.864 10.893 1.808 1.043 3.808 1.907 5.935 2.59l.086-.061c0-17.898 4.983-30.952 12.879-40.007l-.023-.046z"/>
        <path fill="#1AB57D" d="M177.038 116.754a1.687 1.687 0 0 0-3.375.03c.001.25.167.5.498.69.662.383 1.73.385 2.388.005.329-.19.492-.439.49-.688v-.037"/>
        <path fill="#111D28" d="M167.063 190.662l-9.779-5.646c.016-.16.025-.322.024-.483-.011-2.063-1.386-4.129-4.12-5.708-3.077-1.776-7.219-2.558-11.222-2.344l-9.924-5.73a1.317 1.317 0 0 0-1.317 0l-10.537 6.084a1.317 1.317 0 0 0 0 2.282l9.197 5.31v.055c.01 2.063 1.385 4.129 4.12 5.708 2.94 1.698 6.857 2.485 10.694 2.365.101.132.23.249.389.34l10.62 6.132c.408.235.91.235 1.317 0l10.538-6.084a1.317 1.317 0 0 0 0-2.281" opacity=".1"/>
        <path fill="#5028CE" d="M127.33 179.445c.313 0 5.53-2.54 8.45-4.46.56-.368.824-1.369-.022-2.032-2.768-2.169-8.677-7.635-8.677-14.78 0-9.33 5.667-4.908 5.667-4.908l-2.557-7.655-8.707 3.358-4.478 2.613-.747 8.21 3.359 10.448 7.712 9.206z"/>
        <path fill="#6E3BEA" d="M125.364 147.376c-.186.062-10.448-1.493-10.448 10.013 0 11.507 9.018 19.84 10.324 21.272 1.306 1.43 3.794 1.181 1.866-1.12-1.928-2.302-9.827-9.89-9.827-20.214 0-10.324 7.401-7.277 7.401-7.277l.684-2.674z"/>
        <path fill="#7A54EF" d="M116.097 151.543s6.118-9.044 15.674-9.64c3.98-.25 6.904 1.865 6.904 1.865l-8.708 5.059s-8.707-2.011-13.87 2.716"/>
        <path fill="#6F8294" d="M129.384 151.232v5.45-.05c.012 2.063 1.386 4.128 4.12 5.707 5.47 3.158 14.31 3.174 19.745.036 2.718-1.57 4.07-3.63 4.059-5.693v-5.45h-27.924z"/>
        <path fill="#8C9DAA" d="M133.443 145.49c5.435-3.139 14.275-3.123 19.745.035 2.735 1.58 4.108 3.644 4.12 5.707.011 2.063-1.34 4.124-4.058 5.693-5.436 3.138-14.276 3.122-19.745-.036-2.735-1.579-4.11-3.644-4.12-5.707-.012-2.063 1.34-4.123 4.058-5.693"/>
        <path fill="#6F8294" d="M151.828 155.134c-4.655 2.688-12.226 2.674-16.91-.03-2.342-1.353-3.52-3.122-3.529-4.889-.01-1.766 1.148-3.531 3.475-4.875 4.656-2.687 12.227-2.674 16.911.03 2.342 1.353 3.52 3.122 3.529 4.888.01 1.767-1.149 3.532-3.476 4.876m.375-9.847c-4.922-2.842-12.878-2.856-17.77-.032-2.446 1.412-3.662 3.267-3.652 5.123.01 1.857 1.246 3.716 3.708 5.137 4.922 2.842 12.878 2.856 17.77.032 2.446-1.412 3.663-3.267 3.653-5.123-.01-1.857-1.248-3.716-3.709-5.137M156.96 149.946c.125.042 4.603 2.82 5.1 3.525.498.705.249 2.778.249 2.778l-.29 2.53-4.769-.913-.29-7.92z"/>
        <path fill="#576A7A" d="M156.919 152.807s2.944 1.037 4.063 1.99c1.12.954 1.327 1.452 1.327 1.452l-.29 2.53-4.769-.913-.331-5.059z"/>
        <path fill="#6F8294" d="M140.333 143.063s-1.534-1.036-2.902-1.244c-1.37-.207-2.074-.248-3.069.25 0 0 3.235.58 4.313 1.7l1.658-.706z"/>
        <path fill="#5028CE" d="M159.361 180.875s-3.956-.784-5.262-.66c-1.306.125-8.458 4.479-9.64 5.785-1.182 1.305 2.301.932 2.301.932l10.884-2.923 1.717-3.134z"/>
        <path fill="#7A54EF" d="M149.745 159.255s2.923-.062 5.287-2.115c2.364-2.052 1.928-2.923 2.55-3.171.622-.25 13.186 5.846 13.186 19.965 0 9.578-17.85 13.932-17.85 13.932s8.645-1.555 8.645-8.584c0-7.028-4.603-16.482-11.818-20.027"/>
        <path fill="#6E3BEA" d="M152.918 187.866s8.645-1.555 8.645-8.584c0-7.028-4.603-16.482-11.818-20.027v3.732s9.268 4.789 9.268 16.295c0 7.464-12.066 6.344-13.435 6.344-1.368 0-3.045 2.368-.186 2.488 3.116.131 4.546.256 7.526-.248"/>
        <path fill="#6F8294" d="M129.967 148.827s-2.985-1.7-3.98-1.451c-.996.248-1.369 3.4-.913 4.312.456.912 4.23 4.022 4.23 4.022l.372-3.94.291-2.943zM151.902 167.196l-5.557-2.778s-.912-3.069-.787-3.69c.124-.623 3.15-2.199 3.15-2.199s3.977 2.884 4.272 4.188c.04.182.07.36.09.534.264 2.296-1.168 3.945-1.168 3.945"/>
        <path fill="#576A7A" d="M153.095 163.554a2.456 2.456 0 0 0-.281-.547c-.373-.539-.415 2.447-1.327 2.903-.697.349-2.022-.028-2.61-.226l3.025 1.512s1.307-1.505 1.193-3.642"/>
        <path fill="#D4E3EB" d="M151.775 146.49c-4.684-2.704-12.255-2.718-16.91-.03-2.073 1.196-3.217 2.726-3.436 4.294.222 1.583 1.385 3.134 3.488 4.35 4.685 2.704 12.256 2.717 16.91.03 2.073-1.197 3.217-2.727 3.437-4.295-.222-1.583-1.385-3.134-3.489-4.349"/>
        <path fill="#231F20" d="M149.548 155.501c0 .121.081.243.242.335.32.186.84.187 1.159.002.16-.092.239-.213.238-.334 0-.12-.081-.242-.242-.335-.321-.185-.84-.186-1.159-.002-.16.092-.239.213-.238.334m-4.603 1.534c0 .121.082.243.242.335.321.186.84.187 1.16.002.159-.092.238-.213.238-.334 0-.121-.082-.242-.242-.335-.322-.185-.84-.186-1.16-.002-.16.092-.238.213-.238.334m-5.058.042c0 .12.081.242.241.335.321.185.84.186 1.16.002.16-.092.239-.213.238-.334-.001-.122-.081-.243-.242-.335-.32-.186-.84-.186-1.16-.002-.159.092-.238.213-.237.334M135.2 155.5c0 .121.081.243.242.335.321.186.84.187 1.159.002.16-.092.239-.213.238-.334 0-.12-.081-.242-.242-.335-.32-.185-.84-.186-1.159-.002-.16.092-.239.213-.238.334m-2.695-2.57c0 .12.082.242.242.334.32.186.84.187 1.16.002.159-.092.238-.213.237-.334 0-.12-.081-.242-.241-.335-.322-.185-.84-.186-1.16-.002-.16.092-.238.213-.238.334m-.124-3.068c0 .121.081.242.241.335.321.185.84.186 1.16.002.159-.092.239-.213.238-.334-.001-.121-.081-.243-.242-.335-.321-.185-.84-.186-1.16-.002-.159.092-.238.213-.237.334m2.778-2.736c0 .12.08.242.241.335.322.185.84.186 1.16.002.16-.092.238-.213.238-.335 0-.12-.082-.242-.242-.335-.321-.185-.84-.186-1.16-.002-.159.092-.238.213-.237.335m17.166 5.597c0 .121.081.242.242.335.321.186.84.187 1.159.002.16-.092.239-.213.238-.334 0-.121-.081-.242-.242-.335-.32-.186-.84-.187-1.159-.002-.16.092-.239.213-.238.334m-.124-3.068c0 .12.08.242.241.335.321.185.84.186 1.16.002.16-.092.238-.213.238-.335 0-.12-.082-.242-.242-.334-.321-.186-.84-.187-1.16-.003-.159.092-.238.213-.237.335m-2.696-2.571c0 .121.082.242.242.335.321.185.84.186 1.16.002.159-.092.238-.213.238-.334-.001-.121-.082-.242-.242-.335-.322-.186-.84-.186-1.16-.002-.16.092-.238.213-.238.334m-4.52-1.493c.001.121.082.243.243.335.32.186.84.187 1.159.002.16-.092.239-.213.238-.334 0-.121-.081-.242-.242-.335-.321-.186-.84-.186-1.16-.002-.158.092-.238.213-.237.334m-5.11-.345c.319-.185.838-.184 1.16.002.16.092.24.214.241.335.001.12-.078.242-.238.334-.32.184-.838.183-1.16-.002-.16-.093-.24-.214-.241-.335-.001-.121.078-.242.238-.334"/>
        <path fill="#192A32" d="M141.425 151.045l-4.99-2.301s-.373-.124-.187-.498c.187-.373.81-.31.81-.31l4.89 1.675-.523 1.434zM144.488 149.616s2.894-2.178 3.454-1.68c.56.497-2.924 2.414-2.924 2.414l-.53-.734z"/>
        <path fill="#192A32" d="M141.425 150.35v.701-.006c.002.266.179.531.53.735.704.406 1.842.408 2.541.004.35-.202.524-.467.522-.733v-.7h-3.593z"/>
        <path fill="#48636F" d="M141.947 149.611c.7-.404 1.837-.402 2.541.005.352.203.529.47.53.734.002.266-.172.53-.522.733-.7.404-1.837.402-2.54-.005-.352-.203-.53-.468-.531-.734-.002-.265.173-.53.522-.733"/>
        <path fill="#FFF" d="M132.748 153.265s5.864-3.526 10.342-5.454c4.478-1.928 8.024-2.923 8.024-2.923l-3.67-1.182s-3.42.995-6.904 2.612c-3.483 1.617-9.205 4.851-9.205 4.851l1.413 2.096z" opacity=".4"/>
        <path fill="#FFF" d="M135.319 155.463s5.864-3.526 10.342-5.454c4.478-1.928 8.372-3.03 8.372-3.03l-2.258-1.609s-5.18 1.529-8.664 3.146c-3.483 1.617-10.184 5.345-10.184 5.345l2.392 1.602z" opacity=".4"/>
        <path fill="#1E1D23" d="M200.266 194.71c5.615 1.12 11.643-1.154 17.142-2.752 4.391-1.276 8.8-2.763 12.558-5.37 2.21-1.532 4.145-3.42 6.07-5.297.902-.882 1.812-1.77 2.535-2.805.514-.734.94-1.55 1.61-2.144.49-.434 1.105-.747 1.458-1.298.78-1.214-.091-2.781-.94-3.949-2.784.287-5.332 1.695-7.595 3.342-2.262 1.648-4.33 3.563-6.676 5.088-4.845 3.147-10.618 4.474-16.276 5.64-4.62.951-9.475 1.758-13.974-.114-1.603-.667-3.822-1.769-3.822-1.769s-.86 2.145-.97 3.085c-.176 1.488-.18 4.032.95 4.897 2.184 1.671 5.146 2.889 7.93 3.445" opacity=".1"/>
        <g transform="translate(209.556 177.592)">
            <mask id="d" fill="#fff">
                <use xlink:href="#c"/>
            </mask>
            <path fill="#1E1D23" d="M53.302 7.152c-1.32 1.593-3.321 2.416-5.173 3.34a37.327 37.327 0 0 0-9.883 7.164c-1.606 1.627-3.066 3.406-4.818 4.874-2.881 2.416-6.464 3.902-10.148 4.656-4.392.9-8.946.796-13.382.14-2.752-.408-5.622-1.102-7.631-3.027C1.262 23.337.578 21.98.379 20.606.18 19.233 1.4 14.126 1.4 14.126s5.286.97 8.131 1.303c12.291 1.438 25.518-2.108 34.06-11.063 1.262-1.324 2.46-2.787 4.097-3.604 4.293-2.145 8.984 2.326 5.613 6.39" mask="url(#d)"/>
        </g>
        <path fill="#B70808" d="M241.831 171.2l-1.132-4.583s-.323-7.555-.265-7.405c.06.15 3.875.247 3.875.247l4.941-1.33 4.751-3.611 4.182-2.09 3.041 1.71-.57 6.271-1.901 8.743-6.272 2.28-7.412 1.71-3.238-1.943zM222.066 159.986l-1.132-4.582s-1.295-6.452-1.237-6.303c.06.15 4.847-.855 4.847-.855l4.941-1.33 4.751-3.611 4.182-2.09 3.04 1.71-.57 6.272-1.9 8.742-6.272 2.28-7.412 1.71-3.238-1.943z"/>
        <path fill="#1E1D23" d="M200.266 190.231c5.615 1.122 11.643-1.154 17.142-2.752 4.391-1.276 8.8-2.762 12.558-5.368 2.21-1.533 4.145-3.42 6.07-5.299.902-.88 1.812-1.77 2.535-2.804.514-.734.94-1.55 1.61-2.144.49-.434 1.105-.748 1.458-1.298.78-1.214-.091-2.781-.94-3.949-2.784.287-5.332 1.695-7.595 3.342-2.262 1.648-4.33 3.563-6.676 5.088-4.845 3.147-10.618 4.473-16.276 5.64-4.62.951-9.475 1.758-13.974-.114-1.603-.667-3.822-1.769-3.822-1.769s-.86 2.145-.97 3.085c-.176 1.487-.18 4.032.95 4.897 2.184 1.67 5.146 2.889 7.93 3.445"/>
        <path fill="#DD0A0A" d="M219.697 149.101s6.243-1.752 8.47-2.922c2.228-1.17 6.122-5.423 10.263-5.736.884-.066 1.816.001 2.575.459 1.235.743 1.692 2.285 2.002 3.693a68.29 68.29 0 0 1 1.579 16.53c-.027 1.01-.085 2.053-.527 2.96-.412.847-1.124 1.503-1.819 2.139-4.118 3.764-8.262 7.547-12.96 10.556-2.62 1.678-5.394 3.104-8.222 4.4a91.113 91.113 0 0 1-7.208 2.95c-.313.112-2.037.636-2.357.542-.392-.115.04-.622-.158-.981-1.706-3.11-2.283-7.036-1.348-10.457.772-2.823 2.928-5.029 5.058-7.036A154.458 154.458 0 0 1 222.03 160c.673-.562 1.366-1.126 2.181-1.444 1.456-.57 3.084-.284 4.646-.311 3.366-.06 6.67-1.707 8.744-4.36 2.073-2.651 2.875-6.255 2.12-9.536-.127-.554-.307-1.117-.689-1.538-.785-.864-2.201-.844-3.247-.323-1.206.602-3.162 3.077-5.836 4.525-2.673 1.449-8.47 2.978-8.47 2.978l-1.782-.89z"/>
        <path fill="#FFF" d="M225.964 150.533c-1.011-.664-2.27-.777-3.449-1.048a12.25 12.25 0 0 1-2.913-1.073c-.488-.254-.973-.546-1.518-.623-1.064-.15-2.092.58-2.644 1.502-.553.922-.738 2.01-.956 3.063a39.1 39.1 0 0 1-1.25 4.601c-.395 1.164-.851 2.322-1.563 3.324-.458.644-1.013 1.21-1.566 1.775-2.031 2.074-4.123 4.19-6.75 5.423-1.302.61-2.703.986-3.993 1.618-1.054.516-2.021 1.196-2.917 1.954-1.702 1.44-3.193 3.235-3.812 5.377-.618 2.142-.22 4.665 1.388 6.21 1.226 1.178 2.954 1.652 4.623 1.977a40.09 40.09 0 0 0 11.648.537c.442-.045.934-.124 1.201-.478.35-.461.134-1.116-.08-1.654-.936-2.355-1.609-4.857-1.54-7.39.067-2.534.938-5.111 2.734-6.898.901-.896 1.998-1.566 2.97-2.384.857-.721 1.612-1.554 2.406-2.344 2.47-2.462 5.49-3.873 8.128-6.027 2.15-1.757 2.278-5.848-.147-7.442"/>
        <path fill="#1E1D23" d="M262.858 180.266c-1.321 1.593-3.322 2.416-5.174 3.34a37.327 37.327 0 0 0-9.883 7.165c-1.605 1.626-3.066 3.405-4.817 4.873-2.882 2.416-6.464 3.902-10.148 4.656-4.393.9-8.947.796-13.382.14-2.752-.408-5.622-1.102-7.631-3.026-1.005-.963-1.69-2.32-1.889-3.694-.198-1.373 1.023-6.48 1.023-6.48s5.285.97 8.13 1.303c12.292 1.438 25.519-2.108 34.06-11.063 1.263-1.324 2.461-2.787 4.097-3.604 4.294-2.145 8.984 2.326 5.614 6.39"/>
        <path fill="#DD0A0A" d="M240.493 159.361c3.838-.513 7.81-1.327 10.857-3.72 1.263-.991 2.326-2.226 3.621-3.176 1.295-.951 2.944-1.613 4.502-1.219 1.506.382 2.637 1.696 3.207 3.142.57 1.446.668 3.028.76 4.58l.57 9.57c.153 2.54.207 5.377-1.489 7.274-.78.873-1.842 1.43-2.852 2.023-8.996 5.283-15.552 14.774-25.564 17.706-.78.228-3.058 1.188-3.765.788-.667-.378.413-1.942.17-2.67-.825-2.485-2.103-5.176-2.355-7.783-.138-1.425.553-2.796 1.083-4.126.668-1.68 2.145-2.88 3.563-4.002l3.789-2.999c2.696-2.133 5.496-4.32 8.822-5.191 4.003-1.05 8.823-.263 11.787-3.151 2.291-2.233 2.487-5.804 2.362-9-.042-1.083-.161-2.289-.977-3.003-.889-.779-2.293-.64-3.32-.055-1.027.584-1.795 1.52-2.645 2.34a14.678 14.678 0 0 1-9.757 4.06l-2.369-1.388z"/>
        <path fill="#FFF" d="M214.423 193.083c-1.915-1.33-3.76-3.355-3.462-5.667.186-1.436 1.174-2.634 2.24-3.614a18.06 18.06 0 0 1 5.822-3.59c1.472-.556 3.023-.923 4.416-1.655 2.12-1.115 3.727-3 5.114-4.955a43.543 43.543 0 0 0 5.064-9.39c.491-1.26.935-2.564 1.747-3.645.813-1.08 2.09-1.92 3.438-1.811.565.045 1.103.251 1.632.456l4.871 1.88c.527.203 1.062.41 1.51.754 1.683 1.29 1.467 4.037.177 5.721-1.29 1.684-3.302 2.611-5.161 3.632a39.193 39.193 0 0 0-10.704 8.643c-1.02 1.174-1.998 2.47-2.307 3.995-.347 1.714.195 3.469.74 5.13.57 1.746 1.902 4.67 1.416 6.536-.481 1.841-2.945 1.474-4.687 1.427-4.214-.112-8.4-1.44-11.866-3.847"/>
        <path fill="#231F20" d="M238.813 176.228a.667.667 0 0 1-.563-.308c-1.583-2.465-4.613-3.98-7.531-3.771a.668.668 0 0 1-.096-1.333c3.39-.245 6.912 1.517 8.752 4.382a.668.668 0 0 1-.562 1.03M236.02 179.205a.668.668 0 0 1-.572-.32c-1.347-2.215-3.985-3.598-6.577-3.44a.668.668 0 1 1-.081-1.334c3.07-.188 6.202 1.453 7.799 4.078a.668.668 0 0 1-.57 1.016M233.141 182.024a.668.668 0 0 1-.618-.415c-.45-1.093-1.509-2.048-2.904-2.619-1.33-.544-2.82-.73-4.26-.91a.668.668 0 1 1 .166-1.326c1.527.191 3.106.388 4.6.999 1.749.715 3.04 1.904 3.634 3.348a.668.668 0 0 1-.618.923M218.764 165.034a.667.667 0 0 1-.563-.308c-1.583-2.465-4.606-3.98-7.531-3.77a.665.665 0 0 1-.714-.62.667.667 0 0 1 .618-.713c3.394-.245 6.913 1.516 8.752 4.38a.668.668 0 0 1-.562 1.03M215.97 168.011a.668.668 0 0 1-.571-.32c-1.347-2.215-3.99-3.598-6.577-3.44a.668.668 0 1 1-.081-1.334c3.072-.188 6.202 1.453 7.8 4.078a.668.668 0 0 1-.57 1.016M213.093 170.83a.668.668 0 0 1-.618-.415c-.618-1.497-2.085-2.283-2.905-2.619-1.33-.544-2.82-.73-4.26-.91a.668.668 0 1 1 .166-1.326c1.526.19 3.105.387 4.6.999 1.75.715 3.04 1.904 3.635 3.348a.668.668 0 0 1-.618.923"/>
    </g>
</svg>
