<svg xmlns="http://www.w3.org/2000/svg" xmlns:xlink="http://www.w3.org/1999/xlink" width="110" height="111" viewBox="0 0 110 111">
    <defs>
        <path id="prefix__a" d="M0.163 0.162L95.293 0.162 95.293 67.428 0.163 67.428z"/>
        <path id="prefix__c" d="M0.087 0.243L0.699 0.243 0.699 0.61 0.087 0.61z"/>
        <path id="prefix__e" d="M0 0.333L76.543 0.333 76.543 84.711 0 84.711z"/>
    </defs>
    <g fill="none" fill-rule="evenodd">
        <g transform="translate(8.556 .448)">
            <mask id="prefix__b" fill="#fff">
                <use xlink:href="#prefix__a"/>
            </mask>
            <path fill="#DB4437" d="M.163 25.329v42.099h24.582l21.618-37.37h48.93C86.203 12.31 67.705.162 46.363.162 26.976.162 9.936 10.189.163 25.329" mask="url(#prefix__b)"/>
        </g>
        <g transform="translate(51.944 109.619)">
            <mask id="prefix__d" fill="#fff">
                <use xlink:href="#prefix__c"/>
            </mask>
            <path fill="#0F9D58" d="M.389.547l.008.001H.389" mask="url(#prefix__d)"/>
        </g>
        <g transform="translate(0 25.454)">
            <mask id="prefix__f" fill="#fff">
                <use xlink:href="#prefix__e"/>
            </mask>
            <path fill="#0F9D58" d="M76.543 42.422H33.301L8.71.333C3.2 8.877 0 19.048 0 29.965c0 29.4 23.194 53.39 52.315 54.746l24.228-42.289z" mask="url(#prefix__f)"/>
        </g>
        <path fill="#FFCD40" d="M54.919 30.506l21.625 37.37-24.23 42.29c.864.04 1.732.062 2.605.062 30.331 0 54.919-24.539 54.919-54.809 0-8.97-2.16-17.438-5.99-24.913h-48.93z"/>
        <path fill="#F1F1F1" d="M54.919 30.506c13.787 0 24.963 11.154 24.963 24.913 0 13.76-11.176 24.914-24.963 24.914S29.956 69.178 29.956 55.419c0-13.759 11.176-24.913 24.963-24.913"/>
        <path fill="#4285F4" d="M54.919 35.489c11.03 0 19.97 8.923 19.97 19.93 0 11.008-8.94 19.93-19.97 19.93s-19.97-8.922-19.97-19.93c0-11.007 8.94-19.93 19.97-19.93"/>
    </g>
</svg>
