<svg xmlns="http://www.w3.org/2000/svg" xmlns:xlink="http://www.w3.org/1999/xlink" width="202" height="244" viewBox="0 0 202 244">
    <defs>
        <path id="a" d="M.213.814h133.325v178.309H.213z"/>
        <path id="c" d="M0 .915h143.166V83.69H0z"/>
    </defs>
    <g fill="none" fill-rule="evenodd">
        <path fill="#111D28" d="M78.9 125.544c19.157 2.36 56.475 20.688 83.353 40.935 26.878 20.248 33.138 34.748 13.982 32.388-19.155-2.361-56.473-20.688-83.351-40.936-26.88-20.247-33.14-34.747-13.983-32.387"/>
        <path fill="#3FCAEA" d="M110.191 131.713v6.673c0 1.385-.644 2.226-1.607 2.337l-3.827.377c-.577.2-.947.805-.947 1.723 0 1.61 1.137 3.571 2.54 4.381l51.115 29.511c1.402.81 2.54.162 2.54-1.448 0-.917-.37-1.95-.948-2.818l-3.826-4.795c-.964-1.223-1.608-2.807-1.608-4.192v-6.673l-43.432-25.076z"/>
        <path fill="#E0E1E2" d="M155.23 167.654c-.962-1.223-1.606-2.808-1.606-4.193v-6.673l-43.433-25.075v6.672c0 1.386-.644 2.227-1.607 2.337l46.647 26.932z"/>
        <g transform="translate(68 -.814)">
            <mask id="b" fill="#fff">
                <use xlink:href="#a"/>
            </mask>
            <path fill="#A5B3C4" d="M124.424 179.123l7.276-3.503c1.118-.338 1.838-1.47 1.838-3.21V77.665c0-2.971-2.099-6.591-4.688-8.086L10.861 1.458C9.392.61 8.082.628 7.222 1.345L.213 4.985l124.211 174.138z" mask="url(#b)"/>
        </g>
        <path fill="#FFF" d="M97.482 144.603c-.578.2-.948.806-.948 1.724 0 1.609 1.137 3.57 2.54 4.38l51.116 29.51c.67.389 1.28.442 1.735.217l7.276-3.503c.495-.246.804-.824.804-1.663 0-.918-.37-1.95-.948-2.818l-3.826-4.795-46.647-26.932-3.826.377-7.276 3.503z"/>
        <path fill="#F0F1F2" d="M66.955 6.925c0-2.97 2.099-4.168 4.688-2.673l117.989 68.121c2.59 1.495 4.688 5.115 4.688 8.087v94.744c0 2.971-2.098 4.168-4.688 2.673l-117.99-68.12c-2.588-1.496-4.687-5.117-4.687-8.088V6.925z"/>
        <path fill="#0C2033" d="M66.955 90.91V6.925c0-2.97 2.099-4.168 4.688-2.673l117.989 68.121c2.59 1.495 4.688 5.116 4.688 8.087v83.984L66.955 90.91z"/>
        <path fill="#3D9FFF" d="M73.206 11.73l114.863 66.316v75.915L73.206 87.645z"/>
        <path stroke="#0C2033" stroke-width="1.706" d="M73.206 11.73l114.863 66.316v75.915L73.206 87.645z"/>
        <path fill="#111D28" d="M91.96 92.95V35.183c0-2.97 2.098-4.168 4.687-2.673l68.371 39.475c2.59 1.494 4.69 5.115 4.69 8.086v57.764L91.958 92.95z"/>
        <path fill="#A5B3C4" d="M91.96 40.565v-5.38c0-2.971 2.098-4.168 4.687-2.673l68.371 39.474c2.59 1.495 4.69 5.116 4.69 8.087v5.38L91.958 40.565z"/>
        <path fill="#FFF" d="M96.452 37.33c0-1.361.962-1.91 2.149-1.224 1.186.685 2.149 2.344 2.149 3.706s-.963 1.91-2.15 1.225c-1.186-.685-2.148-2.344-2.148-3.706M103.29 41.278c0-1.362.961-1.91 2.147-1.225 1.187.685 2.15 2.345 2.15 3.706 0 1.362-.963 1.911-2.15 1.226-1.186-.686-2.148-2.345-2.148-3.707M110.126 45.225c0-1.362.962-1.91 2.15-1.225 1.185.685 2.147 2.345 2.147 3.706 0 1.362-.962 1.911-2.148 1.226-1.187-.686-2.149-2.345-2.149-3.707"/>
        <path fill="#111D28" d="M46.884 160.926L142.277 216c.587.339.883.782.889 1.225.005.447-.286.894-.875 1.234l-41.751 24.22c-1.172.678-3.078.674-4.258-.007L.888 187.598c-.588-.34-.884-.784-.888-1.23-.004-.444.288-.89.875-1.23l41.751-24.22c1.172-.677 3.078-.673 4.258.008"/>
        <path fill="#0C2033" d="M0 176.058v4.11c.003.444.3.889.888 1.228l95.394 55.076c1.18.68 3.086.684 4.258.007l41.751-24.221c.588-.34.88-.786.875-1.234v-4.11L0 176.058z"/>
        <g transform="translate(0 149.186)">
            <mask id="d" fill="#fff">
                <use xlink:href="#c"/>
            </mask>
            <path fill="#FFF" d="M46.884 1.428l95.393 55.075c.587.34.883.782.889 1.225.005.447-.286.894-.875 1.234L100.54 83.183c-1.172.677-3.078.673-4.258-.008L.888 28.1C.3 27.76.004 27.316 0 26.871c-.004-.445.288-.89.875-1.23l41.751-24.22c1.172-.678 3.078-.674 4.258.007" mask="url(#d)"/>
        </g>
        <path fill="#0C2033" d="M120.705 208.14c-.296.171-.295.452.003.625l4.07 2.35c.3.171.786.172 1.082.001l4.045-2.335c.297-.17.295-.452-.004-.624l-4.07-2.35c-.298-.173-.785-.173-1.082-.002l-4.044 2.335zM113.922 204.224c-.296.17-.295.452.003.625l4.07 2.35c.299.172.786.172 1.082.002l4.045-2.336c.297-.171.295-.452-.004-.624l-4.07-2.35c-.298-.172-.785-.173-1.082-.002l-4.044 2.335zM107.139 200.308c-.296.17-.295.452.003.625l4.07 2.349c.299.172.786.173 1.082.002l4.045-2.335c.297-.171.295-.453-.004-.624l-4.07-2.35c-.298-.173-.785-.173-1.082-.002l-4.044 2.335zM100.356 196.391c-.296.171-.295.452.003.625l4.07 2.35c.299.171.786.172 1.082.002l4.045-2.336c.297-.17.295-.452-.004-.624l-4.07-2.35c-.298-.172-.785-.173-1.082-.002l-4.044 2.335zM93.572 192.475c-.296.17-.295.453.003.625l4.07 2.35c.3.172.786.173 1.082.002l4.045-2.335c.297-.172.295-.453-.004-.625l-4.07-2.35c-.298-.172-.785-.173-1.082-.002l-4.044 2.335zM86.79 188.559c-.297.17-.296.452.002.625l4.07 2.349c.3.172.786.173 1.082.002l4.045-2.335c.297-.171.295-.452-.004-.624l-4.07-2.35c-.298-.172-.785-.173-1.082-.002l-4.044 2.335zM80.006 184.642c-.296.171-.295.453.003.625l4.07 2.35c.299.172.786.173 1.082.002l4.045-2.335c.297-.172.295-.453-.004-.625l-4.07-2.35c-.298-.172-.785-.173-1.082-.002l-4.044 2.335zM73.223 180.726c-.296.171-.295.452.003.625l4.07 2.35c.299.171.786.172 1.082.001l4.045-2.335c.297-.17.295-.452-.004-.624l-4.07-2.35c-.298-.172-.785-.173-1.082-.002l-4.044 2.335zM66.44 176.81c-.296.17-.295.453.003.625l4.07 2.35c.299.172.786.173 1.082.002l4.045-2.335c.297-.172.295-.453-.004-.625l-4.07-2.35c-.298-.172-.785-.173-1.082-.002l-4.044 2.335zM59.656 172.894c-.296.17-.295.452.003.625l4.07 2.349c.3.172.786.173 1.082.002l4.045-2.335c.297-.171.295-.452-.004-.624l-4.07-2.35c-.298-.172-.785-.173-1.082-.002l-4.044 2.335zM52.873 168.977c-.296.171-.295.453.003.625l4.07 2.35c.3.172.786.172 1.082.002l4.045-2.336c.297-.17.295-.452-.004-.624l-4.07-2.35c-.298-.172-.785-.173-1.082-.002l-4.044 2.335zM46.09 165.061c-.296.171-.295.452.003.625l4.07 2.35c.299.171.786.172 1.082.001l4.045-2.335c.297-.17.295-.452-.004-.624l-4.07-2.35c-.298-.173-.785-.173-1.082-.002l-4.044 2.335zM36.594 159.578c-.297.171-.295.452.003.625l6.783 3.916c.299.172.786.173 1.082.002l4.045-2.335c.296-.17.295-.453-.004-.625l-6.783-3.916c-.298-.172-.785-.173-1.082-.002l-4.044 2.335zM127.446 204.248c-.296.171-.295.453.003.625l4.071 2.35c.298.172.785.172 1.081.002l1.348-.779c.297-.17.296-.452-.003-.625l-4.07-2.349c-.298-.173-.785-.174-1.081-.002l-1.349.778zM120.448 200.208c-.297.171-.295.452.003.625l4.07 2.35c.3.171.785.172 1.082.001l1.348-.778c.297-.172.295-.452-.003-.625l-4.07-2.349c-.299-.173-.785-.174-1.082-.003l-1.348.78zM113.45 196.168c-.297.17-.295.452.003.625l4.07 2.35c.3.172.785.172 1.082.002l1.348-.78c.297-.17.295-.451-.003-.624l-4.07-2.35c-.299-.172-.785-.173-1.082-.001l-1.348.778zM106.452 192.128c-.297.17-.295.452.003.625l4.07 2.349c.3.172.785.173 1.082.002l1.348-.778c.297-.172.295-.452-.003-.625l-4.07-2.35c-.299-.172-.785-.173-1.082-.002l-1.348.779zM99.454 188.087c-.297.171-.295.452.003.625l4.07 2.35c.3.172.785.172 1.082.002l1.348-.779c.297-.17.295-.452-.003-.625l-4.07-2.349c-.299-.173-.785-.174-1.082-.002l-1.348.778zM92.456 184.047c-.296.17-.295.453.003.625l4.07 2.35c.3.172.785.173 1.082.002l1.348-.78c.297-.17.295-.452-.003-.624l-4.07-2.35c-.298-.173-.785-.173-1.082-.002l-1.348.779zM85.458 180.006c-.296.172-.295.452.003.625l4.07 2.35c.3.172.786.173 1.082.002l1.348-.779c.297-.17.295-.452-.003-.625l-4.07-2.349c-.298-.172-.785-.173-1.082-.001l-1.348.777zM78.46 175.966c-.296.171-.295.453.003.625l4.07 2.35c.3.172.786.173 1.082.002l1.348-.779c.297-.171.295-.452-.003-.624l-4.07-2.35c-.298-.173-.785-.173-1.082-.002l-1.348.778zM71.462 171.926c-.296.17-.295.452.003.625l4.07 2.35c.3.17.786.172 1.082.002l1.348-.78c.297-.17.296-.451-.003-.624l-4.07-2.35c-.298-.172-.785-.173-1.082-.001l-1.348.778zM64.464 167.885c-.296.171-.295.453.003.625l4.07 2.35c.299.172.786.173 1.082.002l1.348-.779c.297-.17.296-.452-.003-.624l-4.07-2.35c-.298-.173-.785-.173-1.082-.002l-1.348.778zM57.466 163.845c-.296.171-.295.452.003.625l4.071 2.35c.298.171.785.172 1.081.001l1.348-.778c.297-.17.296-.452-.003-.625l-4.07-2.349c-.298-.173-.785-.174-1.082-.002l-1.348.778zM50.468 159.805c-.297.17-.295.453.003.625l4.07 2.35c.3.172.785.173 1.082.002l1.348-.78c.297-.17.295-.451-.003-.623l-4.07-2.35c-.299-.173-.785-.173-1.082-.002l-1.348.778zM43.335 155.686c-.297.171-.295.453.003.625l4.342 2.506c.298.173.785.174 1.08.002l1.349-.778c.297-.17.296-.453-.003-.625l-4.341-2.506c-.3-.173-.785-.173-1.082-.002l-1.348.778zM111.251 210.465c-.296.172-.295.452.003.625l6.784 3.916c.298.173.785.173 1.082.002l4.044-2.335c.296-.17.295-.453-.003-.625l-6.784-3.916c-.298-.172-.785-.173-1.082-.001l-4.044 2.334zM104.468 206.549c-.296.171-.295.453.003.625l4.07 2.35c.299.172.786.173 1.082.002l4.045-2.335c.297-.172.295-.453-.004-.625l-4.07-2.35c-.298-.172-.785-.173-1.082-.002l-4.044 2.335zM97.685 202.633c-.296.171-.295.452.003.625l4.07 2.349c.299.172.786.173 1.082.002l4.045-2.335c.297-.171.295-.452-.004-.624l-4.07-2.35c-.298-.172-.785-.173-1.082-.002l-4.044 2.335zM90.901 198.716c-.295.171-.294.453.004.625l4.07 2.35c.299.172.785.173 1.082.002l4.044-2.335c.297-.172.296-.453-.004-.625l-4.07-2.35c-.297-.172-.784-.173-1.082-.002l-4.043 2.335zM84.118 194.8c-.296.171-.295.452.003.625l4.07 2.35c.3.171.786.172 1.082.001l4.045-2.335c.297-.17.295-.452-.004-.624l-4.07-2.35c-.298-.172-.785-.173-1.082-.002l-4.044 2.335zM77.335 190.884c-.296.17-.295.453.003.625l4.07 2.35c.3.172.786.172 1.082.002l4.045-2.336c.297-.171.295-.452-.004-.624l-4.07-2.35c-.298-.172-.785-.173-1.082-.002l-4.044 2.335zM70.552 186.968c-.296.17-.295.452.003.625l4.07 2.349c.299.172.786.173 1.082.002l4.045-2.335c.297-.171.295-.452-.004-.624l-4.07-2.35c-.298-.173-.785-.173-1.082-.002l-4.044 2.335zM63.769 183.051c-.296.171-.295.452.003.625l4.07 2.35c.299.172.786.172 1.082.002l4.045-2.336c.297-.17.295-.452-.004-.624l-4.07-2.35c-.298-.172-.785-.173-1.082-.002l-4.044 2.335zM56.986 179.135c-.296.171-.295.452.003.625l4.07 2.35c.299.171.785.172 1.082.001l4.045-2.335c.296-.17.294-.453-.005-.624l-4.07-2.35c-.297-.173-.784-.173-1.081-.002l-4.044 2.335zM50.202 175.219c-.296.17-.295.452.003.625l4.07 2.35c.3.17.786.172 1.082.002l4.045-2.336c.297-.171.295-.452-.004-.624l-4.07-2.35c-.298-.172-.785-.173-1.082-.002l-4.044 2.335zM43.42 171.302c-.297.171-.296.453.002.625l4.07 2.35c.3.172.786.173 1.082.002l4.045-2.335c.297-.172.295-.453-.004-.625l-4.07-2.35c-.298-.172-.785-.173-1.082-.002l-4.044 2.335zM36.636 167.386c-.296.171-.295.452.003.625l4.07 2.35c.299.171.786.172 1.082.001l4.045-2.335c.297-.17.295-.452-.004-.624l-4.07-2.35c-.298-.172-.785-.173-1.082-.002l-4.044 2.335zM29.853 163.47c-.296.17-.295.453.003.625l4.07 2.35c.299.172.786.173 1.082.002l4.045-2.335c.297-.172.295-.453-.004-.625l-4.07-2.35c-.298-.172-.785-.173-1.082-.002l-4.044 2.335zM103.153 213.574c-.296.17-.294.453.003.625l8.141 4.699c.299.173.785.174 1.082.002l4.044-2.335c.296-.171.296-.452-.002-.624l-8.142-4.7c-.297-.172-.784-.173-1.08-.002l-4.046 2.335zM96.37 209.658c-.296.17-.295.452.003.625l4.071 2.349c.298.172.785.173 1.081.002l4.045-2.335c.297-.171.295-.452-.003-.624l-4.07-2.35c-.299-.172-.786-.173-1.082-.002l-4.045 2.335zM89.587 205.741c-.296.171-.295.453.003.625l4.071 2.35c.298.172.785.172 1.081.002l4.045-2.336c.297-.17.295-.452-.003-.624l-4.07-2.35c-.299-.172-.786-.173-1.082-.002l-4.045 2.335zM82.804 201.825c-.296.171-.295.452.003.625l4.07 2.35c.299.171.786.172 1.082.001l4.045-2.335c.297-.17.295-.452-.003-.624l-4.071-2.35c-.298-.173-.785-.173-1.081-.002l-4.045 2.335zM76.02 197.909c-.295.17-.294.452.004.625l4.07 2.35c.299.172.786.172 1.082.002l4.045-2.336c.297-.171.295-.452-.003-.624l-4.071-2.35c-.298-.172-.785-.173-1.081-.002l-4.045 2.335zM69.237 193.993c-.295.17-.294.452.004.625l4.07 2.349c.298.172.785.173 1.081.002l4.046-2.335c.296-.171.294-.453-.004-.624l-4.07-2.35c-.299-.173-.785-.173-1.082-.002l-4.044 2.335zM62.454 190.076c-.296.171-.295.452.003.625l4.071 2.35c.298.171.785.172 1.081.002l4.045-2.336c.297-.17.295-.452-.003-.624l-4.07-2.35c-.299-.172-.786-.173-1.082-.002l-4.045 2.335zM55.672 186.16c-.297.17-.295.453.003.625l4.07 2.35c.299.172.785.173 1.082.002l4.045-2.335c.296-.172.295-.453-.004-.625l-4.07-2.35c-.298-.172-.785-.173-1.082-.002l-4.044 2.335zM48.888 182.244c-.297.17-.295.452.003.625l4.07 2.349c.3.172.785.173 1.082.003l4.045-2.336c.296-.171.295-.452-.004-.624l-4.07-2.35c-.298-.172-.785-.173-1.082-.002l-4.044 2.335zM42.105 178.327c-.297.171-.295.453.003.625l4.07 2.35c.3.172.785.173 1.082.002l4.045-2.335c.296-.172.295-.453-.004-.625l-4.07-2.35c-.298-.172-.785-.173-1.082-.002l-4.044 2.335zM35.322 174.411c-.297.171-.295.452.003.625l4.07 2.35c.299.171.785.172 1.082.001l4.045-2.335c.296-.17.295-.452-.004-.624l-4.07-2.35c-.298-.172-.785-.173-1.082-.002l-4.044 2.335zM23.112 167.362c-.296.171-.295.452.003.625l9.497 5.482c.298.173.785.174 1.082.002l4.044-2.335c.297-.171.295-.452-.003-.625l-9.497-5.482c-.298-.172-.785-.173-1.082-.002l-4.044 2.335zM92.885 215.43c-.296.17-.295.451.003.624l11.667 6.736c.3.172.786.173 1.082.002l4.045-2.336c.297-.17.295-.452-.003-.624l-11.668-6.736c-.298-.172-.785-.173-1.082-.002l-4.044 2.335zM86.102 211.513c-.296.171-.295.452.003.625l4.07 2.35c.3.171.786.172 1.082.001l4.045-2.335c.297-.17.295-.453-.004-.624l-4.07-2.35c-.298-.173-.785-.173-1.08-.002l-4.046 2.335zM79.319 207.597c-.296.17-.295.452.003.625l4.07 2.35c.299.17.786.172 1.082.002l4.045-2.336c.297-.171.295-.452-.004-.624l-4.07-2.35c-.298-.172-.785-.173-1.081-.002l-4.045 2.335zM72.536 203.68c-.296.171-.295.453.003.625l4.07 2.35c.299.172.786.173 1.082.002l4.045-2.335c.297-.172.295-.453-.004-.625l-4.07-2.35c-.298-.172-.785-.173-1.081-.002l-4.045 2.335zM65.753 199.764c-.296.171-.295.452.003.625l4.07 2.35c.299.171.786.172 1.082.001l4.045-2.335c.297-.17.295-.452-.003-.624l-4.071-2.35c-.298-.172-.785-.173-1.081-.002l-4.045 2.335zM58.97 195.848c-.297.17-.296.453.002.625l4.07 2.35c.3.172.786.173 1.082.002l4.045-2.335c.297-.172.295-.453-.003-.625l-4.07-2.35c-.299-.172-.786-.173-1.082-.002l-4.045 2.335zM52.186 191.932c-.296.17-.295.452.003.625l4.071 2.349c.298.172.785.173 1.081.002l4.045-2.335c.297-.171.295-.452-.003-.624l-4.07-2.35c-.299-.172-.786-.173-1.082-.002l-4.045 2.335zM45.403 188.015c-.296.171-.295.453.003.625l4.071 2.35c.298.172.785.173 1.081.002l4.045-2.335c.297-.172.295-.453-.003-.625l-4.071-2.35c-.298-.172-.785-.173-1.081-.002l-4.045 2.335zM38.62 184.1c-.296.17-.295.451.003.624l4.07 2.35c.299.171.786.172 1.082.001l4.045-2.335c.297-.17.295-.452-.003-.624l-4.071-2.35c-.298-.172-.785-.173-1.081-.002L38.62 184.1zM31.837 180.183c-.296.17-.295.453.003.625l4.07 2.35c.299.172.786.172 1.082.002l4.045-2.336c.297-.171.295-.452-.003-.624l-4.071-2.35c-.298-.172-.785-.173-1.081-.002l-4.045 2.335zM16.371 171.254c-.297.17-.295.453.003.625l12.753 7.362c.298.173.785.174 1.081.002l4.045-2.335c.297-.171.295-.452-.003-.624l-12.753-7.363c-.298-.172-.785-.173-1.082-.002l-4.044 2.335zM93.742 223.708c-.296.17-.295.452.003.625l4.07 2.349c.299.172.786.173 1.082.002l4.045-2.335c.297-.171.295-.453-.004-.624l-4.07-2.35c-.298-.173-.785-.173-1.082-.002l-4.044 2.335zM80.175 215.875c-.296.17-.294.453.004.625l4.07 2.35c.299.172.785.173 1.082.002l4.044-2.335c.297-.172.296-.453-.004-.625l-4.07-2.35c-.297-.172-.785-.173-1.082-.002l-4.043 2.335zM86.959 219.791c-.296.171-.295.452.003.625l4.07 2.35c.299.172.786.172 1.082.002l4.045-2.336c.297-.17.295-.452-.004-.624l-4.07-2.35c-.298-.172-.785-.173-1.082-.002l-4.044 2.335zM72.578 211.488c-.296.171-.295.453.003.625l4.884 2.82c.3.172.786.173 1.082.002l4.045-2.336c.297-.17.295-.452-.004-.624l-4.884-2.82c-.298-.172-.785-.173-1.082-.002l-4.044 2.335zM38.662 191.907c-.296.171-.295.452.003.625l31.203 18.015c.298.172.786.172 1.082.002l4.045-2.336c.296-.17.294-.452-.004-.624l-31.203-18.015c-.298-.172-.785-.173-1.082-.002l-4.044 2.335zM31.88 187.99c-.297.172-.296.454.002.626l4.07 2.35c.3.172.786.172 1.082.002l4.045-2.336c.297-.171.295-.452-.004-.624l-4.07-2.35c-.298-.172-.785-.173-1.082-.002l-4.044 2.335zM25.096 184.075c-.296.17-.295.452.003.625l4.07 2.349c.299.172.786.173 1.082.002l4.045-2.335c.297-.171.295-.452-.004-.624l-4.07-2.35c-.298-.173-.785-.173-1.082-.002l-4.044 2.335zM9.63 175.146c-.296.17-.295.452.003.625l2.442 1.409c.3.173.786.174 1.082.002l.81-.467c.296-.171.294-.452-.004-.624l-2.442-1.41c-.298-.173-.786-.173-1.082-.002l-.809.467zM14.514 177.965c-.297.172-.295.452.003.625L16.96 180c.3.173.785.173 1.082.001l.81-.466c.296-.172.294-.452-.004-.624l-2.442-1.41c-.299-.174-.786-.174-1.082-.002l-.809.466zM17.48 176.253c-.296.171-.295.452.003.625l2.442 1.41c.3.172.785.173 1.082.001l.81-.467c.296-.17.294-.452-.004-.624l-2.442-1.41c-.299-.173-.786-.174-1.082-.002l-.809.467zM19.398 180.785c-.297.17-.295.453.003.625l2.442 1.41c.3.172.785.173 1.082.002l.81-.467c.296-.172.294-.453-.004-.625l-2.442-1.41c-.299-.172-.786-.173-1.082-.002l-.809.467z"/>
        <path fill="#25D197" d="M96.691 50.207L148 79.825v2.603L96.691 52.81zM96.691 57.207L148 86.825v2.603L96.691 59.81zM96.691 64.207l38.634 22.3v2.604l-38.634-22.3z"/>
    </g>
</svg>
