<svg xmlns="http://www.w3.org/2000/svg" width="1752" height="1022" viewBox="0 0 1752 1022">
    <defs>
        <linearGradient id="a" x1="50%" x2="50%" y1="0%" y2="100%">
            <stop offset="0%" stop-color="#A079FF"/>
            <stop offset="100%" stop-color="#26D198"/>
        </linearGradient>
        <linearGradient id="b" x1="50%" x2="50%" y1="0%" y2="100%">
            <stop offset="0%" stop-color="#1A82FF"/>
            <stop offset="100%" stop-color="#26D198"/>
        </linearGradient>
        <linearGradient id="c" x1="100%" x2="0%" y1="0%" y2="100%">
            <stop offset="0%" stop-color="#26D198"/>
            <stop offset="100%" stop-color="#1A82FF"/>
        </linearGradient>
        <linearGradient id="d" x1="0%" x2="79.522%" y1="100%" y2="18.305%">
            <stop offset="0%" stop-color="#26D198"/>
            <stop offset="100%" stop-color="#1A82FF"/>
        </linearGradient>
        <linearGradient id="e" x1="100%" x2="2.342%" y1="0%" y2="97.658%">
            <stop offset="0%" stop-color="#26D198"/>
            <stop offset="100%" stop-color="#A079FF"/>
        </linearGradient>
        <linearGradient id="f" x1="0%" y1="100%" y2="0%">
            <stop offset="0%" stop-color="#26D198"/>
            <stop offset="100%" stop-color="#1A82FF"/>
        </linearGradient>
        <linearGradient id="g" x1="0%" y1="0%" y2="100%">
            <stop offset="0%" stop-color="#A079FF"/>
            <stop offset="100%" stop-color="#1A82FF"/>
        </linearGradient>
        <linearGradient id="h" x1="0%" y1="0%" y2="100%">
            <stop offset="0%" stop-color="#A079FF"/>
            <stop offset="100%" stop-color="#26D198"/>
        </linearGradient>
        <linearGradient id="i" x1="0%" y1="0%" y2="100%">
            <stop offset="0%" stop-color="#1A82FF"/>
            <stop offset="100%" stop-color="#26D198"/>
        </linearGradient>
    </defs>
    <g fill="none" fill-rule="evenodd">
        <g fill="#6F8294">
            <path d="M1551 510a1 1 0 1 0 0 2 1 1 0 0 0 0-2m0 60a1 1 0 1 0 0 2 1 1 0 0 0 0-2m0 60a1 1 0 1 0 0 2 1 1 0 0 0 0-2m0 60a1 1 0 1 0 0 2 1 1 0 0 0 0-2m0-420a1 1 0 1 0 0 2 1 1 0 0 0 0-2m0 60a1 1 0 1 0 0 2 1 1 0 0 0 0-2m0 60a1 1 0 1 0 0 2 1 1 0 0 0 0-2m0 60a1 1 0 1 0 0 2 1 1 0 0 0 0-2m0-420a1 1 0 1 0 0 2 1 1 0 0 0 0-2m0 60a1 1 0 1 0 0 2 1 1 0 0 0 0-2m0 60a1 1 0 1 0 0 2 1 1 0 0 0 0-2m0 60a1 1 0 1 0 0 2 1 1 0 0 0 0-2m-50 270a1 1 0 1 0 0 2 1 1 0 0 0 0-2m0 60a1 1 0 1 0 0 2 1 1 0 0 0 0-2m0 60a1 1 0 1 0 0 2 1 1 0 0 0 0-2m0 60a1 1 0 1 0 0 2 1 1 0 0 0 0-2m0-420a1 1 0 1 0 0 2 1 1 0 0 0 0-2m0 60a1 1 0 1 0 0 2 1 1 0 0 0 0-2m0 60a1 1 0 1 0 0 2 1 1 0 0 0 0-2m0 60a1 1 0 1 0 0 2 1 1 0 0 0 0-2m0-420a1 1 0 1 0 0 2 1 1 0 0 0 0-2m0 60a1 1 0 1 0 0 2 1 1 0 0 0 0-2m0 60a1 1 0 1 0 0 2 1 1 0 0 0 0-2m0 60a1 1 0 1 0 0 2 1 1 0 0 0 0-2m-50 330a1 1 0 1 0 0 2 1 1 0 0 0 0-2m0 60a1 1 0 1 0 0 2 1 1 0 0 0 0-2m0 60a1 1 0 1 0 0 2 1 1 0 0 0 0-2m0 60a1 1 0 1 0 0 2 1 1 0 0 0 0-2m0-420a1 1 0 1 0 0 2 1 1 0 0 0 0-2m0 60a1 1 0 1 0 0 2 1 1 0 0 0 0-2m0 60a1 1 0 1 0 0 2 1 1 0 0 0 0-2m0 60a1 1 0 1 0 0 2 1 1 0 0 0 0-2m0-420a1 1 0 1 0 0 2 1 1 0 0 0 0-2m0 60a1 1 0 1 0 0 2 1 1 0 0 0 0-2m0 60a1 1 0 1 0 0 2 1 1 0 0 0 0-2m0 60a1 1 0 1 0 0 2 1 1 0 0 0 0-2m-50 270a1 1 0 1 0 0 2 1 1 0 0 0 0-2m0 60a1 1 0 1 0 0 2 1 1 0 0 0 0-2m0 60a1 1 0 1 0 0 2 1 1 0 0 0 0-2m0 60a1 1 0 1 0 0 2 1 1 0 0 0 0-2m0-420a1 1 0 1 0 0 2 1 1 0 0 0 0-2m0 60a1 1 0 1 0 0 2 1 1 0 0 0 0-2m0 60a1 1 0 1 0 0 2 1 1 0 0 0 0-2m0 60a1 1 0 1 0 0 2 1 1 0 0 0 0-2m0-420a1 1 0 1 0 0 2 1 1 0 0 0 0-2m0 60a1 1 0 1 0 0 2 1 1 0 0 0 0-2m0 60a1 1 0 1 0 0 2 1 1 0 0 0 0-2m0 60a1 1 0 1 0 0 2 1 1 0 0 0 0-2m-50 330a1 1 0 1 0 0 2 1 1 0 0 0 0-2m0 60a1 1 0 1 0 0 2 1 1 0 0 0 0-2m0 60a1 1 0 1 0 0 2 1 1 0 0 0 0-2m0 60a1 1 0 1 0 0 2 1 1 0 0 0 0-2m0-420a1 1 0 1 0 0 2 1 1 0 0 0 0-2m0 60a1 1 0 1 0 0 2 1 1 0 0 0 0-2m0 60a1 1 0 1 0 0 2 1 1 0 0 0 0-2m0 60a1 1 0 1 0 0 2 1 1 0 0 0 0-2m0-420a1 1 0 1 0 0 2 1 1 0 0 0 0-2m0 60a1 1 0 1 0 0 2 1 1 0 0 0 0-2m0 60a1 1 0 1 0 0 2 1 1 0 0 0 0-2m0 60a1 1 0 1 0 0 2 1 1 0 0 0 0-2m-50 270a1 1 0 1 0 0 2 1 1 0 0 0 0-2m0 60a1 1 0 1 0 0 2 1 1 0 0 0 0-2m0 60a1 1 0 1 0 0 2 1 1 0 0 0 0-2m0 60a1 1 0 1 0 0 2 1 1 0 0 0 0-2m0-420a1 1 0 1 0 0 2 1 1 0 0 0 0-2m0 60a1 1 0 1 0 0 2 1 1 0 0 0 0-2m0 60a1 1 0 1 0 0 2 1 1 0 0 0 0-2m0 60a1 1 0 1 0 0 2 1 1 0 0 0 0-2m0-420a1 1 0 1 0 0 2 1 1 0 0 0 0-2m0 60a1 1 0 1 0 0 2 1 1 0 0 0 0-2m0 60a1 1 0 1 0 0 2 1 1 0 0 0 0-2m0 60a1 1 0 1 0 0 2 1 1 0 0 0 0-2M751 510a1 1 0 1 0 0 2 1 1 0 0 0 0-2m0 60a1 1 0 1 0 0 2 1 1 0 0 0 0-2m0 60a1 1 0 1 0 0 2 1 1 0 0 0 0-2m0 60a1 1 0 1 0 0 2 1 1 0 0 0 0-2m0-420a1 1 0 1 0 0 2 1 1 0 0 0 0-2m0 60a1 1 0 1 0 0 2 1 1 0 0 0 0-2m0 60a1 1 0 1 0 0 2 1 1 0 0 0 0-2m0 60a1 1 0 1 0 0 2 1 1 0 0 0 0-2m0-420a1 1 0 1 0 0 2 1 1 0 0 0 0-2m0 60a1 1 0 1 0 0 2 1 1 0 0 0 0-2m0 60a1 1 0 1 0 0 2 1 1 0 0 0 0-2m0 60a1 1 0 1 0 0 2 1 1 0 0 0 0-2m-50 270a1 1 0 1 0 0 2 1 1 0 0 0 0-2m0 60a1 1 0 1 0 0 2 1 1 0 0 0 0-2m0 60a1 1 0 1 0 0 2 1 1 0 0 0 0-2m0 60a1 1 0 1 0 0 2 1 1 0 0 0 0-2m0-420a1 1 0 1 0 0 2 1 1 0 0 0 0-2m0 60a1 1 0 1 0 0 2 1 1 0 0 0 0-2m0 60a1 1 0 1 0 0 2 1 1 0 0 0 0-2m0 60a1 1 0 1 0 0 2 1 1 0 0 0 0-2m0-420a1 1 0 1 0 0 2 1 1 0 0 0 0-2m0 60a1 1 0 1 0 0 2 1 1 0 0 0 0-2m0 60a1 1 0 1 0 0 2 1 1 0 0 0 0-2m0 60a1 1 0 1 0 0 2 1 1 0 0 0 0-2m-50 330a1 1 0 1 0 0 2 1 1 0 0 0 0-2m0 60a1 1 0 1 0 0 2 1 1 0 0 0 0-2m0 60a1 1 0 1 0 0 2 1 1 0 0 0 0-2m0 60a1 1 0 1 0 0 2 1 1 0 0 0 0-2m0-420a1 1 0 1 0 0 2 1 1 0 0 0 0-2m0 60a1 1 0 1 0 0 2 1 1 0 0 0 0-2m0 60a1 1 0 1 0 0 2 1 1 0 0 0 0-2m0 60a1 1 0 1 0 0 2 1 1 0 0 0 0-2m0-420a1 1 0 1 0 0 2 1 1 0 0 0 0-2m0 60a1 1 0 1 0 0 2 1 1 0 0 0 0-2m0 60a1 1 0 1 0 0 2 1 1 0 0 0 0-2m0 60a1 1 0 1 0 0 2 1 1 0 0 0 0-2m-50 270a1 1 0 1 0 0 2 1 1 0 0 0 0-2m0 60a1 1 0 1 0 0 2 1 1 0 0 0 0-2m0 60a1 1 0 1 0 0 2 1 1 0 0 0 0-2m0 60a1 1 0 1 0 0 2 1 1 0 0 0 0-2m0-420a1 1 0 1 0 0 2 1 1 0 0 0 0-2m0 60a1 1 0 1 0 0 2 1 1 0 0 0 0-2m0 60a1 1 0 1 0 0 2 1 1 0 0 0 0-2m0 60a1 1 0 1 0 0 2 1 1 0 0 0 0-2m0-420a1 1 0 1 0 0 2 1 1 0 0 0 0-2m0 60a1 1 0 1 0 0 2 1 1 0 0 0 0-2m0 60a1 1 0 1 0 0 2 1 1 0 0 0 0-2m0 60a1 1 0 1 0 0 2 1 1 0 0 0 0-2M251 510a1 1 0 1 0 0 2 1 1 0 0 0 0-2m0 60a1 1 0 1 0 0 2 1 1 0 0 0 0-2m0 60a1 1 0 1 0 0 2 1 1 0 0 0 0-2m0 60a1 1 0 1 0 0 2 1 1 0 0 0 0-2m0-420a1 1 0 1 0 0 2 1 1 0 0 0 0-2m0 60a1 1 0 1 0 0 2 1 1 0 0 0 0-2m0 60a1 1 0 1 0 0 2 1 1 0 0 0 0-2m0 60a1 1 0 1 0 0 2 1 1 0 0 0 0-2m0-420a1 1 0 1 0 0 2 1 1 0 0 0 0-2m0 60a1 1 0 1 0 0 2 1 1 0 0 0 0-2m0 60a1 1 0 1 0 0 2 1 1 0 0 0 0-2m0 60a1 1 0 1 0 0 2 1 1 0 0 0 0-2m-50 270a1 1 0 1 0 0 2 1 1 0 0 0 0-2m0 60a1 1 0 1 0 0 2 1 1 0 0 0 0-2m0 60a1 1 0 1 0 0 2 1 1 0 0 0 0-2m0 60a1 1 0 1 0 0 2 1 1 0 0 0 0-2m0-420a1 1 0 1 0 0 2 1 1 0 0 0 0-2m0 60a1 1 0 1 0 0 2 1 1 0 0 0 0-2m0 60a1 1 0 1 0 0 2 1 1 0 0 0 0-2m0 60a1 1 0 1 0 0 2 1 1 0 0 0 0-2m0-420a1 1 0 1 0 0 2 1 1 0 0 0 0-2m0 60a1 1 0 1 0 0 2 1 1 0 0 0 0-2m0 60a1 1 0 1 0 0 2 1 1 0 0 0 0-2m0 60a1 1 0 1 0 0 2 1 1 0 0 0 0-2m-50 330a1 1 0 1 0 0 2 1 1 0 0 0 0-2m0 60a1 1 0 1 0 0 2 1 1 0 0 0 0-2m0 60a1 1 0 1 0 0 2 1 1 0 0 0 0-2m0 60a1 1 0 1 0 0 2 1 1 0 0 0 0-2m0-420a1 1 0 1 0 0 2 1 1 0 0 0 0-2m0 60a1 1 0 1 0 0 2 1 1 0 0 0 0-2m0 60a1 1 0 1 0 0 2 1 1 0 0 0 0-2m0 60a1 1 0 1 0 0 2 1 1 0 0 0 0-2m0-420a1 1 0 1 0 0 2 1 1 0 0 0 0-2m0 60a1 1 0 1 0 0 2 1 1 0 0 0 0-2m0 60a1 1 0 1 0 0 2 1 1 0 0 0 0-2m0 60a1 1 0 1 0 0 2 1 1 0 0 0 0-2m-50 270a1 1 0 1 0 0 2 1 1 0 0 0 0-2m0 60a1 1 0 1 0 0 2 1 1 0 0 0 0-2m0 60a1 1 0 1 0 0 2 1 1 0 0 0 0-2m0 60a1 1 0 1 0 0 2 1 1 0 0 0 0-2m0-420a1 1 0 1 0 0 2 1 1 0 0 0 0-2m0 60a1 1 0 1 0 0 2 1 1 0 0 0 0-2m0 60a1 1 0 1 0 0 2 1 1 0 0 0 0-2m0 60a1 1 0 1 0 0 2 1 1 0 0 0 0-2m0-420a1 1 0 1 0 0 2 1 1 0 0 0 0-2m0 60a1 1 0 1 0 0 2 1 1 0 0 0 0-2m0 60a1 1 0 1 0 0 2 1 1 0 0 0 0-2m0 60a1 1 0 1 0 0 2 1 1 0 0 0 0-2M51 510a1 1 0 1 0 0 2 1 1 0 0 0 0-2m0 60a1 1 0 1 0 0 2 1 1 0 0 0 0-2m0 60a1 1 0 1 0 0 2 1 1 0 0 0 0-2m0 60a1 1 0 1 0 0 2 1 1 0 0 0 0-2m0-420a1 1 0 1 0 0 2 1 1 0 0 0 0-2m0 60a1 1 0 1 0 0 2 1 1 0 0 0 0-2m0 60a1 1 0 1 0 0 2 1 1 0 0 0 0-2m0 60a1 1 0 1 0 0 2 1 1 0 0 0 0-2m0-420a1 1 0 1 0 0 2 1 1 0 0 0 0-2m0 60a1 1 0 1 0 0 2 1 1 0 0 0 0-2m0 60a1 1 0 1 0 0 2 1 1 0 0 0 0-2m0 60a1 1 0 1 0 0 2 1 1 0 0 0 0-2M1 480a1 1 0 1 0 0 2 1 1 0 0 0 0-2m0 60a1 1 0 1 0 0 2 1 1 0 0 0 0-2m0 60a1 1 0 1 0 0 2 1 1 0 0 0 0-2m0 60a1 1 0 1 0 0 2 1 1 0 0 0 0-2m0-420a1 1 0 1 0 0 2 1 1 0 0 0 0-2m0 60a1 1 0 1 0 0 2 1 1 0 0 0 0-2m0 60a1 1 0 1 0 0 2 1 1 0 0 0 0-2m0 60a1 1 0 1 0 0 2 1 1 0 0 0 0-2M1 0a1 1 0 1 0 0 2 1 1 0 0 0 0-2m0 60a1 1 0 1 0 0 2 1 1 0 0 0 0-2m0 60a1 1 0 1 0 0 2 1 1 0 0 0 0-2m0 60a1 1 0 1 0 0 2 1 1 0 0 0 0-2m550 330a1 1 0 1 0 0 2 1 1 0 0 0 0-2m0 60a1 1 0 1 0 0 2 1 1 0 0 0 0-2m0 60a1 1 0 1 0 0 2 1 1 0 0 0 0-2m0 60a1 1 0 1 0 0 2 1 1 0 0 0 0-2m0-420a1 1 0 1 0 0 2 1 1 0 0 0 0-2m0 60a1 1 0 1 0 0 2 1 1 0 0 0 0-2m0 60a1 1 0 1 0 0 2 1 1 0 0 0 0-2m0 60a1 1 0 1 0 0 2 1 1 0 0 0 0-2m0-420a1 1 0 1 0 0 2 1 1 0 0 0 0-2m0 60a1 1 0 1 0 0 2 1 1 0 0 0 0-2m0 60a1 1 0 1 0 0 2 1 1 0 0 0 0-2m0 60a1 1 0 1 0 0 2 1 1 0 0 0 0-2m-50 270a1 1 0 1 0 0 2 1 1 0 0 0 0-2m0 60a1 1 0 1 0 0 2 1 1 0 0 0 0-2m0 60a1 1 0 1 0 0 2 1 1 0 0 0 0-2m0 60a1 1 0 1 0 0 2 1 1 0 0 0 0-2m0-420a1 1 0 1 0 0 2 1 1 0 0 0 0-2m0 60a1 1 0 1 0 0 2 1 1 0 0 0 0-2m0 60a1 1 0 1 0 0 2 1 1 0 0 0 0-2m0 60a1 1 0 1 0 0 2 1 1 0 0 0 0-2m0-420a1 1 0 1 0 0 2 1 1 0 0 0 0-2m0 60a1 1 0 1 0 0 2 1 1 0 0 0 0-2m0 60a1 1 0 1 0 0 2 1 1 0 0 0 0-2m0 60a1 1 0 1 0 0 2 1 1 0 0 0 0-2m-50 330a1 1 0 1 0 0 2 1 1 0 0 0 0-2m0 60a1 1 0 1 0 0 2 1 1 0 0 0 0-2m0 60a1 1 0 1 0 0 2 1 1 0 0 0 0-2m0 60a1 1 0 1 0 0 2 1 1 0 0 0 0-2m0-420a1 1 0 1 0 0 2 1 1 0 0 0 0-2m0 60a1 1 0 1 0 0 2 1 1 0 0 0 0-2m0 60a1 1 0 1 0 0 2 1 1 0 0 0 0-2m0 60a1 1 0 1 0 0 2 1 1 0 0 0 0-2m0-420a1 1 0 1 0 0 2 1 1 0 0 0 0-2m0 60a1 1 0 1 0 0 2 1 1 0 0 0 0-2m0 60a1 1 0 1 0 0 2 1 1 0 0 0 0-2m0 60a1 1 0 1 0 0 2 1 1 0 0 0 0-2m-50 270a1 1 0 1 0 0 2 1 1 0 0 0 0-2m0 60a1 1 0 1 0 0 2 1 1 0 0 0 0-2m0 60a1 1 0 1 0 0 2 1 1 0 0 0 0-2m0 60a1 1 0 1 0 0 2 1 1 0 0 0 0-2m0-420a1 1 0 1 0 0 2 1 1 0 0 0 0-2m0 60a1 1 0 1 0 0 2 1 1 0 0 0 0-2m0 60a1 1 0 1 0 0 2 1 1 0 0 0 0-2m0 60a1 1 0 1 0 0 2 1 1 0 0 0 0-2m0-420a1 1 0 1 0 0 2 1 1 0 0 0 0-2m0 60a1 1 0 1 0 0 2 1 1 0 0 0 0-2m0 60a1 1 0 1 0 0 2 1 1 0 0 0 0-2m0 60a1 1 0 1 0 0 2 1 1 0 0 0 0-2m-50 330a1 1 0 1 0 0 2 1 1 0 0 0 0-2m0 60a1 1 0 1 0 0 2 1 1 0 0 0 0-2m0 60a1 1 0 1 0 0 2 1 1 0 0 0 0-2m0 60a1 1 0 1 0 0 2 1 1 0 0 0 0-2m0-420a1 1 0 1 0 0 2 1 1 0 0 0 0-2m0 60a1 1 0 1 0 0 2 1 1 0 0 0 0-2m0 60a1 1 0 1 0 0 2 1 1 0 0 0 0-2m0 60a1 1 0 1 0 0 2 1 1 0 0 0 0-2m0-420a1 1 0 1 0 0 2 1 1 0 0 0 0-2m0 60a1 1 0 1 0 0 2 1 1 0 0 0 0-2m0 60a1 1 0 1 0 0 2 1 1 0 0 0 0-2m0 60a1 1 0 1 0 0 2 1 1 0 0 0 0-2m-50 270a1 1 0 1 0 0 2 1 1 0 0 0 0-2m0 60a1 1 0 1 0 0 2 1 1 0 0 0 0-2m0 60a1 1 0 1 0 0 2 1 1 0 0 0 0-2m0 60a1 1 0 1 0 0 2 1 1 0 0 0 0-2m0-420a1 1 0 1 0 0 2 1 1 0 0 0 0-2m0 60a1 1 0 1 0 0 2 1 1 0 0 0 0-2m0 60a1 1 0 1 0 0 2 1 1 0 0 0 0-2m0 60a1 1 0 1 0 0 2 1 1 0 0 0 0-2m0-420a1 1 0 1 0 0 2 1 1 0 0 0 0-2m0 60a1 1 0 1 0 0 2 1 1 0 0 0 0-2m0 60a1 1 0 1 0 0 2 1 1 0 0 0 0-2m0 60a1 1 0 1 0 0 2 1 1 0 0 0 0-2m950 330a1 1 0 1 0 0 2 1 1 0 0 0 0-2m0 60a1 1 0 1 0 0 2 1 1 0 0 0 0-2m0 60a1 1 0 1 0 0 2 1 1 0 0 0 0-2m0 60a1 1 0 1 0 0 2 1 1 0 0 0 0-2m0-420a1 1 0 1 0 0 2 1 1 0 0 0 0-2m0 60a1 1 0 1 0 0 2 1 1 0 0 0 0-2m0 60a1 1 0 1 0 0 2 1 1 0 0 0 0-2m0 60a1 1 0 1 0 0 2 1 1 0 0 0 0-2m0-420a1 1 0 1 0 0 2 1 1 0 0 0 0-2m0 60a1 1 0 1 0 0 2 1 1 0 0 0 0-2m0 60a1 1 0 1 0 0 2 1 1 0 0 0 0-2m0 60a1 1 0 1 0 0 2 1 1 0 0 0 0-2m-50 270a1 1 0 1 0 0 2 1 1 0 0 0 0-2m0 60a1 1 0 1 0 0 2 1 1 0 0 0 0-2m0 60a1 1 0 1 0 0 2 1 1 0 0 0 0-2m0 60a1 1 0 1 0 0 2 1 1 0 0 0 0-2m0-420a1 1 0 1 0 0 2 1 1 0 0 0 0-2m0 60a1 1 0 1 0 0 2 1 1 0 0 0 0-2m0 60a1 1 0 1 0 0 2 1 1 0 0 0 0-2m0 60a1 1 0 1 0 0 2 1 1 0 0 0 0-2m0-420a1 1 0 1 0 0 2 1 1 0 0 0 0-2m0 60a1 1 0 1 0 0 2 1 1 0 0 0 0-2m0 60a1 1 0 1 0 0 2 1 1 0 0 0 0-2m0 60a1 1 0 1 0 0 2 1 1 0 0 0 0-2m-50 330a1 1 0 1 0 0 2 1 1 0 0 0 0-2m0 60a1 1 0 1 0 0 2 1 1 0 0 0 0-2m0 60a1 1 0 1 0 0 2 1 1 0 0 0 0-2m0 60a1 1 0 1 0 0 2 1 1 0 0 0 0-2m0-420a1 1 0 1 0 0 2 1 1 0 0 0 0-2m0 60a1 1 0 1 0 0 2 1 1 0 0 0 0-2m0 60a1 1 0 1 0 0 2 1 1 0 0 0 0-2m0 60a1 1 0 1 0 0 2 1 1 0 0 0 0-2m0-420a1 1 0 1 0 0 2 1 1 0 0 0 0-2m0 60a1 1 0 1 0 0 2 1 1 0 0 0 0-2m0 60a1 1 0 1 0 0 2 1 1 0 0 0 0-2m0 60a1 1 0 1 0 0 2 1 1 0 0 0 0-2m-50 270a1 1 0 1 0 0 2 1 1 0 0 0 0-2m0 60a1 1 0 1 0 0 2 1 1 0 0 0 0-2m0 60a1 1 0 1 0 0 2 1 1 0 0 0 0-2m0 60a1 1 0 1 0 0 2 1 1 0 0 0 0-2m0-420a1 1 0 1 0 0 2 1 1 0 0 0 0-2m0 60a1 1 0 1 0 0 2 1 1 0 0 0 0-2m0 60a1 1 0 1 0 0 2 1 1 0 0 0 0-2m0 60a1 1 0 1 0 0 2 1 1 0 0 0 0-2m0-420a1 1 0 1 0 0 2 1 1 0 0 0 0-2m0 60a1 1 0 1 0 0 2 1 1 0 0 0 0-2m0 60a1 1 0 1 0 0 2 1 1 0 0 0 0-2m0 60a1 1 0 1 0 0 2 1 1 0 0 0 0-2m-50 330a1 1 0 1 0 0 2 1 1 0 0 0 0-2m0 60a1 1 0 1 0 0 2 1 1 0 0 0 0-2m0 60a1 1 0 1 0 0 2 1 1 0 0 0 0-2m0 60a1 1 0 1 0 0 2 1 1 0 0 0 0-2m0-420a1 1 0 1 0 0 2 1 1 0 0 0 0-2m0 60a1 1 0 1 0 0 2 1 1 0 0 0 0-2m0 60a1 1 0 1 0 0 2 1 1 0 0 0 0-2m0 60a1 1 0 1 0 0 2 1 1 0 0 0 0-2m0-420a1 1 0 1 0 0 2 1 1 0 0 0 0-2m0 60a1 1 0 1 0 0 2 1 1 0 0 0 0-2m0 60a1 1 0 1 0 0 2 1 1 0 0 0 0-2m0 60a1 1 0 1 0 0 2 1 1 0 0 0 0-2m-50 270a1 1 0 1 0 0 2 1 1 0 0 0 0-2m0 60a1 1 0 1 0 0 2 1 1 0 0 0 0-2m0 60a1 1 0 1 0 0 2 1 1 0 0 0 0-2m0 60a1 1 0 1 0 0 2 1 1 0 0 0 0-2m0-420a1 1 0 1 0 0 2 1 1 0 0 0 0-2m0 60a1 1 0 1 0 0 2 1 1 0 0 0 0-2m0 60a1 1 0 1 0 0 2 1 1 0 0 0 0-2m0 60a1 1 0 1 0 0 2 1 1 0 0 0 0-2m0-420a1 1 0 1 0 0 2 1 1 0 0 0 0-2m0 60a1 1 0 1 0 0 2 1 1 0 0 0 0-2m0 60a1 1 0 1 0 0 2 1 1 0 0 0 0-2m0 60a1 1 0 1 0 0 2 1 1 0 0 0 0-2m-50 330a1 1 0 1 0 0 2 1 1 0 0 0 0-2m0 60a1 1 0 1 0 0 2 1 1 0 0 0 0-2m0 60a1 1 0 1 0 0 2 1 1 0 0 0 0-2m0 60a1 1 0 1 0 0 2 1 1 0 0 0 0-2m0-420a1 1 0 1 0 0 2 1 1 0 0 0 0-2m0 60a1 1 0 1 0 0 2 1 1 0 0 0 0-2m0 60a1 1 0 1 0 0 2 1 1 0 0 0 0-2m0 60a1 1 0 1 0 0 2 1 1 0 0 0 0-2m0-420a1 1 0 1 0 0 2 1 1 0 0 0 0-2m0 60a1 1 0 1 0 0 2 1 1 0 0 0 0-2m0 60a1 1 0 1 0 0 2 1 1 0 0 0 0-2m0 60a1 1 0 1 0 0 2 1 1 0 0 0 0-2m-50 270a1 1 0 1 0 0 2 1 1 0 0 0 0-2m0 60a1 1 0 1 0 0 2 1 1 0 0 0 0-2m0 60a1 1 0 1 0 0 2 1 1 0 0 0 0-2m0 60a1 1 0 1 0 0 2 1 1 0 0 0 0-2m0-420a1 1 0 1 0 0 2 1 1 0 0 0 0-2m0 60a1 1 0 1 0 0 2 1 1 0 0 0 0-2m0 60a1 1 0 1 0 0 2 1 1 0 0 0 0-2m0 60a1 1 0 1 0 0 2 1 1 0 0 0 0-2m0-420a1 1 0 1 0 0 2 1 1 0 0 0 0-2m0 60a1 1 0 1 0 0 2 1 1 0 0 0 0-2m0 60a1 1 0 1 0 0 2 1 1 0 0 0 0-2m0 60a1 1 0 1 0 0 2 1 1 0 0 0 0-2m-50 330a1 1 0 1 0 0 2 1 1 0 0 0 0-2m0 60a1 1 0 1 0 0 2 1 1 0 0 0 0-2m0 60a1 1 0 1 0 0 2 1 1 0 0 0 0-2m0 60a1 1 0 1 0 0 2 1 1 0 0 0 0-2m0-420a1 1 0 1 0 0 2 1 1 0 0 0 0-2m0 60a1 1 0 1 0 0 2 1 1 0 0 0 0-2m0 60a1 1 0 1 0 0 2 1 1 0 0 0 0-2m0 60a1 1 0 1 0 0 2 1 1 0 0 0 0-2m0-420a1 1 0 1 0 0 2 1 1 0 0 0 0-2m0 60a1 1 0 1 0 0 2 1 1 0 0 0 0-2m0 60a1 1 0 1 0 0 2 1 1 0 0 0 0-2m0 60a1 1 0 1 0 0 2 1 1 0 0 0 0-2m-50 270a1 1 0 1 0 0 2 1 1 0 0 0 0-2m0 60a1 1 0 1 0 0 2 1 1 0 0 0 0-2m0 60a1 1 0 1 0 0 2 1 1 0 0 0 0-2m0 60a1 1 0 1 0 0 2 1 1 0 0 0 0-2m0-420a1 1 0 1 0 0 2 1 1 0 0 0 0-2m0 60a1 1 0 1 0 0 2 1 1 0 0 0 0-2m0 60a1 1 0 1 0 0 2 1 1 0 0 0 0-2m0 60a1 1 0 1 0 0 2 1 1 0 0 0 0-2m0-420a1 1 0 1 0 0 2 1 1 0 0 0 0-2m0 60a1 1 0 1 0 0 2 1 1 0 0 0 0-2m0 60a1 1 0 1 0 0 2 1 1 0 0 0 0-2m1 61a1 1 0 1 1-2 0 1 1 0 0 1 2 0"/>
            <path d="M1601 1200a1 1 0 1 0 0 2 1 1 0 0 0 0-2m0 60a1 1 0 1 0 0 2 1 1 0 0 0 0-2m0 60a1 1 0 1 0 0 2 1 1 0 0 0 0-2m0 60a1 1 0 1 0 0 2 1 1 0 0 0 0-2m0-420a1 1 0 1 0 0 2 1 1 0 0 0 0-2m0 60a1 1 0 1 0 0 2 1 1 0 0 0 0-2m0 60a1 1 0 1 0 0 2 1 1 0 0 0 0-2m0 60a1 1 0 1 0 0 2 1 1 0 0 0 0-2m0-420a1 1 0 1 0 0 2 1 1 0 0 0 0-2m0 60a1 1 0 1 0 0 2 1 1 0 0 0 0-2m0 60a1 1 0 1 0 0 2 1 1 0 0 0 0-2m0 60a1 1 0 1 0 0 2 1 1 0 0 0 0-2m-50 270a1 1 0 1 0 0 2 1 1 0 0 0 0-2m0 60a1 1 0 1 0 0 2 1 1 0 0 0 0-2m0 60a1 1 0 1 0 0 2 1 1 0 0 0 0-2m0 60a1 1 0 1 0 0 2 1 1 0 0 0 0-2m0-420a1 1 0 1 0 0 2 1 1 0 0 0 0-2m0 60a1 1 0 1 0 0 2 1 1 0 0 0 0-2m0 60a1 1 0 1 0 0 2 1 1 0 0 0 0-2m0 60a1 1 0 1 0 0 2 1 1 0 0 0 0-2m0-420a1 1 0 1 0 0 2 1 1 0 0 0 0-2m0 60a1 1 0 1 0 0 2 1 1 0 0 0 0-2m0 60a1 1 0 1 0 0 2 1 1 0 0 0 0-2m0 60a1 1 0 1 0 0 2 1 1 0 0 0 0-2m-50 330a1 1 0 1 0 0 2 1 1 0 0 0 0-2m0 60a1 1 0 1 0 0 2 1 1 0 0 0 0-2m0 60a1 1 0 1 0 0 2 1 1 0 0 0 0-2m0 60a1 1 0 1 0 0 2 1 1 0 0 0 0-2m0-420a1 1 0 1 0 0 2 1 1 0 0 0 0-2m0 60a1 1 0 1 0 0 2 1 1 0 0 0 0-2m0 60a1 1 0 1 0 0 2 1 1 0 0 0 0-2m0 60a1 1 0 1 0 0 2 1 1 0 0 0 0-2m0-420a1 1 0 1 0 0 2 1 1 0 0 0 0-2m0 60a1 1 0 1 0 0 2 1 1 0 0 0 0-2m0 60a1 1 0 1 0 0 2 1 1 0 0 0 0-2m0 60a1 1 0 1 0 0 2 1 1 0 0 0 0-2m-50 270a1 1 0 1 0 0 2 1 1 0 0 0 0-2m0 60a1 1 0 1 0 0 2 1 1 0 0 0 0-2m0 60a1 1 0 1 0 0 2 1 1 0 0 0 0-2m0 60a1 1 0 1 0 0 2 1 1 0 0 0 0-2m0-420a1 1 0 1 0 0 2 1 1 0 0 0 0-2m0 60a1 1 0 1 0 0 2 1 1 0 0 0 0-2m0 60a1 1 0 1 0 0 2 1 1 0 0 0 0-2m0 60a1 1 0 1 0 0 2 1 1 0 0 0 0-2m0-420a1 1 0 1 0 0 2 1 1 0 0 0 0-2m0 60a1 1 0 1 0 0 2 1 1 0 0 0 0-2m0 60a1 1 0 1 0 0 2 1 1 0 0 0 0-2m0 60a1 1 0 1 0 0 2 1 1 0 0 0 0-2m-50 330a1 1 0 1 0 0 2 1 1 0 0 0 0-2m0 60a1 1 0 1 0 0 2 1 1 0 0 0 0-2m0 60a1 1 0 1 0 0 2 1 1 0 0 0 0-2m0 60a1 1 0 1 0 0 2 1 1 0 0 0 0-2m0-420a1 1 0 1 0 0 2 1 1 0 0 0 0-2m0 60a1 1 0 1 0 0 2 1 1 0 0 0 0-2m0 60a1 1 0 1 0 0 2 1 1 0 0 0 0-2m0 60a1 1 0 1 0 0 2 1 1 0 0 0 0-2m0-420a1 1 0 1 0 0 2 1 1 0 0 0 0-2m0 60a1 1 0 1 0 0 2 1 1 0 0 0 0-2m0 60a1 1 0 1 0 0 2 1 1 0 0 0 0-2m0 60a1 1 0 1 0 0 2 1 1 0 0 0 0-2m-50 270a1 1 0 1 0 0 2 1 1 0 0 0 0-2m0 60a1 1 0 1 0 0 2 1 1 0 0 0 0-2m0 60a1 1 0 1 0 0 2 1 1 0 0 0 0-2m0 60a1 1 0 1 0 0 2 1 1 0 0 0 0-2m0-420a1 1 0 1 0 0 2 1 1 0 0 0 0-2m0 60a1 1 0 1 0 0 2 1 1 0 0 0 0-2m0 60a1 1 0 1 0 0 2 1 1 0 0 0 0-2m0 60a1 1 0 1 0 0 2 1 1 0 0 0 0-2m0-420a1 1 0 1 0 0 2 1 1 0 0 0 0-2m0 60a1 1 0 1 0 0 2 1 1 0 0 0 0-2m0 60a1 1 0 1 0 0 2 1 1 0 0 0 0-2m0 60a1 1 0 1 0 0 2 1 1 0 0 0 0-2m-550 330a1 1 0 1 0 0 2 1 1 0 0 0 0-2m0 60a1 1 0 1 0 0 2 1 1 0 0 0 0-2m0 60a1 1 0 1 0 0 2 1 1 0 0 0 0-2m0 60a1 1 0 1 0 0 2 1 1 0 0 0 0-2m0-420a1 1 0 1 0 0 2 1 1 0 0 0 0-2m0 60a1 1 0 1 0 0 2 1 1 0 0 0 0-2m0 60a1 1 0 1 0 0 2 1 1 0 0 0 0-2m0 60a1 1 0 1 0 0 2 1 1 0 0 0 0-2m0-420a1 1 0 1 0 0 2 1 1 0 0 0 0-2m0 60a1 1 0 1 0 0 2 1 1 0 0 0 0-2m0 60a1 1 0 1 0 0 2 1 1 0 0 0 0-2m0 60a1 1 0 1 0 0 2 1 1 0 0 0 0-2m-50 270a1 1 0 1 0 0 2 1 1 0 0 0 0-2m0 60a1 1 0 1 0 0 2 1 1 0 0 0 0-2m0 60a1 1 0 1 0 0 2 1 1 0 0 0 0-2m0 60a1 1 0 1 0 0 2 1 1 0 0 0 0-2m0-420a1 1 0 1 0 0 2 1 1 0 0 0 0-2m0 60a1 1 0 1 0 0 2 1 1 0 0 0 0-2m0 60a1 1 0 1 0 0 2 1 1 0 0 0 0-2m0 60a1 1 0 1 0 0 2 1 1 0 0 0 0-2m0-420a1 1 0 1 0 0 2 1 1 0 0 0 0-2m0 60a1 1 0 1 0 0 2 1 1 0 0 0 0-2m0 60a1 1 0 1 0 0 2 1 1 0 0 0 0-2m0 60a1 1 0 1 0 0 2 1 1 0 0 0 0-2m-50 330a1 1 0 1 0 0 2 1 1 0 0 0 0-2m0 60a1 1 0 1 0 0 2 1 1 0 0 0 0-2m0 60a1 1 0 1 0 0 2 1 1 0 0 0 0-2m0 60a1 1 0 1 0 0 2 1 1 0 0 0 0-2m0-420a1 1 0 1 0 0 2 1 1 0 0 0 0-2m0 60a1 1 0 1 0 0 2 1 1 0 0 0 0-2m0 60a1 1 0 1 0 0 2 1 1 0 0 0 0-2m0 60a1 1 0 1 0 0 2 1 1 0 0 0 0-2m0-420a1 1 0 1 0 0 2 1 1 0 0 0 0-2m0 60a1 1 0 1 0 0 2 1 1 0 0 0 0-2m0 60a1 1 0 1 0 0 2 1 1 0 0 0 0-2m0 60a1 1 0 1 0 0 2 1 1 0 0 0 0-2m-50 270a1 1 0 1 0 0 2 1 1 0 0 0 0-2m0 60a1 1 0 1 0 0 2 1 1 0 0 0 0-2m0 60a1 1 0 1 0 0 2 1 1 0 0 0 0-2m0 60a1 1 0 1 0 0 2 1 1 0 0 0 0-2m0-420a1 1 0 1 0 0 2 1 1 0 0 0 0-2m0 60a1 1 0 1 0 0 2 1 1 0 0 0 0-2m0 60a1 1 0 1 0 0 2 1 1 0 0 0 0-2m0 60a1 1 0 1 0 0 2 1 1 0 0 0 0-2m0-420a1 1 0 1 0 0 2 1 1 0 0 0 0-2m0 60a1 1 0 1 0 0 2 1 1 0 0 0 0-2m0 60a1 1 0 1 0 0 2 1 1 0 0 0 0-2m0 60a1 1 0 1 0 0 2 1 1 0 0 0 0-2m-350 330a1 1 0 1 0 0 2 1 1 0 0 0 0-2m0 60a1 1 0 1 0 0 2 1 1 0 0 0 0-2m0 60a1 1 0 1 0 0 2 1 1 0 0 0 0-2m0 60a1 1 0 1 0 0 2 1 1 0 0 0 0-2m0-420a1 1 0 1 0 0 2 1 1 0 0 0 0-2m0 60a1 1 0 1 0 0 2 1 1 0 0 0 0-2m0 60a1 1 0 1 0 0 2 1 1 0 0 0 0-2m0 60a1 1 0 1 0 0 2 1 1 0 0 0 0-2m0-420a1 1 0 1 0 0 2 1 1 0 0 0 0-2m0 60a1 1 0 1 0 0 2 1 1 0 0 0 0-2m0 60a1 1 0 1 0 0 2 1 1 0 0 0 0-2m0 60a1 1 0 1 0 0 2 1 1 0 0 0 0-2m-50 270a1 1 0 1 0 0 2 1 1 0 0 0 0-2m0 60a1 1 0 1 0 0 2 1 1 0 0 0 0-2m0 60a1 1 0 1 0 0 2 1 1 0 0 0 0-2m0 60a1 1 0 1 0 0 2 1 1 0 0 0 0-2m0-420a1 1 0 1 0 0 2 1 1 0 0 0 0-2m0 60a1 1 0 1 0 0 2 1 1 0 0 0 0-2m0 60a1 1 0 1 0 0 2 1 1 0 0 0 0-2m0 60a1 1 0 1 0 0 2 1 1 0 0 0 0-2m0-420a1 1 0 1 0 0 2 1 1 0 0 0 0-2m0 60a1 1 0 1 0 0 2 1 1 0 0 0 0-2m0 60a1 1 0 1 0 0 2 1 1 0 0 0 0-2m0 60a1 1 0 1 0 0 2 1 1 0 0 0 0-2m-50 330a1 1 0 1 0 0 2 1 1 0 0 0 0-2m0 60a1 1 0 1 0 0 2 1 1 0 0 0 0-2m0 60a1 1 0 1 0 0 2 1 1 0 0 0 0-2m0 60a1 1 0 1 0 0 2 1 1 0 0 0 0-2m0-420a1 1 0 1 0 0 2 1 1 0 0 0 0-2m0 60a1 1 0 1 0 0 2 1 1 0 0 0 0-2m0 60a1 1 0 1 0 0 2 1 1 0 0 0 0-2m0 60a1 1 0 1 0 0 2 1 1 0 0 0 0-2m0-420a1 1 0 1 0 0 2 1 1 0 0 0 0-2m0 60a1 1 0 1 0 0 2 1 1 0 0 0 0-2m0 60a1 1 0 1 0 0 2 1 1 0 0 0 0-2m0 60a1 1 0 1 0 0 2 1 1 0 0 0 0-2m-50 270a1 1 0 1 0 0 2 1 1 0 0 0 0-2m0 60a1 1 0 1 0 0 2 1 1 0 0 0 0-2m0 60a1 1 0 1 0 0 2 1 1 0 0 0 0-2m0 60a1 1 0 1 0 0 2 1 1 0 0 0 0-2m0-420a1 1 0 1 0 0 2 1 1 0 0 0 0-2m0 60a1 1 0 1 0 0 2 1 1 0 0 0 0-2m0 60a1 1 0 1 0 0 2 1 1 0 0 0 0-2m0 60a1 1 0 1 0 0 2 1 1 0 0 0 0-2m0-420a1 1 0 1 0 0 2 1 1 0 0 0 0-2m0 60a1 1 0 1 0 0 2 1 1 0 0 0 0-2m0 60a1 1 0 1 0 0 2 1 1 0 0 0 0-2m0 60a1 1 0 1 0 0 2 1 1 0 0 0 0-2m-50 330a1 1 0 1 0 0 2 1 1 0 0 0 0-2m0 60a1 1 0 1 0 0 2 1 1 0 0 0 0-2m0 60a1 1 0 1 0 0 2 1 1 0 0 0 0-2m0 60a1 1 0 1 0 0 2 1 1 0 0 0 0-2m0-420a1 1 0 1 0 0 2 1 1 0 0 0 0-2m0 60a1 1 0 1 0 0 2 1 1 0 0 0 0-2m0 60a1 1 0 1 0 0 2 1 1 0 0 0 0-2m0 60a1 1 0 1 0 0 2 1 1 0 0 0 0-2m0-420a1 1 0 1 0 0 2 1 1 0 0 0 0-2m0 60a1 1 0 1 0 0 2 1 1 0 0 0 0-2m0 60a1 1 0 1 0 0 2 1 1 0 0 0 0-2m0 60a1 1 0 1 0 0 2 1 1 0 0 0 0-2m-50 270a1 1 0 1 0 0 2 1 1 0 0 0 0-2m0 60a1 1 0 1 0 0 2 1 1 0 0 0 0-2m0 60a1 1 0 1 0 0 2 1 1 0 0 0 0-2m0 60a1 1 0 1 0 0 2 1 1 0 0 0 0-2m0-420a1 1 0 1 0 0 2 1 1 0 0 0 0-2m0 60a1 1 0 1 0 0 2 1 1 0 0 0 0-2m0 60a1 1 0 1 0 0 2 1 1 0 0 0 0-2m0 60a1 1 0 1 0 0 2 1 1 0 0 0 0-2m0-420a1 1 0 1 0 0 2 1 1 0 0 0 0-2m0 60a1 1 0 1 0 0 2 1 1 0 0 0 0-2m0 60a1 1 0 1 0 0 2 1 1 0 0 0 0-2m0 60a1 1 0 1 0 0 2 1 1 0 0 0 0-2m550 330a1 1 0 1 0 0 2 1 1 0 0 0 0-2m0 60a1 1 0 1 0 0 2 1 1 0 0 0 0-2m0 60a1 1 0 1 0 0 2 1 1 0 0 0 0-2m0 60a1 1 0 1 0 0 2 1 1 0 0 0 0-2m0-420a1 1 0 1 0 0 2 1 1 0 0 0 0-2m0 60a1 1 0 1 0 0 2 1 1 0 0 0 0-2m0 60a1 1 0 1 0 0 2 1 1 0 0 0 0-2m0 60a1 1 0 1 0 0 2 1 1 0 0 0 0-2m0-420a1 1 0 1 0 0 2 1 1 0 0 0 0-2m0 60a1 1 0 1 0 0 2 1 1 0 0 0 0-2m0 60a1 1 0 1 0 0 2 1 1 0 0 0 0-2m0 60a1 1 0 1 0 0 2 1 1 0 0 0 0-2m-50 270a1 1 0 1 0 0 2 1 1 0 0 0 0-2m0 60a1 1 0 1 0 0 2 1 1 0 0 0 0-2m0 60a1 1 0 1 0 0 2 1 1 0 0 0 0-2m0 60a1 1 0 1 0 0 2 1 1 0 0 0 0-2m0-420a1 1 0 1 0 0 2 1 1 0 0 0 0-2m0 60a1 1 0 1 0 0 2 1 1 0 0 0 0-2m0 60a1 1 0 1 0 0 2 1 1 0 0 0 0-2m0 60a1 1 0 1 0 0 2 1 1 0 0 0 0-2m0-420a1 1 0 1 0 0 2 1 1 0 0 0 0-2m0 60a1 1 0 1 0 0 2 1 1 0 0 0 0-2m0 60a1 1 0 1 0 0 2 1 1 0 0 0 0-2m0 60a1 1 0 1 0 0 2 1 1 0 0 0 0-2m-50 330a1 1 0 1 0 0 2 1 1 0 0 0 0-2m0 60a1 1 0 1 0 0 2 1 1 0 0 0 0-2m0 60a1 1 0 1 0 0 2 1 1 0 0 0 0-2m0 60a1 1 0 1 0 0 2 1 1 0 0 0 0-2m0-420a1 1 0 1 0 0 2 1 1 0 0 0 0-2m0 60a1 1 0 1 0 0 2 1 1 0 0 0 0-2m0 60a1 1 0 1 0 0 2 1 1 0 0 0 0-2m0 60a1 1 0 1 0 0 2 1 1 0 0 0 0-2m0-420a1 1 0 1 0 0 2 1 1 0 0 0 0-2m0 60a1 1 0 1 0 0 2 1 1 0 0 0 0-2m0 60a1 1 0 1 0 0 2 1 1 0 0 0 0-2m0 60a1 1 0 1 0 0 2 1 1 0 0 0 0-2m-50 270a1 1 0 1 0 0 2 1 1 0 0 0 0-2m0 60a1 1 0 1 0 0 2 1 1 0 0 0 0-2m0 60a1 1 0 1 0 0 2 1 1 0 0 0 0-2m0 60a1 1 0 1 0 0 2 1 1 0 0 0 0-2m0-420a1 1 0 1 0 0 2 1 1 0 0 0 0-2m0 60a1 1 0 1 0 0 2 1 1 0 0 0 0-2m0 60a1 1 0 1 0 0 2 1 1 0 0 0 0-2m0 60a1 1 0 1 0 0 2 1 1 0 0 0 0-2m0-420a1 1 0 1 0 0 2 1 1 0 0 0 0-2m0 60a1 1 0 1 0 0 2 1 1 0 0 0 0-2m0 60a1 1 0 1 0 0 2 1 1 0 0 0 0-2m0 60a1 1 0 1 0 0 2 1 1 0 0 0 0-2m-50 330a1 1 0 1 0 0 2 1 1 0 0 0 0-2m0 60a1 1 0 1 0 0 2 1 1 0 0 0 0-2m0 60a1 1 0 1 0 0 2 1 1 0 0 0 0-2m0 60a1 1 0 1 0 0 2 1 1 0 0 0 0-2m0-420a1 1 0 1 0 0 2 1 1 0 0 0 0-2m0 60a1 1 0 1 0 0 2 1 1 0 0 0 0-2m0 60a1 1 0 1 0 0 2 1 1 0 0 0 0-2m0 60a1 1 0 1 0 0 2 1 1 0 0 0 0-2m0-420a1 1 0 1 0 0 2 1 1 0 0 0 0-2m0 60a1 1 0 1 0 0 2 1 1 0 0 0 0-2m0 60a1 1 0 1 0 0 2 1 1 0 0 0 0-2m0 60a1 1 0 1 0 0 2 1 1 0 0 0 0-2m-50 270a1 1 0 1 0 0 2 1 1 0 0 0 0-2m0 60a1 1 0 1 0 0 2 1 1 0 0 0 0-2m0 60a1 1 0 1 0 0 2 1 1 0 0 0 0-2m0 60a1 1 0 1 0 0 2 1 1 0 0 0 0-2m0-420a1 1 0 1 0 0 2 1 1 0 0 0 0-2m0 60a1 1 0 1 0 0 2 1 1 0 0 0 0-2m0 60a1 1 0 1 0 0 2 1 1 0 0 0 0-2m0 60a1 1 0 1 0 0 2 1 1 0 0 0 0-2m0-420a1 1 0 1 0 0 2 1 1 0 0 0 0-2m0 60a1 1 0 1 0 0 2 1 1 0 0 0 0-2m0 60a1 1 0 1 0 0 2 1 1 0 0 0 0-2m0 60a1 1 0 1 0 0 2 1 1 0 0 0 0-2m950 330a1 1 0 1 0 0 2 1 1 0 0 0 0-2m0 60a1 1 0 1 0 0 2 1 1 0 0 0 0-2m0 60a1 1 0 1 0 0 2 1 1 0 0 0 0-2m0 60a1 1 0 1 0 0 2 1 1 0 0 0 0-2m0-420a1 1 0 1 0 0 2 1 1 0 0 0 0-2m0 60a1 1 0 1 0 0 2 1 1 0 0 0 0-2m0 60a1 1 0 1 0 0 2 1 1 0 0 0 0-2m0 60a1 1 0 1 0 0 2 1 1 0 0 0 0-2m0-420a1 1 0 1 0 0 2 1 1 0 0 0 0-2m0 60a1 1 0 1 0 0 2 1 1 0 0 0 0-2m0 60a1 1 0 1 0 0 2 1 1 0 0 0 0-2m0 60a1 1 0 1 0 0 2 1 1 0 0 0 0-2m-50 270a1 1 0 1 0 0 2 1 1 0 0 0 0-2m0 60a1 1 0 1 0 0 2 1 1 0 0 0 0-2m0 60a1 1 0 1 0 0 2 1 1 0 0 0 0-2m0 60a1 1 0 1 0 0 2 1 1 0 0 0 0-2m0-420a1 1 0 1 0 0 2 1 1 0 0 0 0-2m0 60a1 1 0 1 0 0 2 1 1 0 0 0 0-2m0 60a1 1 0 1 0 0 2 1 1 0 0 0 0-2m0 60a1 1 0 1 0 0 2 1 1 0 0 0 0-2m0-420a1 1 0 1 0 0 2 1 1 0 0 0 0-2m0 60a1 1 0 1 0 0 2 1 1 0 0 0 0-2m0 60a1 1 0 1 0 0 2 1 1 0 0 0 0-2m0 60a1 1 0 1 0 0 2 1 1 0 0 0 0-2m-50 330a1 1 0 1 0 0 2 1 1 0 0 0 0-2m0 60a1 1 0 1 0 0 2 1 1 0 0 0 0-2m0 60a1 1 0 1 0 0 2 1 1 0 0 0 0-2m0 60a1 1 0 1 0 0 2 1 1 0 0 0 0-2m0-420a1 1 0 1 0 0 2 1 1 0 0 0 0-2m0 60a1 1 0 1 0 0 2 1 1 0 0 0 0-2m0 60a1 1 0 1 0 0 2 1 1 0 0 0 0-2m0 60a1 1 0 1 0 0 2 1 1 0 0 0 0-2m0-420a1 1 0 1 0 0 2 1 1 0 0 0 0-2m0 60a1 1 0 1 0 0 2 1 1 0 0 0 0-2m0 60a1 1 0 1 0 0 2 1 1 0 0 0 0-2m0 60a1 1 0 1 0 0 2 1 1 0 0 0 0-2m-50 270a1 1 0 1 0 0 2 1 1 0 0 0 0-2m0 60a1 1 0 1 0 0 2 1 1 0 0 0 0-2m0 60a1 1 0 1 0 0 2 1 1 0 0 0 0-2m0 60a1 1 0 1 0 0 2 1 1 0 0 0 0-2m0-420a1 1 0 1 0 0 2 1 1 0 0 0 0-2m0 60a1 1 0 1 0 0 2 1 1 0 0 0 0-2m0 60a1 1 0 1 0 0 2 1 1 0 0 0 0-2m0 60a1 1 0 1 0 0 2 1 1 0 0 0 0-2m0-420a1 1 0 1 0 0 2 1 1 0 0 0 0-2m0 60a1 1 0 1 0 0 2 1 1 0 0 0 0-2m0 60a1 1 0 1 0 0 2 1 1 0 0 0 0-2m0 60a1 1 0 1 0 0 2 1 1 0 0 0 0-2m-50 330a1 1 0 1 0 0 2 1 1 0 0 0 0-2m0 60a1 1 0 1 0 0 2 1 1 0 0 0 0-2m0 60a1 1 0 1 0 0 2 1 1 0 0 0 0-2m0 60a1 1 0 1 0 0 2 1 1 0 0 0 0-2m0-420a1 1 0 1 0 0 2 1 1 0 0 0 0-2m0 60a1 1 0 1 0 0 2 1 1 0 0 0 0-2m0 60a1 1 0 1 0 0 2 1 1 0 0 0 0-2m0 60a1 1 0 1 0 0 2 1 1 0 0 0 0-2m0-420a1 1 0 1 0 0 2 1 1 0 0 0 0-2m0 60a1 1 0 1 0 0 2 1 1 0 0 0 0-2m0 60a1 1 0 1 0 0 2 1 1 0 0 0 0-2m0 60a1 1 0 1 0 0 2 1 1 0 0 0 0-2m-50 270a1 1 0 1 0 0 2 1 1 0 0 0 0-2m0 60a1 1 0 1 0 0 2 1 1 0 0 0 0-2m0 60a1 1 0 1 0 0 2 1 1 0 0 0 0-2m0 60a1 1 0 1 0 0 2 1 1 0 0 0 0-2m0-420a1 1 0 1 0 0 2 1 1 0 0 0 0-2m0 60a1 1 0 1 0 0 2 1 1 0 0 0 0-2m0 60a1 1 0 1 0 0 2 1 1 0 0 0 0-2m0 60a1 1 0 1 0 0 2 1 1 0 0 0 0-2m0-420a1 1 0 1 0 0 2 1 1 0 0 0 0-2m0 60a1 1 0 1 0 0 2 1 1 0 0 0 0-2m0 60a1 1 0 1 0 0 2 1 1 0 0 0 0-2m0 60a1 1 0 1 0 0 2 1 1 0 0 0 0-2m-50 330a1 1 0 1 0 0 2 1 1 0 0 0 0-2m0 60a1 1 0 1 0 0 2 1 1 0 0 0 0-2m0 60a1 1 0 1 0 0 2 1 1 0 0 0 0-2m0 60a1 1 0 1 0 0 2 1 1 0 0 0 0-2m0-420a1 1 0 1 0 0 2 1 1 0 0 0 0-2m0 60a1 1 0 1 0 0 2 1 1 0 0 0 0-2m0 60a1 1 0 1 0 0 2 1 1 0 0 0 0-2m0 60a1 1 0 1 0 0 2 1 1 0 0 0 0-2m0-420a1 1 0 1 0 0 2 1 1 0 0 0 0-2m0 60a1 1 0 1 0 0 2 1 1 0 0 0 0-2m0 60a1 1 0 1 0 0 2 1 1 0 0 0 0-2m0 60a1 1 0 1 0 0 2 1 1 0 0 0 0-2m-50 270a1 1 0 1 0 0 2 1 1 0 0 0 0-2m0 60a1 1 0 1 0 0 2 1 1 0 0 0 0-2m0 60a1 1 0 1 0 0 2 1 1 0 0 0 0-2m0 60a1 1 0 1 0 0 2 1 1 0 0 0 0-2m0-420a1 1 0 1 0 0 2 1 1 0 0 0 0-2m0 60a1 1 0 1 0 0 2 1 1 0 0 0 0-2m0 60a1 1 0 1 0 0 2 1 1 0 0 0 0-2m0 60a1 1 0 1 0 0 2 1 1 0 0 0 0-2m0-420a1 1 0 1 0 0 2 1 1 0 0 0 0-2m0 60a1 1 0 1 0 0 2 1 1 0 0 0 0-2m0 60a1 1 0 1 0 0 2 1 1 0 0 0 0-2m0 60a1 1 0 1 0 0 2 1 1 0 0 0 0-2m-50 330a1 1 0 1 0 0 2 1 1 0 0 0 0-2m0 60a1 1 0 1 0 0 2 1 1 0 0 0 0-2m0 60a1 1 0 1 0 0 2 1 1 0 0 0 0-2m0 60a1 1 0 1 0 0 2 1 1 0 0 0 0-2m0-420a1 1 0 1 0 0 2 1 1 0 0 0 0-2m0 60a1 1 0 1 0 0 2 1 1 0 0 0 0-2m0 60a1 1 0 1 0 0 2 1 1 0 0 0 0-2m0 60a1 1 0 1 0 0 2 1 1 0 0 0 0-2m0-420a1 1 0 1 0 0 2 1 1 0 0 0 0-2m0 60a1 1 0 1 0 0 2 1 1 0 0 0 0-2m0 60a1 1 0 1 0 0 2 1 1 0 0 0 0-2m0 60a1 1 0 1 0 0 2 1 1 0 0 0 0-2m-50 270a1 1 0 1 0 0 2 1 1 0 0 0 0-2m0 60a1 1 0 1 0 0 2 1 1 0 0 0 0-2m0 60a1 1 0 1 0 0 2 1 1 0 0 0 0-2m0 60a1 1 0 1 0 0 2 1 1 0 0 0 0-2m0-420a1 1 0 1 0 0 2 1 1 0 0 0 0-2m0 60a1 1 0 1 0 0 2 1 1 0 0 0 0-2m0 60a1 1 0 1 0 0 2 1 1 0 0 0 0-2m0 60a1 1 0 1 0 0 2 1 1 0 0 0 0-2m0-420a1 1 0 1 0 0 2 1 1 0 0 0 0-2m0 60a1 1 0 1 0 0 2 1 1 0 0 0 0-2m0 60a1 1 0 1 0 0 2 1 1 0 0 0 0-2m1 61a1 1 0 1 1-2 0 1 1 0 0 1 2 0M3151 510a1 1 0 1 0 0 2 1 1 0 0 0 0-2m0 60a1 1 0 1 0 0 2 1 1 0 0 0 0-2m0 60a1 1 0 1 0 0 2 1 1 0 0 0 0-2m0 60a1 1 0 1 0 0 2 1 1 0 0 0 0-2m0-420a1 1 0 1 0 0 2 1 1 0 0 0 0-2m0 60a1 1 0 1 0 0 2 1 1 0 0 0 0-2m0 60a1 1 0 1 0 0 2 1 1 0 0 0 0-2m0 60a1 1 0 1 0 0 2 1 1 0 0 0 0-2m0-420a1 1 0 1 0 0 2 1 1 0 0 0 0-2m0 60a1 1 0 1 0 0 2 1 1 0 0 0 0-2m0 60a1 1 0 1 0 0 2 1 1 0 0 0 0-2m0 60a1 1 0 1 0 0 2 1 1 0 0 0 0-2m-50 270a1 1 0 1 0 0 2 1 1 0 0 0 0-2m0 60a1 1 0 1 0 0 2 1 1 0 0 0 0-2m0 60a1 1 0 1 0 0 2 1 1 0 0 0 0-2m0 60a1 1 0 1 0 0 2 1 1 0 0 0 0-2m0-420a1 1 0 1 0 0 2 1 1 0 0 0 0-2m0 60a1 1 0 1 0 0 2 1 1 0 0 0 0-2m0 60a1 1 0 1 0 0 2 1 1 0 0 0 0-2m0 60a1 1 0 1 0 0 2 1 1 0 0 0 0-2m0-420a1 1 0 1 0 0 2 1 1 0 0 0 0-2m0 60a1 1 0 1 0 0 2 1 1 0 0 0 0-2m0 60a1 1 0 1 0 0 2 1 1 0 0 0 0-2m0 60a1 1 0 1 0 0 2 1 1 0 0 0 0-2m-50 330a1 1 0 1 0 0 2 1 1 0 0 0 0-2m0 60a1 1 0 1 0 0 2 1 1 0 0 0 0-2m0 60a1 1 0 1 0 0 2 1 1 0 0 0 0-2m0 60a1 1 0 1 0 0 2 1 1 0 0 0 0-2m0-420a1 1 0 1 0 0 2 1 1 0 0 0 0-2m0 60a1 1 0 1 0 0 2 1 1 0 0 0 0-2m0 60a1 1 0 1 0 0 2 1 1 0 0 0 0-2m0 60a1 1 0 1 0 0 2 1 1 0 0 0 0-2m0-420a1 1 0 1 0 0 2 1 1 0 0 0 0-2m0 60a1 1 0 1 0 0 2 1 1 0 0 0 0-2m0 60a1 1 0 1 0 0 2 1 1 0 0 0 0-2m0 60a1 1 0 1 0 0 2 1 1 0 0 0 0-2m-50 270a1 1 0 1 0 0 2 1 1 0 0 0 0-2m0 60a1 1 0 1 0 0 2 1 1 0 0 0 0-2m0 60a1 1 0 1 0 0 2 1 1 0 0 0 0-2m0 60a1 1 0 1 0 0 2 1 1 0 0 0 0-2m0-420a1 1 0 1 0 0 2 1 1 0 0 0 0-2m0 60a1 1 0 1 0 0 2 1 1 0 0 0 0-2m0 60a1 1 0 1 0 0 2 1 1 0 0 0 0-2m0 60a1 1 0 1 0 0 2 1 1 0 0 0 0-2m0-420a1 1 0 1 0 0 2 1 1 0 0 0 0-2m0 60a1 1 0 1 0 0 2 1 1 0 0 0 0-2m0 60a1 1 0 1 0 0 2 1 1 0 0 0 0-2m0 60a1 1 0 1 0 0 2 1 1 0 0 0 0-2m-50 330a1 1 0 1 0 0 2 1 1 0 0 0 0-2m0 60a1 1 0 1 0 0 2 1 1 0 0 0 0-2m0 60a1 1 0 1 0 0 2 1 1 0 0 0 0-2m0 60a1 1 0 1 0 0 2 1 1 0 0 0 0-2m0-420a1 1 0 1 0 0 2 1 1 0 0 0 0-2m0 60a1 1 0 1 0 0 2 1 1 0 0 0 0-2m0 60a1 1 0 1 0 0 2 1 1 0 0 0 0-2m0 60a1 1 0 1 0 0 2 1 1 0 0 0 0-2m0-420a1 1 0 1 0 0 2 1 1 0 0 0 0-2m0 60a1 1 0 1 0 0 2 1 1 0 0 0 0-2m0 60a1 1 0 1 0 0 2 1 1 0 0 0 0-2m0 60a1 1 0 1 0 0 2 1 1 0 0 0 0-2m-50 270a1 1 0 1 0 0 2 1 1 0 0 0 0-2m0 60a1 1 0 1 0 0 2 1 1 0 0 0 0-2m0 60a1 1 0 1 0 0 2 1 1 0 0 0 0-2m0 60a1 1 0 1 0 0 2 1 1 0 0 0 0-2m0-420a1 1 0 1 0 0 2 1 1 0 0 0 0-2m0 60a1 1 0 1 0 0 2 1 1 0 0 0 0-2m0 60a1 1 0 1 0 0 2 1 1 0 0 0 0-2m0 60a1 1 0 1 0 0 2 1 1 0 0 0 0-2m0-420a1 1 0 1 0 0 2 1 1 0 0 0 0-2m0 60a1 1 0 1 0 0 2 1 1 0 0 0 0-2m0 60a1 1 0 1 0 0 2 1 1 0 0 0 0-2m0 60a1 1 0 1 0 0 2 1 1 0 0 0 0-2m-550 330a1 1 0 1 0 0 2 1 1 0 0 0 0-2m0 60a1 1 0 1 0 0 2 1 1 0 0 0 0-2m0 60a1 1 0 1 0 0 2 1 1 0 0 0 0-2m0 60a1 1 0 1 0 0 2 1 1 0 0 0 0-2m0-420a1 1 0 1 0 0 2 1 1 0 0 0 0-2m0 60a1 1 0 1 0 0 2 1 1 0 0 0 0-2m0 60a1 1 0 1 0 0 2 1 1 0 0 0 0-2m0 60a1 1 0 1 0 0 2 1 1 0 0 0 0-2m0-420a1 1 0 1 0 0 2 1 1 0 0 0 0-2m0 60a1 1 0 1 0 0 2 1 1 0 0 0 0-2m0 60a1 1 0 1 0 0 2 1 1 0 0 0 0-2m0 60a1 1 0 1 0 0 2 1 1 0 0 0 0-2m-50 270a1 1 0 1 0 0 2 1 1 0 0 0 0-2m0 60a1 1 0 1 0 0 2 1 1 0 0 0 0-2m0 60a1 1 0 1 0 0 2 1 1 0 0 0 0-2m0 60a1 1 0 1 0 0 2 1 1 0 0 0 0-2m0-420a1 1 0 1 0 0 2 1 1 0 0 0 0-2m0 60a1 1 0 1 0 0 2 1 1 0 0 0 0-2m0 60a1 1 0 1 0 0 2 1 1 0 0 0 0-2m0 60a1 1 0 1 0 0 2 1 1 0 0 0 0-2m0-420a1 1 0 1 0 0 2 1 1 0 0 0 0-2m0 60a1 1 0 1 0 0 2 1 1 0 0 0 0-2m0 60a1 1 0 1 0 0 2 1 1 0 0 0 0-2m0 60a1 1 0 1 0 0 2 1 1 0 0 0 0-2m-50 330a1 1 0 1 0 0 2 1 1 0 0 0 0-2m0 60a1 1 0 1 0 0 2 1 1 0 0 0 0-2m0 60a1 1 0 1 0 0 2 1 1 0 0 0 0-2m0 60a1 1 0 1 0 0 2 1 1 0 0 0 0-2m0-420a1 1 0 1 0 0 2 1 1 0 0 0 0-2m0 60a1 1 0 1 0 0 2 1 1 0 0 0 0-2m0 60a1 1 0 1 0 0 2 1 1 0 0 0 0-2m0 60a1 1 0 1 0 0 2 1 1 0 0 0 0-2m0-420a1 1 0 1 0 0 2 1 1 0 0 0 0-2m0 60a1 1 0 1 0 0 2 1 1 0 0 0 0-2m0 60a1 1 0 1 0 0 2 1 1 0 0 0 0-2m0 60a1 1 0 1 0 0 2 1 1 0 0 0 0-2m-50 270a1 1 0 1 0 0 2 1 1 0 0 0 0-2m0 60a1 1 0 1 0 0 2 1 1 0 0 0 0-2m0 60a1 1 0 1 0 0 2 1 1 0 0 0 0-2m0 60a1 1 0 1 0 0 2 1 1 0 0 0 0-2m0-420a1 1 0 1 0 0 2 1 1 0 0 0 0-2m0 60a1 1 0 1 0 0 2 1 1 0 0 0 0-2m0 60a1 1 0 1 0 0 2 1 1 0 0 0 0-2m0 60a1 1 0 1 0 0 2 1 1 0 0 0 0-2m0-420a1 1 0 1 0 0 2 1 1 0 0 0 0-2m0 60a1 1 0 1 0 0 2 1 1 0 0 0 0-2m0 60a1 1 0 1 0 0 2 1 1 0 0 0 0-2m0 60a1 1 0 1 0 0 2 1 1 0 0 0 0-2m-350 330a1 1 0 1 0 0 2 1 1 0 0 0 0-2m0 60a1 1 0 1 0 0 2 1 1 0 0 0 0-2m0 60a1 1 0 1 0 0 2 1 1 0 0 0 0-2m0 60a1 1 0 1 0 0 2 1 1 0 0 0 0-2m0-420a1 1 0 1 0 0 2 1 1 0 0 0 0-2m0 60a1 1 0 1 0 0 2 1 1 0 0 0 0-2m0 60a1 1 0 1 0 0 2 1 1 0 0 0 0-2m0 60a1 1 0 1 0 0 2 1 1 0 0 0 0-2m0-420a1 1 0 1 0 0 2 1 1 0 0 0 0-2m0 60a1 1 0 1 0 0 2 1 1 0 0 0 0-2m0 60a1 1 0 1 0 0 2 1 1 0 0 0 0-2m0 60a1 1 0 1 0 0 2 1 1 0 0 0 0-2m-50 270a1 1 0 1 0 0 2 1 1 0 0 0 0-2m0 60a1 1 0 1 0 0 2 1 1 0 0 0 0-2m0 60a1 1 0 1 0 0 2 1 1 0 0 0 0-2m0 60a1 1 0 1 0 0 2 1 1 0 0 0 0-2m0-420a1 1 0 1 0 0 2 1 1 0 0 0 0-2m0 60a1 1 0 1 0 0 2 1 1 0 0 0 0-2m0 60a1 1 0 1 0 0 2 1 1 0 0 0 0-2m0 60a1 1 0 1 0 0 2 1 1 0 0 0 0-2m0-420a1 1 0 1 0 0 2 1 1 0 0 0 0-2m0 60a1 1 0 1 0 0 2 1 1 0 0 0 0-2m0 60a1 1 0 1 0 0 2 1 1 0 0 0 0-2m0 60a1 1 0 1 0 0 2 1 1 0 0 0 0-2m-50 330a1 1 0 1 0 0 2 1 1 0 0 0 0-2m0 60a1 1 0 1 0 0 2 1 1 0 0 0 0-2m0 60a1 1 0 1 0 0 2 1 1 0 0 0 0-2m0 60a1 1 0 1 0 0 2 1 1 0 0 0 0-2m0-420a1 1 0 1 0 0 2 1 1 0 0 0 0-2m0 60a1 1 0 1 0 0 2 1 1 0 0 0 0-2m0 60a1 1 0 1 0 0 2 1 1 0 0 0 0-2m0 60a1 1 0 1 0 0 2 1 1 0 0 0 0-2m0-420a1 1 0 1 0 0 2 1 1 0 0 0 0-2m0 60a1 1 0 1 0 0 2 1 1 0 0 0 0-2m0 60a1 1 0 1 0 0 2 1 1 0 0 0 0-2m0 60a1 1 0 1 0 0 2 1 1 0 0 0 0-2m-50 270a1 1 0 1 0 0 2 1 1 0 0 0 0-2m0 60a1 1 0 1 0 0 2 1 1 0 0 0 0-2m0 60a1 1 0 1 0 0 2 1 1 0 0 0 0-2m0 60a1 1 0 1 0 0 2 1 1 0 0 0 0-2m0-420a1 1 0 1 0 0 2 1 1 0 0 0 0-2m0 60a1 1 0 1 0 0 2 1 1 0 0 0 0-2m0 60a1 1 0 1 0 0 2 1 1 0 0 0 0-2m0 60a1 1 0 1 0 0 2 1 1 0 0 0 0-2m0-420a1 1 0 1 0 0 2 1 1 0 0 0 0-2m0 60a1 1 0 1 0 0 2 1 1 0 0 0 0-2m0 60a1 1 0 1 0 0 2 1 1 0 0 0 0-2m0 60a1 1 0 1 0 0 2 1 1 0 0 0 0-2m-50 330a1 1 0 1 0 0 2 1 1 0 0 0 0-2m0 60a1 1 0 1 0 0 2 1 1 0 0 0 0-2m0 60a1 1 0 1 0 0 2 1 1 0 0 0 0-2m0 60a1 1 0 1 0 0 2 1 1 0 0 0 0-2m0-420a1 1 0 1 0 0 2 1 1 0 0 0 0-2m0 60a1 1 0 1 0 0 2 1 1 0 0 0 0-2m0 60a1 1 0 1 0 0 2 1 1 0 0 0 0-2m0 60a1 1 0 1 0 0 2 1 1 0 0 0 0-2m0-420a1 1 0 1 0 0 2 1 1 0 0 0 0-2m0 60a1 1 0 1 0 0 2 1 1 0 0 0 0-2m0 60a1 1 0 1 0 0 2 1 1 0 0 0 0-2m0 60a1 1 0 1 0 0 2 1 1 0 0 0 0-2m-50 270a1 1 0 1 0 0 2 1 1 0 0 0 0-2m0 60a1 1 0 1 0 0 2 1 1 0 0 0 0-2m0 60a1 1 0 1 0 0 2 1 1 0 0 0 0-2m0 60a1 1 0 1 0 0 2 1 1 0 0 0 0-2m0-420a1 1 0 1 0 0 2 1 1 0 0 0 0-2m0 60a1 1 0 1 0 0 2 1 1 0 0 0 0-2m0 60a1 1 0 1 0 0 2 1 1 0 0 0 0-2m0 60a1 1 0 1 0 0 2 1 1 0 0 0 0-2m0-420a1 1 0 1 0 0 2 1 1 0 0 0 0-2m0 60a1 1 0 1 0 0 2 1 1 0 0 0 0-2m0 60a1 1 0 1 0 0 2 1 1 0 0 0 0-2m0 60a1 1 0 1 0 0 2 1 1 0 0 0 0-2m550 330a1 1 0 1 0 0 2 1 1 0 0 0 0-2m0 60a1 1 0 1 0 0 2 1 1 0 0 0 0-2m0 60a1 1 0 1 0 0 2 1 1 0 0 0 0-2m0 60a1 1 0 1 0 0 2 1 1 0 0 0 0-2m0-420a1 1 0 1 0 0 2 1 1 0 0 0 0-2m0 60a1 1 0 1 0 0 2 1 1 0 0 0 0-2m0 60a1 1 0 1 0 0 2 1 1 0 0 0 0-2m0 60a1 1 0 1 0 0 2 1 1 0 0 0 0-2m0-420a1 1 0 1 0 0 2 1 1 0 0 0 0-2m0 60a1 1 0 1 0 0 2 1 1 0 0 0 0-2m0 60a1 1 0 1 0 0 2 1 1 0 0 0 0-2m0 60a1 1 0 1 0 0 2 1 1 0 0 0 0-2m-50 270a1 1 0 1 0 0 2 1 1 0 0 0 0-2m0 60a1 1 0 1 0 0 2 1 1 0 0 0 0-2m0 60a1 1 0 1 0 0 2 1 1 0 0 0 0-2m0 60a1 1 0 1 0 0 2 1 1 0 0 0 0-2m0-420a1 1 0 1 0 0 2 1 1 0 0 0 0-2m0 60a1 1 0 1 0 0 2 1 1 0 0 0 0-2m0 60a1 1 0 1 0 0 2 1 1 0 0 0 0-2m0 60a1 1 0 1 0 0 2 1 1 0 0 0 0-2m0-420a1 1 0 1 0 0 2 1 1 0 0 0 0-2m0 60a1 1 0 1 0 0 2 1 1 0 0 0 0-2m0 60a1 1 0 1 0 0 2 1 1 0 0 0 0-2m0 60a1 1 0 1 0 0 2 1 1 0 0 0 0-2m-50 330a1 1 0 1 0 0 2 1 1 0 0 0 0-2m0 60a1 1 0 1 0 0 2 1 1 0 0 0 0-2m0 60a1 1 0 1 0 0 2 1 1 0 0 0 0-2m0 60a1 1 0 1 0 0 2 1 1 0 0 0 0-2m0-420a1 1 0 1 0 0 2 1 1 0 0 0 0-2m0 60a1 1 0 1 0 0 2 1 1 0 0 0 0-2m0 60a1 1 0 1 0 0 2 1 1 0 0 0 0-2m0 60a1 1 0 1 0 0 2 1 1 0 0 0 0-2m0-420a1 1 0 1 0 0 2 1 1 0 0 0 0-2m0 60a1 1 0 1 0 0 2 1 1 0 0 0 0-2m0 60a1 1 0 1 0 0 2 1 1 0 0 0 0-2m0 60a1 1 0 1 0 0 2 1 1 0 0 0 0-2m-50 270a1 1 0 1 0 0 2 1 1 0 0 0 0-2m0 60a1 1 0 1 0 0 2 1 1 0 0 0 0-2m0 60a1 1 0 1 0 0 2 1 1 0 0 0 0-2m0 60a1 1 0 1 0 0 2 1 1 0 0 0 0-2m0-420a1 1 0 1 0 0 2 1 1 0 0 0 0-2m0 60a1 1 0 1 0 0 2 1 1 0 0 0 0-2m0 60a1 1 0 1 0 0 2 1 1 0 0 0 0-2m0 60a1 1 0 1 0 0 2 1 1 0 0 0 0-2m0-420a1 1 0 1 0 0 2 1 1 0 0 0 0-2m0 60a1 1 0 1 0 0 2 1 1 0 0 0 0-2m0 60a1 1 0 1 0 0 2 1 1 0 0 0 0-2m0 60a1 1 0 1 0 0 2 1 1 0 0 0 0-2m-50 330a1 1 0 1 0 0 2 1 1 0 0 0 0-2m0 60a1 1 0 1 0 0 2 1 1 0 0 0 0-2m0 60a1 1 0 1 0 0 2 1 1 0 0 0 0-2m0 60a1 1 0 1 0 0 2 1 1 0 0 0 0-2m0-420a1 1 0 1 0 0 2 1 1 0 0 0 0-2m0 60a1 1 0 1 0 0 2 1 1 0 0 0 0-2m0 60a1 1 0 1 0 0 2 1 1 0 0 0 0-2m0 60a1 1 0 1 0 0 2 1 1 0 0 0 0-2m0-420a1 1 0 1 0 0 2 1 1 0 0 0 0-2m0 60a1 1 0 1 0 0 2 1 1 0 0 0 0-2m0 60a1 1 0 1 0 0 2 1 1 0 0 0 0-2m0 60a1 1 0 1 0 0 2 1 1 0 0 0 0-2m-50 270a1 1 0 1 0 0 2 1 1 0 0 0 0-2m0 60a1 1 0 1 0 0 2 1 1 0 0 0 0-2m0 60a1 1 0 1 0 0 2 1 1 0 0 0 0-2m0 60a1 1 0 1 0 0 2 1 1 0 0 0 0-2m0-420a1 1 0 1 0 0 2 1 1 0 0 0 0-2m0 60a1 1 0 1 0 0 2 1 1 0 0 0 0-2m0 60a1 1 0 1 0 0 2 1 1 0 0 0 0-2m0 60a1 1 0 1 0 0 2 1 1 0 0 0 0-2m0-420a1 1 0 1 0 0 2 1 1 0 0 0 0-2m0 60a1 1 0 1 0 0 2 1 1 0 0 0 0-2m0 60a1 1 0 1 0 0 2 1 1 0 0 0 0-2m0 60a1 1 0 1 0 0 2 1 1 0 0 0 0-2m950 330a1 1 0 1 0 0 2 1 1 0 0 0 0-2m0 60a1 1 0 1 0 0 2 1 1 0 0 0 0-2m0 60a1 1 0 1 0 0 2 1 1 0 0 0 0-2m0 60a1 1 0 1 0 0 2 1 1 0 0 0 0-2m0-420a1 1 0 1 0 0 2 1 1 0 0 0 0-2m0 60a1 1 0 1 0 0 2 1 1 0 0 0 0-2m0 60a1 1 0 1 0 0 2 1 1 0 0 0 0-2m0 60a1 1 0 1 0 0 2 1 1 0 0 0 0-2m0-420a1 1 0 1 0 0 2 1 1 0 0 0 0-2m0 60a1 1 0 1 0 0 2 1 1 0 0 0 0-2m0 60a1 1 0 1 0 0 2 1 1 0 0 0 0-2m0 60a1 1 0 1 0 0 2 1 1 0 0 0 0-2m-50 270a1 1 0 1 0 0 2 1 1 0 0 0 0-2m0 60a1 1 0 1 0 0 2 1 1 0 0 0 0-2m0 60a1 1 0 1 0 0 2 1 1 0 0 0 0-2m0 60a1 1 0 1 0 0 2 1 1 0 0 0 0-2m0-420a1 1 0 1 0 0 2 1 1 0 0 0 0-2m0 60a1 1 0 1 0 0 2 1 1 0 0 0 0-2m0 60a1 1 0 1 0 0 2 1 1 0 0 0 0-2m0 60a1 1 0 1 0 0 2 1 1 0 0 0 0-2m0-420a1 1 0 1 0 0 2 1 1 0 0 0 0-2m0 60a1 1 0 1 0 0 2 1 1 0 0 0 0-2m0 60a1 1 0 1 0 0 2 1 1 0 0 0 0-2m0 60a1 1 0 1 0 0 2 1 1 0 0 0 0-2m-50 330a1 1 0 1 0 0 2 1 1 0 0 0 0-2m0 60a1 1 0 1 0 0 2 1 1 0 0 0 0-2m0 60a1 1 0 1 0 0 2 1 1 0 0 0 0-2m0 60a1 1 0 1 0 0 2 1 1 0 0 0 0-2m0-420a1 1 0 1 0 0 2 1 1 0 0 0 0-2m0 60a1 1 0 1 0 0 2 1 1 0 0 0 0-2m0 60a1 1 0 1 0 0 2 1 1 0 0 0 0-2m0 60a1 1 0 1 0 0 2 1 1 0 0 0 0-2m0-420a1 1 0 1 0 0 2 1 1 0 0 0 0-2m0 60a1 1 0 1 0 0 2 1 1 0 0 0 0-2m0 60a1 1 0 1 0 0 2 1 1 0 0 0 0-2m0 60a1 1 0 1 0 0 2 1 1 0 0 0 0-2m-50 270a1 1 0 1 0 0 2 1 1 0 0 0 0-2m0 60a1 1 0 1 0 0 2 1 1 0 0 0 0-2m0 60a1 1 0 1 0 0 2 1 1 0 0 0 0-2m0 60a1 1 0 1 0 0 2 1 1 0 0 0 0-2m0-420a1 1 0 1 0 0 2 1 1 0 0 0 0-2m0 60a1 1 0 1 0 0 2 1 1 0 0 0 0-2m0 60a1 1 0 1 0 0 2 1 1 0 0 0 0-2m0 60a1 1 0 1 0 0 2 1 1 0 0 0 0-2m0-420a1 1 0 1 0 0 2 1 1 0 0 0 0-2m0 60a1 1 0 1 0 0 2 1 1 0 0 0 0-2m0 60a1 1 0 1 0 0 2 1 1 0 0 0 0-2m0 60a1 1 0 1 0 0 2 1 1 0 0 0 0-2m-50 330a1 1 0 1 0 0 2 1 1 0 0 0 0-2m0 60a1 1 0 1 0 0 2 1 1 0 0 0 0-2m0 60a1 1 0 1 0 0 2 1 1 0 0 0 0-2m0 60a1 1 0 1 0 0 2 1 1 0 0 0 0-2m0-420a1 1 0 1 0 0 2 1 1 0 0 0 0-2m0 60a1 1 0 1 0 0 2 1 1 0 0 0 0-2m0 60a1 1 0 1 0 0 2 1 1 0 0 0 0-2m0 60a1 1 0 1 0 0 2 1 1 0 0 0 0-2m0-420a1 1 0 1 0 0 2 1 1 0 0 0 0-2m0 60a1 1 0 1 0 0 2 1 1 0 0 0 0-2m0 60a1 1 0 1 0 0 2 1 1 0 0 0 0-2m0 60a1 1 0 1 0 0 2 1 1 0 0 0 0-2m-50 270a1 1 0 1 0 0 2 1 1 0 0 0 0-2m0 60a1 1 0 1 0 0 2 1 1 0 0 0 0-2m0 60a1 1 0 1 0 0 2 1 1 0 0 0 0-2m0 60a1 1 0 1 0 0 2 1 1 0 0 0 0-2m0-420a1 1 0 1 0 0 2 1 1 0 0 0 0-2m0 60a1 1 0 1 0 0 2 1 1 0 0 0 0-2m0 60a1 1 0 1 0 0 2 1 1 0 0 0 0-2m0 60a1 1 0 1 0 0 2 1 1 0 0 0 0-2m0-420a1 1 0 1 0 0 2 1 1 0 0 0 0-2m0 60a1 1 0 1 0 0 2 1 1 0 0 0 0-2m0 60a1 1 0 1 0 0 2 1 1 0 0 0 0-2m0 60a1 1 0 1 0 0 2 1 1 0 0 0 0-2m-50 330a1 1 0 1 0 0 2 1 1 0 0 0 0-2m0 60a1 1 0 1 0 0 2 1 1 0 0 0 0-2m0 60a1 1 0 1 0 0 2 1 1 0 0 0 0-2m0 60a1 1 0 1 0 0 2 1 1 0 0 0 0-2m0-420a1 1 0 1 0 0 2 1 1 0 0 0 0-2m0 60a1 1 0 1 0 0 2 1 1 0 0 0 0-2m0 60a1 1 0 1 0 0 2 1 1 0 0 0 0-2m0 60a1 1 0 1 0 0 2 1 1 0 0 0 0-2m0-420a1 1 0 1 0 0 2 1 1 0 0 0 0-2m0 60a1 1 0 1 0 0 2 1 1 0 0 0 0-2m0 60a1 1 0 1 0 0 2 1 1 0 0 0 0-2m0 60a1 1 0 1 0 0 2 1 1 0 0 0 0-2m-50 270a1 1 0 1 0 0 2 1 1 0 0 0 0-2m0 60a1 1 0 1 0 0 2 1 1 0 0 0 0-2m0 60a1 1 0 1 0 0 2 1 1 0 0 0 0-2m0 60a1 1 0 1 0 0 2 1 1 0 0 0 0-2m0-420a1 1 0 1 0 0 2 1 1 0 0 0 0-2m0 60a1 1 0 1 0 0 2 1 1 0 0 0 0-2m0 60a1 1 0 1 0 0 2 1 1 0 0 0 0-2m0 60a1 1 0 1 0 0 2 1 1 0 0 0 0-2m0-420a1 1 0 1 0 0 2 1 1 0 0 0 0-2m0 60a1 1 0 1 0 0 2 1 1 0 0 0 0-2m0 60a1 1 0 1 0 0 2 1 1 0 0 0 0-2m0 60a1 1 0 1 0 0 2 1 1 0 0 0 0-2m-50 330a1 1 0 1 0 0 2 1 1 0 0 0 0-2m0 60a1 1 0 1 0 0 2 1 1 0 0 0 0-2m0 60a1 1 0 1 0 0 2 1 1 0 0 0 0-2m0 60a1 1 0 1 0 0 2 1 1 0 0 0 0-2m0-420a1 1 0 1 0 0 2 1 1 0 0 0 0-2m0 60a1 1 0 1 0 0 2 1 1 0 0 0 0-2m0 60a1 1 0 1 0 0 2 1 1 0 0 0 0-2m0 60a1 1 0 1 0 0 2 1 1 0 0 0 0-2m0-420a1 1 0 1 0 0 2 1 1 0 0 0 0-2m0 60a1 1 0 1 0 0 2 1 1 0 0 0 0-2m0 60a1 1 0 1 0 0 2 1 1 0 0 0 0-2m0 60a1 1 0 1 0 0 2 1 1 0 0 0 0-2m-50 270a1 1 0 1 0 0 2 1 1 0 0 0 0-2m0 60a1 1 0 1 0 0 2 1 1 0 0 0 0-2m0 60a1 1 0 1 0 0 2 1 1 0 0 0 0-2m0 60a1 1 0 1 0 0 2 1 1 0 0 0 0-2m0-420a1 1 0 1 0 0 2 1 1 0 0 0 0-2m0 60a1 1 0 1 0 0 2 1 1 0 0 0 0-2m0 60a1 1 0 1 0 0 2 1 1 0 0 0 0-2m0 60a1 1 0 1 0 0 2 1 1 0 0 0 0-2m0-420a1 1 0 1 0 0 2 1 1 0 0 0 0-2m0 60a1 1 0 1 0 0 2 1 1 0 0 0 0-2m0 60a1 1 0 1 0 0 2 1 1 0 0 0 0-2m1 61a1 1 0 1 1-2 0 1 1 0 0 1 2 0"/>
            <path d="M3201 1200a1 1 0 1 0 0 2 1 1 0 0 0 0-2m0 60a1 1 0 1 0 0 2 1 1 0 0 0 0-2m0 60a1 1 0 1 0 0 2 1 1 0 0 0 0-2m0 60a1 1 0 1 0 0 2 1 1 0 0 0 0-2m0-420a1 1 0 1 0 0 2 1 1 0 0 0 0-2m0 60a1 1 0 1 0 0 2 1 1 0 0 0 0-2m0 60a1 1 0 1 0 0 2 1 1 0 0 0 0-2m0 60a1 1 0 1 0 0 2 1 1 0 0 0 0-2m0-420a1 1 0 1 0 0 2 1 1 0 0 0 0-2m0 60a1 1 0 1 0 0 2 1 1 0 0 0 0-2m0 60a1 1 0 1 0 0 2 1 1 0 0 0 0-2m0 60a1 1 0 1 0 0 2 1 1 0 0 0 0-2m-50 270a1 1 0 1 0 0 2 1 1 0 0 0 0-2m0 60a1 1 0 1 0 0 2 1 1 0 0 0 0-2m0 60a1 1 0 1 0 0 2 1 1 0 0 0 0-2m0 60a1 1 0 1 0 0 2 1 1 0 0 0 0-2m0-420a1 1 0 1 0 0 2 1 1 0 0 0 0-2m0 60a1 1 0 1 0 0 2 1 1 0 0 0 0-2m0 60a1 1 0 1 0 0 2 1 1 0 0 0 0-2m0 60a1 1 0 1 0 0 2 1 1 0 0 0 0-2m0-420a1 1 0 1 0 0 2 1 1 0 0 0 0-2m0 60a1 1 0 1 0 0 2 1 1 0 0 0 0-2m0 60a1 1 0 1 0 0 2 1 1 0 0 0 0-2m0 60a1 1 0 1 0 0 2 1 1 0 0 0 0-2m-50 330a1 1 0 1 0 0 2 1 1 0 0 0 0-2m0 60a1 1 0 1 0 0 2 1 1 0 0 0 0-2m0 60a1 1 0 1 0 0 2 1 1 0 0 0 0-2m0 60a1 1 0 1 0 0 2 1 1 0 0 0 0-2m0-420a1 1 0 1 0 0 2 1 1 0 0 0 0-2m0 60a1 1 0 1 0 0 2 1 1 0 0 0 0-2m0 60a1 1 0 1 0 0 2 1 1 0 0 0 0-2m0 60a1 1 0 1 0 0 2 1 1 0 0 0 0-2m0-420a1 1 0 1 0 0 2 1 1 0 0 0 0-2m0 60a1 1 0 1 0 0 2 1 1 0 0 0 0-2m0 60a1 1 0 1 0 0 2 1 1 0 0 0 0-2m0 60a1 1 0 1 0 0 2 1 1 0 0 0 0-2m-50 270a1 1 0 1 0 0 2 1 1 0 0 0 0-2m0 60a1 1 0 1 0 0 2 1 1 0 0 0 0-2m0 60a1 1 0 1 0 0 2 1 1 0 0 0 0-2m0 60a1 1 0 1 0 0 2 1 1 0 0 0 0-2m0-420a1 1 0 1 0 0 2 1 1 0 0 0 0-2m0 60a1 1 0 1 0 0 2 1 1 0 0 0 0-2m0 60a1 1 0 1 0 0 2 1 1 0 0 0 0-2m0 60a1 1 0 1 0 0 2 1 1 0 0 0 0-2m0-420a1 1 0 1 0 0 2 1 1 0 0 0 0-2m0 60a1 1 0 1 0 0 2 1 1 0 0 0 0-2m0 60a1 1 0 1 0 0 2 1 1 0 0 0 0-2m0 60a1 1 0 1 0 0 2 1 1 0 0 0 0-2m-50 330a1 1 0 1 0 0 2 1 1 0 0 0 0-2m0 60a1 1 0 1 0 0 2 1 1 0 0 0 0-2m0 60a1 1 0 1 0 0 2 1 1 0 0 0 0-2m0 60a1 1 0 1 0 0 2 1 1 0 0 0 0-2m0-420a1 1 0 1 0 0 2 1 1 0 0 0 0-2m0 60a1 1 0 1 0 0 2 1 1 0 0 0 0-2m0 60a1 1 0 1 0 0 2 1 1 0 0 0 0-2m0 60a1 1 0 1 0 0 2 1 1 0 0 0 0-2m0-420a1 1 0 1 0 0 2 1 1 0 0 0 0-2m0 60a1 1 0 1 0 0 2 1 1 0 0 0 0-2m0 60a1 1 0 1 0 0 2 1 1 0 0 0 0-2m0 60a1 1 0 1 0 0 2 1 1 0 0 0 0-2m-50 270a1 1 0 1 0 0 2 1 1 0 0 0 0-2m0 60a1 1 0 1 0 0 2 1 1 0 0 0 0-2m0 60a1 1 0 1 0 0 2 1 1 0 0 0 0-2m0 60a1 1 0 1 0 0 2 1 1 0 0 0 0-2m0-420a1 1 0 1 0 0 2 1 1 0 0 0 0-2m0 60a1 1 0 1 0 0 2 1 1 0 0 0 0-2m0 60a1 1 0 1 0 0 2 1 1 0 0 0 0-2m0 60a1 1 0 1 0 0 2 1 1 0 0 0 0-2m0-420a1 1 0 1 0 0 2 1 1 0 0 0 0-2m0 60a1 1 0 1 0 0 2 1 1 0 0 0 0-2m0 60a1 1 0 1 0 0 2 1 1 0 0 0 0-2m0 60a1 1 0 1 0 0 2 1 1 0 0 0 0-2m-550 330a1 1 0 1 0 0 2 1 1 0 0 0 0-2m0 60a1 1 0 1 0 0 2 1 1 0 0 0 0-2m0 60a1 1 0 1 0 0 2 1 1 0 0 0 0-2m0 60a1 1 0 1 0 0 2 1 1 0 0 0 0-2m0-420a1 1 0 1 0 0 2 1 1 0 0 0 0-2m0 60a1 1 0 1 0 0 2 1 1 0 0 0 0-2m0 60a1 1 0 1 0 0 2 1 1 0 0 0 0-2m0 60a1 1 0 1 0 0 2 1 1 0 0 0 0-2m0-420a1 1 0 1 0 0 2 1 1 0 0 0 0-2m0 60a1 1 0 1 0 0 2 1 1 0 0 0 0-2m0 60a1 1 0 1 0 0 2 1 1 0 0 0 0-2m0 60a1 1 0 1 0 0 2 1 1 0 0 0 0-2m-50 270a1 1 0 1 0 0 2 1 1 0 0 0 0-2m0 60a1 1 0 1 0 0 2 1 1 0 0 0 0-2m0 60a1 1 0 1 0 0 2 1 1 0 0 0 0-2m0 60a1 1 0 1 0 0 2 1 1 0 0 0 0-2m0-420a1 1 0 1 0 0 2 1 1 0 0 0 0-2m0 60a1 1 0 1 0 0 2 1 1 0 0 0 0-2m0 60a1 1 0 1 0 0 2 1 1 0 0 0 0-2m0 60a1 1 0 1 0 0 2 1 1 0 0 0 0-2m0-420a1 1 0 1 0 0 2 1 1 0 0 0 0-2m0 60a1 1 0 1 0 0 2 1 1 0 0 0 0-2m0 60a1 1 0 1 0 0 2 1 1 0 0 0 0-2m0 60a1 1 0 1 0 0 2 1 1 0 0 0 0-2m-50 330a1 1 0 1 0 0 2 1 1 0 0 0 0-2m0 60a1 1 0 1 0 0 2 1 1 0 0 0 0-2m0 60a1 1 0 1 0 0 2 1 1 0 0 0 0-2m0 60a1 1 0 1 0 0 2 1 1 0 0 0 0-2m0-420a1 1 0 1 0 0 2 1 1 0 0 0 0-2m0 60a1 1 0 1 0 0 2 1 1 0 0 0 0-2m0 60a1 1 0 1 0 0 2 1 1 0 0 0 0-2m0 60a1 1 0 1 0 0 2 1 1 0 0 0 0-2m0-420a1 1 0 1 0 0 2 1 1 0 0 0 0-2m0 60a1 1 0 1 0 0 2 1 1 0 0 0 0-2m0 60a1 1 0 1 0 0 2 1 1 0 0 0 0-2m0 60a1 1 0 1 0 0 2 1 1 0 0 0 0-2m-50 270a1 1 0 1 0 0 2 1 1 0 0 0 0-2m0 60a1 1 0 1 0 0 2 1 1 0 0 0 0-2m0 60a1 1 0 1 0 0 2 1 1 0 0 0 0-2m0 60a1 1 0 1 0 0 2 1 1 0 0 0 0-2m0-420a1 1 0 1 0 0 2 1 1 0 0 0 0-2m0 60a1 1 0 1 0 0 2 1 1 0 0 0 0-2m0 60a1 1 0 1 0 0 2 1 1 0 0 0 0-2m0 60a1 1 0 1 0 0 2 1 1 0 0 0 0-2m0-420a1 1 0 1 0 0 2 1 1 0 0 0 0-2m0 60a1 1 0 1 0 0 2 1 1 0 0 0 0-2m0 60a1 1 0 1 0 0 2 1 1 0 0 0 0-2m0 60a1 1 0 1 0 0 2 1 1 0 0 0 0-2m-350 330a1 1 0 1 0 0 2 1 1 0 0 0 0-2m0 60a1 1 0 1 0 0 2 1 1 0 0 0 0-2m0 60a1 1 0 1 0 0 2 1 1 0 0 0 0-2m0 60a1 1 0 1 0 0 2 1 1 0 0 0 0-2m0-420a1 1 0 1 0 0 2 1 1 0 0 0 0-2m0 60a1 1 0 1 0 0 2 1 1 0 0 0 0-2m0 60a1 1 0 1 0 0 2 1 1 0 0 0 0-2m0 60a1 1 0 1 0 0 2 1 1 0 0 0 0-2m0-420a1 1 0 1 0 0 2 1 1 0 0 0 0-2m0 60a1 1 0 1 0 0 2 1 1 0 0 0 0-2m0 60a1 1 0 1 0 0 2 1 1 0 0 0 0-2m0 60a1 1 0 1 0 0 2 1 1 0 0 0 0-2m-50 270a1 1 0 1 0 0 2 1 1 0 0 0 0-2m0 60a1 1 0 1 0 0 2 1 1 0 0 0 0-2m0 60a1 1 0 1 0 0 2 1 1 0 0 0 0-2m0 60a1 1 0 1 0 0 2 1 1 0 0 0 0-2m0-420a1 1 0 1 0 0 2 1 1 0 0 0 0-2m0 60a1 1 0 1 0 0 2 1 1 0 0 0 0-2m0 60a1 1 0 1 0 0 2 1 1 0 0 0 0-2m0 60a1 1 0 1 0 0 2 1 1 0 0 0 0-2m0-420a1 1 0 1 0 0 2 1 1 0 0 0 0-2m0 60a1 1 0 1 0 0 2 1 1 0 0 0 0-2m0 60a1 1 0 1 0 0 2 1 1 0 0 0 0-2m0 60a1 1 0 1 0 0 2 1 1 0 0 0 0-2m-50 330a1 1 0 1 0 0 2 1 1 0 0 0 0-2m0 60a1 1 0 1 0 0 2 1 1 0 0 0 0-2m0 60a1 1 0 1 0 0 2 1 1 0 0 0 0-2m0 60a1 1 0 1 0 0 2 1 1 0 0 0 0-2m0-420a1 1 0 1 0 0 2 1 1 0 0 0 0-2m0 60a1 1 0 1 0 0 2 1 1 0 0 0 0-2m0 60a1 1 0 1 0 0 2 1 1 0 0 0 0-2m0 60a1 1 0 1 0 0 2 1 1 0 0 0 0-2m0-420a1 1 0 1 0 0 2 1 1 0 0 0 0-2m0 60a1 1 0 1 0 0 2 1 1 0 0 0 0-2m0 60a1 1 0 1 0 0 2 1 1 0 0 0 0-2m0 60a1 1 0 1 0 0 2 1 1 0 0 0 0-2m-50 270a1 1 0 1 0 0 2 1 1 0 0 0 0-2m0 60a1 1 0 1 0 0 2 1 1 0 0 0 0-2m0 60a1 1 0 1 0 0 2 1 1 0 0 0 0-2m0 60a1 1 0 1 0 0 2 1 1 0 0 0 0-2m0-420a1 1 0 1 0 0 2 1 1 0 0 0 0-2m0 60a1 1 0 1 0 0 2 1 1 0 0 0 0-2m0 60a1 1 0 1 0 0 2 1 1 0 0 0 0-2m0 60a1 1 0 1 0 0 2 1 1 0 0 0 0-2m0-420a1 1 0 1 0 0 2 1 1 0 0 0 0-2m0 60a1 1 0 1 0 0 2 1 1 0 0 0 0-2m0 60a1 1 0 1 0 0 2 1 1 0 0 0 0-2m0 60a1 1 0 1 0 0 2 1 1 0 0 0 0-2m-50 330a1 1 0 1 0 0 2 1 1 0 0 0 0-2m0 60a1 1 0 1 0 0 2 1 1 0 0 0 0-2m0 60a1 1 0 1 0 0 2 1 1 0 0 0 0-2m0 60a1 1 0 1 0 0 2 1 1 0 0 0 0-2m0-420a1 1 0 1 0 0 2 1 1 0 0 0 0-2m0 60a1 1 0 1 0 0 2 1 1 0 0 0 0-2m0 60a1 1 0 1 0 0 2 1 1 0 0 0 0-2m0 60a1 1 0 1 0 0 2 1 1 0 0 0 0-2m0-420a1 1 0 1 0 0 2 1 1 0 0 0 0-2m0 60a1 1 0 1 0 0 2 1 1 0 0 0 0-2m0 60a1 1 0 1 0 0 2 1 1 0 0 0 0-2m0 60a1 1 0 1 0 0 2 1 1 0 0 0 0-2m-50 270a1 1 0 1 0 0 2 1 1 0 0 0 0-2m0 60a1 1 0 1 0 0 2 1 1 0 0 0 0-2m0 60a1 1 0 1 0 0 2 1 1 0 0 0 0-2m0 60a1 1 0 1 0 0 2 1 1 0 0 0 0-2m0-420a1 1 0 1 0 0 2 1 1 0 0 0 0-2m0 60a1 1 0 1 0 0 2 1 1 0 0 0 0-2m0 60a1 1 0 1 0 0 2 1 1 0 0 0 0-2m0 60a1 1 0 1 0 0 2 1 1 0 0 0 0-2m0-420a1 1 0 1 0 0 2 1 1 0 0 0 0-2m0 60a1 1 0 1 0 0 2 1 1 0 0 0 0-2m0 60a1 1 0 1 0 0 2 1 1 0 0 0 0-2m0 60a1 1 0 1 0 0 2 1 1 0 0 0 0-2m550 330a1 1 0 1 0 0 2 1 1 0 0 0 0-2m0 60a1 1 0 1 0 0 2 1 1 0 0 0 0-2m0 60a1 1 0 1 0 0 2 1 1 0 0 0 0-2m0 60a1 1 0 1 0 0 2 1 1 0 0 0 0-2m0-420a1 1 0 1 0 0 2 1 1 0 0 0 0-2m0 60a1 1 0 1 0 0 2 1 1 0 0 0 0-2m0 60a1 1 0 1 0 0 2 1 1 0 0 0 0-2m0 60a1 1 0 1 0 0 2 1 1 0 0 0 0-2m0-420a1 1 0 1 0 0 2 1 1 0 0 0 0-2m0 60a1 1 0 1 0 0 2 1 1 0 0 0 0-2m0 60a1 1 0 1 0 0 2 1 1 0 0 0 0-2m0 60a1 1 0 1 0 0 2 1 1 0 0 0 0-2m-50 270a1 1 0 1 0 0 2 1 1 0 0 0 0-2m0 60a1 1 0 1 0 0 2 1 1 0 0 0 0-2m0 60a1 1 0 1 0 0 2 1 1 0 0 0 0-2m0 60a1 1 0 1 0 0 2 1 1 0 0 0 0-2m0-420a1 1 0 1 0 0 2 1 1 0 0 0 0-2m0 60a1 1 0 1 0 0 2 1 1 0 0 0 0-2m0 60a1 1 0 1 0 0 2 1 1 0 0 0 0-2m0 60a1 1 0 1 0 0 2 1 1 0 0 0 0-2m0-420a1 1 0 1 0 0 2 1 1 0 0 0 0-2m0 60a1 1 0 1 0 0 2 1 1 0 0 0 0-2m0 60a1 1 0 1 0 0 2 1 1 0 0 0 0-2m0 60a1 1 0 1 0 0 2 1 1 0 0 0 0-2m-50 330a1 1 0 1 0 0 2 1 1 0 0 0 0-2m0 60a1 1 0 1 0 0 2 1 1 0 0 0 0-2m0 60a1 1 0 1 0 0 2 1 1 0 0 0 0-2m0 60a1 1 0 1 0 0 2 1 1 0 0 0 0-2m0-420a1 1 0 1 0 0 2 1 1 0 0 0 0-2m0 60a1 1 0 1 0 0 2 1 1 0 0 0 0-2m0 60a1 1 0 1 0 0 2 1 1 0 0 0 0-2m0 60a1 1 0 1 0 0 2 1 1 0 0 0 0-2m0-420a1 1 0 1 0 0 2 1 1 0 0 0 0-2m0 60a1 1 0 1 0 0 2 1 1 0 0 0 0-2m0 60a1 1 0 1 0 0 2 1 1 0 0 0 0-2m0 60a1 1 0 1 0 0 2 1 1 0 0 0 0-2m-50 270a1 1 0 1 0 0 2 1 1 0 0 0 0-2m0 60a1 1 0 1 0 0 2 1 1 0 0 0 0-2m0 60a1 1 0 1 0 0 2 1 1 0 0 0 0-2m0 60a1 1 0 1 0 0 2 1 1 0 0 0 0-2m0-420a1 1 0 1 0 0 2 1 1 0 0 0 0-2m0 60a1 1 0 1 0 0 2 1 1 0 0 0 0-2m0 60a1 1 0 1 0 0 2 1 1 0 0 0 0-2m0 60a1 1 0 1 0 0 2 1 1 0 0 0 0-2m0-420a1 1 0 1 0 0 2 1 1 0 0 0 0-2m0 60a1 1 0 1 0 0 2 1 1 0 0 0 0-2m0 60a1 1 0 1 0 0 2 1 1 0 0 0 0-2m0 60a1 1 0 1 0 0 2 1 1 0 0 0 0-2m-50 330a1 1 0 1 0 0 2 1 1 0 0 0 0-2m0 60a1 1 0 1 0 0 2 1 1 0 0 0 0-2m0 60a1 1 0 1 0 0 2 1 1 0 0 0 0-2m0 60a1 1 0 1 0 0 2 1 1 0 0 0 0-2m0-420a1 1 0 1 0 0 2 1 1 0 0 0 0-2m0 60a1 1 0 1 0 0 2 1 1 0 0 0 0-2m0 60a1 1 0 1 0 0 2 1 1 0 0 0 0-2m0 60a1 1 0 1 0 0 2 1 1 0 0 0 0-2m0-420a1 1 0 1 0 0 2 1 1 0 0 0 0-2m0 60a1 1 0 1 0 0 2 1 1 0 0 0 0-2m0 60a1 1 0 1 0 0 2 1 1 0 0 0 0-2m0 60a1 1 0 1 0 0 2 1 1 0 0 0 0-2m-50 270a1 1 0 1 0 0 2 1 1 0 0 0 0-2m0 60a1 1 0 1 0 0 2 1 1 0 0 0 0-2m0 60a1 1 0 1 0 0 2 1 1 0 0 0 0-2m0 60a1 1 0 1 0 0 2 1 1 0 0 0 0-2m0-420a1 1 0 1 0 0 2 1 1 0 0 0 0-2m0 60a1 1 0 1 0 0 2 1 1 0 0 0 0-2m0 60a1 1 0 1 0 0 2 1 1 0 0 0 0-2m0 60a1 1 0 1 0 0 2 1 1 0 0 0 0-2m0-420a1 1 0 1 0 0 2 1 1 0 0 0 0-2m0 60a1 1 0 1 0 0 2 1 1 0 0 0 0-2m0 60a1 1 0 1 0 0 2 1 1 0 0 0 0-2m0 60a1 1 0 1 0 0 2 1 1 0 0 0 0-2m950 330a1 1 0 1 0 0 2 1 1 0 0 0 0-2m0 60a1 1 0 1 0 0 2 1 1 0 0 0 0-2m0 60a1 1 0 1 0 0 2 1 1 0 0 0 0-2m0 60a1 1 0 1 0 0 2 1 1 0 0 0 0-2m0-420a1 1 0 1 0 0 2 1 1 0 0 0 0-2m0 60a1 1 0 1 0 0 2 1 1 0 0 0 0-2m0 60a1 1 0 1 0 0 2 1 1 0 0 0 0-2m0 60a1 1 0 1 0 0 2 1 1 0 0 0 0-2m0-420a1 1 0 1 0 0 2 1 1 0 0 0 0-2m0 60a1 1 0 1 0 0 2 1 1 0 0 0 0-2m0 60a1 1 0 1 0 0 2 1 1 0 0 0 0-2m0 60a1 1 0 1 0 0 2 1 1 0 0 0 0-2m-50 270a1 1 0 1 0 0 2 1 1 0 0 0 0-2m0 60a1 1 0 1 0 0 2 1 1 0 0 0 0-2m0 60a1 1 0 1 0 0 2 1 1 0 0 0 0-2m0 60a1 1 0 1 0 0 2 1 1 0 0 0 0-2m0-420a1 1 0 1 0 0 2 1 1 0 0 0 0-2m0 60a1 1 0 1 0 0 2 1 1 0 0 0 0-2m0 60a1 1 0 1 0 0 2 1 1 0 0 0 0-2m0 60a1 1 0 1 0 0 2 1 1 0 0 0 0-2m0-420a1 1 0 1 0 0 2 1 1 0 0 0 0-2m0 60a1 1 0 1 0 0 2 1 1 0 0 0 0-2m0 60a1 1 0 1 0 0 2 1 1 0 0 0 0-2m0 60a1 1 0 1 0 0 2 1 1 0 0 0 0-2m-50 330a1 1 0 1 0 0 2 1 1 0 0 0 0-2m0 60a1 1 0 1 0 0 2 1 1 0 0 0 0-2m0 60a1 1 0 1 0 0 2 1 1 0 0 0 0-2m0 60a1 1 0 1 0 0 2 1 1 0 0 0 0-2m0-420a1 1 0 1 0 0 2 1 1 0 0 0 0-2m0 60a1 1 0 1 0 0 2 1 1 0 0 0 0-2m0 60a1 1 0 1 0 0 2 1 1 0 0 0 0-2m0 60a1 1 0 1 0 0 2 1 1 0 0 0 0-2m0-420a1 1 0 1 0 0 2 1 1 0 0 0 0-2m0 60a1 1 0 1 0 0 2 1 1 0 0 0 0-2m0 60a1 1 0 1 0 0 2 1 1 0 0 0 0-2m0 60a1 1 0 1 0 0 2 1 1 0 0 0 0-2m-50 270a1 1 0 1 0 0 2 1 1 0 0 0 0-2m0 60a1 1 0 1 0 0 2 1 1 0 0 0 0-2m0 60a1 1 0 1 0 0 2 1 1 0 0 0 0-2m0 60a1 1 0 1 0 0 2 1 1 0 0 0 0-2m0-420a1 1 0 1 0 0 2 1 1 0 0 0 0-2m0 60a1 1 0 1 0 0 2 1 1 0 0 0 0-2m0 60a1 1 0 1 0 0 2 1 1 0 0 0 0-2m0 60a1 1 0 1 0 0 2 1 1 0 0 0 0-2m0-420a1 1 0 1 0 0 2 1 1 0 0 0 0-2m0 60a1 1 0 1 0 0 2 1 1 0 0 0 0-2m0 60a1 1 0 1 0 0 2 1 1 0 0 0 0-2m0 60a1 1 0 1 0 0 2 1 1 0 0 0 0-2m-50 330a1 1 0 1 0 0 2 1 1 0 0 0 0-2m0 60a1 1 0 1 0 0 2 1 1 0 0 0 0-2m0 60a1 1 0 1 0 0 2 1 1 0 0 0 0-2m0 60a1 1 0 1 0 0 2 1 1 0 0 0 0-2m0-420a1 1 0 1 0 0 2 1 1 0 0 0 0-2m0 60a1 1 0 1 0 0 2 1 1 0 0 0 0-2m0 60a1 1 0 1 0 0 2 1 1 0 0 0 0-2m0 60a1 1 0 1 0 0 2 1 1 0 0 0 0-2m0-420a1 1 0 1 0 0 2 1 1 0 0 0 0-2m0 60a1 1 0 1 0 0 2 1 1 0 0 0 0-2m0 60a1 1 0 1 0 0 2 1 1 0 0 0 0-2m0 60a1 1 0 1 0 0 2 1 1 0 0 0 0-2m-50 270a1 1 0 1 0 0 2 1 1 0 0 0 0-2m0 60a1 1 0 1 0 0 2 1 1 0 0 0 0-2m0 60a1 1 0 1 0 0 2 1 1 0 0 0 0-2m0 60a1 1 0 1 0 0 2 1 1 0 0 0 0-2m0-420a1 1 0 1 0 0 2 1 1 0 0 0 0-2m0 60a1 1 0 1 0 0 2 1 1 0 0 0 0-2m0 60a1 1 0 1 0 0 2 1 1 0 0 0 0-2m0 60a1 1 0 1 0 0 2 1 1 0 0 0 0-2m0-420a1 1 0 1 0 0 2 1 1 0 0 0 0-2m0 60a1 1 0 1 0 0 2 1 1 0 0 0 0-2m0 60a1 1 0 1 0 0 2 1 1 0 0 0 0-2m0 60a1 1 0 1 0 0 2 1 1 0 0 0 0-2m-50 330a1 1 0 1 0 0 2 1 1 0 0 0 0-2m0 60a1 1 0 1 0 0 2 1 1 0 0 0 0-2m0 60a1 1 0 1 0 0 2 1 1 0 0 0 0-2m0 60a1 1 0 1 0 0 2 1 1 0 0 0 0-2m0-420a1 1 0 1 0 0 2 1 1 0 0 0 0-2m0 60a1 1 0 1 0 0 2 1 1 0 0 0 0-2m0 60a1 1 0 1 0 0 2 1 1 0 0 0 0-2m0 60a1 1 0 1 0 0 2 1 1 0 0 0 0-2m0-420a1 1 0 1 0 0 2 1 1 0 0 0 0-2m0 60a1 1 0 1 0 0 2 1 1 0 0 0 0-2m0 60a1 1 0 1 0 0 2 1 1 0 0 0 0-2m0 60a1 1 0 1 0 0 2 1 1 0 0 0 0-2m-50 270a1 1 0 1 0 0 2 1 1 0 0 0 0-2m0 60a1 1 0 1 0 0 2 1 1 0 0 0 0-2m0 60a1 1 0 1 0 0 2 1 1 0 0 0 0-2m0 60a1 1 0 1 0 0 2 1 1 0 0 0 0-2m0-420a1 1 0 1 0 0 2 1 1 0 0 0 0-2m0 60a1 1 0 1 0 0 2 1 1 0 0 0 0-2m0 60a1 1 0 1 0 0 2 1 1 0 0 0 0-2m0 60a1 1 0 1 0 0 2 1 1 0 0 0 0-2m0-420a1 1 0 1 0 0 2 1 1 0 0 0 0-2m0 60a1 1 0 1 0 0 2 1 1 0 0 0 0-2m0 60a1 1 0 1 0 0 2 1 1 0 0 0 0-2m0 60a1 1 0 1 0 0 2 1 1 0 0 0 0-2m-50 330a1 1 0 1 0 0 2 1 1 0 0 0 0-2m0 60a1 1 0 1 0 0 2 1 1 0 0 0 0-2m0 60a1 1 0 1 0 0 2 1 1 0 0 0 0-2m0 60a1 1 0 1 0 0 2 1 1 0 0 0 0-2m0-420a1 1 0 1 0 0 2 1 1 0 0 0 0-2m0 60a1 1 0 1 0 0 2 1 1 0 0 0 0-2m0 60a1 1 0 1 0 0 2 1 1 0 0 0 0-2m0 60a1 1 0 1 0 0 2 1 1 0 0 0 0-2m0-420a1 1 0 1 0 0 2 1 1 0 0 0 0-2m0 60a1 1 0 1 0 0 2 1 1 0 0 0 0-2m0 60a1 1 0 1 0 0 2 1 1 0 0 0 0-2m0 60a1 1 0 1 0 0 2 1 1 0 0 0 0-2m-50 270a1 1 0 1 0 0 2 1 1 0 0 0 0-2m0 60a1 1 0 1 0 0 2 1 1 0 0 0 0-2m0 60a1 1 0 1 0 0 2 1 1 0 0 0 0-2m0 60a1 1 0 1 0 0 2 1 1 0 0 0 0-2m0-420a1 1 0 1 0 0 2 1 1 0 0 0 0-2m0 60a1 1 0 1 0 0 2 1 1 0 0 0 0-2m0 60a1 1 0 1 0 0 2 1 1 0 0 0 0-2m0 60a1 1 0 1 0 0 2 1 1 0 0 0 0-2m0-420a1 1 0 1 0 0 2 1 1 0 0 0 0-2m0 60a1 1 0 1 0 0 2 1 1 0 0 0 0-2m0 60a1 1 0 1 0 0 2 1 1 0 0 0 0-2m1 61a1 1 0 1 1-2 0 1 1 0 0 1 2 0"/>
        </g>
        <path stroke="url(#a)" stroke-linecap="square" stroke-width=".5" d="M6 12v47.666" transform="translate(345 205)"/>
        <g transform="translate(345 205)">
            <circle cx="6" cy="6" r="1" fill="#A079FF"/>
            <circle cx="6" cy="6" r="6" stroke="#A079FF" stroke-width=".5"/>
        </g>
        <g transform="translate(345 265)">
            <circle cx="6" cy="6" r="1" fill="#26D198"/>
            <circle cx="6" cy="6" r="6" stroke="#26D198" stroke-width=".5"/>
        </g>
        <path stroke="url(#b)" stroke-linecap="square" stroke-width=".5" d="M6 72v47.666" transform="translate(945 325)"/>
        <path stroke="url(#c)" stroke-linecap="square" stroke-width=".5" d="M11.325 62.523l39.207-23.282" transform="translate(945 325)"/>
        <path stroke="url(#d)" stroke-linecap="square" stroke-width=".5" d="M61.325 32.523l39.207-23.282" transform="translate(945 325)"/>
        <g transform="translate(945 325)">
            <circle cx="6" cy="66" r="1" fill="#1A82FF"/>
            <circle cx="6" cy="66" r="6" stroke="#1A82FF" stroke-width=".5"/>
            <circle cx="106" cy="6" r="1" fill="#1A82FF"/>
            <circle cx="106" cy="6" r="6" stroke="#1A82FF" stroke-width=".5"/>
        </g>
        <g transform="translate(945 445)">
            <circle cx="6" cy="6" r="1" fill="#26D198"/>
            <circle cx="6" cy="6" r="6" stroke="#26D198" stroke-width=".5"/>
        </g>
        <g transform="translate(995 355)">
            <circle cx="6" cy="6" r="1" fill="#26D198"/>
            <circle cx="6" cy="6" r="6" stroke="#26D198" stroke-width=".5"/>
        </g>
        <g>
            <path stroke="url(#b)" stroke-linecap="square" stroke-width=".5" d="M56 72v47.666" transform="translate(195 685)"/>
            <path stroke="url(#c)" stroke-linecap="square" stroke-width=".5" d="M61.325 62.523l39.207-23.282" transform="translate(195 685)"/>
            <path stroke="url(#e)" stroke-linecap="square" stroke-width=".5" d="M11.325 152.523l39.207-23.282" transform="translate(195 685)"/>
            <path stroke="url(#f)" stroke-linecap="square" stroke-width=".5" d="M111.325 32.523l39.207-23.282" transform="translate(195 685)"/>
            <g transform="translate(245 745)">
                <circle cx="6" cy="6" r="1" fill="#1A82FF"/>
                <circle cx="6" cy="6" r="6" stroke="#1A82FF" stroke-width=".5"/>
            </g>
            <g transform="translate(195 805)">
                <circle cx="56" cy="6" r="1" fill="#26D198"/>
                <circle cx="56" cy="6" r="6" stroke="#26D198" stroke-width=".5"/>
                <circle cx="6" cy="36" r="1" fill="#A079FF"/>
                <circle cx="6" cy="36" r="6" stroke="#A079FF" stroke-width=".5"/>
            </g>
            <g transform="translate(295 685)">
                <circle cx="6" cy="36" r="1" fill="#26D198"/>
                <circle cx="6" cy="36" r="6" stroke="#26D198" stroke-width=".5"/>
                <circle cx="56" cy="6" r="1" fill="#1A82FF"/>
                <circle cx="56" cy="6" r="6" stroke="#1A82FF" stroke-width=".5"/>
            </g>
        </g>
        <g>
            <path stroke="url(#g)" stroke-linecap="square" stroke-width=".5" d="M61 9l39.555 23.833" transform="translate(1395 205)"/>
            <path stroke="url(#h)" stroke-linecap="square" stroke-width=".5" d="M11 9l39.555 23.833" transform="matrix(-1 0 0 1 1456.555 205)"/>
            <g transform="translate(1445 205)">
                <circle cx="6" cy="6" r="1" fill="#A079FF"/>
                <circle cx="6" cy="6" r="6" stroke="#A079FF" stroke-width=".5"/>
            </g>
            <g transform="translate(1495 235)">
                <circle cx="6" cy="6" r="1" fill="#1A82FF"/>
                <circle cx="6" cy="6" r="6" stroke="#1A82FF" stroke-width=".5"/>
            </g>
            <g transform="translate(1395 235)">
                <circle cx="6" cy="6" r="1" fill="#26D198"/>
                <circle cx="6" cy="6" r="6" stroke="#26D198" stroke-width=".5"/>
            </g>
        </g>
        <g>
            <path stroke="url(#a)" stroke-linecap="square" stroke-width=".5" d="M6 12v47.666" transform="translate(495 535)"/>
            <path stroke="url(#h)" stroke-linecap="square" stroke-width=".5" d="M11.523 9.093L50.89 32.906" transform="translate(495 535)"/>
            <g transform="translate(495 535)">
                <circle cx="6" cy="6" r="1" fill="#A079FF"/>
                <circle cx="6" cy="6" r="6" stroke="#A079FF" stroke-width=".5"/>
            </g>
            <g transform="translate(495 595)">
                <circle cx="6" cy="6" r="1" fill="#26D198"/>
                <circle cx="6" cy="6" r="6" stroke="#26D198" stroke-width=".5"/>
            </g>
            <g transform="translate(545 565)">
                <circle cx="6" cy="6" r="1" fill="#26D198"/>
                <circle cx="6" cy="6" r="6" stroke="#26D198" stroke-width=".5"/>
            </g>
        </g>
        <g>
            <path stroke="url(#a)" stroke-linecap="square" stroke-width=".5" d="M6 12v47.666" transform="translate(645 25)"/>
            <path stroke="url(#h)" stroke-linecap="square" stroke-width=".5" d="M11.523 9.093L50.89 32.906" transform="translate(645 25)"/>
            <path stroke="url(#i)" stroke-linecap="square" stroke-width=".5" d="M61.523 9.093l39.366 23.813" transform="matrix(-1 0 0 1 807.412 25)"/>
            <g transform="translate(645 25)">
                <circle cx="6" cy="6" r="1" fill="#A079FF"/>
                <circle cx="6" cy="6" r="6" stroke="#A079FF" stroke-width=".5"/>
            </g>
            <g transform="translate(645 85)">
                <circle cx="6" cy="6" r="1" fill="#26D198"/>
                <circle cx="6" cy="6" r="6" stroke="#26D198" stroke-width=".5"/>
            </g>
            <g transform="translate(695 25)">
                <circle cx="6" cy="36" r="1" fill="#26D198"/>
                <circle cx="6" cy="36" r="6" stroke="#26D198" stroke-width=".5"/>
                <circle cx="56" cy="6" r="1" fill="#1A82FF"/>
                <circle cx="56" cy="6" r="6" stroke="#1A82FF" stroke-width=".5"/>
            </g>
        </g>
    </g>
</svg>
