<svg xmlns="http://www.w3.org/2000/svg" xmlns:xlink="http://www.w3.org/1999/xlink" width="243" height="246" viewBox="0 0 243 246">
    <defs>
        <path id="a" d="M.329.165h122.578v46.748H.33z"/>
        <path id="c" d="M.329.165h122.734v46.748H.329z"/>
        <path id="e" d="M.33.165h122.934v46.748H.33z"/>
        <path id="g" d="M.329.165h122.578v46.748H.33z"/>
        <path id="i" d="M.329.165h122.734v46.748H.329z"/>
        <path id="k" d="M.33.165h122.934v46.748H.33z"/>
        <path id="m" d="M.329.165h122.578v46.748H.33z"/>
        <path id="o" d="M.329.165h122.578v46.748H.33z"/>
        <path id="q" d="M.329.165h122.578v46.748H.33z"/>
        <path id="s" d="M.329.165h122.578v46.748H.33z"/>
        <path id="u" d="M.329.165h122.578v46.748H.33z"/>
    </defs>
    <g fill="none" fill-rule="evenodd">
        <path fill="#111D28" d="M30.144 170.157c-11.87-6.91-17.805-15.974-17.816-25.06-.01-9.175 6.023-18.373 18.087-25.396 24.01-13.977 62.817-14.048 86.677-.158 11.87 6.91 17.805 15.974 17.815 25.06.01 9.175-6.022 18.373-18.086 25.396-24.01 13.977-62.817 14.047-86.677.158" opacity=".1"/>
        <g transform="translate(12 127.265)">
            <mask id="b" fill="#fff">
                <use xlink:href="#a"/>
            </mask>
            <path fill="#6E3BEA" d="M122.907.165v10.822c.011 9.176-6.022 18.374-18.087 25.397-24.01 13.977-62.816 14.047-86.676.158C6.274 29.632.34 20.568.33 11.482V.166h122.578z" mask="url(#b)"/>
        </g>
        <path fill="#7A54EF" d="M30.144 152.985c-11.87-6.91-17.805-15.974-17.816-25.059-.01-9.176 6.023-18.374 18.087-25.397 24.01-13.976 62.817-14.047 86.677-.158 11.87 6.91 17.805 15.974 17.815 25.06.01 9.175-6.022 18.373-18.086 25.396-24.01 13.977-62.817 14.048-86.677.158"/>
        <path fill="#6E3BEA" d="M73.233 155.98c-15.034 0-29.037-3.332-39.43-9.383-9.123-5.31-14.151-11.944-14.16-18.68-.006-6.732 5.253-13.658 14.43-19 10.57-6.152 24.75-9.54 39.93-9.54 15.033 0 29.038 3.331 39.431 9.382 9.122 5.31 14.15 11.944 14.157 18.68.009 6.732-5.25 13.657-14.428 19-10.57 6.153-24.751 9.541-39.93 9.541"/>
        <path fill="#5028CE" d="M34.074 110.393c10.57-6.154 24.75-9.541 39.93-9.541 15.032 0 29.037 3.332 39.43 9.382 8.79 5.117 13.764 11.463 14.122 17.943.014-.247.035-.493.035-.738-.007-6.736-5.035-13.37-14.157-18.68-10.393-6.05-24.398-9.382-39.43-9.382-15.18 0-29.36 3.387-39.93 9.54-9.178 5.342-14.438 12.267-14.43 19 0 .245.02.49.034.735.363-6.496 5.554-13.112 14.396-18.26"/>
        <path fill="#FFF" d="M95.741 111.476l-1.43.452-32.024 18.642.003.379 23.745 3.592z"/>
        <path fill="#FFF" d="M95.741 111.476l-39.623 5.65 6.172 13.823 15.544-9.048zM59.475 132.587l-.407.022-11.407 6.641-.35.419 35.914-3.482z"/>
        <path fill="#FFF" d="M47.31 139.668l12.166-7.081-6.176-13.82zM62.29 130.948l23.745 3.593-8.202-12.64zM56.118 117.126l6.172 13.822 15.543-9.048z"/>
        <g>
            <path fill="#111D28" d="M29.011 150.157c-11.885-6.91-17.828-15.974-17.838-25.06-.01-9.175 6.03-18.373 18.11-25.396 24.04-13.977 62.896-14.048 86.786-.158 11.886 6.91 17.828 15.974 17.838 25.06.01 9.175-6.03 18.373-18.11 25.396-24.04 13.977-62.895 14.047-86.786.158" opacity=".1"/>
            <g transform="translate(3 107.265)">
                <mask id="d" fill="#fff">
                    <use xlink:href="#c"/>
                </mask>
                <path fill="#6E3BEA" d="M123.063.165v10.822c.01 9.176-6.03 18.374-18.11 25.397-24.04 13.977-62.895 14.047-86.786.158C6.282 29.632.34 20.568.33 11.482V.166h122.734z" mask="url(#d)"/>
            </g>
            <path fill="#7A54EF" d="M21.167 132.985C9.281 126.075 3.34 117.011 3.33 107.926c-.01-9.176 6.03-18.374 18.11-25.397 24.04-13.976 62.896-14.047 86.786-.158 11.885 6.91 17.828 15.974 17.838 25.06.01 9.175-6.03 18.373-18.11 25.396-24.04 13.977-62.896 14.048-86.786.158"/>
            <path fill="#6E3BEA" d="M64.31 135.98c-15.053 0-29.073-3.332-39.48-9.383-9.133-5.31-14.168-11.944-14.177-18.68-.007-6.732 5.26-13.658 14.449-19 10.582-6.152 24.78-9.54 39.98-9.54 15.052 0 29.074 3.331 39.48 9.382 9.134 5.31 14.169 11.944 14.176 18.68.008 6.732-5.258 13.657-14.447 19-10.583 6.153-24.782 9.541-39.98 9.541"/>
            <path fill="#5028CE" d="M25.102 90.393c10.582-6.154 24.78-9.541 39.98-9.541 15.052 0 29.074 3.332 39.48 9.382 8.8 5.117 13.782 11.463 14.14 17.943.014-.247.036-.493.036-.738-.008-6.736-5.042-13.37-14.175-18.68-10.407-6.05-24.429-9.382-39.481-9.382-15.2 0-29.398 3.387-39.98 9.54-9.19 5.342-14.456 12.267-14.449 19 0 .245.022.49.035.735.363-6.496 5.56-13.112 14.414-18.26"/>
            <path fill="#FFF" d="M86.847 91.476l-1.432.452-32.064 18.642.002.379 23.776 3.592z"/>
            <path fill="#FFF" d="M86.847 91.476l-39.673 5.65 6.18 13.823 15.563-9.048zM50.535 112.587l-.407.022-11.422 6.641-.35.419 35.96-3.482z"/>
            <path fill="#FFF" d="M38.355 119.668l12.181-7.081-6.184-13.82zM53.354 110.948l23.775 3.593-8.212-12.64z"/>
            <path fill="#FFF" d="M47.174 97.126l6.18 13.822 15.563-9.048z"/>
        </g>
        <g>
            <path fill="#111D28" d="M23.197 131.157c-11.905-6.91-17.858-15.974-17.868-25.06-.01-9.175 6.04-18.373 18.14-25.396 24.08-13.977 62.999-14.048 86.928-.158 11.905 6.91 17.857 15.974 17.867 25.06.01 9.175-6.04 18.373-18.14 25.396-24.079 13.977-62.998 14.047-86.927.158" opacity=".1"/>
            <g transform="translate(12.857 88.265)">
                <mask id="f" fill="#fff">
                    <use xlink:href="#e"/>
                </mask>
                <path fill="#6E3BEA" d="M123.264.165v10.822c.011 9.176-6.04 18.374-18.14 25.397-24.079 13.977-62.998 14.047-86.927.158C6.292 29.632.34 20.568.33 11.482V.166h122.934z" mask="url(#f)"/>
            </g>
            <path fill="#7A54EF" d="M31.054 113.985c-11.905-6.91-17.857-15.974-17.868-25.059-.01-9.176 6.04-18.374 18.14-25.397 24.08-13.976 62.999-14.047 86.928-.158 11.905 6.91 17.857 15.974 17.867 25.06.011 9.175-6.04 18.373-18.139 25.396-24.08 13.977-62.999 14.048-86.928.158"/>
            <path fill="#6E3BEA" d="M74.268 116.98c-15.078 0-29.121-3.332-39.545-9.383-9.149-5.31-14.192-11.944-14.2-18.68-.007-6.732 5.268-13.658 14.472-19 10.6-6.152 24.821-9.54 40.046-9.54 15.076 0 29.121 3.331 39.545 9.382 9.148 5.31 14.191 11.944 14.198 18.68.008 6.732-5.266 13.657-14.47 19-10.6 6.153-24.823 9.541-40.046 9.541"/>
            <path fill="#5028CE" d="M34.995 71.393c10.6-6.154 24.821-9.541 40.046-9.541 15.076 0 29.121 3.332 39.545 9.382 8.814 5.117 13.803 11.463 14.163 17.943.014-.247.035-.493.035-.738-.007-6.736-5.05-13.37-14.198-18.68-10.424-6.05-24.469-9.382-39.545-9.382-15.225 0-29.446 3.387-40.046 9.54-9.204 5.342-14.48 12.267-14.472 19 0 .245.021.49.035.735.363-6.496 5.57-13.112 14.437-18.26"/>
            <path fill="#FFF" d="M96.842 72.476l-1.435.452L63.291 91.57l.002.379 23.814 3.592z"/>
            <path fill="#FFF" d="M96.842 72.476l-39.739 5.65 6.19 13.823L78.882 82.9zM60.47 93.587l-.408.022-11.44 6.641-.352.419 36.019-3.482z"/>
            <path fill="#FFF" d="M48.27 100.668l12.2-7.081-6.193-13.82zM63.293 91.948l23.814 3.593-8.225-12.64z"/>
            <path fill="#FFF" d="M57.104 78.126l6.19 13.822L78.881 82.9z"/>
        </g>
        <g>
            <path fill="#111D28" d="M26.144 117.157c-11.87-6.91-17.805-15.974-17.816-25.06-.01-9.175 6.023-18.373 18.087-25.396 24.01-13.977 62.817-14.048 86.677-.158 11.87 6.91 17.805 15.974 17.815 25.06.01 9.175-6.022 18.373-18.086 25.396-24.01 13.977-62.817 14.047-86.677.158" opacity=".1"/>
            <g transform="translate(8 74.265)">
                <mask id="h" fill="#fff">
                    <use xlink:href="#g"/>
                </mask>
                <path fill="#6E3BEA" d="M122.907.165v10.822c.011 9.176-6.022 18.374-18.087 25.397-24.01 13.977-62.816 14.047-86.676.158C6.274 29.632.34 20.568.33 11.482V.166h122.578z" mask="url(#h)"/>
            </g>
            <path fill="#7A54EF" d="M26.144 99.985C14.274 93.075 8.34 84.011 8.328 74.926c-.01-9.176 6.023-18.374 18.087-25.397 24.01-13.976 62.817-14.047 86.677-.158 11.87 6.91 17.805 15.974 17.815 25.06.01 9.175-6.022 18.373-18.086 25.396-24.01 13.977-62.817 14.048-86.677.158"/>
            <path fill="#6E3BEA" d="M69.233 102.98c-15.034 0-29.037-3.332-39.43-9.383-9.123-5.31-14.151-11.944-14.16-18.68-.006-6.732 5.253-13.658 14.43-19 10.57-6.152 24.75-9.54 39.93-9.54 15.033 0 29.038 3.331 39.431 9.382 9.122 5.31 14.15 11.944 14.157 18.68.009 6.732-5.25 13.657-14.428 19-10.57 6.153-24.751 9.541-39.93 9.541"/>
            <path fill="#5028CE" d="M30.074 57.393c10.57-6.154 24.75-9.541 39.93-9.541 15.032 0 29.037 3.332 39.43 9.382 8.79 5.117 13.764 11.463 14.122 17.943.014-.247.035-.493.035-.738-.007-6.736-5.035-13.37-14.157-18.68-10.393-6.05-24.398-9.382-39.43-9.382-15.18 0-29.36 3.387-39.93 9.54-9.178 5.342-14.438 12.267-14.43 19 0 .245.02.49.034.735.363-6.496 5.554-13.112 14.396-18.26"/>
            <path fill="#FFF" d="M91.741 58.476l-1.43.452L58.287 77.57l.003.379 23.745 3.592z"/>
            <path fill="#FFF" d="M91.741 58.476l-39.623 5.65 6.172 13.823L73.834 68.9zM55.475 79.587l-.407.022-11.407 6.641-.35.419 35.914-3.482z"/>
            <path fill="#FFF" d="M43.31 86.668l12.166-7.081-6.176-13.82zM58.29 77.948l23.745 3.593-8.202-12.64z"/>
            <path fill="#FFF" d="M52.118 64.126l6.172 13.822L73.833 68.9z"/>
        </g>
        <g>
            <path fill="#111D28" d="M29.011 98.157c-11.885-6.91-17.828-15.974-17.838-25.06-.01-9.175 6.03-18.373 18.11-25.396 24.04-13.977 62.896-14.048 86.786-.158 11.886 6.91 17.828 15.974 17.838 25.06.01 9.175-6.03 18.373-18.11 25.396-24.04 13.977-62.895 14.047-86.786.158" opacity=".1"/>
            <g transform="translate(3 55.265)">
                <mask id="j" fill="#fff">
                    <use xlink:href="#i"/>
                </mask>
                <path fill="#6E3BEA" d="M123.063.165v10.822c.01 9.176-6.03 18.374-18.11 25.397-24.04 13.977-62.895 14.047-86.786.158C6.282 29.632.34 20.568.33 11.482V.166h122.734z" mask="url(#j)"/>
            </g>
            <path fill="#7A54EF" d="M21.167 80.985C9.281 74.075 3.34 65.011 3.33 55.926c-.01-9.176 6.03-18.374 18.11-25.397 24.04-13.976 62.896-14.047 86.786-.158 11.885 6.91 17.828 15.974 17.838 25.06.01 9.175-6.03 18.373-18.11 25.396-24.04 13.977-62.896 14.048-86.786.158"/>
            <path fill="#6E3BEA" d="M64.31 83.98c-15.053 0-29.073-3.332-39.48-9.383-9.133-5.31-14.168-11.944-14.177-18.68-.007-6.732 5.26-13.658 14.449-19 10.582-6.152 24.78-9.54 39.98-9.54 15.052 0 29.074 3.331 39.48 9.382 9.134 5.31 14.169 11.944 14.176 18.68.008 6.732-5.258 13.657-14.447 19-10.583 6.153-24.782 9.541-39.98 9.541"/>
            <path fill="#5028CE" d="M25.102 38.393c10.582-6.154 24.78-9.541 39.98-9.541 15.052 0 29.074 3.332 39.48 9.382 8.8 5.117 13.782 11.463 14.14 17.943.014-.247.036-.493.036-.738-.008-6.736-5.042-13.37-14.175-18.68-10.407-6.05-24.429-9.382-39.481-9.382-15.2 0-29.398 3.387-39.98 9.54-9.19 5.342-14.456 12.267-14.449 19 0 .245.022.49.035.735.363-6.496 5.56-13.112 14.414-18.26"/>
            <path fill="#FFF" d="M86.847 39.476l-1.432.452L53.351 58.57l.002.379L77.13 62.54z"/>
            <path fill="#FFF" d="M86.847 39.476l-39.673 5.65 6.18 13.823L68.916 49.9zM50.535 60.587l-.407.022-11.422 6.641-.35.419 35.96-3.482z"/>
            <path fill="#FFF" d="M38.355 67.668l12.181-7.081-6.184-13.82zM53.354 58.948l23.775 3.593-8.212-12.64zM47.174 45.126l6.18 13.822L68.917 49.9z"/>
        </g>
        <g>
            <path fill="#111D28" d="M18.197 78.157C6.292 71.247.339 62.183.329 53.097c-.01-9.175 6.04-18.373 18.14-25.396 24.08-13.977 62.999-14.048 86.928-.158 11.905 6.91 17.857 15.974 17.867 25.06.01 9.175-6.04 18.373-18.14 25.396-24.079 13.977-62.998 14.047-86.927.158" opacity=".1"/>
            <g transform="translate(7.857 35.265)">
                <mask id="l" fill="#fff">
                    <use xlink:href="#k"/>
                </mask>
                <path fill="#6E3BEA" d="M123.264.165v10.822c.011 9.176-6.04 18.374-18.14 25.397-24.079 13.977-62.998 14.047-86.927.158C6.292 29.632.34 20.568.33 11.482V.166h122.934z" mask="url(#l)"/>
            </g>
            <path fill="#7A54EF" d="M26.054 60.985C14.149 54.075 8.197 45.011 8.186 35.926c-.01-9.176 6.04-18.374 18.14-25.397 24.08-13.976 62.999-14.047 86.928-.158 11.905 6.91 17.857 15.974 17.867 25.06.011 9.175-6.04 18.373-18.139 25.396-24.08 13.977-62.999 14.048-86.928.158"/>
            <path fill="#6E3BEA" d="M69.268 63.98c-15.078 0-29.121-3.332-39.545-9.383-9.149-5.31-14.192-11.944-14.2-18.68-.007-6.732 5.268-13.658 14.472-19 10.6-6.152 24.821-9.54 40.046-9.54 15.076 0 29.121 3.331 39.545 9.382 9.148 5.31 14.191 11.944 14.198 18.68.008 6.732-5.266 13.657-14.47 19-10.6 6.153-24.823 9.541-40.046 9.541"/>
            <path fill="#5028CE" d="M29.995 18.393c10.6-6.154 24.821-9.541 40.046-9.541 15.076 0 29.121 3.332 39.545 9.382 8.814 5.117 13.803 11.463 14.163 17.943.014-.247.035-.493.035-.738-.007-6.736-5.05-13.37-14.198-18.68-10.424-6.05-24.469-9.382-39.545-9.382-15.225 0-29.446 3.387-40.046 9.54-9.204 5.342-14.48 12.267-14.472 19 0 .245.021.49.035.735.363-6.496 5.57-13.112 14.437-18.26"/>
            <path fill="#FFF" d="M91.842 19.476l-1.435.452L58.291 38.57l.002.379 23.814 3.592z"/>
            <path fill="#FFF" d="M91.842 19.476l-39.739 5.65 6.19 13.823L73.882 29.9zM55.47 40.587l-.408.022-11.44 6.641-.352.419 36.019-3.482z"/>
            <path fill="#FFF" d="M43.27 47.668l12.2-7.081-6.193-13.82zM58.293 38.948l23.814 3.593-8.225-12.64z"/>
            <path fill="#FFF" d="M52.104 25.126l6.19 13.822L73.881 29.9z"/>
        </g>
        <g>
            <path fill="#111D28" d="M138.144 204.157c-11.87-6.91-17.805-15.974-17.816-25.06-.01-9.175 6.023-18.373 18.087-25.396 24.01-13.977 62.817-14.048 86.677-.158 11.87 6.91 17.805 15.974 17.815 25.06.01 9.175-6.022 18.373-18.086 25.396-24.01 13.977-62.817 14.047-86.677.158" opacity=".1"/>
            <g transform="translate(120 161.265)">
                <mask id="n" fill="#fff">
                    <use xlink:href="#m"/>
                </mask>
                <path fill="#6E3BEA" d="M122.907.165v10.822c.011 9.176-6.022 18.374-18.087 25.397-24.01 13.977-62.816 14.047-86.676.158C6.274 29.632.34 20.568.33 11.482V.166h122.578z" mask="url(#n)"/>
            </g>
            <path fill="#7A54EF" d="M138.144 186.985c-11.87-6.91-17.805-15.974-17.816-25.059-.01-9.176 6.023-18.374 18.087-25.397 24.01-13.976 62.817-14.047 86.677-.158 11.87 6.91 17.805 15.974 17.815 25.06.01 9.175-6.022 18.373-18.086 25.396-24.01 13.977-62.817 14.048-86.677.158"/>
            <path fill="#6E3BEA" d="M181.233 189.98c-15.034 0-29.037-3.332-39.43-9.383-9.123-5.31-14.151-11.944-14.16-18.68-.006-6.732 5.253-13.658 14.43-19 10.57-6.152 24.75-9.54 39.93-9.54 15.033 0 29.038 3.331 39.431 9.382 9.122 5.31 14.15 11.944 14.157 18.68.009 6.732-5.25 13.657-14.428 19-10.57 6.153-24.751 9.541-39.93 9.541"/>
            <path fill="#5028CE" d="M142.074 144.393c10.57-6.154 24.75-9.541 39.93-9.541 15.032 0 29.037 3.332 39.43 9.382 8.79 5.117 13.764 11.463 14.122 17.943.014-.247.035-.493.035-.738-.007-6.736-5.035-13.37-14.157-18.68-10.393-6.05-24.398-9.382-39.43-9.382-15.18 0-29.36 3.387-39.93 9.54-9.178 5.342-14.438 12.267-14.43 19 0 .245.02.49.034.735.363-6.496 5.554-13.112 14.396-18.26"/>
            <path fill="#FFF" d="M203.741 145.476l-1.43.452-32.024 18.642.003.379 23.745 3.592z"/>
            <path fill="#FFF" d="M203.741 145.476l-39.623 5.65 6.172 13.823 15.544-9.048zM167.475 166.587l-.407.022-11.407 6.641-.35.419 35.914-3.482z"/>
            <path fill="#FFF" d="M155.31 173.668l12.166-7.081-6.176-13.82zM170.29 164.948l23.745 3.593-8.202-12.64zM164.118 151.126l6.172 13.822 15.543-9.048z"/>
        </g>
        <g>
            <path fill="#111D28" d="M130.144 188.157c-11.87-6.91-17.805-15.974-17.816-25.06-.01-9.175 6.023-18.373 18.087-25.396 24.01-13.977 62.817-14.048 86.677-.158 11.87 6.91 17.805 15.974 17.815 25.06.01 9.175-6.022 18.373-18.086 25.396-24.01 13.977-62.817 14.047-86.677.158" opacity=".1"/>
            <g transform="translate(112 145.265)">
                <mask id="p" fill="#fff">
                    <use xlink:href="#o"/>
                </mask>
                <path fill="#6E3BEA" d="M122.907.165v10.822c.011 9.176-6.022 18.374-18.087 25.397-24.01 13.977-62.816 14.047-86.676.158C6.274 29.632.34 20.568.33 11.482V.166h122.578z" mask="url(#p)"/>
            </g>
            <path fill="#7A54EF" d="M130.144 170.985c-11.87-6.91-17.805-15.974-17.816-25.059-.01-9.176 6.023-18.374 18.087-25.397 24.01-13.976 62.817-14.047 86.677-.158 11.87 6.91 17.805 15.974 17.815 25.06.01 9.175-6.022 18.373-18.086 25.396-24.01 13.977-62.817 14.048-86.677.158"/>
            <path fill="#6E3BEA" d="M173.233 173.98c-15.034 0-29.037-3.332-39.43-9.383-9.123-5.31-14.151-11.944-14.16-18.68-.006-6.732 5.253-13.658 14.43-19 10.57-6.152 24.75-9.54 39.93-9.54 15.033 0 29.038 3.331 39.431 9.382 9.122 5.31 14.15 11.944 14.157 18.68.009 6.732-5.25 13.657-14.428 19-10.57 6.153-24.751 9.541-39.93 9.541"/>
            <path fill="#5028CE" d="M134.074 128.393c10.57-6.154 24.75-9.541 39.93-9.541 15.032 0 29.037 3.332 39.43 9.382 8.79 5.117 13.764 11.463 14.122 17.943.014-.247.035-.493.035-.738-.007-6.736-5.035-13.37-14.157-18.68-10.393-6.05-24.398-9.382-39.43-9.382-15.18 0-29.36 3.387-39.93 9.54-9.178 5.342-14.438 12.267-14.43 19 0 .245.02.49.034.735.363-6.496 5.554-13.112 14.396-18.26"/>
            <path fill="#FFF" d="M195.741 129.476l-1.43.452-32.024 18.642.003.379 23.745 3.592z"/>
            <path fill="#FFF" d="M195.741 129.476l-39.623 5.65 6.172 13.823 15.544-9.048zM159.475 150.587l-.407.022-11.407 6.641-.35.419 35.914-3.482z"/>
            <path fill="#FFF" d="M147.31 157.668l12.166-7.081-6.176-13.82zM162.29 148.948l23.745 3.593-8.202-12.64zM156.118 135.126l6.172 13.822 15.543-9.048z"/>
        </g>
        <g>
            <path fill="#111D28" d="M138.144 172.157c-11.87-6.91-17.805-15.974-17.816-25.06-.01-9.175 6.023-18.373 18.087-25.396 24.01-13.977 62.817-14.048 86.677-.158 11.87 6.91 17.805 15.974 17.815 25.06.01 9.175-6.022 18.373-18.086 25.396-24.01 13.977-62.817 14.047-86.677.158" opacity=".1"/>
            <g transform="translate(120 129.265)">
                <mask id="r" fill="#fff">
                    <use xlink:href="#q"/>
                </mask>
                <path fill="#6E3BEA" d="M122.907.165v10.822c.011 9.176-6.022 18.374-18.087 25.397-24.01 13.977-62.816 14.047-86.676.158C6.274 29.632.34 20.568.33 11.482V.166h122.578z" mask="url(#r)"/>
            </g>
            <path fill="#7A54EF" d="M138.144 154.985c-11.87-6.91-17.805-15.974-17.816-25.059-.01-9.176 6.023-18.374 18.087-25.397 24.01-13.976 62.817-14.047 86.677-.158 11.87 6.91 17.805 15.974 17.815 25.06.01 9.175-6.022 18.373-18.086 25.396-24.01 13.977-62.817 14.048-86.677.158"/>
            <path fill="#6E3BEA" d="M181.233 157.98c-15.034 0-29.037-3.332-39.43-9.383-9.123-5.31-14.151-11.944-14.16-18.68-.006-6.732 5.253-13.658 14.43-19 10.57-6.152 24.75-9.54 39.93-9.54 15.033 0 29.038 3.331 39.431 9.382 9.122 5.31 14.15 11.944 14.157 18.68.009 6.732-5.25 13.657-14.428 19-10.57 6.153-24.751 9.541-39.93 9.541"/>
            <path fill="#5028CE" d="M142.074 112.393c10.57-6.154 24.75-9.541 39.93-9.541 15.032 0 29.037 3.332 39.43 9.382 8.79 5.117 13.764 11.463 14.122 17.943.014-.247.035-.493.035-.738-.007-6.736-5.035-13.37-14.157-18.68-10.393-6.05-24.398-9.382-39.43-9.382-15.18 0-29.36 3.387-39.93 9.54-9.178 5.342-14.438 12.267-14.43 19 0 .245.02.49.034.735.363-6.496 5.554-13.112 14.396-18.26"/>
            <path fill="#FFF" d="M203.741 113.476l-1.43.452-32.024 18.642.003.379 23.745 3.592z"/>
            <path fill="#FFF" d="M203.741 113.476l-39.623 5.65 6.172 13.823 15.544-9.048zM167.475 134.587l-.407.022-11.407 6.641-.35.419 35.914-3.482z"/>
            <path fill="#FFF" d="M155.31 141.668l12.166-7.081-6.176-13.82zM170.29 132.948l23.745 3.593-8.202-12.64zM164.118 119.126l6.172 13.822 15.543-9.048z"/>
        </g>
        <g>
            <path fill="#111D28" d="M130.144 157.157c-11.87-6.91-17.805-15.974-17.816-25.06-.01-9.175 6.023-18.373 18.087-25.396 24.01-13.977 62.817-14.048 86.677-.158 11.87 6.91 17.805 15.974 17.815 25.06.01 9.175-6.022 18.373-18.086 25.396-24.01 13.977-62.817 14.047-86.677.158" opacity=".1"/>
            <g transform="translate(112 114.265)">
                <mask id="t" fill="#fff">
                    <use xlink:href="#s"/>
                </mask>
                <path fill="#6E3BEA" d="M122.907.165v10.822c.011 9.176-6.022 18.374-18.087 25.397-24.01 13.977-62.816 14.047-86.676.158C6.274 29.632.34 20.568.33 11.482V.166h122.578z" mask="url(#t)"/>
            </g>
            <path fill="#7A54EF" d="M130.144 139.985c-11.87-6.91-17.805-15.974-17.816-25.059-.01-9.176 6.023-18.374 18.087-25.397 24.01-13.976 62.817-14.047 86.677-.158 11.87 6.91 17.805 15.974 17.815 25.06.01 9.175-6.022 18.373-18.086 25.396-24.01 13.977-62.817 14.048-86.677.158"/>
            <path fill="#6E3BEA" d="M173.233 142.98c-15.034 0-29.037-3.332-39.43-9.383-9.123-5.31-14.151-11.944-14.16-18.68-.006-6.732 5.253-13.658 14.43-19 10.57-6.152 24.75-9.54 39.93-9.54 15.033 0 29.038 3.331 39.431 9.382 9.122 5.31 14.15 11.944 14.157 18.68.009 6.732-5.25 13.657-14.428 19-10.57 6.153-24.751 9.541-39.93 9.541"/>
            <path fill="#5028CE" d="M134.074 97.393c10.57-6.154 24.75-9.541 39.93-9.541 15.032 0 29.037 3.332 39.43 9.382 8.79 5.117 13.764 11.463 14.122 17.943.014-.247.035-.493.035-.738-.007-6.736-5.035-13.37-14.157-18.68-10.393-6.05-24.398-9.382-39.43-9.382-15.18 0-29.36 3.387-39.93 9.54-9.178 5.342-14.438 12.267-14.43 19 0 .245.02.49.034.735.363-6.496 5.554-13.112 14.396-18.26"/>
            <path fill="#FFF" d="M195.741 98.476l-1.43.452-32.024 18.642.003.379 23.745 3.592z"/>
            <path fill="#FFF" d="M195.741 98.476l-39.623 5.65 6.172 13.823 15.544-9.048zM159.475 119.587l-.407.022-11.407 6.641-.35.419 35.914-3.482z"/>
            <path fill="#FFF" d="M147.31 126.668l12.166-7.081-6.176-13.82zM162.29 117.948l23.745 3.593-8.202-12.64z"/>
            <path fill="#FFF" d="M156.118 104.126l6.172 13.822 15.543-9.048z"/>
        </g>
        <g>
            <path fill="#111D28" d="M36.144 235.157c-11.87-6.91-17.805-15.974-17.816-25.06-.01-9.175 6.023-18.373 18.087-25.396 24.01-13.977 62.817-14.048 86.677-.158 11.87 6.91 17.805 15.974 17.815 25.06.01 9.175-6.022 18.373-18.086 25.396-24.01 13.977-62.817 14.047-86.677.158" opacity=".1"/>
            <g transform="translate(18 192.265)">
                <mask id="v" fill="#fff">
                    <use xlink:href="#u"/>
                </mask>
                <path fill="#6E3BEA" d="M122.907.165v10.822c.011 9.176-6.022 18.374-18.087 25.397-24.01 13.977-62.816 14.047-86.676.158C6.274 29.632.34 20.568.33 11.482V.166h122.578z" mask="url(#v)"/>
            </g>
            <path fill="#7A54EF" d="M36.144 217.985c-11.87-6.91-17.805-15.974-17.816-25.059-.01-9.176 6.023-18.374 18.087-25.397 24.01-13.976 62.817-14.047 86.677-.158 11.87 6.91 17.805 15.974 17.815 25.06.01 9.175-6.022 18.373-18.086 25.396-24.01 13.977-62.817 14.048-86.677.158"/>
            <path fill="#6E3BEA" d="M79.233 220.98c-15.034 0-29.037-3.332-39.43-9.383-9.123-5.31-14.151-11.944-14.16-18.68-.006-6.732 5.253-13.658 14.43-19 10.57-6.152 24.75-9.54 39.93-9.54 15.033 0 29.038 3.331 39.431 9.382 9.122 5.31 14.15 11.944 14.157 18.68.009 6.732-5.25 13.657-14.428 19-10.57 6.153-24.751 9.541-39.93 9.541"/>
            <path fill="#5028CE" d="M40.074 175.393c10.57-6.154 24.75-9.541 39.93-9.541 15.032 0 29.037 3.332 39.43 9.382 8.79 5.117 13.764 11.463 14.122 17.943.014-.247.035-.493.035-.738-.007-6.736-5.035-13.37-14.157-18.68-10.393-6.05-24.398-9.382-39.43-9.382-15.18 0-29.36 3.387-39.93 9.54-9.178 5.342-14.438 12.267-14.43 19 0 .245.02.49.034.735.363-6.496 5.554-13.112 14.396-18.26"/>
            <path fill="#FFF" d="M101.741 176.476l-1.43.452-32.024 18.642.003.379 23.745 3.592z"/>
            <path fill="#FFF" d="M101.741 176.476l-39.623 5.65 6.172 13.823 15.544-9.048zM65.475 197.587l-.407.022-11.407 6.641-.35.419 35.914-3.482z"/>
            <path fill="#FFF" d="M53.31 204.668l12.166-7.081-6.176-13.82zM68.29 195.948l23.745 3.593-8.202-12.64zM62.118 182.126l6.172 13.822 15.543-9.048z"/>
        </g>
    </g>
</svg>
