<svg xmlns="http://www.w3.org/2000/svg" xmlns:xlink="http://www.w3.org/1999/xlink" width="110" height="114" viewBox="0 0 110 114">
    <defs>
        <path id="prefix__a" d="M0 0.394L109.662 0.394 109.662 113.39 0 113.39z"/>
        <path id="prefix__c" d="M0 0.055L109.662 0.055 109.662 89.005 0 89.005z"/>
    </defs>
    <g fill="none" fill-rule="evenodd">
        <g transform="translate(0 .216)">
            <mask id="prefix__b" fill="#fff">
                <use xlink:href="#prefix__a"/>
            </mask>
            <path fill="#FF672A" d="M42.418 81.17c.256.123.498.256.76.373l.039.024c-.267-.127-.532-.26-.8-.397zm63.274-42.869c-2.385-5.726-7.224-11.907-11.013-13.862 2.703 5.222 4.578 10.83 5.56 16.624l.01.091c-6.207-15.437-16.734-21.662-25.33-35.216-.435-.685-.87-1.372-1.293-2.097-.242-.414-.436-.787-.605-1.13-.357-.689-.632-1.417-.819-2.169.001-.072-.053-.132-.124-.141-.034-.01-.07-.01-.103 0-.008 0-.02.012-.027.015-.009.003-.027.016-.04.021l.02-.036C58.14 8.455 53.462 23.365 53.032 30.823c-5.508.378-10.772 2.402-15.109 5.81-.452-.383-.925-.74-1.416-1.072-1.251-4.368-1.304-8.99-.154-13.385-5.065 2.447-9.565 5.916-13.215 10.188h-.025c-2.176-2.751-2.023-11.823-1.899-13.718-.644.258-1.257.584-1.833.97-1.92 1.368-3.716 2.902-5.365 4.586-1.88 1.901-3.596 3.956-5.132 6.143v.008-.01c-3.53 4.992-6.033 10.631-7.366 16.593l-.073.362c-.104.482-.477 2.896-.54 3.42 0 .04-.009.079-.013.12C.41 53.33.113 55.853 0 58.388v.282c.027 30.248 24.628 54.747 54.95 54.72 26.702-.023 49.515-19.209 54.054-45.459.092-.706.167-1.405.25-2.12 1.13-9.322-.094-18.779-3.562-27.51z" mask="url(#prefix__b)"/>
        </g>
        <g transform="translate(0 24.6)">
            <mask id="prefix__d" fill="#fff">
                <use xlink:href="#prefix__c"/>
            </mask>
            <path fill="#F5156C" d="M105.692 13.916C103.307 8.191 98.468 2.008 94.68.055c2.703 5.221 4.578 10.828 5.56 16.622v.053l.01.058c4.231 12.079 3.62 25.322-1.709 36.962-6.292 13.468-21.522 27.271-45.361 26.6C27.42 79.623 4.735 60.555.494 35.581c-.772-3.938 0-5.935.388-9.135C.353 28.932.058 31.462 0 34.003v.283c.027 30.247 24.628 54.746 54.95 54.72 26.702-.024 49.515-19.21 54.054-45.46.092-.706.167-1.406.25-2.12 1.13-9.322-.094-18.78-3.562-27.51" mask="url(#prefix__d)"/>
        </g>
        <path fill="#FFF44F" d="M79.014 44.955c.12.084.23.166.342.25-1.38-2.44-3.096-4.673-5.1-6.634C57.194 21.547 69.784 1.658 71.908.647l.02-.03C58.14 8.67 53.462 23.58 53.03 31.039c.64-.043 1.275-.097 1.93-.097 9.96.018 19.144 5.368 24.054 14.013"/>
        <path fill="#5C79F0" d="M54.995 48.355c-.09 1.362-4.915 6.06-6.602 6.06-15.612 0-18.146 9.421-18.146 9.421.692 7.933 6.233 14.467 12.932 17.923.306.158.616.301.926.44.538.238 1.074.458 1.612.66 2.299.81 4.707 1.274 7.143 1.375 27.362 1.28 32.663-32.642 12.917-42.485 4.658-.605 9.376.538 13.237 3.206C74.104 36.31 64.92 30.96 54.96 30.942c-.652 0-1.29.054-1.93.098-5.507.377-10.772 2.401-15.108 5.808.838.707 1.782 1.65 3.772 3.608 3.726 3.661 13.28 7.454 13.301 7.899"/>
        <path fill="#FF672A" d="M35.362 35.027c.445.282.812.528 1.133.75-1.25-4.368-1.304-8.99-.154-13.386-5.064 2.448-9.563 5.917-13.214 10.188.267-.006 8.23-.15 12.235 2.448"/>
        <path fill="#FFAF1E" d="M74.26 38.571c2.003 1.964 3.72 4.2 5.098 6.641.302.228.584.454.823.673 12.447 11.445 5.926 27.625 5.44 28.776 10.111-8.31 16.573-20.599 14.63-33.284C94.042 25.933 83.516 19.71 74.92 6.154c-.435-.685-.87-1.372-1.293-2.096-.242-.414-.436-.787-.605-1.131-.356-.69-.632-1.416-.819-2.17.001-.071-.053-.132-.124-.14-.034-.01-.07-.01-.104 0-.007 0-.019.012-.026.015-.009.003-.027.015-.04.021-2.123 1.005-14.715 20.894 2.351 37.918"/>
        <path fill="#FFAF1E" d="M80.173 45.878c-.24-.22-.521-.446-.823-.673-.112-.083-.223-.166-.341-.25-3.862-2.668-8.579-3.811-13.237-3.206 19.745 9.849 14.447 43.765-12.918 42.484-2.435-.1-4.844-.563-7.143-1.374-.537-.201-1.074-.421-1.611-.659-.31-.141-.621-.283-.927-.441l.039.024c3.816 2.598 22.663 8.947 42.37-7.065l.03-.071c.492-1.144 7.014-17.328-5.439-28.77"/>
        <path fill="#FFAF1E" d="M30.247 63.836s2.534-9.42 18.146-9.42c1.687 0 6.515-4.7 6.602-6.062-6.713 2.427-14.111 2.137-20.612-.807-6.413-3.245-14.053-2.94-20.185.807 2.339 5.045 7.435 8.243 13.006 8.16-1.018 8.956 3.728 19.395 15.214 24.87.256.124.497.257.76.374-6.704-3.456-12.239-9.99-12.93-17.922"/>
    </g>
</svg>
