<svg xmlns="http://www.w3.org/2000/svg" width="20" height="20" viewBox="0 0 20 20">
    <path fill="#98A7B4" fill-rule="evenodd" d="M15.013 9.167a17.14 17.14 0 0 0-.41-3.01 15.92 15.92 0 0 0 2.34-.755 8.28 8.28 0 0 1 1.348 3.765h-3.278zm-.418 4.709c.226-.97.369-1.988.418-3.043h3.28a8.27 8.27 0 0 1-1.367 3.793 16.024 16.024 0 0 0-2.33-.75zm-.46 1.597c.583.136 1.135.306 1.665.498a8.375 8.375 0 0 1-2.714 1.763c.409-.693.764-1.447 1.049-2.26zm-8.27 0c.285.814.64 1.568 1.047 2.26A8.35 8.35 0 0 1 4.2 15.971c.53-.191 1.082-.363 1.666-.498zm-.461-1.597c-.824.197-1.6.452-2.331.75a8.269 8.269 0 0 1-1.364-3.793h3.278c.048 1.055.193 2.074.417 3.043zm-.008-7.719c-.22.96-.361 1.967-.41 3.01H1.71a8.271 8.271 0 0 1 1.347-3.765c.734.3 1.514.558 2.34.755zm.458-1.598c-.59-.137-1.148-.31-1.682-.506a8.365 8.365 0 0 1 2.742-1.788 12.882 12.882 0 0 0-1.06 2.294zm1.67.292c.417-1.122.971-2.106 1.642-2.913v3.05a18.625 18.625 0 0 1-1.641-.137zm-.853 4.316c.048-.94.173-1.844.373-2.7.688.101 1.399.159 2.122.187v2.513H6.671zm2.495 5.879v3.017c-.664-.8-1.215-1.772-1.63-2.88.532-.07 1.075-.114 1.63-.137zm-2.115-1.48a15.36 15.36 0 0 1-.38-2.733h2.495v2.548c-.72.028-1.427.085-2.115.185zm6.034-11.3a8.36 8.36 0 0 1 2.743 1.788c-.536.195-1.093.368-1.683.506a12.711 12.711 0 0 0-1.06-2.294zm-2.252 2.722v-3.05c.672.807 1.226 1.791 1.642 2.913-.535.07-1.083.114-1.642.137zm0 4.179V6.654a20.128 20.128 0 0 0 2.123-.186c.2.855.324 1.759.373 2.699h-2.496zm1.63 6.016c-.415 1.108-.965 2.08-1.63 2.88v-3.017c.555.023 1.1.067 1.63.137zm-1.63-1.802v-2.548h2.496c-.05.953-.177 1.867-.381 2.733-.686-.1-1.394-.157-2.115-.185zM10 0C4.477 0 0 4.478 0 10s4.477 10 10 10c5.522 0 10-4.478 10-10S15.522 0 10 0z"/>
</svg>
