<svg xmlns="http://www.w3.org/2000/svg" width="696" height="341" viewBox="0 0 696 341">
    <g fill="none" fill-rule="evenodd">
        <path stroke="#4CE5AB" stroke-dasharray="1,8" stroke-linecap="round" stroke-linejoin="round" stroke-width="3.136" d="M663 276l-62-36M663 323l-62 36"/>
        <path stroke="#4CE5AB" stroke-dasharray="1,8.020000457763672" stroke-linecap="round" stroke-linejoin="round" stroke-width="3.136" d="M712.573 330c-16.713 0-32.28-3.65-43.833-10.277-10.14-5.816-15.73-13.083-15.74-20.462-.008-7.373 5.839-14.96 16.041-20.81C680.791 271.71 696.554 268 713.43 268c16.711 0 32.28 3.65 43.833 10.277 10.14 5.817 15.73 13.084 15.738 20.46.01 7.375-5.837 14.96-16.04 20.813-11.749 6.739-27.514 10.45-44.387 10.45z"/>
        <path fill="#111D28" fill-opacity=".1" d="M684.337 310.46c-7.554-4.358-11.33-10.074-11.337-15.804-.006-5.787 3.832-11.587 11.51-16.016 15.277-8.814 39.97-8.859 55.153-.1 7.554 4.358 11.33 10.074 11.337 15.804.007 5.786-3.832 11.587-11.51 16.016-15.277 8.814-39.97 8.859-55.153.1"/>
        <path fill="#26D198" d="M751 283v6.713c.006 5.693-3.832 11.399-11.51 15.755-15.277 8.67-39.97 8.715-55.153.098-7.554-4.287-11.33-9.909-11.337-15.545V283h78z"/>
        <path fill="#4CE5AB" d="M684.337 299.46c-7.554-4.358-11.33-10.074-11.337-15.804-.006-5.787 3.832-11.587 11.51-16.016 15.277-8.814 39.97-8.859 55.153-.1 7.554 4.358 11.33 10.074 11.337 15.804.007 5.786-3.832 11.587-11.51 16.016-15.277 8.814-39.97 8.859-55.153.1"/>
        <path fill="#26D198" d="M710.758 301c-9.47 0-18.292-2.12-24.84-5.968-5.745-3.377-8.913-7.596-8.918-11.88-.005-4.282 3.309-8.686 9.09-12.084 6.658-3.913 15.59-6.068 25.153-6.068 9.47 0 18.292 2.12 24.839 5.968 5.746 3.377 8.913 7.596 8.918 11.88.005 4.281-3.308 8.686-9.09 12.084-6.657 3.913-15.59 6.068-25.152 6.068"/>
        <path fill="#1AB57D" d="M686.09 271.773c6.658-3.783 15.59-5.866 25.153-5.866 9.47 0 18.292 2.049 24.839 5.769 5.536 3.146 8.67 7.048 8.896 11.032.008-.152.022-.303.022-.454-.005-4.141-3.172-8.22-8.918-11.485-6.547-3.72-15.37-5.769-24.839-5.769-9.562 0-18.495 2.083-25.153 5.866-5.781 3.285-9.095 7.542-9.09 11.682 0 .15.013.302.022.452.228-3.994 3.498-8.062 9.068-11.227"/>
        <path fill="#FFF" d="M706.091 289.556c.9.021 1.692-.168 2.378-.569.62-.36.911-.79.876-1.29-.037-.498-.323-1.085-.86-1.76l-4.98 2.905a5.548 5.548 0 0 0 2.586.714m5.861-9.401c.002.48.227 1.043.675 1.691l4.814-2.808c-.802-.416-1.602-.637-2.401-.665a3.996 3.996 0 0 0-2.196.54c-.597.349-.895.763-.892 1.242m-1.658 13.731c-1.709.218-3.53.123-5.464-.282-1.934-.405-3.825-1.146-5.674-2.225l-2.656 1.55-1.436-.838 2.723-1.588c-2.23-1.533-3.476-3.112-3.74-4.737-.264-1.627.577-3.098 2.525-4.415l6.08 3.546c-.642.452-1 .94-1.075 1.465-.075.524.145 1.04.659 1.546l5.278-3.08a8.305 8.305 0 0 1-.503-.564c-1.161-1.22-2.022-2.27-2.58-3.151-.56-.882-.744-1.815-.549-2.799.194-.984 1.067-1.927 2.616-2.831 1.35-.788 2.907-1.261 4.672-1.42 1.763-.158 3.563-.02 5.397.418a20.716 20.716 0 0 1 5.223 2.02l2.723-1.588 1.436.838-2.755 1.608c2.294 1.519 3.552 3.059 3.77 4.62.22 1.561-.589 2.98-2.424 4.26l-6.18-3.605c.574-.44.893-.886.958-1.339.064-.453-.127-.9-.573-1.341l-5.18 3.02.704.799c1.116 1.245 1.944 2.302 2.482 3.17.537.87.709 1.789.514 2.76-.194.97-1.045 1.895-2.55 2.773-1.24.723-2.713 1.194-4.421 1.41"/>
        <path fill="#111D28" fill-opacity=".1" d="M678.337 299.46c-7.554-4.358-11.33-10.074-11.337-15.804-.007-5.787 3.832-11.587 11.51-16.016 15.277-8.814 39.97-8.859 55.153-.1 7.554 4.358 11.33 10.074 11.337 15.804.007 5.786-3.832 11.587-11.51 16.016-15.277 8.814-39.97 8.859-55.153.1"/>
        <path fill="#26D198" d="M745 273v6.713c.006 5.693-3.832 11.398-11.51 15.755-15.277 8.67-39.971 8.715-55.153.098-7.554-4.287-11.33-9.909-11.337-15.545V273h78z"/>
        <path fill="#4CE5AB" d="M678.337 288.46c-7.554-4.358-11.33-10.074-11.337-15.804-.007-5.786 3.832-11.587 11.51-16.016 15.277-8.814 39.97-8.859 55.153-.1 7.554 4.358 11.33 10.074 11.337 15.804.007 5.786-3.832 11.587-11.51 16.016-15.277 8.814-39.97 8.859-55.153.1"/>
        <path fill="#26D198" d="M705.758 291c-9.47 0-18.292-2.12-24.839-5.967-5.746-3.377-8.914-7.597-8.919-11.881-.004-4.281 3.309-8.686 9.09-12.084 6.658-3.913 15.59-6.068 25.153-6.068 9.47 0 18.292 2.12 24.839 5.968 5.746 3.377 8.913 7.596 8.918 11.88.005 4.281-3.308 8.686-9.09 12.084-6.657 3.913-15.59 6.068-25.152 6.068"/>
        <path fill="#1AB57D" d="M681.09 261.773c6.658-3.783 15.59-5.866 25.153-5.866 9.47 0 18.292 2.049 24.839 5.769 5.536 3.146 8.67 7.047 8.896 11.032.008-.152.022-.303.022-.454-.005-4.141-3.172-8.22-8.918-11.485-6.547-3.72-15.369-5.769-24.839-5.769-9.562 0-18.495 2.083-25.153 5.866-5.781 3.285-9.094 7.542-9.09 11.682 0 .15.014.302.022.452.228-3.994 3.498-8.062 9.068-11.227"/>
        <path fill="#FFF" d="M701.09 279.556c.9.021 1.693-.168 2.38-.569.618-.36.91-.791.875-1.29-.037-.498-.323-1.085-.86-1.76l-4.98 2.905a5.549 5.549 0 0 0 2.586.714m5.861-9.401c.002.48.227 1.042.675 1.691l4.814-2.808c-.802-.416-1.603-.637-2.401-.665a3.996 3.996 0 0 0-2.196.54c-.597.349-.895.762-.892 1.242m-1.658 13.731c-1.709.218-3.53.123-5.464-.282-1.934-.405-3.825-1.147-5.674-2.225l-2.656 1.55-1.436-.838 2.723-1.588c-2.23-1.533-3.476-3.112-3.74-4.737-.264-1.627.577-3.098 2.525-4.415l6.08 3.546c-.642.452-1 .94-1.075 1.465-.075.524.145 1.04.659 1.546l5.278-3.08a8.396 8.396 0 0 1-.503-.564c-1.161-1.22-2.022-2.27-2.58-3.152-.56-.881-.744-1.814-.549-2.798.194-.984 1.067-1.928 2.616-2.831 1.35-.788 2.907-1.261 4.672-1.42 1.763-.158 3.563-.02 5.397.418a20.711 20.711 0 0 1 5.223 2.02l2.723-1.588 1.436.838-2.756 1.608c2.295 1.519 3.552 3.059 3.772 4.62.22 1.561-.59 2.98-2.425 4.26l-6.18-3.605c.574-.44.893-.886.958-1.339.064-.453-.127-.9-.574-1.341l-5.179 3.02.704.799c1.116 1.245 1.944 2.302 2.482 3.17.537.87.709 1.789.514 2.76-.194.97-1.045 1.895-2.55 2.773-1.24.723-2.713 1.194-4.421 1.41"/>
        <path fill="#111D28" fill-opacity=".1" d="M686.337 289.46c-7.554-4.358-11.33-10.074-11.337-15.804-.006-5.786 3.832-11.587 11.51-16.016 15.277-8.814 39.97-8.859 55.153-.1 7.554 4.358 11.33 10.074 11.337 15.804.007 5.786-3.832 11.587-11.51 16.016-15.277 8.814-39.97 8.859-55.153.1"/>
        <path fill="#26D198" d="M753 262v6.713c.006 5.693-3.832 11.398-11.51 15.755-15.277 8.67-39.97 8.715-55.153.098-7.554-4.286-11.33-9.909-11.337-15.545V262h78z"/>
        <path fill="#4CE5AB" d="M686.337 278.46c-7.554-4.358-11.33-10.074-11.337-15.804-.006-5.787 3.832-11.587 11.51-16.016 15.277-8.814 39.97-8.859 55.153-.1 7.554 4.358 11.33 10.074 11.337 15.804.007 5.786-3.832 11.587-11.51 16.016-15.277 8.814-39.97 8.859-55.153.1"/>
        <path fill="#26D198" d="M713.758 280c-9.47 0-18.292-2.12-24.839-5.967-5.746-3.378-8.914-7.597-8.919-11.881-.004-4.281 3.309-8.686 9.09-12.084 6.658-3.913 15.59-6.068 25.153-6.068 9.47 0 18.292 2.12 24.839 5.968 5.746 3.377 8.913 7.596 8.918 11.88.005 4.281-3.308 8.686-9.09 12.084-6.657 3.913-15.59 6.068-25.152 6.068"/>
        <path fill="#1AB57D" d="M689.09 250.773c6.658-3.783 15.59-5.866 25.153-5.866 9.47 0 18.292 2.049 24.839 5.769 5.536 3.146 8.67 7.048 8.896 11.032.009-.151.022-.303.022-.454-.005-4.141-3.172-8.22-8.918-11.485-6.547-3.72-15.37-5.769-24.839-5.769-9.562 0-18.495 2.083-25.153 5.866-5.781 3.285-9.095 7.542-9.09 11.682 0 .151.013.302.022.452.228-3.994 3.498-8.062 9.068-11.227"/>
        <path fill="#111D28" fill-opacity=".1" d="M681.337 278.46c-7.554-4.358-11.33-10.074-11.337-15.804-.007-5.786 3.832-11.587 11.51-16.016 15.277-8.814 39.971-8.859 55.153-.1 7.554 4.358 11.33 10.074 11.337 15.804.007 5.786-3.832 11.587-11.51 16.016-15.277 8.814-39.97 8.859-55.153.1"/>
        <path fill="#26D198" d="M748 252v6.713c.007 5.693-3.832 11.398-11.51 15.755-15.277 8.67-39.97 8.715-55.153.098-7.554-4.286-11.33-9.909-11.337-15.545V252h78z"/>
        <path fill="#4CE5AB" d="M681.337 267.46c-7.554-4.358-11.33-10.074-11.337-15.804-.007-5.787 3.832-11.587 11.51-16.016 15.277-8.814 39.971-8.859 55.153-.1 7.554 4.358 11.33 10.074 11.337 15.804.007 5.786-3.832 11.587-11.51 16.016-15.277 8.814-39.97 8.859-55.153.1"/>
        <path fill="#26D198" d="M708.758 270c-9.47 0-18.292-2.12-24.84-5.967-5.745-3.378-8.913-7.597-8.918-11.881-.005-4.281 3.309-8.686 9.09-12.084 6.658-3.913 15.59-6.068 25.153-6.068 9.47 0 18.292 2.12 24.839 5.968 5.746 3.377 8.913 7.596 8.918 11.88.005 4.281-3.308 8.686-9.09 12.084-6.657 3.913-15.59 6.068-25.152 6.068"/>
        <path fill="#1AB57D" d="M684.09 240.773c6.658-3.783 15.59-5.866 25.153-5.866 9.47 0 18.292 2.049 24.839 5.769 5.536 3.146 8.67 7.048 8.896 11.032.008-.151.022-.303.022-.454-.005-4.141-3.172-8.22-8.918-11.485-6.547-3.72-15.37-5.769-24.839-5.769-9.562 0-18.495 2.083-25.153 5.866-5.781 3.285-9.095 7.542-9.09 11.682 0 .15.013.302.022.452.228-3.994 3.498-8.062 9.068-11.227"/>
        <path fill="#4CE5AB" d="M703.09 258.556c.9.021 1.693-.168 2.38-.569.618-.36.91-.79.875-1.29-.037-.498-.323-1.085-.86-1.76l-4.98 2.905a5.546 5.546 0 0 0 2.586.714m5.861-9.401c.002.48.227 1.043.675 1.691l4.814-2.808c-.802-.416-1.603-.637-2.401-.665a3.998 3.998 0 0 0-2.196.54c-.597.349-.895.763-.892 1.242m-1.658 13.731c-1.709.218-3.53.123-5.464-.282-1.934-.405-3.825-1.146-5.673-2.225l-2.656 1.55-1.437-.838 2.723-1.588c-2.23-1.532-3.476-3.112-3.74-4.737-.264-1.627.578-3.098 2.525-4.415l6.08 3.546c-.642.453-1 .94-1.075 1.465-.075.524.145 1.04.658 1.546l5.28-3.08a8.358 8.358 0 0 1-.504-.564c-1.16-1.22-2.022-2.27-2.58-3.151-.56-.882-.744-1.815-.549-2.799.194-.984 1.067-1.927 2.616-2.831 1.35-.788 2.907-1.261 4.672-1.42 1.763-.158 3.563-.019 5.397.418a20.7 20.7 0 0 1 5.223 2.02l2.723-1.588 1.436.838-2.756 1.607c2.295 1.52 3.552 3.06 3.772 4.621.22 1.561-.59 2.98-2.425 4.26l-6.18-3.605c.574-.44.893-.886.958-1.339.064-.453-.127-.9-.574-1.341l-5.179 3.02.704.799c1.116 1.245 1.944 2.302 2.482 3.17.537.87.709 1.789.514 2.76-.194.971-1.045 1.895-2.55 2.773-1.24.723-2.713 1.194-4.421 1.41"/>
        <path stroke="#4CE5AB" stroke-dasharray="1,8.020000457763672" stroke-linecap="round" stroke-linejoin="round" stroke-width="3.136" d="M397.573 330c-16.713 0-32.28-3.65-43.833-10.277-10.14-5.816-15.73-13.083-15.74-20.462-.008-7.373 5.839-14.96 16.041-20.81C365.791 271.71 381.554 268 398.43 268c16.711 0 32.28 3.65 43.833 10.277 10.14 5.817 15.73 13.084 15.738 20.46.01 7.375-5.837 14.96-16.04 20.813-11.749 6.739-27.514 10.45-44.387 10.45zM554.573 249c-16.713 0-32.28-3.65-43.833-10.277-10.14-5.816-15.73-13.083-15.74-20.462-.008-7.373 5.839-14.96 16.041-20.81C522.791 190.71 538.554 187 555.43 187c16.711 0 32.28 3.65 43.833 10.277 10.14 5.817 15.73 13.083 15.738 20.46.01 7.375-5.837 14.96-16.04 20.813-11.749 6.739-27.514 10.45-44.387 10.45z"/>
        <path stroke="#4CE5AB" stroke-dasharray="1,8" stroke-linecap="round" stroke-linejoin="round" stroke-width="3.136" d="M240.573 249c-16.713 0-32.28-3.65-43.833-10.277-10.14-5.816-15.73-13.083-15.74-20.462-.008-7.373 5.839-14.96 16.041-20.81C208.791 190.71 224.554 187 241.43 187c16.711 0 32.28 3.65 43.833 10.277 10.14 5.817 15.73 13.084 15.738 20.46.01 7.375-5.837 14.96-16.04 20.813-11.749 6.739-27.514 10.45-44.387 10.45zM349 276l-62-36M447 276l62-36M349 323l-62 36M447 323l62 36M133 276l62-36M133 323l62 36M349 159l-62 36M34 323l-62 36M447 159l62 36M133 159l62 36"/>
        <path fill="#111D28" fill-opacity=".1" d="M527.337 235.46c-7.554-4.358-11.33-10.074-11.337-15.804-.006-5.786 3.832-11.587 11.51-16.016 15.277-8.814 39.97-8.859 55.153-.1 7.554 4.358 11.33 10.074 11.337 15.804.007 5.786-3.832 11.587-11.51 16.016-15.277 8.814-39.97 8.859-55.153.1"/>
        <path fill="#26D198" d="M594 208v6.713c.006 5.693-3.832 11.398-11.51 15.755-15.277 8.67-39.97 8.715-55.153.098-7.554-4.286-11.33-9.909-11.337-15.545V208h78z"/>
        <path fill="#4CE5AB" d="M527.337 224.46c-7.554-4.358-11.33-10.074-11.337-15.804-.006-5.787 3.832-11.587 11.51-16.016 15.277-8.814 39.97-8.859 55.153-.1 7.554 4.358 11.33 10.074 11.337 15.804.007 5.786-3.832 11.587-11.51 16.016-15.277 8.814-39.97 8.859-55.153.1"/>
        <path fill="#26D198" d="M554.758 226c-9.47 0-18.292-2.12-24.84-5.967-5.745-3.378-8.913-7.597-8.918-11.881-.005-4.281 3.309-8.686 9.09-12.084 6.658-3.913 15.59-6.068 25.153-6.068 9.47 0 18.292 2.12 24.839 5.968 5.746 3.377 8.913 7.596 8.918 11.88.005 4.281-3.308 8.686-9.09 12.084-6.657 3.913-15.59 6.068-25.152 6.068"/>
        <path fill="#1AB57D" d="M530.09 196.773c6.658-3.783 15.59-5.866 25.153-5.866 9.47 0 18.292 2.049 24.839 5.769 5.536 3.146 8.67 7.048 8.896 11.032.009-.151.022-.303.022-.454-.005-4.141-3.172-8.22-8.918-11.485-6.547-3.72-15.37-5.769-24.839-5.769-9.562 0-18.495 2.083-25.153 5.866-5.781 3.285-9.095 7.542-9.09 11.682 0 .15.013.302.022.452.228-3.994 3.498-8.062 9.068-11.227"/>
        <path fill="#4CE5AB" d="M555.392 213.19c-.354.083-.704.13-1.052.142a5.513 5.513 0 0 1-1.134-.09 11.942 11.942 0 0 1-1.12-.249 11.606 11.606 0 0 1-1.136-.387 19.68 19.68 0 0 1-1.072-.453 25.812 25.812 0 0 1-1.022-.508 30.867 30.867 0 0 1-.892-.48 69.954 69.954 0 0 1-.778-.452l-.597-.35 5.498-3.13c.087.05.352.194.794.434.442.239.799.436 1.072.592.272.155.633.378 1.08.67.448.292.803.55 1.066.773.262.224.519.484.77.782.253.298.401.57.446.818.045.248-.002.505-.143.771-.14.266-.405.51-.795.733-.304.173-.632.3-.985.384zm4.194-10.227c.076.044.295.165.655.364.36.199.66.364.9.494s.543.319.909.564c.366.245.658.461.876.647.22.186.43.408.632.665.203.258.313.493.33.707.018.214-.044.438-.184.673-.14.235-.389.455-.746.659-.304.172-.63.302-.977.388a3.73 3.73 0 0 1-1.068.105 10.899 10.899 0 0 1-1.046-.095 5.774 5.774 0 0 1-1.094-.28c-.398-.14-.739-.266-1.022-.378a10.799 10.799 0 0 1-.99-.462 79.18 79.18 0 0 1-.85-.447 23.271 23.271 0 0 1-.762-.434c-.317-.186-.502-.295-.557-.326l4.994-2.844zm4.023 10.552c.181-.823-.215-1.684-1.189-2.584 2.45.456 4.564.066 6.342-1.169.65-.445 1.071-.911 1.264-1.4.193-.49.166-.986-.082-1.492-.247-.505-.62-.995-1.118-1.47-.497-.474-1.14-.979-1.925-1.513l4.099-2.334-2.52-1.435-3.986 2.27c-.437-.25-1.113-.622-2.03-1.12l4.018-2.287-2.52-1.435-4.1 2.334c-.371-.2-.906-.497-1.604-.895L554.804 197l-2.668 1.52 1.817 1.033c.83.473.947.959.351 1.46l-4.669 2.658c.11.062.191.115.246.158l-.262-.149-6.539 3.723c-.64.265-1.233.243-1.78-.068l-1.816-1.034-3.484 1.406 3.274 1.864c.207.118.504.29.892.517.388.226.68.396.876.507l-4.148 2.362 2.521 1.436 4.1-2.334c.447.267 1.107.649 1.98 1.146l-4.083 2.325 2.52 1.435 4.149-2.362c.938.485 1.813.891 2.625 1.217a18.51 18.51 0 0 0 2.55.813c.888.215 1.734.336 2.54.362.805.026 1.64-.048 2.504-.223.863-.175 1.718-.46 2.565-.855 1.65-.777 2.564-1.578 2.744-2.402z"/>
        <path fill="#40A0FF" d="M533.337 373.46c-7.554-4.358-11.33-10.074-11.337-15.804-.006-5.787 3.832-11.587 11.51-16.016 15.277-8.814 39.97-8.859 55.153-.1 7.554 4.358 11.33 10.074 11.337 15.804.007 5.786-3.832 11.587-11.51 16.016-15.277 8.814-39.97 8.859-55.153.1"/>
        <path fill="#1A82FF" d="M560.758 376c-9.47 0-18.292-2.12-24.84-5.967-5.745-3.377-8.913-7.597-8.918-11.881-.005-4.281 3.309-8.686 9.09-12.084 6.658-3.913 15.59-6.068 25.153-6.068 9.47 0 18.292 2.12 24.839 5.968 5.746 3.377 8.913 7.596 8.918 11.88.005 4.281-3.308 8.686-9.09 12.084-6.657 3.913-15.59 6.068-25.152 6.068"/>
        <path fill="#0F7CE8" d="M536.09 346.773c6.658-3.783 15.59-5.866 25.153-5.866 9.47 0 18.292 2.049 24.839 5.769 5.536 3.146 8.67 7.048 8.896 11.032.008-.151.022-.303.022-.454-.005-4.141-3.172-8.22-8.918-11.485-6.547-3.72-15.37-5.769-24.839-5.769-9.562 0-18.495 2.083-25.153 5.866-5.781 3.285-9.095 7.542-9.09 11.682 0 .151.013.302.022.452.228-3.994 3.498-8.062 9.068-11.227"/>
        <path fill="#111D28" d="M528.337 373.46c-7.554-4.358-11.33-10.074-11.337-15.804-.006-5.786 3.832-11.587 11.51-16.016 15.277-8.814 39.97-8.859 55.153-.1 7.554 4.358 11.33 10.074 11.337 15.804.007 5.786-3.832 11.587-11.51 16.016-15.277 8.814-39.97 8.859-55.153.1"/>
        <path fill="#4CE5AB" d="M528.337 363.46c-7.554-4.358-11.33-10.074-11.337-15.804-.006-5.787 3.832-11.587 11.51-16.016 15.277-8.814 39.97-8.859 55.153-.1 7.554 4.358 11.33 10.074 11.337 15.804.007 5.786-3.832 11.587-11.51 16.016-15.277 8.814-39.97 8.859-55.153.1"/>
        <path fill="#26D198" d="M554.758 365c-9.47 0-18.292-2.12-24.839-5.967-5.746-3.378-8.914-7.597-8.919-11.881-.004-4.281 3.309-8.686 9.09-12.084 6.658-3.913 15.59-6.068 25.153-6.068 9.47 0 18.292 2.12 24.839 5.968 5.746 3.377 8.913 7.596 8.918 11.88.005 4.281-3.308 8.686-9.09 12.084-6.657 3.913-15.59 6.068-25.152 6.068"/>
        <path fill="#1AB57D" d="M530.09 335.773c6.658-3.783 15.59-5.866 25.153-5.866 9.47 0 18.292 2.049 24.839 5.769 5.536 3.146 8.67 7.048 8.896 11.032.009-.152.022-.303.022-.454-.005-4.141-3.172-8.22-8.918-11.485-6.547-3.72-15.37-5.769-24.839-5.769-9.562 0-18.495 2.083-25.153 5.866-5.781 3.285-9.095 7.542-9.09 11.682 0 .151.013.302.022.452.228-3.994 3.498-8.062 9.068-11.227"/>
        <path fill="#4CE5AB" d="M528 342.1l8.805 5.157 10.905-6.388.097.015.044 10.553 17.966.025-10.933 6.404 8.763 5.134 5.938-1.447c-1.901-1.125-3.815-2.241-5.725-3.36-.085-.05-.162-.105-.27-.175l17.41-10.2-27.076-.045L553.85 332l-8.65 5.067-8.7 5.097c-.126-.073-.214-.124-.3-.176-1.887-1.105-3.769-2.212-5.666-3.311L528 342.099z"/>
        <path fill="#7A54EF" d="M207.337 374.46c-7.554-4.358-11.33-10.074-11.337-15.804-.007-5.787 3.832-11.587 11.51-16.016 15.277-8.814 39.971-8.859 55.153-.1 7.554 4.358 11.33 10.074 11.337 15.804.007 5.786-3.832 11.587-11.51 16.016-15.277 8.814-39.97 8.859-55.153.1"/>
        <path fill="#6E3BEA" d="M233.758 376c-9.47 0-18.292-2.12-24.84-5.967-5.745-3.378-8.913-7.597-8.918-11.881-.005-4.281 3.309-8.686 9.09-12.084 6.658-3.913 15.59-6.068 25.153-6.068 9.47 0 18.292 2.12 24.839 5.968 5.746 3.377 8.913 7.596 8.918 11.88.005 4.281-3.308 8.686-9.09 12.084-6.657 3.913-15.59 6.068-25.152 6.068"/>
        <path fill="#5028CE" d="M209.09 346.773c6.658-3.783 15.59-5.866 25.153-5.866 9.47 0 18.292 2.049 24.839 5.769 5.536 3.146 8.67 7.048 8.896 11.032.008-.151.022-.303.022-.454-.005-4.141-3.172-8.22-8.918-11.485-6.547-3.72-15.37-5.769-24.839-5.769-9.562 0-18.495 2.083-25.153 5.866-5.781 3.285-9.095 7.542-9.09 11.682 0 .15.013.302.022.452.228-3.994 3.498-8.062 9.068-11.227"/>
        <path fill="#111D28" d="M215.337 374.46c-7.554-4.358-11.33-10.074-11.337-15.804-.007-5.787 3.832-11.587 11.51-16.016 15.277-8.814 39.97-8.859 55.153-.1 7.554 4.358 11.33 10.074 11.337 15.804.007 5.786-3.832 11.587-11.51 16.016-15.277 8.814-39.97 8.859-55.153.1"/>
        <path fill="#4CE5AB" d="M215.337 363.46c-7.554-4.358-11.33-10.074-11.337-15.804-.007-5.787 3.832-11.587 11.51-16.016 15.277-8.814 39.97-8.859 55.153-.1 7.554 4.358 11.33 10.074 11.337 15.804.007 5.786-3.832 11.587-11.51 16.016-15.277 8.814-39.97 8.859-55.153.1"/>
        <path fill="#26D198" d="M241.758 366c-9.47 0-18.292-2.12-24.84-5.968-5.745-3.377-8.913-7.596-8.918-11.88-.005-4.282 3.309-8.686 9.09-12.084 6.658-3.913 15.59-6.068 25.153-6.068 9.47 0 18.292 2.12 24.839 5.968 5.746 3.377 8.913 7.596 8.918 11.88.005 4.281-3.308 8.686-9.09 12.084-6.657 3.913-15.59 6.068-25.152 6.068"/>
        <path fill="#1AB57D" d="M217.09 336.773c6.658-3.783 15.59-5.866 25.153-5.866 9.47 0 18.292 2.049 24.839 5.769 5.536 3.146 8.67 7.048 8.896 11.032.008-.152.022-.303.022-.454-.005-4.141-3.172-8.22-8.918-11.485-6.547-3.72-15.37-5.769-24.839-5.769-9.562 0-18.495 2.083-25.153 5.866-5.781 3.285-9.095 7.542-9.09 11.682 0 .15.013.301.022.452.228-3.994 3.498-8.063 9.068-11.227"/>
        <path fill="#4CE5AB" d="M247.694 348.446c1.649 1.196 3.352 2.37 4.906 3.604.713.566 1.228 1.232 1.652 1.89.434.67-.13.975-1.358.777a14.15 14.15 0 0 1-2.04-.492c-3.287-1.05-6.187-2.411-8.838-3.91a129.8 129.8 0 0 1-8.443-5.234c-1.286-.863-2.201-1.911-3.2-2.902-.338-.334-.764-.85-.071-1.105.453-.167 1.39-.086 1.974.062 3.573.906 6.431 2.39 9.454 3.88l-2.11 1.2c-1.55.881-1.556.884-.019 1.77 1.25.719 2.513 1.43 3.834 2.182l3.646-2.074c.247.14.453.236.613.352m10.4 1.812l4.906-2.79L242.84 336l-4.869 2.77 7.312 4.159-3.17 1.803c-1.658-.765-3.226-1.575-4.948-2.26-1.79-.711-3.699-1.331-5.613-1.933-.872-.274-2.002-.54-2.836-.083-.89.488-.353 1.157.133 1.651a47.74 47.74 0 0 0 3.798 3.473c1.065.871 2.347 1.657 3.599 2.527L226 353.935l5.388 3.065 10.156-5.777c2.495 1.08 4.82 2.161 7.289 3.125 1.374.537 2.932.963 4.503 1.285 1.742.356 2.57-.16 2.062-1.188-.594-1.205-1.792-2.24-3.088-3.229-1.49-1.136-3.081-2.23-4.678-3.378l3.103-1.765 7.358 4.185"/>
        <path fill="#111D28" fill-opacity=".1" d="M369.337 310.46c-7.554-4.358-11.33-10.074-11.337-15.804-.007-5.787 3.832-11.587 11.51-16.016 15.277-8.814 39.971-8.859 55.153-.1 7.554 4.358 11.33 10.074 11.337 15.804.007 5.786-3.832 11.587-11.51 16.016-15.277 8.814-39.97 8.859-55.153.1"/>
        <path fill="#26D198" d="M436 283v6.713c.007 5.693-3.832 11.399-11.51 15.755-15.277 8.67-39.971 8.715-55.153.098-7.554-4.287-11.33-9.909-11.337-15.545V283h78z"/>
        <path fill="#4CE5AB" d="M369.337 299.46c-7.554-4.358-11.33-10.074-11.337-15.804-.007-5.787 3.832-11.587 11.51-16.016 15.277-8.814 39.971-8.859 55.153-.1 7.554 4.358 11.33 10.074 11.337 15.804.007 5.786-3.832 11.587-11.51 16.016-15.277 8.814-39.97 8.859-55.153.1"/>
        <path fill="#26D198" d="M396.758 301c-9.47 0-18.292-2.12-24.84-5.968-5.745-3.377-8.913-7.596-8.918-11.88-.005-4.282 3.309-8.686 9.09-12.084 6.658-3.913 15.59-6.068 25.153-6.068 9.47 0 18.292 2.12 24.839 5.968 5.746 3.377 8.913 7.596 8.918 11.88.005 4.281-3.308 8.686-9.09 12.084-6.657 3.913-15.59 6.068-25.152 6.068"/>
        <path fill="#1AB57D" d="M372.09 271.773c6.658-3.783 15.59-5.866 25.153-5.866 9.47 0 18.292 2.049 24.839 5.769 5.536 3.146 8.67 7.048 8.896 11.032.008-.152.022-.303.022-.454-.005-4.141-3.172-8.22-8.918-11.485-6.547-3.72-15.37-5.769-24.839-5.769-9.562 0-18.495 2.083-25.153 5.866-5.781 3.285-9.095 7.542-9.09 11.682 0 .15.013.302.022.452.228-3.994 3.498-8.062 9.068-11.227"/>
        <path fill="#FFF" d="M391.09 289.556c.9.021 1.693-.168 2.38-.569.618-.36.91-.79.875-1.29-.037-.498-.323-1.085-.86-1.76l-4.98 2.905a5.55 5.55 0 0 0 2.586.714m5.861-9.401c.002.48.227 1.043.675 1.691l4.814-2.808c-.802-.416-1.603-.637-2.401-.665a3.996 3.996 0 0 0-2.196.54c-.597.349-.895.763-.892 1.242m-1.658 13.731c-1.709.218-3.53.123-5.464-.282-1.934-.405-3.825-1.146-5.673-2.225l-2.656 1.55-1.437-.838 2.723-1.588c-2.23-1.533-3.476-3.112-3.74-4.737-.264-1.627.578-3.098 2.525-4.415l6.08 3.546c-.642.452-1 .94-1.075 1.465-.075.524.145 1.04.658 1.546l5.28-3.08a8.267 8.267 0 0 1-.504-.564c-1.16-1.22-2.022-2.27-2.58-3.151-.56-.882-.744-1.815-.549-2.799.194-.984 1.067-1.927 2.616-2.831 1.35-.788 2.907-1.261 4.672-1.42 1.763-.158 3.563-.02 5.397.418a20.711 20.711 0 0 1 5.223 2.02l2.723-1.588 1.436.838-2.756 1.608c2.295 1.519 3.552 3.059 3.772 4.62.22 1.561-.59 2.98-2.425 4.26l-6.18-3.605c.574-.44.893-.886.958-1.339.064-.453-.127-.9-.574-1.341l-5.179 3.02.704.799c1.116 1.245 1.944 2.302 2.482 3.17.537.87.709 1.789.514 2.76-.194.97-1.045 1.895-2.55 2.773-1.24.723-2.713 1.194-4.421 1.41"/>
        <path fill="#111D28" fill-opacity=".1" d="M374.337 294.46c-7.554-4.358-11.33-10.074-11.337-15.804-.006-5.787 3.832-11.587 11.51-16.016 15.277-8.814 39.97-8.859 55.153-.1 7.554 4.358 11.33 10.074 11.337 15.804.007 5.786-3.832 11.587-11.51 16.016-15.277 8.814-39.97 8.859-55.153.1"/>
        <path fill="#26D198" d="M441 267v6.713c.006 5.693-3.832 11.399-11.51 15.755-15.277 8.67-39.97 8.715-55.153.098-7.554-4.286-11.33-9.909-11.337-15.545V267h78z"/>
        <path fill="#4CE5AB" d="M374.337 283.46c-7.554-4.358-11.33-10.074-11.337-15.804-.006-5.787 3.832-11.587 11.51-16.016 15.277-8.814 39.97-8.859 55.153-.1 7.554 4.358 11.33 10.074 11.337 15.804.007 5.786-3.832 11.587-11.51 16.016-15.277 8.814-39.97 8.859-55.153.1"/>
        <path fill="#26D198" d="M401.758 286c-9.47 0-18.292-2.12-24.839-5.967-5.746-3.378-8.914-7.597-8.919-11.881-.004-4.281 3.309-8.686 9.09-12.084 6.658-3.913 15.59-6.068 25.153-6.068 9.47 0 18.292 2.12 24.839 5.968 5.746 3.377 8.913 7.596 8.918 11.88.005 4.281-3.308 8.686-9.09 12.084-6.657 3.913-15.59 6.068-25.152 6.068"/>
        <path fill="#1AB57D" d="M377.09 256.773c6.658-3.783 15.59-5.866 25.153-5.866 9.47 0 18.292 2.049 24.839 5.769 5.536 3.146 8.67 7.048 8.896 11.032.009-.151.022-.303.022-.454-.005-4.141-3.172-8.22-8.918-11.485-6.547-3.72-15.37-5.769-24.839-5.769-9.562 0-18.495 2.083-25.153 5.866-5.781 3.285-9.095 7.542-9.09 11.682 0 .15.013.302.022.452.228-3.994 3.498-8.062 9.068-11.227"/>
        <path stroke="#4CE5AB" stroke-dasharray="1,8.020000457763672" stroke-linecap="round" stroke-linejoin="round" stroke-width="3.136" d="M84.573 330c-16.713 0-32.28-3.65-43.833-10.277C30.6 313.907 25.01 306.64 25 299.26c-.008-7.373 5.839-14.96 16.041-20.81C52.791 271.71 68.554 268 85.43 268c16.711 0 32.28 3.65 43.833 10.277 10.14 5.817 15.73 13.084 15.738 20.46.01 7.375-5.837 14.96-16.04 20.813-11.749 6.739-27.514 10.45-44.387 10.45z"/>
        <path fill="#111D28" fill-opacity=".1" d="M55.337 310.46c-7.554-4.358-11.33-10.074-11.337-15.804-.007-5.787 3.832-11.587 11.51-16.016 15.277-8.814 39.971-8.859 55.153-.1 7.554 4.358 11.33 10.074 11.337 15.804.007 5.786-3.832 11.587-11.51 16.016-15.277 8.814-39.97 8.859-55.153.1"/>
        <path fill="#26D198" d="M122 283v6.713c.007 5.693-3.832 11.399-11.51 15.755-15.277 8.67-39.97 8.715-55.153.098-7.554-4.287-11.33-9.909-11.337-15.545V283h78z"/>
        <path fill="#4CE5AB" d="M55.337 299.46c-7.554-4.358-11.33-10.074-11.337-15.804-.007-5.787 3.832-11.587 11.51-16.016 15.277-8.814 39.971-8.859 55.153-.1 7.554 4.358 11.33 10.074 11.337 15.804.007 5.786-3.832 11.587-11.51 16.016-15.277 8.814-39.97 8.859-55.153.1"/>
        <path fill="#26D198" d="M82.758 301c-9.47 0-18.292-2.12-24.84-5.968-5.745-3.377-8.913-7.596-8.918-11.88-.005-4.282 3.309-8.686 9.09-12.084C64.748 267.155 73.68 265 83.243 265c9.47 0 18.292 2.12 24.839 5.968 5.746 3.377 8.913 7.596 8.918 11.88.005 4.281-3.308 8.686-9.09 12.084-6.657 3.913-15.59 6.068-25.152 6.068"/>
        <path fill="#1AB57D" d="M58.09 271.773c6.658-3.783 15.59-5.866 25.153-5.866 9.47 0 18.292 2.049 24.839 5.769 5.536 3.146 8.67 7.048 8.896 11.032.008-.152.022-.303.022-.454-.005-4.141-3.172-8.22-8.918-11.485-6.547-3.72-15.37-5.769-24.839-5.769-9.562 0-18.495 2.083-25.153 5.866-5.781 3.285-9.095 7.542-9.09 11.682 0 .15.013.302.022.452.228-3.994 3.498-8.062 9.068-11.227"/>
        <path fill="#FFF" d="M77.091 289.556c.9.021 1.692-.168 2.378-.569.62-.36.911-.79.876-1.29-.037-.498-.323-1.085-.86-1.76l-4.98 2.905a5.548 5.548 0 0 0 2.586.714m5.86-9.401c.003.48.228 1.043.676 1.691l4.814-2.808c-.802-.416-1.602-.637-2.401-.665a3.996 3.996 0 0 0-2.196.54c-.597.349-.895.763-.892 1.242m-1.658 13.731c-1.709.218-3.53.123-5.464-.282-1.934-.405-3.825-1.146-5.674-2.225l-2.656 1.55-1.436-.838 2.723-1.588c-2.23-1.533-3.476-3.112-3.74-4.737-.264-1.627.577-3.098 2.525-4.415l6.08 3.546c-.642.452-1 .94-1.075 1.465-.075.524.145 1.04.659 1.546l5.278-3.08a8.305 8.305 0 0 1-.503-.564c-1.161-1.22-2.022-2.27-2.58-3.151-.56-.882-.744-1.815-.549-2.799.194-.984 1.067-1.927 2.616-2.831 1.35-.788 2.907-1.261 4.672-1.42 1.763-.158 3.563-.02 5.397.418a20.716 20.716 0 0 1 5.223 2.02l2.723-1.588 1.436.838-2.755 1.608c2.294 1.519 3.552 3.059 3.77 4.62.22 1.561-.589 2.98-2.424 4.26l-6.18-3.605c.574-.44.893-.886.958-1.339.064-.453-.127-.9-.573-1.341l-5.18 3.02.704.799c1.116 1.245 1.943 2.302 2.482 3.17.537.87.709 1.789.514 2.76-.194.97-1.045 1.895-2.55 2.773-1.24.723-2.713 1.194-4.421 1.41"/>
        <path fill="#111D28" fill-opacity=".1" d="M50.337 299.46c-7.554-4.358-11.33-10.074-11.337-15.804-.006-5.787 3.832-11.587 11.51-16.016 15.277-8.814 39.97-8.859 55.153-.1 7.554 4.358 11.33 10.074 11.337 15.804.007 5.786-3.832 11.587-11.51 16.016-15.277 8.814-39.97 8.859-55.153.1"/>
        <path fill="#26D198" d="M117 273v6.713c.006 5.693-3.832 11.398-11.51 15.755-15.277 8.67-39.97 8.715-55.153.098-7.554-4.287-11.33-9.909-11.337-15.545V273h78z"/>
        <path fill="#4CE5AB" d="M50.337 288.46c-7.554-4.358-11.33-10.074-11.337-15.804-.006-5.786 3.832-11.587 11.51-16.016 15.277-8.814 39.97-8.859 55.153-.1 7.554 4.358 11.33 10.074 11.337 15.804.007 5.786-3.832 11.587-11.51 16.016-15.277 8.814-39.97 8.859-55.153.1"/>
        <path fill="#26D198" d="M77.758 291c-9.47 0-18.292-2.12-24.84-5.967-5.745-3.377-8.913-7.597-8.918-11.881-.005-4.281 3.309-8.686 9.09-12.084C59.748 257.155 68.68 255 78.243 255c9.47 0 18.292 2.12 24.839 5.968 5.746 3.377 8.913 7.596 8.918 11.88.005 4.281-3.308 8.686-9.09 12.084C96.254 288.845 87.32 291 77.759 291"/>
        <path fill="#1AB57D" d="M53.09 261.773c6.658-3.783 15.59-5.866 25.153-5.866 9.47 0 18.292 2.049 24.839 5.769 5.536 3.146 8.67 7.047 8.896 11.032.009-.152.022-.303.022-.454-.005-4.141-3.172-8.22-8.918-11.485-6.547-3.72-15.37-5.769-24.839-5.769-9.562 0-18.495 2.083-25.153 5.866-5.781 3.285-9.095 7.542-9.09 11.682 0 .15.013.302.022.452.228-3.994 3.498-8.062 9.068-11.227"/>
        <path fill="#FFF" d="M72.091 279.556c.9.021 1.692-.168 2.378-.569.62-.36.911-.791.876-1.29-.037-.498-.323-1.085-.86-1.76l-4.98 2.905a5.548 5.548 0 0 0 2.586.714m5.861-9.401c.002.48.227 1.042.675 1.691l4.814-2.808c-.802-.416-1.602-.637-2.401-.665a3.996 3.996 0 0 0-2.196.54c-.597.349-.895.762-.892 1.242m-1.658 13.731c-1.709.218-3.53.123-5.464-.282-1.934-.405-3.825-1.147-5.674-2.225l-2.656 1.55-1.436-.838 2.723-1.588c-2.23-1.533-3.476-3.112-3.74-4.737-.264-1.627.577-3.098 2.525-4.415l6.08 3.546c-.642.452-1 .94-1.075 1.465-.075.524.145 1.04.659 1.546l5.278-3.08a8.397 8.397 0 0 1-.503-.564c-1.161-1.22-2.022-2.27-2.58-3.152-.56-.881-.744-1.814-.549-2.798.194-.984 1.067-1.928 2.616-2.831 1.35-.788 2.907-1.261 4.672-1.42 1.763-.158 3.563-.02 5.397.418a20.712 20.712 0 0 1 5.223 2.02l2.723-1.588 1.436.838-2.755 1.608c2.294 1.519 3.552 3.059 3.77 4.62.22 1.561-.589 2.98-2.424 4.26l-6.18-3.605c.574-.44.893-.886.958-1.339.064-.453-.127-.9-.573-1.341l-5.18 3.02.704.799c1.116 1.245 1.944 2.302 2.482 3.17.537.87.709 1.789.514 2.76-.194.97-1.045 1.895-2.55 2.773-1.24.723-2.713 1.194-4.421 1.41"/>
        <path fill="#111D28" fill-opacity=".1" d="M58.337 289.46c-7.554-4.358-11.33-10.074-11.337-15.804-.006-5.786 3.832-11.587 11.51-16.016 15.277-8.814 39.97-8.859 55.153-.1 7.554 4.358 11.33 10.074 11.337 15.804.007 5.786-3.832 11.587-11.51 16.016-15.277 8.814-39.97 8.859-55.153.1"/>
        <path fill="#26D198" d="M125 262v6.713c.006 5.693-3.832 11.398-11.51 15.755-15.277 8.67-39.97 8.715-55.153.098-7.554-4.286-11.33-9.909-11.337-15.545V262h78z"/>
        <path fill="#4CE5AB" d="M58.337 278.46c-7.554-4.358-11.33-10.074-11.337-15.804-.006-5.787 3.832-11.587 11.51-16.016 15.277-8.814 39.97-8.859 55.153-.1 7.554 4.358 11.33 10.074 11.337 15.804.007 5.786-3.832 11.587-11.51 16.016-15.277 8.814-39.97 8.859-55.153.1"/>
        <path fill="#26D198" d="M85.758 280c-9.47 0-18.292-2.12-24.84-5.967-5.745-3.378-8.913-7.597-8.918-11.881-.005-4.281 3.309-8.686 9.09-12.084C67.748 246.155 76.68 244 86.243 244c9.47 0 18.292 2.12 24.839 5.968 5.746 3.377 8.913 7.596 8.918 11.88.005 4.281-3.308 8.686-9.09 12.084-6.657 3.913-15.59 6.068-25.152 6.068"/>
        <path fill="#1AB57D" d="M61.09 250.773c6.658-3.783 15.59-5.866 25.153-5.866 9.47 0 18.292 2.049 24.839 5.769 5.536 3.146 8.67 7.048 8.896 11.032.008-.151.022-.303.022-.454-.005-4.141-3.172-8.22-8.918-11.485-6.547-3.72-15.37-5.769-24.839-5.769-9.562 0-18.495 2.083-25.153 5.866-5.781 3.285-9.095 7.542-9.09 11.682 0 .151.013.302.022.452.228-3.994 3.498-8.062 9.068-11.227"/>
        <path fill="#FFF" d="M80.091 268.556c.9.021 1.692-.168 2.378-.568.62-.362.911-.792.876-1.29-.037-.5-.323-1.086-.86-1.76l-4.98 2.904a5.544 5.544 0 0 0 2.586.714m5.861-9.401c.002.48.227 1.043.675 1.691l4.814-2.808c-.802-.416-1.602-.637-2.401-.665a3.993 3.993 0 0 0-2.196.54c-.597.349-.895.763-.892 1.242m-1.658 13.731c-1.709.218-3.53.123-5.464-.282-1.934-.405-3.825-1.147-5.674-2.225l-2.656 1.55-1.436-.838 2.723-1.588c-2.23-1.533-3.476-3.112-3.74-4.738-.264-1.626.577-3.097 2.525-4.414l6.08 3.546c-.642.453-1 .94-1.075 1.465-.075.524.145 1.04.659 1.546l5.278-3.08a8.227 8.227 0 0 1-.503-.564c-1.161-1.22-2.022-2.27-2.58-3.151-.56-.882-.744-1.815-.549-2.799.194-.984 1.067-1.927 2.616-2.831 1.35-.787 2.907-1.261 4.672-1.42 1.763-.158 3.563-.019 5.397.418a20.7 20.7 0 0 1 5.223 2.02l2.723-1.587 1.436.837-2.755 1.607c2.294 1.52 3.552 3.06 3.77 4.621.22 1.561-.589 2.98-2.424 4.26l-6.18-3.605c.574-.44.893-.886.958-1.339.064-.453-.127-.9-.573-1.341l-5.18 3.02.704.798c1.116 1.246 1.944 2.303 2.482 3.172.537.868.709 1.788.514 2.759-.194.971-1.045 1.895-2.55 2.773-1.24.723-2.713 1.193-4.421 1.41"/>
        <path fill="#111D28" fill-opacity=".1" d="M53.337 278.46c-7.554-4.358-11.33-10.074-11.337-15.804-.007-5.786 3.832-11.587 11.51-16.016 15.277-8.814 39.97-8.859 55.153-.1 7.554 4.358 11.33 10.074 11.337 15.804.007 5.786-3.832 11.587-11.51 16.016-15.277 8.814-39.97 8.859-55.153.1"/>
        <path fill="#26D198" d="M120 252v6.713c.007 5.693-3.832 11.398-11.51 15.755-15.277 8.67-39.971 8.715-55.153.098-7.554-4.286-11.33-9.909-11.337-15.545V252h78z"/>
        <path fill="#4CE5AB" d="M53.337 267.46c-7.554-4.358-11.33-10.074-11.337-15.804-.007-5.787 3.832-11.587 11.51-16.016 15.277-8.814 39.97-8.859 55.153-.1 7.554 4.358 11.33 10.074 11.337 15.804.007 5.786-3.832 11.587-11.51 16.016-15.277 8.814-39.97 8.859-55.153.1"/>
        <path fill="#26D198" d="M79.758 270c-9.47 0-18.292-2.12-24.84-5.967-5.745-3.378-8.913-7.597-8.918-11.881-.005-4.281 3.309-8.686 9.09-12.084C61.748 236.155 70.68 234 80.243 234c9.47 0 18.292 2.12 24.839 5.968 5.746 3.377 8.913 7.596 8.918 11.88.005 4.281-3.308 8.686-9.09 12.084C98.254 267.845 89.32 270 79.759 270"/>
        <path fill="#1AB57D" d="M55.09 240.773c6.658-3.783 15.59-5.866 25.153-5.866 9.47 0 18.292 2.049 24.839 5.769 5.536 3.146 8.67 7.048 8.896 11.032.008-.151.022-.303.022-.454-.005-4.141-3.172-8.22-8.918-11.485-6.547-3.72-15.37-5.769-24.839-5.769-9.562 0-18.495 2.083-25.153 5.866-5.781 3.285-9.095 7.542-9.09 11.682 0 .15.013.302.022.452.228-3.994 3.498-8.062 9.068-11.227"/>
        <path fill="#4CE5AB" d="M80.392 257.19c-.354.083-.704.13-1.052.142a5.513 5.513 0 0 1-1.134-.09 11.92 11.92 0 0 1-1.12-.249 11.579 11.579 0 0 1-1.136-.387c-.42-.165-.777-.316-1.072-.453a25.605 25.605 0 0 1-1.022-.508 29.746 29.746 0 0 1-1.67-.932l-.597-.35 5.498-3.13c.087.05.352.194.794.434.442.239.799.436 1.072.592.273.155.633.378 1.08.67.448.292.804.55 1.066.773.262.224.519.484.771.782.252.298.4.57.446.818.044.248-.003.505-.143.771-.14.267-.405.51-.796.733-.304.173-.632.3-.985.384zm4.194-10.227c.076.044.295.165.655.364.36.199.66.364.9.494s.543.319.91.564c.365.245.657.461.875.647.22.186.43.408.632.665.203.258.313.493.33.707.018.214-.043.438-.184.673-.14.235-.388.455-.746.659a3.818 3.818 0 0 1-2.045.493 10.901 10.901 0 0 1-1.046-.095 5.774 5.774 0 0 1-1.094-.28c-.398-.14-.739-.266-1.022-.378a10.72 10.72 0 0 1-.99-.462c-.376-.196-.66-.345-.85-.447a23.27 23.27 0 0 1-.762-.434l-.556-.326 4.993-2.844zm4.024 10.552c.18-.823-.216-1.684-1.19-2.584 2.45.456 4.564.066 6.342-1.169.65-.445 1.072-.911 1.264-1.4.193-.49.166-.986-.082-1.492-.247-.505-.62-.995-1.117-1.47-.498-.474-1.14-.979-1.926-1.513L96 245.553l-2.52-1.435-3.986 2.27c-.436-.25-1.113-.622-2.03-1.12l4.019-2.287-2.521-1.435-4.1 2.334c-.37-.2-.905-.497-1.604-.895L79.804 241l-2.667 1.52 1.816 1.033c.83.473.947.959.351 1.46l-4.669 2.658c.11.062.191.115.246.158l-.262-.149-6.54 3.723c-.64.265-1.232.243-1.778-.068l-1.817-1.034L61 251.707l3.274 1.864c.207.118.504.29.892.517.388.226.68.396.876.507l-4.148 2.362 2.521 1.436 4.1-2.334c.447.267 1.107.649 1.98 1.146l-4.083 2.325 2.52 1.435 4.149-2.362c.938.485 1.813.891 2.625 1.217.813.327 1.663.598 2.55.813.888.215 1.735.336 2.54.362a10.83 10.83 0 0 0 2.504-.223c.863-.175 1.719-.46 2.565-.855 1.65-.777 2.564-1.578 2.745-2.402z"/>
        <path fill="#111D28" fill-opacity=".2" d="M213.337 232.46c-7.554-4.358-11.33-10.074-11.337-15.804-.007-5.786 3.832-11.587 11.51-16.016 15.277-8.814 39.97-8.859 55.153-.1 7.554 4.358 11.33 10.074 11.337 15.804.007 5.786-3.832 11.587-11.51 16.016-15.277 8.814-39.97 8.859-55.153.1"/>
        <path fill="#26D198" d="M280 206v6.713c.007 5.693-3.832 11.398-11.51 15.755-15.277 8.67-39.971 8.715-55.153.098-7.554-4.286-11.33-9.909-11.337-15.545V206h78z"/>
        <path fill="#4CE5AB" d="M213.337 222.46c-7.554-4.358-11.33-10.074-11.337-15.804-.007-5.787 3.832-11.587 11.51-16.016 15.277-8.814 39.97-8.859 55.153-.1 7.554 4.358 11.33 10.074 11.337 15.804.007 5.786-3.832 11.587-11.51 16.016-15.277 8.814-39.97 8.859-55.153.1"/>
        <path fill="#26D198" d="M240.758 224c-9.47 0-18.292-2.12-24.84-5.967-5.745-3.378-8.913-7.597-8.918-11.881-.005-4.281 3.309-8.686 9.09-12.084 6.658-3.913 15.59-6.068 25.153-6.068 9.47 0 18.292 2.12 24.839 5.968 5.746 3.377 8.913 7.596 8.918 11.88.005 4.281-3.308 8.686-9.09 12.084-6.657 3.913-15.59 6.068-25.152 6.068"/>
        <path fill="#5028CE" d="M216.09 194.773c6.658-3.783 15.59-5.866 25.153-5.866 9.47 0 18.292 2.049 24.839 5.769 5.536 3.146 8.67 7.048 8.896 11.032.008-.151.022-.303.022-.454-.005-4.141-3.172-8.22-8.918-11.485-6.547-3.72-15.37-5.769-24.839-5.769-9.562 0-18.495 2.083-25.153 5.866-5.781 3.285-9.095 7.542-9.09 11.682 0 .151.013.302.022.452.228-3.994 3.498-8.062 9.068-11.227"/>
        <path fill="#FFF" d="M234.572 207.688c-1.234.314-2.58.439-4.037.374l10.961 6.449-4.23 2.489L221 207.43l1.953-1.935c1.943.103 3.652.007 5.129-.289 1.476-.295 2.93-.863 4.361-1.706l.19-.111-3.622-2.131 3.599-2.118 2.669 1.57c1.175-1.265 2.405-2.275 3.689-3.03 1.367-.805 2.88-1.321 4.536-1.548a14.66 14.66 0 0 1 5.037.196 15.72 15.72 0 0 1 4.776 1.844c2.414 1.42 3.642 2.923 3.682 4.507.04 1.584-.919 3.05-2.874 4.401l-5.02-2.953c.736-.533 1.124-1.091 1.163-1.675.039-.584-.344-1.112-1.149-1.586a4.8 4.8 0 0 0-2.664-.657c-.971.036-1.93.332-2.877.889a6.796 6.796 0 0 0-1.325 1.004c-.377.372-.924.955-1.637 1.748l5.528 3.253-3.6 2.118-4.765-2.804-.19.111c-.778.459-1.784.845-3.017 1.16"/>
        <path fill="#111D28" fill-opacity=".2" d="M208.337 222.46c-7.554-4.358-11.33-10.074-11.337-15.804-.006-5.787 3.832-11.587 11.51-16.016 15.277-8.814 39.97-8.859 55.153-.1 7.554 4.358 11.33 10.074 11.337 15.804.007 5.786-3.832 11.587-11.51 16.016-15.277 8.814-39.97 8.859-55.153.1"/>
        <path fill="#26D198" d="M275 195v6.713c.007 5.693-3.832 11.399-11.51 15.755-15.277 8.67-39.97 8.715-55.153.098-7.554-4.286-11.33-9.909-11.337-15.545V195h78z"/>
        <path fill="#4CE5AB" d="M208.337 211.46c-7.554-4.358-11.33-10.074-11.337-15.804-.006-5.787 3.832-11.587 11.51-16.016 15.277-8.814 39.97-8.859 55.153-.1 7.554 4.358 11.33 10.074 11.337 15.804.007 5.786-3.832 11.587-11.51 16.016-15.277 8.814-39.97 8.859-55.153.1"/>
        <path fill="#26D198" d="M235.758 214c-9.47 0-18.292-2.12-24.84-5.967-5.745-3.378-8.913-7.597-8.918-11.881-.005-4.281 3.309-8.686 9.09-12.084 6.658-3.913 15.59-6.068 25.153-6.068 9.47 0 18.292 2.12 24.839 5.968 5.746 3.377 8.913 7.596 8.918 11.88.005 4.281-3.308 8.686-9.09 12.084-6.657 3.913-15.59 6.068-25.152 6.068"/>
        <path fill="#1AB57D" d="M211.09 184.773c6.658-3.783 15.59-5.866 25.153-5.866 9.47 0 18.292 2.049 24.839 5.769 5.536 3.146 8.67 7.048 8.896 11.032.008-.151.022-.303.022-.454-.005-4.141-3.172-8.22-8.918-11.485-6.547-3.72-15.37-5.769-24.839-5.769-9.562 0-18.495 2.083-25.153 5.866-5.781 3.285-9.095 7.542-9.09 11.682 0 .15.013.302.022.452.228-3.994 3.498-8.062 9.068-11.227"/>
        <path fill="#4CE5AB" d="M240.694 196.446c1.649 1.196 3.352 2.37 4.906 3.604.713.566 1.228 1.232 1.652 1.89.434.67-.13.975-1.358.777a14.15 14.15 0 0 1-2.04-.492c-3.287-1.05-6.187-2.411-8.838-3.91a129.8 129.8 0 0 1-8.443-5.234c-1.286-.863-2.201-1.911-3.2-2.902-.338-.334-.764-.85-.071-1.105.453-.167 1.39-.086 1.974.062 3.573.906 6.431 2.39 9.454 3.88l-2.11 1.2c-1.55.881-1.556.884-.019 1.77 1.25.719 2.513 1.43 3.834 2.182l3.646-2.074c.247.14.453.236.613.352m10.4 1.812l4.906-2.79L235.84 184l-4.869 2.77 7.312 4.159-3.17 1.803c-1.658-.765-3.226-1.575-4.948-2.26-1.79-.711-3.699-1.331-5.613-1.933-.872-.274-2.002-.54-2.836-.083-.89.488-.353 1.157.133 1.651a47.74 47.74 0 0 0 3.798 3.473c1.065.871 2.347 1.657 3.599 2.527L219 201.935l5.388 3.065 10.156-5.777c2.495 1.08 4.82 2.161 7.289 3.125 1.374.537 2.932.963 4.503 1.285 1.742.356 2.57-.16 2.062-1.188-.594-1.205-1.792-2.24-3.088-3.229-1.49-1.136-3.081-2.23-4.678-3.378l3.103-1.765 7.358 4.185"/>
        <path stroke="#4CE5AB" stroke-dasharray="1,8" stroke-linecap="round" stroke-linejoin="round" stroke-width="3.136" d="M663 1l-62 36M663 117l-62-36"/>
        <path stroke="#26D198" stroke-dasharray="0,17.017" stroke-linecap="round" stroke-linejoin="round" stroke-width="5.136" d="M712.573 8c-16.713 0-32.28-3.65-43.833-10.277C658.6-8.093 653.01-15.36 653-22.74c-.008-7.373 5.839-14.96 16.041-20.81C680.791-50.29 696.554-54 713.43-54c16.711 0 32.28 3.65 43.833 10.277 10.14 5.817 15.73 13.083 15.738 20.46.01 7.375-5.837 14.96-16.04 20.813C745.211 4.289 729.446 8 712.573 8z"/>
        <path stroke="#4CE5AB" stroke-dasharray="1,8.020000457763672" stroke-linecap="round" stroke-linejoin="round" stroke-width="3.136" d="M712.573 166c-16.713 0-32.28-3.65-43.833-10.277-10.14-5.816-15.73-13.083-15.74-20.462-.008-7.373 5.839-14.96 16.041-20.81C680.791 107.71 696.554 104 713.43 104c16.711 0 32.28 3.65 43.833 10.277 10.14 5.817 15.73 13.083 15.738 20.46.01 7.375-5.837 14.96-16.04 20.813-11.749 6.739-27.514 10.45-44.387 10.45z"/>
        <path fill="#111D28" fill-opacity=".1" d="M684.337 145.46c-7.554-4.358-11.33-10.074-11.337-15.804-.006-5.786 3.832-11.587 11.51-16.016 15.277-8.814 39.97-8.859 55.153-.1 7.554 4.358 11.33 10.074 11.337 15.804.007 5.786-3.832 11.587-11.51 16.016-15.277 8.814-39.97 8.859-55.153.1"/>
        <path fill="#26D198" d="M751 119v6.713c.006 5.693-3.832 11.398-11.51 15.755-15.277 8.67-39.97 8.715-55.153.098-7.554-4.286-11.33-9.909-11.337-15.545V119h78z"/>
        <path fill="#4CE5AB" d="M684.337 134.46c-7.554-4.358-11.33-10.074-11.337-15.804-.006-5.787 3.832-11.587 11.51-16.016 15.277-8.814 39.97-8.859 55.153-.1 7.554 4.358 11.33 10.074 11.337 15.804.007 5.786-3.832 11.587-11.51 16.016-15.277 8.814-39.97 8.859-55.153.1"/>
        <path fill="#26D198" d="M710.758 137c-9.47 0-18.292-2.12-24.84-5.967-5.745-3.378-8.913-7.597-8.918-11.881-.005-4.281 3.309-8.686 9.09-12.084 6.658-3.913 15.59-6.068 25.153-6.068 9.47 0 18.292 2.12 24.839 5.968 5.746 3.377 8.913 7.596 8.918 11.88.005 4.281-3.308 8.686-9.09 12.084-6.657 3.913-15.59 6.068-25.152 6.068"/>
        <path fill="#1AB57D" d="M686.09 107.773c6.658-3.783 15.59-5.866 25.153-5.866 9.47 0 18.292 2.049 24.839 5.769 5.536 3.146 8.67 7.048 8.896 11.032.008-.151.022-.303.022-.454-.005-4.141-3.172-8.22-8.918-11.485-6.547-3.72-15.37-5.769-24.839-5.769-9.562 0-18.495 2.083-25.153 5.866-5.781 3.285-9.095 7.542-9.09 11.682 0 .15.013.302.022.452.228-3.994 3.498-8.062 9.068-11.227"/>
        <path fill="#FFF" d="M706.091 125.556c.9.021 1.692-.168 2.378-.569.62-.36.911-.79.876-1.29-.037-.498-.323-1.085-.86-1.76l-4.98 2.905a5.544 5.544 0 0 0 2.586.714m5.861-9.401c.002.48.227 1.043.675 1.691l4.814-2.808c-.802-.416-1.602-.637-2.401-.665a3.999 3.999 0 0 0-2.196.54c-.597.349-.895.763-.892 1.242m-1.658 13.731c-1.709.218-3.53.123-5.464-.282-1.934-.405-3.825-1.146-5.674-2.225l-2.656 1.55-1.436-.838 2.723-1.588c-2.23-1.532-3.476-3.112-3.74-4.737-.264-1.627.577-3.098 2.525-4.415l6.08 3.546c-.642.453-1 .94-1.075 1.465-.075.524.145 1.04.659 1.546l5.278-3.08a8.305 8.305 0 0 1-.503-.564c-1.161-1.22-2.022-2.27-2.58-3.151-.56-.882-.744-1.815-.549-2.799.194-.984 1.067-1.927 2.616-2.831 1.35-.788 2.907-1.261 4.672-1.42 1.763-.158 3.563-.019 5.397.418a20.705 20.705 0 0 1 5.223 2.02l2.723-1.588 1.436.838-2.755 1.607c2.294 1.52 3.552 3.06 3.77 4.621.22 1.561-.589 2.98-2.424 4.26l-6.18-3.605c.574-.44.893-.886.958-1.339.064-.453-.127-.9-.573-1.341l-5.18 3.02.704.799c1.116 1.245 1.944 2.302 2.482 3.17.537.87.709 1.789.514 2.76-.194.971-1.045 1.895-2.55 2.773-1.24.723-2.713 1.194-4.421 1.41"/>
        <path fill="#111D28" fill-opacity=".1" d="M678.337 135.46c-7.554-4.358-11.33-10.074-11.337-15.804-.007-5.787 3.832-11.587 11.51-16.016 15.277-8.814 39.97-8.859 55.153-.1 7.554 4.358 11.33 10.074 11.337 15.804.007 5.786-3.832 11.587-11.51 16.016-15.277 8.814-39.97 8.859-55.153.1"/>
        <path fill="#26D198" d="M745 108v6.713c.006 5.693-3.832 11.399-11.51 15.755-15.277 8.67-39.971 8.715-55.153.098-7.554-4.287-11.33-9.909-11.337-15.545V108h78z"/>
        <path fill="#4CE5AB" d="M678.337 124.46c-7.554-4.358-11.33-10.074-11.337-15.804-.007-5.787 3.832-11.587 11.51-16.016 15.277-8.814 39.97-8.859 55.153-.1 7.554 4.358 11.33 10.074 11.337 15.804.007 5.786-3.832 11.587-11.51 16.016-15.277 8.814-39.97 8.859-55.153.1"/>
        <path fill="#26D198" d="M705.758 127c-9.47 0-18.292-2.12-24.839-5.968-5.746-3.377-8.914-7.596-8.919-11.88-.004-4.282 3.309-8.686 9.09-12.084C687.748 93.155 696.68 91 706.243 91c9.47 0 18.292 2.12 24.839 5.968 5.746 3.377 8.913 7.596 8.918 11.88.005 4.281-3.308 8.686-9.09 12.084-6.657 3.913-15.59 6.068-25.152 6.068"/>
        <path fill="#1AB57D" d="M681.09 97.773c6.658-3.783 15.59-5.866 25.153-5.866 9.47 0 18.292 2.049 24.839 5.769 5.536 3.146 8.67 7.048 8.896 11.032.008-.152.022-.303.022-.454-.005-4.141-3.172-8.22-8.918-11.485-6.547-3.72-15.369-5.769-24.839-5.769-9.562 0-18.495 2.083-25.153 5.866-5.781 3.285-9.094 7.542-9.09 11.682 0 .15.014.302.022.452.228-3.994 3.498-8.062 9.068-11.227"/>
        <path fill="#FFF" d="M701.09 114.556c.9.021 1.693-.168 2.38-.569.618-.36.91-.79.875-1.29-.037-.498-.323-1.085-.86-1.76l-4.98 2.905a5.549 5.549 0 0 0 2.586.714m5.861-9.401c.002.48.227 1.043.675 1.691l4.814-2.808c-.802-.416-1.603-.637-2.401-.665a3.998 3.998 0 0 0-2.196.54c-.597.349-.895.763-.892 1.242m-1.658 13.731c-1.709.218-3.53.123-5.464-.282-1.934-.405-3.825-1.146-5.674-2.225l-2.656 1.55-1.436-.838 2.723-1.588c-2.23-1.533-3.476-3.112-3.74-4.737-.264-1.627.577-3.098 2.525-4.415l6.08 3.546c-.642.453-1 .94-1.075 1.465-.075.524.145 1.04.659 1.546l5.278-3.08a8.396 8.396 0 0 1-.503-.564c-1.161-1.22-2.022-2.27-2.58-3.151-.56-.882-.744-1.815-.549-2.799.194-.984 1.067-1.927 2.616-2.831 1.35-.788 2.907-1.261 4.672-1.42 1.763-.158 3.563-.019 5.397.418a20.7 20.7 0 0 1 5.223 2.02l2.723-1.588 1.436.838-2.756 1.607c2.295 1.52 3.552 3.06 3.772 4.621.22 1.561-.59 2.98-2.425 4.26l-6.18-3.605c.574-.44.893-.886.958-1.339.064-.453-.127-.9-.574-1.341l-5.179 3.02.704.799c1.116 1.245 1.944 2.302 2.482 3.17.537.87.709 1.789.514 2.76-.194.971-1.045 1.895-2.55 2.773-1.24.723-2.713 1.194-4.421 1.41"/>
        <path fill="#111D28" fill-opacity=".1" d="M686.337 124.46c-7.554-4.358-11.33-10.074-11.337-15.804-.006-5.787 3.832-11.587 11.51-16.016 15.277-8.814 39.97-8.859 55.153-.1 7.554 4.358 11.33 10.074 11.337 15.804.007 5.786-3.832 11.587-11.51 16.016-15.277 8.814-39.97 8.859-55.153.1"/>
        <path fill="#26D198" d="M753 98v6.713c.006 5.693-3.832 11.399-11.51 15.755-15.277 8.67-39.97 8.715-55.153.098-7.554-4.287-11.33-9.909-11.337-15.545V98h78z"/>
        <path fill="#4CE5AB" d="M686.337 113.46c-7.554-4.358-11.33-10.074-11.337-15.804-.006-5.786 3.832-11.587 11.51-16.016 15.277-8.814 39.97-8.859 55.153-.1 7.554 4.358 11.33 10.074 11.337 15.804.007 5.786-3.832 11.587-11.51 16.016-15.277 8.814-39.97 8.859-55.153.1"/>
        <path fill="#26D198" d="M713.758 116c-9.47 0-18.292-2.12-24.839-5.967-5.746-3.377-8.914-7.597-8.919-11.881-.004-4.281 3.309-8.686 9.09-12.084C695.748 82.155 704.68 80 714.243 80c9.47 0 18.292 2.12 24.839 5.968 5.746 3.377 8.913 7.596 8.918 11.88.005 4.281-3.308 8.686-9.09 12.084-6.657 3.913-15.59 6.068-25.152 6.068"/>
        <path fill="#1AB57D" d="M689.09 86.773c6.658-3.783 15.59-5.866 25.153-5.866 9.47 0 18.292 2.049 24.839 5.769 5.536 3.146 8.67 7.047 8.896 11.032.009-.152.022-.303.022-.454-.005-4.141-3.172-8.22-8.918-11.485-6.547-3.72-15.37-5.769-24.839-5.769-9.562 0-18.495 2.083-25.153 5.866-5.781 3.285-9.095 7.542-9.09 11.682 0 .15.013.302.022.452.228-3.994 3.498-8.062 9.068-11.227"/>
        <path fill="#111D28" fill-opacity=".1" d="M681.337 114.46c-7.554-4.358-11.33-10.074-11.337-15.804-.007-5.787 3.832-11.587 11.51-16.016 15.277-8.814 39.971-8.859 55.153-.1 7.554 4.358 11.33 10.074 11.337 15.804.007 5.786-3.832 11.587-11.51 16.016-15.277 8.814-39.97 8.859-55.153.1"/>
        <path fill="#26D198" d="M748 87v6.713c.007 5.693-3.832 11.398-11.51 15.755-15.277 8.67-39.97 8.715-55.153.098-7.554-4.286-11.33-9.909-11.337-15.545V87h78z"/>
        <path fill="#4CE5AB" d="M681.337 103.46c-7.554-4.358-11.33-10.074-11.337-15.804-.007-5.786 3.832-11.587 11.51-16.016 15.277-8.814 39.971-8.859 55.153-.1 7.554 4.358 11.33 10.074 11.337 15.804.007 5.786-3.832 11.587-11.51 16.016-15.277 8.814-39.97 8.859-55.153.1"/>
        <path fill="#26D198" d="M708.758 106c-9.47 0-18.292-2.12-24.84-5.967-5.745-3.377-8.913-7.597-8.918-11.881-.005-4.281 3.309-8.686 9.09-12.084C690.748 72.155 699.68 70 709.243 70c9.47 0 18.292 2.12 24.839 5.968 5.746 3.377 8.913 7.596 8.918 11.88.005 4.281-3.308 8.686-9.09 12.084-6.657 3.913-15.59 6.068-25.152 6.068"/>
        <path fill="#1AB57D" d="M684.09 76.773c6.658-3.783 15.59-5.866 25.153-5.866 9.47 0 18.292 2.049 24.839 5.769 5.536 3.146 8.67 7.047 8.896 11.032.008-.152.022-.303.022-.454-.005-4.141-3.172-8.22-8.918-11.485-6.547-3.72-15.37-5.769-24.839-5.769-9.562 0-18.495 2.083-25.153 5.866-5.781 3.285-9.095 7.542-9.09 11.682 0 .15.013.302.022.452.228-3.994 3.498-8.062 9.068-11.227"/>
        <path fill="#4CE5AB" d="M703.09 93.556c.9.022 1.693-.168 2.38-.568.618-.362.91-.792.875-1.29-.037-.5-.323-1.086-.86-1.76l-4.98 2.904a5.546 5.546 0 0 0 2.586.714m5.861-9.401c.002.48.227 1.043.675 1.691l4.814-2.808c-.802-.416-1.603-.637-2.401-.665a3.993 3.993 0 0 0-2.196.54c-.597.349-.895.763-.892 1.242m-1.658 13.731c-1.709.218-3.53.123-5.464-.282-1.934-.405-3.825-1.147-5.673-2.225l-2.656 1.55-1.437-.838 2.723-1.588c-2.23-1.533-3.476-3.112-3.74-4.738-.264-1.626.578-3.097 2.525-4.414l6.08 3.546c-.642.453-1 .94-1.075 1.465-.075.524.145 1.04.658 1.546l5.28-3.08a8.279 8.279 0 0 1-.504-.564c-1.16-1.22-2.022-2.27-2.58-3.151-.56-.882-.744-1.815-.549-2.799.194-.984 1.067-1.927 2.616-2.831 1.35-.787 2.907-1.261 4.672-1.42 1.763-.158 3.563-.019 5.397.418a20.7 20.7 0 0 1 5.223 2.02l2.723-1.587 1.436.837-2.756 1.607c2.295 1.52 3.552 3.06 3.772 4.621.22 1.561-.59 2.98-2.425 4.26l-6.18-3.605c.574-.44.893-.886.958-1.339.064-.453-.127-.9-.574-1.341l-5.179 3.02.704.798c1.116 1.246 1.944 2.303 2.482 3.172.537.868.709 1.788.514 2.759-.194.971-1.045 1.895-2.55 2.773-1.24.723-2.713 1.193-4.421 1.41"/>
        <path stroke="#26D198" stroke-dasharray="0,17.017" stroke-linecap="round" stroke-linejoin="round" stroke-width="5.136" d="M397.573 8c-16.713 0-32.28-3.65-43.833-10.277C343.6-8.093 338.01-15.36 338-22.74c-.008-7.373 5.839-14.96 16.041-20.81C365.791-50.29 381.554-54 398.43-54c16.711 0 32.28 3.65 43.833 10.277 10.14 5.817 15.73 13.083 15.738 20.46.01 7.375-5.837 14.96-16.04 20.813C430.211 4.289 414.446 8 397.573 8z"/>
        <path stroke="#4CE5AB" stroke-dasharray="1,8.020000457763672" stroke-linecap="round" stroke-linejoin="round" stroke-width="3.136" d="M554.573 89c-16.713 0-32.28-3.65-43.833-10.277C500.6 72.907 495.01 65.64 495 58.26c-.008-7.373 5.839-14.96 16.041-20.81C522.791 30.71 538.554 27 555.43 27c16.711 0 32.28 3.65 43.833 10.277 10.14 5.817 15.73 13.083 15.738 20.46.01 7.375-5.837 14.96-16.04 20.813C587.211 85.289 571.446 89 554.573 89z"/>
        <path stroke="#4CE5AB" stroke-dasharray="1,8" stroke-linecap="round" stroke-linejoin="round" stroke-width="3.136" d="M240.573 90c-16.713 0-32.28-3.65-43.833-10.277C186.6 73.907 181.01 66.64 181 59.26c-.008-7.373 5.839-14.96 16.041-20.81C208.791 31.71 224.554 28 241.43 28c16.711 0 32.28 3.65 43.833 10.277 10.14 5.817 15.73 13.084 15.738 20.46.01 7.375-5.837 14.96-16.04 20.813C273.211 86.289 257.446 90 240.573 90zM349 1l-62 36M447 1l62 36M133 1l62 36M349 117l-62-36M447 117l62-36M133 117l62-36"/>
        <path fill="#111D28" fill-opacity=".1" d="M527.337 71.46c-7.554-4.358-11.33-10.074-11.337-15.804-.007-5.787 3.832-11.587 11.51-16.016 15.277-8.814 39.97-8.859 55.153-.1 7.554 4.358 11.33 10.074 11.337 15.804.007 5.786-3.832 11.587-11.51 16.016-15.277 8.814-39.97 8.859-55.153.1"/>
        <path fill="#26D198" d="M594 45v6.713c.007 5.693-3.832 11.398-11.51 15.755-15.277 8.67-39.971 8.715-55.153.098-7.554-4.287-11.33-9.909-11.337-15.545V45h78z"/>
        <path fill="#4CE5AB" d="M527.337 60.46c-7.554-4.358-11.33-10.074-11.337-15.804-.007-5.786 3.832-11.587 11.51-16.016 15.277-8.814 39.97-8.859 55.153-.1 7.554 4.358 11.33 10.074 11.337 15.804.007 5.786-3.832 11.587-11.51 16.016-15.277 8.814-39.97 8.859-55.153.1"/>
        <path fill="#26D198" d="M553.758 63c-9.47 0-18.292-2.12-24.84-5.967-5.745-3.377-8.913-7.597-8.918-11.881-.005-4.281 3.309-8.686 9.09-12.084C535.748 29.155 544.68 27 554.243 27c9.47 0 18.292 2.12 24.839 5.968 5.746 3.377 8.913 7.596 8.918 11.88.005 4.281-3.308 8.686-9.09 12.084C572.254 60.845 563.32 63 553.759 63"/>
        <path fill="#0F7CE8" d="M529.09 33.773c6.658-3.783 15.59-5.866 25.153-5.866 9.47 0 18.292 2.049 24.839 5.769 5.536 3.146 8.67 7.047 8.896 11.032.008-.152.022-.303.022-.454-.005-4.141-3.172-8.22-8.918-11.485-6.547-3.72-15.37-5.769-24.839-5.769-9.562 0-18.495 2.083-25.153 5.866-5.781 3.285-9.095 7.542-9.09 11.682 0 .15.013.302.022.452.228-3.994 3.498-8.062 9.068-11.227"/>
        <path fill="#FFF" d="M555.392 50.19c-.354.083-.704.13-1.052.142a5.515 5.515 0 0 1-1.134-.09 12.012 12.012 0 0 1-1.12-.248 11.698 11.698 0 0 1-1.136-.388c-.42-.165-.777-.316-1.072-.453a25.405 25.405 0 0 1-1.022-.508 29.656 29.656 0 0 1-1.67-.932l-.597-.35 5.498-3.13c.087.05.352.194.794.434.442.239.799.436 1.072.592.272.155.633.378 1.08.67.448.292.803.55 1.066.773.262.224.52.484.77.782.253.298.401.57.446.818.045.248-.002.505-.143.771-.14.267-.404.51-.795.733a3.68 3.68 0 0 1-.985.384zm4.194-10.227c.076.044.295.165.655.364.36.199.66.364.9.494s.543.319.909.564c.366.245.658.461.876.647.22.186.43.408.632.665.203.258.313.493.33.707.018.214-.044.438-.184.673-.14.235-.389.455-.746.659a3.813 3.813 0 0 1-2.045.493 10.908 10.908 0 0 1-1.046-.095 5.766 5.766 0 0 1-1.094-.28c-.398-.14-.739-.266-1.022-.378a10.718 10.718 0 0 1-.99-.462c-.376-.196-.66-.345-.85-.447a24.078 24.078 0 0 1-.762-.434 65.979 65.979 0 0 0-.557-.326l4.994-2.843zm4.023 10.552c.181-.823-.215-1.684-1.189-2.584 2.45.456 4.564.067 6.342-1.169.65-.445 1.071-.911 1.264-1.4.193-.49.166-.986-.082-1.492-.247-.505-.62-.995-1.118-1.47-.497-.474-1.139-.979-1.925-1.513L571 38.553l-2.52-1.435-3.986 2.27c-.436-.25-1.113-.622-2.03-1.12l4.018-2.287-2.52-1.435-4.1 2.334a76.973 76.973 0 0 1-1.604-.895L554.804 34l-2.668 1.52 1.818 1.033c.829.473.946.959.35 1.46l-4.669 2.658c.11.062.191.115.246.158l-.262-.149-6.539 3.723c-.64.265-1.233.243-1.78-.068l-1.816-1.034L536 44.707l3.274 1.864c.207.118.504.29.892.517.388.226.68.396.876.507l-4.148 2.362 2.521 1.436 4.1-2.334c.447.267 1.107.649 1.98 1.146l-4.083 2.325 2.52 1.435 4.149-2.362c.938.485 1.813.891 2.625 1.217a18.51 18.51 0 0 0 2.55.813 12.5 12.5 0 0 0 2.54.362c.805.026 1.64-.048 2.504-.223.863-.175 1.718-.46 2.565-.855 1.65-.777 2.564-1.578 2.744-2.402z"/>
        <path fill="#111D28" fill-opacity=".1" d="M522.337 61.46c-7.554-4.358-11.33-10.074-11.337-15.804-.007-5.786 3.832-11.587 11.51-16.016 15.277-8.814 39.971-8.859 55.153-.1 7.554 4.358 11.33 10.074 11.337 15.804.007 5.786-3.832 11.587-11.51 16.016-15.277 8.814-39.97 8.859-55.153.1"/>
        <path fill="#26D198" d="M589 34v6.713c.007 5.693-3.832 11.398-11.51 15.755-15.277 8.67-39.97 8.715-55.153.098-7.554-4.286-11.33-9.909-11.337-15.545V34h78z"/>
        <path fill="#4CE5AB" d="M522.337 50.46c-7.554-4.358-11.33-10.074-11.337-15.804-.007-5.787 3.832-11.587 11.51-16.016 15.277-8.814 39.971-8.859 55.153-.1 7.554 4.358 11.33 10.074 11.337 15.804.007 5.786-3.832 11.587-11.51 16.016-15.277 8.814-39.97 8.859-55.153.1"/>
        <path fill="#26D198" d="M548.758 53c-9.47 0-18.292-2.12-24.84-5.967-5.745-3.378-8.913-7.597-8.918-11.881-.005-4.281 3.309-8.686 9.09-12.084C530.748 19.155 539.68 17 549.243 17c9.47 0 18.292 2.12 24.839 5.968 5.746 3.377 8.913 7.596 8.918 11.88.005 4.281-3.308 8.686-9.09 12.084C567.254 50.845 558.32 53 548.759 53"/>
        <path fill="#1AB57D" d="M524.09 23.773c6.658-3.783 15.59-5.866 25.153-5.866 9.47 0 18.292 2.049 24.839 5.769 5.536 3.146 8.67 7.048 8.896 11.032.008-.151.022-.303.022-.454-.005-4.141-3.172-8.22-8.918-11.485-6.547-3.72-15.37-5.769-24.839-5.769-9.562 0-18.495 2.083-25.153 5.866-5.781 3.285-9.095 7.542-9.09 11.682 0 .151.013.302.022.452.228-3.994 3.498-8.062 9.068-11.227"/>
        <path fill="#4CE5AB" d="M549.392 40.19c-.354.083-.704.13-1.052.142a5.513 5.513 0 0 1-1.134-.09 11.92 11.92 0 0 1-1.12-.249 11.579 11.579 0 0 1-1.136-.387c-.42-.165-.777-.316-1.072-.453a25.605 25.605 0 0 1-1.022-.508 29.746 29.746 0 0 1-1.67-.932l-.597-.35 5.498-3.13c.087.05.352.194.794.434.442.239.799.436 1.072.592.273.155.633.378 1.08.67.448.292.804.55 1.066.773.262.224.519.484.771.782.252.298.4.57.446.818.044.248-.003.505-.143.771-.14.267-.405.51-.796.733-.304.173-.632.3-.985.384zm4.194-10.227c.076.044.295.165.655.364.36.199.66.364.9.494s.543.319.91.564c.365.245.657.461.875.647.22.186.43.408.632.665.203.258.313.493.33.707.018.214-.043.438-.184.673-.14.235-.388.455-.746.659a3.818 3.818 0 0 1-2.045.493 10.901 10.901 0 0 1-1.046-.095 5.774 5.774 0 0 1-1.094-.28c-.398-.14-.739-.266-1.022-.378a10.72 10.72 0 0 1-.99-.462c-.376-.196-.66-.345-.85-.447a23.27 23.27 0 0 1-.762-.434l-.556-.326 4.993-2.844zm4.024 10.552c.18-.823-.216-1.684-1.19-2.584 2.45.456 4.564.066 6.342-1.169.65-.445 1.072-.911 1.264-1.4.193-.49.166-.986-.082-1.492-.247-.505-.62-.995-1.117-1.47-.498-.474-1.14-.979-1.926-1.513L565 28.553l-2.52-1.435-3.986 2.27c-.436-.25-1.113-.622-2.03-1.12l4.019-2.287-2.521-1.435-4.1 2.334c-.37-.2-.905-.497-1.604-.895L548.804 24l-2.667 1.52 1.816 1.033c.83.473.947.959.351 1.46l-4.669 2.658c.11.062.191.115.246.158l-.262-.149-6.54 3.723c-.64.265-1.232.243-1.778-.068l-1.817-1.034L530 34.707l3.274 1.864c.207.118.504.29.892.517.388.226.68.396.876.507l-4.148 2.362 2.521 1.436 4.1-2.334c.447.267 1.107.649 1.98 1.146l-4.083 2.325 2.52 1.435 4.149-2.362c.938.485 1.813.891 2.625 1.217.813.327 1.663.598 2.55.813.888.215 1.735.336 2.54.362a10.83 10.83 0 0 0 2.504-.223c.863-.175 1.719-.46 2.565-.855 1.65-.777 2.564-1.578 2.745-2.402z"/>
        <path fill="#111D28" fill-opacity=".1" d="M212.337 72.46c-7.554-4.358-11.33-10.074-11.337-15.804-.007-5.787 3.832-11.587 11.51-16.016 15.277-8.814 39.971-8.859 55.153-.1 7.554 4.358 11.33 10.074 11.337 15.804.007 5.786-3.832 11.587-11.51 16.016-15.277 8.814-39.97 8.859-55.153.1"/>
        <path fill="#26D198" d="M279 45v6.713c.007 5.693-3.832 11.399-11.51 15.755-15.277 8.67-39.97 8.715-55.153.098-7.554-4.287-11.33-9.909-11.337-15.545V45h78z"/>
        <path fill="#4CE5AB" d="M212.337 61.46c-7.554-4.358-11.33-10.074-11.337-15.804-.007-5.787 3.832-11.587 11.51-16.016 15.277-8.814 39.971-8.859 55.153-.1 7.554 4.358 11.33 10.074 11.337 15.804.007 5.786-3.832 11.587-11.51 16.016-15.277 8.814-39.97 8.859-55.153.1"/>
        <path fill="#26D198" d="M239.758 64c-9.47 0-18.292-2.12-24.84-5.968-5.745-3.377-8.913-7.596-8.918-11.88-.005-4.282 3.309-8.686 9.09-12.084C221.748 30.155 230.68 28 240.243 28c9.47 0 18.292 2.12 24.839 5.968 5.746 3.377 8.913 7.596 8.918 11.88.005 4.281-3.308 8.686-9.09 12.084C258.254 61.845 249.32 64 239.759 64"/>
        <path fill="#5028CE" d="M215.09 34.773c6.658-3.783 15.59-5.866 25.153-5.866 9.47 0 18.292 2.049 24.839 5.769 5.536 3.146 8.67 7.048 8.896 11.032.008-.152.022-.303.022-.454-.005-4.141-3.172-8.22-8.918-11.485-6.547-3.72-15.37-5.769-24.839-5.769-9.562 0-18.495 2.083-25.153 5.866-5.781 3.285-9.095 7.542-9.09 11.682 0 .15.013.302.022.452.228-3.994 3.498-8.062 9.068-11.227"/>
        <path fill="#FFF" d="M231.507 46.518l7.636-2.832 11.322 1.223L255 43.224l-11.34-1.212 10.962-4.066L249.449 35l-15.958 5.924-4.77-.51-4.274 1.685 4.554.492-8.001 2.97L237.57 55l5.335-1.99z"/>
        <path fill="#111D28" fill-opacity=".1" d="M217.337 61.46c-7.554-4.358-11.33-10.074-11.337-15.804-.007-5.787 3.832-11.587 11.51-16.016 15.277-8.814 39.97-8.859 55.153-.1 7.554 4.358 11.33 10.074 11.337 15.804.007 5.786-3.832 11.587-11.51 16.016-15.277 8.814-39.97 8.859-55.153.1"/>
        <path fill="#26D198" d="M284 35v6.713c.006 5.693-3.832 11.398-11.51 15.755-15.277 8.67-39.97 8.715-55.153.098-7.554-4.287-11.33-9.909-11.337-15.545V35h78z"/>
        <path fill="#4CE5AB" d="M217.337 51.46c-7.554-4.358-11.33-10.074-11.337-15.804-.007-5.786 3.832-11.587 11.51-16.016 15.277-8.814 39.97-8.859 55.153-.1 7.554 4.358 11.33 10.074 11.337 15.804.007 5.786-3.832 11.587-11.51 16.016-15.277 8.814-39.97 8.859-55.153.1"/>
        <path fill="#26D198" d="M244.758 53c-9.47 0-18.292-2.12-24.839-5.967-5.746-3.377-8.914-7.597-8.919-11.881-.004-4.281 3.309-8.686 9.09-12.084C226.748 19.155 235.68 17 245.243 17c9.47 0 18.292 2.12 24.839 5.968 5.746 3.377 8.913 7.596 8.918 11.88.005 4.281-3.308 8.686-9.09 12.084C263.254 50.845 254.32 53 244.759 53"/>
        <path fill="#1AB57D" d="M220.09 23.773c6.658-3.783 15.59-5.866 25.153-5.866 9.47 0 18.292 2.049 24.839 5.769 5.536 3.146 8.67 7.047 8.896 11.032.009-.152.022-.303.022-.454-.005-4.141-3.172-8.22-8.918-11.485-6.547-3.72-15.37-5.769-24.839-5.769-9.562 0-18.495 2.083-25.153 5.866-5.781 3.285-9.095 7.542-9.09 11.682 0 .15.013.302.022.452.228-3.994 3.498-8.062 9.068-11.227"/>
        <path fill="#4CE5AB" d="M236.507 36.518l7.636-2.832 11.321 1.223L260 33.224l-11.34-1.212 10.962-4.066L254.449 25l-15.958 5.924-4.77-.51-4.274 1.685 4.554.492-8.001 2.97L242.57 45l5.335-1.99zM395.507 269.518l7.636-2.832 11.321 1.223 4.536-1.685-11.34-1.212 10.962-4.066-5.173-2.946-15.958 5.924-4.77-.51-4.274 1.685 4.554.492-8.001 2.97L401.57 278l5.335-1.99z"/>
        <path stroke="#26D198" stroke-dasharray="0,17.017" stroke-linecap="round" stroke-linejoin="round" stroke-width="5.136" d="M84.573 8C67.86 8 52.293 4.35 40.74-2.277 30.6-8.093 25.01-15.36 25-22.74c-.008-7.373 5.839-14.96 16.041-20.81C52.791-50.29 68.554-54 85.43-54c16.711 0 32.28 3.65 43.833 10.277 10.14 5.817 15.73 13.083 15.738 20.46.01 7.375-5.837 14.96-16.04 20.813C117.211 4.289 101.446 8 84.573 8z"/>
        <path stroke="#4CE5AB" stroke-dasharray="1,8.020000457763672" stroke-linecap="round" stroke-linejoin="round" stroke-width="3.136" d="M397.573 166c-16.713 0-32.28-3.65-43.833-10.277-10.14-5.816-15.73-13.083-15.74-20.462-.008-7.373 5.839-14.96 16.041-20.81C365.791 107.71 381.554 104 398.43 104c16.711 0 32.28 3.65 43.833 10.277 10.14 5.817 15.73 13.083 15.738 20.46.01 7.375-5.837 14.96-16.04 20.813-11.749 6.739-27.514 10.45-44.387 10.45z"/>
        <path fill="#111D28" fill-opacity=".1" d="M369.337 145.46c-7.554-4.358-11.33-10.074-11.337-15.804-.007-5.786 3.832-11.587 11.51-16.016 15.277-8.814 39.971-8.859 55.153-.1 7.554 4.358 11.33 10.074 11.337 15.804.007 5.786-3.832 11.587-11.51 16.016-15.277 8.814-39.97 8.859-55.153.1"/>
        <path fill="#26D198" d="M436 119v6.713c.007 5.693-3.832 11.398-11.51 15.755-15.277 8.67-39.971 8.715-55.153.098-7.554-4.286-11.33-9.909-11.337-15.545V119h78z"/>
        <path fill="#4CE5AB" d="M369.337 134.46c-7.554-4.358-11.33-10.074-11.337-15.804-.007-5.787 3.832-11.587 11.51-16.016 15.277-8.814 39.971-8.859 55.153-.1 7.554 4.358 11.33 10.074 11.337 15.804.007 5.786-3.832 11.587-11.51 16.016-15.277 8.814-39.97 8.859-55.153.1"/>
        <path fill="#26D198" d="M396.758 137c-9.47 0-18.292-2.12-24.84-5.967-5.745-3.378-8.913-7.597-8.918-11.881-.005-4.281 3.309-8.686 9.09-12.084 6.658-3.913 15.59-6.068 25.153-6.068 9.47 0 18.292 2.12 24.839 5.968 5.746 3.377 8.913 7.596 8.918 11.88.005 4.281-3.308 8.686-9.09 12.084-6.657 3.913-15.59 6.068-25.152 6.068"/>
        <path fill="#1AB57D" d="M372.09 107.773c6.658-3.783 15.59-5.866 25.153-5.866 9.47 0 18.292 2.049 24.839 5.769 5.536 3.146 8.67 7.048 8.896 11.032.008-.151.022-.303.022-.454-.005-4.141-3.172-8.22-8.918-11.485-6.547-3.72-15.37-5.769-24.839-5.769-9.562 0-18.495 2.083-25.153 5.866-5.781 3.285-9.095 7.542-9.09 11.682 0 .15.013.302.022.452.228-3.994 3.498-8.062 9.068-11.227"/>
        <path fill="#FFF" d="M391.09 125.556c.9.021 1.693-.168 2.38-.569.618-.36.91-.79.875-1.29-.037-.498-.323-1.085-.86-1.76l-4.98 2.905a5.546 5.546 0 0 0 2.586.714m5.861-9.401c.002.48.227 1.043.675 1.691l4.814-2.808c-.802-.416-1.603-.637-2.401-.665a3.998 3.998 0 0 0-2.196.54c-.597.349-.895.763-.892 1.242m-1.658 13.731c-1.709.218-3.53.123-5.464-.282-1.934-.405-3.825-1.146-5.673-2.225l-2.656 1.55-1.437-.838 2.723-1.588c-2.23-1.532-3.476-3.112-3.74-4.737-.264-1.627.578-3.098 2.525-4.415l6.08 3.546c-.642.453-1 .94-1.075 1.465-.075.524.145 1.04.658 1.546l5.28-3.08a8.267 8.267 0 0 1-.504-.564c-1.16-1.22-2.022-2.27-2.58-3.151-.56-.882-.744-1.815-.549-2.799.194-.984 1.067-1.927 2.616-2.831 1.35-.788 2.907-1.261 4.672-1.42 1.763-.158 3.563-.019 5.397.418a20.7 20.7 0 0 1 5.223 2.02l2.723-1.588 1.436.838-2.756 1.607c2.295 1.52 3.552 3.06 3.772 4.621.22 1.561-.59 2.98-2.425 4.26l-6.18-3.605c.574-.44.893-.886.958-1.339.064-.453-.127-.9-.574-1.341l-5.179 3.02.704.799c1.116 1.245 1.944 2.302 2.482 3.17.537.87.709 1.789.514 2.76-.194.971-1.045 1.895-2.55 2.773-1.24.723-2.713 1.194-4.421 1.41"/>
        <path fill="#111D28" fill-opacity=".1" d="M374.337 129.46c-7.554-4.358-11.33-10.074-11.337-15.804-.006-5.786 3.832-11.587 11.51-16.016 15.277-8.814 39.97-8.859 55.153-.1 7.554 4.358 11.33 10.074 11.337 15.804.007 5.786-3.832 11.587-11.51 16.016-15.277 8.814-39.97 8.859-55.153.1"/>
        <path fill="#26D198" d="M441 103v6.713c.006 5.693-3.832 11.398-11.51 15.755-15.277 8.67-39.97 8.715-55.153.098-7.554-4.286-11.33-9.909-11.337-15.545V103h78z"/>
        <path fill="#4CE5AB" d="M374.337 119.46c-7.554-4.358-11.33-10.074-11.337-15.804-.006-5.787 3.832-11.587 11.51-16.016 15.277-8.814 39.97-8.859 55.153-.1 7.554 4.358 11.33 10.074 11.337 15.804.007 5.786-3.832 11.587-11.51 16.016-15.277 8.814-39.97 8.859-55.153.1"/>
        <path fill="#26D198" d="M401.758 121c-9.47 0-18.292-2.12-24.839-5.967-5.746-3.378-8.914-7.597-8.919-11.881-.004-4.281 3.309-8.686 9.09-12.084C383.748 87.155 392.68 85 402.243 85c9.47 0 18.292 2.12 24.839 5.968 5.746 3.377 8.913 7.596 8.918 11.88.005 4.281-3.308 8.686-9.09 12.084-6.657 3.913-15.59 6.068-25.152 6.068"/>
        <path fill="#1AB57D" d="M377.09 91.773c6.658-3.783 15.59-5.866 25.153-5.866 9.47 0 18.292 2.049 24.839 5.769 5.536 3.146 8.67 7.048 8.896 11.032.009-.151.022-.303.022-.454-.005-4.141-3.172-8.22-8.918-11.485-6.547-3.72-15.37-5.769-24.839-5.769-9.562 0-18.495 2.083-25.153 5.866-5.781 3.285-9.095 7.542-9.09 11.682 0 .151.013.302.022.452.228-3.994 3.498-8.062 9.068-11.227"/>
        <path fill="#4CE5AB" d="M372 99.1l8.805 5.157 10.905-6.388.097.015.044 10.553 17.966.025-10.933 6.404 8.763 5.134 5.938-1.447c-1.901-1.125-3.815-2.241-5.725-3.36-.085-.05-.162-.105-.27-.175l17.41-10.2-27.076-.045L397.85 89l-8.65 5.067-8.7 5.097c-.126-.073-.214-.124-.3-.176-1.887-1.105-3.769-2.212-5.666-3.311L372 99.099z"/>
        <path stroke="#4CE5AB" stroke-dasharray="1,8.020000457763672" stroke-linecap="round" stroke-linejoin="round" stroke-width="3.136" d="M84.573 166c-16.713 0-32.28-3.65-43.833-10.277C30.6 149.907 25.01 142.64 25 135.26c-.008-7.373 5.839-14.96 16.041-20.81C52.791 107.71 68.554 104 85.43 104c16.711 0 32.28 3.65 43.833 10.277 10.14 5.817 15.73 13.083 15.738 20.46.01 7.375-5.837 14.96-16.04 20.813-11.749 6.739-27.514 10.45-44.387 10.45z"/>
        <path fill="#111D28" fill-opacity=".1" d="M55.337 145.46c-7.554-4.358-11.33-10.074-11.337-15.804-.007-5.786 3.832-11.587 11.51-16.016 15.277-8.814 39.971-8.859 55.153-.1 7.554 4.358 11.33 10.074 11.337 15.804.007 5.786-3.832 11.587-11.51 16.016-15.277 8.814-39.97 8.859-55.153.1"/>
        <path fill="#26D198" d="M122 119v6.713c.007 5.693-3.832 11.398-11.51 15.755-15.277 8.67-39.97 8.715-55.153.098-7.554-4.286-11.33-9.909-11.337-15.545V119h78z"/>
        <path fill="#4CE5AB" d="M55.337 134.46c-7.554-4.358-11.33-10.074-11.337-15.804-.007-5.787 3.832-11.587 11.51-16.016 15.277-8.814 39.971-8.859 55.153-.1 7.554 4.358 11.33 10.074 11.337 15.804.007 5.786-3.832 11.587-11.51 16.016-15.277 8.814-39.97 8.859-55.153.1"/>
        <path fill="#26D198" d="M82.758 137c-9.47 0-18.292-2.12-24.84-5.967-5.745-3.378-8.913-7.597-8.918-11.881-.005-4.281 3.309-8.686 9.09-12.084C64.748 103.155 73.68 101 83.243 101c9.47 0 18.292 2.12 24.839 5.968 5.746 3.377 8.913 7.596 8.918 11.88.005 4.281-3.308 8.686-9.09 12.084-6.657 3.913-15.59 6.068-25.152 6.068"/>
        <path fill="#1AB57D" d="M58.09 107.773c6.658-3.783 15.59-5.866 25.153-5.866 9.47 0 18.292 2.049 24.839 5.769 5.536 3.146 8.67 7.048 8.896 11.032.008-.151.022-.303.022-.454-.005-4.141-3.172-8.22-8.918-11.485-6.547-3.72-15.37-5.769-24.839-5.769-9.562 0-18.495 2.083-25.153 5.866-5.781 3.285-9.095 7.542-9.09 11.682 0 .15.013.302.022.452.228-3.994 3.498-8.062 9.068-11.227"/>
        <path fill="#FFF" d="M77.091 125.556c.9.021 1.692-.168 2.378-.569.62-.36.911-.79.876-1.29-.037-.498-.323-1.085-.86-1.76l-4.98 2.905a5.544 5.544 0 0 0 2.586.714m5.86-9.401c.003.48.228 1.043.676 1.691l4.814-2.808c-.802-.416-1.602-.637-2.401-.665a3.999 3.999 0 0 0-2.196.54c-.597.349-.895.763-.892 1.242m-1.658 13.731c-1.709.218-3.53.123-5.464-.282-1.934-.405-3.825-1.146-5.674-2.225l-2.656 1.55-1.436-.838 2.723-1.588c-2.23-1.532-3.476-3.112-3.74-4.737-.264-1.627.577-3.098 2.525-4.415l6.08 3.546c-.642.453-1 .94-1.075 1.465-.075.524.145 1.04.659 1.546l5.278-3.08a8.305 8.305 0 0 1-.503-.564c-1.161-1.22-2.022-2.27-2.58-3.151-.56-.882-.744-1.815-.549-2.799.194-.984 1.067-1.927 2.616-2.831 1.35-.788 2.907-1.261 4.672-1.42 1.763-.158 3.563-.019 5.397.418a20.705 20.705 0 0 1 5.223 2.02l2.723-1.588 1.436.838-2.755 1.607c2.294 1.52 3.552 3.06 3.77 4.621.22 1.561-.589 2.98-2.424 4.26l-6.18-3.605c.574-.44.893-.886.958-1.339.064-.453-.127-.9-.573-1.341l-5.18 3.02.704.799c1.116 1.245 1.943 2.302 2.482 3.17.537.87.709 1.789.514 2.76-.194.971-1.045 1.895-2.55 2.773-1.24.723-2.713 1.194-4.421 1.41"/>
        <path fill="#111D28" fill-opacity=".1" d="M50.337 135.46c-7.554-4.358-11.33-10.074-11.337-15.804-.006-5.787 3.832-11.587 11.51-16.016 15.277-8.814 39.97-8.859 55.153-.1 7.554 4.358 11.33 10.074 11.337 15.804.007 5.786-3.832 11.587-11.51 16.016-15.277 8.814-39.97 8.859-55.153.1"/>
        <path fill="#26D198" d="M117 108v6.713c.006 5.693-3.832 11.399-11.51 15.755-15.277 8.67-39.97 8.715-55.153.098-7.554-4.287-11.33-9.909-11.337-15.545V108h78z"/>
        <path fill="#4CE5AB" d="M50.337 124.46c-7.554-4.358-11.33-10.074-11.337-15.804-.006-5.787 3.832-11.587 11.51-16.016 15.277-8.814 39.97-8.859 55.153-.1 7.554 4.358 11.33 10.074 11.337 15.804.007 5.786-3.832 11.587-11.51 16.016-15.277 8.814-39.97 8.859-55.153.1"/>
        <path fill="#26D198" d="M77.758 127c-9.47 0-18.292-2.12-24.84-5.968-5.745-3.377-8.913-7.596-8.918-11.88-.005-4.282 3.309-8.686 9.09-12.084C59.748 93.155 68.68 91 78.243 91c9.47 0 18.292 2.12 24.839 5.968 5.746 3.377 8.913 7.596 8.918 11.88.005 4.281-3.308 8.686-9.09 12.084C96.254 124.845 87.32 127 77.759 127"/>
        <path fill="#1AB57D" d="M53.09 97.773c6.658-3.783 15.59-5.866 25.153-5.866 9.47 0 18.292 2.049 24.839 5.769 5.536 3.146 8.67 7.048 8.896 11.032.009-.152.022-.303.022-.454-.005-4.141-3.172-8.22-8.918-11.485C96.535 93.049 87.712 91 78.243 91c-9.562 0-18.495 2.083-25.153 5.866-5.781 3.285-9.095 7.542-9.09 11.682 0 .15.013.302.022.452.228-3.994 3.498-8.062 9.068-11.227"/>
        <path fill="#FFF" d="M72.091 114.556c.9.021 1.692-.168 2.378-.569.62-.36.911-.79.876-1.29-.037-.498-.323-1.085-.86-1.76l-4.98 2.905a5.548 5.548 0 0 0 2.586.714m5.861-9.401c.002.48.227 1.043.675 1.691l4.814-2.808c-.802-.416-1.602-.637-2.401-.665a3.998 3.998 0 0 0-2.196.54c-.597.349-.895.763-.892 1.242m-1.658 13.731c-1.709.218-3.53.123-5.464-.282-1.934-.405-3.825-1.146-5.674-2.225l-2.656 1.55-1.436-.838 2.723-1.588c-2.23-1.533-3.476-3.112-3.74-4.737-.264-1.627.577-3.098 2.525-4.415l6.08 3.546c-.642.453-1 .94-1.075 1.465-.075.524.145 1.04.659 1.546l5.278-3.08a8.396 8.396 0 0 1-.503-.564c-1.161-1.22-2.022-2.27-2.58-3.151-.56-.882-.744-1.815-.549-2.799.194-.984 1.067-1.927 2.616-2.831 1.35-.788 2.907-1.261 4.672-1.42 1.763-.158 3.563-.019 5.397.418a20.7 20.7 0 0 1 5.223 2.02l2.723-1.588 1.436.838-2.755 1.607c2.294 1.52 3.552 3.06 3.77 4.621.22 1.561-.589 2.98-2.424 4.26l-6.18-3.605c.574-.44.893-.886.958-1.339.064-.453-.127-.9-.573-1.341l-5.18 3.02.704.799c1.116 1.245 1.944 2.302 2.482 3.17.537.87.709 1.789.514 2.76-.194.971-1.045 1.895-2.55 2.773-1.24.723-2.713 1.194-4.421 1.41"/>
        <path fill="#111D28" fill-opacity=".1" d="M58.337 124.46c-7.554-4.358-11.33-10.074-11.337-15.804-.006-5.787 3.832-11.587 11.51-16.016 15.277-8.814 39.97-8.859 55.153-.1 7.554 4.358 11.33 10.074 11.337 15.804.007 5.786-3.832 11.587-11.51 16.016-15.277 8.814-39.97 8.859-55.153.1"/>
        <path fill="#26D198" d="M125 98v6.713c.006 5.693-3.832 11.399-11.51 15.755-15.277 8.67-39.97 8.715-55.153.098-7.554-4.287-11.33-9.909-11.337-15.545V98h78z"/>
        <path fill="#4CE5AB" d="M58.337 113.46c-7.554-4.358-11.33-10.074-11.337-15.804-.006-5.786 3.832-11.587 11.51-16.016 15.277-8.814 39.97-8.859 55.153-.1 7.554 4.358 11.33 10.074 11.337 15.804.007 5.786-3.832 11.587-11.51 16.016-15.277 8.814-39.97 8.859-55.153.1"/>
        <path fill="#26D198" d="M85.758 116c-9.47 0-18.292-2.12-24.84-5.967-5.745-3.377-8.913-7.597-8.918-11.881-.005-4.281 3.309-8.686 9.09-12.084C67.748 82.155 76.68 80 86.243 80c9.47 0 18.292 2.12 24.839 5.968 5.746 3.377 8.913 7.596 8.918 11.88.005 4.281-3.308 8.686-9.09 12.084-6.657 3.913-15.59 6.068-25.152 6.068"/>
        <path fill="#1AB57D" d="M61.09 86.773c6.658-3.783 15.59-5.866 25.153-5.866 9.47 0 18.292 2.049 24.839 5.769 5.536 3.146 8.67 7.047 8.896 11.032.008-.152.022-.303.022-.454-.005-4.141-3.172-8.22-8.918-11.485C104.535 82.049 95.712 80 86.243 80c-9.562 0-18.495 2.083-25.153 5.866-5.781 3.285-9.095 7.542-9.09 11.682 0 .15.013.302.022.452.228-3.994 3.498-8.062 9.068-11.227"/>
        <path fill="#FFF" d="M80.091 104.556c.9.021 1.692-.168 2.378-.569.62-.36.911-.791.876-1.29-.037-.498-.323-1.085-.86-1.76l-4.98 2.905a5.548 5.548 0 0 0 2.586.714m5.861-9.401c.002.48.227 1.042.675 1.691l4.814-2.808c-.802-.416-1.602-.637-2.401-.665a3.996 3.996 0 0 0-2.196.54c-.597.349-.895.763-.892 1.242m-1.658 13.731c-1.709.218-3.53.123-5.464-.282-1.934-.405-3.825-1.147-5.674-2.225l-2.656 1.55-1.436-.838 2.723-1.588c-2.23-1.533-3.476-3.112-3.74-4.737-.264-1.627.577-3.098 2.525-4.415l6.08 3.546c-.642.452-1 .94-1.075 1.465-.075.524.145 1.04.659 1.546l5.278-3.08a8.305 8.305 0 0 1-.503-.564c-1.161-1.22-2.022-2.27-2.58-3.152-.56-.88-.744-1.814-.549-2.798.194-.984 1.067-1.928 2.616-2.831 1.35-.788 2.907-1.261 4.672-1.42 1.763-.158 3.563-.02 5.397.418a20.712 20.712 0 0 1 5.223 2.02l2.723-1.588 1.436.838-2.755 1.608c2.294 1.519 3.552 3.059 3.77 4.62.22 1.561-.589 2.98-2.424 4.26l-6.18-3.605c.574-.44.893-.886.958-1.339.064-.453-.127-.9-.573-1.341l-5.18 3.02.704.799c1.116 1.245 1.944 2.302 2.482 3.17.537.87.709 1.789.514 2.76-.194.97-1.045 1.895-2.55 2.773-1.24.723-2.713 1.194-4.421 1.41"/>
        <path fill="#111D28" fill-opacity=".1" d="M53.337 114.46c-7.554-4.358-11.33-10.074-11.337-15.804-.007-5.787 3.832-11.587 11.51-16.016 15.277-8.814 39.97-8.859 55.153-.1 7.554 4.358 11.33 10.074 11.337 15.804.007 5.786-3.832 11.587-11.51 16.016-15.277 8.814-39.97 8.859-55.153.1"/>
        <path fill="#26D198" d="M120 87v6.713c.007 5.693-3.832 11.398-11.51 15.755-15.277 8.67-39.971 8.715-55.153.098-7.554-4.286-11.33-9.909-11.337-15.545V87h78z"/>
        <path fill="#4CE5AB" d="M53.337 103.46C45.783 99.102 42.007 93.386 42 87.656c-.007-5.786 3.832-11.587 11.51-16.016 15.277-8.814 39.97-8.859 55.153-.1 7.554 4.358 11.33 10.074 11.337 15.804.007 5.786-3.832 11.587-11.51 16.016-15.277 8.814-39.97 8.859-55.153.1"/>
        <path fill="#26D198" d="M79.758 106c-9.47 0-18.292-2.12-24.84-5.967-5.745-3.377-8.913-7.597-8.918-11.881-.005-4.281 3.309-8.686 9.09-12.084C61.748 72.155 70.68 70 80.243 70c9.47 0 18.292 2.12 24.839 5.968 5.746 3.377 8.913 7.596 8.918 11.88.005 4.281-3.308 8.686-9.09 12.084C98.254 103.845 89.32 106 79.759 106"/>
        <path fill="#1AB57D" d="M55.09 76.773c6.658-3.783 15.59-5.866 25.153-5.866 9.47 0 18.292 2.049 24.839 5.769 5.536 3.146 8.67 7.047 8.896 11.032.008-.152.022-.303.022-.454-.005-4.141-3.172-8.22-8.918-11.485C98.535 72.049 89.712 70 80.243 70c-9.562 0-18.495 2.083-25.153 5.866-5.781 3.285-9.095 7.542-9.09 11.682 0 .15.013.302.022.452.228-3.994 3.498-8.062 9.068-11.227"/>
        <path fill="#4CE5AB" d="M51 83.1l8.805 5.157L70.71 81.87l.097.015.044 10.553 17.966.025-10.933 6.404L86.647 104l5.938-1.447c-1.901-1.125-3.815-2.241-5.725-3.36-.085-.05-.162-.105-.27-.175l17.41-10.2-27.076-.045L76.85 73l-8.65 5.067-8.7 5.097c-.126-.073-.214-.124-.3-.176-1.887-1.105-3.769-2.212-5.666-3.311L51 83.099z"/>
        <path stroke="#4CE5AB" stroke-dasharray="1,8" stroke-linecap="round" stroke-linejoin="round" stroke-width="3.136" d="M664 159l-62 36"/>
    </g>
</svg>
