<svg xmlns="http://www.w3.org/2000/svg" width="1440" height="950" viewBox="0 0 1440 950">
    <defs>
        <radialGradient id="a" cx="81.164%" cy="24.73%" r="113.16%" fx="81.164%" fy="24.73%" gradientTransform="scale(.67649 1) rotate(12.292 1.006 2.05)">
            <stop offset="0%" stop-color="#40A0FF" stop-opacity=".9"/>
            <stop offset="99.75%" stop-color="#40A0FF" stop-opacity="0"/>
        </radialGradient>
        <radialGradient id="b" cx="81.156%" cy="24.737%" r="113.16%" fx="81.156%" fy="24.737%" gradientTransform="scale(.67637 1) rotate(12.292 1.006 2.05)">
            <stop offset="0%" stop-color="#40A0FF" stop-opacity=".9"/>
            <stop offset="99.75%" stop-color="#40A0FF" stop-opacity="0"/>
        </radialGradient>
        <radialGradient id="c" cx="81.167%" cy="24.734%" r="113.16%" fx="81.167%" fy="24.734%" gradientTransform="scale(.67649 1) rotate(12.292 1.006 2.05)">
            <stop offset="0%" stop-color="#40A0FF" stop-opacity=".9"/>
            <stop offset="99.75%" stop-color="#40A0FF" stop-opacity="0"/>
        </radialGradient>
        <radialGradient id="d" cx="79.885%" cy="79.185%" r="136.298%" fx="79.885%" fy="79.185%" gradientTransform="matrix(.17359 .94486 -.50083 .32748 1.057 -.222)">
            <stop offset="0%" stop-color="#40A0FF" stop-opacity=".9"/>
            <stop offset="99.75%" stop-color="#40A0FF" stop-opacity="0"/>
        </radialGradient>
        <radialGradient id="e" cx="79.889%" cy="79.192%" r="136.298%" fx="79.889%" fy="79.192%" gradientTransform="scale(.5301 1) rotate(70.884 1.153 1.29)">
            <stop offset="0%" stop-color="#40A0FF" stop-opacity=".9"/>
            <stop offset="99.75%" stop-color="#40A0FF" stop-opacity="0"/>
        </radialGradient>
        <radialGradient id="f" cx="79.889%" cy="79.183%" r="136.298%" fx="79.889%" fy="79.183%" gradientTransform="scale(.5301 1) rotate(70.884 1.153 1.29)">
            <stop offset="0%" stop-color="#40A0FF" stop-opacity=".9"/>
            <stop offset="99.75%" stop-color="#40A0FF" stop-opacity="0"/>
        </radialGradient>
        <radialGradient id="g" cx="20.114%" cy="79.196%" r="136.298%" fx="20.114%" fy="79.196%" gradientTransform="scale(-.5301 -1) rotate(-70.884 -1.202 .408)">
            <stop offset="0%" stop-color="#40A0FF" stop-opacity=".9"/>
            <stop offset="99.75%" stop-color="#40A0FF" stop-opacity="0"/>
        </radialGradient>
        <radialGradient id="h" cx="20.119%" cy="79.203%" r="136.298%" fx="20.119%" fy="79.203%" gradientTransform="scale(-.5301 -1) rotate(-70.884 -1.202 .408)">
            <stop offset="0%" stop-color="#40A0FF" stop-opacity=".9"/>
            <stop offset="99.75%" stop-color="#40A0FF" stop-opacity="0"/>
        </radialGradient>
        <radialGradient id="i" cx="20.119%" cy="79.194%" r="136.298%" fx="20.119%" fy="79.194%" gradientTransform="scale(-.5301 -1) rotate(-70.884 -1.202 .408)">
            <stop offset="0%" stop-color="#40A0FF" stop-opacity=".9"/>
            <stop offset="99.75%" stop-color="#40A0FF" stop-opacity="0"/>
        </radialGradient>
        <radialGradient id="j" cx="33.402%" cy="17.881%" r="775.971%" fx="33.402%" fy="17.881%" gradientTransform="scale(-1 -.08618) rotate(44.429 2.76 -1.766)">
            <stop offset="0%" stop-color="#40A0FF" stop-opacity=".9"/>
            <stop offset="99.75%" stop-color="#40A0FF" stop-opacity="0"/>
        </radialGradient>
        <radialGradient id="k" cx="33.258%" cy="17.884%" r="775.971%" fx="33.258%" fy="17.884%" gradientTransform="scale(-1 -.08618) rotate(44.429 2.76 -1.763)">
            <stop offset="0%" stop-color="#40A0FF" stop-opacity=".9"/>
            <stop offset="99.75%" stop-color="#40A0FF" stop-opacity="0"/>
        </radialGradient>
        <radialGradient id="l" cx="33.364%" cy="17.876%" r="774.041%" fx="33.364%" fy="17.876%" gradientTransform="scale(-1 -.0864) rotate(44.429 2.752 -1.762)">
            <stop offset="0%" stop-color="#40A0FF" stop-opacity=".9"/>
            <stop offset="99.75%" stop-color="#40A0FF" stop-opacity="0"/>
        </radialGradient>
        <radialGradient id="m" cx="18.845%" cy="24.73%" r="113.16%" fx="18.845%" fy="24.73%" gradientTransform="matrix(-.66086 .2129 -.144 -.97708 .349 .449)">
            <stop offset="0%" stop-color="#40A0FF" stop-opacity=".9"/>
            <stop offset="99.75%" stop-color="#40A0FF" stop-opacity="0"/>
        </radialGradient>
        <radialGradient id="n" cx="18.839%" cy="24.737%" r="113.16%" fx="18.839%" fy="24.737%" gradientTransform="matrix(-.66086 .2129 -.144 -.97708 .349 .449)">
            <stop offset="0%" stop-color="#40A0FF" stop-opacity=".9"/>
            <stop offset="99.75%" stop-color="#40A0FF" stop-opacity="0"/>
        </radialGradient>
        <radialGradient id="o" cx="18.842%" cy="24.735%" r="113.16%" fx="18.842%" fy="24.735%" gradientTransform="matrix(-.66086 .2129 -.144 -.97708 .349 .449)">
            <stop offset="0%" stop-color="#40A0FF" stop-opacity=".9"/>
            <stop offset="99.75%" stop-color="#40A0FF" stop-opacity="0"/>
        </radialGradient>
    </defs>
    <g fill="none" fill-rule="nonzero">
        <g fill="#FFF" opacity=".05">
            <path d="M719.924 291.962l960.774-38.296v76.555zM719.924 291.962l-960.773 38.259v-76.555zM719.924 291.962l38.251 960.925h-76.502zM719.924 291.962L681.674-669h76.501z"/>
            <g>
                <path d="M719.924 291.962l706.397 652.399-54.088 54.137zM719.924 291.962L13.49-360.474l54.126-54.137zM719.924 291.962L67.616 998.498 13.49 944.36zM719.924 291.962l652.309-706.573 54.088 54.137z"/>
            </g>
            <g>
                <path d="M719.924 291.962l876.448-395.477 28.688 70.96zM719.924 291.962l-876.485 395.44-28.65-70.96zM719.924 291.962l395.4 876.62-70.984 28.694zM719.924 291.962L324.525-584.695l70.984-28.656z"/>
                <g>
                    <path d="M719.924 291.962l899.315 340.244-29.898 70.43zM719.924 291.962L-179.428-48.282l29.936-70.468zM719.924 291.962l-340.177 899.492-70.454-29.904zM719.924 291.962l340.177-899.53 70.455 29.905z"/>
                </g>
            </g>
            <g>
                <path d="M719.47 291.319l935.543-220.83 14.624 75.083zM719.47 291.319l-935.582 220.83-14.586-75.122zM719.47 291.319l220.83 935.543-75.122 14.586zM719.47 291.319L498.64-644.263l75.121-14.586z"/>
                <g>
                    <path d="M719.47 291.319l817.684 505.37-42.775 63.445zM719.47 291.319L-98.215-214.09l42.776-63.445zM719.47 291.319l-505.408 817.684-63.408-42.775zM719.47 291.319l505.408-817.723 63.407 42.814z"/>
                </g>
                <g>
                    <path d="M719.47 291.319l784.696-555.213 41.68 64.164zM719.47 291.319L-65.264 846.53l-41.642-64.163zM719.47 291.319l555.212 784.695-64.163 41.68zM719.47 291.319L164.258-493.415l64.163-41.68z"/>
                    <g>
                        <path d="M719.47 291.319l947.484 162.26-15.908 74.856zM719.47 291.319L-228.015 129.02l15.909-74.82zM719.47 291.319l-162.298 947.446-74.819-15.908zM719.47 291.319l162.26-947.485 74.857 15.909z"/>
                    </g>
                </g>
            </g>
        </g>
        <path fill="url(#a)" d="M181.062 49.056L18.968 159.204l3.657 5.693L190.206 63.274z" transform="translate(737.847 66.189)"/>
        <path fill="url(#b)" d="M198.584 91.003L36.46 201.15l3.658 5.694 167.61-101.593z" transform="translate(737.847 66.189)"/>
        <path fill="url(#c)" d="M162.124 77.11L0 187.256l3.658 5.693 167.58-101.593z" transform="translate(737.847 66.189)"/>
        <path fill="#FFF" d="M944.16 155.097c-1.299-.678-2.45-.826-3.393-.53-9.705 2.772-10.03 12.182-19.292 21.917 12.714-4.396 21.416-.767 27.965-8.437.648-.737 1.002-1.858.914-3.304l-6.195-9.646z" opacity=".4"/>
        <path fill="#FFF" d="M932.065 169.64a244.77 244.77 0 0 0 2.242-.265c5.722-.62 8.702-1.062 11.298-3.776l-4.219-6.578c-3.569 1.21-5.22 3.775-8.141 8.702-.384.62-.767 1.268-1.18 1.917zM925.752 113.829c-1.298-.679-2.448-.826-3.392-.531-9.705 2.773-10.03 12.183-19.292 21.917 12.714-4.395 21.416-.767 27.964-8.436.65-.738 1.003-1.859.915-3.304l-6.195-9.646z" opacity=".4"/>
        <path fill="#FFF" d="M913.687 128.401c.767-.088 1.534-.177 2.242-.265 5.723-.62 8.702-1.062 11.298-3.776l-4.218-6.578c-3.57 1.21-5.221 3.776-8.142 8.702-.383.62-.767 1.239-1.18 1.917zM905.605 142.855c-1.298-.678-2.449-.826-3.393-.53-9.705 2.772-10.03 12.182-19.292 21.917 12.714-4.395 21.416-.767 27.965-8.437.649-.737 1.003-1.858.914-3.304l-6.194-9.646z" opacity=".4"/>
        <path fill="#FFF" d="M893.51 157.428a244.77 244.77 0 0 0 2.242-.266c5.723-.62 8.702-1.062 11.298-3.776l-4.218-6.578c-3.57 1.21-5.221 3.776-8.142 8.702-.383.59-.767 1.24-1.18 1.918z" opacity=".4"/>
        <path fill="#40A0FF" d="M944.189 126.926s-2.006-3.628-5.723-3.658l7.257-16.135c7.846-1.387 13.835 3.392 13.835 3.392l-15.37 16.401zM947.67 134.566s3.952 5.87-1.357 15.605l19.35-.177s7.05-11.74 3.157-22.242l-21.15 6.814z"/>
        <path fill="#111D28" d="M943.451 128.018c12.744-19.705 61.121-55.34 91.888-55.605a.77.77 0 0 1 .325.088c.442.207.796.797.826 1.269 0 .118 0 .236-.06.324-13.038 27.906-65.575 57.05-88.79 60.443-.383 0-.826-.089-1.298-.325-1.652-.855-3.068-3.038-3.156-4.867 0-.53.088-.973.265-1.327zM963.982 147.457c-5.634-2.39-15.31-1.357-21.858 6.313-.65.737-1.003 1.858-.915 3.304.177 3.658 2.92 7.964 6.195 9.646 1.298.678 2.449.826 3.392.53 9.705-2.772 14.661-11.12 14.838-17.256-.059-.973-.796-2.094-1.652-2.537z"/>
        <path fill="#40A0FF" d="M926.785 139.08c7.817-4.75 17.08-7.493 17.08-7.493l11.976-9.852s-19.145 8.082-30.089 14.04l1.033 3.305z"/>
        <path fill="#EBEFF2" d="M1036.313 73.829c-.089.059-.207.059-.354-.03-.266-.147-.502-.501-.531-.796 0-.148.03-.266.118-.325l11.062-6.283-10.295 7.434z"/>
        <path fill="#1A82FF" d="M991.15 107.84c-2.36-2.182-4.277-5.191-5.31-8.23 3.57-2.3 7.287-4.66 10.886-6.843.973 2.98 2.89 5.9 5.191 8.024-3.54 2.389-7.168 4.749-10.767 7.05z"/>
        <path fill="#EBEFF2" d="M980.354 114.507c-2.242-2.124-4.07-4.955-5.103-7.876 3.422-2.33 6.961-4.69 10.56-7.02 1.033 3.038 2.98 6.017 5.31 8.23a396.128 396.128 0 0 1-10.767 6.666z"/>
        <path fill="#1A82FF" d="M970.531 120.29c-2.065-1.948-3.628-4.426-4.572-7.08a494.95 494.95 0 0 1 9.321-6.55c1.003 2.892 2.862 5.753 5.103 7.877a681.908 681.908 0 0 1-9.852 5.752z"/>
        <path fill="#EBEFF2" d="M970.531 120.29c-3.038 1.74-5.959 3.332-8.732 4.837-1.681-1.652-3.067-3.805-3.864-5.988a446.702 446.702 0 0 1 8.024-5.93c.914 2.655 2.507 5.104 4.572 7.08zM985.84 99.61a14.233 14.233 0 0 1-.796-4.011c-.118-2.744.767-4.66 2.301-5.634a172.617 172.617 0 0 1 10.856-6.136c-1.446.914-2.301 2.714-2.183 5.31.059 1.18.295 2.389.708 3.628a419.741 419.741 0 0 0-10.885 6.844z"/>
        <path fill="#1A82FF" d="M976.637 96.985a208.364 208.364 0 0 1 10.679-7.02c-1.505.973-2.42 2.89-2.301 5.634.059 1.298.354 2.655.796 4.012a547.033 547.033 0 0 0-10.56 7.02c-.472-1.386-.767-2.773-.826-4.1-.118-2.684.708-4.602 2.212-5.546z"/>
        <path fill="#EBEFF2" d="M965.93 113.18c-.473-1.298-.797-2.684-.856-3.923-.118-2.508.708-4.307 2.094-5.222 3.009-2.389 6.195-4.808 9.499-7.109-1.505.974-2.36 2.92-2.242 5.605.059 1.327.354 2.714.826 4.1a683.81 683.81 0 0 0-9.322 6.549z"/>
        <path fill="#1A82FF" d="M957.935 119.11c-.442-1.21-.737-2.45-.767-3.6-.118-2.212.62-3.775 1.859-4.572a185.188 185.188 0 0 1 8.17-6.903c-1.386.885-2.212 2.685-2.094 5.222.06 1.239.413 2.655.856 3.923a303.337 303.337 0 0 0-8.024 5.93zM961.8 125.097c.914.885 1.917 1.652 2.95 2.183 2.005 1.033 3.746 1.033 4.985.236 3.126-1.357 6.371-2.92 9.675-4.572-1.416.914-3.422.914-5.693-.266-1.121-.56-2.213-1.445-3.216-2.389a356.3 356.3 0 0 1-8.702 4.808z"/>
        <path fill="#EBEFF2" d="M980.354 114.507a14.077 14.077 0 0 0 3.333 2.42c2.449 1.268 4.602 1.297 6.107.324a214.597 214.597 0 0 1-10.413 5.693c-1.416.914-3.422.914-5.694-.266-1.12-.56-2.212-1.445-3.215-2.389a327.186 327.186 0 0 0 9.882-5.782z"/>
        <path fill="#1A82FF" d="M989.823 117.221a187.82 187.82 0 0 0 10.767-6.784c-1.534.973-3.687 1.032-6.165-.266-1.15-.59-2.272-1.416-3.275-2.36a447.622 447.622 0 0 1-10.767 6.667 14.077 14.077 0 0 0 3.334 2.419c2.448 1.298 4.602 1.298 6.106.324z"/>
        <path fill="#EBEFF2" d="M991.15 107.84c1.033.974 2.124 1.77 3.275 2.36 2.478 1.269 4.631 1.24 6.165.266 3.48-2.36 6.873-4.808 10.118-7.345-1.445.944-3.48 1.003-5.811-.207-1.033-.53-2.036-1.268-2.98-2.123a450.67 450.67 0 0 1-10.767 7.05z"/>
        <path fill="#1A82FF" d="M953.392 160.85a46.019 46.019 0 0 0 4.307-3.039c.354.266.738.531 1.121.708 1.445.738 2.714.767 3.599.177.206-.118.354-.265.53-.442a20.223 20.223 0 0 1-2.772 3.48 2.838 2.838 0 0 1-.649.531c-1.062.679-2.596.679-4.336-.236a8.589 8.589 0 0 1-1.8-1.18z"/>
        <path fill="#EBEFF2" d="M948.584 163.445c1.681-.796 3.333-1.681 4.808-2.625.56.472 1.18.885 1.8 1.21 1.74.884 3.245.914 4.336.235.236-.147.472-.324.649-.53-1.416 1.415-3.068 2.713-5.015 3.746-1.091.56-2.596.442-4.248-.413a8.738 8.738 0 0 1-2.33-1.623zM945.516 150.555c1.682-1.269 3.422-2.242 5.221-2.92a1.956 1.956 0 0 0-.56.265c-1.062.678-1.681 2.065-1.563 3.982.03.737.236 1.445.442 2.183a49.192 49.192 0 0 0-4.425 3.304 10.95 10.95 0 0 1-.56-2.832c-.089-1.859.472-3.245 1.445-3.982z"/>
        <path fill="#1A82FF" d="M944.631 157.369a44.15 44.15 0 0 1 4.425-3.304c.708 2.537 2.3 5.103 4.336 6.785a43.831 43.831 0 0 1-4.808 2.625c-1.74-1.622-3.186-3.864-3.953-6.106zM949.056 154.035c1.534-1.003 3.038-1.888 4.513-2.625-.088-.442-.177-.914-.177-1.327-.088-1.593.443-2.714 1.298-3.304.236-.148.502-.266.797-.325-1.416.177-2.891.531-4.337 1.033-.354.088-.678.206-.973.413-1.062.678-1.681 2.065-1.563 3.982.03.708.236 1.416.442 2.153z"/>
        <path fill="#EBEFF2" d="M953.392 160.85a46.019 46.019 0 0 0 4.307-3.039c-1.976-1.475-3.57-3.982-4.13-6.371-1.475.737-2.979 1.622-4.513 2.625.738 2.507 2.3 5.103 4.336 6.785z"/>
        <path fill="#111D28" d="M945.487 106.307c-5.634-2.39-15.31-1.357-21.859 6.312-.649.738-1.003 1.859-.914 3.304.177 3.658 2.92 7.965 6.195 9.646 1.297.679 2.448.826 3.392.531 9.705-2.773 14.66-11.12 14.838-17.256-.06-.944-.797-2.095-1.652-2.537z"/>
        <path fill="#1A82FF" d="M934.897 119.7a46.019 46.019 0 0 0 4.307-3.04c.354.266.737.532 1.12.709 1.446.737 2.714.767 3.6.177.206-.118.353-.266.53-.443a20.223 20.223 0 0 1-2.773 3.481 2.838 2.838 0 0 1-.649.531c-1.061.679-2.595.679-4.336-.236-.649-.295-1.239-.708-1.8-1.18z"/>
        <path fill="#EBEFF2" d="M930.088 122.324c1.682-.796 3.334-1.68 4.809-2.625.56.472 1.18.885 1.8 1.21 1.74.885 3.244.914 4.335.236.236-.148.472-.325.65-.531-1.417 1.415-3.068 2.713-5.015 3.746-1.092.56-2.596.442-4.248-.413-.856-.413-1.623-.974-2.33-1.623zM927.02 109.404c1.682-1.268 3.422-2.242 5.222-2.92a1.956 1.956 0 0 0-.56.265c-1.063.679-1.682 2.065-1.564 3.983.03.737.236 1.445.442 2.182a49.192 49.192 0 0 0-4.424 3.304 10.95 10.95 0 0 1-.56-2.832c-.09-1.858.471-3.244 1.445-3.982z"/>
        <path fill="#1A82FF" d="M926.136 116.218a44.15 44.15 0 0 1 4.424-3.304c.708 2.537 2.301 5.104 4.337 6.785a43.831 43.831 0 0 1-4.809 2.625c-1.74-1.592-3.215-3.864-3.952-6.106zM930.56 112.914c1.534-1.002 3.039-1.887 4.514-2.625-.089-.442-.177-.914-.177-1.327-.089-1.593.442-2.714 1.298-3.304.236-.148.501-.266.796-.325-1.416.177-2.89.531-4.336 1.033-.354.088-.679.206-.974.413-1.062.678-1.681 2.065-1.563 3.982.03.679.236 1.386.442 2.153z"/>
        <path fill="#EBEFF2" d="M934.897 119.7a46.019 46.019 0 0 0 4.307-3.04c-1.977-1.474-3.57-3.982-4.13-6.37-1.475.737-2.98 1.622-4.514 2.624.708 2.508 2.301 5.104 4.337 6.785z"/>
        <path fill="#111D28" d="M925.162 135.304c-5.634-2.39-15.31-1.357-21.858 6.313-.65.737-1.003 1.858-.915 3.303.177 3.658 2.92 7.965 6.195 9.646 1.298.679 2.448.826 3.392.531 9.705-2.773 14.661-11.12 14.838-17.256-.059-.944-.796-2.095-1.652-2.537z"/>
        <path fill="#1A82FF" d="M914.572 148.696a46.019 46.019 0 0 0 4.307-3.038c.354.265.738.53 1.121.708 1.445.737 2.714.767 3.599.177.206-.118.354-.266.53-.443a20.223 20.223 0 0 1-2.772 3.481 2.838 2.838 0 0 1-.649.531c-1.062.679-2.596.679-4.336-.236a8.589 8.589 0 0 1-1.8-1.18z"/>
        <path fill="#EBEFF2" d="M909.764 151.322c1.681-.797 3.333-1.682 4.808-2.626.56.472 1.18.885 1.8 1.21 1.74.885 3.245.914 4.336.236.236-.148.472-.325.649-.531-1.416 1.416-3.068 2.713-5.015 3.746-1.091.56-2.596.442-4.248-.413a8.738 8.738 0 0 1-2.33-1.622zM906.696 138.401c1.682-1.268 3.422-2.242 5.221-2.92a1.956 1.956 0 0 0-.56.265c-1.062.679-1.681 2.065-1.563 3.983.029.737.235 1.445.442 2.183a49.192 49.192 0 0 0-4.425 3.303 10.95 10.95 0 0 1-.56-2.832c-.089-1.858.472-3.244 1.445-3.982z"/>
        <path fill="#1A82FF" d="M905.811 145.215a44.15 44.15 0 0 1 4.425-3.303c.708 2.536 2.3 5.103 4.336 6.784a43.831 43.831 0 0 1-4.808 2.626c-1.74-1.593-3.186-3.865-3.953-6.107zM910.236 141.912c1.534-1.003 3.038-1.888 4.513-2.626-.088-.442-.177-.914-.177-1.327-.088-1.593.443-2.714 1.298-3.304.236-.148.502-.266.797-.325-1.416.177-2.891.531-4.337 1.033-.354.088-.678.206-.973.413-1.062.678-1.681 2.065-1.563 3.982.029.708.235 1.416.442 2.154z"/>
        <path fill="#EBEFF2" d="M914.572 148.696a46.019 46.019 0 0 0 4.307-3.038c-1.976-1.475-3.57-3.982-4.13-6.372-1.475.738-2.98 1.623-4.513 2.626.737 2.536 2.3 5.103 4.336 6.784z"/>
        <g>
            <path fill="url(#d)" d="M345.959 132.684L59.204 2.596l-4.75 9.764L334.1 157.11z" transform="translate(580.324 180.643)"/>
            <path fill="url(#e)" d="M303.068 191.8L16.342 61.71l-4.75 9.765 279.617 144.75z" transform="translate(580.324 180.643)"/>
            <path fill="url(#f)" d="M291.593 130.177L4.867.088.118 9.853l279.617 144.749z" transform="translate(580.324 180.643)"/>
            <path fill="#FFF" d="M892.773 381.263c-.177-2.33-.944-4.071-2.095-5.104-11.917-10.973-25.132-3.54-46.224-8.112 16.637 13.747 18.968 28.732 34.986 31.298 1.533.266 3.392-.206 5.31-1.504l8.023-16.578z" opacity=".4"/>
            <path fill="#FFF" d="M862.684 376.897c.767.973 1.505 1.947 2.213 2.861 5.634 7.316 8.76 11.062 14.66 12.33l5.487-11.327c-4.66-3.864-9.528-3.982-18.76-3.894-1.151 0-2.331.03-3.6.03zM933.923 321.499c-.177-2.33-.944-4.071-2.094-5.104-11.917-10.973-25.133-3.54-46.224-8.112 16.637 13.746 18.967 28.732 34.985 31.298 1.534.266 3.392-.206 5.31-1.504l8.023-16.578z" opacity=".4"/>
            <path fill="#FFF" d="M903.835 317.133c.767.973 1.504 1.947 2.212 2.861 5.634 7.316 8.761 11.062 14.661 12.33l5.487-11.327c-4.661-3.864-9.528-3.982-18.761-3.894-1.121.03-2.33.03-3.6.03zM877.257 318.165c-.177-2.33-.944-4.07-2.095-5.103-11.917-10.974-25.133-3.54-46.224-8.112 16.637 13.746 18.968 28.731 34.985 31.298 1.534.265 3.393-.207 5.31-1.505l8.024-16.578z" opacity=".4"/>
            <path fill="#FFF" d="M847.168 313.77c.767.973 1.505 1.947 2.213 2.861 5.634 7.316 8.76 11.062 14.66 12.33l5.487-11.327c-4.66-3.864-9.528-3.982-18.761-3.894-1.121.03-2.33.03-3.599.03z" opacity=".4"/>
            <path fill="#40A0FF" d="M931.416 357.723s3.304-5.782.236-10.915l28.2-3.54c8.467 9.617 6.933 21.83 6.933 21.83l-35.37-7.375zM923.835 368.903s-4.75 10.354-22.537 11.18l16.43 26.371s22.007-.177 33.127-14.307l-27.02-23.244z"/>
            <path fill="#111D28" d="M929.292 357.634c37.7.974 127.05 37.463 153.156 79.47.089.147.148.324.148.53.059.767-.443 1.77-1.062 2.183a1.392 1.392 0 0 1-.502.207c-49.144 5.486-133.126-42.124-157.197-71.15-.354-.532-.56-1.21-.62-2.066-.206-2.98 1.593-6.725 4.071-8.407.708-.472 1.387-.708 2.006-.767zM919.853 402.059c-1.446-9.735-10.944-22.124-26.962-24.69-1.534-.266-3.392.206-5.31 1.504-4.867 3.304-8.466 10.65-8.023 16.549.177 2.33.943 4.07 2.094 5.103 11.917 10.974 27.522 10.797 36.077 5.9 1.268-.856 2.242-2.803 2.124-4.366z"/>
            <path fill="#40A0FF" d="M900.177 344.065c13.068 6.755 24.572 17.139 24.572 17.139l23.51 8.17s-27.109-19.468-44.424-29.498l-3.658 4.189z"/>
            <path fill="#EBEFF2" d="M1081.327 439.581c-.147-.059-.236-.236-.265-.472-.03-.501.265-1.12.678-1.386.207-.148.384-.148.531-.089l17.876 9.882-18.82-7.935z"/>
            <path fill="#1A82FF" d="M996.903 406.16c1.032-5.074 3.54-10.207 6.814-14.19a831.857 831.857 0 0 1 18.525 9.204c-3.245 3.835-5.693 8.909-6.667 13.835a897.716 897.716 0 0 1-18.672-8.85z"/>
            <path fill="#EBEFF2" d="M978.732 396.956c1.032-4.838 3.392-9.764 6.519-13.57a841.511 841.511 0 0 1 18.466 8.585c-3.304 3.952-5.782 9.115-6.814 14.188a945.44 945.44 0 0 1-18.171-9.203z"/>
            <path fill="#1A82FF" d="M962.566 388.283c.974-4.454 3.01-8.702 5.87-12.212 5.428 2.271 11.063 4.75 16.785 7.315-3.127 3.835-5.486 8.732-6.519 13.57a779.058 779.058 0 0 1-16.136-8.673z"/>
            <path fill="#EBEFF2" d="M962.566 388.283c-4.896-2.714-9.587-5.369-13.923-7.935.856-3.687 2.655-7.375 4.985-10.324 4.69 1.829 9.676 3.864 14.838 6.017a29.376 29.376 0 0 0-5.9 12.242zM1003.717 391.97c1.475-1.77 3.097-3.274 4.808-4.454 3.658-2.478 7.05-2.832 9.646-1.563a287.178 287.178 0 0 1 17.522 9.764c-2.478-1.18-5.634-.856-9.085 1.475-1.564 1.062-3.039 2.419-4.366 4.012-6.047-3.157-12.36-6.284-18.525-9.233z"/>
            <path fill="#1A82FF" d="M999.646 377.162c6.224 2.714 12.448 5.634 18.555 8.79-2.626-1.268-5.989-.914-9.646 1.564-1.74 1.18-3.363 2.685-4.809 4.455a723.664 723.664 0 0 0-18.466-8.585c1.475-1.799 3.127-3.392 4.897-4.572 3.57-2.448 6.903-2.89 9.469-1.652z"/>
            <path fill="#EBEFF2" d="M968.466 376.07c1.387-1.71 3.009-3.333 4.69-4.483 3.363-2.271 6.49-2.655 8.909-1.504 5.782 2.123 11.77 4.483 17.67 7.05-2.567-1.24-5.96-.797-9.558 1.652-1.77 1.21-3.422 2.773-4.897 4.572-5.781-2.566-11.386-5.015-16.814-7.286z"/>
            <path fill="#1A82FF" d="M953.628 370.024c1.298-1.623 2.744-3.039 4.307-4.1 2.95-2.007 5.723-2.302 7.817-1.299a302.47 302.47 0 0 1 16.313 5.458c-2.39-1.15-5.546-.797-8.909 1.504-1.681 1.121-3.274 2.743-4.69 4.484a571.372 571.372 0 0 0-14.838-6.047zM948.643 380.348c-.472 2.006-.678 4.012-.53 5.87.265 3.629 1.74 6.018 3.863 7.05a297.46 297.46 0 0 0 14.396 9.44c-2.42-1.18-4.1-3.923-4.396-8.024-.147-2.006.118-4.247.59-6.371a779.073 779.073 0 0 1-13.923-7.965z"/>
            <path fill="#EBEFF2" d="M978.732 396.956c-.472 2.271-.679 4.513-.531 6.607.324 4.396 2.094 7.405 4.69 8.643a335.984 335.984 0 0 1-16.49-9.528c-2.419-1.18-4.1-3.923-4.395-8.023-.148-2.006.118-4.248.59-6.372a652.126 652.126 0 0 0 16.136 8.673z"/>
            <path fill="#1A82FF" d="M982.89 412.177a341.46 341.46 0 0 0 18.32 9.115c-2.626-1.268-4.484-4.189-4.809-8.643-.147-2.065.03-4.277.502-6.49-6.166-3.038-12.272-6.106-18.171-9.203-.472 2.271-.679 4.513-.531 6.607.324 4.396 2.094 7.375 4.69 8.614z"/>
            <path fill="#EBEFF2" d="M996.903 406.16c-.443 2.212-.65 4.424-.502 6.489.325 4.484 2.183 7.375 4.808 8.643a293.123 293.123 0 0 0 18.526 7.729c-2.478-1.21-4.278-3.924-4.573-8.142-.147-1.888.03-3.864.413-5.87a975.435 975.435 0 0 1-18.672-8.85z"/>
            <path fill="#1A82FF" d="M892.596 398.726a74.424 74.424 0 0 0 7.758 3.362c-.059.738-.089 1.446-.03 2.154.177 2.596 1.21 4.336 2.744 5.074.324.147.678.265 1.062.324-2.301-.03-4.69-.295-7.11-.855-.442-.089-.855-.266-1.268-.443-1.829-.885-3.097-3.009-3.304-6.136-.059-1.12 0-2.27.148-3.48z"/>
            <path fill="#EBEFF2" d="M884.985 394.33a77.573 77.573 0 0 0 7.61 4.396c-.176 1.18-.235 2.36-.147 3.451.236 3.127 1.475 5.221 3.304 6.136.413.206.826.383 1.269.442a33.378 33.378 0 0 1-9.351-3.746c-1.682-1.033-2.803-3.156-3.01-6.165-.088-1.416.03-2.95.325-4.514zM900.147 379.345c3.127 1.24 5.93 2.832 8.378 4.72-.265-.207-.53-.413-.826-.56-1.829-.886-4.218-.561-6.755 1.15-.973.649-1.77 1.504-2.625 2.448a71.923 71.923 0 0 0-8.26-3.304c1.032-1.239 2.183-2.3 3.392-3.126 2.478-1.652 4.838-2.065 6.696-1.328z"/>
            <path fill="#1A82FF" d="M890.03 383.829a80.302 80.302 0 0 1 8.26 3.304c-2.862 3.097-5.075 7.433-5.694 11.622a74.284 74.284 0 0 1-7.61-4.395c.737-3.746 2.625-7.61 5.043-10.531z"/>
            <path fill="#1A82FF" d="M898.29 387.133a69.313 69.313 0 0 1 7.374 3.982 12.336 12.336 0 0 1 1.681-1.386c2.124-1.416 4.1-1.682 5.605-.974.413.207.796.472 1.12.826a34.134 34.134 0 0 0-5.043-5.074 5.575 5.575 0 0 0-1.357-1.003c-1.83-.885-4.219-.56-6.756 1.15-.943.68-1.77 1.535-2.625 2.479z"/>
            <path fill="#EBEFF2" d="M892.596 398.726a74.424 74.424 0 0 0 7.758 3.362c.383-3.952 2.448-8.26 5.31-11.002a81.861 81.861 0 0 0-7.375-3.983c-2.861 3.127-5.074 7.463-5.693 11.623z"/>
            <path fill="#111D28" d="M960.767 342.265c-1.445-9.734-10.944-22.123-26.962-24.69-1.534-.265-3.392.207-5.31 1.505-4.867 3.303-8.466 10.649-8.023 16.548.177 2.33.944 4.071 2.094 5.104 11.918 10.973 27.522 10.796 36.077 5.9 1.298-.856 2.242-2.833 2.124-4.367z"/>
            <path fill="#1A82FF" d="M933.54 338.932a74.424 74.424 0 0 0 7.758 3.363c-.06.737-.089 1.445-.03 2.153.177 2.596 1.21 4.337 2.744 5.074.324.148.678.266 1.062.325-2.301-.03-4.69-.295-7.11-.856-.442-.088-.855-.265-1.268-.442-1.829-.885-3.097-3.01-3.304-6.136-.088-1.121-.03-2.3.148-3.48z"/>
            <path fill="#EBEFF2" d="M925.9 334.537a77.573 77.573 0 0 0 7.61 4.395c-.177 1.18-.236 2.36-.147 3.451.236 3.127 1.475 5.222 3.304 6.136.413.207.826.384 1.268.443a33.378 33.378 0 0 1-9.35-3.747c-1.682-1.032-2.803-3.156-3.01-6.165-.088-1.445.03-2.98.325-4.513zM941.062 319.552c3.127 1.239 5.93 2.831 8.378 4.72-.266-.207-.531-.414-.826-.561-1.83-.885-4.219-.56-6.756 1.15-.973.65-1.77 1.505-2.625 2.449a71.923 71.923 0 0 0-8.26-3.304c1.033-1.239 2.183-2.301 3.393-3.127 2.507-1.681 4.867-2.065 6.696-1.327z"/>
            <path fill="#1A82FF" d="M930.973 324.006a80.302 80.302 0 0 1 8.26 3.304c-2.861 3.097-5.074 7.433-5.693 11.622a74.284 74.284 0 0 1-7.61-4.395c.707-3.717 2.595-7.61 5.043-10.531zM939.233 327.31a69.313 69.313 0 0 1 7.375 3.982 12.336 12.336 0 0 1 1.681-1.386c2.124-1.416 4.1-1.682 5.605-.974.413.207.796.472 1.12.826a34.134 34.134 0 0 0-5.043-5.074 5.575 5.575 0 0 0-1.357-1.003c-1.83-.885-4.219-.56-6.756 1.15-.973.709-1.799 1.564-2.625 2.479z"/>
            <path fill="#EBEFF2" d="M933.54 338.932a74.424 74.424 0 0 0 7.758 3.363c.383-3.953 2.448-8.26 5.31-11.003a81.861 81.861 0 0 0-7.375-3.982c-2.861 3.097-5.074 7.433-5.693 11.622z"/>
            <path fill="#111D28" d="M903.982 338.667c-1.445-9.735-10.944-22.124-26.961-24.69-1.534-.266-3.393.206-5.31 1.504-4.867 3.304-8.466 10.649-8.024 16.548.177 2.33.944 4.071 2.095 5.104 11.917 10.973 27.522 10.796 36.076 5.9 1.298-.856 2.242-2.803 2.124-4.366z"/>
            <path fill="#1A82FF" d="M876.755 335.333a74.424 74.424 0 0 0 7.758 3.363c-.059.738-.088 1.446-.03 2.154.178 2.595 1.21 4.336 2.744 5.073.325.148.679.266 1.062.325-2.3-.03-4.69-.295-7.11-.856-.442-.088-.855-.265-1.267-.442-1.83-.885-3.098-3.009-3.304-6.136-.089-1.12-.03-2.271.147-3.48z"/>
            <path fill="#EBEFF2" d="M869.145 330.938a77.573 77.573 0 0 0 7.61 4.395c-.177 1.18-.236 2.36-.147 3.452.236 3.127 1.475 5.22 3.304 6.135.412.207.825.384 1.268.443a33.378 33.378 0 0 1-9.351-3.746c-1.682-1.033-2.802-3.157-3.009-6.166-.118-1.416 0-2.95.325-4.513zM884.277 315.953c3.127 1.239 5.93 2.832 8.378 4.72-.266-.207-.531-.413-.826-.56-1.829-.886-4.218-.561-6.755 1.15-.974.649-1.77 1.504-2.626 2.448a71.923 71.923 0 0 0-8.26-3.304c1.033-1.239 2.184-2.3 3.393-3.127 2.507-1.652 4.867-2.065 6.696-1.327z"/>
            <path fill="#1A82FF" d="M874.189 320.437a80.302 80.302 0 0 1 8.26 3.303c-2.862 3.098-5.074 7.434-5.694 11.623a74.284 74.284 0 0 1-7.61-4.395c.708-3.747 2.595-7.611 5.044-10.531z"/>
            <path fill="#1A82FF" d="M882.448 323.74a69.313 69.313 0 0 1 7.375 3.983 12.336 12.336 0 0 1 1.681-1.387c2.124-1.416 4.1-1.681 5.605-.973.413.206.797.472 1.121.826a34.134 34.134 0 0 0-5.044-5.074 5.575 5.575 0 0 0-1.357-1.003c-1.829-.885-4.218-.56-6.755 1.15-.974.679-1.8 1.534-2.626 2.478z"/>
            <path fill="#EBEFF2" d="M876.755 335.333a74.424 74.424 0 0 0 7.758 3.363c.384-3.953 2.449-8.26 5.31-11.003a81.861 81.861 0 0 0-7.375-3.982c-2.861 3.127-5.073 7.463-5.693 11.622z"/>
        </g>
        <g>
            <path fill="url(#g)" d="M173.894 132.684L460.619 2.596l4.75 9.764-279.617 144.75z" transform="translate(341.386 180.643)"/>
            <path fill="url(#h)" d="M216.755 191.8L503.481 61.71l4.75 9.765-279.617 144.75z" transform="translate(341.386 180.643)"/>
            <path fill="url(#i)" d="M228.23 130.177L514.956.088l4.749 9.765-279.617 144.749z" transform="translate(341.386 180.643)"/>
            <path fill="#FFF" d="M548.761 381.263c.177-2.33.944-4.071 2.094-5.104 11.918-10.973 25.133-3.54 46.225-8.112-16.638 13.747-18.968 28.732-34.986 31.298-1.534.266-3.392-.206-5.31-1.504l-8.023-16.578z" opacity=".4"/>
            <path fill="#FFF" d="M578.85 376.897c-.767.973-1.505 1.947-2.213 2.861-5.634 7.316-8.76 11.062-14.66 12.33l-5.487-11.327c4.66-3.864 9.528-3.982 18.76-3.894 1.151 0 2.36.03 3.6.03zM507.61 321.499c.178-2.33.945-4.071 2.095-5.104 11.917-10.973 25.133-3.54 46.224-8.112-16.637 13.746-18.967 28.732-34.985 31.298-1.534.266-3.392-.206-5.31-1.504l-8.023-16.578z" opacity=".4"/>
            <path fill="#FFF" d="M537.7 317.133c-.768.973-1.505 1.947-2.213 2.861-5.634 7.316-8.761 11.062-14.661 12.33l-5.487-11.327c4.661-3.864 9.528-3.982 18.761-3.894 1.121.03 2.33.03 3.6.03zM564.277 318.165c.177-2.33.944-4.07 2.095-5.103 11.917-10.974 25.132-3.54 46.224-8.112-16.637 13.746-18.968 28.731-34.985 31.298-1.534.265-3.393-.207-5.31-1.505l-8.024-16.578z" opacity=".4"/>
            <path fill="#FFF" d="M594.366 313.77c-.767.973-1.505 1.947-2.213 2.861-5.634 7.316-8.76 11.062-14.66 12.33l-5.487-11.327c4.66-3.864 9.528-3.982 18.761-3.894 1.12.03 2.33.03 3.599.03z" opacity=".4"/>
            <path fill="#40A0FF" d="M510.118 357.723s-3.304-5.782-.236-10.915l-28.2-3.54c-8.467 9.617-6.933 21.83-6.933 21.83l35.369-7.375zM517.7 368.903s4.748 10.354 22.536 11.18l-16.43 26.371s-22.007-.177-33.128-14.307l27.021-23.244z"/>
            <path fill="#111D28" d="M512.242 357.634c-37.7.974-127.05 37.463-153.156 79.47a1.019 1.019 0 0 0-.148.53c-.059.767.443 1.77 1.062 2.183.177.118.354.177.501.207 49.145 5.516 133.127-42.124 157.198-71.121.354-.531.56-1.21.62-2.065.206-2.98-1.593-6.726-4.071-8.407-.679-.502-1.387-.738-2.006-.797zM521.681 402.059c1.446-9.735 10.944-22.124 26.962-24.69 1.534-.266 3.392.206 5.31 1.504 4.867 3.304 8.466 10.65 8.023 16.549-.177 2.33-.944 4.07-2.094 5.103-11.917 10.974-27.522 10.797-36.077 5.9-1.268-.856-2.242-2.803-2.124-4.366z"/>
            <path fill="#40A0FF" d="M541.357 344.065c-13.068 6.755-24.572 17.139-24.572 17.139l-23.51 8.17s27.108-19.468 44.424-29.498l3.658 4.189z"/>
            <path fill="#EBEFF2" d="M360.206 439.581c.148-.059.236-.236.266-.472.03-.501-.266-1.12-.678-1.386-.207-.148-.384-.148-.531-.089l-17.877 9.882 18.82-7.935z"/>
            <path fill="#1A82FF" d="M444.631 406.16c-1.032-5.074-3.54-10.207-6.814-14.19a831.858 831.858 0 0 0-18.525 9.204c3.245 3.835 5.693 8.909 6.667 13.835a897.716 897.716 0 0 0 18.672-8.85z"/>
            <path fill="#EBEFF2" d="M462.802 396.956c-1.032-4.838-3.392-9.764-6.519-13.57a841.51 841.51 0 0 0-18.466 8.585c3.304 3.952 5.782 9.115 6.814 14.188a866.473 866.473 0 0 0 18.171-9.203z"/>
            <path fill="#1A82FF" d="M478.968 388.283c-.974-4.454-3.01-8.702-5.87-12.212-5.428 2.271-11.063 4.75-16.785 7.315 3.127 3.835 5.486 8.732 6.519 13.57a779.059 779.059 0 0 0 16.136-8.673z"/>
            <path fill="#EBEFF2" d="M478.968 388.283c4.896-2.714 9.587-5.369 13.923-7.935-.856-3.687-2.655-7.375-4.985-10.324-4.69 1.829-9.676 3.864-14.838 6.017a29.376 29.376 0 0 1 5.9 12.242zM437.817 391.97c-1.475-1.77-3.097-3.274-4.808-4.454-3.658-2.478-7.05-2.832-9.646-1.563a287.178 287.178 0 0 0-17.522 9.764c2.478-1.18 5.634-.856 9.085 1.475 1.564 1.062 3.039 2.419 4.366 4.012 6.047-3.157 12.36-6.284 18.525-9.233z"/>
            <path fill="#1A82FF" d="M441.888 377.162c-6.224 2.714-12.448 5.634-18.555 8.79 2.626-1.268 5.989-.914 9.646 1.564 1.74 1.18 3.363 2.685 4.809 4.455 6.194-2.98 12.389-5.87 18.466-8.585-1.475-1.799-3.127-3.392-4.897-4.572-3.57-2.448-6.903-2.89-9.47-1.652z"/>
            <path fill="#EBEFF2" d="M473.068 376.07c-1.387-1.71-3.009-3.333-4.69-4.483-3.363-2.271-6.49-2.655-8.909-1.504-5.782 2.123-11.77 4.483-17.67 7.05 2.567-1.24 5.96-.797 9.558 1.652 1.77 1.21 3.422 2.773 4.897 4.572 5.781-2.566 11.386-5.015 16.814-7.286z"/>
            <path fill="#1A82FF" d="M487.906 370.024c-1.298-1.623-2.744-3.039-4.307-4.1-2.95-2.007-5.723-2.302-7.817-1.299a302.47 302.47 0 0 0-16.313 5.458c2.39-1.15 5.546-.797 8.909 1.504 1.681 1.121 3.274 2.743 4.69 4.484a571.373 571.373 0 0 1 14.838-6.047zM492.89 380.348c.473 2.006.68 4.012.532 5.87-.266 3.629-1.74 6.018-3.864 7.05a297.459 297.459 0 0 1-14.396 9.44c2.42-1.18 4.1-3.923 4.396-8.024.147-2.006-.118-4.247-.59-6.371a779.075 779.075 0 0 0 13.923-7.965z"/>
            <path fill="#EBEFF2" d="M462.802 396.956c.472 2.271.679 4.513.531 6.607-.324 4.396-2.094 7.405-4.69 8.643a335.984 335.984 0 0 0 16.49-9.528c2.419-1.18 4.1-3.923 4.395-8.023.148-2.006-.118-4.248-.59-6.372a652.125 652.125 0 0 1-16.136 8.673z"/>
            <path fill="#1A82FF" d="M458.643 412.177a341.46 341.46 0 0 1-18.319 9.115c2.626-1.268 4.484-4.189 4.809-8.643.147-2.065-.03-4.277-.502-6.49 6.165-3.038 12.272-6.106 18.171-9.203.472 2.271.679 4.513.531 6.607-.324 4.396-2.094 7.375-4.69 8.614z"/>
            <path fill="#EBEFF2" d="M444.631 406.16c.443 2.212.65 4.424.502 6.489-.325 4.484-2.183 7.375-4.809 8.643a293.123 293.123 0 0 1-18.525 7.729c2.478-1.21 4.278-3.924 4.573-8.142.147-1.888-.03-3.864-.413-5.87a975.434 975.434 0 0 0 18.672-8.85z"/>
            <path fill="#1A82FF" d="M548.938 398.726a74.424 74.424 0 0 1-7.758 3.362c.059.738.088 1.446.03 2.154-.178 2.596-1.21 4.336-2.744 5.074a4.052 4.052 0 0 1-1.062.324c2.301-.03 4.69-.295 7.11-.855.442-.089.855-.266 1.268-.443 1.829-.885 3.097-3.009 3.304-6.136.059-1.12.029-2.27-.148-3.48z"/>
            <path fill="#EBEFF2" d="M556.549 394.33a77.573 77.573 0 0 1-7.61 4.396c.176 1.18.235 2.36.147 3.451-.236 3.127-1.475 5.221-3.304 6.136-.413.206-.826.383-1.269.442a33.378 33.378 0 0 0 9.351-3.746c1.682-1.033 2.803-3.156 3.01-6.165.088-1.416-.03-2.95-.325-4.514zM541.386 379.345c-3.126 1.24-5.929 2.832-8.377 4.72.265-.207.53-.413.826-.56 1.829-.886 4.218-.561 6.755 1.15.973.649 1.77 1.504 2.625 2.448a71.923 71.923 0 0 1 8.26-3.304c-1.033-1.239-2.183-2.3-3.392-3.126-2.478-1.652-4.838-2.065-6.697-1.328z"/>
            <path fill="#1A82FF" d="M551.504 383.829a80.302 80.302 0 0 0-8.26 3.304c2.862 3.097 5.075 7.433 5.694 11.622a74.284 74.284 0 0 0 7.61-4.395c-.737-3.746-2.625-7.61-5.044-10.531z"/>
            <path fill="#1A82FF" d="M543.245 387.133a69.313 69.313 0 0 0-7.375 3.982 12.336 12.336 0 0 0-1.681-1.386c-2.124-1.416-4.1-1.682-5.605-.974a3.806 3.806 0 0 0-1.12.826 34.134 34.134 0 0 1 5.043-5.074 5.575 5.575 0 0 1 1.357-1.003c1.83-.885 4.219-.56 6.755 1.15.974.68 1.77 1.535 2.626 2.479z"/>
            <path fill="#EBEFF2" d="M548.938 398.726a74.424 74.424 0 0 1-7.758 3.362c-.384-3.952-2.448-8.26-5.31-11.002a81.861 81.861 0 0 1 7.375-3.983c2.861 3.127 5.074 7.463 5.693 11.623z"/>
            <path fill="#111D28" d="M480.767 342.265c1.445-9.734 10.944-22.123 26.962-24.69 1.534-.265 3.392.207 5.31 1.505 4.867 3.303 8.465 10.649 8.023 16.548-.177 2.33-.944 4.071-2.094 5.104-11.918 10.973-27.523 10.796-36.077 5.9-1.298-.856-2.242-2.833-2.124-4.367z"/>
            <path fill="#1A82FF" d="M507.994 338.932a74.424 74.424 0 0 1-7.758 3.363c.059.737.088 1.445.03 2.153-.178 2.596-1.21 4.337-2.744 5.074a4.052 4.052 0 0 1-1.062.325c2.301-.03 4.69-.295 7.11-.856.442-.088.855-.265 1.268-.442 1.829-.885 3.097-3.01 3.304-6.136.088-1.121.03-2.3-.148-3.48z"/>
            <path fill="#EBEFF2" d="M515.634 334.537a77.573 77.573 0 0 1-7.61 4.395c.177 1.18.236 2.36.147 3.451-.236 3.127-1.475 5.222-3.304 6.136-.413.207-.826.384-1.268.443a33.378 33.378 0 0 0 9.35-3.747c1.682-1.032 2.803-3.156 3.01-6.165.088-1.445-.03-2.98-.325-4.513zM500.472 319.552c-3.127 1.239-5.93 2.831-8.378 4.72.266-.207.531-.414.826-.561 1.83-.885 4.219-.56 6.756 1.15.973.65 1.77 1.505 2.625 2.449a71.923 71.923 0 0 1 8.26-3.304c-1.033-1.239-2.183-2.301-3.393-3.127-2.507-1.681-4.867-2.065-6.696-1.327z"/>
            <path fill="#1A82FF" d="M510.56 324.006a80.302 80.302 0 0 0-8.26 3.304c2.862 3.097 5.075 7.433 5.694 11.622a74.284 74.284 0 0 0 7.61-4.395c-.707-3.717-2.595-7.61-5.044-10.531z"/>
            <path fill="#1A82FF" d="M502.3 327.31a69.313 69.313 0 0 0-7.374 3.982 12.336 12.336 0 0 0-1.681-1.386c-2.124-1.416-4.1-1.682-5.605-.974a3.806 3.806 0 0 0-1.12.826 34.134 34.134 0 0 1 5.043-5.074 5.575 5.575 0 0 1 1.357-1.003c1.83-.885 4.219-.56 6.756 1.15.973.709 1.799 1.564 2.625 2.479z"/>
            <path fill="#EBEFF2" d="M507.994 338.932a74.424 74.424 0 0 1-7.758 3.363c-.383-3.953-2.448-8.26-5.31-11.003a81.861 81.861 0 0 1 7.375-3.982c2.861 3.097 5.074 7.433 5.693 11.622z"/>
            <path fill="#111D28" d="M537.552 338.667c1.445-9.735 10.944-22.124 26.961-24.69 1.534-.266 3.393.206 5.31 1.504 4.867 3.304 8.466 10.649 8.024 16.548-.177 2.33-.944 4.071-2.095 5.104-11.917 10.973-27.522 10.796-36.076 5.9-1.298-.856-2.242-2.803-2.124-4.366z"/>
            <path fill="#1A82FF" d="M564.779 335.333a74.424 74.424 0 0 1-7.758 3.363c.059.738.088 1.446.03 2.154-.178 2.595-1.21 4.336-2.744 5.073a4.052 4.052 0 0 1-1.062.325c2.3-.03 4.69-.295 7.109-.856.442-.088.855-.265 1.268-.442 1.83-.885 3.098-3.009 3.304-6.136.089-1.12.03-2.271-.147-3.48z"/>
            <path fill="#EBEFF2" d="M572.419 330.938a77.573 77.573 0 0 1-7.61 4.395c.176 1.18.235 2.36.147 3.452-.236 3.127-1.475 5.22-3.304 6.135-.413.207-.826.384-1.269.443a33.378 33.378 0 0 0 9.352-3.746c1.68-1.033 2.802-3.157 3.008-6.166.089-1.416-.03-2.95-.324-4.513zM557.257 315.953c-3.127 1.239-5.93 2.832-8.378 4.72.266-.207.531-.413.826-.56 1.829-.886 4.218-.561 6.755 1.15.974.649 1.77 1.504 2.626 2.448a71.923 71.923 0 0 1 8.26-3.304c-1.033-1.239-2.184-2.3-3.393-3.127-2.508-1.652-4.867-2.065-6.696-1.327z"/>
            <path fill="#1A82FF" d="M567.345 320.437a80.302 80.302 0 0 0-8.26 3.303c2.862 3.098 5.074 7.434 5.694 11.623a74.284 74.284 0 0 0 7.61-4.395c-.708-3.747-2.595-7.611-5.044-10.531z"/>
            <path fill="#1A82FF" d="M559.086 323.74a69.313 69.313 0 0 0-7.375 3.983 12.336 12.336 0 0 0-1.682-1.387c-2.123-1.416-4.1-1.681-5.604-.973a3.806 3.806 0 0 0-1.121.826 34.134 34.134 0 0 1 5.044-5.074 5.575 5.575 0 0 1 1.357-1.003c1.829-.885 4.218-.56 6.755 1.15.974.679 1.8 1.534 2.626 2.478z"/>
            <path fill="#EBEFF2" d="M564.779 335.333a74.424 74.424 0 0 1-7.758 3.363c-.384-3.953-2.449-8.26-5.31-11.003a81.861 81.861 0 0 1 7.375-3.982c2.86 3.127 5.073 7.463 5.693 11.622z"/>
        </g>
        <g>
            <path fill="url(#j)" d="M43.599 93.658l-2.183 137.227-4.72.03-4.926-137.14z" transform="translate(701.858 11.322)"/>
            <path fill="url(#k)" d="M12.33 99.528l-2.183 137.227-4.749.03L.501 99.646z" transform="translate(701.858 11.322)"/>
            <path fill="url(#l)" d="M34.484 115.546L32.3 252.773l-4.75.03-4.926-137.14z" transform="translate(701.858 11.322)"/>
            <path fill="#FFF" d="M712.448 105.51c.885.502 1.416 1.121 1.623 1.77 2.094 6.755-3.275 10.56-5.428 19.735-2.3-9.115-7.788-12.832-5.811-19.617.177-.649.708-1.298 1.593-1.8l8.023-.088z" opacity=".4"/>
            <path fill="#FFF" d="M708.584 118.165c-.236-.501-.472-.944-.708-1.416-1.829-3.57-2.714-5.516-2.124-8.082l5.487-.06c.649 2.538-.207 4.484-1.976 8.113-.236.501-.472.973-.679 1.445zM743.658 100.437c.885.501 1.416 1.12 1.622 1.77 2.095 6.755-3.274 10.56-5.427 19.734-2.301-9.115-7.788-12.832-5.812-19.617.177-.648.708-1.297 1.593-1.799l8.024-.088z" opacity=".4"/>
            <path fill="#FFF" d="M739.794 113.091c-.236-.501-.472-.944-.708-1.415-1.83-3.57-2.714-5.517-2.124-8.083l5.486-.06c.65 2.538-.206 4.485-1.976 8.113-.236.472-.443.944-.678 1.445zM734.425 123.386c.885.502 1.416 1.121 1.622 1.77 2.095 6.756-3.274 10.56-5.428 19.735-2.3-9.115-7.787-12.832-5.81-19.617.176-.649.707-1.298 1.592-1.8l8.024-.088z" opacity=".4"/>
            <path fill="#FFF" d="M730.56 136.041c-.236-.501-.472-.944-.707-1.416-1.83-3.569-2.714-5.516-2.124-8.082l5.486-.06c.65 2.538-.206 4.485-1.976 8.113a31.83 31.83 0 0 0-.679 1.445z" opacity=".4"/>
            <path fill="#40A0FF" d="M728.938 94.655s2.89-.207 4.336 1.947l6.667-10.443c-2.212-5.132-7.316-6.784-7.316-6.784l-3.687 15.28zM723.127 95.57s-4.956-.06-8.614 6.784l-7.315-11.386s4.159-8.644 11.8-10.384l4.129 14.985z"/>
            <path fill="#111D28" d="M728.584 95.51c6.637-15.044 8.909-57.05-2.773-75.162a.302.302 0 0 0-.177-.147c-.295-.177-.767-.148-1.062 0-.088.059-.147.088-.177.147-11.327 18.348-8.2 60.295-1.268 75.192.147.236.383.442.708.649 1.12.649 2.95.62 4.07-.03.296-.177.532-.413.68-.649zM709.292 90.968c3.57 2.389 6.667 8.436 4.72 15.22-.177.65-.708 1.299-1.593 1.8-2.213 1.298-5.782 1.357-8.024.089-.885-.502-1.416-1.121-1.622-1.77-2.095-6.755.885-12.862 4.395-15.31.59-.354 1.534-.354 2.124-.03z"/>
            <path fill="#40A0FF" d="M728.496 109.522c-.236-6.401-2.183-12.89-2.183-12.89l1.18-10.797s2.625 14.307 3.333 23.009l-2.33.678z"/>
            <path fill="#EBEFF2" d="M724.602 20.348c0 .06.059.148.147.207.177.118.472.088.679 0 .088-.06.147-.118.147-.207l-.56-8.879-.413 8.88z"/>
            <path fill="#1A82FF" d="M722.065 59.847c2.183.53 4.69.501 6.873-.06-.03-2.979-.088-6.047-.177-8.996-2.124.56-4.572.59-6.696.059-.06 2.979-.06 5.988 0 8.997z"/>
            <path fill="#EBEFF2" d="M722.3 68.726c2.095.501 4.485.472 6.58-.03.058-2.89.088-5.87.058-8.879-2.183.56-4.66.59-6.873.06.03 2.949.118 5.928.236 8.849z"/>
            <path fill="#1A82FF" d="M722.714 76.69c1.947.443 3.982.443 5.9-.03.118-2.566.206-5.25.236-7.993-2.095.53-4.455.53-6.579.03.118 2.772.266 5.427.443 7.993z"/>
            <path fill="#EBEFF2" d="M722.714 76.69c.147 2.449.324 4.779.53 6.962 1.623.354 3.393.324 4.986-.03.148-2.182.295-4.542.384-6.961a12.86 12.86 0 0 1-5.9.03zM728.909 59.788c.973-.236 1.858-.62 2.654-1.062 1.652-.974 2.42-2.242 2.42-3.51-.09-2.921-.296-5.841-.59-8.732 0 1.18-.709 2.39-2.272 3.304-.708.413-1.534.737-2.39.973.119 2.98.178 6.077.178 9.027z"/>
            <path fill="#1A82FF" d="M733.982 64.153c.089-2.95.089-5.958 0-8.938 0 1.269-.767 2.537-2.419 3.51a9.618 9.618 0 0 1-2.654 1.063c.03 3.008 0 5.988-.06 8.879a9.685 9.685 0 0 0 2.714-1.092c1.652-.944 2.449-2.183 2.42-3.422z"/>
            <path fill="#EBEFF2" d="M728.614 76.66c.944-.235 1.887-.56 2.625-1.002 1.534-.885 2.242-2.065 2.242-3.216.236-2.684.413-5.486.501-8.289 0 1.24-.796 2.508-2.419 3.452-.796.472-1.74.826-2.713 1.091-.03 2.714-.118 5.398-.236 7.965z"/>
            <path fill="#1A82FF" d="M728.23 83.622c.885-.206 1.711-.501 2.419-.944 1.327-.796 1.976-1.828 1.976-2.831.354-2.36.65-4.868.885-7.434 0 1.15-.737 2.33-2.242 3.215-.767.443-1.71.767-2.625 1.003-.147 2.449-.265 4.809-.413 6.991zM723.215 83.652c-.885-.177-1.71-.472-2.419-.885-1.386-.767-2.035-1.8-2.035-2.832a107.59 107.59 0 0 1-1.032-7.434c0 1.18.796 2.33 2.36 3.216.766.442 1.68.737 2.625.973.147 2.449.324 4.779.501 6.962z"/>
            <path fill="#EBEFF2" d="M722.3 68.726c-.973-.236-1.887-.56-2.713-1.033-1.681-.944-2.537-2.212-2.537-3.451.148 2.832.384 5.605.679 8.289 0 1.18.796 2.33 2.36 3.215.766.443 1.68.738 2.625.974-.177-2.596-.325-5.251-.413-7.994z"/>
            <path fill="#1A82FF" d="M717.08 64.242c-.148-2.95-.207-5.93-.177-8.909 0 1.269.826 2.537 2.507 3.51a9.525 9.525 0 0 0 2.655 1.004c.03 3.008.118 5.988.236 8.879-.974-.236-1.888-.56-2.714-1.033-1.681-.944-2.507-2.212-2.507-3.451z"/>
            <path fill="#EBEFF2" d="M722.065 59.847c-.944-.236-1.859-.56-2.655-1.003-1.71-.974-2.507-2.242-2.507-3.51.03-2.95.177-5.87.413-8.732 0 1.21.737 2.419 2.36 3.333.707.413 1.533.708 2.389.944-.06 2.95-.06 5.959 0 8.968z"/>
            <path fill="#1A82FF" d="M705.546 102.324a36.98 36.98 0 0 1 .118-3.687c-.295-.118-.59-.236-.856-.383-.973-.56-1.475-1.298-1.475-2.036 0-.147.03-.324.06-.472a13.842 13.842 0 0 0-.974 2.95c-.06.177-.06.384-.06.59 0 .885.62 1.77 1.8 2.449.413.236.885.442 1.387.59z"/>
            <path fill="#EBEFF2" d="M705.84 106.13a34.79 34.79 0 0 1-.324-3.835 6.537 6.537 0 0 1-1.386-.59c-1.18-.678-1.8-1.563-1.8-2.448 0-.207 0-.384.06-.59a14.363 14.363 0 0 0-.266 4.395c.088.855.737 1.681 1.858 2.33.59.325 1.21.59 1.859.738zM714.572 102.944c.089-1.475 0-2.861-.295-4.189.03.148.06.295.06.443 0 .885-.561 1.77-1.712 2.448-.442.266-.914.413-1.445.59 0 1.239-.089 2.566-.236 3.864a7.46 7.46 0 0 0 1.858-.767c1.121-.649 1.711-1.504 1.77-2.389z"/>
            <path fill="#1A82FF" d="M710.944 106.1c.147-1.327.236-2.625.236-3.864-1.74.56-3.864.62-5.634.088a29.25 29.25 0 0 0 .324 3.835c1.593.384 3.481.354 5.074-.059z"/>
            <path fill="#1A82FF" d="M711.18 102.236c0-1.268-.06-2.507-.207-3.658.295-.118.59-.236.856-.413.944-.56 1.445-1.298 1.416-2.035 0-.207-.03-.413-.118-.59.442.914.796 1.888 1.062 2.92.088.236.147.472.147.708 0 .885-.56 1.77-1.71 2.449-.443.295-.915.471-1.446.619z"/>
            <path fill="#EBEFF2" d="M705.546 102.324a36.98 36.98 0 0 1 .118-3.687c1.622.59 3.717.56 5.31-.03.117 1.151.206 2.36.206 3.658-1.77.531-3.894.59-5.634.06z"/>
            <path fill="#111D28" d="M740.501 85.982c3.57 2.39 6.667 8.437 4.72 15.222-.177.649-.708 1.297-1.593 1.799-2.212 1.298-5.781 1.357-8.023.088-.885-.501-1.416-1.12-1.623-1.77-2.094-6.755.885-12.86 4.396-15.31.59-.353 1.534-.353 2.123-.029z"/>
            <path fill="#1A82FF" d="M736.726 97.34a36.98 36.98 0 0 1 .118-3.688c-.295-.118-.59-.236-.856-.384-.973-.56-1.475-1.297-1.475-2.035 0-.147.03-.324.06-.472a13.842 13.842 0 0 0-.974 2.95c-.06.177-.06.383-.06.59 0 .885.62 1.77 1.8 2.448.413.236.885.443 1.387.59z"/>
            <path fill="#EBEFF2" d="M737.05 101.145a34.79 34.79 0 0 1-.324-3.835 6.537 6.537 0 0 1-1.387-.59c-1.18-.679-1.8-1.564-1.8-2.449 0-.206 0-.383.06-.59a14.363 14.363 0 0 0-.266 4.396c.089.855.738 1.681 1.859 2.33.56.354 1.18.59 1.858.738zM745.782 97.988c.088-1.475 0-2.861-.295-4.189.03.148.059.295.059.443 0 .885-.56 1.77-1.711 2.448-.443.266-.915.413-1.446.59 0 1.24-.088 2.567-.236 3.865a7.46 7.46 0 0 0 1.859-.767c1.12-.679 1.71-1.534 1.77-2.39z"/>
            <path fill="#1A82FF" d="M742.124 101.115c.147-1.327.236-2.625.236-3.864-1.74.56-3.864.62-5.634.088a29.25 29.25 0 0 0 .324 3.835c1.593.384 3.481.384 5.074-.059z"/>
            <path fill="#1A82FF" d="M742.36 97.25c0-1.268-.06-2.507-.207-3.657.295-.118.59-.236.856-.413.944-.56 1.445-1.298 1.416-2.035 0-.207-.03-.413-.118-.59.442.914.796 1.887 1.062 2.92.088.236.147.472.147.708 0 .885-.56 1.77-1.71 2.448-.414.295-.915.472-1.446.62z"/>
            <path fill="#EBEFF2" d="M736.726 97.34a36.98 36.98 0 0 1 .118-3.688c1.622.59 3.716.56 5.31-.03.117 1.15.206 2.36.206 3.658-1.74.531-3.864.59-5.634.06z"/>
            <path fill="#111D28" d="M731.327 109.02c3.57 2.39 6.667 8.437 4.72 15.222-.177.649-.708 1.298-1.593 1.8-2.212 1.297-5.781 1.356-8.023.088-.885-.502-1.416-1.121-1.623-1.77-2.094-6.755.885-12.861 4.396-15.31.59-.354 1.533-.354 2.123-.03z"/>
            <path fill="#1A82FF" d="M727.552 120.378a36.98 36.98 0 0 1 .118-3.688c-.295-.118-.59-.236-.856-.383-.973-.56-1.475-1.298-1.475-2.036 0-.147.03-.324.06-.472a13.842 13.842 0 0 0-.974 2.95c-.06.177-.06.384-.06.59 0 .885.62 1.77 1.8 2.449.413.236.885.442 1.387.59z"/>
            <path fill="#EBEFF2" d="M727.876 124.212a34.79 34.79 0 0 1-.324-3.834 6.537 6.537 0 0 1-1.387-.59c-1.18-.679-1.8-1.564-1.8-2.449 0-.206 0-.383.06-.59a14.363 14.363 0 0 0-.266 4.396c.089.855.738 1.681 1.859 2.33.56.324 1.18.56 1.858.737zM736.608 121.027c.088-1.475 0-2.862-.295-4.19.03.148.059.296.059.443 0 .885-.56 1.77-1.711 2.449-.443.265-.915.413-1.446.59 0 1.239-.088 2.566-.236 3.864a7.46 7.46 0 0 0 1.859-.767c1.12-.679 1.71-1.534 1.77-2.39z"/>
            <path fill="#1A82FF" d="M732.95 124.183c.147-1.328.236-2.625.236-3.864-1.74.56-3.864.62-5.634.088a29.25 29.25 0 0 0 .324 3.835c1.593.354 3.48.354 5.074-.06zM733.186 120.29c0-1.27-.06-2.508-.207-3.659.295-.118.59-.236.856-.413.944-.56 1.445-1.298 1.416-2.035 0-.207-.03-.413-.118-.59.442.914.796 1.888 1.062 2.92.088.236.147.472.147.708 0 .885-.56 1.77-1.71 2.449-.414.324-.915.472-1.446.62z"/>
            <path fill="#EBEFF2" d="M727.552 120.378a36.98 36.98 0 0 1 .118-3.688c1.622.59 3.716.56 5.31-.03.117 1.151.206 2.36.206 3.659-1.74.53-3.864.59-5.634.059z"/>
        </g>
        <g>
            <path fill="url(#m)" d="M127.729 49.056l162.124 110.148-3.658 5.693-167.61-101.623z" transform="translate(396.549 66.189)"/>
            <path fill="url(#n)" d="M110.236 91.003L272.36 201.15l-3.658 5.694-167.61-101.593z" transform="translate(396.549 66.189)"/>
            <path fill="url(#o)" d="M146.696 77.11L308.82 187.256l-3.658 5.693-167.61-101.593z" transform="translate(396.549 66.189)"/>
            <path fill="#FFF" d="M499.056 155.097c1.298-.678 2.448-.826 3.392-.53 9.705 2.772 10.03 12.182 19.292 21.917-12.684-4.396-21.386-.767-27.964-8.437-.65-.737-1.003-1.858-.915-3.304l6.195-9.646z" opacity=".4"/>
            <path fill="#FFF" d="M511.12 169.64c-.766-.088-1.533-.177-2.24-.265-5.724-.62-8.703-1.062-11.299-3.776l4.218-6.578c3.57 1.21 5.222 3.775 8.142 8.702.413.62.796 1.268 1.18 1.917zM517.434 113.829c1.298-.679 2.448-.826 3.392-.531 9.705 2.773 10.03 12.183 19.292 21.917-12.714-4.395-21.416-.767-27.965-8.436-.649-.738-1.003-1.859-.914-3.304l6.195-9.646z" opacity=".4"/>
            <path fill="#FFF" d="M529.528 128.401c-.767-.088-1.534-.177-2.242-.265-5.723-.62-8.702-1.062-11.298-3.776l4.218-6.578c3.57 1.21 5.222 3.776 8.142 8.702.384.62.767 1.239 1.18 1.917zM537.61 142.855c1.299-.678 2.449-.826 3.393-.53 9.705 2.772 10.03 12.182 19.292 21.917-12.714-4.395-21.416-.767-27.965-8.437-.649-.737-1.003-1.858-.914-3.304l6.195-9.646z" opacity=".4"/>
            <path fill="#FFF" d="M549.676 157.428c-.767-.089-1.534-.177-2.242-.266-5.723-.62-8.702-1.062-11.298-3.776l4.218-6.578c3.57 1.21 5.221 3.776 8.142 8.702.413.59.796 1.24 1.18 1.918z" opacity=".4"/>
            <path fill="#40A0FF" d="M499.027 126.926s2.005-3.628 5.722-3.658l-7.256-16.135c-7.847-1.387-13.835 3.392-13.835 3.392l15.369 16.401zM495.546 134.566s-3.953 5.87 1.357 15.605l-19.351-.177s-7.05-11.74-3.157-22.242l21.15 6.814z"/>
            <path fill="#111D28" d="M499.764 128.018c-12.743-19.705-61.12-55.34-91.917-55.605a.77.77 0 0 0-.325.088c-.442.207-.796.797-.826 1.269 0 .118 0 .236.06.324 13.038 27.906 65.574 57.05 88.79 60.443.383 0 .826-.089 1.298-.325 1.652-.855 3.068-3.038 3.156-4.867.03-.53-.059-.973-.236-1.327zM479.204 147.457c5.634-2.39 15.31-1.357 21.858 6.313.649.737 1.003 1.858.914 3.304-.177 3.658-2.92 7.964-6.194 9.646-1.298.678-2.449.826-3.393.53-9.705-2.772-14.66-11.12-14.837-17.256.059-.973.796-2.094 1.652-2.537z"/>
            <path fill="#40A0FF" d="M516.43 139.08c-7.816-4.75-17.079-7.493-17.079-7.493l-11.976-9.852s19.144 8.082 30.088 14.04l-1.032 3.305z"/>
            <path fill="#EBEFF2" d="M406.903 73.829c.088.059.206.059.354-.03.265-.147.501-.501.53-.796 0-.148-.029-.266-.117-.325l-11.062-6.283 10.295 7.434z"/>
            <path fill="#1A82FF" d="M452.065 107.84c2.36-2.182 4.277-5.191 5.31-8.23-3.57-2.3-7.287-4.66-10.885-6.843-.974 2.98-2.891 5.9-5.192 8.024a450.67 450.67 0 0 0 10.767 7.05z"/>
            <path fill="#EBEFF2" d="M462.832 114.507c2.242-2.124 4.07-4.955 5.103-7.876a547.033 547.033 0 0 0-10.56-7.02c-1.033 3.038-2.98 6.017-5.31 8.23 3.599 2.3 7.227 4.542 10.767 6.666z"/>
            <path fill="#1A82FF" d="M472.684 120.29c2.065-1.948 3.629-4.426 4.573-7.08a494.95 494.95 0 0 0-9.322-6.55c-1.003 2.892-2.861 5.753-5.103 7.877a681.908 681.908 0 0 0 9.852 5.752z"/>
            <path fill="#EBEFF2" d="M472.684 120.29c3.039 1.74 5.96 3.332 8.732 4.837 1.681-1.652 3.068-3.805 3.864-5.988a446.702 446.702 0 0 0-8.023-5.93c-.944 2.655-2.537 5.104-4.573 7.08zM457.375 99.61c.472-1.356.737-2.713.796-4.011.118-2.744-.767-4.66-2.3-5.634a172.617 172.617 0 0 0-10.856-6.136c1.445.914 2.3 2.714 2.183 5.31-.06 1.18-.295 2.389-.708 3.628 3.598 2.183 7.315 4.543 10.885 6.844z"/>
            <path fill="#1A82FF" d="M466.549 96.985a208.364 208.364 0 0 0-10.679-7.02c1.505.973 2.42 2.89 2.301 5.634-.059 1.298-.354 2.655-.796 4.012 3.598 2.33 7.138 4.69 10.56 7.02.472-1.386.767-2.773.826-4.1.148-2.684-.708-4.602-2.212-5.546z"/>
            <path fill="#EBEFF2" d="M477.257 113.18c.472-1.298.796-2.684.855-3.923.118-2.508-.708-4.307-2.094-5.222-3.01-2.389-6.195-4.808-9.499-7.109 1.505.974 2.36 2.92 2.242 5.605-.059 1.327-.354 2.714-.826 4.1a539.21 539.21 0 0 1 9.322 6.549z"/>
            <path fill="#1A82FF" d="M485.28 119.11c.443-1.21.738-2.45.767-3.6.118-2.212-.62-3.775-1.858-4.572a185.188 185.188 0 0 0-8.171-6.903c1.386.885 2.212 2.685 2.094 5.222-.059 1.239-.413 2.655-.855 3.923a446.703 446.703 0 0 1 8.023 5.93zM481.416 125.097c-.915.885-1.917 1.652-2.95 2.183-2.006 1.033-3.746 1.033-4.985.236-3.127-1.357-6.372-2.92-9.676-4.572 1.416.914 3.422.914 5.694-.266 1.12-.56 2.212-1.445 3.215-2.389a356.3 356.3 0 0 0 8.702 4.808z"/>
            <path fill="#EBEFF2" d="M462.832 114.507a14.077 14.077 0 0 1-3.333 2.42c-2.449 1.268-4.602 1.297-6.107.324a214.597 214.597 0 0 0 10.413 5.693c1.416.914 3.422.914 5.694-.266 1.12-.56 2.212-1.445 3.215-2.389a421.097 421.097 0 0 1-9.882-5.782z"/>
            <path fill="#1A82FF" d="M453.392 117.221a187.82 187.82 0 0 1-10.767-6.784c1.534.973 3.688 1.032 6.166-.266 1.15-.59 2.27-1.416 3.274-2.36 3.599 2.301 7.227 4.543 10.767 6.667a14.077 14.077 0 0 1-3.333 2.419c-2.449 1.298-4.602 1.298-6.107.324z"/>
            <path fill="#EBEFF2" d="M452.065 107.84c-1.033.974-2.124 1.77-3.274 2.36-2.478 1.269-4.632 1.24-6.166.266a184.917 184.917 0 0 1-10.118-7.345c1.446.944 3.481 1.003 5.812-.207 1.032-.53 2.035-1.268 2.979-2.123a450.67 450.67 0 0 0 10.767 7.05z"/>
            <path fill="#1A82FF" d="M489.823 160.85a46.019 46.019 0 0 1-4.307-3.039c-.354.266-.737.531-1.12.708-1.446.738-2.715.767-3.6.177-.206-.118-.354-.265-.53-.442a20.223 20.223 0 0 0 2.772 3.48c.177.207.413.384.65.531 1.061.679 2.595.679 4.336-.236.62-.294 1.209-.707 1.799-1.18z"/>
            <path fill="#EBEFF2" d="M494.631 163.445c-1.681-.796-3.333-1.681-4.808-2.625-.56.472-1.18.885-1.8 1.21-1.74.884-3.244.914-4.336.235a2.838 2.838 0 0 1-.649-.53c1.416 1.415 3.068 2.713 5.015 3.746 1.092.56 2.596.442 4.248-.413.826-.384 1.593-.944 2.33-1.623zM497.67 150.555c-1.682-1.269-3.422-2.242-5.222-2.92.207.058.384.147.56.265 1.063.678 1.682 2.065 1.564 3.982-.03.737-.236 1.445-.442 2.183a49.192 49.192 0 0 1 4.425 3.304 10.95 10.95 0 0 0 .56-2.832c.118-1.859-.442-3.245-1.445-3.982z"/>
            <path fill="#1A82FF" d="M498.584 157.369a44.15 44.15 0 0 0-4.425-3.304c-.708 2.537-2.3 5.103-4.336 6.785a43.831 43.831 0 0 0 4.808 2.625c1.74-1.622 3.186-3.864 3.953-6.106zM494.16 154.035c-1.535-1.003-3.04-1.888-4.514-2.625.089-.442.177-.914.177-1.327.089-1.593-.442-2.714-1.298-3.304a2.384 2.384 0 0 0-.796-.325c1.416.177 2.89.531 4.336 1.033.354.088.678.206.973.413 1.062.678 1.682 2.065 1.564 3.982-.06.708-.236 1.416-.443 2.153z"/>
            <path fill="#EBEFF2" d="M489.823 160.85a46.019 46.019 0 0 1-4.307-3.039c1.977-1.475 3.57-3.982 4.13-6.371 1.475.737 2.98 1.622 4.513 2.625-.737 2.507-2.33 5.103-4.336 6.785z"/>
            <path fill="#111D28" d="M497.729 106.307c5.634-2.39 15.31-1.357 21.858 6.312.649.738 1.003 1.859.914 3.304-.177 3.658-2.92 7.965-6.194 9.646-1.298.679-2.449.826-3.393.531-9.705-2.773-14.66-11.12-14.837-17.256.059-.944.767-2.095 1.652-2.537z"/>
            <path fill="#1A82FF" d="M508.319 119.7a46.019 46.019 0 0 1-4.307-3.04c-.354.266-.738.532-1.121.709-1.446.737-2.714.767-3.599.177-.206-.118-.354-.266-.53-.443a20.223 20.223 0 0 0 2.772 3.481c.177.207.413.384.649.531 1.062.679 2.596.679 4.336-.236a8.589 8.589 0 0 0 1.8-1.18z"/>
            <path fill="#EBEFF2" d="M513.127 122.324c-1.682-.796-3.333-1.68-4.808-2.625-.56.472-1.18.885-1.8 1.21-1.74.885-3.245.914-4.336.236a2.838 2.838 0 0 1-.65-.531c1.417 1.415 3.069 2.713 5.016 3.746 1.091.56 2.596.442 4.247-.413.826-.413 1.593-.974 2.33-1.623zM516.165 109.404c-1.681-1.268-3.422-2.242-5.221-2.92.206.059.383.147.56.265 1.062.679 1.682 2.065 1.564 3.983-.03.737-.236 1.445-.443 2.182a49.192 49.192 0 0 1 4.425 3.304c.325-.944.502-1.917.56-2.832.119-1.858-.442-3.244-1.445-3.982z"/>
            <path fill="#1A82FF" d="M517.08 116.218a44.15 44.15 0 0 0-4.425-3.304c-.708 2.537-2.301 5.104-4.336 6.785a43.831 43.831 0 0 0 4.808 2.625c1.74-1.592 3.186-3.864 3.953-6.106zM512.655 112.914c-1.534-1.002-3.038-1.887-4.513-2.625.088-.442.177-.914.177-1.327.088-1.593-.443-2.714-1.298-3.304a2.384 2.384 0 0 0-.797-.325c1.416.177 2.891.531 4.336 1.033.354.088.679.206.974.413 1.062.678 1.681 2.065 1.563 3.982-.03.679-.236 1.386-.442 2.153z"/>
            <path fill="#EBEFF2" d="M508.319 119.7a46.019 46.019 0 0 1-4.307-3.04c1.976-1.474 3.57-3.982 4.13-6.37 1.475.737 2.979 1.622 4.513 2.624-.738 2.508-2.33 5.104-4.336 6.785z"/>
            <path fill="#111D28" d="M518.024 135.304c5.634-2.39 15.31-1.357 21.858 6.313.649.737 1.003 1.858.914 3.303-.177 3.658-2.92 7.965-6.194 9.646-1.298.679-2.449.826-3.393.531-9.705-2.773-14.66-11.12-14.837-17.256.059-.944.796-2.095 1.652-2.537z"/>
            <path fill="#1A82FF" d="M528.643 148.696a46.019 46.019 0 0 1-4.307-3.038c-.354.265-.737.53-1.12.708-1.446.737-2.715.767-3.6.177-.206-.118-.353-.266-.53-.443a20.223 20.223 0 0 0 2.772 3.481c.177.207.413.384.65.531 1.061.679 2.595.679 4.336-.236a8.589 8.589 0 0 0 1.8-1.18z"/>
            <path fill="#EBEFF2" d="M533.451 151.322c-1.681-.797-3.333-1.682-4.808-2.626-.56.472-1.18.885-1.8 1.21-1.74.885-3.244.914-4.336.236a2.838 2.838 0 0 1-.649-.531c1.416 1.416 3.068 2.713 5.015 3.746 1.092.56 2.596.442 4.248-.413.826-.384 1.593-.944 2.33-1.622zM536.49 138.401c-1.682-1.268-3.422-2.242-5.222-2.92.207.059.384.147.56.265 1.063.679 1.682 2.065 1.564 3.983-.03.737-.236 1.445-.442 2.183a49.192 49.192 0 0 1 4.425 3.303 10.95 10.95 0 0 0 .56-2.832c.118-1.858-.442-3.244-1.445-3.982z"/>
            <path fill="#1A82FF" d="M537.404 145.215a44.15 44.15 0 0 0-4.425-3.303c-.708 2.536-2.3 5.103-4.336 6.784a43.831 43.831 0 0 0 4.808 2.626c1.74-1.593 3.186-3.865 3.953-6.107zM532.98 141.912c-1.535-1.003-3.039-1.888-4.514-2.626.089-.442.177-.914.177-1.327.089-1.593-.442-2.714-1.298-3.304a2.384 2.384 0 0 0-.796-.325c1.416.177 2.89.531 4.336 1.033.354.088.678.206.973.413 1.062.678 1.682 2.065 1.564 3.982-.03.708-.236 1.416-.443 2.154z"/>
            <path fill="#EBEFF2" d="M528.643 148.696a46.019 46.019 0 0 1-4.307-3.038c1.977-1.475 3.57-3.982 4.13-6.372 1.475.738 2.98 1.623 4.513 2.626-.737 2.536-2.33 5.103-4.336 6.784z"/>
        </g>
        <g>
            <path fill="#111D28" d="M736.932 322.118c-10-5.782-14.985-13.333-14.985-20.914 0-7.67 5.074-15.34 15.221-21.21 20.207-11.681 52.891-11.74 72.98-.118 10 5.782 14.985 13.333 14.985 20.915 0 7.67-5.074 15.339-15.221 21.209-20.207 11.652-52.891 11.71-72.98.118z" opacity=".2"/>
            <path fill="#1A82FF" d="M825.133 286.425v9.026c0 7.67-5.074 15.34-15.221 21.21-20.207 11.681-52.891 11.74-72.98.118-10-5.782-14.985-13.334-14.985-20.915v-9.44h103.186z"/>
            <path fill="#40A0FF" d="M736.932 307.782c-10-5.782-14.985-13.334-14.985-20.915 0-7.67 5.074-15.339 15.221-21.21 20.207-11.68 52.891-11.74 72.98-.117 10 5.782 14.985 13.333 14.985 20.914 0 7.67-5.074 15.34-15.221 21.21-20.207 11.652-52.891 11.71-72.98.118z"/>
            <path fill="#1A82FF" d="M773.215 310.29c-12.655 0-24.454-2.774-33.186-7.848-7.67-4.424-11.917-9.97-11.917-15.604 0-5.634 4.425-11.416 12.153-15.87 8.909-5.133 20.826-7.965 33.629-7.965 12.655 0 24.454 2.773 33.186 7.847 7.67 4.424 11.917 9.97 11.917 15.604 0 5.634-4.425 11.416-12.153 15.87-8.909 5.133-20.856 7.965-33.629 7.965z"/>
            <path fill="#0F7CE8" d="M740.236 272.206c8.909-5.132 20.826-7.964 33.628-7.964 12.655 0 24.455 2.773 33.186 7.846 7.404 4.278 11.593 9.558 11.888 14.986 0-.207.03-.413.03-.62 0-5.634-4.248-11.15-11.918-15.604-8.76-5.045-20.53-7.847-33.186-7.847-12.773 0-24.72 2.832-33.628 7.965-7.729 4.454-12.153 10.236-12.153 15.87 0 .206.03.413.03.62.324-5.429 4.69-10.945 12.123-15.252z"/>
            <path fill="#FFF" d="M767.935 298.46l.03-5.959a29.36 29.36 0 0 1-3.658-1.74c-6.49-3.746-7.316-7.758-2.154-10.737 2.154-1.24 4.632-1.888 7.287-1.918l-.118 20.62c1.327.206 2.654.354 3.982.413.56.03 1.12.03 1.681.03h.708c5.015-.119 9.617-1.299 13.452-3.511 4.424-2.567 6.519-5.723 6.047-9.115-.443-3.216-3.216-6.43-7.788-9.086-3.038-1.74-6.519-3.038-10.147-3.805l-.03 5.988c1.15.472 2.33 1.033 3.481 1.682 2.98 1.74 4.808 3.48 5.369 5.191.678 2.036-.413 3.924-3.157 5.516-2.124 1.24-4.572 1.859-7.168 1.918l.118-20.56a33.168 33.168 0 0 0-4.16-.443c-.265 0-.56-.03-.825-.03H769.528c-5.074.089-9.734 1.269-13.599 3.51-4.425 2.567-6.519 5.723-6.047 9.145.442 3.216 3.186 6.46 7.758 9.086 3.038 1.77 6.578 3.068 10.295 3.805z"/>
            <path fill="#111D28" d="M751.681 286.72c-10-5.782-14.985-13.334-14.985-20.915 0-7.67 5.074-15.339 15.221-21.21 20.207-11.68 52.891-11.74 72.95-.147 10 5.782 14.986 13.334 14.986 20.915 0 7.67-5.074 15.34-15.222 21.21-20.177 11.68-52.861 11.74-72.95.147z" opacity=".2"/>
            <path fill="#1A82FF" d="M839.882 251.027v9.026c0 7.67-5.074 15.34-15.221 21.21-20.207 11.681-52.891 11.74-72.98.118-10-5.782-14.985-13.334-14.985-20.915v-9.44h103.186z"/>
            <path fill="#40A0FF" d="M751.681 272.383c-10-5.781-14.985-13.333-14.985-20.914 0-7.67 5.074-15.34 15.221-21.21 20.207-11.68 52.891-11.74 72.98-.117 10 5.781 14.985 13.333 14.985 20.914 0 7.67-5.074 15.34-15.221 21.21-20.207 11.651-52.891 11.71-72.98.117z"/>
            <path fill="#1A82FF" d="M787.965 274.89c-12.655 0-24.455-2.772-33.186-7.846-7.67-4.425-11.918-9.97-11.918-15.604 0-5.635 4.425-11.416 12.154-15.87 8.908-5.133 20.826-7.965 33.628-7.965 12.655 0 24.454 2.773 33.186 7.846 7.67 4.425 11.917 9.97 11.917 15.605 0 5.634-4.424 11.416-12.153 15.87-8.909 5.133-20.856 7.965-33.628 7.965z"/>
            <path fill="#0F7CE8" d="M754.985 236.808c8.909-5.132 20.826-7.964 33.629-7.964 12.654 0 24.454 2.773 33.185 7.846 7.405 4.278 11.593 9.558 11.888 14.986 0-.207.03-.413.03-.62 0-5.634-4.248-11.15-11.918-15.605-8.76-5.044-20.53-7.846-33.185-7.846-12.773 0-24.72 2.832-33.629 7.964-7.728 4.455-12.153 10.236-12.153 15.87 0 .207.03.414.03.62.324-5.428 4.69-10.944 12.123-15.25z"/>
            <path fill="#FFF" d="M782.684 263.062l.03-5.959a29.36 29.36 0 0 1-3.658-1.74c-6.49-3.746-7.316-7.758-2.153-10.738 2.153-1.239 4.63-1.888 7.286-1.917l-.118 20.62c1.327.206 2.655.353 3.982.412.56.03 1.121.03 1.682.03h.707c5.015-.118 9.617-1.298 13.452-3.51 4.425-2.567 6.519-5.723 6.047-9.115-.442-3.216-3.215-6.431-7.788-9.086-3.038-1.74-6.519-3.038-10.147-3.805l-.03 5.988c1.15.472 2.33 1.032 3.481 1.681 2.98 1.74 4.808 3.481 5.369 5.192.678 2.035-.413 3.923-3.156 5.516-2.124 1.24-4.573 1.859-7.169 1.918l.118-20.56a33.168 33.168 0 0 0-4.159-.443c-.265 0-.56-.03-.826-.03H784.277c-5.073.089-9.734 1.269-13.599 3.51-4.424 2.567-6.519 5.723-6.047 9.145.443 3.215 3.186 6.46 7.758 9.086 3.039 1.77 6.579 3.067 10.295 3.805z"/>
            <path fill="#111D28" d="M739.882 266.07c-10-5.78-14.985-13.333-14.985-20.914 0-7.67 5.074-15.339 15.221-21.21 20.206-11.68 52.89-11.74 72.95-.147 10 5.782 14.985 13.334 14.985 20.915 0 7.67-5.074 15.34-15.221 21.21-20.177 11.68-52.861 11.74-72.95.147z" opacity=".2"/>
            <path fill="#1A82FF" d="M828.083 230.378v9.026c0 7.67-5.074 15.34-15.222 21.21-20.206 11.681-52.89 11.74-72.979.118-10-5.782-14.985-13.334-14.985-20.915v-9.44h103.186z"/>
            <path fill="#40A0FF" d="M739.882 251.735c-10-5.782-14.985-13.334-14.985-20.915 0-7.67 5.074-15.34 15.221-21.21 20.206-11.68 52.89-11.74 72.98-.117 10 5.781 14.985 13.333 14.985 20.914 0 7.67-5.074 15.34-15.222 21.21-20.206 11.651-52.89 11.71-72.979.118z"/>
            <path fill="#1A82FF" d="M776.165 254.242c-12.655 0-24.454-2.773-33.186-7.847-7.67-4.424-11.917-9.97-11.917-15.604 0-5.635 4.425-11.416 12.153-15.87 8.909-5.133 20.826-7.965 33.629-7.965 12.655 0 24.454 2.773 33.185 7.846 7.67 4.425 11.918 9.97 11.918 15.605 0 5.634-4.425 11.416-12.153 15.87-8.909 5.133-20.856 7.965-33.629 7.965z"/>
            <path fill="#0F7CE8" d="M743.186 216.16c8.908-5.133 20.826-7.965 33.628-7.965 12.655 0 24.454 2.773 33.186 7.846 7.404 4.278 11.593 9.558 11.888 14.986 0-.207.03-.413.03-.62 0-5.634-4.248-11.15-11.918-15.605-8.761-5.044-20.531-7.846-33.186-7.846-12.773 0-24.72 2.832-33.628 7.964-7.729 4.484-12.154 10.266-12.154 15.87 0 .207.03.414.03.62.324-5.428 4.69-10.944 12.124-15.25z"/>
            <path fill="#FFF" d="M770.885 242.413l.03-5.959a29.36 29.36 0 0 1-3.658-1.74c-6.49-3.746-7.316-7.758-2.154-10.738 2.154-1.239 4.632-1.888 7.286-1.917l-.118 20.62c1.328.206 2.655.353 3.983.412.56.03 1.12.03 1.681.03h.708c5.015-.118 9.617-1.298 13.451-3.51 4.425-2.567 6.52-5.723 6.048-9.115-.443-3.216-3.216-6.431-7.788-9.086-3.038-1.74-6.52-3.038-10.148-3.805l-.029 5.988c1.15.472 2.33 1.032 3.48 1.681 2.98 1.74 4.81 3.481 5.37 5.192.678 2.035-.413 3.923-3.157 5.516-2.124 1.24-4.572 1.859-7.168 1.918l.118-20.56a33.168 33.168 0 0 0-4.16-.443c-.265 0-.56-.03-.825-.03H772.478c-5.074.089-9.735 1.269-13.599 3.51-4.425 2.567-6.52 5.723-6.047 9.145.442 3.215 3.186 6.46 7.758 9.086 3.038 1.77 6.578 3.068 10.295 3.805z"/>
            <g>
                <path fill="#111D28" d="M633.687 328.608c-10-5.782-14.985-13.334-14.985-20.915 0-7.67 5.074-15.339 15.221-21.21 20.207-11.68 52.891-11.74 72.95-.147 10 5.782 14.985 13.334 14.985 20.915 0 7.67-5.073 15.339-15.22 21.21-20.178 11.68-52.862 11.74-72.95.147z" opacity=".2"/>
                <path fill="#1A82FF" d="M721.888 292.914v9.027c0 7.67-5.074 15.34-15.221 21.21-20.207 11.68-52.891 11.74-72.98.117-10-5.781-14.985-13.333-14.985-20.914v-9.44h103.186z"/>
                <path fill="#40A0FF" d="M633.687 314.271c-10-5.781-14.985-13.333-14.985-20.914 0-7.67 5.074-15.34 15.221-21.21 20.207-11.68 52.891-11.74 72.98-.118 10 5.782 14.985 13.334 14.985 20.915 0 7.67-5.074 15.34-15.221 21.21-20.207 11.651-52.891 11.71-72.98.117z"/>
                <path fill="#1A82FF" d="M669.97 316.779c-12.654 0-24.454-2.773-33.185-7.847-7.67-4.425-11.918-9.97-11.918-15.605 0-5.634 4.425-11.415 12.154-15.87 8.908-5.133 20.826-7.964 33.628-7.964 12.655 0 24.454 2.772 33.186 7.846 7.67 4.425 11.917 9.97 11.917 15.605 0 5.634-4.425 11.416-12.153 15.87-8.909 5.133-20.856 7.965-33.628 7.965z"/>
                <path fill="#0F7CE8" d="M636.991 278.696c8.909-5.133 20.826-7.964 33.628-7.964 12.655 0 24.455 2.772 33.186 7.846 7.404 4.277 11.593 9.558 11.888 14.985 0-.206.03-.413.03-.619 0-5.634-4.248-11.15-11.918-15.605-8.76-5.044-20.53-7.846-33.186-7.846-12.772 0-24.72 2.831-33.628 7.964-7.728 4.455-12.153 10.236-12.153 15.87 0 .207.03.413.03.62.324-5.428 4.69-10.944 12.123-15.25z"/>
                <path fill="#FFF" d="M664.69 304.95l.03-5.959a29.36 29.36 0 0 1-3.658-1.74c-6.49-3.747-7.316-7.758-2.153-10.738 2.153-1.239 4.63-1.888 7.286-1.917l-.118 20.62c1.327.206 2.655.353 3.982.412.56.03 1.12.03 1.681.03h.708c5.015-.118 9.617-1.298 13.452-3.51 4.424-2.567 6.519-5.723 6.047-9.116-.443-3.215-3.215-6.43-7.788-9.085-3.038-1.74-6.519-3.038-10.147-3.805l-.03 5.988c1.15.472 2.33 1.032 3.481 1.681 2.98 1.74 4.808 3.481 5.369 5.192.678 2.035-.413 3.923-3.156 5.516-2.124 1.24-4.573 1.859-7.169 1.918l.118-20.56a33.168 33.168 0 0 0-4.159-.443c-.265 0-.56-.03-.826-.03H666.283c-5.074.089-9.734 1.269-13.599 3.51-4.424 2.567-6.519 5.723-6.047 9.145.443 3.215 3.186 6.46 7.758 9.086 3.039 1.77 6.578 3.067 10.295 3.805z"/>
            </g>
            <g>
                <path fill="#111D28" d="M621.888 305.009c-10-5.782-14.985-13.333-14.985-20.915 0-7.67 5.073-15.339 15.22-21.209 20.207-11.681 52.892-11.74 72.95-.148 10 5.782 14.986 13.334 14.986 20.915 0 7.67-5.074 15.34-15.221 21.21-20.177 11.68-52.862 11.74-72.95.147z" opacity=".2"/>
                <path fill="#1A82FF" d="M710.088 269.316v9.026c0 7.67-5.073 15.34-15.22 21.21-20.207 11.681-52.892 11.74-72.98.118-10-5.782-14.985-13.334-14.985-20.915v-9.44h103.185z"/>
                <path fill="#40A0FF" d="M621.888 290.673c-10-5.782-14.985-13.334-14.985-20.915 0-7.67 5.073-15.34 15.22-21.21 20.207-11.68 52.892-11.74 72.98-.117 10 5.781 14.985 13.333 14.985 20.914 0 7.67-5.073 15.34-15.22 21.21-20.207 11.651-52.892 11.71-72.98.118z"/>
                <path fill="#1A82FF" d="M658.171 293.18c-12.655 0-24.454-2.773-33.186-7.847-7.67-4.424-11.917-9.97-11.917-15.604 0-5.635 4.425-11.416 12.153-15.87 8.909-5.133 20.826-7.965 33.629-7.965 12.654 0 24.454 2.773 33.185 7.846 7.67 4.425 11.918 9.97 11.918 15.605 0 5.634-4.425 11.416-12.154 15.87-8.908 5.133-20.855 7.965-33.628 7.965z"/>
                <path fill="#0F7CE8" d="M625.192 255.097c8.908-5.132 20.826-7.964 33.628-7.964 12.655 0 24.454 2.773 33.186 7.846 7.404 4.278 11.593 9.558 11.888 14.986 0-.207.03-.413.03-.62 0-5.634-4.248-11.15-11.918-15.605-8.761-5.044-20.531-7.846-33.186-7.846-12.773 0-24.72 2.832-33.628 7.964-7.729 4.455-12.154 10.236-12.154 15.87 0 .207.03.414.03.62.324-5.428 4.69-10.944 12.124-15.25z"/>
                <path fill="#FFF" d="M652.89 281.351l.03-5.959a29.36 29.36 0 0 1-3.657-1.74c-6.49-3.746-7.316-7.758-2.154-10.738 2.154-1.238 4.631-1.887 7.286-1.917l-.118 20.62c1.328.206 2.655.354 3.983.412.56.03 1.12.03 1.681.03h.708c5.015-.118 9.616-1.298 13.451-3.51 4.425-2.567 6.52-5.723 6.047-9.115-.442-3.216-3.215-6.431-7.787-9.086-3.038-1.74-6.52-3.038-10.148-3.805l-.03 5.988c1.151.472 2.331 1.032 3.482 1.681 2.98 1.74 4.808 3.481 5.368 5.192.679 2.036-.413 3.923-3.156 5.516-2.124 1.24-4.572 1.859-7.168 1.918l.118-20.56a33.168 33.168 0 0 0-4.16-.443c-.265 0-.56-.03-.825-.03H654.484c-5.074.089-9.735 1.269-13.599 3.51-4.425 2.567-6.52 5.723-6.047 9.145.442 3.216 3.186 6.46 7.758 9.086 3.038 1.77 6.578 3.068 10.295 3.805z"/>
            </g>
            <g>
                <path fill="#111D28" d="M639.587 284.36c-10-5.782-14.985-13.333-14.985-20.915 0-7.67 5.074-15.339 15.221-21.209 20.206-11.681 52.89-11.74 72.95-.148 10 5.782 14.985 13.334 14.985 20.915 0 7.67-5.074 15.34-15.221 21.21-20.177 11.68-52.861 11.74-72.95.147z" opacity=".2"/>
                <path fill="#1A82FF" d="M727.788 248.667v9.026c0 7.67-5.074 15.34-15.222 21.21-20.206 11.681-52.89 11.74-72.979.118-10-5.782-14.985-13.334-14.985-20.915v-9.44h103.186z"/>
                <path fill="#40A0FF" d="M639.587 270.024c-10-5.782-14.985-13.334-14.985-20.915 0-7.67 5.074-15.34 15.221-21.21 20.206-11.68 52.89-11.74 72.95-.147 10 5.782 14.985 13.334 14.985 20.915 0 7.67-5.074 15.339-15.221 21.21-20.177 11.68-52.861 11.74-72.95.147z"/>
                <path fill="#1A82FF" d="M675.87 272.531c-12.655 0-24.454-2.773-33.186-7.847-7.67-4.424-11.917-9.97-11.917-15.604 0-5.635 4.425-11.416 12.153-15.87 8.909-5.133 20.826-7.965 33.629-7.965 12.655 0 24.454 2.773 33.186 7.846 7.67 4.425 11.917 9.97 11.917 15.605 0 5.634-4.425 11.416-12.153 15.87-8.909 5.133-20.856 7.965-33.629 7.965z"/>
                <path fill="#0F7CE8" d="M642.89 234.448c8.91-5.132 20.827-7.964 33.63-7.964 12.654 0 24.453 2.773 33.185 7.846 7.404 4.278 11.593 9.558 11.888 14.986 0-.207.03-.413.03-.62 0-5.634-4.248-11.15-11.918-15.605-8.761-5.044-20.531-7.846-33.186-7.846-12.773 0-24.72 2.832-33.628 7.964-7.729 4.455-12.154 10.236-12.154 15.87 0 .207.03.414.03.62.324-5.428 4.69-10.944 12.124-15.25z"/>
                <path fill="#FFF" d="M670.59 260.702l.03-5.959a29.36 29.36 0 0 1-3.658-1.74c-6.49-3.746-7.316-7.758-2.154-10.738 2.154-1.238 4.632-1.887 7.286-1.917l-.118 20.62c1.328.206 2.655.354 3.983.413.56.029 1.12.029 1.681.029h.708c5.015-.118 9.617-1.298 13.451-3.51 4.425-2.567 6.52-5.723 6.048-9.115-.443-3.216-3.216-6.431-7.788-9.086-3.038-1.74-6.52-3.038-10.147-3.805l-.03 5.988c1.15.472 2.33 1.032 3.48 1.681 2.98 1.74 4.81 3.481 5.37 5.192.678 2.036-.413 3.923-3.157 5.516-2.124 1.24-4.572 1.859-7.168 1.918l.118-20.56a33.168 33.168 0 0 0-4.16-.443c-.265 0-.56-.03-.825-.03H672.183c-5.074.089-9.735 1.269-13.599 3.51-4.425 2.567-6.52 5.723-6.047 9.145.442 3.216 3.186 6.46 7.758 9.086 3.038 1.77 6.578 3.068 10.295 3.805z"/>
            </g>
            <g>
                <path fill="#111D28" d="M627.788 263.71c-10-5.78-14.986-13.332-14.986-20.914 0-7.67 5.074-15.339 15.222-21.209 20.206-11.681 52.89-11.74 72.95-.147 10 5.781 14.985 13.333 14.985 20.914 0 7.67-5.074 15.34-15.222 21.21-20.177 11.68-52.86 11.74-72.95.147z" opacity=".2"/>
                <path fill="#1A82FF" d="M715.988 228.018v9.026c0 7.67-5.074 15.34-15.221 21.21-20.207 11.681-52.89 11.74-72.98.118-10-5.782-14.985-13.334-14.985-20.915v-9.44h103.186z"/>
                <path fill="#40A0FF" d="M627.788 249.375c-10-5.782-14.986-13.334-14.986-20.915 0-7.67 5.074-15.34 15.222-21.21 20.206-11.68 52.89-11.74 72.95-.147 10 5.782 14.985 13.334 14.985 20.915 0 7.67-5.074 15.339-15.222 21.21-20.177 11.68-52.86 11.74-72.95.147z"/>
                <path fill="#1A82FF" d="M664.07 251.882c-12.654 0-24.453-2.773-33.185-7.847-7.67-4.424-11.917-9.97-11.917-15.604 0-5.635 4.424-11.416 12.153-15.87 8.908-5.133 20.826-7.965 33.628-7.965 12.655 0 24.455 2.773 33.186 7.846 7.67 4.425 11.918 9.971 11.918 15.605s-4.425 11.416-12.154 15.87c-8.908 5.133-20.855 7.965-33.628 7.965z"/>
                <path fill="#0F7CE8" d="M631.091 213.8c8.909-5.133 20.826-7.965 33.629-7.965 12.655 0 24.454 2.773 33.186 7.846 7.404 4.278 11.593 9.558 11.888 14.986 0-.207.029-.413.029-.62 0-5.634-4.248-11.15-11.917-15.605-8.761-5.044-20.531-7.846-33.186-7.846-12.773 0-24.72 2.832-33.629 7.964-7.728 4.484-12.153 10.266-12.153 15.87 0 .207.03.414.03.62.324-5.428 4.69-10.944 12.123-15.25z"/>
                <path fill="#FFF" d="M658.79 240.053l.03-5.959a29.36 29.36 0 0 1-3.658-1.74c-6.49-3.746-7.315-7.758-2.153-10.737 2.153-1.24 4.631-1.888 7.286-1.918l-.118 20.62c1.327.206 2.655.354 3.982.413.56.03 1.121.03 1.682.03h.708c5.014-.119 9.616-1.299 13.451-3.511 4.425-2.567 6.52-5.723 6.047-9.115-.442-3.245-3.215-6.49-7.787-9.115-3.039-1.74-6.52-3.039-10.148-3.806l-.03 5.989c1.151.472 2.331 1.032 3.481 1.681 2.98 1.74 4.809 3.48 5.37 5.192.678 2.035-.414 3.923-3.157 5.516-2.124 1.239-4.572 1.858-7.168 1.917l.118-20.56a33.168 33.168 0 0 0-4.16-.443c-.265 0-.56-.03-.826-.03H660.383c-5.073.09-9.734 1.27-13.598 3.511-4.425 2.567-6.52 5.723-6.048 9.145.443 3.215 3.186 6.46 7.759 9.085 3.038 1.8 6.578 3.098 10.295 3.835z"/>
            </g>
            <g>
                <path fill="#111D28" d="M704.484 257.811c-10-5.782-14.985-13.333-14.985-20.914 0-7.67 5.073-15.34 15.22-21.21 20.207-11.681 52.892-11.74 72.95-.147 10 5.782 14.986 13.333 14.986 20.914 0 7.67-5.074 15.34-15.221 21.21-20.177 11.681-52.862 11.74-72.95.147z" opacity=".2"/>
                <path fill="#1A82FF" d="M792.684 222.118v9.027c0 7.67-5.073 15.339-15.22 21.209-20.207 11.681-52.892 11.74-72.98.118-10-5.782-14.985-13.333-14.985-20.914v-9.44h103.185z"/>
                <path fill="#40A0FF" d="M704.484 243.475c-10-5.782-14.985-13.333-14.985-20.915 0-7.67 5.073-15.339 15.22-21.209 20.207-11.681 52.892-11.74 72.95-.147 10 5.781 14.986 13.333 14.986 20.914 0 7.67-5.074 15.34-15.221 21.21-20.177 11.68-52.862 11.74-72.95.147z"/>
                <path fill="#1A82FF" d="M740.767 245.982c-12.655 0-24.454-2.773-33.186-7.846-7.67-4.425-11.917-9.97-11.917-15.605 0-5.634 4.424-11.416 12.153-15.87 8.909-5.133 20.826-7.965 33.628-7.965 12.655 0 24.455 2.773 33.186 7.847 7.67 4.425 11.918 9.97 11.918 15.604 0 5.635-4.425 11.416-12.154 15.87-8.908 5.133-20.855 7.965-33.628 7.965z"/>
                <path fill="#0F7CE8" d="M707.788 207.9c8.908-5.133 20.826-7.965 33.628-7.965 12.655 0 24.454 2.773 33.186 7.847 7.404 4.277 11.593 9.557 11.888 14.985 0-.207.03-.413.03-.62 0-5.634-4.249-11.15-11.918-15.604-8.761-5.044-20.531-7.847-33.186-7.847-12.773 0-24.72 2.832-33.628 7.965-7.729 4.484-12.154 10.265-12.154 15.87 0 .206.03.413.03.62.324-5.428 4.69-10.945 12.124-15.251z"/>
                <path fill="#FFF" d="M735.487 234.153l.03-5.958a29.36 29.36 0 0 1-3.659-1.74c-6.49-3.747-7.315-7.759-2.153-10.738 2.153-1.24 4.631-1.888 7.286-1.918l-.118 20.62c1.328.206 2.655.354 3.982.413.56.03 1.121.03 1.682.03h.708c5.015-.119 9.616-1.299 13.451-3.511 4.425-2.566 6.52-5.723 6.047-9.115-.442-3.245-3.215-6.49-7.787-9.115-3.039-1.74-6.52-3.038-10.148-3.805l-.03 5.988c1.151.472 2.331 1.032 3.482 1.681 2.979 1.74 4.808 3.481 5.368 5.192.679 2.035-.413 3.923-3.156 5.516-2.124 1.24-4.572 1.859-7.168 1.918l.118-20.56a33.168 33.168 0 0 0-4.16-.443c-.265 0-.56-.03-.825-.03H737.08c-5.074.089-9.735 1.269-13.6 3.51-4.424 2.567-6.518 5.723-6.046 9.145.442 3.215 3.185 6.46 7.758 9.086 3.038 1.799 6.578 3.097 10.295 3.834z"/>
            </g>
            <g>
                <path fill="#111D28" d="M698.584 237.162c-10-5.781-14.985-13.333-14.985-20.914 0-7.67 5.074-15.34 15.221-21.21 20.207-11.681 52.89-11.74 72.95-.147 10 5.782 14.985 13.333 14.985 20.914 0 7.67-5.074 15.34-15.221 21.21-20.177 11.681-52.861 11.74-72.95.147z" opacity=".2"/>
                <path fill="#1A82FF" d="M786.785 201.469v9.027c0 7.67-5.074 15.339-15.222 21.209-20.206 11.681-52.89 11.74-72.979.118-10-5.782-14.985-13.333-14.985-20.914v-9.44h103.186z"/>
                <path fill="#40A0FF" d="M698.584 222.826c-10-5.782-14.985-13.333-14.985-20.914 0-7.67 5.074-15.34 15.221-21.21 20.207-11.681 52.89-11.74 72.98-.118 10 5.782 14.985 13.333 14.985 20.915 0 7.67-5.074 15.339-15.222 21.209-20.206 11.652-52.89 11.71-72.979.118z"/>
                <path fill="#1A82FF" d="M734.867 225.333c-12.655 0-24.454-2.802-33.186-7.846-7.67-4.425-11.917-9.97-11.917-15.605 0-5.634 4.425-11.416 12.153-15.87 8.909-5.133 20.826-7.965 33.629-7.965 12.655 0 24.454 2.773 33.186 7.847 7.67 4.425 11.917 9.97 11.917 15.605 0 5.634-4.425 11.415-12.153 15.87-8.909 5.132-20.856 7.964-33.629 7.964z"/>
                <path fill="#0F7CE8" d="M701.888 187.25c8.908-5.132 20.826-7.964 33.628-7.964 12.655 0 24.455 2.773 33.186 7.847 7.404 4.277 11.593 9.557 11.888 14.985 0-.206.03-.413.03-.62 0-5.634-4.248-11.15-11.918-15.604-8.761-5.044-20.53-7.847-33.186-7.847-12.773 0-24.72 2.832-33.628 7.965-7.729 4.484-12.153 10.265-12.153 15.87 0 .206.029.413.029.62.324-5.428 4.69-10.944 12.124-15.251z"/>
                <path fill="#FFF" d="M729.587 213.504l.03-5.958a29.36 29.36 0 0 1-3.658-1.74c-6.49-3.747-7.316-7.759-2.154-10.738 2.154-1.24 4.632-1.888 7.286-1.918l-.118 20.62c1.328.206 2.655.354 3.983.413.56.03 1.12.03 1.681.03h.708c5.015-.119 9.617-1.299 13.451-3.51 4.425-2.567 6.52-5.724 6.048-9.116-.443-3.245-3.216-6.49-7.788-9.115-3.038-1.74-6.52-3.038-10.147-3.805l-.03 5.988c1.15.472 2.33 1.032 3.48 1.681 2.98 1.74 4.81 3.481 5.37 5.192.678 2.035-.413 3.923-3.157 5.516-2.124 1.24-4.572 1.859-7.168 1.918l.118-20.56a33.168 33.168 0 0 0-4.16-.443c-.265 0-.56-.03-.825-.03H731.18c-5.074.089-9.735 1.269-13.599 3.51-4.425 2.567-6.52 5.723-6.047 9.145.442 3.215 3.186 6.46 7.758 9.086 3.038 1.799 6.578 3.097 10.295 3.834z"/>
            </g>
            <path fill="#111D28" d="M696.608 338.903c-7.581-4.278-11.682-9.941-12.183-15.664-.502-5.752 2.655-11.563 9.587-16.018 13.805-8.879 37.374-9.085 52.596-.472 7.58 4.278 11.681 9.941 12.183 15.664.501 5.752-2.655 11.563-9.587 16.018-13.806 8.85-37.346 9.085-52.596.472z" opacity=".2"/>
            <g transform="translate(670.885 238.46)">
                <circle cx="51.917" cy="51.622" r="50.442" fill="#111D28" opacity=".2"/>
                <circle cx="50.442" cy="50.442" r="50.442" fill="#40A0FF"/>
                <circle cx="50.442" cy="50.442" r="41.032" fill="#1A82FF"/>
                <path fill="#0F7CE8" d="M10.59 51.622c0-22.654 18.378-41.032 41.032-41.032 11.033 0 21.033 4.366 28.407 11.445C72.566 14.248 62.065 9.41 50.442 9.41 27.788 9.41 9.41 27.788 9.41 50.442c0 11.623 4.838 22.124 12.625 29.587-7.08-7.374-11.445-17.374-11.445-28.407z"/>
                <path fill="#FFF" d="M68.496 38.968l-7.11 7.109c.295 1.416.443 2.95.443 4.631 0 8.997-4.218 14.366-11.298 14.366-2.95 0-5.428-.944-7.316-2.744L67.847 37.7a18.237 18.237 0 0 0-2.272-3.246 14.246 14.246 0 0 0-1.12-1.18l-.148-.147-.325-.325c-3.569-3.333-8.17-5.103-13.451-5.103-6.077 0-11.298 2.33-15.015 6.755-3.51 4.16-5.457 9.941-5.457 16.283 0 4.219.855 8.172 2.448 11.564l7.139-7.139a25.75 25.75 0 0 1-.383-4.425c0-4.13.855-7.492 2.507-9.94 1.947-2.891 4.956-4.425 8.731-4.425 2.92 0 5.37.914 7.228 2.655L33.156 63.599a21.187 21.187 0 0 0 2.33 3.422l.532.62c.206.235.413.442.649.678l.088.088.207.207c3.569 3.392 8.2 5.191 13.54 5.191 6.106 0 11.297-2.33 15.044-6.755 3.54-4.16 5.486-9.94 5.486-16.283.03-4.336-.855-8.378-2.536-11.8z"/>
            </g>
            <path fill="#FFF" d="M648.2 210.024c-28.318 0-38.82 9.233-38.82 38.82 0-29.587-10.5-38.82-38.82-38.82 28.32 0 38.82-9.233 38.82-38.82 0 29.587 10.473 38.82 38.82 38.82zM801.534 194.094c-14.631 0-20.06 4.78-20.06 20.06 0-15.28-5.427-20.06-20.058-20.06 14.631 0 20.059-4.778 20.059-20.059 0 15.31 5.428 20.06 20.059 20.06zM587.375 174.625c-8.614 0-11.8 2.803-11.8 11.8 0-8.997-3.186-11.8-11.8-11.8 8.614 0 11.8-2.802 11.8-11.799 0 8.997 3.186 11.8 11.8 11.8z"/>
        </g>
    </g>
</svg>
