<svg xmlns="http://www.w3.org/2000/svg" width="294.64566680796565" height="215.77952401137952" style=""><rect id="backgroundrect" width="100%" height="100%" x="0" y="0" fill="none" stroke="none" class="" style=""/>
    
<g class="currentLayer" style=""><title>Layer 1</title><g fill="none" fill-rule="evenodd" id="svg_1" class="">
        <path fill="#0D1D29" d="M234.42385580825805,134.30225207138062 c8.002,4.62 8.002,12.18 0,16.8 l-103.422,59.71 c-8.002,4.62 -21.097,4.62 -29.099,0 l-86.166,-50.23 c-8.002,-4.62 -8.002,-12.18 0,-16.8 l103.423,-59.711 c8.002,-4.62 21.097,-4.62 29.1,0 l86.164,50.23 z" id="svg_2"/>
        <path fill="#C2CBD3" d="M116.44885580825806,202.27925207138063 c-5.273,-0.0010000000000000005 -10.546,-1.1560000000000001 -14.546,-3.466 l-86.165,-50.23 c-3.9,-2.251 -5.884,-5.202 -5.983,-8.17 v4.888 c0.09900000000000006,2.967 2.083,6.838 5.983,9.089 l86.165,49.532 c4,2.309 9.273,3.244 14.546,3.244 v-4.8870000000000005 z" id="svg_3"/>
        <path fill="#98A7B4" d="M116.44885580825806,202.27925207138063 c5.275,0 10.55,-1.154 14.553,-3.466 l103.423,-59.711 c4.11,-2.373 6.093,-5.521 5.98,-8.65 v4.888 c0.11300000000000003,3.128 -1.87,6.276 -5.98,8.649000000000001 l-103.423,59.712 c-4.002,2.31 -9.278,3.466 -14.553,3.465 v-4.8870000000000005 z" id="svg_4"/>
        <path fill="#EBF0F3" d="M234.42385580825805,122.30225207138062 c8.002,4.62 8.002,12.18 0,16.8 l-103.422,59.71 c-8.002,4.62 -21.097,4.62 -29.099,0 l-86.166,-50.23 c-8.002,-4.62 -8.002,-12.18 0,-16.8 l103.423,-59.711 c8.002,-4.62 21.097,-4.62 29.1,0 l86.164,50.23 z" id="svg_5"/>
        <path fill="#111D28" d="M203.43285580825807,130.88125207138063 l-84.213,49.797 l-73.034,-43.653 c-5.336,-3.082 -5.336,-6.123 0,-9.204 l64.809,-38.593 c5.336,-3.081 14.068,-3.081 19.405,0 l73.033,41.653 z" id="svg_6"/>
        <path fill="#2E3F53" d="M196.75885580825806,134.74925207138062 V49.692252071380615 c-3.583,0 -7.165,-0.785 -9.882,-2.354 l-33.097,-19.11 c-2.6500000000000004,-1.528 -36.186,-22.366 -36.253,-24.38 v85.053 l79.232,45.846000000000004 z" id="svg_7"/>
        <path fill="#98A7B4" d="M199.36885580825805,52.70225207138061 l-70.262,40.566 c-2.718,1.57 -6.303,2.355 -9.887,2.355 v85.055 l12.09,-7.006 v-56.144 c0,-3.311 2.013,-7.158 4.496,-8.592 l56.455,-32.594 c2.485,-1.4340000000000002 4.498,0.08800000000000004 4.498,3.399 v55.007 l6.674,-3.867 V46.826252071380615 c0.07700000000000003,2.125 -1.27,4.264 -4.064,5.876 " id="svg_8"/>
        <path fill="#EBF0F3" d="M199.36885580825805,41.289252071380616 c5.438,3.138 5.438,8.274000000000001 0,11.413 L129.10685580825805,93.26925207138062 c-5.436,3.14 -14.332,3.14 -19.77,0 L44.05285580825806,55.329252071380616 c-5.438,-3.14 -5.438,-8.276 0,-11.415 l70.261,-40.566 c5.438,-3.1390000000000002 14.334,-3.1390000000000002 19.77,0 l65.285,37.941 z" id="svg_9"/>
        <path fill="#C2CBD3" d="M122.41285580825806,81.60525207138062 c-2.966,0 -5.933,-0.6500000000000002 -8.184,-1.9500000000000002 L54.630855808258055,44.99825207138061 c-2.194,-1.267 -3.31,-2.927 -3.365,-4.597 v4.438 c0.055000000000000014,1.6700000000000004 1.17,3.848 3.365,5.114 l59.598,34.264 c2.25,1.3 5.218,1.8250000000000002 8.184,1.8250000000000002 v-4.437 z" id="svg_10"/>
        <path fill="#98A7B4" d="M122.41285580825806,81.60525207138062 c2.968,0 5.937,-0.6500000000000002 8.188,-1.9500000000000002 l58.189,-33.595 c2.313,-1.335 3.4290000000000003,-3.107 3.366,-4.867 v4.438 c0.06300000000000003,1.7600000000000002 -1.053,3.5300000000000002 -3.366,4.867 l-58.19,33.595 c-2.25,1.3 -5.22,1.9500000000000002 -8.187,1.949 v-4.437 z" id="svg_11"/>
        <path fill="#EBF0F3" d="M188.78985580825807,36.607252071380614 c4.502,2.6 4.502,6.853 0,9.453 l-58.189,33.595 c-4.502,2.6 -11.870000000000001,2.6 -16.372,0 L54.630855808258055,44.997252071380615 c-4.503,-2.599 -4.503,-6.853 0,-9.452 l58.19,-33.596000000000004 c4.501,-2.599 11.870000000000001,-2.599 16.371,0 l59.598,34.658 z" id="svg_12"/>
        <path fill="#2E3F53" d="M103.12385580825806,46.561252071380615 l-0.010000000000000004,1.8970000000000002 c0.3900000000000001,0.15000000000000005 0.78,0.3350000000000002 1.165,0.558 c2.072,1.196 2.329,2.475 0.6890000000000004,3.422 c-0.6840000000000004,0.3950000000000002 -1.478,0.6030000000000002 -2.3280000000000003,0.6150000000000002 l0.03600000000000001,-6.572 a11.356,11.356 0 0 0 -1.807,-0.14100000000000001 v-0.0010000000000000005 h-0.07 c-0.05100000000000002,0.002000000000000001 -0.10400000000000002,0 -0.15500000000000005,0.002000000000000001 v0.002000000000000001 c-1.598,0.035 -3.07,0.4160000000000001 -4.291,1.12 c-1.411,0.8170000000000002 -2.077,1.823 -1.923,2.912 c0.14400000000000004,1.024 1.026,2.05 2.485,2.8930000000000002 a10.91,10.91 0 0 0 3.236,1.209 l0.010000000000000004,-1.907 a8.446,8.446 0 0 1 -1.106,-0.538 c-0.9530000000000002,-0.551 -1.53,-1.108 -1.711,-1.6580000000000004 c-0.21300000000000005,-0.6450000000000002 0.135,-1.252 1.008,-1.7560000000000002 a4.751,4.751 0 0 1 2.283,-0.6150000000000002 l-0.03600000000000001,6.558 c0.4390000000000001,0.07300000000000002 0.8830000000000002,0.12000000000000002 1.326,0.14200000000000004 c0.08900000000000004,0.004000000000000002 0.17800000000000005,0.005000000000000002 0.265,0.008000000000000004 h0.003000000000000002 c0.1,0.002000000000000001 0.203,0.003000000000000002 0.3040000000000001,0.002000000000000001 h0.134 v-0.002000000000000001 c1.614,-0.026000000000000013 3.1,-0.4070000000000001 4.335,-1.12 c1.413,-0.8150000000000002 2.08,-1.822 1.9300000000000002,-2.914 c-0.14,-1.027 -1.02,-2.056 -2.476,-2.8970000000000002 a10.893,10.893 0 0 0 -3.2960000000000003,-1.22 zm34.984,-22.908 l10.112,5.838 l-1.904,1.1 l-6.7940000000000005,-0.5820000000000002 c-2.158,-0.19000000000000006 -4.866,-0.46 -4.881,-0.451 l-0.015000000000000006,0.008000000000000004 c-0.014000000000000004,0.009000000000000006 1.474,0.8340000000000002 3.482,1.994 l3.265,1.8840000000000003 l-2.02,1.167 l-10.113,-5.84 l1.904,-1.098 l6.896,0.5740000000000002 c1.6070000000000002,0.12200000000000003 4.692,0.4260000000000001 4.707,0.4180000000000001 l0.014000000000000004,-0.010000000000000004 c0.015000000000000006,-0.007000000000000004 -1.661,-0.9410000000000002 -3.366,-1.9260000000000002 l-3.308,-1.9100000000000001 l2.02,-1.166 zm-2.334,13.024 l-10.113,-5.838 l2.02,-1.167 l10.113,5.839 l-2.02,1.166 zm-4.22,1.219 c0.06900000000000003,0.6780000000000004 -0.502,1.7400000000000002 -1.8250000000000002,2.505 c-2.922,1.6870000000000005 -7.487,1.77 -10.536,0.010000000000000004 c-3.048,-1.7600000000000002 -2.903,-4.3950000000000005 0.019000000000000006,-6.082 c2.035,-1.1600000000000001 4.7620000000000005,-1.532 7.295,-1.126 l-1.53,1.5 c-1.303,-0.11500000000000003 -2.783,0.19000000000000006 -3.786,0.7690000000000002 c-1.904,1.099 -1.811,2.613 0.11000000000000003,3.723 c2.008,1.159 4.69,1.095 6.579,0.004000000000000002 c1.745,-1.007 1.707,-2.086 1.247,-2.721 l-0.4330000000000001,-0.25 l-2.8200000000000003,1.6280000000000001 l-1.633,-0.9420000000000002 l4.55,-2.6270000000000002 l5.562,3.21 l-1.745,1.008 c-0.8380000000000002,-0.4840000000000001 -1.025,-0.6100000000000002 -1.04,-0.6170000000000002 l-0.014000000000000004,0.008000000000000004 zm-10.325,7.179 l-10.112,-5.84 l2.02,-1.166 l10.113,5.839 l-2.021,1.167 zm-12.115,0.9390000000000002 l1.802,-1.04 c1.12,-0.6470000000000002 0.92,-1.366 0.15500000000000005,-1.808 c-0.795,-0.46 -2.04,-0.557 -3.145,0.08000000000000003 l-1.802,1.042 l2.99,1.726 zm8.922,0.904 l-5.474,-0.8260000000000002 c-0.04300000000000002,0.02500000000000001 -0.07200000000000002,0.040000000000000015 -0.11600000000000003,0.06700000000000003 l-1.541,0.8890000000000002 l3.453,1.994 l-2.021,1.166 l-10.112,-5.838 l3.56,-2.057 c2.502,-1.443 5.3420000000000005,-1.532 7.38,-0.3560000000000001 c1.3860000000000001,0.8 1.714,1.779 0.984,2.785 l6.155,0.8670000000000002 l-2.268,1.3090000000000002 z" id="svg_13"/>
        <path fill="#C2CBD3" d="M119.21985580825806,180.6792520713806 V95.62225207138061 c-3.583,0 -7.165,-0.785 -9.882,-2.355 L44.05285580825806,55.329252071380616 c-2.6500000000000004,-1.53 -3.998,-3.535 -4.065,-5.55 v85.054 l79.232,45.846000000000004 z" id="svg_14"/>
        <path fill="#111D28" d="M226.29385580825806,195.2112520713806 c2.6100000000000003,1.5070000000000001 2.624,3.942 0.02900000000000001,5.44 c-2.593,1.498 -6.813,1.491 -9.423,-0.017000000000000008 c0,0 -11.546,-7.152 -11.948,-7.413 c-2.245,-1.465 -2.624,-3.943 -0.030000000000000013,-5.44 c2.595,-1.499 6.814,-1.49 9.424,0.016000000000000007 l11.948,7.414 z" id="svg_15"/>
        <path fill="#0C2033" d="M209.10785580825805,188.0802520713806 l0.8280000000000002,0.8460000000000002 c0.4,0.51 0.8600000000000002,0.97 1.368,1.37 a1.066,1.066 0 0 1 -0.6490000000000002,1.912 c-0.047000000000000014,0 -0.10500000000000002,0.004000000000000002 -0.15000000000000005,-0.002000000000000001 a6.615,6.615 0 0 1 -4.426,-2.1470000000000002 l-0.804,-1.4 l-0.04600000000000002,-0.08000000000000003 s-0.4,-1.26 1.46,-1.306 " id="svg_16"/>
        <path fill="#000" d="M206.16785580825805,188.4592520713806 l0.552,0.9600000000000002 a6.616,6.616 0 0 0 4.426,2.146 c0.04500000000000002,0.006000000000000004 0.10300000000000002,0.002000000000000001 0.15000000000000005,0.002000000000000001 c0.126,0 0.24600000000000005,-0.02500000000000001 0.3590000000000001,-0.06600000000000003 a1.064,1.064 0 0 1 -1,0.7070000000000002 c-0.047000000000000014,0 -0.10500000000000002,0.004000000000000002 -0.15000000000000005,-0.002000000000000001 a6.62,6.62 0 0 1 -4.426,-2.146 l-0.8500000000000002,-1.482 s-0.24400000000000005,-1.26 1.147,-1.215 c1.3900000000000001,0.04400000000000002 0,0 0,0 s-0.6400000000000002,0.53 -0.20800000000000005,1.095 " id="svg_17"/>
        <path fill="#0C2033" d="M223.66585580825804,196.2152520713806 c0.45,0.6310000000000002 0.987,1.397 1.596,1.8760000000000003 a1.066,1.066 0 0 1 -0.6500000000000002,1.912 c-0.047000000000000014,0 -0.10500000000000002,0.004000000000000002 -0.15000000000000005,-0.002000000000000001 a6.625,6.625 0 0 1 -4.837,-2.6430000000000002 v-1.2850000000000001 " id="svg_18"/>
        <path fill="#000" d="M220.26585580825807,196.2992520713806 v0.4180000000000001 a6.63,6.63 0 0 0 4.837,2.644 c0.04500000000000002,0.005000000000000002 0.10300000000000002,0.0010000000000000005 0.15000000000000005,0.0010000000000000005 c0.126,0 0.24600000000000005,-0.026000000000000013 0.3600000000000001,-0.06600000000000003 a1.064,1.064 0 0 1 -1,0.7070000000000002 c-0.048000000000000015,0 -0.10600000000000002,0.004000000000000002 -0.15000000000000005,-0.002000000000000001 a6.625,6.625 0 0 1 -4.838,-2.6430000000000002 v-1.082 l0.6410000000000002,0.022000000000000013 z" id="svg_19"/>
        <path fill="#C2CBD3" d="M221.43185580825806,165.01125207138062 l2.58,0.11100000000000003 v5.174 l2.281,5.096 a1.807,1.807 0 0 1 -0.929,2.38 s-0.8800000000000002,0.21800000000000005 -1.343,-0.9500000000000002 c-0.464,-1.1680000000000001 -0.279,-1.6400000000000001 -0.503,-2.375 c-0.22400000000000006,-0.7350000000000002 -1.489,-4.33 -1.489,-4.33 l-0.5970000000000002,-5.106 z" id="svg_20"/>
        <path fill="#111D28" d="M221.67285580825805,176.04525207138062 l-1.15,1.8 l-4.853,6.458 l-6.068,5.081 c-0.8400000000000002,0.5800000000000002 -3.944,-1.572 -3.293,-2.6270000000000002 l5.87,-4.702 l0.9480000000000002,-4.006 " id="svg_21"/>
        <path fill="#455D75" d="M213.40385580825804,178.1672520713806 a0.8530000000000002,0.8530000000000002 0 0 1 -0.277,-0.11800000000000004 s-0.252,0.7660000000000002 0.558,2.4370000000000003 c0.81,1.6720000000000004 4.607,5.434 4.607,5.434 l0.915,9.6 c0,1.3900000000000001 5.035,1.3900000000000001 5.035,0 l-1.6,-10.527 l-1.928,-7.82 " id="svg_22"/>
        <path fill="#B2B2B2" d="M225.27485580825805,175.33225207138062 a0.7400000000000002,0.7400000000000002 0 0 1 -0.3810000000000001,0.975 " id="svg_23"/>
        <path fill="#1CBA81" d="M215.69685580825805,160.86325207138063 a1.8570000000000002,1.8570000000000002 0 0 0 3.694,-0.262 l-0.012000000000000004,-0.3310000000000001 l1.6510000000000002,-0.4 s3.8200000000000003,-0.4730000000000001 3.258,4.769 c0,0.4700000000000001 -0.7570000000000002,0.7330000000000002 -1.5990000000000002,0.786 h-0.040000000000000015 l-0.6080000000000002,9.996 c0,2.416 -4.337,3.06 -8.637,2.747 c-0.3900000000000001,-0.09200000000000005 -1.239,-0.517 -1.29,-1.6710000000000005 l0.6080000000000002,-4.3870000000000005 l0.015000000000000006,-9.938 s1.54,-1.088 2.96,-1.31 " id="svg_24"/>
        <path fill="#C2CBD3" d="M215.67885580825805,155.8992520713806 v4.702 a1.856,1.856 0 1 0 3.712,0 v-3.621 " id="svg_25"/>
        <path fill="#B2B2B2" d="M215.67885580825805,158.43325207138062 v-2.534 l3.712,1.08 v3.6270000000000002 c-0.026000000000000013,0 -0.05200000000000002,0.004000000000000002 -0.07900000000000003,0.004000000000000002 c-1.216,0 -3.1470000000000002,-2.021 -3.1470000000000002,-2.021 a0.8450000000000002,0.8450000000000002 0 0 1 -0.4860000000000001,-0.15600000000000006 " id="svg_26"/>
        <path fill="#C2CBD3" d="M219.31185580825806,159.96925207138065 a2.408,2.408 0 0 0 2.409,-2.409 v-3.198 a3.576,3.576 0 1 0 -7.152,0 l0.004000000000000002,0.14800000000000005 c0,1.218 0.3370000000000002,2.358 0.923,3.332 c0.15700000000000006,0.19500000000000006 0.3990000000000002,0.3200000000000001 0.6690000000000004,0.3200000000000001 c0,0 1.9300000000000002,1.807 3.1470000000000002,1.807 " id="svg_27"/>
        <path fill="#13A36B" d="M222.64885580825805,164.51025207138062 v0.914 h0.040000000000000015 c0.19400000000000006,-0.012000000000000004 0.3820000000000001,-0.035 0.558,-0.06900000000000003 l-0.5980000000000002,-0.8450000000000002 z" id="svg_28"/>
        <path fill="#C2CBD3" d="M211.77585580825806,177.49325207138062 s0.455,-0.16000000000000006 0.4360000000000001,-0.93 c-0.019000000000000006,-0.7690000000000002 -1.528,-0.6080000000000002 -1.185,-3.122 c0.027000000000000014,-0.19400000000000006 0.08500000000000003,-2.055 0.16000000000000006,-2.596 c0.24100000000000005,-1.778 0.6510000000000002,-3.346 0.6510000000000002,-3.346 l-2.258,-0.463 l-0.6980000000000004,3.676 l0.136,6.283 a2.004,2.004 0 0 0 2.054,1.953 a0.917,0.917 0 0 0 0.8940000000000002,-0.9400000000000002 s-0.03800000000000001,-0.3700000000000001 -0.19000000000000006,-0.514 c-0.15200000000000005,-0.14600000000000005 -0.6320000000000002,-1.008 -0.6540000000000002,-1.288 " id="svg_29"/>
        <path fill="#1CBA81" d="M212.83685580825806,162.1632520713806 c-1.088,-0.3170000000000001 -2.153,1.04 -2.692,2.1310000000000002 c-1.256,2.542 -1.292,4.234 -1.292,4.234 c-0.14800000000000005,0.533 0.788,1.067 1.7570000000000001,1.311 c0,0 0.8280000000000002,0.23600000000000004 1.127,-0.007000000000000004 c0.3000000000000001,-0.24300000000000005 2.334,-3.73 2.278,-4.536 c0,0 0.935,-2.518 -1.178,-3.133 " id="svg_30"/>
        <path fill="#FFF" d="M220.69585580825805,166.06325207138062 l-0.8810000000000002,1.52 c0.035,0.18000000000000005 0.05300000000000002,0.3890000000000001 0.05300000000000002,0.6270000000000002 c0,1.28 -0.524,2.345 -1.401,2.8520000000000003 c-0.3650000000000001,0.21000000000000005 -0.6740000000000004,0.255 -0.907,0.134 l3.053,-5.267 a1.353,1.353 0 0 0 -0.28,-0.3020000000000001 a1.068,1.068 0 0 0 -0.137,-0.09000000000000004 l-0.020000000000000007,-0.010000000000000004 c-0.013000000000000006,-0.008000000000000004 -0.027000000000000014,-0.017000000000000008 -0.042000000000000016,-0.024000000000000007 v0.002000000000000001 c-0.4430000000000001,-0.21800000000000005 -1.014,-0.14 -1.6670000000000005,0.23800000000000004 c-0.7540000000000002,0.4350000000000001 -1.3980000000000001,1.1400000000000001 -1.862,2.037 a6.024,6.024 0 0 0 -0.6750000000000004,2.704 c0,0.5990000000000002 0.10600000000000002,1.1 0.3050000000000001,1.47 l0.8860000000000002,-1.53 a3.47,3.47 0 0 1 -0.047000000000000014,-0.6010000000000002 c0,-0.5900000000000002 0.10500000000000002,-1.125 0.3100000000000001,-1.594 c0.24300000000000005,-0.55 0.6170000000000002,-0.983 1.083,-1.2530000000000001 c0.3640000000000001,-0.21000000000000005 0.6660000000000003,-0.253 0.8960000000000002,-0.14100000000000001 l-3.047,5.255 a1.344,1.344 0 0 0 0.3570000000000001,0.3670000000000001 c0.026000000000000013,0.017000000000000008 0.05300000000000002,0.033000000000000015 0.08000000000000003,0.048000000000000015 l0.010000000000000004,0.006000000000000004 l0.026000000000000013,0.015000000000000006 v-0.002000000000000001 c0.4450000000000001,0.22800000000000006 1.019,0.15200000000000005 1.6780000000000004,-0.23 c0.7560000000000002,-0.4350000000000001 1.4,-1.1400000000000001 1.866,-2.038 a6.01,6.01 0 0 0 0.6800000000000004,-2.707 c0,-0.6070000000000002 -0.11100000000000003,-1.115 -0.3170000000000001,-1.486 " id="svg_31"/>
        <path fill="#111D28" d="M23.175855808258056,79.12125207138061 c2.6100000000000003,1.5070000000000001 2.623,3.943 0.028000000000000008,5.44 c-2.593,1.498 -6.813,1.491 -9.423,-0.017000000000000008 c0,0 -11.546,-7.15 -11.948,-7.413 c-2.245,-1.464 -2.624,-3.943 -0.030000000000000013,-5.44 c2.595,-1.498 6.814,-1.49 9.424,0.016000000000000007 l11.948,7.414 z" id="svg_32"/>
        <path fill="#0C2033" d="M5.989855808258056,71.99125207138061 l0.8280000000000002,0.8460000000000002 c0.4,0.509 0.8590000000000002,0.9690000000000002 1.368,1.37 a1.067,1.067 0 0 1 -0.6500000000000002,1.912 c-0.04600000000000002,0 -0.10400000000000002,0.004000000000000002 -0.15000000000000005,-0.002000000000000001 a6.62,6.62 0 0 1 -4.426,-2.1470000000000002 L2.155855808258057,72.56925207138062 l-0.04600000000000002,-0.08000000000000003 s-0.401,-1.26 1.46,-1.3050000000000002 " id="svg_33"/>
        <path fill="#000" d="M3.0488558082580566,72.36925207138061 l0.552,0.9600000000000002 a6.617,6.617 0 0 0 4.426,2.148 c0.04500000000000002,0.005000000000000002 0.10300000000000002,0.0010000000000000005 0.15000000000000005,0.0010000000000000005 c0.126,0 0.24600000000000005,-0.02500000000000001 0.3600000000000001,-0.06600000000000003 a1.063,1.063 0 0 1 -1,0.7060000000000002 c-0.048000000000000015,0 -0.10600000000000002,0.005000000000000002 -0.15000000000000005,0 a6.617,6.617 0 0 1 -4.427,-2.1470000000000002 l-0.8500000000000002,-1.481 s-0.24400000000000005,-1.2610000000000001 1.147,-1.216 c1.3900000000000001,0.04400000000000002 0,0 0,0 s-0.6400000000000002,0.53 -0.20800000000000005,1.094 " id="svg_34"/>
        <path fill="#0C2033" d="M20.547855808258056,80.12525207138061 c0.45,0.6310000000000002 0.987,1.397 1.596,1.8760000000000003 a1.066,1.066 0 0 1 -0.6500000000000002,1.912 c-0.047000000000000014,0 -0.10500000000000002,0.004000000000000002 -0.15000000000000005,-0.002000000000000001 a6.625,6.625 0 0 1 -4.837,-2.6430000000000002 v-1.284 " id="svg_35"/>
        <path fill="#000" d="M17.147855808258058,80.20925207138062 v0.4190000000000001 a6.625,6.625 0 0 0 4.837,2.6430000000000002 c0.04500000000000002,0.006000000000000004 0.10300000000000002,0.002000000000000001 0.15000000000000005,0.002000000000000001 c0.126,0 0.24600000000000005,-0.026000000000000013 0.3590000000000001,-0.06600000000000003 a1.064,1.064 0 0 1 -1,0.7070000000000002 c-0.047000000000000014,0 -0.10500000000000002,0.003000000000000002 -0.15000000000000005,-0.002000000000000001 a6.625,6.625 0 0 1 -4.837,-2.6430000000000002 v-1.082 l0.6400000000000002,0.022000000000000013 z" id="svg_36"/>
        <path fill="#C2CBD3" d="M18.312855808258057,48.921252071380614 l2.58,0.11200000000000003 v5.174 l2.281,5.095 a1.807,1.807 0 0 1 -0.929,2.38 s-0.8800000000000002,0.21800000000000005 -1.343,-0.9500000000000002 c-0.464,-1.1680000000000001 -0.279,-1.6400000000000001 -0.503,-2.375 c-0.22400000000000006,-0.7350000000000002 -1.489,-4.33 -1.489,-4.33 l-0.5970000000000002,-5.106 z" id="svg_37"/>
        <path fill="#111D28" d="M18.553855808258056,59.95525207138061 l-1.149,1.8 l-4.854,6.458 l-6.068,5.081 c-0.8390000000000002,0.5800000000000002 -3.944,-1.572 -3.294,-2.6260000000000003 l5.871,-4.703 l0.9480000000000002,-4.006 " id="svg_38"/>
        <path fill="#455D75" d="M10.284855808258056,62.07825207138062 a0.8530000000000002,0.8530000000000002 0 0 1 -0.277,-0.11900000000000004 s-0.252,0.7670000000000002 0.558,2.438 c0.81,1.6710000000000005 4.607,5.433 4.607,5.433 l0.915,9.6 c0,1.3900000000000001 5.035,1.3900000000000001 5.035,0 l-1.5990000000000002,-10.527 l-1.929,-7.82 " id="svg_39"/>
        <path fill="#B2B2B2" d="M22.155855808258057,59.24225207138061 a0.7400000000000002,0.7400000000000002 0 0 1 -0.3800000000000001,0.976 " id="svg_40"/>
        <path fill="#59A0F8" d="M12.577855808258057,44.77325207138062 a1.8570000000000002,1.8570000000000002 0 0 0 3.694,-0.262 l-0.012000000000000004,-0.3300000000000001 l1.6510000000000002,-0.4 s3.8200000000000003,-0.4740000000000001 3.259,4.768 c0,0.4710000000000001 -0.7580000000000002,0.7330000000000002 -1.6,0.786 h-0.040000000000000015 l-0.6070000000000002,9.995 c0,2.417 -4.337,3.062 -8.637,2.747 c-0.3920000000000001,-0.09000000000000004 -1.24,-0.516 -1.29,-1.6700000000000004 l0.6080000000000002,-4.3870000000000005 l0.015000000000000006,-9.939 s1.54,-1.087 2.96,-1.308 " id="svg_41"/>
        <path fill="#C2CBD3" d="M12.559855808258057,39.80925207138061 v4.703 a1.856,1.856 0 0 0 3.712,0 V40.88925207138062 " id="svg_42"/>
        <path fill="#B2B2B2" d="M12.559855808258057,42.344252071380616 V39.80925207138061 l3.712,1.081 v3.6260000000000003 c-0.026000000000000013,0.0010000000000000005 -0.05200000000000002,0.004000000000000002 -0.07900000000000003,0.004000000000000002 c-1.216,0 -3.1470000000000002,-2.02 -3.1470000000000002,-2.02 a0.8520000000000002,0.8520000000000002 0 0 1 -0.4860000000000001,-0.15600000000000006 " id="svg_43"/>
        <path fill="#C2CBD3" d="M16.192855808258056,43.87925207138061 a2.409,2.409 0 0 0 2.41,-2.408 v-3.2 a3.576,3.576 0 1 0 -7.1530000000000005,0 l0.004000000000000002,0.15000000000000005 c0,1.218 0.3370000000000002,2.358 0.923,3.332 c0.15700000000000006,0.19500000000000006 0.4,0.3200000000000001 0.6700000000000004,0.3200000000000001 c0,0 1.9300000000000002,1.807 3.146,1.807 " id="svg_44"/>
        <path fill="#13A36B" d="M19.529855808258056,48.421252071380614 v0.914 h0.041000000000000016 c0.19200000000000006,-0.012000000000000004 0.3810000000000001,-0.035 0.557,-0.07 l-0.5980000000000002,-0.8440000000000002 z" id="svg_45"/>
        <path fill="#C2CBD3" d="M8.657855808258057,61.40425207138062 s0.455,-0.16000000000000006 0.4360000000000001,-0.93 c-0.020000000000000007,-0.77 -1.528,-0.6080000000000002 -1.185,-3.121 c0.027000000000000014,-0.19500000000000006 0.08500000000000003,-2.057 0.15900000000000006,-2.597 c0.24200000000000005,-1.778 0.6520000000000002,-3.346 0.6520000000000002,-3.346 l-2.258,-0.463 l-0.6980000000000004,3.6750000000000007 l0.136,6.283 a2.005,2.005 0 0 0 2.054,1.9540000000000002 a0.917,0.917 0 0 0 0.8940000000000002,-0.9410000000000002 s-0.03800000000000001,-0.3700000000000001 -0.19000000000000006,-0.514 c-0.15200000000000005,-0.14400000000000004 -0.6320000000000002,-1.006 -0.6540000000000002,-1.287 " id="svg_46"/>
        <path fill="#59A0F8" d="M9.718855808258057,46.07425207138061 c-1.088,-0.3170000000000001 -2.153,1.04 -2.692,2.1310000000000002 c-1.256,2.541 -1.292,4.234 -1.292,4.234 c-0.14800000000000005,0.533 0.788,1.067 1.7570000000000001,1.311 c0,0 0.8280000000000002,0.23600000000000004 1.127,-0.007000000000000004 c0.3000000000000001,-0.24300000000000005 2.334,-3.729 2.278,-4.536 c0,0 0.935,-2.518 -1.178,-3.133 " id="svg_47"/>
        <path fill="#2E3F53" d="M255.98085580825807,450.90725207138064 v0.7530000000000002 h0.034000000000000016 c0.15800000000000006,-0.010000000000000004 0.3140000000000001,-0.030000000000000013 0.459,-0.05800000000000002 l-0.4930000000000001,-0.6950000000000004 z" id="svg_48"/>
        <path fill="#000" d="M279.32485580825806,119.77325207138061 c3.206,-1.851 8.419,-1.8410000000000002 11.645,0.020000000000000007 c3.226,1.864 3.242,4.8740000000000006 0.03600000000000001,6.724 c-3.205,1.85 -8.419,1.84 -11.644,-0.021000000000000008 c-3.226,-1.862 -3.242,-4.872 -0.03700000000000001,-6.723 " id="svg_49"/>
        <path fill="#C2CBD3" d="M280.12785580825806,91.43625207138062 v11.165 a1.81,1.81 0 0 0 1.81,1.81 h0.773 V91.32325207138061 l-2.583,0.11200000000000003 z" id="svg_50"/>
        <path fill="#B2B2B2" d="M281.03685580825805,102.13625207138061 c0,0.4100000000000001 0.3330000000000002,0.7420000000000002 0.7420000000000002,0.7420000000000002 " id="svg_51"/>
        <path fill="#59A0F8" d="M291.42085580825807,98.27425207138062 c1.001,0.023000000000000013 2.046,-0.24200000000000005 2.046,-0.796 c0,0 0.23800000000000004,-3.44 -0.2960000000000001,-6.23 c-0.534,-2.7880000000000003 -4.569,-4.064 -4.569,-4.064 l-0.14600000000000005,-0.014000000000000004 a1.86,1.86 0 0 1 -3.7,-0.263 l0.012000000000000004,-0.3320000000000002 l-1.6540000000000004,-0.4 s-3.827,-0.4740000000000001 -3.263,4.777 c0,0.4710000000000001 0.7570000000000002,0.7340000000000002 1.601,0.787 h0.040000000000000015 v9.606 c0,2.42 4.953,3.472 9.261,3.157 a0.8860000000000002,0.8860000000000002 0 0 0 0.6820000000000004,-0.8620000000000002 v-5.205 l-0.014000000000000004,-0.16000000000000006 z" id="svg_52"/>
        <path fill="#FFF" d="M287.18385580825804,94.52425207138062 l-0.8660000000000002,0.4940000000000001 c0.034000000000000016,0.21700000000000005 0.05200000000000002,0.4430000000000001 0.05200000000000002,0.6770000000000004 c0,1.259 -0.515,1.7120000000000002 -1.3780000000000001,1.214 a2.505,2.505 0 0 1 -0.8920000000000002,-0.8990000000000002 l3.003,-1.7120000000000002 a6.017,6.017 0 0 0 -0.4110000000000001,-0.8600000000000002 l-0.018000000000000006,-0.032000000000000015 l-0.042000000000000016,-0.07 c-0.4370000000000001,-0.7180000000000002 -0.997,-1.288 -1.6400000000000001,-1.6600000000000001 c-0.7420000000000002,-0.4280000000000001 -1.3760000000000001,-0.466 -1.832,-0.11000000000000003 c-0.4280000000000001,0.3350000000000002 -0.6640000000000003,1.007 -0.6640000000000003,1.8930000000000002 c0,0.5880000000000002 0.10500000000000002,1.202 0.3000000000000001,1.792 l0.8720000000000002,-0.4970000000000001 a4.451,4.451 0 0 1 -0.04600000000000002,-0.6450000000000002 c0,-0.5800000000000002 0.10300000000000002,-0.988 0.3050000000000001,-1.216 c0.23800000000000004,-0.267 0.6060000000000002,-0.268 1.065,-0.003000000000000002 c0.3570000000000001,0.20700000000000005 0.6550000000000002,0.508 0.8810000000000002,0.8790000000000002 l-2.997,1.7080000000000002 a5.995,5.995 0 0 0 0.3500000000000001,0.7650000000000002 h0.0010000000000000005 l0.07900000000000003,0.14 l0.010000000000000004,0.017000000000000008 l0.02500000000000001,0.04400000000000002 h0.0010000000000000005 c0.4360000000000001,0.7280000000000002 1.001,1.3050000000000002 1.6500000000000004,1.6800000000000004 c0.7430000000000002,0.4290000000000001 1.3780000000000001,0.468 1.836,0.11300000000000003 c0.4300000000000001,-0.3340000000000002 0.6680000000000003,-1.006 0.6680000000000003,-1.8900000000000001 c0,-0.5980000000000002 -0.10900000000000003,-1.223 -0.3120000000000001,-1.822 " id="svg_53"/>
        <path fill="#0C2033" d="M282.1678558082581,120.44225207138062 c-0.4,0.51 -0.8610000000000002,0.972 -1.371,1.373 a1.068,1.068 0 0 0 0.6510000000000002,1.915 c0.04600000000000002,0 0.10400000000000002,0.004000000000000002 0.15000000000000005,-0.002000000000000001 a6.627,6.627 0 0 0 4.433,-2.15 l0.8520000000000002,-1.484 l-3.886,-0.4990000000000001 l-0.8300000000000002,0.8470000000000002 z" id="svg_54"/>
        <path fill="#000" d="M285.9418558082581,119.97425207138062 l-0.552,0.9620000000000002 a6.625,6.625 0 0 1 -4.434,2.15 c-0.04500000000000002,0.007000000000000004 -0.10300000000000002,0.002000000000000001 -0.15000000000000005,0.002000000000000001 a1.05,1.05 0 0 1 -0.3600000000000001,-0.06600000000000003 c0.14800000000000005,0.4110000000000001 0.539,0.7070000000000002 1.002,0.7070000000000002 c0.04600000000000002,0 0.10400000000000002,0.005000000000000002 0.15000000000000005,-0.0010000000000000005 a6.626,6.626 0 0 0 4.433,-2.15 l0.8520000000000002,-1.484 l-0.9410000000000002,-0.12000000000000002 z" id="svg_55"/>
        <path fill="#0C2033" d="M286.58285580825805,122.18325207138062 a8.173,8.173 0 0 1 -1.598,1.677 a1.07,1.07 0 0 0 0.6510000000000002,1.915 c0.04600000000000002,0 0.10400000000000002,0.004000000000000002 0.15000000000000005,-0.002000000000000001 a6.634,6.634 0 0 0 4.844,-2.648 v-1.084 " id="svg_56"/>
        <path fill="#000" d="M289.98885580825805,122.06425207138062 v0.4200000000000001 a6.635,6.635 0 0 1 -4.845,2.6470000000000002 c-0.04500000000000002,0.006000000000000004 -0.10300000000000002,0.002000000000000001 -0.15000000000000005,0.002000000000000001 a1.04,1.04 0 0 1 -0.3590000000000001,-0.06700000000000003 c0.14700000000000005,0.4130000000000001 0.538,0.7100000000000002 1.001,0.7100000000000002 c0.04600000000000002,0 0.10400000000000002,0.003000000000000002 0.15000000000000005,-0.003000000000000002 a6.6400000000000015,6.6400000000000015 0 0 0 4.845,-2.6470000000000002 v-1.084 l-0.6420000000000002,0.022000000000000013 z" id="svg_57"/>
        <path fill="#C2CBD3" d="M288.47385580825807,82.19725207138062 v4.71 a1.86,1.86 0 0 1 -3.718,0 v-3.6270000000000002 " id="svg_58"/>
        <path fill="#B2B2B2" d="M288.47385580825807,84.73625207138062 v-2.539 l-3.718,1.083 v3.632 c0.027000000000000014,0.0010000000000000005 0.05200000000000002,0.004000000000000002 0.07900000000000003,0.004000000000000002 c1.219,0 3.152,-2.024 3.152,-2.024 a0.8460000000000002,0.8460000000000002 0 0 0 0.4870000000000001,-0.15600000000000006 " id="svg_59"/>
        <path fill="#C2CBD3" d="M284.83485580825806,86.27525207138062 a2.4130000000000003,2.4130000000000003 0 0 1 -2.4130000000000003,-2.4130000000000003 v-3.204 a3.582,3.582 0 0 1 7.164,0 l-0.004000000000000002,0.14800000000000005 a6.46,6.46 0 0 1 -0.924,3.338 a0.8600000000000002,0.8600000000000002 0 0 1 -0.6710000000000004,0.3200000000000001 s-1.933,1.81 -3.152,1.81 " id="svg_60"/>
        <path fill="#4691D7" d="M281.49285580825807,90.82425207138061 v0.916 h-0.042000000000000016 a4.62,4.62 0 0 1 -0.558,-0.07 l0.6000000000000002,-0.8460000000000002 z" id="svg_61"/>
        <path fill="#455D75" d="M285.99785580825807,120.72325207138061 c-1.447,0.4770000000000001 -4.16,0.20500000000000004 -4.16,-0.8170000000000002 v-15.384 l-0.0010000000000000005,-2.1390000000000002 c1.194,1.6790000000000005 5.284,2.3850000000000002 8.916,2.119 a0.8860000000000002,0.8860000000000002 0 0 0 0.277,-0.11700000000000003 l0.005000000000000002,2.138 v14.955 c0,1.393 -5.043,1.393 -5.043,0 v-14.121 " id="svg_62"/>
        <path fill="#2E3F53" d="M291.03485580825804,104.38525207138062 v17.094 c0,0.46 -0.554,0.77 -1.294,0.926 v-17.711 l1.294,-0.3100000000000001 zM285.99785580825807,107.68825207138062 v13.035 a5.02,5.02 0 0 1 -1.26,0.21700000000000005 v-14.107 l1.26,0.8550000000000002 z" id="svg_63"/>
        <path fill="#4691D7" d="M289.61885580825805,94.27525207138062 v3.204 c0,0.506 0.8740000000000002,0.77 1.7890000000000001,0.795 l0.027000000000000014,0.3760000000000001 v4.99 c0,0.4200000000000001 -0.2910000000000001,0.77 -0.6820000000000004,0.8630000000000002 c-0.7340000000000002,0.05300000000000002 -1.487,0.06700000000000003 -2.23,0.042000000000000016 v-2.686 l1.096,-7.584 z" id="svg_64"/>
        <path fill="#C2CBD3" d="M290.11585580825806,108.44025207138061 s-0.46,-0.14800000000000005 -0.46,-0.92 c0,-0.77 0.905,-1.33 0.905,-3.87 v-5.47 l2.3040000000000003,-0.15300000000000005 v9.844 a2.007,2.007 0 0 1 -2.007,2.007 a0.92,0.92 0 0 1 -0.92,-0.919 s0.030000000000000013,-0.3700000000000001 0.17800000000000005,-0.519 c0.14800000000000005,-0.14800000000000005 0.6080000000000002,-1.023 0.6230000000000002,-1.306 " id="svg_65"/>
        <path fill="#B2B2B2" d="M459.89585580825803,440.5572520713806 a0.5900000000000002,0.5900000000000002 0 0 0 0.5890000000000002,0.5890000000000002 " id="svg_66"/>
        <path fill="#4691D7" d="M460.25585580825805,431.5762520713806 v0.7280000000000002 h-0.032000000000000015 a3.571,3.571 0 0 1 -0.4430000000000001,-0.057000000000000016 l0.4750000000000001,-0.6710000000000004 z" id="svg_67"/>
    </g></g></svg>