<svg xmlns="http://www.w3.org/2000/svg" width="19" height="29" viewBox="0 0 19 29">
    <path fill="#FFF" fill-rule="evenodd" d="M9.91 2c.551 0 1 .449 1 1 0 .551-.449 1-1 1-.55 0-1-.449-1-1 0-.551.45-1 1-1m4.296 10.431c-1.595-1.316-2.992-2.477-3.293-4.555C10.926 5.508 12.91 5.271 12.91 3c0-1.654-1.346-3-3-3s-3 1.346-3 3c0 2.297 2 2.487 2 4.897h.005c.326 2.998 2.268 4.633 4.018 6.077 1.832 1.511 3.414 2.816 3.414 5.548 0 3.584-2.916 6.5-6.5 6.5-3.055 0-5.617-2.12-6.309-4.965H5.07l-2.535-3.535-2.534 3.535h1.494c.725 3.956 4.191 6.965 8.353 6.965 4.686 0 8.5-3.814 8.5-8.5 0-3.675-2.2-5.49-4.141-7.091"/>
</svg>
