<svg xmlns="http://www.w3.org/2000/svg" xmlns:xlink="http://www.w3.org/1999/xlink" width="824" height="341" viewBox="0 0 824 341">
    <defs>
        <path id="a" d="M.848.992h31.428v22.499H.848z"/>
    </defs>
    <g fill="none" fill-rule="evenodd">
        <path fill="#5028CE" d="M-10.684 178.34c.142 1.023 1.033 2.008 2.675 2.956 1.62.935 3.315 1.443 5.086 1.525a8.857 8.857 0 0 0 4.93-1.191c1.496-.863 2.172-1.805 2.03-2.828-.14-1.022-1.021-2.001-2.641-2.936-1.642-.948-3.348-1.463-5.12-1.545-1.77-.081-3.402.309-4.897 1.172-1.516.876-2.204 1.825-2.063 2.847m2.929-9.523c2.925-.48 5.87-.498 8.835-.055 2.965.445 5.617 1.342 7.957 2.693 2.34 1.35 3.893 2.882 4.663 4.593.769 1.713.737 3.419-.096 5.12-.832 1.703-2.37 3.2-4.61 4.494-2.265 1.307-4.87 2.202-7.818 2.682a28.802 28.802 0 0 1-8.885.065c-2.977-.437-5.634-1.332-7.974-2.683-2.34-1.35-3.888-2.885-4.647-4.603-.757-1.718-.714-3.425.13-5.121.844-1.695 2.398-3.196 4.662-4.503 2.263-1.307 4.858-2.201 7.783-2.682M17.772 164.657l2.988-1.725c.725-.418 1.105-.826 1.14-1.224.037-.397-.293-.797-.991-1.2a3.937 3.937 0 0 0-2.045-.533c-.733.008-1.451.214-2.153.62l-2.988 1.724 4.049 2.338zm18.115 5.205l-13.121-2.322 8.57 4.95-7.537 4.351-23.89-13.793 11.205-6.47c1.947-1.124 3.954-1.886 6.02-2.287 2.068-.4 4.036-.46 5.909-.177 1.87.283 3.549.853 5.034 1.711 1.597.922 2.567 1.998 2.91 3.23.343 1.23-.053 2.484-1.188 3.763l14.373 2.26-8.285 4.784zM60.712 151.671c.39 1.048.226 2.15-.49 3.305-.718 1.154-2.017 2.274-3.896 3.358-2.875 1.66-5.915 2.642-9.12 2.947-3.207.306-6.182-.242-8.928-1.644l8.013-4.627c1.485.728 2.783.77 3.893.13.384-.222.594-.46.63-.714.035-.255-.138-.491-.52-.712-.563-.325-1.296-.416-2.2-.27-.903.145-2.214.467-3.932.965-2.012.59-3.779 1.026-5.304 1.308-1.525.283-3.167.347-4.926.194-1.76-.152-3.449-.697-5.069-1.632-1.552-.895-2.472-1.89-2.759-2.984-.288-1.095-.016-2.206.813-3.334.83-1.129 2.116-2.196 3.86-3.202 2.874-1.66 5.825-2.596 8.85-2.81 3.024-.214 5.864.353 8.52 1.703l-8.116 4.685c-1.373-.66-2.523-.724-3.45-.188-.318.183-.482.389-.495.616-.013.228.173.452.555.673.517.3 1.228.377 2.131.23.904-.144 2.18-.445 3.83-.904 2.08-.577 3.886-1.005 5.422-1.281 1.537-.276 3.196-.337 4.978-.185 1.781.154 3.471.69 5.068 1.613 1.372.793 2.253 1.712 2.642 2.76M66.121 124.82l23.892 13.793-7.538 4.352-9.315-5.377-7.164 4.137 9.313 5.377-7.539 4.352-23.889-13.793 7.538-4.352 8.605 4.967 7.163-4.136-8.604-4.968zM77.055 118.507l23.891 13.793-7.538 4.352-23.89-13.793zM100.67 114.341c-1.462-.844-2.975-.815-4.536.086l-2.14 1.235 4.387 2.533 2.14-1.235c1.561-.902 1.612-1.775.15-2.619zm3.616 7.263l7.593 4.384-7.539 4.352-23.89-13.793 10.527-6.078c2.942-1.698 5.942-2.573 9.001-2.625 3.057-.05 5.835.644 8.332 2.086 1.507.87 2.523 1.862 3.048 2.975.524 1.113.46 2.273-.189 3.48-.649 1.206-1.948 2.37-3.895 3.494l-2.988 1.725z"/>
        <path fill="#7A54EF" d="M39.212 201.501c-11.404 6.584-26.623 10.227-42.854 10.256h-.197c-16.149 0-31.246-3.582-42.525-10.094-9.164-5.29-14.76-11.925-16.096-18.956l118.001-.213c-1.43 7.032-7.1 13.678-16.329 19.007m-85.296-44.624c11.404-6.584 26.624-10.227 42.854-10.256h.197c16.15 0 31.247 3.582 42.525 10.094 8.651 4.994 14.121 11.184 15.833 17.775l-117.46.212c1.798-6.593 7.341-12.796 16.051-17.825m104.665 6.093c-3.498-4.99-8.574-9.427-15.086-13.187-12.527-7.233-29.123-11.199-46.74-11.167-17.607.032-34.243 4.055-46.84 11.33-6.599 3.808-11.742 8.296-15.29 13.34-3.587 5.095-5.405 10.523-5.405 16.133 0 5.568 1.793 10.948 5.327 15.99 3.5 4.99 8.575 9.426 15.087 13.186 12.477 7.204 28.993 11.167 46.53 11.167h.21c17.608-.032 34.242-4.055 46.84-11.329 6.598-3.809 11.742-8.297 15.291-13.34 3.585-5.095 5.403-10.524 5.403-16.134 0-5.568-1.792-10.948-5.327-15.989"/>
        <path fill="#5028CE" d="M107.574 225.82c.865 1.396 1.104 2.8.717 4.213-.388 1.413-1.356 2.763-2.906 4.05l-7.946-4.588c.425-.663.523-1.315.294-1.954-.23-.638-.773-1.206-1.634-1.703-1.268-.732-2.742-1.037-4.421-.916-1.681.12-3.321.642-4.917 1.564-1.598.922-2.5 1.868-2.71 2.839-.21.97.32 1.82 1.588 2.553.86.496 1.843.81 2.95.943 1.106.132 2.234.076 3.383-.17l7.947 4.588a24.762 24.762 0 0 1-7.015 1.677c-2.447.224-4.88.086-7.297-.413a22.541 22.541 0 0 1-6.75-2.553c-2.423-1.4-4.016-2.91-4.78-4.533-.766-1.623-.706-3.245.177-4.866.882-1.62 2.505-3.112 4.867-4.476 2.36-1.364 4.945-2.3 7.753-2.81a25.104 25.104 0 0 1 8.428-.102 22.553 22.553 0 0 1 7.85 2.76c2.083 1.202 3.557 2.5 4.422 3.897M118.878 238.132l-2.97 1.714 7.471 4.313-5.636 3.254-7.469-4.313-3.375 1.948 8.49 4.901-5.974 3.448-16.027-9.253 23.89-13.793 16.028 9.253-5.939 3.43zM135.324 268.356l-7.538-4.352 4.033-11.543-12.013 6.936-7.538-4.352 23.89-13.793 7.539 4.352-4.236 11.659 12.216-7.052 7.538 4.352zM159.563 278.493c-1.815.225-3.722.13-5.722-.284-2-.414-3.938-1.163-5.817-2.248-2.875-1.66-4.577-3.415-5.106-5.266-.53-1.85.42-3.57 2.849-5.155l8.014 4.627c-1.26.858-1.334 1.607-.225 2.247.385.222.797.344 1.237.364.44.02.852-.08 1.235-.3.56-.325.718-.749.467-1.27-.252-.522-.81-1.278-1.671-2.27-1.023-1.162-1.78-2.182-2.268-3.063-.49-.88-.602-1.828-.337-2.844.265-1.016 1.207-1.99 2.827-2.926 1.552-.896 3.276-1.427 5.17-1.593 1.895-.166 3.82-.01 5.775.47a21.13 21.13 0 0 1 5.546 2.227c2.875 1.66 4.498 3.364 4.868 5.11.37 1.747-.613 3.386-2.952 4.92l-8.116-4.686c1.147-.793 1.256-1.457.329-1.993a2.18 2.18 0 0 0-1.068-.285c-.395-.007-.784.1-1.167.32-.517.3-.65.71-.4 1.231.252.521.775 1.26 1.57 2.211.999 1.2 1.738 2.244 2.217 3.131.478.887.585 1.844.32 2.873-.265 1.03-1.196 2.004-2.793 2.927-1.373.792-2.967 1.301-4.782 1.525M184.102 278.107c-1.771.082-3.48.596-5.12 1.545-1.62.935-2.5 1.914-2.641 2.936-.141 1.023.546 1.971 2.063 2.848 1.494.863 3.127 1.252 4.898 1.171 1.77-.082 3.466-.59 5.086-1.525 1.642-.947 2.533-1.933 2.675-2.956.14-1.022-.535-1.964-2.03-2.827a8.865 8.865 0 0 0-4.931-1.192m16.493 1.691c.833 1.69.864 3.39.096 5.101-.77 1.712-2.323 3.244-4.663 4.595-2.34 1.35-4.992 2.247-7.957 2.692a28.51 28.51 0 0 1-8.868-.055c-2.95-.481-5.542-1.368-7.784-2.663-2.263-1.306-3.812-2.81-4.645-4.512-.833-1.702-.87-3.413-.112-5.13.757-1.72 2.306-3.254 4.646-4.605 2.34-1.35 4.997-2.245 7.974-2.683a28.542 28.542 0 0 1 8.869.076c2.935.487 5.536 1.383 7.8 2.692 2.263 1.305 3.81 2.804 4.644 4.493M207.8 294.537l2.988 1.725c.725.418 1.431.638 2.12.659.687.02 1.38-.17 2.08-.573.627-.364.936-.757.922-1.181-.013-.423-.37-.838-1.072-1.243l-2.988-1.725-4.05 2.338zm-9.015 10.459l4.022-7.576-8.57 4.949-7.54-4.353 23.891-13.793 11.205 6.47c1.946 1.124 3.267 2.282 3.962 3.476.694 1.193.797 2.33.307 3.41-.49 1.081-1.479 2.05-2.963 2.907-1.598.922-3.462 1.482-5.593 1.68-2.133.198-4.306-.03-6.52-.686l-3.915 8.299-8.286-4.783zM230.292 319.329c-1.815.225-3.723.13-5.722-.284-2-.414-3.939-1.164-5.817-2.248-2.875-1.66-4.577-3.415-5.107-5.266-.529-1.851.42-3.57 2.85-5.155l8.014 4.627c-1.26.858-1.335 1.607-.225 2.247.384.222.797.344 1.237.364.44.02.851-.08 1.234-.301.562-.324.718-.748.467-1.27-.25-.521-.808-1.277-1.67-2.27-1.024-1.161-1.78-2.182-2.269-3.062-.49-.88-.6-1.828-.337-2.844.266-1.016 1.208-1.991 2.827-2.926 1.553-.896 3.276-1.427 5.171-1.593 1.894-.166 3.82-.01 5.774.469a21.137 21.137 0 0 1 5.547 2.228c2.874 1.66 4.497 3.364 4.868 5.11.37 1.747-.614 3.386-2.952 4.919l-8.116-4.685c1.146-.793 1.256-1.457.328-1.993a2.177 2.177 0 0 0-1.068-.285c-.395-.007-.784.1-1.166.32-.517.299-.65.709-.399 1.23.25.522.773 1.26 1.568 2.212 1 1.2 1.738 2.244 2.218 3.13.477.887.585 1.845.32 2.874-.266 1.029-1.197 2.004-2.794 2.926-1.372.793-2.967 1.3-4.78 1.526M276.801 322.452l-23.89 13.793-7.539-4.352 9.314-5.377-7.165-4.137-9.314 5.377-7.538-4.352 23.891-13.793 7.538 4.351-8.605 4.969 7.165 4.137 8.605-4.968zM287.735 328.764l-23.891 13.793-7.538-4.352 23.89-13.793zM294.95 342.398c1.463-.844 1.413-1.717-.15-2.619l-2.138-1.235-4.387 2.533 2.139 1.235c1.562.901 3.074.93 4.537.086zm-12.58 2.088l-7.592 4.383-7.54-4.352 23.892-13.793 10.526 6.077c2.942 1.7 4.458 3.431 4.547 5.197.089 1.766-1.115 3.37-3.612 4.811-1.508.87-3.226 1.456-5.153 1.76-1.928.302-3.936.266-6.026-.109s-4.107-1.125-6.054-2.249l-2.988-1.725z"/>
        <path fill="#7A54EF" d="M225.558 304.767c-10.154 5.862-23.401 9.349-37.727 9.986l-.351-64.898c14.315.696 27.586 4.23 37.798 10.126 10.763 6.215 16.691 14.22 16.691 22.542 0 8.234-5.828 16.134-16.411 22.244M123.29 282.063c0-8.234 5.829-16.134 16.412-22.244 10.635-6.141 24.665-9.674 39.772-10.057l.354 65.052c-15.096-.446-29.149-4.033-39.846-10.21-10.764-6.213-16.692-14.22-16.692-22.541m121.28-15.674c-3.548-5.043-8.693-9.531-15.29-13.34-12.598-7.273-29.233-11.297-46.841-11.328l-.211-.001c-17.533 0-34.052 3.964-46.528 11.167-6.513 3.76-11.588 8.197-15.087 13.187-3.534 5.042-5.327 10.42-5.327 15.989 0 5.61 1.818 11.039 5.404 16.134 3.548 5.043 8.692 9.53 15.29 13.34 12.598 7.274 29.233 11.297 46.841 11.329h.211c17.534-.001 34.051-3.963 46.529-11.167 6.512-3.76 11.588-8.196 15.086-13.187 3.535-5.041 5.327-10.421 5.327-15.99 0-5.61-1.818-11.037-5.404-16.133"/>
        <path fill="#5028CE" d="M74.582 340.577l23.89 13.793-7.538 4.351-9.313-5.376-7.165 4.136 9.314 5.378-7.539 4.352-23.89-13.793 7.538-4.352 8.604 4.967 7.165-4.137-8.604-4.968zM85.515 334.264l23.891 13.793-7.538 4.352-23.891-13.793zM109.13 330.098c-1.462-.844-2.974-.815-4.536.086l-2.139 1.235 4.387 2.533 2.14-1.235c1.56-.902 1.611-1.775.148-2.619zm3.616 7.263l7.593 4.384-7.538 4.352-23.89-13.793 10.526-6.078c2.942-1.698 5.942-2.573 9.001-2.625 3.057-.05 5.836.644 8.333 2.086 1.506.87 2.522 1.862 3.047 2.975.524 1.113.461 2.273-.189 3.48-.649 1.206-1.947 2.37-3.895 3.494l-2.988 1.725zM428.254 329.787l23.891 13.793-7.538 4.352-9.314-5.377-7.165 4.137 9.314 5.377-7.539 4.352-23.89-13.793 7.538-4.352 8.604 4.968 7.165-4.137-8.604-4.968zM439.188 323.474l23.89 13.793-7.538 4.352-23.891-13.793zM462.802 319.308c-1.462-.844-2.974-.815-4.536.086l-2.139 1.235 4.387 2.533 2.14-1.235c1.561-.902 1.611-1.775.148-2.619zm3.617 7.263l7.592 4.384-7.538 4.352-23.89-13.793 10.526-6.077c2.942-1.699 5.943-2.574 9.001-2.626 3.058-.05 5.836.644 8.333 2.086 1.506.87 2.522 1.862 3.047 2.975.524 1.113.461 2.273-.188 3.48-.65 1.206-1.948 2.37-3.896 3.494l-2.987 1.725zM93.093 7.308c.865 1.396 1.104 2.8.717 4.213-.388 1.413-1.356 2.763-2.906 4.05l-7.946-4.588c.425-.663.523-1.315.294-1.954-.229-.638-.773-1.206-1.634-1.703-1.268-.732-2.742-1.037-4.42-.916-1.682.12-3.322.642-4.918 1.564-1.598.922-2.5 1.868-2.71 2.838-.209.97.32 1.822 1.588 2.554.86.496 1.843.81 2.95.943 1.106.132 2.234.076 3.383-.17l7.947 4.588a24.762 24.762 0 0 1-7.015 1.677c-2.448.224-4.88.086-7.297-.413a22.541 22.541 0 0 1-6.75-2.553c-2.423-1.4-4.016-2.91-4.78-4.533-.766-1.623-.706-3.245.177-4.866.882-1.62 2.505-3.112 4.866-4.476 2.362-1.364 4.946-2.3 7.754-2.81A25.104 25.104 0 0 1 80.821.65a22.553 22.553 0 0 1 7.851 2.76c2.082 1.202 3.556 2.5 4.421 3.897M104.398 19.62l-2.97 1.714 7.47 4.313-5.635 3.254-7.47-4.313-3.374 1.948 8.489 4.901-5.973 3.448-16.027-9.253 23.89-13.793 16.028 9.253-5.94 3.43zM120.843 49.844l-7.538-4.352 4.033-11.543-12.013 6.936-7.538-4.352 23.89-13.793 7.54 4.352-4.237 11.659 12.216-7.052 7.538 4.352zM145.082 59.981c-1.815.225-3.723.13-5.722-.284-1.999-.414-3.938-1.163-5.817-2.248-2.875-1.66-4.577-3.415-5.106-5.266-.529-1.85.42-3.57 2.85-5.155l8.013 4.627c-1.26.858-1.334 1.607-.225 2.247.385.222.797.344 1.237.364.441.02.852-.08 1.235-.3.561-.325.718-.749.467-1.27-.252-.522-.809-1.278-1.67-2.27-1.024-1.162-1.78-2.182-2.269-3.063-.49-.88-.602-1.828-.337-2.844.265-1.016 1.207-1.99 2.827-2.926 1.552-.896 3.276-1.427 5.17-1.593 1.895-.166 3.82-.01 5.775.47a21.13 21.13 0 0 1 5.546 2.227c2.875 1.66 4.498 3.364 4.868 5.11.37 1.747-.613 3.386-2.952 4.92l-8.116-4.686c1.147-.793 1.256-1.457.33-1.993a2.18 2.18 0 0 0-1.07-.285c-.394-.007-.783.1-1.166.32-.517.3-.65.71-.399 1.231.251.521.774 1.26 1.57 2.211.998 1.2 1.737 2.244 2.216 3.131.478.886.585 1.844.32 2.873-.265 1.03-1.196 2.004-2.793 2.927-1.373.792-2.967 1.3-4.782 1.525M169.621 59.596c-1.77.082-3.478.596-5.12 1.544-1.618.935-2.5 1.913-2.641 2.937-.14 1.022.547 1.97 2.063 2.846 1.495.863 3.128 1.253 4.899 1.173 1.77-.082 3.466-.59 5.085-1.526 1.642-.947 2.534-1.933 2.675-2.955.141-1.024-.534-1.966-2.029-2.829a8.865 8.865 0 0 0-4.932-1.19m16.494 1.69c.832 1.69.864 3.39.096 5.101-.77 1.712-2.323 3.243-4.663 4.594-2.34 1.351-4.992 2.248-7.957 2.692a28.51 28.51 0 0 1-8.869-.055c-2.948-.48-5.541-1.368-7.784-2.661-2.262-1.308-3.812-2.811-4.644-4.514-.833-1.702-.871-3.412-.112-5.13.756-1.719 2.305-3.253 4.645-4.604 2.34-1.35 4.997-2.245 7.975-2.683a28.542 28.542 0 0 1 8.868.075c2.936.488 5.537 1.385 7.8 2.692 2.264 1.306 3.812 2.805 4.645 4.493M193.32 76.025l2.988 1.725c.725.418 1.43.638 2.119.659.688.02 1.38-.17 2.08-.573.628-.364.937-.757.923-1.181-.013-.423-.371-.838-1.072-1.243l-2.988-1.725-4.05 2.338zm-9.015 10.459l4.02-7.576-8.57 4.949-7.538-4.352 23.89-13.794 11.206 6.47c1.946 1.124 3.267 2.282 3.962 3.476.694 1.193.797 2.33.307 3.41-.491 1.08-1.48 2.05-2.963 2.907-1.598.922-3.462 1.482-5.593 1.68-2.133.198-4.306-.03-6.52-.686l-3.915 8.299-8.286-4.783zM215.812 100.817c-1.815.225-3.723.13-5.722-.284-2-.414-3.94-1.163-5.817-2.248-2.875-1.66-4.577-3.415-5.107-5.266-.53-1.851.42-3.57 2.85-5.155l8.014 4.627c-1.26.858-1.335 1.607-.226 2.247.385.222.798.343 1.238.364.44.02.85-.08 1.234-.301.562-.324.718-.747.467-1.27-.251-.521-.808-1.277-1.671-2.27-1.023-1.16-1.78-2.181-2.268-3.062-.49-.88-.601-1.828-.337-2.844.266-1.016 1.208-1.991 2.827-2.926 1.553-.896 3.276-1.427 5.17-1.593 1.895-.166 3.82-.01 5.775.469a21.15 21.15 0 0 1 5.547 2.228c2.874 1.66 4.497 3.364 4.868 5.11.37 1.747-.614 3.386-2.952 4.919l-8.116-4.685c1.146-.793 1.256-1.457.328-1.993a2.18 2.18 0 0 0-1.068-.285c-.395-.007-.784.1-1.166.32-.517.299-.651.709-.4 1.23.25.522.774 1.26 1.569 2.212 1 1.2 1.738 2.244 2.218 3.13.477.887.585 1.845.32 2.874-.266 1.029-1.197 2.004-2.794 2.926-1.372.793-2.967 1.3-4.781 1.526M262.32 103.94l-23.89 13.793-7.538-4.352 9.314-5.377-7.165-4.137-9.314 5.378-7.538-4.353 23.89-13.793 7.539 4.352-8.605 4.968 7.165 4.137 8.605-4.968zM273.253 110.252l-23.89 13.793-7.538-4.352 23.891-13.793zM280.47 123.886c1.462-.844 1.412-1.717-.15-2.619l-2.139-1.235-4.387 2.533 2.14 1.235c1.561.901 3.073.93 4.536.086zm-12.58 2.088l-7.593 4.383-7.539-4.352 23.891-13.793 10.526 6.077c2.942 1.699 4.458 3.431 4.547 5.197.09 1.766-1.115 3.369-3.612 4.811-1.508.87-3.226 1.456-5.153 1.759-1.928.303-3.936.267-6.026-.108s-4.107-1.125-6.054-2.249l-2.988-1.725z"/>
        <path fill="#7A54EF" d="M211.078 86.255c-10.154 5.862-23.401 9.349-37.727 9.986L173 31.343c14.314.696 27.585 4.23 37.797 10.126 10.764 6.215 16.691 14.22 16.691 22.542 0 8.234-5.828 16.134-16.41 22.244M108.809 63.55c0-8.234 5.83-16.134 16.412-22.244 10.635-6.14 24.665-9.674 39.773-10.057l.352 65.052c-15.095-.446-29.148-4.033-39.845-10.21-10.764-6.213-16.692-14.22-16.692-22.541m121.28-15.674c-3.547-5.043-8.692-9.531-15.29-13.34-12.598-7.273-29.232-11.297-46.84-11.328l-.212-.001c-17.532 0-34.051 3.964-46.527 11.167-6.513 3.76-11.589 8.197-15.087 13.187-3.536 5.042-5.327 10.42-5.327 15.989 0 5.61 1.818 11.039 5.404 16.134 3.548 5.043 8.692 9.53 15.29 13.34 12.597 7.274 29.231 11.297 46.84 11.329h.212c17.533-.001 34.05-3.963 46.528-11.167 6.512-3.76 11.588-8.196 15.087-13.187 3.534-5.041 5.327-10.421 5.327-15.99 0-5.61-1.818-11.037-5.404-16.133M34.805-9.471C23.401-2.887 8.182.756-8.048.785h-.198c-16.149 0-31.246-3.582-42.525-10.094-9.164-5.291-14.76-11.925-16.096-18.956l118.002-.213c-1.43 7.032-7.1 13.678-16.33 19.007M-50.49-54.095c11.404-6.584 26.623-10.227 42.853-10.256h.198c16.15 0 31.246 3.582 42.525 10.094 8.65 4.994 14.121 11.184 15.832 17.775l-117.459.212c1.798-6.594 7.34-12.796 16.051-17.825m104.665 6.093c-3.499-4.991-8.575-9.427-15.087-13.187C26.561-68.422 9.965-72.388-7.65-72.356c-17.608.032-34.244 4.055-46.842 11.329-6.597 3.809-11.74 8.297-15.29 13.34-3.586 5.096-5.403 10.524-5.403 16.134 0 5.568 1.792 10.948 5.326 15.989 3.5 4.991 8.575 9.427 15.087 13.187C-42.296 4.827-25.779 8.79-8.243 8.79l.21-.001C9.574 8.758 26.21 4.735 38.807-2.539c6.597-3.809 11.741-8.297 15.29-13.34 3.586-5.096 5.403-10.524 5.403-16.134 0-5.568-1.792-10.948-5.326-15.989"/>
        <path fill="#5028CE" d="M248.015.76a24.78 24.78 0 0 1 7.297-.413c2.447.224 4.786.783 7.015 1.678l-7.946 4.587a10.263 10.263 0 0 0-3.384-.17c-1.106.133-2.089.447-2.95.944-1.267.732-1.797 1.583-1.588 2.553.209.97 1.113 1.917 2.71 2.839 1.598.922 3.236 1.443 4.916 1.564 1.681.12 3.155-.185 4.423-.917.86-.496 1.404-1.064 1.634-1.703.228-.638.131-1.29-.294-1.954l7.945-4.587c1.55 1.287 2.519 2.637 2.907 4.05.386 1.413.147 2.817-.717 4.213-.866 1.395-2.339 2.694-4.422 3.897a22.586 22.586 0 0 1-7.851 2.76 25.105 25.105 0 0 1-8.428-.102c-2.807-.51-5.391-1.447-7.753-2.81-2.362-1.364-3.985-2.856-4.867-4.477-.882-1.62-.941-3.242-.176-4.865.764-1.624 2.357-3.135 4.78-4.533A22.508 22.508 0 0 1 248.015.76M269.342-5.766l2.97 1.714 7.47-4.313 5.634 3.254-7.47 4.313 3.375 1.948 8.49-4.9 5.971 3.447-16.027 9.253-23.89-13.793 16.027-9.253 5.938 3.43zM455.226 212.274c.864 1.396 1.104 2.8.717 4.213-.388 1.413-1.357 2.763-2.906 4.05l-7.946-4.588c.425-.662.523-1.315.294-1.954-.229-.638-.774-1.206-1.634-1.702-1.268-.732-2.743-1.038-4.422-.917-1.681.12-3.32.643-4.916 1.565-1.598.921-2.501 1.867-2.71 2.838-.21.97.319 1.822 1.587 2.553.861.496 1.844.812 2.951.943a10.26 10.26 0 0 0 3.383-.17l7.946 4.588a24.789 24.789 0 0 1-7.015 1.678c-2.447.224-4.88.085-7.297-.414a22.535 22.535 0 0 1-6.749-2.553c-2.423-1.399-4.016-2.909-4.781-4.533-.765-1.622-.706-3.245.177-4.866.882-1.62 2.505-3.111 4.867-4.476 2.362-1.364 4.946-2.3 7.753-2.81a25.105 25.105 0 0 1 8.428-.102 22.553 22.553 0 0 1 7.851 2.76c2.082 1.203 3.556 2.502 4.422 3.897M466.53 224.587l-2.97 1.714 7.47 4.313-5.634 3.254-7.47-4.313-3.375 1.948 8.489 4.901-5.972 3.448-16.027-9.253 23.89-13.793 16.027 9.253-5.94 3.43zM482.975 254.81l-7.538-4.351 4.033-11.543-12.013 6.936-7.538-4.352 23.891-13.793 7.538 4.352-4.235 11.659 12.215-7.052 7.538 4.352zM507.215 264.948c-1.815.225-3.723.13-5.722-.284-2-.414-3.939-1.163-5.817-2.248-2.875-1.66-4.577-3.415-5.107-5.266-.529-1.85.42-3.569 2.85-5.155l8.014 4.627c-1.26.858-1.335 1.607-.225 2.247.384.222.797.344 1.237.364.44.02.851-.08 1.234-.3.562-.325.718-.749.467-1.27-.25-.522-.808-1.278-1.67-2.27-1.024-1.162-1.78-2.182-2.269-3.063-.49-.88-.6-1.828-.337-2.844.266-1.016 1.208-1.99 2.828-2.926 1.552-.896 3.275-1.427 5.17-1.593 1.895-.166 3.82-.01 5.774.47a21.091 21.091 0 0 1 5.547 2.228c2.874 1.66 4.497 3.363 4.868 5.11.37 1.746-.614 3.385-2.952 4.918l-8.116-4.685c1.146-.793 1.256-1.457.328-1.993a2.177 2.177 0 0 0-1.068-.285c-.395-.007-.784.1-1.166.32-.517.3-.65.71-.399 1.231.251.521.773 1.26 1.568 2.211 1 1.2 1.738 2.244 2.218 3.131.478.887.585 1.844.32 2.873-.265 1.03-1.196 2.004-2.794 2.927-1.372.792-2.967 1.301-4.78 1.525M531.753 264.563c-1.77.082-3.478.596-5.119 1.543-1.62.936-2.5 1.914-2.642 2.938-.14 1.023.547 1.97 2.064 2.846 1.494.864 3.126 1.254 4.897 1.173 1.771-.082 3.466-.59 5.086-1.525 1.642-.948 2.533-1.933 2.675-2.957.142-1.023-.535-1.965-2.029-2.827a8.863 8.863 0 0 0-4.932-1.192m16.494 1.692c.833 1.688.864 3.389.096 5.1-.77 1.713-2.324 3.243-4.663 4.594-2.34 1.351-4.992 2.249-7.957 2.692a28.517 28.517 0 0 1-8.869-.054c-2.949-.481-5.542-1.369-7.784-2.663-2.263-1.307-3.812-2.81-4.644-4.513-.833-1.702-.87-3.411-.112-5.13.757-1.718 2.306-3.252 4.646-4.603s4.996-2.245 7.974-2.683a28.543 28.543 0 0 1 8.87.074c2.934.488 5.535 1.385 7.8 2.692 2.261 1.307 3.81 2.804 4.643 4.494M555.453 280.992l2.987 1.725c.725.418 1.43.638 2.12.659.688.02 1.38-.17 2.079-.573.628-.364.937-.757.923-1.181-.013-.423-.372-.838-1.073-1.243l-2.987-1.725-4.05 2.338zm-9.016 10.459l4.021-7.576-8.57 4.949-7.54-4.353 23.891-13.793 11.206 6.47c1.946 1.124 3.268 2.282 3.962 3.476.693 1.193.797 2.33.307 3.41-.49 1.08-1.479 2.05-2.963 2.907-1.599.922-3.462 1.483-5.593 1.68-2.133.198-4.306-.03-6.52-.686l-3.914 8.299-8.288-4.783zM577.944 305.784c-1.815.225-3.723.13-5.722-.284-2-.414-3.938-1.164-5.817-2.248-2.875-1.66-4.577-3.415-5.106-5.266-.53-1.851.42-3.57 2.849-5.155l8.014 4.627c-1.26.858-1.334 1.607-.225 2.247.385.222.797.344 1.237.364.44.02.852-.08 1.235-.301.56-.324.718-.748.467-1.27-.252-.521-.81-1.277-1.671-2.27-1.023-1.161-1.78-2.181-2.268-3.062-.49-.88-.602-1.828-.337-2.844.265-1.016 1.207-1.991 2.827-2.926 1.552-.896 3.276-1.427 5.17-1.593 1.895-.166 3.82-.01 5.775.469a21.13 21.13 0 0 1 5.546 2.228c2.875 1.66 4.498 3.364 4.868 5.11.37 1.747-.613 3.386-2.952 4.919l-8.116-4.685c1.147-.793 1.256-1.457.329-1.993a2.183 2.183 0 0 0-1.07-.285c-.393-.007-.782.1-1.165.32-.517.299-.65.709-.4 1.23.252.522.775 1.26 1.57 2.212.999 1.2 1.738 2.244 2.217 3.13.478.887.585 1.845.32 2.874-.265 1.029-1.196 2.004-2.793 2.926-1.373.793-2.967 1.3-4.782 1.526M624.453 308.907l-23.89 13.792-7.538-4.352 9.313-5.376-7.164-4.138-9.314 5.378-7.538-4.352 23.89-13.793 7.539 4.352-8.605 4.967 7.164 4.138 8.605-4.969zM635.386 315.219l-23.89 13.793-7.539-4.352 23.891-13.793zM642.602 328.853c1.462-.844 1.412-1.717-.15-2.619l-2.14-1.235-4.386 2.533 2.14 1.235c1.56.901 3.073.93 4.536.086zm-12.58 2.088l-7.593 4.383-7.538-4.352 23.89-13.793 10.527 6.077c2.942 1.699 4.458 3.431 4.547 5.197.088 1.766-1.116 3.369-3.613 4.811-1.507.87-3.225 1.456-5.153 1.759-1.927.303-3.936.267-6.025-.108-2.09-.375-4.108-1.125-6.055-2.249l-2.987-1.725z"/>
        <path fill="#7A54EF" d="M573.21 291.221c-10.154 5.862-23.4 9.35-37.727 9.986l-.352-64.898c14.316.696 27.587 4.231 37.798 10.127 10.764 6.214 16.692 14.22 16.692 22.541 0 8.235-5.828 16.135-16.41 22.245m-102.269-22.704c0-8.234 5.83-16.134 16.412-22.244 10.635-6.14 24.665-9.674 39.772-10.058l.353 65.053c-15.095-.447-29.149-4.034-39.845-10.21-10.764-6.214-16.692-14.22-16.692-22.541m121.28-15.675c-3.549-5.042-8.693-9.53-15.29-13.34-12.598-7.272-29.234-11.296-46.842-11.327-.07-.002-.139-.002-.21-.002-17.534 0-34.053 3.965-46.529 11.167-6.512 3.76-11.588 8.197-15.087 13.188-3.534 5.042-5.326 10.42-5.326 15.989 0 5.61 1.818 11.039 5.403 16.134 3.55 5.042 8.693 9.53 15.29 13.34 12.6 7.273 29.233 11.296 46.842 11.329h.21c17.534 0 34.052-3.964 46.53-11.168 6.511-3.76 11.587-8.196 15.086-13.187 3.534-5.04 5.326-10.42 5.326-15.989 0-5.61-1.817-11.038-5.403-16.134"/>
        <path fill="#5028CE" d="M456.84 4.057c.863 1.396 1.103 2.8.716 4.213-.388 1.413-1.357 2.763-2.906 4.05l-7.946-4.588c.425-.663.523-1.315.294-1.954-.229-.638-.774-1.206-1.634-1.703-1.268-.732-2.743-1.037-4.422-.916-1.68.12-3.32.642-4.916 1.564-1.598.922-2.5 1.868-2.71 2.84-.21.97.32 1.82 1.587 2.552.861.496 1.844.811 2.951.943a10.26 10.26 0 0 0 3.383-.17l7.946 4.588a24.754 24.754 0 0 1-7.015 1.677c-2.447.224-4.88.086-7.297-.413a22.535 22.535 0 0 1-6.749-2.553c-2.423-1.399-4.016-2.909-4.78-4.533-.766-1.623-.707-3.245.176-4.866.882-1.62 2.505-3.112 4.867-4.476 2.362-1.364 4.946-2.3 7.753-2.81a25.105 25.105 0 0 1 8.428-.102 22.553 22.553 0 0 1 7.851 2.76c2.082 1.202 3.556 2.501 4.422 3.897M468.143 16.37l-2.97 1.714 7.47 4.313-5.634 3.254-7.47-4.313-3.375 1.948 8.489 4.901-5.972 3.448-16.027-9.253 23.89-13.793 16.027 9.253-5.94 3.429zM484.588 46.593l-7.538-4.352 4.033-11.543-12.013 6.936-7.538-4.352 23.891-13.793 7.538 4.352-4.235 11.66 12.215-7.053 7.538 4.352zM508.829 56.73c-1.815.226-3.724.13-5.722-.283-2-.414-3.94-1.164-5.817-2.248-2.875-1.66-4.577-3.415-5.108-5.266-.529-1.851.42-3.57 2.85-5.155l8.014 4.627c-1.26.858-1.335 1.607-.224 2.247.384.222.797.343 1.237.364.44.02.85-.08 1.233-.301.562-.324.719-.748.467-1.27-.25-.521-.808-1.277-1.67-2.27-1.024-1.161-1.78-2.182-2.268-3.062-.49-.88-.602-1.828-.337-2.844.265-1.016 1.207-1.991 2.828-2.926 1.551-.896 3.274-1.427 5.17-1.593 1.895-.166 3.82-.01 5.773.469a21.137 21.137 0 0 1 5.548 2.228c2.874 1.66 4.497 3.364 4.867 5.11.37 1.747-.614 3.386-2.952 4.919l-8.115-4.685c1.145-.793 1.256-1.457.327-1.993a2.177 2.177 0 0 0-1.067-.285c-.396-.007-.784.1-1.167.32-.517.299-.65.709-.399 1.23.252.522.774 1.26 1.569 2.212 1 1.2 1.737 2.244 2.217 3.13.479.887.586 1.845.32 2.874-.264 1.029-1.197 2.004-2.793 2.926-1.373.793-2.968 1.3-4.781 1.526M533.367 56.345c-1.771.082-3.478.596-5.12 1.544-1.62.935-2.5 1.914-2.641 2.937-.141 1.022.547 1.971 2.064 2.847 1.494.863 3.126 1.253 4.897 1.172 1.77-.082 3.466-.59 5.086-1.525 1.642-.948 2.533-1.933 2.675-2.956.142-1.023-.535-1.965-2.03-2.828a8.854 8.854 0 0 0-4.931-1.19m16.494 1.69c.833 1.69.864 3.39.096 5.101-.771 1.712-2.324 3.243-4.663 4.594-2.341 1.351-4.992 2.248-7.957 2.692a28.517 28.517 0 0 1-8.87-.055c-2.948-.48-5.541-1.368-7.783-2.662-2.263-1.307-3.812-2.812-4.644-4.513-.833-1.702-.871-3.412-.112-5.13.757-1.719 2.306-3.253 4.646-4.604 2.339-1.35 4.996-2.245 7.974-2.683a28.512 28.512 0 0 1 8.869.075c2.935.487 5.536 1.384 7.8 2.691 2.262 1.307 3.81 2.805 4.644 4.494M557.066 72.775l2.988 1.725c.724.418 1.43.638 2.118.659.689.02 1.382-.17 2.08-.573.629-.364.938-.757.924-1.181-.014-.423-.372-.838-1.073-1.243l-2.988-1.725-4.05 2.338zm-9.016 10.459l4.022-7.576-8.571 4.949-7.54-4.352 23.892-13.794 11.205 6.47c1.947 1.124 3.268 2.283 3.963 3.476.693 1.193.796 2.33.306 3.41-.49 1.08-1.478 2.05-2.963 2.907-1.598.922-3.462 1.483-5.593 1.68-2.132.198-4.305-.03-6.52-.686l-3.915 8.299-8.286-4.783zM579.557 97.566c-1.815.225-3.723.13-5.722-.284-1.999-.414-3.938-1.163-5.817-2.248-2.875-1.66-4.577-3.415-5.106-5.266-.529-1.85.42-3.569 2.849-5.155l8.014 4.627c-1.26.858-1.334 1.607-.225 2.247.385.222.797.344 1.237.364.441.02.852-.08 1.235-.3.561-.325.718-.748.467-1.27-.252-.522-.809-1.278-1.671-2.27-1.023-1.16-1.779-2.182-2.268-3.063-.49-.88-.602-1.828-.337-2.844.265-1.016 1.207-1.99 2.827-2.926 1.552-.896 3.276-1.427 5.17-1.593 1.895-.166 3.82-.01 5.775.47a21.13 21.13 0 0 1 5.546 2.227c2.875 1.66 4.498 3.364 4.868 5.11.37 1.747-.613 3.386-2.952 4.92l-8.116-4.686c1.147-.793 1.256-1.457.329-1.993a2.183 2.183 0 0 0-1.069-.285c-.394-.007-.783.1-1.166.32-.517.3-.65.71-.399 1.231.251.521.774 1.26 1.569 2.211.999 1.2 1.738 2.244 2.217 3.131.478.886.585 1.844.32 2.873-.265 1.03-1.196 2.004-2.793 2.927-1.373.792-2.967 1.3-4.782 1.525M626.066 100.69l-23.89 13.792-7.538-4.352 9.313-5.377-7.164-4.137-9.314 5.377-7.538-4.352 23.89-13.793 7.539 4.352-8.605 4.968 7.164 4.137 8.605-4.968zM637 107.002l-23.892 13.793-7.538-4.353 23.891-13.793zM644.215 120.636c1.462-.844 1.412-1.717-.149-2.62l-2.14-1.234-4.387 2.533 2.14 1.235c1.561.9 3.073.93 4.536.086zm-12.58 2.088l-7.593 4.383-7.538-4.352 23.891-13.793 10.526 6.077c2.942 1.699 4.458 3.43 4.547 5.197.088 1.766-1.116 3.369-3.613 4.81-1.507.87-3.225 1.457-5.153 1.76-1.927.303-3.936.267-6.025-.108-2.09-.375-4.108-1.125-6.055-2.25l-2.987-1.724z"/>
        <path fill="#7A54EF" d="M574.824 83.004c-10.154 5.863-23.401 9.35-37.727 9.986l-.352-64.898c14.316.696 27.587 4.231 37.798 10.126 10.764 6.215 16.692 14.22 16.692 22.542 0 8.234-5.828 16.134-16.411 22.244M472.556 60.3c0-8.234 5.829-16.134 16.412-22.244 10.635-6.14 24.665-9.674 39.772-10.057l.353 65.052c-15.096-.446-29.15-4.033-39.845-10.209-10.764-6.214-16.692-14.22-16.692-22.542m121.28-15.674c-3.55-5.043-8.693-9.53-15.29-13.34-12.598-7.273-29.234-11.297-46.842-11.328h-.21c-17.534 0-34.053 3.963-46.53 11.166-6.511 3.76-11.587 8.197-15.086 13.187-3.534 5.042-5.326 10.421-5.326 15.99 0 5.61 1.818 11.038 5.403 16.133 3.549 5.043 8.693 9.531 15.29 13.34 12.599 7.274 29.233 11.297 46.842 11.33h.21c17.534 0 34.052-3.964 46.529-11.168 6.512-3.759 11.588-8.196 15.087-13.187 3.534-5.04 5.326-10.42 5.326-15.989 0-5.61-1.817-11.038-5.403-16.134"/>
        <path fill="#5028CE" d="M256.476 216.518a24.777 24.777 0 0 1 7.297-.414c2.447.224 4.785.783 7.015 1.678l-7.947 4.587a10.261 10.261 0 0 0-3.384-.17c-1.106.133-2.089.447-2.95.944-1.267.732-1.797 1.583-1.588 2.553.209.97 1.114 1.917 2.71 2.839 1.598.922 3.236 1.443 4.917 1.564 1.68.12 3.154-.185 4.422-.917.861-.496 1.404-1.064 1.634-1.703.228-.638.131-1.29-.294-1.954l7.945-4.587c1.551 1.287 2.519 2.637 2.907 4.05.386 1.413.148 2.817-.717 4.213-.865 1.395-2.339 2.694-4.422 3.897a22.579 22.579 0 0 1-7.851 2.76 25.1 25.1 0 0 1-8.427-.102c-2.807-.51-5.392-1.447-7.753-2.81-2.363-1.364-3.986-2.856-4.868-4.477-.882-1.62-.941-3.242-.176-4.865.764-1.624 2.357-3.135 4.78-4.533a22.504 22.504 0 0 1 6.75-2.553M277.802 209.991l2.97 1.714 7.47-4.313 5.634 3.254-7.47 4.313 3.375 1.948 8.49-4.901 5.971 3.448-16.027 9.253-23.89-13.793 16.027-9.253 5.94 3.429zM330.15 200.496l-7.537 4.352-19.992-2.328 12.01 6.935-7.536 4.352-23.89-13.793 7.538-4.352 20.194 2.446-12.215-7.053 7.538-4.352zM347.71 186.501c.388 1.048.225 2.15-.493 3.304-.717 1.154-2.015 2.274-3.894 3.358-2.875 1.66-5.915 2.643-9.122 2.948-3.205.306-6.18-.242-8.927-1.645l8.014-4.626c1.485.727 2.782.77 3.892.13.384-.223.594-.46.63-.715.035-.254-.138-.492-.52-.713-.562-.324-1.296-.414-2.2-.269-.902.145-2.213.467-3.932.965-2.01.59-3.779 1.026-5.303 1.31-1.526.282-3.167.346-4.927.193-1.759-.153-3.448-.697-5.069-1.632-1.55-.896-2.47-1.89-2.759-2.985-.287-1.094-.016-2.205.813-3.334.83-1.128 2.116-2.195 3.86-3.202 2.874-1.66 5.825-2.597 8.85-2.81 3.025-.214 5.864.354 8.521 1.704l-8.116 4.685c-1.373-.66-2.523-.725-3.452-.189-.317.183-.48.39-.494.617-.012.228.173.452.555.673.518.3 1.228.376 2.132.23.903-.144 2.18-.446 3.83-.905 2.08-.577 3.886-1.004 5.422-1.28 1.536-.277 3.195-.338 4.977-.185 1.782.153 3.472.69 5.068 1.612 1.373.793 2.253 1.713 2.643 2.761M347.041 172.334c.142 1.023 1.033 2.008 2.675 2.956 1.62.935 3.315 1.443 5.086 1.525a8.857 8.857 0 0 0 4.931-1.19c1.495-.864 2.171-1.806 2.03-2.829-.14-1.022-1.022-2-2.642-2.936-1.642-.948-3.348-1.463-5.119-1.545-1.772-.08-3.403.31-4.898 1.172-1.517.876-2.205 1.825-2.063 2.847m2.93-9.523a28.356 28.356 0 0 1 8.834-.055c2.965.445 5.617 1.342 7.957 2.693s3.893 2.882 4.663 4.594c.768 1.712.737 3.418-.096 5.12s-2.37 3.2-4.61 4.493c-2.265 1.307-4.87 2.202-7.818 2.682a28.802 28.802 0 0 1-8.885.065c-2.977-.437-5.634-1.332-7.974-2.682-2.34-1.35-3.889-2.885-4.647-4.604-.757-1.718-.714-3.425.13-5.12.844-1.696 2.398-3.197 4.662-4.504 2.263-1.307 4.857-2.2 7.783-2.682M375.497 158.652l2.988-1.725c.725-.418 1.105-.826 1.141-1.224.036-.397-.295-.797-.992-1.2a3.95 3.95 0 0 0-2.045-.534c-.734.009-1.45.215-2.153.62l-2.988 1.725 4.05 2.338zm18.115 5.205l-13.12-2.322 8.57 4.949-7.538 4.352-23.89-13.793 11.205-6.47c1.946-1.124 3.954-1.886 6.02-2.287 2.068-.401 4.036-.46 5.91-.177 1.87.283 3.547.853 5.033 1.71 1.597.923 2.567 1.999 2.91 3.23.343 1.23-.053 2.485-1.189 3.764l14.374 2.26-8.285 4.784zM418.438 145.666c.39 1.048.226 2.149-.491 3.304-.718 1.154-2.016 2.274-3.895 3.358-2.875 1.66-5.915 2.643-9.121 2.948-3.206.306-6.181-.242-8.928-1.645l8.014-4.626c1.485.727 2.782.77 3.893.129.383-.222.594-.46.63-.714.035-.254-.14-.491-.522-.712-.561-.325-1.295-.415-2.198-.27-.903.145-2.214.467-3.932.965-2.012.59-3.78 1.026-5.304 1.309-1.525.283-3.167.347-4.926.194-1.76-.153-3.45-.697-5.07-1.632-1.551-.896-2.471-1.891-2.758-2.985-.288-1.094-.017-2.205.813-3.334.83-1.128 2.116-2.195 3.859-3.202 2.874-1.66 5.826-2.596 8.85-2.81 3.025-.214 5.865.354 8.52 1.704l-8.115 4.685c-1.373-.661-2.523-.725-3.451-.189-.317.183-.481.389-.494.617-.013.228.172.452.555.673.517.299 1.227.376 2.13.23.904-.144 2.18-.446 3.83-.905 2.08-.577 3.887-1.004 5.423-1.281 1.537-.276 3.195-.337 4.977-.184 1.782.153 3.472.69 5.069 1.612 1.372.793 2.253 1.713 2.642 2.761M423.847 118.814l23.891 13.793-7.538 4.352-9.314-5.377-7.164 4.137 9.313 5.377-7.539 4.352-23.89-13.793 7.539-4.352 8.604 4.967 7.164-4.136-8.604-4.968zM434.78 112.502l23.892 13.793-7.54 4.352-23.89-13.793zM458.396 108.336c-1.462-.844-2.975-.815-4.537.086l-2.14 1.235 4.388 2.533 2.139-1.235c1.562-.902 1.612-1.775.15-2.62zm3.616 7.263l7.592 4.384-7.538 4.352-23.891-13.793 10.527-6.078c2.942-1.698 5.943-2.573 9.002-2.625 3.057-.051 5.835.644 8.332 2.086 1.507.87 2.522 1.862 3.047 2.975.524 1.113.46 2.273-.188 3.479-.65 1.207-1.948 2.37-3.895 3.495l-2.988 1.725z"/>
        <path fill="#7A54EF" d="M396.938 195.496c-11.404 6.584-26.623 10.227-42.854 10.256h-.197c-16.15 0-31.247-3.582-42.525-10.094-9.165-5.291-14.761-11.925-16.097-18.956l118.002-.213c-1.43 7.032-7.1 13.678-16.33 19.007m-85.295-44.624c11.404-6.584 26.624-10.227 42.854-10.256h.197c16.15 0 31.247 3.582 42.525 10.094 8.65 4.994 14.12 11.184 15.832 17.775l-117.46.212c1.799-6.593 7.34-12.796 16.052-17.825m104.665 6.093c-3.498-4.991-8.574-9.427-15.087-13.187-12.526-7.233-29.122-11.199-46.74-11.167-17.607.032-34.242 4.055-46.84 11.329-6.598 3.809-11.742 8.297-15.29 13.34-3.586 5.096-5.404 10.524-5.404 16.134 0 5.568 1.792 10.948 5.327 15.989 3.499 4.991 8.574 9.427 15.087 13.187 12.477 7.204 28.993 11.167 46.528 11.167l.21-.001c17.61-.031 34.244-4.054 46.842-11.328 6.598-3.809 11.742-8.297 15.29-13.34 3.586-5.095 5.404-10.524 5.404-16.134 0-5.568-1.792-10.948-5.327-15.989"/>
        <path fill="#5028CE" d="M610.148 205.728a24.779 24.779 0 0 1 7.297-.414c2.447.224 4.785.783 7.015 1.678l-7.946 4.587a10.268 10.268 0 0 0-3.385-.17c-1.106.133-2.09.447-2.95.944-1.267.732-1.797 1.583-1.587 2.553.209.97 1.113 1.917 2.709 2.839 1.598.922 3.237 1.443 4.917 1.564 1.68.12 3.155-.185 4.422-.917.86-.496 1.404-1.064 1.634-1.703.229-.638.132-1.29-.294-1.954l7.945-4.587c1.55 1.287 2.52 2.637 2.907 4.05.386 1.413.148 2.817-.717 4.213-.865 1.395-2.34 2.694-4.421 3.897a22.584 22.584 0 0 1-7.852 2.76 25.1 25.1 0 0 1-8.427-.102c-2.807-.51-5.391-1.447-7.753-2.81-2.363-1.364-3.985-2.856-4.868-4.477-.881-1.62-.941-3.242-.176-4.865.764-1.624 2.358-3.135 4.78-4.533a22.514 22.514 0 0 1 6.75-2.553M631.474 199.201l2.97 1.714 7.469-4.312 5.636 3.253-7.471 4.313 3.375 1.948 8.489-4.9 5.972 3.447-16.027 9.254-23.89-13.794 16.027-9.253 5.939 3.43zM683.823 189.706l-7.538 4.352-19.992-2.328 12.012 6.935-7.538 4.352-23.89-13.793 7.538-4.352 20.194 2.445-12.215-7.052 7.538-4.352zM701.381 175.712c.39 1.048.226 2.149-.492 3.303-.717 1.155-2.015 2.274-3.894 3.358-2.875 1.66-5.915 2.644-9.12 2.949-3.207.305-6.183-.243-8.929-1.646l8.014-4.625c1.485.726 2.782.77 3.892.129.384-.223.594-.46.63-.714.036-.255-.138-.493-.52-.714-.562-.324-1.296-.413-2.199-.269-.903.145-2.214.466-3.932.966-2.012.59-3.78 1.025-5.304 1.308-1.525.284-3.167.347-4.926.195-1.76-.154-3.449-.697-5.07-1.632-1.55-.897-2.47-1.892-2.758-2.986-.288-1.094-.017-2.204.813-3.334.83-1.127 2.115-2.195 3.86-3.202 2.873-1.66 5.824-2.596 8.85-2.81 3.024-.214 5.864.354 8.52 1.704l-8.116 4.685c-1.373-.66-2.523-.725-3.45-.189-.318.184-.482.39-.496.618-.012.227.173.451.556.672.517.3 1.227.376 2.131.23.903-.143 2.18-.446 3.83-.905 2.08-.577 3.886-1.003 5.422-1.28 1.537-.276 3.195-.338 4.977-.184 1.782.152 3.472.69 5.068 1.611 1.373.793 2.254 1.714 2.643 2.762M700.713 161.544c.142 1.023 1.033 2.008 2.675 2.956 1.62.935 3.315 1.443 5.086 1.525a8.857 8.857 0 0 0 4.931-1.19c1.495-.864 2.171-1.806 2.03-2.829-.14-1.022-1.022-2-2.64-2.936-1.644-.948-3.35-1.463-5.12-1.545-1.772-.08-3.404.31-4.899 1.172-1.516.876-2.204 1.825-2.063 2.847m2.93-9.523c2.924-.48 5.87-.498 8.834-.055 2.965.445 5.617 1.342 7.957 2.693s3.893 2.882 4.663 4.594c.77 1.712.737 3.42-.096 5.12-.832 1.702-2.369 3.2-4.61 4.493-2.265 1.307-4.869 2.202-7.818 2.682a28.802 28.802 0 0 1-8.885.065c-2.977-.437-5.634-1.332-7.974-2.682-2.34-1.35-3.888-2.885-4.647-4.604-.757-1.718-.714-3.425.13-5.12.844-1.696 2.398-3.197 4.662-4.504 2.263-1.307 4.858-2.2 7.783-2.682M729.17 147.862l2.987-1.725c.725-.418 1.105-.826 1.141-1.224.036-.397-.294-.797-.992-1.2a3.937 3.937 0 0 0-2.045-.533c-.733.008-1.45.214-2.153.619l-2.988 1.725 4.05 2.338zm18.114 5.205l-13.12-2.322 8.57 4.949-7.538 4.352-23.89-13.793 11.205-6.47c1.947-1.124 3.954-1.886 6.021-2.287 2.067-.401 4.035-.46 5.908-.177 1.871.283 3.55.853 5.034 1.71 1.597.923 2.567 1.999 2.91 3.23.344 1.23-.053 2.485-1.188 3.764l14.373 2.26-8.285 4.784zM772.11 134.876c.39 1.048.226 2.15-.491 3.304s-2.016 2.274-3.895 3.358c-2.875 1.66-5.915 2.643-9.121 2.948-3.206.306-6.181-.242-8.927-1.645l8.013-4.626c1.486.727 2.783.77 3.893.13.384-.223.594-.46.63-.715.035-.254-.138-.492-.521-.713-.562-.324-1.295-.414-2.2-.269-.902.145-2.213.467-3.931.965-2.012.59-3.78 1.026-5.304 1.31-1.525.282-3.167.346-4.926.193-1.76-.153-3.45-.697-5.07-1.632-1.551-.896-2.47-1.89-2.758-2.985-.288-1.094-.016-2.205.813-3.334.83-1.128 2.116-2.195 3.859-3.202 2.875-1.66 5.826-2.597 8.85-2.81 3.025-.214 5.865.354 8.52 1.704l-8.115 4.685c-1.373-.66-2.523-.725-3.451-.189-.317.183-.481.39-.494.617-.013.228.173.452.555.673.517.3 1.228.376 2.13.23.905-.144 2.18-.446 3.83-.905 2.08-.577 3.888-1.004 5.423-1.28 1.537-.277 3.196-.338 4.978-.185 1.78.153 3.472.69 5.068 1.612 1.372.793 2.253 1.713 2.642 2.761M777.519 108.024l23.89 13.793-7.537 4.352-9.314-5.377-7.164 4.137 9.313 5.377-7.54 4.352-23.888-13.793 7.538-4.352 8.604 4.967 7.165-4.136-8.605-4.968zM788.453 101.712l23.89 13.793-7.538 4.352-23.89-13.793z"/>
        <g transform="translate(791 90.054)">
            <mask id="b" fill="#fff">
                <use xlink:href="#a"/>
            </mask>
            <path fill="#5028CE" d="M21.068 7.492c-1.462-.844-2.975-.815-4.536.086l-2.14 1.235 4.387 2.533 2.14-1.235c1.56-.902 1.612-1.775.149-2.62zm3.616 7.263l7.593 4.384-7.54 4.352L.848 9.698 11.376 3.62c2.942-1.698 5.942-2.573 9-2.625 3.058-.051 5.836.644 8.333 2.086 1.507.87 2.523 1.862 3.048 2.975.524 1.113.46 2.273-.19 3.479-.648 1.206-1.947 2.37-3.894 3.495l-2.988 1.725z" mask="url(#b)"/>
        </g>
        <path fill="#7A54EF" d="M750.61 184.706c-11.404 6.584-26.623 10.227-42.854 10.256h-.197c-16.15 0-31.246-3.582-42.525-10.094-9.164-5.29-14.76-11.925-16.096-18.956l118-.213c-1.43 7.032-7.1 13.678-16.328 19.007m-85.295-44.624c11.404-6.584 26.623-10.227 42.853-10.256h.197c16.15 0 31.247 3.582 42.525 10.094 8.65 4.994 14.122 11.184 15.833 17.775l-117.46.212c1.799-6.593 7.34-12.796 16.052-17.825m104.664 6.093c-3.498-4.99-8.574-9.427-15.086-13.187-12.527-7.233-29.123-11.199-46.74-11.167-17.607.032-34.243 4.055-46.841 11.33-6.598 3.808-11.741 8.296-15.29 13.34-3.586 5.095-5.404 10.523-5.404 16.133 0 5.568 1.793 10.948 5.327 15.99 3.499 4.99 8.575 9.426 15.087 13.186 12.477 7.204 28.994 11.167 46.529 11.167h.21c17.609-.032 34.243-4.055 46.84-11.329 6.599-3.809 11.743-8.297 15.292-13.34 3.585-5.096 5.403-10.524 5.403-16.134 0-5.568-1.792-10.948-5.327-15.989"/>
    </g>
</svg>
