<svg xmlns="http://www.w3.org/2000/svg" width="860" height="341" viewBox="0 0 860 341">
    <g fill="none" fill-rule="evenodd">
        <path fill="#111D28" d="M449.012 235.871l-.081-15.093-4.833 2.79-59.31-34.242-16.395 9.466 59.31 34.242-4.833 2.79z" opacity=".1"/>
        <path fill="#B70808" d="M369.64 193.805l59.31 34.242v2.493l-59.31-34.242zM424.117 230.837l26.142.047v2.494l-26.142-.048z"/>
        <path fill="#E81A1A" d="M450.259 230.885l-.082-15.093-4.833 2.79-59.31-34.243-16.394 9.466 59.31 34.242-4.833 2.79z"/>
        <path fill="#111D28" d="M338.994 198.844l.082 15.092 4.833-2.79 59.31 34.243 16.394-9.466-59.31-34.242 4.833-2.79z" opacity=".1"/>
        <path fill="#B70808" d="M401.972 242l-59.31-34.243v-2.493l59.31 34.242zM342.662 207.757l-4.832 2.79v-2.493l4.832-2.79zM418.367 232.534l-16.395 9.465v-2.493l16.395-9.466z"/>
        <path fill="#E81A1A" d="M337.748 192.96l.082 15.094 4.832-2.79 59.31 34.242 16.395-9.466-59.31-34.242 4.832-2.79z"/>
        <path fill="#111D28" d="M208.513 101.159l-.082-15.093-4.833 2.79-59.31-34.243-16.394 9.466 59.31 34.242-4.833 2.79z" opacity=".1"/>
        <path fill="#B70808" d="M129.14 59.092l59.31 34.243v2.493l-59.31-34.243zM183.618 96.125l26.142.047v2.493l-26.142-.047z"/>
        <path fill="#E81A1A" d="M209.76 96.172l-.082-15.093-4.833 2.79-59.31-34.242-16.394 9.465 59.31 34.243-4.833 2.79z"/>
        <path fill="#111D28" d="M98.495 64.13l.082 15.094 4.833-2.79 59.309 34.242 16.395-9.466-59.31-34.242 4.833-2.79z" opacity=".1"/>
        <path fill="#B70808" d="M161.472 107.287l-59.31-34.242V70.55l59.31 34.242z"/>
        <path fill="#B70808" d="M102.163 73.044l-4.833 2.79v-2.493l4.833-2.79zM177.867 97.821l-16.395 9.466v-2.494l16.395-9.465z"/>
        <path fill="#E81A1A" d="M97.248 58.248l.082 15.093 4.833-2.79 59.31 34.242 16.394-9.465-59.31-34.243 4.833-2.79z"/>
        <path fill="#111D28" d="M99.61 236.386l.083-15.093 4.832 2.79 59.31-34.243 16.395 9.466-59.31 34.243 4.832 2.79z" opacity=".1"/>
        <path fill="#B70808" d="M178.983 194.32l-59.31 34.242v2.493l59.31-34.242zM124.506 231.352l-26.142.047v2.493l26.142-.047z"/>
        <path fill="#E81A1A" d="M98.364 231.4l.082-15.093 4.833 2.79 59.31-34.243 16.394 9.466-59.31 34.242 4.833 2.79z"/>
        <path fill="#111D28" d="M209.463 200.78l-.082 15.093-4.832-2.79-59.31 34.243-16.395-9.466 59.31-34.243-4.832-2.79z" opacity=".1"/>
        <path fill="#B70808" d="M146.486 243.936l59.31-34.242V207.2l-59.31 34.243zM205.796 209.694l4.832 2.79v-2.494l-4.832-2.79z"/>
        <path fill="#B70808" d="M130.091 234.47l16.395 9.466v-2.493l-16.395-9.466z"/>
        <path fill="#E81A1A" d="M210.71 194.897l-.082 15.093-4.832-2.79-59.31 34.243-16.395-9.466 59.31-34.242-4.833-2.79z"/>
        <path fill="#111D28" d="M330.193 99.194l.081-15.093 4.833 2.79 59.31-34.243 16.395 9.466-59.31 34.243 4.832 2.79z" opacity=".1"/>
        <path fill="#B70808" d="M409.565 57.127l-59.31 34.243v2.493l59.31-34.242zM355.088 94.16l-26.142.047V96.7l26.142-.047z"/>
        <path fill="#E81A1A" d="M328.946 94.207l.082-15.092 4.833 2.79 59.31-34.243 16.394 9.466-59.31 34.242 4.833 2.79z"/>
        <path fill="#111D28" d="M440.045 63.588l-.082 15.093-4.832-2.79-59.31 34.243-16.395-9.466 59.31-34.243-4.833-2.79z" opacity=".1"/>
        <path fill="#B70808" d="M377.068 106.744l59.31-34.242v-2.494l-59.31 34.243z"/>
        <path fill="#B70808" d="M436.377 72.502l4.833 2.79v-2.494l-4.833-2.79zM360.673 97.278l16.395 9.466v-2.493l-16.395-9.466z"/>
        <path fill="#E81A1A" d="M441.292 57.705l-.082 15.093-4.833-2.79-59.31 34.243-16.394-9.466 59.31-34.242-4.833-2.79z"/>
        <path fill="#111D28" d="M696.891 92.45l-.081-15.093-4.833 2.79-59.31-34.242-16.395 9.466 59.31 34.242-4.832 2.79z" opacity=".1"/>
        <path fill="#B70808" d="M617.52 50.384l59.309 34.242v2.493l-59.31-34.242zM671.996 87.416l26.142.047v2.494l-26.142-.047z"/>
        <path fill="#E81A1A" d="M698.138 87.463l-.082-15.092-4.833 2.79-59.31-34.243-16.394 9.466 59.31 34.242-4.833 2.79z"/>
        <path fill="#111D28" d="M586.874 55.422l.081 15.093 4.833-2.79 59.31 34.243 16.395-9.466-59.31-34.242 4.832-2.79z" opacity=".1"/>
        <path fill="#B70808" d="M649.851 98.578l-59.31-34.242v-2.493l59.31 34.242z"/>
        <path fill="#B70808" d="M590.541 64.336l-4.832 2.79v-2.493l4.832-2.79zM666.246 89.113l-16.395 9.465v-2.493l16.395-9.465z"/>
        <path fill="#E81A1A" d="M585.627 49.54l.081 15.092 4.834-2.79 59.31 34.243 16.394-9.466-59.31-34.242 4.833-2.79zM204.388 383.793l-.082-15.093-4.833 2.79-59.31-34.242-16.394 9.466 59.31 34.242-4.833 2.79z"/>
        <path fill="#111D28" d="M324.82 386.815l.082-15.093 4.833 2.79 59.31-34.242 16.395 9.466-59.31 34.242 4.832 2.79z"/>
        <path fill="#E81A1A" d="M323.574 381.829l.082-15.093 4.833 2.79 59.31-34.243 16.394 9.466-59.31 34.242 4.833 2.79z"/>
        <path fill="#DD0A0A" d="M273.828 353.177c-3.686 0-7.371-.807-10.167-2.422l-72.868-42.071c-2.727-1.573-4.114-3.636-4.182-5.71v103.337c.068 2.074 1.455 4.137 4.182 5.71l72.868 42.071c2.796 1.614 6.481 2.421 10.167 2.422V353.177z"/>
        <path fill="#B70808" d="M273.828 353.177c3.687 0 7.374-.807 10.172-2.422l72.287-41.735c2.873-1.659 4.259-3.86 4.18-6.046v103.337c.079 2.186-1.307 4.387-4.18 6.046L284 454.092c-2.798 1.615-6.485 2.422-10.172 2.422V353.177z"/>
        <path fill="#E81A1A" d="M356.287 297.277c5.593 3.23 5.593 8.514 0 11.743L284 350.755c-5.594 3.23-14.746 3.23-20.34 0l-72.868-42.071c-5.593-3.23-5.593-8.513 0-11.743l72.287-41.735c5.593-3.229 14.746-3.229 20.34 0l72.868 42.071z"/>
        <path fill="#111D28" d="M578.072 244.245l.081-15.093 4.833 2.79 59.31-34.243 16.395 9.466-59.31 34.242 4.833 2.79z" opacity=".1"/>
        <path fill="#B70808" d="M657.444 202.178l-59.31 34.243v2.493l59.31-34.242zM602.967 239.21l-26.142.048v2.493l26.142-.047z"/>
        <path fill="#E81A1A" d="M576.825 239.258l.082-15.093 4.832 2.79 59.31-34.243 16.395 9.466-59.31 34.243 4.833 2.79z"/>
        <path fill="#111D28" d="M687.924 208.639l-.082 15.093-4.832-2.79-59.31 34.243-16.395-9.466 59.31-34.243-4.832-2.79z" opacity=".1"/>
        <path fill="#B70808" d="M624.947 251.795l59.31-34.243v-2.493l-59.31 34.243z"/>
        <path fill="#B70808" d="M684.256 217.552l4.833 2.79v-2.493l-4.833-2.79zM608.552 242.33l16.395 9.465V249.3l-16.395-9.465z"/>
        <path fill="#E81A1A" d="M689.171 202.756l-.082 15.093-4.833-2.79-59.31 34.243-16.394-9.466 59.31-34.243-4.833-2.79z"/>
        <path fill="#000" d="M609.538 288.928c5.593 3.228 5.593 8.513 0 11.742l-72.287 41.735c-5.593 3.23-14.746 3.23-20.339 0l-72.869-42.07c-5.593-3.23-5.593-8.514 0-11.743l72.287-41.735c5.594-3.23 14.746-3.23 20.339 0l72.869 42.07z" opacity=".1"/>
        <path fill="#DD0A0A" d="M527.079 210.607c-3.686 0-7.371-.808-10.167-2.422l-72.869-42.072c-2.725-1.573-4.112-3.636-4.181-5.71V263.74c.069 2.074 1.456 4.137 4.181 5.71l72.869 42.071c2.796 1.614 6.481 2.422 10.167 2.422V210.607z"/>
        <path fill="#B70808" d="M527.079 210.607c3.687 0 7.375-.808 10.172-2.422l72.287-41.735c2.873-1.66 4.259-3.86 4.18-6.046V263.74c.079 2.187-1.307 4.387-4.18 6.046l-72.287 41.735c-2.797 1.615-6.485 2.423-10.172 2.422V210.607z"/>
        <path fill="#E81A1A" d="M609.538 154.706c5.593 3.23 5.593 8.514 0 11.744l-72.287 41.734c-5.593 3.23-14.746 3.23-20.339 0l-72.869-42.07c-5.593-3.23-5.593-8.514 0-11.743l72.287-41.735c5.594-3.23 14.746-3.23 20.339 0l72.869 42.07z"/>
        <path fill="#000" d="M110.197 289.333c5.593 3.23 5.593 8.514 0 11.743L37.91 342.811c-5.593 3.23-14.746 3.23-20.34 0l-72.868-42.07c-5.593-3.23-5.593-8.514 0-11.743l72.287-41.735c5.593-3.23 14.746-3.23 20.34 0l72.868 42.07z" opacity=".1"/>
        <path fill="#DD0A0A" d="M27.738 211.012c-3.686 0-7.371-.807-10.167-2.421l-72.868-42.072c-2.727-1.573-4.114-3.636-4.182-5.71v103.337c.068 2.074 1.455 4.137 4.182 5.71l72.868 42.071c2.796 1.614 6.481 2.422 10.167 2.422V211.012z"/>
        <path fill="#B70808" d="M27.738 211.012c3.687 0 7.374-.807 10.172-2.421l72.287-41.735c2.873-1.66 4.259-3.86 4.18-6.046v103.336c.079 2.187-1.307 4.387-4.18 6.046L37.91 311.927c-2.798 1.615-6.485 2.422-10.172 2.422V211.012z"/>
        <path fill="#E81A1A" d="M110.197 155.112c5.593 3.23 5.593 8.514 0 11.743L37.91 208.59c-5.593 3.23-14.746 3.23-20.34 0l-72.868-42.07c-5.593-3.23-5.593-8.514 0-11.743l72.287-41.736c5.593-3.228 14.746-3.228 20.34 0l72.868 42.071z"/>
        <path fill="#000" d="M609.538.456c5.593 3.23 5.593 8.513 0 11.742L537.25 53.933c-5.593 3.23-14.746 3.23-20.339 0l-72.869-42.07c-5.593-3.23-5.593-8.514 0-11.743l72.287-41.735c5.594-3.23 14.746-3.23 20.339 0L609.538.455z" opacity=".1"/>
        <path fill="#DD0A0A" d="M527.079-77.865c-3.686 0-7.371-.808-10.167-2.422l-72.869-42.071c-2.725-1.574-4.112-3.636-4.181-5.71v103.337c.069 2.074 1.456 4.136 4.181 5.71l72.869 42.07c2.796 1.615 6.481 2.422 10.167 2.422V-77.865z"/>
        <path fill="#B70808" d="M527.079-77.865c3.687 0 7.375-.807 10.172-2.422l72.287-41.736c2.873-1.658 4.259-3.859 4.18-6.045v103.337c.079 2.186-1.307 4.386-4.18 6.046L537.25 23.049c-2.797 1.615-6.485 2.423-10.172 2.422V-77.865z"/>
        <path fill="#000" d="M855.628 142.62c5.593 3.23 5.593 8.514 0 11.743l-72.287 41.735c-5.593 3.23-14.746 3.23-20.339 0l-72.869-42.07c-5.593-3.23-5.593-8.514 0-11.743l72.287-41.736c5.593-3.229 14.746-3.229 20.339 0l72.869 42.072z" opacity=".1"/>
        <path fill="#DD0A0A" d="M773.169 64.3c-3.686-.001-7.371-.808-10.167-2.422l-72.869-42.072c-2.725-1.573-4.113-3.636-4.181-5.71v103.337c.068 2.074 1.456 4.137 4.181 5.71l72.869 42.071c2.796 1.614 6.481 2.422 10.167 2.422V64.299z"/>
        <path fill="#B70808" d="M773.169 64.3c3.687 0 7.375-.807 10.172-2.422l72.287-41.736c2.873-1.659 4.259-3.86 4.18-6.046v103.337c.079 2.186-1.307 4.387-4.18 6.046l-72.287 41.735c-2.797 1.615-6.485 2.422-10.172 2.422V64.299z"/>
        <path fill="#E81A1A" d="M855.628 8.4c5.593 3.228 5.593 8.513 0 11.742L783.34 61.877c-5.593 3.23-14.746 3.23-20.339 0l-72.869-42.07c-5.593-3.23-5.593-8.514 0-11.743l72.287-41.735c5.593-3.23 14.746-3.23 20.339 0l72.869 42.07z"/>
        <path fill="#000" d="M115.569 1.712c5.593 3.23 5.593 8.514 0 11.743L43.282 55.19c-5.593 3.23-14.746 3.23-20.34 0L-49.925 13.12c-5.593-3.229-5.593-8.513 0-11.743l72.287-41.735c5.593-3.229 14.746-3.229 20.34 0l72.868 42.071z" opacity=".1"/>
        <path fill="#DD0A0A" d="M33.11-76.609c-3.686 0-7.371-.808-10.167-2.422l-72.869-42.071c-2.726-1.573-4.113-3.636-4.181-5.71v103.337c.068 2.074 1.455 4.136 4.181 5.71l72.869 42.07c2.796 1.615 6.481 2.423 10.167 2.423V-76.609z"/>
        <path fill="#B70808" d="M33.11-76.609c3.687 0 7.374-.807 10.172-2.422l72.287-41.735c2.873-1.659 4.259-3.86 4.18-6.046v103.337c.079 2.186-1.307 4.387-4.18 6.046L43.282 24.306c-2.798 1.615-6.485 2.423-10.172 2.422V-76.609z"/>
        <path fill="#000" d="M361.659 143.877c5.593 3.229 5.593 8.514 0 11.743l-72.287 41.735c-5.594 3.229-14.746 3.229-20.34 0l-72.868-42.071c-5.593-3.23-5.593-8.514 0-11.743l72.287-41.735c5.593-3.23 14.746-3.23 20.34 0l72.868 42.07z" opacity=".1"/>
        <path fill="#DD0A0A" d="M279.2 65.556c-3.686 0-7.371-.808-10.167-2.422l-72.869-42.071c-2.726-1.573-4.113-3.636-4.181-5.71V118.69c.068 2.074 1.455 4.136 4.181 5.71l72.869 42.07c2.796 1.615 6.481 2.422 10.167 2.422V65.556z"/>
        <path fill="#B70808" d="M279.2 65.556c3.687 0 7.374-.807 10.172-2.422l72.287-41.735c2.873-1.66 4.259-3.86 4.18-6.046V118.69c.079 2.186-1.307 4.387-4.18 6.046l-72.287 41.735c-2.798 1.614-6.485 2.422-10.172 2.421V65.556z"/>
        <path fill="#E81A1A" d="M361.659 9.656c5.593 3.23 5.593 8.513 0 11.743l-72.287 41.735c-5.594 3.229-14.746 3.229-20.34 0l-72.868-42.071c-5.593-3.23-5.593-8.514 0-11.743l72.287-41.735c5.593-3.23 14.746-3.23 20.34 0l72.868 42.07z"/>
    </g>
</svg>
