<svg xmlns="http://www.w3.org/2000/svg" width="375" height="349" viewBox="0 0 375 349">
    <g fill="none" fill-rule="nonzero">
        <path fill="#F3C017" d="M37.273 180.977c-9.123 3.816-24.864 27.16-33.688 30.826 8.824-3.667 36.49 1.58 45.613-2.236l-11.925-28.59z"/>
        <path fill="#FFF" d="M24.99 202.89c1.401-1.491 2.832-3.071 4.323-4.681 3.399-3.697 7.304-8.02 10.583-10.971l6.708 16.069c-4.412.268-10.225.03-15.234-.18-2.206-.089-4.353-.178-6.38-.238z" opacity=".4"/>
        <path fill="#F3C017" d="M110.253 222.446c-8.586 2.147-25.608 20.69-33.896 22.777 8.288-2.087 32.048 6.26 40.634 4.114l-6.738-26.89z"/>
        <path fill="#FFF" d="M96.45 240.184a294.75 294.75 0 0 0 4.442-3.577c3.488-2.832 7.543-6.112 10.822-8.288l3.786 15.115c-3.935-.358-9.063-1.342-13.475-2.206-1.908-.358-3.786-.716-5.575-1.044z" opacity=".4"/>
        <path fill="#F3C017" d="M105.781 147.647c-7.512 3.041-20.63 22.061-27.904 24.983 7.274-2.951 29.902 1.61 37.444-1.431l-9.54-23.552z"/>
        <path fill="#FFF" d="M95.496 165.505c1.163-1.222 2.355-2.504 3.578-3.816 2.802-3.011 6.052-6.5 8.794-8.914l5.366 13.237c-3.607.178-8.377-.09-12.49-.299-1.82-.03-3.578-.119-5.248-.208z" opacity=".4"/>
        <g transform="translate(104.619 202.502)">
            <path fill="#FBFBFB" d="M22.896 46.656c-.06 0-.15 0-.209.03-.358.03-.745.03-1.103.03-.656 0-1.312-.06-1.968-.12-.477.18-1.013.388-1.55.567 0 0 3.935.566 8.228-1.163a17.592 17.592 0 0 1-3.398.656z"/>
            <path fill="#720C11" d="M2.296 30.468c0-6.2 3.637-11.597 9.062-14.518C4.86 18.305.268 24.148.268 31.005c0 11.358 7.84 16.158 17.53 16.158h.626c-9.063-.656-16.128-5.724-16.128-16.695z"/>
            <path fill="#FBFBFB" d="M5.605 29.931c0-7.214 4.322-13.355 10.434-15.71-7.87 1.848-13.714 8.406-13.714 16.247 0 .328 0 .656.03.984a27.914 27.914 0 0 1 3.28-1.222c-.03-.09-.03-.18-.03-.299z"/>
            <path fill="#ED2A28" d="M18.066 47.133c.537-.179 1.044-.387 1.55-.566-7.81-1.014-13.892-7.9-14.041-16.337-1.163.357-2.266.805-3.28 1.222.448 10.166 7.155 14.966 15.771 15.681zM37.563 29.097c-.298 6.17-4.114 11.21-9.033 12.223-1.4 1.4-4.024 3.398-8.884 5.277.656.089 1.282.119 1.968.119 8.824 0 15.98-7.513 15.98-16.785-.03-.268-.03-.566-.03-.834z"/>
            <ellipse cx="26.742" cy="28.292" fill="#720C11" rx="10.822" ry="13.177"/>
            <path fill="#ED2A28" d="M15.92 28.292c0-7.274 4.86-13.177 10.822-13.177 1.192 0 2.355.238 3.428.685a15.285 15.285 0 0 0-8.586-2.623c-8.824 0-15.98 7.513-15.98 16.784v.298c.358-.119.716-.208 1.074-.298 2.892-.715 7.244-1.282 9.242-1.52v-.15z"/>
            <path fill="#FBFBFB" d="M5.605 30.26c.149 8.436 6.2 15.353 14.041 16.337 4.86-1.879 7.513-3.876 8.884-5.277a8.666 8.666 0 0 1-1.788.179c-5.933 0-10.763-5.844-10.822-13.058-1.998.238-6.35.805-9.242 1.52-.358.06-.716.18-1.073.298z"/>
            <path fill="#FF4D4D" d="M24.058 2.087s8.05 11.925 3.071 28.41c0 0-2.802-7.78-15.532-11.119 0 0 6.022-5.217.805-15.681l11.656-1.61z"/>
            <path fill="#ED2A28" d="M27.13 30.468c4.948-16.486-3.072-28.411-3.072-28.411L33.45.179s6.29 14.608 1.461 24.386l-7.78 5.903z"/>
        </g>
        <g transform="translate(100.147 140.492)">
            <path fill="#720C11" d="M18.364 32.376c-9.212 0-16.665-7.095-16.665-15.86C1.7 12.67 3.13 9.152 5.515 6.41 2.176 9.3.09 13.475.09 18.126c0 8.765 7.453 15.86 16.665 15.86 5.158 0 9.779-2.236 12.85-5.754-2.952 2.564-6.917 4.144-11.24 4.144z"/>
            <circle cx="24.446" cy="10.852" r="9.689" fill="#720C11"/>
            <path fill="#ED2A28" d="M34.85 18.782c-1.937 5.783-7.631 9.987-14.34 9.987-8.317 0-15.054-6.41-15.054-14.34-1.252.537-2.505 1.282-3.757 2.147.03 8.735 7.483 15.8 16.665 15.8 8.378 0 15.324-5.903 16.487-13.594z"/>
            <path fill="#FBFBFB" d="M15.77.835C7.782 2.027 1.7 8.585 1.7 16.516v.06c1.251-.865 2.504-1.61 3.756-2.147C5.456 8.08 9.778 2.713 15.77.835zM20.51 28.769c8.318 0 15.056-6.41 15.056-14.34 0-2.832-.865-5.485-2.355-7.721a9.595 9.595 0 0 1 .924 4.144c0 5.336-4.323 9.689-9.689 9.689-5.217 0-9.48-4.144-9.66-9.332-1.49.299-4.382 1.074-9.33 3.22 0 7.93 6.737 14.34 15.055 14.34z"/>
            <path fill="#ED2A28" d="M14.757 10.852c0-5.337 4.323-9.69 9.689-9.69.924 0 1.819.15 2.683.388A15.708 15.708 0 0 0 20.511.09C12.193.09 5.456 6.5 5.456 14.43c4.919-2.147 7.84-2.922 9.33-3.22 0-.12-.029-.24-.029-.358z"/>
        </g>
        <path fill="#720C11" d="M257.526 158.082c34.164-18.096 70.714-52.917 70.058-69.254-12.58-9.51-56.94-7.9-96.591 6.827-3.667 1.371-15.741 13.982-3.876 39.918 9.928 21.704 23.85 24.655 30.409 22.509zM108.733 189.563c-3.876-8.586-3.34-17.678.775-23.164a644.386 644.386 0 0 0-14.847 11.657s-5.634 6.558.865 18.543c5.992 11.03 14.4 11.18 14.4 11.18a585.597 585.597 0 0 0 18.006-3.459c-7.215.12-15.085-5.634-19.2-14.757z"/>
        <path fill="#FBFBFB" d="M121.403 170.603c-.507-5.814.596-11.21 3.13-15.294a583.193 583.193 0 0 0-15.025 11.09c-2.534 3.399-3.727 8.169-3.31 13.356 4.204-2.683 9.243-5.724 15.205-9.152zM129.84 190.756a1615.838 1615.838 0 0 1-16.606 5.932c4.204 4.89 9.6 7.722 14.668 7.632 1.61-.328 3.22-.685 4.8-1.043.03 0 .06-.03.09-.03l.894-.179a432.801 432.801 0 0 0 12.223-2.921c-5.635-.567-11.448-3.965-16.07-9.391z"/>
        <path fill="#ED2A28" d="M124.503 182.23a35.653 35.653 0 0 1-3.07-11.627c-5.963 3.428-11 6.469-15.234 9.152.238 3.19 1.073 6.529 2.564 9.808a31.165 31.165 0 0 0 4.501 7.125 1397.318 1397.318 0 0 0 16.606-5.932 36.3 36.3 0 0 1-5.367-8.527zM140.513 160.139c-.656-7.215.864-13.893 4.263-18.693a565.758 565.758 0 0 0-20.243 13.863c-2.534 4.084-3.607 9.51-3.13 15.294a654.356 654.356 0 0 1 19.11-10.464z"/>
        <path fill="#ED2A28" d="M150.261 183.034a1060.702 1060.702 0 0 1-20.421 7.692c4.591 5.426 10.434 8.824 16.069 9.39a525.468 525.468 0 0 0 23.7-6.528c-6.737-.239-13.803-4.084-19.348-10.554z"/>
        <path fill="#FBFBFB" d="M144 173.167c-1.967-4.323-3.1-8.765-3.487-12.999a613.197 613.197 0 0 0-19.08 10.465c.328 3.786 1.341 7.75 3.07 11.626 1.461 3.22 3.28 6.082 5.367 8.527a1060.715 1060.715 0 0 0 20.421-7.692c-2.474-2.862-4.591-6.2-6.29-9.927zM157.863 151.255c2.028-1.014 3.995-1.998 5.933-2.952-.865-8.705 1.133-16.725 5.605-22.12a587.153 587.153 0 0 0-24.625 15.263c-3.429 4.8-4.949 11.478-4.263 18.693a880.985 880.985 0 0 1 17.35-8.884z"/>
        <path fill="#FBFBFB" d="M174.469 173.137c-1.908.805-3.876 1.64-5.873 2.504a635.067 635.067 0 0 1-18.335 7.393c5.545 6.44 12.61 10.315 19.348 10.554a544.441 544.441 0 0 0 26.533-8.765c-7.542-.149-15.472-4.442-21.673-11.686z"/>
        <path fill="#ED2A28" d="M174.469 173.137a45.548 45.548 0 0 1-6.857-10.822c-2.117-4.65-3.369-9.42-3.816-14.012-1.908.954-3.876 1.938-5.933 2.952a981.293 981.293 0 0 0-17.38 8.884c.387 4.233 1.52 8.675 3.488 12.998 1.7 3.726 3.846 7.065 6.26 9.897a939.29 939.29 0 0 0 18.335-7.393c2.027-.835 3.995-1.67 5.903-2.504zM192.714 134.291c-1.073-9.33.924-17.976 5.605-23.88-8.407 4.234-18.126 9.481-28.888 15.771-4.472 5.426-6.47 13.446-5.605 22.121 11.656-5.754 21.167-10.375 28.888-14.012zM203.983 160.02a1141.941 1141.941 0 0 1-29.514 13.117c6.2 7.244 14.13 11.537 21.673 11.686 11.955-4.293 22.509-8.526 31.303-12.342-8.139 0-16.754-4.621-23.462-12.462z"/>
        <path fill="#FBFBFB" d="M167.612 162.315a45.548 45.548 0 0 0 6.857 10.822 1141.941 1141.941 0 0 0 29.514-13.118c-2.832-3.309-5.307-7.184-7.274-11.507-2.147-4.74-3.459-9.57-3.995-14.22a1978.934 1978.934 0 0 0-28.918 14.041c.477 4.561 1.73 9.331 3.816 13.982zM232.99 145.799c-4.144 2.206-13.892 7.214-29.007 14.22 6.708 7.841 15.323 12.432 23.462 12.462 19.08-8.228 30.08-14.4 30.08-14.4-5.336 1.76-15.561.12-24.535-12.282zM231.023 95.685s-12.432 4.501-32.704 14.727c-4.651 5.903-6.678 14.548-5.605 23.88 17.917-8.497 26.205-11.896 29.842-13.237-2.594-16.188 5.545-24.297 8.467-25.37z"/>
        <path fill="#ED2A28" d="M227.117 135.603c-2.474-5.426-3.905-10.255-4.59-14.548-3.608 1.341-11.896 4.74-29.843 13.236.537 4.651 1.848 9.48 3.995 14.22 1.968 4.353 4.442 8.229 7.274 11.508 15.115-7.006 24.834-12.014 29.007-14.22-2.027-2.802-3.994-6.201-5.843-10.196z"/>
        <path fill="#FBFBFB" d="M404.202 53.62l-79.569 33.21s-.268 1.193.537 3.22c.805 1.997 2.534 2.683 2.534 2.683l76.498-39.114z"/>
        <g>
            <g transform="translate(33.367 172.391)">
                <path fill="#720C11" d="M1.878 18.692c0-4.263 1.461-8.198 3.906-11.299a16.978 16.978 0 0 0-5.605 12.64c0 9.392 7.632 17.024 17.023 17.024.626 0 1.252-.03 1.878-.12-9.57-.536-17.202-8.496-17.202-18.245z"/>
                <circle cx="27.397" cy="15.055" r="13.356" fill="#720C11"/>
                <path fill="#FFF" d="M4.204 17.082s.03 0 .03-.03C4.56 9.153 10.046 2.595 17.41.597 8.705 1.908 1.997 9.391 1.878 18.454c.686-.418 1.461-.865 2.326-1.372z"/>
                <path fill="#ED2A28" d="M14.101 13.893c.596-6.827 6.32-12.194 13.296-12.194.954 0 1.879.09 2.773.298A17.736 17.736 0 0 0 22.031.03c-9.57 0-17.38 7.572-17.798 17.052 3.727-2.086 8.229-2.951 9.868-3.19z"/>
                <path fill="#FFF" d="M21.375 36.937c4.204-.268 8.02-1.967 11.001-4.62a17.953 17.953 0 0 1-8.944 3.249c-1.103.775-1.729 1.192-2.057 1.371z"/>
                <path fill="#ED2A28" d="M23.403 35.566c-.448.03-.925.06-1.372.06-9.838 0-17.798-7.96-17.798-17.798 0-.239 0-.507.03-.746 0 0-.03 0-.03.03-.864.477-1.64.954-2.325 1.401v.21c0 10.105 8.198 18.274 18.275 18.274.387 0 .805-.03 1.192-.03.328-.209.954-.626 2.028-1.401zM28.113 28.381l-.06.15s-1.878 5.097-4.65 7.065c8.347-.626 15.114-7.036 16.247-15.264-1.938 4.531-6.35 7.78-11.537 8.05z"/>
                <path fill="#FFF" d="M14.042 13.893c-1.7.268-6.112 1.162-9.809 3.19v.745c0 9.838 7.96 17.798 17.798 17.798.298 0 .626 0 .924-.03 2.773-1.968 5.098-7.245 5.098-7.245-.208 0-.417.03-.656.03-7.363 0-13.355-5.962-13.355-13.356.03-.357-.03-.745 0-1.132z"/>
            </g>
            <path fill="#FF4D4D" d="M103.754 187.417s-18.9-.805-37.921 3.339c0 0 1.103-1.342.805-6.171-.298-4.502-2.147-4.83-2.147-4.83s19.677-4.412 37.922-3.607c0 .03-.805 5.306 1.341 11.269z"/>
            <path fill="#ED2A28" d="M103.754 187.417s-18.9-.805-37.921 3.339c0 0 5.307-1.103 6.648 2.087.567 1.341-.298 2.116-.298 2.116s9.301-2.385 23.969-2.474l7.602-5.068z"/>
        </g>
        <path fill="#FFF" d="M254.097 92.256c-7.483 0-10.285 2.445-10.285 10.285 0-7.84-2.772-10.285-10.285-10.285 7.483 0 10.285-2.444 10.285-10.285 0 7.84 2.773 10.285 10.285 10.285zM321.324 110.442c-3.488 0-4.77 1.132-4.77 4.77 0-3.638-1.282-4.77-4.77-4.77 3.488 0 4.77-1.133 4.77-4.77 0 3.637 1.282 4.77 4.77 4.77z"/>
        <g>
            <path fill="#1A82FF" d="M21.83 282.548l-1.252 1.848c-1.073 1.58-3.16 2.445-6.082 2.236-5.753-.417-12.461-4.949-14.965-10.136-1.253-2.564-1.223-4.83-.15-6.38l1.312-1.938 21.137 14.37z"/>
            <path fill="#40A0FF" d="M.783 274.647c-1.252-2.563-1.223-4.83-.15-6.38 1.074-1.58 3.16-2.444 6.082-2.235 5.754.417 12.462 4.949 14.966 10.136 1.252 2.564 1.222 4.83.15 6.38-1.074 1.58-3.161 2.444-6.083 2.236-5.753-.448-12.461-4.98-14.965-10.137z"/>
            <path fill="#1A82FF" d="M7.878 280.192c-2.594-1.758-4.62-3.965-5.724-6.23-.954-1.968-1.043-3.697-.268-4.86.775-1.162 2.504-1.729 4.71-1.55 2.534.179 5.366 1.252 7.99 3.04 2.593 1.76 4.62 3.966 5.724 6.232.954 1.967 1.043 3.696.268 4.86-.775 1.162-2.504 1.728-4.71 1.55-2.534-.18-5.367-1.253-7.99-3.042z"/>
            <path fill="#0F7CE8" d="M6.417 267.82c2.534.18 5.366 1.253 7.99 3.041 2.594 1.76 4.62 3.965 5.724 6.231.924 1.908 1.043 3.577.358 4.71.03-.03.06-.09.089-.119.775-1.163.686-2.862-.268-4.86-1.103-2.265-3.13-4.471-5.724-6.23-2.624-1.789-5.456-2.862-7.99-3.04-2.206-.15-3.905.416-4.71 1.55-.03.03-.06.089-.09.119.835-1.044 2.505-1.58 4.621-1.402z"/>
            <path fill="#FFF" d="M8.444 277.032l.835-1.222a8.213 8.213 0 0 1-.507-.864c-.805-1.67-.417-2.594 1.044-2.505.626.03 1.222.269 1.759.626l-2.892 4.204c.238.238.507.447.775.626.12.09.239.149.328.238.03 0 .03.03.06.03.03.03.06.06.09.06 1.042.686 2.146 1.073 3.249 1.163 1.252.089 2.116-.269 2.504-1.044.358-.715.238-1.759-.328-2.951a9.082 9.082 0 0 0-1.55-2.177l-.835 1.223c.179.268.328.536.477.834.358.776.507 1.372.387 1.819-.149.507-.626.745-1.4.686a3.445 3.445 0 0 1-1.73-.597l2.892-4.203a4.3 4.3 0 0 0-.805-.656c-.06-.03-.12-.09-.179-.12-.06-.059-.12-.089-.209-.148 0 0-.03 0-.03-.03-.03 0-.03-.03-.059-.03-1.043-.686-2.176-1.103-3.28-1.163-1.251-.089-2.146.269-2.504 1.044-.357.715-.238 1.759.328 2.951.358.775.925 1.55 1.58 2.206z"/>
        </g>
        <g>
            <path fill="#1A82FF" d="M320.042 27.355l-2.057 3.04c-1.759 2.594-5.217 4.025-9.987 3.668-9.48-.686-20.511-8.14-24.625-16.665-2.057-4.234-1.998-7.93-.268-10.494l2.176-3.19 34.76 23.64z"/>
            <path fill="#40A0FF" d="M285.46 14.357c-2.057-4.234-1.998-7.93-.269-10.494 1.76-2.594 5.218-4.025 9.988-3.667 9.48.686 20.51 8.139 24.624 16.665 2.057 4.233 1.998 7.93.269 10.494-1.76 2.594-5.217 4.025-9.987 3.667-9.51-.716-20.511-8.169-24.625-16.665z"/>
            <path fill="#1A82FF" d="M297.087 23.51c-4.264-2.893-7.603-6.53-9.391-10.226-1.58-3.25-1.73-6.082-.448-7.99 1.282-1.908 4.115-2.832 7.722-2.564 4.174.298 8.854 2.087 13.147 5.008 4.263 2.892 7.602 6.53 9.39 10.226 1.58 3.25 1.73 6.082.448 7.99-1.282 1.908-4.114 2.832-7.721 2.564-4.144-.328-8.825-2.087-13.147-5.009z"/>
            <path fill="#0F7CE8" d="M294.702 3.118c4.173.298 8.854 2.086 13.147 5.008 4.263 2.892 7.602 6.529 9.39 10.226 1.521 3.13 1.73 5.873.567 7.78.06-.059.09-.119.15-.208 1.281-1.908 1.132-4.74-.448-7.99-1.789-3.696-5.128-7.334-9.391-10.225-4.293-2.922-8.973-4.71-13.147-5.009-3.637-.268-6.44.656-7.722 2.564-.06.06-.089.15-.119.209 1.342-1.73 4.085-2.594 7.573-2.355z"/>
            <path fill="#FFF" d="M298.01 18.292l1.372-1.997a11.233 11.233 0 0 1-.835-1.431c-1.341-2.743-.685-4.293 1.73-4.115 1.013.06 1.997.418 2.891 1.014l-4.74 6.917c.388.387.805.715 1.252 1.043.18.149.358.268.567.388.03.03.06.03.06.06.059.029.118.089.178.118 1.7 1.103 3.548 1.76 5.337 1.879 2.086.149 3.488-.448 4.114-1.7.596-1.192.387-2.892-.537-4.83a14.029 14.029 0 0 0-2.564-3.607l-1.371 1.998c.298.417.536.864.775 1.371.626 1.252.835 2.266.626 2.981-.239.835-1.043 1.223-2.325 1.133-1.014-.06-1.968-.417-2.862-.984l4.74-6.916c-.418-.388-.835-.775-1.312-1.103-.09-.06-.179-.12-.268-.209-.12-.09-.209-.149-.328-.208l-.03-.03c-.03-.03-.06-.06-.09-.06-1.729-1.133-3.577-1.789-5.396-1.938-2.086-.149-3.517.448-4.143 1.7-.597 1.192-.388 2.891.536 4.83a13.45 13.45 0 0 0 2.624 3.696z"/>
        </g>
        <g>
            <path fill="#1A82FF" d="M165.167 53.798l2.892 1.431c2.445 1.193 4.114 4.025 4.412 8.199.567 8.317-4.531 18.781-11.418 23.373-3.428 2.295-6.618 2.712-9.063 1.52l-3.01-1.49 16.187-33.033z"/>
            <path fill="#40A0FF" d="M158.161 85.37c-3.428 2.295-6.618 2.712-9.062 1.52-2.445-1.193-4.115-4.025-4.413-8.198-.566-8.318 4.532-18.782 11.418-23.373 3.429-2.296 6.619-2.713 9.063-1.52 2.445 1.192 4.114 4.024 4.413 8.198.536 8.288-4.562 18.781-11.419 23.373z"/>
            <path fill="#1A82FF" d="M164.63 74.16c-1.997 4.055-4.74 7.394-7.72 9.391-2.624 1.759-5.069 2.236-6.857 1.371-1.79-.894-2.952-3.22-3.16-6.38-.239-3.666.715-7.93 2.712-12.014 1.998-4.054 4.74-7.393 7.722-9.39 2.623-1.76 5.068-2.237 6.857-1.372 1.788.894 2.951 3.22 3.16 6.38.268 3.667-.686 7.93-2.713 12.014z"/>
            <path fill="#0F7CE8" d="M147.28 78.751c-.238-3.667.716-7.93 2.713-12.014 1.997-4.055 4.74-7.394 7.721-9.391 2.534-1.7 4.89-2.206 6.648-1.46a.624.624 0 0 1-.178-.12c-1.79-.894-4.234-.388-6.857 1.371-2.981 1.998-5.724 5.337-7.722 9.391-1.997 4.084-2.98 8.348-2.713 12.015.21 3.16 1.372 5.485 3.16 6.38.06.03.12.059.21.089-1.7-.954-2.773-3.22-2.982-6.26z"/>
            <path fill="#FFF" d="M160.04 73.981l-1.908-.954a6.81 6.81 0 0 1-1.133.895c-2.206 1.49-3.637 1.132-3.786-.984-.06-.895.119-1.789.536-2.653l6.589 3.279c.268-.388.536-.805.745-1.222l.268-.537c0-.03.03-.06.03-.06.03-.06.06-.119.09-.149.745-1.61 1.103-3.28.983-4.86-.119-1.818-.804-2.98-1.967-3.368-1.103-.358-2.564.03-4.114 1.073-1.044.686-1.998 1.61-2.803 2.654l1.908.954c.328-.299.686-.567 1.074-.835 1.013-.686 1.878-.984 2.504-.894.745.089 1.192.745 1.282 1.878.06.864-.12 1.759-.507 2.593l-6.559-3.25c-.298.418-.566.836-.805 1.253-.06.09-.09.179-.149.268-.06.09-.09.209-.149.298 0 0 0 .03-.03.03-.03.03-.03.06-.06.09-.774 1.64-1.102 3.309-1.013 4.889.12 1.818.805 2.981 1.968 3.369 1.103.357 2.564 0 4.114-1.074 1.103-.656 2.057-1.61 2.892-2.683z"/>
        </g>
        <g>
            <path fill="#1A82FF" d="M21.443 151.91l1.43 1.73c1.223 1.46 1.461 3.726.448 6.439-1.998 5.426-8.228 10.613-13.893 11.567-2.802.477-4.978-.179-6.17-1.61l-1.492-1.788 19.677-16.338z"/>
            <path fill="#40A0FF" d="M8.027 169.917c-2.802.477-4.979-.179-6.171-1.61-1.222-1.46-1.46-3.726-.447-6.44 1.997-5.425 8.228-10.612 13.892-11.566 2.803-.477 4.979.178 6.171 1.61 1.223 1.46 1.461 3.726.448 6.439-2.028 5.426-8.229 10.613-13.893 11.567z"/>
            <path fill="#1A82FF" d="M15.331 164.67c-2.415 1.997-5.098 3.339-7.572 3.756-2.177.358-3.846-.03-4.74-1.073-.895-1.073-.954-2.862-.21-4.949.895-2.385 2.714-4.8 5.158-6.827 2.415-1.997 5.098-3.339 7.573-3.756 2.176-.358 3.846.03 4.74 1.073.894 1.073.954 2.862.209 4.95-.895 2.354-2.713 4.799-5.158 6.826z"/>
            <path fill="#0F7CE8" d="M3.019 162.613c.894-2.385 2.713-4.8 5.157-6.827 2.415-1.997 5.098-3.339 7.572-3.756 2.087-.358 3.727 0 4.621.983-.03-.03-.06-.089-.09-.119-.893-1.073-2.563-1.46-4.74-1.073-2.474.417-5.157 1.759-7.572 3.756-2.444 2.028-4.263 4.442-5.157 6.827-.775 2.087-.686 3.876.209 4.95.03.029.06.089.09.118-.776-1.103-.806-2.862-.09-4.859z"/>
            <path fill="#FFF" d="M12.47 163.24l-.925-1.134c-.298.09-.626.18-.984.239-1.818.298-2.623-.328-2.117-1.7.21-.566.597-1.103 1.074-1.52l3.25 3.935a8.2 8.2 0 0 0 .834-.566c.12-.09.209-.18.328-.269l.03-.03.09-.089c.923-.805 1.639-1.759 1.997-2.802.447-1.193.327-2.117-.299-2.683-.596-.537-1.64-.716-2.921-.507-.865.149-1.73.447-2.534.894l.954 1.133c.298-.09.596-.179.924-.238.835-.15 1.46-.09 1.848.149.448.268.537.805.269 1.55a3.478 3.478 0 0 1-1.074 1.49l-3.22-3.935c-.297.18-.596.358-.864.567-.06.03-.12.09-.149.12-.06.059-.12.089-.179.148 0 0-.03 0-.03.03l-.06.06c-.953.804-1.639 1.788-2.026 2.832-.448 1.192-.328 2.116.298 2.713.596.536 1.64.715 2.921.506.835-.119 1.73-.447 2.564-.894z"/>
        </g>
        <g>
            <path fill="#1A82FF" d="M96.57 39.608l-1.372 1.759c-1.163 1.49-3.31 2.236-6.2 1.848-5.725-.775-12.134-5.694-14.34-11-1.074-2.654-.925-4.89.208-6.38l1.431-1.849L96.57 39.608z"/>
            <path fill="#40A0FF" d="M76.059 30.455c-1.074-2.653-.925-4.889.208-6.38 1.163-1.49 3.31-2.235 6.201-1.848 5.724.775 12.134 5.694 14.34 11 1.073 2.654.924 4.89-.209 6.38-1.162 1.491-3.309 2.237-6.2 1.85-5.754-.746-12.164-5.665-14.34-11.002z"/>
            <path fill="#1A82FF" d="M82.796 36.448c-2.474-1.908-4.382-4.234-5.336-6.559-.835-2.027-.835-3.756.03-4.86.834-1.102 2.593-1.58 4.77-1.281 2.534.328 5.276 1.58 7.81 3.517 2.475 1.908 4.383 4.234 5.337 6.56.834 2.026.834 3.756-.03 4.859-.835 1.103-2.594 1.58-4.77 1.281-2.534-.327-5.307-1.58-7.81-3.517z"/>
            <path fill="#0F7CE8" d="M82.08 23.986c2.535.328 5.277 1.58 7.811 3.518 2.475 1.908 4.383 4.233 5.337 6.559.805 1.967.835 3.637.06 4.74.03-.03.06-.09.089-.12.835-1.102.864-2.832.03-4.859-.954-2.325-2.832-4.65-5.337-6.559-2.504-1.937-5.276-3.19-7.81-3.517-2.177-.298-3.936.179-4.77 1.282-.03.03-.06.089-.09.119.865-1.014 2.564-1.431 4.68-1.163z"/>
            <path fill="#FFF" d="M83.541 33.317l.895-1.162a4.18 4.18 0 0 1-.447-.895c-.716-1.729-.269-2.623 1.192-2.444.596.09 1.193.328 1.73.715l-3.131 4.025c.238.238.477.477.715.686.12.089.21.178.328.268l.03.03c.03.03.06.06.09.06 1.013.745 2.086 1.192 3.16 1.34 1.252.18 2.146-.148 2.564-.864.387-.685.328-1.759-.15-2.951a7.639 7.639 0 0 0-1.43-2.266l-.925 1.163c.15.268.298.536.418.864.328.805.417 1.402.268 1.819-.179.507-.686.715-1.46.596a3.72 3.72 0 0 1-1.7-.715l3.13-4.025c-.238-.238-.477-.507-.745-.715a.65.65 0 0 1-.15-.12c-.059-.06-.118-.09-.178-.149 0 0-.03 0-.03-.03l-.06-.06c-1.013-.745-2.086-1.222-3.19-1.37-1.251-.18-2.146.148-2.563.864-.388.686-.358 1.759.149 2.951.387.895.864 1.7 1.49 2.385z"/>
        </g>
        <g>
            <path fill="#1A82FF" d="M175.095 284.128l-2.743-1.223c-2.325-1.013-3.995-3.607-4.412-7.482-.835-7.722 3.518-17.68 9.749-22.27 3.1-2.266 6.081-2.773 8.377-1.76l2.892 1.283-13.863 31.452z"/>
            <path fill="#40A0FF" d="M180.401 254.375c3.1-2.266 6.082-2.772 8.378-1.759 2.325 1.014 3.994 3.607 4.412 7.483.835 7.721-3.518 17.679-9.749 22.27-3.1 2.266-6.081 2.772-8.377 1.759-2.325-1.014-3.995-3.608-4.412-7.483-.835-7.722 3.518-17.679 9.748-22.27z"/>
            <path fill="#1A82FF" d="M174.797 265.107c1.699-3.845 4.114-7.065 6.827-9.062 2.385-1.76 4.65-2.296 6.35-1.55 1.699.745 2.892 2.861 3.22 5.843.357 3.398-.358 7.423-2.087 11.298-1.7 3.846-4.114 7.066-6.827 9.063-2.385 1.76-4.651 2.296-6.35 1.55-1.7-.745-2.892-2.861-3.22-5.843-.388-3.398.358-7.393 2.087-11.299z"/>
            <path fill="#0F7CE8" d="M190.806 260.159c.358 3.398-.358 7.423-2.087 11.299-1.7 3.845-4.114 7.065-6.827 9.062-2.296 1.67-4.472 2.236-6.171 1.61l.179.09c1.729.745 3.965.208 6.35-1.55 2.713-1.998 5.127-5.218 6.827-9.063 1.7-3.906 2.444-7.9 2.087-11.3-.328-2.95-1.491-5.067-3.22-5.842a.424.424 0 0 0-.179-.06c1.64.835 2.713 2.922 3.04 5.754z"/>
            <path fill="#FFF" d="M179.09 265.078l1.818.805a9.649 9.649 0 0 1 1.014-.865c2.027-1.49 3.339-1.192 3.548.775.089.805-.06 1.67-.388 2.475l-6.26-2.803c-.24.388-.478.775-.656 1.163-.09.179-.15.328-.239.507 0 .03-.03.03-.03.06-.03.059-.03.089-.06.148-.625 1.55-.894 3.1-.745 4.562.18 1.699.865 2.742 1.968 3.07 1.043.298 2.385-.119 3.816-1.162.954-.686 1.789-1.58 2.504-2.594l-1.818-.805a9.06 9.06 0 0 1-.984.835c-.924.685-1.7.984-2.296.924-.715-.06-1.133-.656-1.252-1.7-.09-.804.03-1.639.358-2.444l6.26 2.802c.269-.387.477-.804.686-1.222.03-.09.09-.179.12-.238.059-.09.089-.18.119-.298 0 0 0-.03.03-.03 0-.03.03-.06.03-.09.655-1.55.923-3.13.744-4.62-.178-1.7-.864-2.743-1.967-3.071-1.044-.298-2.385.119-3.816 1.162a13.314 13.314 0 0 0-2.504 2.654z"/>
        </g>
        <g>
            <path fill="#1A82FF" d="M340.463 216.335l2.505-3.22c2.116-2.713 6.051-4.055 11.269-3.339 10.404 1.431 22.03 10.434 25.966 20.123 1.968 4.8 1.64 8.884-.447 11.567l-2.624 3.37-36.669-28.501z"/>
            <path fill="#40A0FF" d="M377.699 233.119c1.967 4.8 1.64 8.884-.447 11.567-2.117 2.713-6.052 4.055-11.27 3.34-10.404-1.432-22.03-10.435-25.966-20.124-1.967-4.8-1.64-8.884.447-11.567 2.117-2.713 6.052-4.055 11.27-3.34 10.404 1.462 22.03 10.465 25.966 20.124z"/>
            <path fill="#1A82FF" d="M365.506 222.208c4.501 3.488 7.9 7.75 9.629 11.954 1.49 3.697 1.49 6.827-.09 8.825-1.55 1.997-4.71 2.832-8.705 2.266-4.59-.627-9.6-2.922-14.13-6.47-4.502-3.488-7.9-7.75-9.63-11.954-1.49-3.697-1.49-6.827.09-8.825 1.55-1.997 4.71-2.832 8.705-2.266 4.56.656 9.6 2.952 14.13 6.47z"/>
            <path fill="#0F7CE8" d="M366.698 244.835c-4.591-.626-9.6-2.921-14.13-6.47-4.503-3.487-7.901-7.75-9.63-11.954-1.461-3.547-1.461-6.588-.09-8.616-.06.06-.119.15-.179.21-1.55 1.997-1.58 5.127-.089 8.824 1.7 4.203 5.128 8.466 9.63 11.954 4.53 3.518 9.57 5.814 14.13 6.47 3.965.536 7.155-.269 8.706-2.266a.65.65 0 0 0 .149-.239c-1.58 1.878-4.68 2.624-8.497 2.087z"/>
            <path fill="#FFF" d="M364.104 227.872l-1.67 2.117c.3.506.567 1.043.806 1.64 1.282 3.13.447 4.77-2.206 4.412a6.483 6.483 0 0 1-3.13-1.342l5.723-7.304a13.019 13.019 0 0 0-1.311-1.252 4.646 4.646 0 0 0-.597-.477c-.03-.03-.06-.03-.089-.06-.06-.03-.12-.09-.179-.119-1.818-1.342-3.786-2.206-5.754-2.474-2.265-.328-3.905.238-4.65 1.58-.716 1.252-.626 3.16.268 5.366a14.735 14.735 0 0 0 2.564 4.144l1.67-2.117c-.299-.477-.537-1.014-.776-1.55-.596-1.431-.745-2.564-.477-3.34.328-.893 1.222-1.281 2.653-1.072 1.104.149 2.147.596 3.071 1.282l-5.724 7.274c.418.447.895.894 1.342 1.312.09.089.179.149.298.238.12.09.209.179.328.268l.03.03c.03.03.06.06.119.09 1.818 1.37 3.816 2.235 5.813 2.504 2.266.328 3.906-.239 4.68-1.58.746-1.252.657-3.16-.238-5.366-.536-1.491-1.46-2.922-2.564-4.204z"/>
        </g>
        <g transform="translate(17.302 325.218)">
            <circle cx="13.943" cy="13.536" r="10.137" fill="#111D28" opacity=".2" transform="rotate(-24.43 13.943 13.536)"/>
            <circle cx="13.586" cy="13.442" r="10.137" fill="#40A0FF" transform="rotate(-24.43 13.586 13.442)"/>
            <circle cx="13.586" cy="13.442" r="8.258" fill="#1A82FF" transform="rotate(-24.43 13.586 13.442)"/>
            <path fill="#0F7CE8" d="M6.35 16.963c-1.878-4.144-.06-9.033 4.114-10.94a8.149 8.149 0 0 1 6.141-.27 8.275 8.275 0 0 0-6.469.15C5.992 7.78 4.144 12.67 6.022 16.843c.954 2.118 2.713 3.638 4.77 4.383a8.369 8.369 0 0 1-4.442-4.263z"/>
            <path fill="#FFF" d="M15.92 9.838l-.716 1.878c.18.239.328.507.477.805.746 1.64.418 2.981-.864 3.578a2.249 2.249 0 0 1-1.58.119l2.474-6.559a5.25 5.25 0 0 0-.686-.417c-.09-.06-.208-.09-.298-.12h-.03c-.03 0-.06-.03-.089-.03-.924-.327-1.908-.238-2.892.18-1.103.506-1.878 1.371-2.176 2.474-.298 1.043-.179 2.266.358 3.428.357.776.834 1.431 1.4 1.908l.716-1.908c-.149-.238-.298-.477-.447-.775-.358-.745-.477-1.43-.358-2.027.12-.686.537-1.222 1.223-1.52.536-.239 1.073-.269 1.55-.12l-2.445 6.56c.239.178.477.297.716.416.06.03.09.06.149.06.06.03.12.06.179.06h.03c.03 0 .03 0 .06.03.923.327 1.937.268 2.92-.18 1.104-.506 1.879-1.37 2.207-2.504.298-1.043.179-2.265-.358-3.428-.447-.775-.924-1.431-1.52-1.908z"/>
        </g>
    </g>
</svg>
