<svg xmlns="http://www.w3.org/2000/svg" width="1440" height="950" viewBox="0 0 1440 950">
    <g fill="#FFF" fill-rule="nonzero" opacity=".05">
        <path d="M719.924 291.962l960.774-38.296v76.555zM719.924 291.962l-960.773 38.259v-76.555zM719.924 291.962l38.251 960.925h-76.502zM719.924 291.962L681.674-669h76.501z"/>
        <g>
            <path d="M719.924 291.962l706.397 652.399-54.088 54.137zM719.924 291.962L13.49-360.474l54.126-54.137zM719.924 291.962L67.616 998.498 13.49 944.36zM719.924 291.962l652.309-706.573 54.088 54.137z"/>
        </g>
        <g>
            <path d="M719.924 291.962l876.448-395.477 28.688 70.96zM719.924 291.962l-876.485 395.44-28.65-70.96zM719.924 291.962l395.4 876.62-70.984 28.694zM719.924 291.962L324.525-584.695l70.984-28.656z"/>
            <g>
                <path d="M719.924 291.962l899.315 340.244-29.898 70.43zM719.924 291.962L-179.428-48.282l29.936-70.468zM719.924 291.962l-340.177 899.492-70.454-29.904zM719.924 291.962l340.177-899.53 70.455 29.905z"/>
            </g>
        </g>
        <g>
            <path d="M719.47 291.319l935.543-220.83 14.624 75.083zM719.47 291.319l-935.582 220.83-14.586-75.122zM719.47 291.319l220.83 935.543-75.122 14.586zM719.47 291.319L498.64-644.263l75.121-14.586z"/>
            <g>
                <path d="M719.47 291.319l817.684 505.37-42.775 63.445zM719.47 291.319L-98.215-214.09l42.776-63.445zM719.47 291.319l-505.408 817.684-63.408-42.775zM719.47 291.319l505.408-817.723 63.407 42.814z"/>
            </g>
            <g>
                <path d="M719.47 291.319l784.696-555.213 41.68 64.164zM719.47 291.319L-65.264 846.53l-41.642-64.163zM719.47 291.319l555.212 784.695-64.163 41.68zM719.47 291.319L164.258-493.415l64.163-41.68z"/>
                <g>
                    <path d="M719.47 291.319l947.484 162.26-15.908 74.856zM719.47 291.319L-228.015 129.02l15.909-74.82zM719.47 291.319l-162.298 947.446-74.819-15.908zM719.47 291.319l162.26-947.485 74.857 15.909z"/>
                </g>
            </g>
        </g>
    </g>
</svg>
