<svg xmlns="http://www.w3.org/2000/svg" width="965" height="555" viewBox="0 0 965 555">
    <g fill="none" fill-rule="nonzero">
        <path fill="#F3C017" d="M338.183 299.004c-15.583 6.518-42.47 46.391-57.544 52.655 15.074-6.264 62.33 2.699 77.913-3.82l-20.37-48.835z"/>
        <path fill="#FFF" d="M317.202 336.432c2.394-2.546 4.838-5.245 7.384-7.995 5.806-6.314 12.477-13.698 18.078-18.74l11.458 27.448c-7.537.459-17.467.051-26.022-.305-3.768-.153-7.435-.306-10.898-.408z" opacity=".4"/>
        <path fill="#F3C017" d="M462.844 369.838c-14.666 3.667-43.744 35.341-57.9 38.906 14.156-3.565 54.742 10.694 69.408 7.027l-11.508-45.933z"/>
        <path fill="#FFF" d="M439.266 400.138a503.483 503.483 0 0 0 7.588-6.111c5.958-4.838 12.883-10.44 18.485-14.157l6.467 25.818c-6.722-.61-15.48-2.291-23.017-3.768-3.26-.611-6.468-1.222-9.523-1.782z" opacity=".4"/>
        <path fill="#F3C017" d="M455.205 242.071c-12.833 5.194-35.239 37.684-47.664 42.674 12.425-5.041 51.076 2.75 63.96-2.444l-16.296-40.23z"/>
        <path fill="#FFF" d="M437.636 272.574c1.986-2.087 4.023-4.277 6.111-6.518 4.787-5.143 10.338-11.101 15.023-15.226l9.166 22.61c-6.162.306-14.31-.153-21.337-.51-3.106-.05-6.11-.203-8.963-.356z" opacity=".4"/>
        <g transform="translate(453.219 335.77)">
            <path fill="#FBFBFB" d="M39.11 79.695c-.103 0-.255 0-.357.051-.611.051-1.273.051-1.884.051-1.12 0-2.241-.102-3.361-.204-.815.306-1.732.662-2.648.968 0 0 6.722.967 14.055-1.986-1.834.56-3.769.917-5.806 1.12z"/>
            <path fill="#720C11" d="M3.921 52.044c0-10.592 6.213-19.81 15.48-24.8C8.302 31.267.459 41.248.459 52.96c0 19.402 13.393 27.6 29.943 27.6h1.07C15.99 79.44 3.92 70.785 3.92 52.045z"/>
            <path fill="#FBFBFB" d="M9.574 51.127c0-12.323 7.384-22.814 17.823-26.836C13.953 27.448 3.972 38.65 3.972 52.044c0 .56 0 1.12.051 1.68 1.68-.764 3.616-1.477 5.602-2.088-.051-.152-.051-.305-.051-.509z"/>
            <path fill="#ED2A28" d="M30.86 80.51c.916-.306 1.782-.662 2.648-.968-13.342-1.73-23.73-13.494-23.985-27.906-1.986.611-3.87 1.375-5.602 2.088C4.685 71.09 16.143 79.288 30.86 80.51zM64.164 49.701c-.51 10.541-7.028 19.148-15.43 20.879-2.394 2.393-6.875 5.805-15.175 9.013 1.12.153 2.19.204 3.36.204 15.074 0 27.296-12.833 27.296-28.67-.051-.458-.051-.967-.051-1.426z"/>
            <ellipse cx="45.678" cy="48.326" fill="#720C11" rx="18.485" ry="22.508"/>
            <path fill="#ED2A28" d="M27.193 48.326c0-12.425 8.3-22.508 18.485-22.508 2.037 0 4.023.408 5.857 1.171a26.11 26.11 0 0 0-14.666-4.48c-15.074 0-27.295 12.832-27.295 28.67v.508a24.602 24.602 0 0 1 1.833-.509c4.94-1.222 12.374-2.19 15.786-2.597v-.255z"/>
            <path fill="#FBFBFB" d="M9.574 51.687C9.828 66.1 20.166 77.913 33.559 79.593c8.3-3.208 12.832-6.62 15.175-9.013-.968.204-1.986.305-3.056.305-10.133 0-18.383-9.98-18.485-22.304-3.412.407-10.847 1.375-15.786 2.597-.611.102-1.222.306-1.833.51z"/>
            <path fill="#FF4D4D" d="M41.095 3.565s13.75 20.369 5.245 48.53c0 0-4.786-13.291-26.53-18.995 0 0 10.286-8.911 1.374-26.785l19.911-2.75z"/>
            <path fill="#ED2A28" d="M46.34 52.044c8.454-28.16-5.245-48.53-5.245-48.53L57.136.306s10.745 24.952 2.495 41.655l-13.29 10.083z"/>
        </g>
        <g transform="translate(445.58 229.85)">
            <path fill="#720C11" d="M31.369 55.303c-15.735 0-28.466-12.12-28.466-27.091 0-6.57 2.444-12.578 6.518-17.263C3.717 15.889.153 23.017.153 30.96c0 14.972 12.73 27.092 28.466 27.092 8.81 0 16.703-3.82 21.948-9.828-5.041 4.379-11.814 7.078-19.198 7.078z"/>
            <circle cx="41.757" cy="18.536" r="16.55" fill="#720C11"/>
            <path fill="#ED2A28" d="M59.53 32.082c-3.31 9.879-13.037 17.06-24.495 17.06-14.207 0-25.716-10.95-25.716-24.495-2.139.917-4.278 2.19-6.416 3.666.05 14.921 12.781 26.99 28.466 26.99 14.31 0 26.175-10.083 28.16-23.221z"/>
            <path fill="#FBFBFB" d="M26.939 1.426C13.29 3.463 2.903 14.666 2.903 28.212v.101c2.138-1.476 4.277-2.75 6.416-3.666 0-10.847 7.384-20.013 17.62-23.221zM35.035 49.141c14.208 0 25.717-10.948 25.717-24.494 0-4.838-1.477-9.37-4.023-13.19a16.39 16.39 0 0 1 1.578 7.08c0 9.114-7.384 16.55-16.55 16.55-8.911 0-16.193-7.08-16.499-15.94-2.546.51-7.486 1.833-15.939 5.5 0 13.546 11.509 24.494 25.716 24.494z"/>
            <path fill="#ED2A28" d="M25.207 18.536c0-9.115 7.384-16.55 16.55-16.55 1.579 0 3.107.255 4.583.662A26.832 26.832 0 0 0 35.035.153C20.828.153 9.32 11.1 9.32 24.647c8.402-3.667 13.393-4.99 15.939-5.5 0-.203-.05-.407-.05-.61z"/>
        </g>
        <path fill="#720C11" d="M714.406 259.894c58.358-30.91 120.79-90.389 119.67-118.295-21.49-16.244-97.264-13.495-164.992 11.662-6.264 2.342-26.888 23.883-6.62 68.186 16.957 37.073 40.738 42.114 51.942 38.447zM460.246 313.67c-6.62-14.666-5.703-30.198 1.324-39.568a1100.7 1100.7 0 0 0-25.36 19.911s-9.624 11.203 1.477 31.675c10.236 18.841 24.596 19.096 24.596 19.096 10.44-1.833 20.726-3.82 30.758-5.907-12.323.203-25.767-9.625-32.795-25.207z"/>
        <path fill="#FBFBFB" d="M481.889 281.282c-.866-9.93 1.018-19.147 5.347-26.123-8.402 6.009-17.009 12.323-25.666 18.943-4.328 5.805-6.365 13.953-5.652 22.814 7.18-4.583 15.786-9.777 25.97-15.634zM496.3 315.707a2760.037 2760.037 0 0 1-28.364 10.133c7.18 8.352 16.397 13.19 25.054 13.037 2.75-.56 5.5-1.171 8.199-1.783.05 0 .102-.05.153-.05l1.527-.306a739.285 739.285 0 0 0 20.879-4.99c-9.625-.968-19.555-6.773-27.448-16.041z"/>
        <path fill="#ED2A28" d="M487.185 301.142c-3.005-6.62-4.685-13.392-5.245-19.86-10.185 5.857-18.79 11.05-26.022 15.634.407 5.449 1.833 11.152 4.38 16.754a53.234 53.234 0 0 0 7.689 12.17c9.013-3.157 18.587-6.569 28.364-10.133a62.005 62.005 0 0 1-9.166-14.565zM514.53 263.408c-1.12-12.323 1.478-23.73 7.283-31.929a966.393 966.393 0 0 0-34.577 23.68c-4.329 6.976-6.162 16.244-5.347 26.123a1117.732 1117.732 0 0 1 32.642-17.874z"/>
        <path fill="#ED2A28" d="M531.183 302.517c-11.763 4.584-23.476 8.963-34.883 13.139 7.842 9.268 17.823 15.073 27.448 16.04a897.575 897.575 0 0 0 40.484-11.152c-11.509-.407-23.577-6.976-33.05-18.027z"/>
        <path fill="#FBFBFB" d="M520.489 285.662c-3.361-7.384-5.296-14.972-5.958-22.203-12.375 6.518-23.17 12.476-32.591 17.874.56 6.468 2.291 13.24 5.245 19.86 2.495 5.5 5.602 10.389 9.166 14.565 11.407-4.176 23.12-8.556 34.883-13.139-4.227-4.888-7.842-10.592-10.745-16.957zM544.168 248.233c3.463-1.731 6.824-3.412 10.134-5.041-1.477-14.87 1.935-28.569 9.574-37.786a1002.94 1002.94 0 0 0-42.063 26.073c-5.856 8.199-8.453 19.606-7.282 31.93a1504.847 1504.847 0 0 1 29.637-15.176z"/>
        <path fill="#FBFBFB" d="M572.533 285.61a1174 1174 0 0 0-10.032 4.278c-10.236 4.329-20.777 8.556-31.318 12.63 9.472 10.999 21.54 17.619 33.05 18.026 16.142-4.888 31.317-9.93 45.321-14.971-12.884-.255-26.43-7.588-37.021-19.962z"/>
        <path fill="#ED2A28" d="M572.533 285.61c-4.532-5.295-8.555-11.508-11.713-18.484-3.615-7.944-5.754-16.092-6.518-23.934-3.259 1.63-6.62 3.31-10.134 5.041-10.745 5.347-20.624 10.44-29.688 15.175.662 7.231 2.597 14.819 5.958 22.203 2.903 6.365 6.57 12.069 10.694 16.906a1604.44 1604.44 0 0 0 31.318-12.629 502.582 502.582 0 0 0 10.083-4.277zM603.698 219.258c-1.833-15.94 1.579-30.707 9.574-40.79-14.36 7.23-30.962 16.193-49.345 26.938-7.639 9.268-11.05 22.967-9.574 37.786 19.911-9.829 36.156-17.722 49.345-23.934zM622.947 263.204c-14.106 6.519-30.91 14.055-50.414 22.407 10.592 12.374 24.137 19.707 37.021 19.962 20.42-7.333 38.447-14.564 53.47-21.082-13.902 0-28.62-7.894-40.077-21.287z"/>
        <path fill="#FBFBFB" d="M560.82 267.126c3.158 6.976 7.18 13.189 11.713 18.485 19.503-8.352 36.308-15.888 50.414-22.407-4.838-5.652-9.064-12.272-12.425-19.656-3.667-8.097-5.907-16.346-6.824-24.29-13.19 6.263-29.434 14.105-49.396 23.984.815 7.792 2.954 15.94 6.518 23.884zM672.496 238.914c-7.079 3.768-23.73 12.323-49.549 24.29 11.458 13.393 26.175 21.236 40.077 21.287 32.59-14.055 51.382-24.597 51.382-24.597-9.116 3.005-26.583.204-41.91-20.98zM669.135 153.312s-21.236 7.69-55.863 25.156c-7.945 10.083-11.407 24.85-9.574 40.79 30.605-14.514 44.762-20.319 50.974-22.61-4.43-27.652 9.472-41.503 14.463-43.336z"/>
        <path fill="#ED2A28" d="M662.464 221.498c-4.227-9.268-6.671-17.518-7.843-24.85-6.161 2.291-20.318 8.096-50.974 22.61.917 7.944 3.157 16.193 6.824 24.29 3.36 7.435 7.587 14.055 12.425 19.656 25.818-11.967 42.42-20.522 49.549-24.29-3.463-4.787-6.824-10.592-9.981-17.416z"/>
        <path fill="#FBFBFB" d="M964.95 81.459l-135.916 56.728s-.458 2.037.917 5.5c1.375 3.412 4.328 4.583 4.328 4.583L964.95 81.46z"/>
        <g>
            <g transform="translate(331.512 284.338)">
                <path fill="#720C11" d="M3.208 31.929a31.098 31.098 0 0 1 6.671-19.3C3.972 17.976.306 25.665.306 34.221c0 16.04 13.036 29.077 29.077 29.077 1.07 0 2.139-.051 3.208-.204C16.245 62.178 3.208 48.581 3.208 31.93z"/>
                <circle cx="46.799" cy="25.716" r="22.814" fill="#720C11"/>
                <path fill="#FFF" d="M7.18 29.18s.051 0 .051-.052c.56-13.494 9.93-24.698 22.508-28.11C14.87 3.26 3.412 16.041 3.21 31.522c1.17-.713 2.494-1.477 3.971-2.343z"/>
                <path fill="#ED2A28" d="M24.087 23.73C25.105 12.07 34.883 2.903 46.799 2.903c1.63 0 3.208.152 4.736.509A30.295 30.295 0 0 0 37.632.05c-16.346 0-29.688 12.934-30.4 29.128 6.365-3.564 14.054-5.041 16.855-5.449z"/>
                <path fill="#FFF" d="M36.512 63.094c7.18-.458 13.699-3.36 18.79-7.893a30.666 30.666 0 0 1-15.276 5.55c-1.884 1.325-2.954 2.038-3.514 2.343z"/>
                <path fill="#ED2A28" d="M39.975 60.752a36.03 36.03 0 0 1-2.343.102c-16.804 0-30.4-13.597-30.4-30.402 0-.407 0-.865.05-1.273 0 0-.05 0-.05.051-1.478.815-2.802 1.63-3.973 2.393v.357c0 17.263 14.004 31.216 31.216 31.216.662 0 1.375-.05 2.037-.05.56-.357 1.63-1.07 3.463-2.394zM48.02 48.48l-.101.254s-3.208 8.708-7.944 12.069c14.259-1.07 25.818-12.018 27.753-26.073-3.31 7.74-10.846 13.29-19.707 13.75z"/>
                <path fill="#FFF" d="M23.985 23.73c-2.903.459-10.44 1.986-16.754 5.45v1.272c0 16.805 13.597 30.402 30.401 30.402.51 0 1.07 0 1.58-.051 4.735-3.361 8.707-12.375 8.707-12.375-.356 0-.713.051-1.12.051-12.578 0-22.814-10.185-22.814-22.814.05-.61-.051-1.273 0-1.935z"/>
            </g>
            <path fill="#FF4D4D" d="M451.742 310.003s-32.285-1.375-64.774 5.704c0 0 1.884-2.292 1.374-10.542-.509-7.689-3.666-8.25-3.666-8.25s33.61-7.536 64.775-6.16c0 .05-1.375 9.063 2.291 19.248z"/>
            <path fill="#ED2A28" d="M451.742 310.003s-32.285-1.375-64.774 5.704c0 0 9.064-1.885 11.355 3.564.968 2.292-.509 3.616-.509 3.616s15.888-4.074 40.943-4.227l12.985-8.657z"/>
        </g>
        <path fill="#FFF" d="M708.55 147.455c-12.782 0-17.57 4.176-17.57 17.569 0-13.393-4.735-17.569-17.568-17.569 12.782 0 17.569-4.175 17.569-17.568 0 13.393 4.736 17.568 17.568 17.568zM823.382 178.519c-5.958 0-8.148 1.935-8.148 8.147 0-6.212-2.19-8.147-8.148-8.147 5.958 0 8.148-1.935 8.148-8.148 0 6.213 2.19 8.148 8.148 8.148z"/>
        <g>
            <path fill="#1A82FF" d="M311.804 472.5l-2.138 3.157c-1.834 2.7-5.398 4.176-10.389 3.82-9.828-.713-21.286-8.454-25.563-17.314-2.14-4.38-2.088-8.25-.255-10.898l2.24-3.31 36.105 24.545z"/>
            <path fill="#40A0FF" d="M275.853 459.005c-2.14-4.38-2.088-8.25-.255-10.897 1.833-2.7 5.398-4.176 10.388-3.82 9.829.713 21.286 8.454 25.564 17.314 2.139 4.38 2.088 8.25.254 10.898-1.833 2.699-5.397 4.176-10.388 3.82-9.828-.765-21.286-8.505-25.563-17.315z"/>
            <path fill="#1A82FF" d="M287.972 468.477c-4.43-3.004-7.893-6.773-9.777-10.643-1.63-3.36-1.782-6.314-.458-8.3 1.324-1.987 4.277-2.954 8.046-2.649 4.328.306 9.166 2.14 13.647 5.195 4.43 3.004 7.893 6.773 9.777 10.643 1.63 3.36 1.783 6.314.459 8.3-1.324 1.986-4.278 2.954-8.046 2.648-4.329-.305-9.166-2.139-13.648-5.194z"/>
            <path fill="#0F7CE8" d="M285.477 447.344c4.329.305 9.166 2.139 13.648 5.194 4.43 3.004 7.893 6.773 9.777 10.643 1.578 3.26 1.782 6.11.61 8.046.052-.051.103-.153.154-.204 1.324-1.986 1.17-4.888-.459-8.3-1.884-3.87-5.347-7.639-9.777-10.643-4.481-3.056-9.319-4.889-13.647-5.195-3.769-.254-6.671.713-8.046 2.649-.051.05-.102.152-.153.203 1.426-1.782 4.277-2.699 7.893-2.393z"/>
            <path fill="#FFF" d="M288.94 463.08l1.426-2.089a14.03 14.03 0 0 1-.866-1.476c-1.375-2.852-.713-4.43 1.782-4.278 1.07.05 2.088.458 3.005 1.07l-4.94 7.18a8.7 8.7 0 0 0 1.324 1.069c.204.153.408.255.56.407.051 0 .051.051.102.051.051.051.102.102.153.102 1.782 1.171 3.667 1.833 5.55 1.986 2.14.153 3.616-.458 4.278-1.782.611-1.222.408-3.005-.56-5.042-.662-1.324-1.579-2.597-2.648-3.717l-1.426 2.088c.306.458.56.916.815 1.426.611 1.324.866 2.342.662 3.106-.255.866-1.07 1.273-2.393 1.171-1.019-.05-2.037-.407-2.954-1.018l4.94-7.18c-.408-.408-.866-.815-1.375-1.12-.102-.052-.204-.154-.306-.204-.102-.102-.204-.153-.356-.255 0 0-.051 0-.051-.051-.051 0-.051-.05-.102-.05-1.782-1.172-3.718-1.885-5.602-1.987-2.138-.153-3.666.458-4.277 1.782-.611 1.223-.408 3.005.56 5.042.611 1.324 1.579 2.648 2.699 3.768z"/>
        </g>
        <g>
            <path fill="#1A82FF" d="M821.192 36.595l-3.514 5.194c-3.004 4.43-8.911 6.875-17.059 6.264-16.194-1.171-35.035-13.902-42.063-28.466-3.514-7.232-3.412-13.546-.458-17.926l3.717-5.448 59.377 40.382z"/>
            <path fill="#40A0FF" d="M762.12 14.392c-3.513-7.23-3.411-13.545-.457-17.925 3.004-4.43 8.911-6.874 17.059-6.263 16.194 1.17 35.035 13.902 42.063 28.466 3.513 7.231 3.412 13.546.458 17.925-3.004 4.43-8.912 6.875-17.06 6.264-16.244-1.223-35.035-13.953-42.062-28.467z"/>
            <path fill="#1A82FF" d="M781.981 30.026c-7.282-4.94-12.985-11.152-16.04-17.467-2.7-5.55-2.954-10.388-.765-13.647 2.19-3.26 7.028-4.838 13.19-4.38 7.129.51 15.124 3.565 22.457 8.555 7.282 4.94 12.985 11.153 16.04 17.467 2.7 5.55 2.954 10.388.764 13.648-2.19 3.259-7.027 4.837-13.189 4.379-7.078-.56-15.073-3.565-22.457-8.555z"/>
            <path fill="#0F7CE8" d="M777.907-4.806c7.13.51 15.124 3.565 22.457 8.555 7.282 4.94 12.986 11.153 16.041 17.467 2.597 5.347 2.954 10.032.968 13.291.102-.102.153-.204.254-.356 2.19-3.26 1.936-8.097-.763-13.648-3.056-6.314-8.76-12.527-16.041-17.467-7.333-4.99-15.328-8.045-22.458-8.555-6.212-.458-10.999 1.12-13.189 4.38-.102.102-.153.254-.203.356 2.291-2.953 6.976-4.43 12.934-4.023z"/>
            <path fill="#FFF" d="M783.56 21.114l2.342-3.412c-.51-.763-1.018-1.578-1.426-2.444-2.291-4.685-1.171-7.333 2.954-7.027 1.731.101 3.412.713 4.94 1.731l-8.097 11.814c.662.662 1.374 1.222 2.138 1.783.306.254.611.458.968.662.05.05.102.05.102.101.102.051.203.153.305.204 2.903 1.884 6.06 3.005 9.116 3.208 3.564.255 5.958-.764 7.027-2.902 1.018-2.037.662-4.94-.917-8.25-1.069-2.19-2.546-4.278-4.379-6.162l-2.342 3.412c.509.713.916 1.477 1.324 2.343 1.069 2.138 1.425 3.87 1.069 5.092-.407 1.426-1.782 2.088-3.972 1.935-1.732-.102-3.361-.713-4.889-1.68l8.097-11.815c-.713-.662-1.426-1.324-2.24-1.884-.153-.102-.306-.203-.459-.356a3.425 3.425 0 0 0-.56-.357l-.051-.05c-.05-.052-.102-.102-.153-.102-2.953-1.936-6.11-3.056-9.217-3.31-3.565-.255-6.009.763-7.078 2.902-1.019 2.037-.662 4.94.916 8.25a22.975 22.975 0 0 0 4.482 6.314z"/>
        </g>
        <g>
            <path fill="#1A82FF" d="M556.645 81.764l4.94 2.444c4.175 2.037 7.027 6.875 7.536 14.004.967 14.208-7.74 32.082-19.504 39.924-5.856 3.922-11.305 4.634-15.48 2.598l-5.144-2.547 27.652-56.423z"/>
            <path fill="#40A0FF" d="M544.678 135.692c-5.857 3.921-11.305 4.634-15.481 2.597-4.176-2.037-7.028-6.874-7.537-14.004-.967-14.207 7.74-32.082 19.504-39.924 5.856-3.92 11.305-4.634 15.48-2.597 4.176 2.037 7.028 6.875 7.537 14.004.917 14.157-7.791 32.082-19.503 39.924z"/>
            <path fill="#1A82FF" d="M555.728 116.545c-3.412 6.925-8.097 12.629-13.19 16.04-4.48 3.005-8.656 3.82-11.712 2.343-3.055-1.527-5.041-5.5-5.398-10.897-.407-6.264 1.223-13.546 4.635-20.523 3.411-6.925 8.096-12.629 13.189-16.04 4.481-3.005 8.657-3.82 11.712-2.343 3.056 1.528 5.042 5.5 5.398 10.898.458 6.263-1.171 13.545-4.634 20.522z"/>
            <path fill="#0F7CE8" d="M526.09 124.387c-.407-6.264 1.223-13.546 4.635-20.522 3.411-6.926 8.096-12.63 13.189-16.041 4.328-2.903 8.351-3.768 11.356-2.495a1.065 1.065 0 0 1-.306-.204c-3.055-1.528-7.231-.662-11.712 2.343-5.093 3.411-9.778 9.115-13.19 16.04-3.411 6.977-5.092 14.259-4.634 20.523.357 5.397 2.343 9.37 5.398 10.897.102.051.204.102.357.153-2.903-1.63-4.736-5.5-5.092-10.694z"/>
            <path fill="#FFF" d="M547.886 116.24l-3.26-1.63c-.56.56-1.222 1.07-1.934 1.527-3.769 2.547-6.213 1.936-6.468-1.68-.102-1.528.204-3.055.917-4.532l11.254 5.601c.458-.662.917-1.375 1.273-2.087l.458-.917c0-.051.051-.102.051-.102.051-.102.102-.204.153-.255 1.273-2.75 1.884-5.601 1.68-8.3-.203-3.106-1.374-5.092-3.36-5.754-1.885-.612-4.38.05-7.028 1.833-1.782 1.171-3.412 2.75-4.787 4.532l3.26 1.63c.56-.51 1.17-.968 1.833-1.426 1.731-1.172 3.208-1.68 4.277-1.528 1.273.153 2.037 1.273 2.19 3.208.102 1.477-.204 3.005-.866 4.43l-11.203-5.55c-.51.713-.967 1.426-1.375 2.139-.102.152-.153.305-.254.458-.102.153-.153.356-.255.51 0 0 0 .05-.051.05-.05.051-.05.102-.102.153-1.324 2.8-1.884 5.652-1.731 8.351.203 3.107 1.375 5.093 3.36 5.755 1.885.61 4.38 0 7.028-1.834 1.884-1.12 3.514-2.75 4.94-4.583z"/>
        </g>
        <g>
            <path fill="#1A82FF" d="M311.142 249.353l2.445 2.954c2.088 2.495 2.495 6.365.764 11-3.412 9.267-14.055 18.128-23.73 19.758-4.787.814-8.505-.306-10.542-2.75l-2.546-3.056 33.61-27.906z"/>
            <path fill="#40A0FF" d="M288.227 280.111c-4.787.815-8.504-.305-10.541-2.75-2.088-2.495-2.495-6.365-.764-11 3.412-9.267 14.055-18.128 23.73-19.758 4.787-.814 8.504.306 10.541 2.75 2.088 2.496 2.496 6.366.764 11-3.463 9.268-14.055 18.129-23.73 19.758z"/>
            <path fill="#1A82FF" d="M300.703 271.149c-4.125 3.411-8.708 5.703-12.934 6.416-3.718.611-6.57-.051-8.097-1.833-1.528-1.834-1.63-4.889-.357-8.454 1.528-4.074 4.634-8.198 8.81-11.661 4.125-3.412 8.708-5.704 12.935-6.416 3.717-.612 6.569.05 8.096 1.833 1.528 1.833 1.63 4.888.357 8.453-1.528 4.023-4.634 8.199-8.81 11.662z"/>
            <path fill="#0F7CE8" d="M279.672 267.635c1.527-4.074 4.634-8.199 8.81-11.662 4.124-3.412 8.707-5.703 12.934-6.416 3.565-.611 6.366 0 7.893 1.68-.05-.05-.102-.152-.153-.203-1.527-1.833-4.379-2.495-8.096-1.833-4.227.712-8.81 3.004-12.935 6.416-4.176 3.463-7.282 7.587-8.81 11.661-1.324 3.565-1.17 6.62.357 8.454.05.05.102.152.153.203-1.324-1.884-1.375-4.888-.153-8.3z"/>
            <path fill="#FFF" d="M295.815 268.704l-1.58-1.935c-.508.153-1.069.306-1.68.408-3.106.509-4.48-.56-3.615-2.903.356-.968 1.018-1.884 1.833-2.597l5.55 6.722c.51-.306.968-.611 1.427-.968.203-.153.356-.305.56-.458l.05-.051.153-.153c1.58-1.375 2.801-3.004 3.412-4.787.764-2.037.56-3.615-.509-4.583-1.018-.916-2.8-1.222-4.99-.865a13.756 13.756 0 0 0-4.329 1.527l1.63 1.935c.509-.152 1.018-.305 1.578-.407 1.426-.255 2.496-.153 3.158.255.763.458.916 1.374.458 2.648a5.94 5.94 0 0 1-1.833 2.546l-5.5-6.722c-.51.305-1.019.61-1.477.967a1.11 1.11 0 0 0-.255.204c-.101.102-.203.153-.305.255 0 0-.051 0-.051.05-.05.052-.05.052-.102.102-1.63 1.375-2.8 3.056-3.463 4.838-.763 2.037-.56 3.616.51 4.634 1.018.917 2.8 1.222 4.99.866 1.426-.204 2.954-.764 4.38-1.528z"/>
        </g>
        <g>
            <path fill="#1A82FF" d="M439.47 57.525l-2.343 3.004c-1.986 2.546-5.652 3.82-10.592 3.157-9.777-1.324-20.726-9.726-24.494-18.79-1.833-4.533-1.579-8.352.356-10.898l2.445-3.157 34.628 26.684z"/>
            <path fill="#40A0FF" d="M404.434 41.891c-1.833-4.532-1.578-8.351.357-10.898 1.986-2.546 5.652-3.819 10.592-3.157 9.777 1.324 20.726 9.727 24.494 18.79 1.833 4.533 1.579 8.352-.356 10.899-1.986 2.546-5.653 3.819-10.593 3.157-9.828-1.273-20.776-9.676-24.494-18.791z"/>
            <path fill="#1A82FF" d="M415.943 52.127c-4.227-3.26-7.486-7.231-9.115-11.204-1.426-3.462-1.426-6.416.05-8.3 1.426-1.884 4.431-2.699 8.148-2.19 4.329.56 9.014 2.7 13.342 6.01 4.227 3.258 7.486 7.23 9.116 11.202 1.425 3.463 1.425 6.417-.051 8.3-1.426 1.885-4.43 2.7-8.148 2.19-4.329-.56-9.064-2.698-13.342-6.008z"/>
            <path fill="#0F7CE8" d="M414.72 30.84c4.33.56 9.014 2.7 13.343 6.01 4.226 3.259 7.486 7.23 9.115 11.203 1.375 3.36 1.426 6.212.102 8.097.05-.051.102-.153.153-.204 1.426-1.884 1.476-4.838.05-8.3-1.629-3.973-4.837-7.945-9.115-11.204-4.277-3.31-9.013-5.449-13.342-6.009-3.717-.509-6.722.306-8.147 2.19-.051.05-.102.153-.153.204 1.477-1.732 4.38-2.445 7.995-1.986z"/>
            <path fill="#FFF" d="M417.216 46.78l1.528-1.986a7.14 7.14 0 0 1-.764-1.528c-1.222-2.954-.458-4.481 2.037-4.176a6.777 6.777 0 0 1 2.953 1.222l-5.347 6.875c.408.407.815.815 1.223 1.171.203.153.356.306.56.459l.05.05c.052.051.103.102.153.102 1.732 1.273 3.565 2.037 5.398 2.292 2.14.305 3.667-.255 4.38-1.477.662-1.171.56-3.004-.255-5.041a13.048 13.048 0 0 0-2.444-3.87l-1.579 1.986c.255.458.51.916.713 1.476.56 1.375.713 2.394.458 3.107-.305.865-1.17 1.222-2.495 1.018a6.353 6.353 0 0 1-2.902-1.222l5.347-6.875c-.408-.407-.815-.865-1.274-1.222a1.11 1.11 0 0 1-.254-.204c-.102-.101-.204-.152-.306-.254 0 0-.05 0-.05-.051l-.102-.102c-1.732-1.273-3.565-2.088-5.45-2.342-2.138-.306-3.666.254-4.379 1.476-.662 1.172-.61 3.005.255 5.042.662 1.528 1.477 2.902 2.546 4.074z"/>
        </g>
        <g>
            <path fill="#1A82FF" d="M573.602 475.199l-4.685-2.088c-3.972-1.731-6.824-6.162-7.537-12.782-1.425-13.189 6.01-30.197 16.652-38.04 5.296-3.87 10.389-4.735 14.31-3.004l4.94 2.19-23.68 53.724z"/>
            <path fill="#40A0FF" d="M582.666 424.377c5.297-3.87 10.389-4.736 14.31-3.004 3.972 1.731 6.824 6.162 7.537 12.782 1.426 13.189-6.01 30.197-16.652 38.04-5.296 3.87-10.389 4.735-14.31 3.004-3.972-1.731-6.824-6.162-7.536-12.782-1.426-13.189 6.008-30.197 16.651-38.04z"/>
            <path fill="#1A82FF" d="M573.093 442.71c2.903-6.57 7.027-12.07 11.661-15.481 4.074-3.004 7.944-3.921 10.847-2.648 2.903 1.273 4.94 4.889 5.5 9.981.61 5.805-.611 12.68-3.565 19.3-2.902 6.57-7.027 12.069-11.661 15.48-4.074 3.005-7.944 3.922-10.847 2.649-2.903-1.273-4.94-4.889-5.5-9.981-.662-5.806.611-12.63 3.565-19.3z"/>
            <path fill="#0F7CE8" d="M600.439 434.256c.61 5.806-.611 12.68-3.565 19.3-2.902 6.57-7.027 12.07-11.661 15.481-3.921 2.852-7.639 3.82-10.541 2.75l.305.153c2.954 1.273 6.773.356 10.847-2.648 4.634-3.412 8.759-8.912 11.661-15.48 2.903-6.672 4.176-13.496 3.565-19.3-.56-5.042-2.546-8.658-5.5-9.982-.102-.05-.204-.102-.305-.102 2.8 1.426 4.634 4.99 5.194 9.828z"/>
            <path fill="#FFF" d="M580.426 442.659l3.106 1.375c.51-.51 1.12-1.019 1.732-1.477 3.462-2.546 5.703-2.037 6.06 1.324.152 1.375-.102 2.852-.663 4.227l-10.693-4.787c-.408.662-.815 1.324-1.12 1.986-.154.305-.255.56-.408.866 0 .05-.051.05-.051.101-.051.102-.051.153-.102.255-1.07 2.648-1.528 5.296-1.273 7.791.306 2.903 1.477 4.685 3.36 5.245 1.783.51 4.075-.203 6.52-1.986 1.629-1.17 3.055-2.699 4.277-4.43l-3.107-1.375c-.509.51-1.069.968-1.68 1.426-1.579 1.171-2.903 1.68-3.921 1.579-1.222-.102-1.935-1.12-2.139-2.903-.153-1.375.05-2.8.611-4.176l10.694 4.787c.458-.662.815-1.375 1.171-2.088.051-.153.153-.305.204-.407.102-.153.153-.306.204-.51 0 0 0-.05.05-.05 0-.051.051-.102.051-.153 1.12-2.648 1.58-5.347 1.274-7.893-.306-2.903-1.477-4.685-3.361-5.245-1.783-.51-4.074.203-6.519 1.986a22.743 22.743 0 0 0-4.277 4.532z"/>
        </g>
        <g>
            <path fill="#1A82FF" d="M856.075 359.399l4.277-5.5c3.616-4.634 10.338-6.925 19.25-5.703 17.772 2.444 37.632 17.823 44.354 34.373 3.36 8.199 2.8 15.175-.764 19.758l-4.481 5.755-62.636-48.683z"/>
            <path fill="#40A0FF" d="M919.678 388.069c3.361 8.199 2.8 15.175-.764 19.758-3.615 4.634-10.337 6.926-19.249 5.704-17.772-2.445-37.632-17.824-44.354-34.374-3.361-8.198-2.801-15.175.764-19.758 3.615-4.634 10.337-6.926 19.249-5.703 17.772 2.495 37.632 17.874 44.354 34.373z"/>
            <path fill="#1A82FF" d="M898.85 369.43c7.69 5.959 13.495 13.241 16.449 20.421 2.546 6.315 2.546 11.662-.153 15.074-2.648 3.411-8.046 4.837-14.87 3.87-7.842-1.07-16.397-4.99-24.137-11.05-7.69-5.959-13.495-13.24-16.449-20.421-2.546-6.315-2.546-11.661.153-15.073 2.648-3.412 8.046-4.838 14.87-3.87 7.791 1.12 16.397 5.04 24.137 11.05z"/>
            <path fill="#0F7CE8" d="M900.887 408.082c-7.842-1.07-16.397-4.99-24.137-11.05-7.69-5.959-13.495-13.24-16.449-20.42-2.495-6.06-2.495-11.255-.152-14.718-.102.102-.204.255-.306.357-2.648 3.412-2.699 8.758-.153 15.073 2.903 7.18 8.76 14.462 16.449 20.42 7.74 6.01 16.346 9.93 24.137 11.05 6.773.917 12.222-.458 14.87-3.87.102-.101.204-.254.255-.407-2.7 3.208-7.995 4.481-14.514 3.565z"/>
            <path fill="#FFF" d="M896.457 379.106l-2.852 3.616c.51.866.968 1.782 1.375 2.8 2.19 5.348.764 8.148-3.768 7.537-1.884-.254-3.718-1.018-5.347-2.291l9.777-12.476c-.713-.764-1.426-1.477-2.24-2.14-.306-.305-.662-.56-1.019-.814-.05-.05-.102-.05-.153-.102-.102-.05-.203-.153-.305-.204-3.107-2.291-6.467-3.768-9.828-4.226-3.87-.56-6.671.407-7.944 2.699-1.223 2.139-1.07 5.398.458 9.166a25.17 25.17 0 0 0 4.38 7.078l2.851-3.615c-.51-.815-.917-1.732-1.324-2.648-1.019-2.445-1.273-4.38-.815-5.704.56-1.527 2.088-2.19 4.532-1.833 1.885.255 3.667 1.019 5.245 2.19l-9.777 12.425c.713.764 1.528 1.528 2.292 2.24.152.154.305.255.509.408.204.153.356.306.56.458l.051.051c.051.051.102.102.204.153 3.106 2.343 6.518 3.82 9.93 4.278 3.87.56 6.67-.408 7.995-2.7 1.273-2.138 1.12-5.397-.408-9.165-.916-2.547-2.495-4.991-4.379-7.18z"/>
        </g>
        <g>
            <path fill="#1A82FF" d="M152.567 455.593l1.07 1.783c.916 1.527.865 3.615-.46 6.009-2.596 4.736-8.962 8.657-14.309 8.759-2.648.05-4.532-.815-5.448-2.292l-1.12-1.833 20.267-12.426z"/>
            <path fill="#40A0FF" d="M137.799 470.412c-2.648.051-4.532-.815-5.449-2.291-.916-1.528-.866-3.616.458-6.01 2.598-4.735 8.963-8.656 14.31-8.758 2.648-.051 4.532.815 5.449 2.291.916 1.528.865 3.616-.459 6.01-2.546 4.684-8.962 8.605-14.31 8.758z"/>
            <path fill="#1A82FF" d="M145.234 466.542c-2.495 1.528-5.143 2.393-7.486 2.444-2.037.051-3.514-.509-4.227-1.63-.662-1.12-.509-2.75.459-4.582 1.12-2.088 3.157-4.074 5.652-5.602 2.495-1.528 5.143-2.393 7.486-2.444 2.037-.051 3.514.509 4.227 1.63.662 1.12.509 2.75-.459 4.582-1.171 2.088-3.157 4.074-5.652 5.602z"/>
            <path fill="#0F7CE8" d="M134.183 463.028c1.12-2.088 3.158-4.074 5.653-5.601 2.495-1.528 5.143-2.394 7.486-2.445 1.986-.05 3.412.51 4.124 1.528 0-.05-.05-.102-.05-.102-.662-1.12-2.19-1.68-4.227-1.63-2.343.052-4.99.917-7.486 2.445-2.495 1.528-4.532 3.514-5.652 5.602-.968 1.782-1.172 3.462-.459 4.583 0 .05.051.101.102.101-.662-1.17-.458-2.75.51-4.48z"/>
            <path fill="#FFF" d="M142.739 464.861l-.713-1.17c-.306.05-.611.101-.917.101-1.731.051-2.343-.662-1.731-1.833.254-.51.662-.917 1.222-1.273l2.444 4.074c.306-.102.56-.255.815-.408.102-.05.204-.153.356-.203 0 0 .051 0 .051-.051.051 0 .051-.051.102-.051a6.858 6.858 0 0 0 2.24-2.292c.56-1.018.612-1.884.103-2.495-.459-.56-1.426-.866-2.598-.866-.814 0-1.63.204-2.444.459l.713 1.17c.306-.05.56-.101.866-.101.815 0 1.375.102 1.68.356.357.306.408.815.051 1.477-.254.51-.662.917-1.171 1.222l-2.444-4.074a4.514 4.514 0 0 0-.866.408c-.051.05-.102.05-.153.102-.05.05-.102.05-.204.102 0 0-.05 0-.05.05-.968.612-1.783 1.426-2.241 2.343-.56 1.018-.611 1.884-.102 2.546.458.56 1.426.866 2.597.866a6.86 6.86 0 0 0 2.394-.459z"/>
        </g>
        <g>
            <path fill="#1A82FF" d="M173.853 266.77l2.088 1.985c1.731 1.68 2.393 4.532 1.476 8.148-1.782 7.18-8.962 14.666-16.04 16.703-3.514 1.018-6.366.509-8.097-1.171l-2.14-2.088 22.713-23.578z"/>
            <path fill="#40A0FF" d="M159.289 291.62c-3.514 1.018-6.366.509-8.097-1.171-1.732-1.68-2.394-4.533-1.477-8.148 1.782-7.18 8.963-14.666 16.04-16.703 3.515-1.019 6.366-.51 8.098 1.171 1.731 1.68 2.393 4.532 1.477 8.148-1.783 7.18-8.963 14.666-16.041 16.703z"/>
            <path fill="#1A82FF" d="M167.844 283.88c-2.801 2.902-6.01 4.99-9.116 5.856-2.698.763-4.888.509-6.161-.713-1.273-1.222-1.63-3.514-.968-6.264.764-3.157 2.75-6.518 5.602-9.42 2.8-2.903 6.009-4.991 9.115-5.857 2.699-.764 4.889-.51 6.162.713 1.273 1.222 1.63 3.514.967 6.264-.814 3.157-2.8 6.518-5.601 9.42z"/>
            <path fill="#0F7CE8" d="M151.905 283.014c.764-3.158 2.75-6.518 5.601-9.421 2.801-2.903 6.01-4.99 9.116-5.856 2.597-.764 4.736-.56 6.06.56l-.153-.153c-1.273-1.222-3.463-1.477-6.162-.713-3.055.866-6.314 2.954-9.115 5.856-2.801 2.903-4.787 6.264-5.602 9.421-.662 2.75-.356 5.042.968 6.264l.152.153c-1.222-1.223-1.527-3.463-.865-6.111z"/>
            <path fill="#FFF" d="M163.974 282.504l-1.375-1.324a15.84 15.84 0 0 1-1.222.459c-2.292.662-3.361-.051-2.903-1.884a5.025 5.025 0 0 1 1.171-2.088l4.685 4.583c.357-.255.662-.51.968-.815.152-.102.254-.255.356-.356l.051-.051.102-.102c1.07-1.171 1.833-2.495 2.139-3.87.407-1.579.152-2.75-.764-3.412-.815-.611-2.19-.662-3.769-.204a10.85 10.85 0 0 0-3.106 1.477l1.375 1.324a7.916 7.916 0 0 1 1.171-.407c1.07-.306 1.834-.306 2.394-.102.61.305.814.967.56 1.935-.204.764-.56 1.477-1.12 2.037l-4.685-4.532a8.31 8.31 0 0 0-1.019.865l-.204.204-.203.204-.051.05-.051.051c-1.12 1.172-1.833 2.496-2.19 3.87-.407 1.58-.153 2.75.764 3.412.815.612 2.19.713 3.768.204a12.07 12.07 0 0 0 3.158-1.528z"/>
        </g>
        <g>
            <path fill="#1A82FF" d="M107.907 526.173l-.866 1.324c-.764 1.12-2.24 1.783-4.328 1.63-4.125-.255-8.912-3.463-10.745-7.13-.917-1.833-.917-3.411-.153-4.532l.917-1.374 15.175 10.082z"/>
            <path fill="#40A0FF" d="M92.834 520.674c-.917-1.834-.917-3.412-.153-4.533.764-1.12 2.24-1.782 4.328-1.63 4.125.255 8.912 3.464 10.745 7.13.917 1.833.917 3.412.153 4.532s-2.24 1.783-4.329 1.63c-4.124-.255-8.911-3.463-10.744-7.13z"/>
            <path fill="#1A82FF" d="M97.926 524.595c-1.884-1.222-3.31-2.801-4.125-4.38-.713-1.426-.764-2.648-.255-3.462.56-.815 1.783-1.223 3.31-1.172 1.834.102 3.82.866 5.704 2.088s3.31 2.8 4.125 4.38c.713 1.425.764 2.648.254 3.462-.56.815-1.782 1.223-3.31 1.172-1.782-.102-3.819-.815-5.703-2.088z"/>
            <path fill="#0F7CE8" d="M96.806 515.785c1.833.102 3.819.866 5.703 2.088 1.884 1.222 3.31 2.8 4.125 4.38.662 1.374.764 2.545.305 3.36 0-.05.051-.05.051-.102.56-.814.459-2.037-.254-3.462-.815-1.58-2.241-3.158-4.125-4.38-1.884-1.273-3.921-1.986-5.704-2.088-1.578-.102-2.8.306-3.31 1.172 0 .05-.05.05-.05.101.56-.763 1.73-1.17 3.259-1.069z"/>
            <path fill="#FFF" d="M98.282 522.354l.56-.866c-.152-.203-.254-.407-.356-.61-.611-1.172-.306-1.834.713-1.783.458.05.866.153 1.273.407l-2.037 3.005c.153.153.357.305.56.458.102.051.153.102.255.153h.05l.052.05c.764.46 1.527.765 2.342.816.917.05 1.528-.204 1.783-.764.254-.51.152-1.273-.255-2.088-.255-.56-.662-1.07-1.12-1.528l-.611.866c.101.204.254.356.356.611.255.56.356.968.306 1.273-.102.357-.459.56-1.019.51-.458-.052-.866-.153-1.222-.408l2.037-3.005c-.204-.152-.357-.305-.56-.458-.051-.05-.102-.05-.102-.102-.051-.05-.102-.05-.153-.102 0 0-.05 0-.05-.05-.765-.459-1.58-.764-2.343-.815-.917-.051-1.528.203-1.783.764-.254.509-.152 1.273.255 2.087.204.56.611 1.12 1.07 1.58z"/>
        </g>
        <g>
            <path fill="#1A82FF" d="M49.701 516.09l.815 1.375c.713 1.172.662 2.801-.356 4.584-1.986 3.615-6.875 6.62-10.949 6.772-2.037.051-3.463-.61-4.176-1.782l-.865-1.426 15.531-9.522z"/>
            <path fill="#40A0FF" d="M38.396 527.446c-2.037.051-3.462-.61-4.175-1.782-.713-1.171-.662-2.8.356-4.583 1.986-3.616 6.875-6.62 10.949-6.773 2.037-.05 3.462.611 4.175 1.783.713 1.17.662 2.8-.356 4.583-1.935 3.666-6.875 6.67-10.949 6.772z"/>
            <path fill="#1A82FF" d="M44.1 524.493c-1.884 1.171-3.921 1.833-5.704 1.884-1.578.051-2.699-.407-3.208-1.273-.51-.866-.407-2.139.357-3.514.865-1.578 2.393-3.106 4.328-4.277 1.884-1.172 3.921-1.834 5.704-1.885 1.578-.05 2.698.408 3.208 1.274.509.865.407 2.138-.357 3.513-.916 1.579-2.444 3.107-4.328 4.278z"/>
            <path fill="#0F7CE8" d="M35.596 521.794c.865-1.579 2.393-3.106 4.328-4.278 1.884-1.17 3.921-1.833 5.703-1.884 1.528-.05 2.648.357 3.158 1.171 0-.05-.051-.05-.051-.101-.51-.866-1.68-1.274-3.208-1.274-1.783.051-3.82.713-5.704 1.885-1.935 1.17-3.463 2.699-4.328 4.277-.764 1.375-.866 2.648-.357 3.514 0 .05.051.05.051.102-.458-.815-.305-2.088.408-3.412z"/>
            <path fill="#FFF" d="M42.216 523.22l-.56-.917c-.204.051-.459.051-.714.051-1.324.051-1.833-.51-1.324-1.426.204-.407.51-.713.917-.967l1.884 3.106c.204-.102.408-.204.662-.306.102-.05.153-.101.255-.152h.05l.052-.051c.764-.459 1.324-1.07 1.68-1.783.408-.814.459-1.476.051-1.935-.356-.458-1.07-.662-1.986-.662-.611 0-1.273.153-1.884.357l.56.916c.204-.05.458-.05.662-.05.611 0 1.019.101 1.273.305.306.255.306.611.051 1.12-.204.357-.51.713-.917.968l-1.884-3.106c-.203.101-.458.203-.662.305-.05 0-.102.051-.152.051-.051.051-.102.051-.153.102 0 0-.051 0-.051.05a4.832 4.832 0 0 0-1.732 1.783c-.407.815-.458 1.477-.05 1.935.356.459 1.069.662 1.986.662.662 0 1.324-.153 1.986-.356z"/>
        </g>
        <g>
            <path fill="#1A82FF" d="M60.395 472.907l.102 1.324c.102 1.12-.611 2.343-2.037 3.31-2.902 1.936-7.74 2.292-10.847.815-1.527-.764-2.393-1.833-2.444-2.953l-.102-1.426 15.328-1.07z"/>
            <path fill="#40A0FF" d="M47.512 477.032c-1.528-.764-2.394-1.833-2.445-2.953-.102-1.12.611-2.343 2.037-3.31 2.903-1.935 7.74-2.292 10.847-.815 1.528.764 2.393 1.833 2.444 2.953.102 1.12-.61 2.343-2.037 3.31-2.851 1.936-7.74 2.292-10.846.815z"/>
            <path fill="#1A82FF" d="M52.96 476.981c-1.884.153-3.666-.153-5.041-.815-1.171-.56-1.884-1.374-1.935-2.19-.051-.814.56-1.73 1.63-2.494 1.273-.866 3.004-1.426 4.888-1.528 1.884-.153 3.667.153 5.042.815 1.17.56 1.884 1.375 1.935 2.19.05.814-.56 1.73-1.63 2.495-1.273.865-3.004 1.425-4.889 1.527z"/>
            <path fill="#0F7CE8" d="M47.613 471.685c1.274-.865 3.005-1.426 4.89-1.527 1.883-.153 3.666.152 5.04.814 1.12.56 1.834 1.273 1.936 2.088v-.102c-.051-.814-.764-1.63-1.935-2.19-1.375-.661-3.158-.967-5.042-.814-1.884.153-3.666.662-4.889 1.528-1.12.763-1.68 1.63-1.63 2.495v.102c0-.815.612-1.68 1.63-2.394z"/>
            <path fill="#FFF" d="M52.044 475.3l-.051-.865c-.204-.05-.357-.153-.56-.204-1.019-.509-1.172-1.069-.459-1.578.306-.204.662-.306 1.07-.357l.203 3.056H53.215a4.185 4.185 0 0 0 1.986-.662c.611-.408.917-.917.815-1.426-.102-.458-.56-.917-1.273-1.273-.459-.204-1.019-.408-1.528-.459l.051.866c.153.051.356.102.51.204.458.204.763.458.865.713.102.305 0 .61-.407.865-.306.204-.662.306-1.019.357l-.204-3.055c-.203 0-.407-.051-.61 0h-.255-.051a4.185 4.185 0 0 0-1.986.662c-.611.407-.917.916-.815 1.425.102.459.56.917 1.273 1.273.356.204.917.408 1.477.459z"/>
        </g>
        <g>
            <path fill="#1A82FF" d="M10.592 506.975l1.07.815c.916.713 1.374 1.986 1.12 3.717-.459 3.463-3.412 7.333-6.57 8.657-1.578.662-2.953.56-3.819-.101l-1.12-.866 9.32-12.222z"/>
            <path fill="#40A0FF" d="M5.143 519.35c-1.578.662-2.953.56-3.819-.102-.917-.713-1.375-1.986-1.12-3.718.458-3.462 3.412-7.333 6.569-8.657 1.578-.662 2.953-.56 3.82.102.916.713 1.374 1.986 1.12 3.718-.459 3.462-3.412 7.333-6.57 8.657z"/>
            <path fill="#1A82FF" d="M8.708 515.276c-1.12 1.477-2.546 2.648-3.921 3.208-1.222.51-2.24.51-2.903 0-.662-.51-.967-1.579-.764-2.852.204-1.528.968-3.208 2.088-4.685 1.12-1.477 2.546-2.648 3.921-3.208 1.222-.51 2.24-.51 2.903 0 .662.51.967 1.579.764 2.852-.204 1.527-.917 3.208-2.088 4.685z"/>
            <path fill="#0F7CE8" d="M1.222 515.734c.204-1.528.968-3.208 2.088-4.685 1.12-1.477 2.546-2.648 3.921-3.208 1.171-.51 2.19-.51 2.852-.051l-.051-.05c-.662-.51-1.68-.51-2.903 0-1.375.56-2.8 1.73-3.92 3.207-1.172 1.528-1.885 3.157-2.089 4.685-.152 1.324.102 2.343.764 2.852l.051.05c-.611-.508-.866-1.527-.713-2.8z"/>
            <path fill="#FFF" d="M6.824 514.868l-.713-.56a1.882 1.882 0 0 1-.56.255c-1.019.407-1.579.153-1.477-.713.05-.357.204-.713.407-1.019l2.445 1.885c.152-.153.305-.306.407-.459.05-.05.102-.153.153-.203v-.051l.05-.051a4.28 4.28 0 0 0 .815-1.935c.102-.764-.101-1.273-.509-1.528-.407-.255-1.07-.204-1.782.102-.458.203-.968.509-1.375.865l.713.56c.153-.101.305-.203.51-.254.457-.204.865-.255 1.12-.153.305.102.407.408.356.866-.051.356-.204.713-.407 1.018l-2.445-1.884c-.153.153-.305.306-.407.459l-.102.101-.102.102-.05.051a4.28 4.28 0 0 0-.816 1.935c-.101.764.102 1.273.51 1.528.407.255 1.069.204 1.782-.102a3.807 3.807 0 0 0 1.477-.815z"/>
        </g>
        <g transform="translate(194.528 362.25)">
            <circle cx="27.986" cy="28.077" r="21.132" fill="#111D28" opacity=".2" transform="rotate(-69.561 27.986 28.077)"/>
            <circle cx="27.596" cy="27.404" r="21.132" fill="#40A0FF" transform="rotate(-69.561 27.596 27.404)"/>
            <circle cx="27.596" cy="27.404" r="17.211" fill="#1A82FF" transform="rotate(-69.561 27.596 27.404)"/>
            <path fill="#0F7CE8" d="M11.763 21.999c3.31-8.912 13.24-13.444 22.101-10.134 4.329 1.63 7.639 4.787 9.472 8.657-1.782-4.125-5.194-7.587-9.777-9.268-8.912-3.31-18.791 1.222-22.101 10.134a17.41 17.41 0 0 0 .61 13.495 17.556 17.556 0 0 1-.305-12.884z"/>
            <path fill="#FFF" d="M36.36 25.513l-3.82 1.731a9.477 9.477 0 0 1-.51 1.884c-1.323 3.514-3.767 5.042-6.517 3.972a4.362 4.362 0 0 1-2.496-2.139l13.291-6.06c-.101-.56-.203-1.069-.407-1.629-.102-.204-.153-.407-.255-.611 0-.051-.05-.051-.05-.102-.051-.05-.051-.102-.102-.204-.917-1.833-2.445-3.208-4.533-3.972-2.393-.916-4.786-.713-6.874.459-1.986 1.12-3.616 3.106-4.532 5.601-.611 1.63-.866 3.31-.713 4.889l3.87-1.782c.102-.56.254-1.172.51-1.783.61-1.63 1.425-2.8 2.443-3.564 1.172-.866 2.598-1.019 4.074-.459 1.172.408 1.986 1.172 2.445 2.088l-13.24 6.06c.101.56.203 1.12.407 1.68.05.102.102.204.102.306.05.102.102.255.153.357v.05c0 .051.05.051.05.102.917 1.885 2.445 3.26 4.533 4.023 2.393.917 4.786.713 6.925-.458 1.986-1.12 3.616-3.106 4.532-5.602.662-1.527.866-3.259.713-4.837z"/>
        </g>
        <g transform="translate(207.802 514.142)">
            <circle cx="23.817" cy="23.121" r="17.315" fill="#111D28" opacity=".2" transform="rotate(-24.43 23.817 23.121)"/>
            <circle cx="23.207" cy="22.96" r="17.315" fill="#40A0FF" transform="rotate(-24.43 23.207 22.96)"/>
            <circle cx="23.207" cy="22.96" r="14.106" fill="#1A82FF" transform="rotate(-24.43 23.207 22.96)"/>
            <path fill="#0F7CE8" d="M10.847 28.975c-3.208-7.078-.102-15.43 7.027-18.688a13.92 13.92 0 0 1 10.49-.459 14.134 14.134 0 0 0-11.05.255c-7.078 3.208-10.236 11.56-7.027 18.689 1.63 3.615 4.634 6.212 8.147 7.486-3.208-1.324-6.009-3.82-7.587-7.283z"/>
            <path fill="#FFF" d="M27.193 16.805l-1.222 3.208c.306.407.56.866.815 1.375 1.273 2.8.713 5.092-1.477 6.11-.917.408-1.833.459-2.699.204L26.837 16.5a8.968 8.968 0 0 0-1.172-.713c-.152-.102-.356-.152-.509-.203h-.05c-.052 0-.103-.051-.153-.051-1.58-.56-3.26-.408-4.94.305-1.884.866-3.208 2.343-3.717 4.227-.51 1.782-.306 3.87.61 5.856.612 1.324 1.426 2.444 2.394 3.26l1.222-3.26c-.254-.407-.51-.815-.764-1.324-.61-1.273-.814-2.444-.61-3.463.203-1.171.916-2.088 2.087-2.597.917-.407 1.833-.458 2.648-.204l-4.176 11.204c.408.305.815.509 1.223.713.101.05.152.101.254.101.102.051.204.102.306.102h.05c.052 0 .052 0 .102.051 1.58.56 3.31.458 4.991-.305 1.884-.866 3.208-2.343 3.768-4.278.51-1.782.306-3.87-.61-5.856-.765-1.324-1.58-2.444-2.598-3.26z"/>
        </g>
    </g>
</svg>
