<svg xmlns="http://www.w3.org/2000/svg" width="1440" height="950" viewBox="0 0 1440 950">
    <g fill="none" fill-rule="nonzero">
        <path fill="#0068C6" d="M1792.377 838.395l-2055.526 47.788 2058.647-100.04zM1802.97 778.322l-2066.12 107.86 2066.288-143.37zM1818.598 689.69L-258.113 857.622l2076.88-203.444zM1856.106 476.97L-253.078 829.065 1856.275 441.46zM1871.213 391.292L-251.34 819.216l2122.723-463.434zM1897.634 11.104L-283.788 772.878 1892.767 4.154zM1906.837-41.09L-283.788 772.878l2189.405-841.6zM1887.712-105.388l-2171.5 878.266 2170.28-905.898z"/>
        <path fill="#0068C6" d="M1897.436-160.538L-283.788 772.878 1892.57-167.488z"/>
        <path fill="#0068C6" d="M1901.083-181.219l-2184.87 954.097L1840.425-217.3zM1795.358-215.092L-291.03 756.37 1734.702-251.173zM1588.549-251.558l-1876.107 988.23L1547.589-284.165zM1605.914-350.039L-285.821 726.825 1561.48-362.951z"/>
        <path fill="#0068C6" d="M1526.144-364.104L-285.82 726.825 1501.407-373.543zM1476.904-372.787l-1759.426 1080.9 1675.6-1100.758zM1299.638-404.043L-279.049 688.417 1245.357-418.692zM1241.302-424.484L-322.783 706.092 1187.021-439.132zM1054.188-457.477L-317.573 676.547 1039.299-465.18z"/>
        <path fill="#FFF" d="M967.292-482.954L-339.006 682.922 962.251-488.92z"/>
        <path fill="#0068C6" d="M947.596-486.427L-339.006 682.923 922.86-495.866z"/>
        <path fill="#0068C6" d="M996.836-477.744L-339.006 682.922 981.947-485.447zM934.56-498.88L-356.966 669.602 904.9-509.187zM865.624-511.035L-356.966 669.601 835.963-521.342zM260.495-568.995l-819.208 1363.46L249.546-576.003zM184.24-519.484L-537.084 749.539 104.353-538.647zM369.99-498.917l-849.348 1246.45L290.104-518.08zM427.342-478.65L-481.094 757.38l877.79-1246.51zM816.383-519.717L-366.814 667.865 737.482-538.707z"/>
        <path fill="#07121C" d="M761.572-600.462L-333.978 602.575 751.608-607.295z"/>
        <path fill="#0068C6" d="M723.511-609.204L-349.387 597.827 713.547-616.038zM685.856-625.998L-359.235 596.091 675.891-632.832z"/>
        <path fill="#07121C" d="M828.2-517.633L-356.965 669.6 818.236-524.468z"/>
        <path fill="#0068C6" d="M1036.228-470.798L-339.006 682.922 1021.34-478.5z"/>
        <path fill="#07121C" d="M1667.333-237.666L-291.03 756.369l1966.645-1017.96z"/>
        <path fill="#FFF" d="M1899.346-171.37L-283.788 772.878l2177.746-948.245z"/>
        <path fill="#0068C6" d="M1883.369 322.356l-2134.71 496.86 2140.262-562.9zM1909.416 174.635l-2412.74 691.538 2428.71-816.666z"/>
        <path fill="#07121C" d="M1879.027 346.976L-251.34 819.216l2125.502-479.19z"/>
        <path fill="#0068C6" d="M1836.831 586.284l-2094.944 271.34L1837 550.773zM1844.992 539.998L-258.113 857.623l2098.238-324.575z"/>
        <path fill="#07121C" d="M1833.879 603.026l-2092.34 256.567 2087.3-262.533zM1854.022 488.788l-2109.01 351.109 2103.97-357.075z"/>
        <path fill="#FBFBFB" d="M1856.453 475.001l-2111.44 364.896 2103.969-357.075z"/>
        <path fill="#0068C6" d="M1784.042 885.666l-2047.191.517 2043.54-14.361zM1772.581 950.663l-2037.293-55.617 2033.642 41.773z"/>
        <path fill="#0068C6" d="M1767.545 979.223l-2032.257-84.177 2028.606 70.332zM1756.606 1041.266L-266.45 904.894l2023.397 99.877z"/>
    </g>
</svg>
