<svg xmlns="http://www.w3.org/2000/svg" width="345" height="387" viewBox="0 0 345 387">
    <g fill="none" fill-rule="nonzero">
        <g transform="translate(147.77 206.39)">
            <path fill="#0068C6" d="M0 10.625c0 4.824 4.58 8.732 10.197 8.732 5.618 0 10.198-3.908 10.198-8.732V8.976H0v1.649z"/>
            <ellipse cx="10.197" cy="8.915" fill="#40A0FF" rx="10.197" ry="8.732"/>
            <ellipse cx="10.197" cy="8.915" fill="#1A82FF" rx="8.304" ry="7.144"/>
            <path fill="#0F7CE8" d="M2.137 9.16c0-3.909 3.725-7.145 8.305-7.145 2.198 0 4.274.733 5.74 1.954-1.527-1.343-3.603-2.198-5.985-2.198-4.58 0-8.304 3.175-8.304 7.144 0 2.015.977 3.847 2.565 5.13-1.466-1.222-2.32-2.993-2.32-4.886z"/>
            <path fill="#FFF" d="M13.8 6.961l-1.404 1.221c.06.245.06.489.06.794 0 1.588-.854 2.504-2.259 2.504-.61 0-1.099-.184-1.465-.489l4.946-4.274c-.122-.183-.305-.367-.428-.55-.06-.06-.122-.122-.244-.183h-.06l-.062-.061c-.733-.55-1.649-.855-2.687-.855-1.22 0-2.259.428-3.053 1.16-.732.733-1.099 1.71-1.099 2.81 0 .732.183 1.404.489 2.014l1.465-1.221c-.06-.244-.06-.489-.06-.794 0-.733.182-1.282.488-1.71.366-.488.977-.793 1.77-.793.611 0 1.1.183 1.466.488l-4.946 4.274a4.278 4.278 0 0 0 .61.733l.123.122.06.061c.733.611 1.65.916 2.748.916 1.222 0 2.26-.427 3.054-1.16.732-.733 1.099-1.71 1.099-2.809-.061-.916-.245-1.587-.611-2.198z"/>
        </g>
        <g transform="translate(91.593 332.788)">
            <path fill="#0068C6" d="M.55 10.808c0 4.824 4.58 8.732 10.197 8.732 5.618 0 10.197-3.908 10.197-8.732V9.159H.611v1.649H.55z"/>
            <ellipse cx="10.747" cy="9.159" fill="#40A0FF" rx="10.197" ry="8.732"/>
            <ellipse cx="10.747" cy="9.159" fill="#1A82FF" rx="8.304" ry="7.144"/>
            <path fill="#0F7CE8" d="M2.687 9.342c0-3.907 3.725-7.144 8.304-7.144 2.198 0 4.274.733 5.74 1.954-1.527-1.343-3.603-2.198-5.984-2.198-4.58 0-8.305 3.175-8.305 7.144 0 2.015.977 3.847 2.565 5.13-1.465-1.222-2.32-2.932-2.32-4.886z"/>
            <path fill="#FFF" d="M14.35 7.144l-1.405 1.221c.061.245.061.489.061.794 0 1.588-.855 2.504-2.26 2.504-.61 0-1.098-.183-1.465-.489L14.227 6.9c-.122-.183-.305-.366-.427-.55a.843.843 0 0 0-.244-.183h-.061l-.061-.06c-.733-.55-1.649-.856-2.687-.856-1.221 0-2.26.428-3.053 1.16-.733.733-1.1 1.71-1.1 2.81 0 .732.184 1.404.49 2.014l1.465-1.22c-.061-.245-.061-.49-.061-.795 0-.732.183-1.282.488-1.71.366-.488.977-.793 1.77-.793.612 0 1.1.183 1.466.488L7.266 11.48c.122.183.306.427.489.61l.122.122.122.123.061.06c.733.611 1.649.917 2.748.917 1.221 0 2.26-.428 3.053-1.16.733-.733 1.1-1.71 1.1-2.81-.062-.854-.245-1.587-.611-2.198z"/>
        </g>
        <g transform="translate(90.982 329.735)">
            <path fill="#0068C6" d="M.183 10.442c0 4.823 4.58 8.731 10.198 8.731 5.617 0 10.197-3.908 10.197-8.731v-1.65H.244v1.65h-.06z"/>
            <ellipse cx="10.381" cy="8.793" fill="#40A0FF" rx="10.197" ry="8.732"/>
            <ellipse cx="10.381" cy="8.793" fill="#1A82FF" rx="8.304" ry="7.144"/>
            <path fill="#0F7CE8" d="M2.32 8.976c0-3.908 3.725-7.144 8.305-7.144 2.198 0 4.274.733 5.74 1.954-1.527-1.344-3.603-2.198-5.984-2.198-4.58 0-8.305 3.175-8.305 7.144 0 2.015.977 3.847 2.565 5.13-1.466-1.222-2.32-2.932-2.32-4.886z"/>
            <path fill="#FFF" d="M13.983 6.778L12.58 7.999c.06.244.06.489.06.794 0 1.588-.854 2.503-2.258 2.503-.611 0-1.1-.183-1.466-.488l4.946-4.274c-.122-.184-.305-.367-.427-.55a.843.843 0 0 0-.245-.183h-.06l-.062-.061c-.732-.55-1.648-.855-2.686-.855-1.222 0-2.26.427-3.054 1.16-.732.733-1.099 1.71-1.099 2.809 0 .733.184 1.404.489 2.015l1.465-1.221c-.06-.244-.06-.489-.06-.794 0-.733.182-1.282.488-1.71.366-.488.977-.794 1.77-.794.611 0 1.1.184 1.466.489L6.9 11.113a4.278 4.278 0 0 0 .61.733l.123.122.06.061c.734.61 1.65.916 2.749.916 1.22 0 2.259-.427 3.053-1.16.732-.733 1.099-1.71 1.099-2.809-.061-.855-.244-1.588-.61-2.198z"/>
        </g>
        <g transform="translate(94.035 327.903)">
            <path fill="#0068C6" d="M.061 10.808c0 4.824 4.58 8.732 10.197 8.732 5.618 0 10.198-3.908 10.198-8.732V9.159H.122v1.649h-.06z"/>
            <ellipse cx="10.258" cy="9.159" fill="#40A0FF" rx="10.197" ry="8.732"/>
            <ellipse cx="10.258" cy="9.159" fill="#1A82FF" rx="8.304" ry="7.144"/>
            <path fill="#0F7CE8" d="M2.198 9.342c0-3.907 3.725-7.144 8.305-7.144 2.198 0 4.274.733 5.74 1.954-1.527-1.343-3.603-2.198-5.985-2.198-4.58 0-8.304 3.175-8.304 7.144 0 2.015.977 3.847 2.565 5.13-1.466-1.222-2.32-2.932-2.32-4.886z"/>
            <path fill="#FFF" d="M13.861 7.144l-1.404 1.221c.06.245.06.489.06.794 0 1.588-.854 2.504-2.259 2.504-.61 0-1.099-.183-1.465-.489L13.739 6.9c-.122-.183-.305-.366-.427-.55a.843.843 0 0 0-.245-.183h-.06l-.062-.06c-.733-.55-1.649-.856-2.687-.856-1.22 0-2.259.428-3.053 1.16-.732.733-1.099 1.71-1.099 2.81 0 .732.183 1.404.489 2.014l1.465-1.22C8 9.77 8 9.524 8 9.22c0-.732.182-1.282.488-1.71.366-.488.977-.793 1.77-.793.611 0 1.1.183 1.466.488L6.778 11.48a4.278 4.278 0 0 0 .61.732l.123.123.06.06c.733.611 1.65.917 2.748.917 1.222 0 2.26-.428 3.054-1.16.732-.733 1.099-1.71 1.099-2.81-.061-.854-.245-1.587-.61-2.198z"/>
        </g>
        <g transform="translate(68.39 335.84)">
            <path fill="#0068C6" d="M.122 10.442c0 4.823 4.58 8.731 10.197 8.731 5.618 0 10.198-3.908 10.198-8.731v-1.65H.183v1.65h-.06z"/>
            <ellipse cx="10.319" cy="8.793" fill="#40A0FF" rx="10.197" ry="8.732"/>
            <ellipse cx="10.319" cy="8.793" fill="#1A82FF" rx="8.304" ry="7.144"/>
            <path fill="#0F7CE8" d="M2.26 8.976c0-3.908 3.724-7.144 8.304-7.144 2.198 0 4.274.733 5.74 1.954-1.527-1.344-3.603-2.198-5.985-2.198-4.58 0-8.304 3.175-8.304 7.144 0 2.015.977 3.847 2.565 5.13-1.405-1.222-2.32-2.932-2.32-4.886z"/>
            <path fill="#FFF" d="M13.983 6.778L12.58 7.999c.06.244.06.489.06.794 0 1.588-.854 2.503-2.258 2.503-.611 0-1.1-.183-1.466-.488l4.946-4.274c-.122-.184-.305-.367-.427-.55a.843.843 0 0 0-.245-.183h-.06l-.062-.061c-.732-.55-1.648-.855-2.686-.855-1.222 0-2.26.427-3.054 1.16-.732.733-1.099 1.71-1.099 2.809 0 .733.184 1.404.489 2.015l1.465-1.221c-.06-.244-.06-.489-.06-.794 0-.733.182-1.282.488-1.71.366-.488.977-.794 1.77-.794.611 0 1.1.184 1.466.489L6.9 11.113a4.278 4.278 0 0 0 .61.733l.123.122.06.061c.734.61 1.65.916 2.749.916 1.22 0 2.259-.427 3.053-1.16.732-.733 1.099-1.71 1.099-2.809-.122-.855-.306-1.588-.61-2.198z"/>
        </g>
        <g transform="translate(47.628 323.628)">
            <path fill="#0068C6" d="M.122 10.442c0 4.823 4.58 8.731 10.197 8.731 5.618 0 10.198-3.908 10.198-8.731v-1.65H.183v1.65h-.06z"/>
            <ellipse cx="10.319" cy="8.793" fill="#40A0FF" rx="10.197" ry="8.732"/>
            <ellipse cx="10.319" cy="8.793" fill="#1A82FF" rx="8.304" ry="7.144"/>
            <path fill="#0F7CE8" d="M2.26 8.976c0-3.908 3.724-7.144 8.304-7.144 2.198 0 4.274.733 5.74 1.954-1.527-1.344-3.603-2.198-5.985-2.198-4.58 0-8.304 3.175-8.304 7.144 0 2.015.977 3.847 2.565 5.13-1.405-1.222-2.32-2.932-2.32-4.886z"/>
            <path fill="#FFF" d="M13.983 6.778L12.58 7.999c.06.244.06.489.06.794 0 1.588-.854 2.503-2.258 2.503-.611 0-1.1-.183-1.466-.488l4.946-4.274c-.122-.184-.305-.367-.427-.55a.843.843 0 0 0-.245-.183h-.06l-.062-.061c-.732-.55-1.648-.855-2.686-.855-1.222 0-2.26.427-3.054 1.16-.732.733-1.099 1.71-1.099 2.809 0 .733.184 1.404.489 2.015l1.465-1.221c-.06-.244-.06-.489-.06-.794 0-.733.182-1.282.488-1.71.366-.488.977-.794 1.77-.794.611 0 1.1.184 1.466.489L6.9 11.113a4.278 4.278 0 0 0 .61.733l.123.122.06.061c.734.61 1.65.916 2.749.916 1.22 0 2.259-.427 3.053-1.16.732-.733 1.099-1.71 1.099-2.809-.122-.855-.306-1.588-.61-2.198z"/>
        </g>
        <g transform="translate(69.61 333.398)">
            <path fill="#0068C6" d="M.122 10.442c0 4.823 4.58 8.731 10.197 8.731 5.618 0 10.198-3.908 10.198-8.731v-1.65H.183v1.65h-.06z"/>
            <ellipse cx="10.319" cy="8.793" fill="#40A0FF" rx="10.197" ry="8.732"/>
            <ellipse cx="10.319" cy="8.793" fill="#1A82FF" rx="8.304" ry="7.144"/>
            <path fill="#0F7CE8" d="M2.26 8.976c0-3.908 3.724-7.144 8.304-7.144 2.198 0 4.274.733 5.74 1.954-1.527-1.344-3.603-2.198-5.985-2.198-4.58 0-8.304 3.175-8.304 7.144 0 2.015.977 3.847 2.565 5.13-1.405-1.222-2.32-2.932-2.32-4.886z"/>
            <path fill="#FFF" d="M13.983 6.778L12.58 7.999c.06.244.06.489.06.794 0 1.588-.854 2.503-2.258 2.503-.611 0-1.1-.183-1.466-.488l4.946-4.274c-.122-.184-.305-.367-.427-.55a.843.843 0 0 0-.245-.183h-.06l-.062-.061c-.732-.55-1.648-.855-2.686-.855-1.222 0-2.26.427-3.054 1.16-.732.733-1.099 1.71-1.099 2.809 0 .733.184 1.404.489 2.015l1.465-1.221c-.06-.244-.06-.489-.06-.794 0-.733.182-1.282.488-1.71.366-.488.977-.794 1.77-.794.611 0 1.1.184 1.466.489L6.9 11.113a4.278 4.278 0 0 0 .61.733l.123.122.06.061c.734.61 1.65.916 2.749.916 1.22 0 2.259-.427 3.053-1.16.732-.733 1.099-1.71 1.099-2.809-.122-.855-.306-1.588-.61-2.198z"/>
        </g>
        <g transform="translate(69 330.956)">
            <path fill="#0068C6" d="M.122 10.442c0 4.823 4.58 8.731 10.197 8.731 5.618 0 10.198-3.908 10.198-8.731v-1.65H.183v1.65h-.06z"/>
            <ellipse cx="10.319" cy="8.793" fill="#40A0FF" rx="10.197" ry="8.732"/>
            <ellipse cx="10.319" cy="8.793" fill="#1A82FF" rx="8.304" ry="7.144"/>
            <path fill="#0F7CE8" d="M2.26 8.976c0-3.908 3.724-7.144 8.304-7.144 2.198 0 4.274.733 5.74 1.954-1.527-1.344-3.603-2.198-5.985-2.198-4.58 0-8.304 3.175-8.304 7.144 0 2.015.977 3.847 2.565 5.13-1.405-1.222-2.32-2.932-2.32-4.886z"/>
            <path fill="#FFF" d="M13.983 6.778L12.58 7.999c.06.244.06.489.06.794 0 1.588-.854 2.503-2.258 2.503-.611 0-1.1-.183-1.466-.488l4.946-4.274c-.122-.184-.305-.367-.427-.55a.843.843 0 0 0-.245-.183h-.06l-.062-.061c-.732-.55-1.648-.855-2.686-.855-1.222 0-2.26.427-3.054 1.16-.732.733-1.099 1.71-1.099 2.809 0 .733.184 1.404.489 2.015l1.465-1.221c-.06-.244-.06-.489-.06-.794 0-.733.182-1.282.488-1.71.366-.488.977-.794 1.77-.794.611 0 1.1.184 1.466.489L6.9 11.113a4.278 4.278 0 0 0 .61.733l.123.122.06.061c.734.61 1.65.916 2.749.916 1.22 0 2.259-.427 3.053-1.16.732-.733 1.099-1.71 1.099-2.809-.122-.855-.306-1.588-.61-2.198z"/>
        </g>
        <g transform="translate(70.221 327.292)">
            <path fill="#0068C6" d="M.122 10.442c0 4.823 4.58 8.731 10.197 8.731 5.618 0 10.198-3.908 10.198-8.731v-1.65H.183v1.65h-.06z"/>
            <ellipse cx="10.319" cy="8.793" fill="#40A0FF" rx="10.197" ry="8.732"/>
            <ellipse cx="10.319" cy="8.793" fill="#1A82FF" rx="8.304" ry="7.144"/>
            <path fill="#0F7CE8" d="M2.26 8.976c0-3.908 3.724-7.144 8.304-7.144 2.198 0 4.274.733 5.74 1.954-1.527-1.344-3.603-2.198-5.985-2.198-4.58 0-8.304 3.175-8.304 7.144 0 2.015.977 3.847 2.565 5.13-1.405-1.222-2.32-2.932-2.32-4.886z"/>
            <path fill="#FFF" d="M13.983 6.778L12.58 7.999c.06.244.06.489.06.794 0 1.588-.854 2.503-2.258 2.503-.611 0-1.1-.183-1.466-.488l4.946-4.274c-.122-.184-.305-.367-.427-.55a.843.843 0 0 0-.245-.183h-.06l-.062-.061c-.732-.55-1.648-.855-2.686-.855-1.222 0-2.26.427-3.054 1.16-.732.733-1.099 1.71-1.099 2.809 0 .733.184 1.404.489 2.015l1.465-1.221c-.06-.244-.06-.489-.06-.794 0-.733.182-1.282.488-1.71.366-.488.977-.794 1.77-.794.611 0 1.1.184 1.466.489L6.9 11.113a4.278 4.278 0 0 0 .61.733l.123.122.06.061c.734.61 1.65.916 2.749.916 1.22 0 2.259-.427 3.053-1.16.732-.733 1.099-1.71 1.099-2.809-.122-.855-.306-1.588-.61-2.198z"/>
        </g>
        <g transform="translate(113.575 341.336)">
            <path fill="#0068C6" d="M.366 10.808c0 4.824 4.58 8.732 10.198 8.732 5.617 0 10.197-3.908 10.197-8.732V9.159H.427v1.649h-.06z"/>
            <ellipse cx="10.564" cy="9.159" fill="#40A0FF" rx="10.197" ry="8.732"/>
            <ellipse cx="10.564" cy="9.159" fill="#1A82FF" rx="8.304" ry="7.144"/>
            <path fill="#0F7CE8" d="M2.504 9.342c0-3.907 3.724-7.144 8.304-7.144 2.198 0 4.274.733 5.74 1.954-1.527-1.343-3.603-2.198-5.984-2.198-4.58 0-8.305 3.175-8.305 7.144 0 2.015.977 3.847 2.565 5.13-1.466-1.222-2.32-2.932-2.32-4.886z"/>
            <path fill="#FFF" d="M14.166 7.144l-1.404 1.221c.061.245.061.489.061.794 0 1.588-.855 2.504-2.26 2.504-.61 0-1.098-.183-1.465-.489L14.044 6.9c-.122-.183-.305-.366-.427-.55-.061-.06-.122-.122-.244-.183h-.061l-.062-.06c-.732-.55-1.648-.856-2.686-.856-1.222 0-2.26.428-3.053 1.16-.733.733-1.1 1.71-1.1 2.81 0 .732.184 1.404.489 2.014l1.465-1.22c-.06-.245-.06-.49-.06-.795 0-.732.183-1.282.488-1.71.366-.488.977-.793 1.77-.793.611 0 1.1.183 1.466.488L7.083 11.48c.122.183.305.427.489.61l.122.122.122.123.061.06c.733.611 1.649.917 2.748.917 1.221 0 2.26-.428 3.053-1.16.733-.733 1.099-1.71 1.099-2.81-.061-.854-.244-1.587-.61-2.198z"/>
        </g>
        <g transform="translate(108.08 216.16)">
            <path fill="#0068C6" d="M.183 10.93c0 4.824 4.58 8.732 10.198 8.732 5.617 0 10.197-3.908 10.197-8.732V9.281H.244v1.65h-.06z"/>
            <ellipse cx="10.319" cy="9.22" fill="#40A0FF" rx="10.197" ry="8.732"/>
            <ellipse cx="10.319" cy="9.22" fill="#1A82FF" rx="8.304" ry="7.144"/>
            <path fill="#0F7CE8" d="M2.32 9.465c0-3.908 3.725-7.145 8.305-7.145 2.198 0 4.274.733 5.74 1.954-1.527-1.343-3.603-2.198-5.984-2.198-4.58 0-8.305 3.175-8.305 7.144 0 2.015.977 3.847 2.565 5.13-1.466-1.283-2.32-2.992-2.32-4.885z"/>
            <path fill="#FFF" d="M13.983 7.266L12.58 8.488c.06.244.06.488.06.793 0 1.588-.854 2.504-2.258 2.504-.611 0-1.1-.183-1.466-.489l4.946-4.274c-.122-.183-.305-.366-.427-.55a.843.843 0 0 0-.245-.183h-.06l-.062-.06c-.732-.55-1.648-.856-2.686-.856-1.222 0-2.26.428-3.054 1.16-.732.733-1.099 1.71-1.099 2.81 0 .732.184 1.404.489 2.015l1.465-1.222c-.06-.244-.06-.488-.06-.794 0-.732.182-1.282.488-1.71.366-.488.977-.793 1.77-.793.611 0 1.1.183 1.466.488L6.9 11.602c.122.183.305.427.488.61l.123.123.122.122.06.06c.734.611 1.65.917 2.749.917 1.22 0 2.259-.428 3.053-1.16.732-.733 1.099-1.71 1.099-2.81-.061-.915-.244-1.648-.61-2.198z"/>
        </g>
        <g transform="translate(106.858 213.717)">
            <path fill="#0068C6" d="M.183 10.808c0 4.824 4.58 8.732 10.198 8.732 5.617 0 10.197-3.908 10.197-8.732V9.159H.244v1.649h-.06z"/>
            <ellipse cx="10.381" cy="9.159" fill="#40A0FF" rx="10.197" ry="8.732"/>
            <ellipse cx="10.381" cy="9.159" fill="#1A82FF" rx="8.304" ry="7.144"/>
            <path fill="#0F7CE8" d="M2.32 9.342c0-3.907 3.725-7.144 8.305-7.144 2.198 0 4.274.733 5.74 1.954-1.527-1.343-3.603-2.198-5.984-2.198-4.58 0-8.305 3.175-8.305 7.144 0 2.015.977 3.847 2.565 5.13-1.405-1.222-2.32-2.932-2.32-4.886z"/>
            <path fill="#FFF" d="M14.044 7.144L12.64 8.365c.06.245.06.489.06.794 0 1.588-.854 2.504-2.258 2.504-.611 0-1.1-.183-1.466-.489L13.922 6.9c-.122-.183-.305-.366-.427-.55-.061-.06-.122-.122-.245-.183h-.06l-.062-.06c-.732-.55-1.648-.856-2.686-.856-1.222 0-2.26.428-3.054 1.16-.732.733-1.099 1.71-1.099 2.81 0 .732.184 1.404.489 2.014l1.465-1.22c-.06-.245-.06-.49-.06-.795 0-.732.182-1.282.488-1.71.366-.488.977-.793 1.77-.793.611 0 1.1.183 1.466.488L6.961 11.48a4.278 4.278 0 0 0 .61.732l.123.123.06.06c.734.611 1.65.917 2.749.917 1.22 0 2.259-.428 3.053-1.16.732-.733 1.099-1.71 1.099-2.81-.122-.915-.305-1.587-.61-2.198z"/>
        </g>
        <g transform="translate(108.69 210.664)">
            <path fill="#0068C6" d="M.183 10.808c0 4.824 4.58 8.732 10.198 8.732 5.617 0 10.197-3.908 10.197-8.732V9.159H.244v1.649h-.06z"/>
            <ellipse cx="10.381" cy="9.159" fill="#40A0FF" rx="10.197" ry="8.732"/>
            <ellipse cx="10.381" cy="9.159" fill="#1A82FF" rx="8.304" ry="7.144"/>
            <path fill="#0F7CE8" d="M2.32 9.342c0-3.907 3.725-7.144 8.305-7.144 2.198 0 4.274.733 5.74 1.954-1.527-1.343-3.603-2.198-5.984-2.198-4.58 0-8.305 3.175-8.305 7.144 0 2.015.977 3.847 2.565 5.13-1.405-1.222-2.32-2.932-2.32-4.886z"/>
            <path fill="#FFF" d="M14.044 7.144L12.64 8.365c.06.245.06.489.06.794 0 1.588-.854 2.504-2.258 2.504-.611 0-1.1-.183-1.466-.489L13.922 6.9c-.122-.183-.305-.366-.427-.55-.061-.06-.122-.122-.245-.183h-.06l-.062-.06c-.732-.55-1.648-.856-2.686-.856-1.222 0-2.26.428-3.054 1.16-.732.733-1.099 1.71-1.099 2.81 0 .732.184 1.404.489 2.014l1.465-1.22c-.06-.245-.06-.49-.06-.795 0-.732.182-1.282.488-1.71.366-.488.977-.793 1.77-.793.611 0 1.1.183 1.466.488L6.961 11.48a4.278 4.278 0 0 0 .61.732l.123.123.06.06c.734.611 1.65.917 2.749.917 1.22 0 2.259-.428 3.053-1.16.732-.733 1.099-1.71 1.099-2.81-.122-.915-.305-1.587-.61-2.198z"/>
        </g>
        <g transform="translate(131.283 219.823)">
            <path fill="#0068C6" d="M.244 10.869c0 4.824 4.58 8.732 10.198 8.732 5.617 0 10.197-3.908 10.197-8.732V9.22H.305v1.649h-.06z"/>
            <ellipse cx="10.442" cy="9.22" fill="#40A0FF" rx="10.197" ry="8.732"/>
            <ellipse cx="10.442" cy="9.22" fill="#1A82FF" rx="8.304" ry="7.144"/>
            <path fill="#0F7CE8" d="M2.381 9.404c0-3.908 3.725-7.145 8.305-7.145 2.198 0 4.274.733 5.74 1.954-1.527-1.343-3.603-2.198-5.984-2.198-4.58 0-8.305 3.175-8.305 7.144 0 2.015.977 3.847 2.565 5.13-1.405-1.222-2.32-2.993-2.32-4.885z"/>
            <path fill="#FFF" d="M14.105 7.205l-1.404 1.222c.06.244.06.488.06.793 0 1.588-.854 2.504-2.258 2.504-.611 0-1.1-.183-1.466-.489l4.946-4.274c-.122-.183-.305-.366-.427-.55a.843.843 0 0 0-.244-.183h-.062l-.06-.06c-.733-.55-1.65-.856-2.687-.856-1.222 0-2.26.428-3.053 1.16-.733.733-1.1 1.71-1.1 2.81 0 .732.184 1.404.489 2.014l1.465-1.22c-.06-.245-.06-.49-.06-.795 0-.732.183-1.282.488-1.71.366-.488.977-.793 1.77-.793.611 0 1.1.183 1.466.488l-4.946 4.275a4.278 4.278 0 0 0 .61.732l.123.123.06.06c.734.611 1.65.917 2.749.917 1.221 0 2.259-.428 3.053-1.16.733-.733 1.099-1.71 1.099-2.81-.122-.915-.305-1.587-.61-2.198z"/>
        </g>
        <g transform="translate(132.504 217.38)">
            <path fill="#0068C6" d="M0 10.38c0 4.824 4.58 8.732 10.197 8.732 5.618 0 10.198-3.908 10.198-8.731V8.73H0v1.65z"/>
            <ellipse cx="10.197" cy="8.732" fill="#40A0FF" rx="10.197" ry="8.732"/>
            <ellipse cx="10.197" cy="8.732" fill="#1A82FF" rx="8.304" ry="7.144"/>
            <path fill="#0F7CE8" d="M2.137 8.915c0-3.908 3.725-7.144 8.305-7.144 2.198 0 4.274.733 5.74 1.954-1.527-1.344-3.603-2.198-5.985-2.198-4.58 0-8.304 3.175-8.304 7.144 0 2.015.977 3.847 2.565 5.129-1.405-1.221-2.32-2.992-2.32-4.885z"/>
            <path fill="#FFF" d="M13.861 6.717l-1.404 1.221c.06.244.06.489.06.794 0 1.587-.854 2.503-2.259 2.503-.61 0-1.099-.183-1.465-.488l4.946-4.274c-.122-.184-.305-.367-.427-.55a.843.843 0 0 0-.245-.183h-.06l-.062-.061c-.733-.55-1.649-.855-2.687-.855-1.22 0-2.259.427-3.053 1.16-.732.733-1.099 1.71-1.099 2.809 0 .733.183 1.404.489 2.015L8.06 9.587C8 9.342 8 9.098 8 8.793c0-.733.182-1.282.488-1.71.366-.488.977-.794 1.77-.794.611 0 1.1.184 1.466.489l-4.946 4.274a4.278 4.278 0 0 0 .61.733l.123.122.06.061c.733.61 1.65.916 2.748.916 1.222 0 2.26-.427 3.054-1.16.732-.733 1.099-1.71 1.099-2.809-.122-.916-.306-1.588-.61-2.198z"/>
        </g>
        <g transform="translate(130.062 217.38)">
            <path fill="#0068C6" d="M.366 10.38c0 4.824 4.58 8.732 10.198 8.732 5.617 0 10.197-3.908 10.197-8.731V8.73H.427v1.65h-.06z"/>
            <ellipse cx="10.564" cy="8.732" fill="#40A0FF" rx="10.197" ry="8.732"/>
            <ellipse cx="10.564" cy="8.732" fill="#1A82FF" rx="8.304" ry="7.144"/>
            <path fill="#0F7CE8" d="M2.504 8.915c0-3.908 3.724-7.144 8.304-7.144 2.198 0 4.274.733 5.74 1.954-1.527-1.344-3.603-2.198-5.984-2.198-4.58 0-8.305 3.175-8.305 7.144 0 2.015.977 3.847 2.565 5.129-1.405-1.221-2.32-2.992-2.32-4.885z"/>
            <path fill="#FFF" d="M14.227 6.717l-1.404 1.221c.061.244.061.489.061.794 0 1.587-.855 2.503-2.26 2.503-.61 0-1.098-.183-1.465-.488l4.946-4.274c-.122-.184-.305-.367-.427-.55a.843.843 0 0 0-.244-.183h-.061l-.061-.061c-.733-.55-1.65-.855-2.687-.855-1.221 0-2.26.427-3.053 1.16-.733.733-1.1 1.71-1.1 2.809 0 .733.184 1.404.49 2.015l1.465-1.221c-.062-.245-.062-.489-.062-.794 0-.733.184-1.282.489-1.71.366-.488.977-.794 1.77-.794.611 0 1.1.184 1.466.489l-4.946 4.274a4.278 4.278 0 0 0 .61.733l.123.122.061.061c.733.61 1.649.916 2.748.916 1.221 0 2.26-.427 3.053-1.16.733-.733 1.1-1.71 1.1-2.809-.123-.916-.306-1.588-.612-2.198z"/>
        </g>
        <g transform="translate(0 45.796)">
            <ellipse cx="215.732" cy="256.643" fill="#0068C6" rx="98.188" ry="84.265"/>
            <path fill="#0076F6" d="M23.081 265.68l33.462-79.685 88.845 8.243-21.676 82.128z"/>
            <path fill="#005EA5" d="M124.933 281.679l-1.221-5.313 21.676-82.128.794 5.618z"/>
            <path fill="#0068C6" d="M25.646 271.054l-2.565-5.373 100.63 10.685 1.222 5.313z"/>
            <path fill="#0076F6" d="M11.663 4.702L14.777.427l7.755.489-3.053 4.274z"/>
            <path fill="#005EA5" d="M63.993 155.891L19.479 5.191 22.532.915l43.415 150.396z"/>
            <path fill="#0068C6" d="M57.948 155.403L11.663 4.702l7.816.488 44.514 150.701z"/>
            <g fill="#005EA5">
                <path d="M62.466 154.609l-.06-.183-.123-.184-.122-.122-.122-.122-.183-.122-.122-.061-.184-.061h-.183l-8.915.855 5.557-12.213.06-.122v-.244l-.06-.122-.061-.122.06-.122.123-.122.122-.184.061-.183V140.626l-.06-.184-.123-.183-.122-.183-.122-.122-.183-.061-.184-.122h-.366l-10.869.183-.183.061-.183.061-.184.122-.122.122-.122.184-.122.183-.061.183-.061.183v.183l.061.245.061.183.061.183.183.122.122.183.184.061.183.122h.366l9.16-.244-5.496 11.785v.366l.06.123.123.122.122.122.122.122.122.061h-.06l-.123.122-.183.122-.122.183-.061.123-.122.244V156.135l.06.184.123.183.122.183.183.122.122.122.184.061h.427l10.258-1.038h.184l.183-.06.183-.123.122-.122.122-.122.122-.183.061-.184v-.366zM45.43 139.221l.183.122.183.122.184.062.183.122h.244l.183.06h.367l.183-.06.122-.061.122-.123.061-.06 5.984-12.396.061-.122v-.183l-.06-.123-.062-.122-.06-.183-.123-.122-.183-.122-.122-.122-.184-.122-.244-.061-.183-.062h-.55l-.183.062-.122.06-.122.062-.061.122-6.045 12.395-.061.122v.123l.06.183.062.122.061.122zM52.391 125.665l.244-.06.184-.062.122-.122.183-.122.122-.122.122-.183.061-.183v-.611l-.06-.183-.123-.183-.122-.184-.122-.122-.183-.122-.184-.06h-.183l-10.258-.611 6.29-12.335v-.427l-.062-.184-.06-.122.06-.06.122-.184.122-.122.061-.244.061-.184v-.183l-.06-.244-.062-.183-.122-.183-.122-.184-.122-.122-.183-.06-.183-.123h-.184l-12.09-1.587h-.427l-.183.06-.184.123-.183.183-.122.122-.122.244-.061.183-.061.184v.244l.06.244.062.183.061.184.183.183.122.122.183.122.245.061.183.061 10.564 1.282-6.168 11.907v.428l.061.183.123.122.122.183.183.123.06.06-.182.062-.183.122-.123.183-.06.183-.123.183V124.2l.122.183.061.183.123.184.183.122.183.122.183.06h.183l11.48.611zM34.5 105.149l.183.122.183.122.184.122.244.061.183.061.244.061h.428l.122-.06.183-.123.122-.061.061-.122 6.595-12.335.06-.183v-.305l-.06-.122-.122-.183-.122-.184-.184-.122-.183-.122-.183-.122-.244-.061-.183-.061-.184-.061h-.244l-.183.06-.183.062-.122.061-.122.122-.061.122-6.717 12.274v.488l.06.183.123.122zM41.95 91.47h.427l.183-.06.183-.122.184-.123.122-.183.122-.183.06-.244v-.611l-.06-.183-.122-.183-.122-.183-.184-.122-.183-.123-.183-.06-11.785-2.565.061-.061 6.961-12.274.061-.183v-.305l-.122-.183v-.061l.061-.123.122-.122.122-.183.061-.244.062-.183v-.245l-.062-.244-.06-.183-.123-.183-.122-.183-.183-.123-.183-.122-.183-.06-13.556-3.97h-.428l-.244.061-.244.061-.183.123-.183.122-.123.183-.122.244-.06.183-.062.245v.244l.061.244.061.183.122.244.123.184.183.122.183.122.244.06 12.213 3.42-6.9 11.907-.062.184v.122l.062.183.06.183.123.183.122.184.183.122v.06l-.122.062-.183.122-.122.183-.123.244-.06.184-.062.244v.183l.061.244.061.244.123.184.122.183.183.122.183.122.183.061 12.884 2.626zM22.043 66.374l.184.184.244.122.183.122.244.06.244.123H23.814l.183-.061.122-.122.123-.122 7.388-12.152.061-.122.061-.183v-.366l-.122-.184-.061-.183-.183-.183-.183-.122-.184-.183-.183-.122-.244-.061-.183-.061h.122l.244-.062.183-.06.184-.123.183-.122.122-.183.122-.244.122-.183V51.109l-.122-.244-.061-.184-.183-.183-.183-.122-.184-.122-13.616-5.13.06-.06 7.817-11.968.06-.184.062-.122v-.244l-.061-.183-.061-.183v-.061l.06-.061.123-.184.122-.183.061-.244.061-.244v-.428l-.122-.244-.122-.183-.122-.183-.184-.184-.183-.06-15.387-6.962-.184-.06-.244-.062h-.244l-.244.061-.245.122-.183.122-.183.123-.183.244-.122.183-.061.244-.061.245v.488l.122.244.122.245.122.183.183.122.244.122 14.167 6.228-7.694 11.602-.061.183-.061.183v.184l.061.183.061.183.122.244.183.183.184.184-.123.06-.183.123-.183.183-.122.244-.061.244-.061.245v.244l.06.244.062.183.122.245.122.183.183.122.245.122 14.471 5.251.245.061h-.184l-.183.062-.183.06-.183.062-.122.122-7.45 12.151-.06.122-.062.183v.184l.061.183.061.183.122.183zM7.755 21.86l.244.183.183.184.245.122.244.122.244.06h.733l.183-.121.122-.061.122-.184 8.366-11.723.06-.184.062-.183v-.244l-.061-.183-.061-.183-.122-.245-.184-.183-.183-.183-.183-.183-.244-.122-.244-.122-.245-.062-.244-.06h-.244l-.183.06-.184.062-.183.122-.122.122L7.45 20.456l-.062.183-.06.183v.183l.06.183.123.245.122.183z"/>
            </g>
            <path fill="#0076F6" d="M34.012 229.96l23.936-56.056 65.764 5.923-17.647 57.338z"/>
            <path fill="#005EA5" d="M112.049 260.735l-5.984-23.57 17.647-57.338 4.58 24.425z"/>
            <path fill="#0068C6" d="M43.842 253.651l-9.83-23.692 72.053 7.206 5.984 23.57z"/>
            <path fill="#0076F6" d="M38.713 177.873l15.449-33.767 43.049 3.725-12.823 34.195z"/>
            <path fill="#005EA5" d="M95.379 222.998l-10.991-40.972L97.21 147.83l9.403 41.461z"/>
            <path fill="#0068C6" d="M53.49 218.907l-14.777-41.034 45.675 4.153 10.99 40.972z"/>
            <g stroke-linecap="round" stroke-linejoin="round" stroke-width=".5">
                <path fill="#363D4B" stroke="#363D4B" d="M18.502 26.623l5.312-8 13.678.917-5.068 7.999z"/>
                <path fill="#363D4B" stroke="#363D4B" d="M72.175 166.821L32.424 27.54l5.068-8 38.103 138.978z"/>
                <path fill="#363E4B" stroke="#363E4B" d="M61.184 165.844L18.502 26.623l13.922.916L72.175 166.82z"/>
            </g>
            <path fill="#005EA5" d="M82.006 154.365l-.06-.061-19.296-13.068 13.922 1.344h.06l.062-.061.122-.061.061-.123.061-.122v-.06h.305l.061-.123.123-.061.122-.122.122-.122.122-.183.122-.123.122-.183.122-.183.061-.122.061-.183.061-.122.062-.122v-.122l-.062-.062-21.188-14.593 15.388 1.404h.122l.06-.122.062-.061.06-.122.062-.184.061-.183.061-.183v-.183l.061-.183v-.306l.061-.06.122-.123.122-.122.123-.183.122-.122.122-.183.122-.184.061-.122.122-.183v-.122l.061-.122v-.122l-.06-.061-20.884-14.655 15.021 1.282h.061l.122-.06.061-.123.062-.122.06-.122h.122l.123-.061.06-.122.123-.062.183-.183.122-.122.122-.122.123-.183.122-.183.122-.184.06-.122.123-.183v-.122l.061-.122v-.122l-.061-.061-22.898-16.426 16.548 1.466.06-.062.123-.06.06-.062.062-.122.06-.183.062-.183.061-.183.061-.184V91.288l.122-.123.122-.122.184-.183.122-.183.122-.183.122-.122.061-.184.122-.122.061-.183v-.06l.061-.123-.06-.061L42.498 73.03l16.182 1.343h.06l.123-.06.06-.062.062-.122.122-.183v-.122l.061-.061.122-.061.122-.061.122-.122.123-.184.122-.122.183-.183.122-.183.122-.183.122-.183.122-.123.061-.183.061-.122.062-.061v-.183L35.599 53.185l17.891 1.404h.183l.062-.122.06-.122.123-.122.06-.183.062-.244v-.428l.06-.244-.06-.183v-.245l-.061-.183v-.06l.183-.184.122-.122.122-.183.183-.183.123-.184.122-.183.122-.183.06-.122.062-.122.06-.122v-.123l-24.79-18.868 17.464 1.283h.182l.123-.122.06-.123.123-.122.061-.183v-.183h.061v-.061l.122-.122.122-.122.184-.184.122-.183.122-.183.183-.183.122-.183.122-.184.122-.122.122-.183.062-.122.06-.061v-.122L22.533 9.159l19.418 1.344h.122l.06-.061.123-.123.06-.183.062-.183.061-.183.061-.244v-.977l-.06-.245-.062-.183-.122-.183-.061-.122-.122-.122-.061-.061h-.123L21.616 6.228h-.122l-.122.061-.061.123-.123.183-.06.183-.062.183-.06.244v.733l.06.244.061.245.061.183.062.183.122.122.06.061.062.061-.061.122-.122.122-.184.184-.122.183-.183.183-.122.183-.183.183-.122.184-.061.122-.122.122-.062.122v.061l25.036 19.418-16.853-1.283h-.061l-.122.061-.123.061-.06.123-.123.183-.06.122-.062.244v.244l-.06.184v.244l.06.244v.122l-.122.061-.122.183-.122.184-.183.183-.123.183-.122.183-.122.122-.122.184-.061.122-.061.06v.062l-.061.06 25.707 19.48-17.525-1.344h-.122l-.122.061-.061.061-.122.122-.061.123-.061.183-.061.244-.061.183V52.147l.06.244v.183l.062.184.122.122.06.122-.121.122-.183.122-.123.183-.122.183-.122.184-.183.183-.061.183-.122.122-.061.122-.061.122v.122l22.837 16.976-15.51-1.283h-.122l-.122.061-.061.061-.061.123-.122.183-.061.183v.183l-.062.183v.428l-.183.183-.122.122-.122.183-.122.183-.183.184-.061.183-.122.122-.123.183-.06.122-.062.061v.184l23.57 17.097L45.98 89.15l-.122.062-.062.06-.06.062-.123.122-.06.183-.062.183-.06.183v.183l-.062.245v.183l.061.244v.183l.061.184.061.122-.06.06-.184.184-.122.183-.122.122-.122.183-.123.184-.122.183-.06.122-.062.122-.06.122v.183l21.004 14.9-14.471-1.283-.061.061-.061.061-.122.061-.062.122-.06.184-.062.183-.06.183v.366l-.123.061-.122.123-.122.122-.122.183-.122.122-.122.183-.123.183-.06.123-.123.183-.06.122v.122l-.062.061v.061l.061.061 21.677 15.143-15.143-1.404h-.061l-.061.061-.061.061-.123.122-.06.122-.062.123-.06.183-.062.183V125.116l.061.061-.06.061-.123.183-.183.122-.122.184-.061.122-.122.183-.122.183-.062.122-.06.122-.062.122v.183h.061l19.296 13.251-13.312-1.221h-.122l-.06.06-.062.062-.06.061-.062.122-.061.183-.061.183-.061.184v.06l-.061.062-.122.06-.122.123-.123.122-.122.183-.122.122-.06.184-.123.183-.122.122-.061.183-.061.122v.122l-.061.061.06.061v.062l21.739 14.654h.122l.122-.06.061-.062.122-.06.122-.123.123-.122.122-.183.122-.122.122-.184.06-.122.123-.183.061-.122.061-.122v-.244z"/>
            <g stroke-linecap="round" stroke-linejoin="round" stroke-width=".5">
                <path fill="#363D4B" stroke="#363D4B" d="M11.296 21.188l8.61-12.334 21.433 1.404L33.4 22.654zM38.774 41.644l-5.373-18.99 7.938-12.396 5.007 18.746z"/>
                <path fill="#363E4B" stroke="#363E4B" d="M17.28 40.118l-5.984-18.93 22.105 1.466 5.373 18.99z"/>
            </g>
            <g>
                <path fill="#0076F6" d="M37.614 6.35l2.809-4.335 7.816.489-2.748 4.335z"/>
                <path fill="#005EA5" d="M84.204 157.662L45.491 6.839l2.748-4.335 37.736 150.578z"/>
                <path fill="#0068C6" d="M78.098 157.112L37.614 6.35l7.877.489 38.713 150.823z"/>
            </g>
            <g>
                <path fill="#0076F6" d="M.122 20.7l3.359-4.64 7.999.488-3.237 4.64z"/>
                <path fill="#005EA5" d="M56.727 172.805L8.243 21.188l3.237-4.64L58.803 167.92z"/>
                <path fill="#0068C6" d="M50.498 172.256L.122 20.7l8.121.488 48.484 151.617z"/>
            </g>
            <path fill="#005EA5" d="M199.428 34.683l-.06-.55v-.488l-.062-.427-.06-.245-.123-.183h-.061L26.5 21.31l-.366.123-.306.244-.244.366-.305.428-.184.55-.183.671-.122.733-.06.733v.732l.06.733.122.733.122.671.245.55.244.55.244.366.305.244.367.183 172.072 11.663h.123l.06-.122.123-.244.122-.428.06-.488.123-.55.061-.671.122-.733.061-.733v-.794l.061-.732v-.733z"/>
            <g fill="#005EA5">
                <path d="M71.748 159.372l-.061-.184-.061-.183-.061-.183-.123-.183-.183-.122-.122-.122-.183-.061-.183-.122h-.489l-.183.06-.122.123-.061.06V157.907l-.061-.183v-.183l-.061-.122-.061-.061-.061-.061h-.061l-15.45-1.405 13.251-10.441.061-.123.123-.122v-.183l.06-.122-.06-.183v-.183l-.123-.184-.06-.183-.123-.183-.183-.183-.122-.122-.183-.061-.183-.061-.184-.061h-.366l-.183.06-.122.123-15.083 12.029-.122.122-.06.122-.062.122v.55l.122.183.061.183.122.183.184.123.122.122.183.122.183.06h.55l.122-.06.06-.061.062.183v.122l.061.122.061.122.061.061h.061l16.06 1.405L55.2 169.69l-.122.122-.061.122-.061.123-.061.183.06.183v.183l.062.183.122.183.122.123.122.183.183.06.184.123.183.061h.488l.122-.061.122-.122 14.839-11.236.122-.122.06-.122.062-.122v-.183zM65.031 144.167l.061-.06.061-.062.061-.122.061-.122.061-.122.061-.183.061-.245.061-.183v-.61l-.06-.184v-.122l-.062-.183-.06-.061-.062-.061-.06-.061-17.281-1.466 14.593-12.09.061-.122.123-.183.06-.122v-.367l-.06-.183-.061-.183-.123-.183-.122-.183-.183-.184-.183-.122-.183-.122-.183-.061-.184-.061h-.366l-.122.061-.183.122-.061.061V125.665l-.061-.183-.061-.122-.062-.122-.06-.061-.062-.061-16.547-1.343 13.922-12.152.122-.122.06-.122.062-.183v-.367l-.061-.183-.061-.183-.122-.183-.122-.183-.184-.183-.183-.123-.183-.122-.183-.122h-.183l-.184-.06-.183.06h-.183l-.122.122-15.754 13.8-.122.122-.122.184-.061.122v.366l.06.183.062.183.122.184.122.183.122.183.183.122.184.122.244.061.183.061h.183l.183-.06h.183v-.062l.062.122v.184l.06.122.062.122.122.06.06.062 17.16 1.404-13.984 11.785-.122.122-.122.123-.061.122v.366l.06.183.062.183.122.184.122.183.122.122.183.183.184.061.183.061.183.061h.366l.184-.06.122-.123.366-.305v.06l-.061.184-.061.244v.183l-.061.184v.427l.06.183.062.122v.123l.061.122.122.06.061.062 17.342 1.465zM55.322 110.095l.122-.061.061-.122.061-.123.061-.183.061-.183.062-.183.06-.244v-.611l-.06-.183v-.183l-.062-.184-.06-.122-.062-.06-.122-.062h-.06l-18.442-1.465 15.45-14.228.06-.183.061-.122.061-.183-.06-.183v-.245l-.123-.183-.122-.183-.122-.183-.183-.183-.183-.123-.184-.122-.183-.122-.244-.06h-.366l-.184.06-.122.061-.06.061V89.456l-.062-.183-.061-.184-.061-.183-.061-.122-.061-.122-.061-.061h-.122L32.24 87.258l14.777-14.35.122-.122.06-.122v-.428l-.06-.183-.061-.183-.122-.244-.184-.184-.122-.183-.183-.122-.244-.122-.183-.122-.245-.061-.183-.061-.244.06h-.183l-.122.062-.122.122-16.487 16.06-.061.121-.061.184-.061.183v.183l.06.183.062.183.122.245.183.183.122.122.183.183.245.122.183.061.244.061.183.061h.183l.184-.06h.06l.062.183.06.183.062.122.122.122.061.061h.122l18.38 1.404-14.9 13.862-.121.122-.061.122v.366l.06.244.062.184.122.183.122.183.183.183.183.122.183.122.184.061.183.062h.427l.183-.062.123-.06.122-.123.305-.244-.061.122-.061.183-.061.184v.244l-.061.183v.244l.06.183v.245l.062.122.061.183.061.122.061.061.122.061h.061l18.502 1.466zM44.209 71.32l.122-.06.061-.123.122-.122.061-.122.061-.244.061-.184v-.244l.061-.244v-.427l-.06-.245-.062-.183-.06-.183-.062-.122-.06-.122-.123-.061-.061-.061-19.723-1.466-.122.061h-.061l16.303-16.73.122-.123.061-.183v-.367l-.06-.183-.062-.244-.122-.183-.183-.183-.183-.184-.183-.183-.184-.122-.244-.122-.244-.122h-.611l-.183.061v.061-.244l-.06-.244v-.245l-.062-.183-.061-.244-.061-.122-.122-.122-.061-.061-.122-.061-19.113-1.344L34.5 28.638l.122-.183.061-.122v-.611l-.122-.183-.122-.244-.183-.183-.183-.184-.184-.183-.244-.183-.244-.122-.183-.061-.245-.061h-.427l-.183.06-.122.123-17.22 18.746-.122.183-.06.122v.611l.121.183.122.244.122.183.184.184.244.183.183.122.244.122.245.061.244.061h.183l.183-.06h.061l.061.182.061.184.122.183.062.122.122.06.122.062 19.784 1.404-15.632 16.182-.122.122-.061.183-.061.183v.183l.06.184.062.244.122.183.183.183.183.183.184.184.183.122.244.122.244.06h.611l.122-.121.183-.061.305-.367-.06.184-.062.183-.06.183-.062.244v.733l.061.183v.244l.122.122.061.184.062.122.122.06h.122l19.723 1.466zM31.447 26.745l.122-.06.061-.062.122-.122.061-.183.122-.183.061-.245v-.244l.062-.244v-.244l-.062-.245v-.244l-.06-.244-.062-.183-.122-.184-.06-.183-.123-.06-.122-.062h-.061L10.197 22.35h-.122l-.122.122-.122.122-.061.122-.061.183-.061.244-.061.245v.794l.06.244.062.183.06.244.062.183.122.123.122.06.122.062 21.128 1.465z"/>
            </g>
            <g>
                <path fill="#0076F6" d="M27.05 22.47l3.054-4.64 8.06.489-2.931 4.701z"/>
                <path fill="#005EA5" d="M77.549 174.698L35.233 23.02l2.93-4.701 41.279 151.494z"/>
                <path fill="#0068C6" d="M71.26 174.088L27.05 22.47l8.183.55 42.316 151.677z"/>
            </g>
            <ellipse cx="215.732" cy="251.148" fill="#0076F6" rx="98.188" ry="84.265"/>
            <ellipse cx="215.732" cy="247.912" fill="#0068C6" rx="84.449" ry="71.809"/>
            <ellipse cx="215.732" cy="242.416" fill="#0076F6" rx="84.449" ry="71.809"/>
        </g>
        <path fill="#FFF" d="M302.867 233.745c3.603 7.267 11.114 12.213 19.784 12.213 12.213 0 22.105-9.893 22.105-22.105s-9.892-22.104-22.105-22.104a22.11 22.11 0 0 0-17.463 8.548c-3.603-7.266-11.114-12.212-19.784-12.212-8.122 0-15.205 4.396-19.052 10.869-3.114-2.931-7.022-4.946-11.418-5.679.122-.855.183-1.71.183-2.564 0-12.213-9.892-22.105-22.105-22.105-12.212 0-22.104 9.892-22.104 22.105 0 10.93 7.938 20.028 18.38 21.799-.123.855-.184 1.71-.184 2.564 0 2.931.611 5.801 1.65 8.366-5.68 2.748-10.015 7.816-11.664 14.044a22.174 22.174 0 0 0-12.395-3.786c-2.931 0-5.68.55-8.183 1.588 5.801-3.97 9.648-10.686 9.648-18.258 0-6.228-2.564-11.846-6.717-15.876 2.32-3.48 3.664-7.694 3.664-12.212 0-12.213-9.892-22.105-22.104-22.105-12.213 0-22.105 9.892-22.105 22.105 0 2.26.367 4.396.977 6.472-2.198-.732-4.518-1.099-6.96-1.099-12.213 0-22.105 9.892-22.105 22.105 0 12.212 9.892 22.104 22.104 22.104h.428c-2.26 3.48-3.603 7.633-3.603 12.09 0 6.9 3.175 13.068 8.121 17.159-3.969 3.969-6.411 9.525-6.411 15.57 0 .794.06 1.527.122 2.32-10.93 1.1-19.479 10.198-19.784 21.312a22.154 22.154 0 0 0-10.259-2.504c-2.564 0-5.068.427-7.327 1.282a22.096 22.096 0 0 0-16.487-7.388c-12.212 0-22.104 9.892-22.104 22.104 0 3.237.671 6.29 1.954 9.037h-.55c-12.212 0-22.104 9.892-22.104 22.105 0 12.212 9.892 22.104 22.104 22.104a22.004 22.004 0 0 0 16.914-7.877c3.847 6.534 10.93 10.93 19.113 10.93 12.151 0 21.982-9.77 22.104-21.86 4.03 4.275 9.709 6.9 16.06 6.9 9.953 0 18.318-6.533 21.127-15.57a21.88 21.88 0 0 0 6.35.915c.61 0 1.283-.06 1.893-.06a22.038 22.038 0 0 0 20.09 12.883c12.212 0 22.104-9.892 22.104-22.104 0-3.114-.61-6.045-1.77-8.732.549.061 1.098.061 1.709.061 1.77 0 3.542-.244 5.19-.61 1.16 11.113 10.564 19.723 21.983 19.723 1.099 0 2.198-.062 3.297-.245 3.908 6.29 10.869 10.503 18.807 10.503 2.32 0 4.519-.366 6.595-1.038 3.42 7.755 11.174 13.25 20.272 13.25 12.213 0 22.105-9.892 22.105-22.104 0-12.213-9.892-22.105-22.105-22.105-2.32 0-4.518.367-6.594 1.039a22.224 22.224 0 0 0-12.274-11.724c2.381-3.542 3.786-7.755 3.786-12.335 0-8.915-5.251-16.548-12.823-20.09 1.282-2.808 1.954-5.861 1.954-9.098 0-2.137-.305-4.152-.855-6.106 9.281-2.625 16.06-11.174 16.06-21.25a22.124 22.124 0 0 0-5.435-14.532h1.038a22.42 22.42 0 0 0 17.158-8.732zm-60.634 70.038c.305.183.671.367.977.489-.061.183-.183.366-.245.55a15.276 15.276 0 0 1-.732-1.039zm-49.766-55.017l-.366-.55a14.049 14.049 0 0 0 2.076-.732c-.61.428-1.16.855-1.71 1.282z" opacity=".5"/>
        <path fill="#FFF" d="M314.713 212.74c-10.32 0-18.99 7.083-21.432 16.67-3.359-2.076-7.328-3.237-11.541-3.237-1.1 0-2.198.062-3.298.245-2.808-8.976-11.174-15.51-21.127-15.51-12.212 0-22.104 9.892-22.104 22.104 0 2.015.244 3.97.793 5.801-10.869 1.405-19.234 10.686-19.234 21.922 0 2.32.366 4.518 1.038 6.655-.427 0-.855-.06-1.282-.06-2.382 0-4.702.366-6.9 1.098-1.588-6.839-6.412-12.456-12.701-15.204 6.656-3.786 11.174-10.991 11.174-19.174 0-12.212-9.892-22.104-22.104-22.104-11.907 0-21.616 9.404-22.105 21.127-1.648-.366-3.297-.61-5.068-.61-12.212 0-22.104 9.892-22.104 22.104 0 5.13 1.77 9.892 4.701 13.678a22.098 22.098 0 0 0-12.578 19.967c0 10.808 7.755 19.784 18.013 21.738-2.137 3.42-3.42 7.45-3.42 11.785v.611a28.04 28.04 0 0 0-2.32-.122c-12.212 0-22.104 9.892-22.104 22.104 0 12.213 9.892 22.105 22.104 22.105 9.098 0 16.914-5.496 20.334-13.373 3.48 2.26 7.633 3.603 12.029 3.603 9.098 0 16.914-5.496 20.334-13.373 2.259.794 4.762 1.222 7.327 1.222 9.587 0 17.77-6.107 20.822-14.655 3.908 6.228 10.808 10.32 18.685 10.32h.916c2.015 10.135 10.991 17.707 21.677 17.707 12.212 0 22.104-9.892 22.104-22.104 0-12.213-9.953-22.044-22.165-22.044h-.916a12.184 12.184 0 0 0-.55-2.137c5.985-3.969 10.015-10.747 10.015-18.502 0-9.342-5.801-17.341-14.045-20.578a21.918 21.918 0 0 0 3.359-11.723c0-2.015-.244-3.97-.794-5.801.122 0 .244-.061.366-.061 2.81 8.976 11.175 15.51 21.128 15.51 10.32 0 18.99-7.084 21.433-16.67 3.358 2.076 7.327 3.236 11.54 3.236 12.213 0 22.105-9.892 22.105-22.105 0-12.212-9.892-22.165-22.105-22.165z" opacity=".5"/>
        <path fill="#FFF" d="M287.846 299.814c0-7.755-4.03-14.594-10.075-18.563a21.947 21.947 0 0 0 4.396-13.19c0-2.869-.55-5.617-1.526-8.12a22.118 22.118 0 0 0 5.19-14.228c0-12.212-9.892-22.104-22.104-22.104-7.023 0-13.25 3.297-17.342 8.365-3.664-7.144-11.113-12.029-19.662-12.029-12.212 0-22.104 9.892-22.104 22.105 0 1.892.244 3.663.671 5.434-3.48-7.694-11.174-13.006-20.15-13.006-6.9 0-13.067 3.175-17.098 8.121-2.93-1.465-6.228-2.26-9.708-2.26-12.213 0-22.105 9.893-22.105 22.105a22.004 22.004 0 0 0 7.877 16.914c-1.16 2.687-1.77 5.618-1.77 8.732 0 12.213 9.891 22.105 22.104 22.105a22.137 22.137 0 0 0 14.716-5.618c2.809 6.473 8.61 11.358 15.632 12.823-2.32 3.48-3.603 7.633-3.603 12.151 0 12.213 9.892 22.105 22.104 22.105 7.084 0 13.373-3.298 17.403-8.488a22.042 22.042 0 0 0 16.365 7.267c12.212 0 22.104-9.893 22.104-22.105 0-2.26-.366-4.457-.977-6.534 11.052-1.16 19.662-10.563 19.662-21.982zm-58.253 14.105h.61c-.183.245-.427.489-.61.733l-.733-.733h.733zm-22.41-57.337c0-1.893-.244-3.663-.671-5.434a21.814 21.814 0 0 0 3.846 5.8 22.154 22.154 0 0 0-2.503 10.26c0 3.235.672 6.288 1.954 9.036-3.114-1.648-6.656-2.625-10.442-2.625h-.305c4.946-3.97 8.121-10.137 8.121-17.037zm-21.799 22.105c-.244.183-.488.427-.733.61a2.852 2.852 0 0 0-.305-.61h1.038z" opacity=".5"/>
        <path fill="#720C11" d="M168.592 270.932a12.56 12.56 0 0 0 12.579-12.579c0-1.465-.244-2.87-.733-4.152l-.55-.61-2.442-2.016-.794-.55-2.809-1.282-.61-.244-2.87-.61-2.992.06-2.931.672-2.687 1.221-.55.367-2.503 1.954-.672.733-1.77 2.259a13.35 13.35 0 0 0-.184 2.198c-.06 6.9 5.557 12.579 12.518 12.579zM169.203 285.831c-4.641 0-8.793-1.832-11.846-4.824l.977 1.527.488.488 2.382 2.137.244.122 2.992 1.466 3.42.733 3.54-.061 3.481-.855 3.176-1.588 2.564-2.137.183-.183 1.893-2.687.367-.61.427-1.222c-3.175 4.702-8.365 7.694-14.288 7.694z"/>
        <path fill="#ED2A28" d="M152.838 268.612l.061 1.099.489 2.137.793 3.42.916 2.014c.245-1.404.489-2.747.794-3.908-1.282-1.343-2.32-2.992-3.053-4.762z"/>
        <path fill="#FBFBFB" d="M158.456 265.742a12.467 12.467 0 0 1-2.443-7.389c0-.733.061-1.465.183-2.198l-.244.305-.61 1.038-1.222 3.053-.671 1.771-.306 1.893-.305 3.48v.978a16.28 16.28 0 0 0 3.053 4.762c.855-3.724 1.832-6.228 2.565-7.693z"/>
        <path fill="#ED2A28" d="M183.43 278.26l.489-1.344 1.16-3.297.427-2.199.122-3.48v-2.198l-.122-.794A17.12 17.12 0 0 1 178.484 276c.366 1.832.733 3.969.916 6.473a18.863 18.863 0 0 0 4.03-4.214z"/>
        <path fill="#FBFBFB" d="M155.83 273.435c-.305 1.16-.55 2.504-.794 3.908l1.832 2.931.489.733c3.053 2.992 7.266 4.824 11.907 4.824 3.786 0 7.327-1.221 10.136-3.358-.183-2.504-.55-4.641-.916-6.473-2.809 1.954-6.167 3.114-9.83 3.114-5.13 0-9.649-2.198-12.824-5.679zM185.445 264.948l-.244-1.221-.977-3.298-.672-1.77-.977-1.527-1.832-2.687-.244-.244c.428 1.282.733 2.687.733 4.152 0 4.213-2.076 7.938-5.313 10.259.855 1.465 1.832 3.846 2.565 7.388a17.126 17.126 0 0 0 6.961-11.052z"/>
        <path fill="#ED2A28" d="M175.858 268.55a12.556 12.556 0 0 1-7.266 2.32c-4.152 0-7.877-2.014-10.136-5.19-.733 1.466-1.71 3.97-2.565 7.694a17.104 17.104 0 0 0 12.762 5.68c3.664 0 7.083-1.161 9.831-3.115-.794-3.542-1.77-5.862-2.626-7.389z"/>
        <path fill="#0076F6" d="M199.734 261.834l-.428-12.213 1.466-8.61.427 12.274z"/>
        <path fill="#FF4D4D" d="M169.63 249.377l1.71-1.588 1.954-1.465 2.198-1.282 2.443-1.16 2.686-.978 2.931-.793 3.114-.611 3.298-.427 3.42-.245h3.602l3.725.245-1.466 8.61-3.725-.245h-3.663l-3.48.183-3.36.428-3.175.61-2.93.794-2.748.977-2.504 1.16-2.26 1.283-2.014 1.404-1.71 1.588-1.404 1.71s2.32-4.03 2.87-6.534c.55-2.076.488-3.664.488-3.664z"/>
        <path fill="#0068C6" d="M199.306 249.62l.427 12.214"/>
        <path fill="#ED2A28" d="M199.734 261.834l-1.71-.122h-1.1l-1.648.06-1.588.123-1.465.244-1.404.305-1.283.428-1.221.488-1.1.55-.976.61-.855.672-.733.733-.61.794-.489.854-.305.916-.183.916s-.977-2.87-6.35-6.35c-5.374-3.48-10.32-3.664-10.32-3.664l1.404-1.71 1.71-1.587 2.015-1.405 2.26-1.282 2.503-1.16 2.748-.977 2.93-.794 3.176-.61 3.358-.428 3.48-.183h3.664l3.725.244"/>
        <g>
            <path fill="#720C11" d="M231.852 257.315l2.504 1.954 2.992 1.343.06.061 3.298.672 3.359-.06 3.175-.734.122-.06 2.87-1.405.183-.183 2.32-2.015.428-.55.733-1.16c-2.931 2.442-6.84 3.969-11.175 3.969-5.923 0-11.052-2.809-13.983-7.083l.794 2.076.366.61 1.832 2.382.122.183zM243.27 243.82c6.595 0 11.969-4.885 11.969-10.93 0-.366 0-.794-.061-1.16l-.55-.855-1.954-2.32-.671-.733-.794-.61-2.198-1.588-2.565-1.1-.366-.121-2.504-.489-2.564.061-2.443.55-.61.183-2.443 1.16-.794.428-2.198 1.77a9.87 9.87 0 0 0-1.221 4.763c0 6.106 5.373 10.991 11.968 10.991z"/>
            <path fill="#ED2A28" d="M256.033 251.148l.732-2.076.794-3.176.245-1.404c-1.16 1.954-2.748 3.603-4.702 4.946.244 1.71.488 3.725.61 5.923l.977-1.588 1.344-2.625z"/>
            <path fill="#0076F6" d="M226.784 238.996l-.244 1.893.122 3.237.122 2.137.366 2.32.733 2.26c.489-1.832 1.038-3.908 1.527-5.313-1.344-1.893-2.32-4.152-2.626-6.534z"/>
            <path fill="#ED2A28" d="M251.026 241.195c-2.076 1.648-4.763 2.625-7.755 2.625-4.397 0-8.244-2.198-10.32-5.434-.855 1.099-2.198 3.297-3.541 7.144 2.992 4.091 8.06 6.778 13.8 6.778 3.663 0 7.083-1.1 9.83-2.931-.549-3.786-1.343-6.473-2.014-8.182z"/>
            <path fill="#FBFBFB" d="M257.56 238.386l-.367-1.893-.733-1.77-1.221-2.749-.122-.183c.06.367.06.794.06 1.16 0 3.298-1.648 6.29-4.212 8.305.671 1.71 1.465 4.335 2.076 8.182a15.147 15.147 0 0 0 4.701-4.946l.123-.794-.061-2.076-.245-3.236zM231.669 228.86l-.733.916-1.71 2.504-.854 1.587-.61 1.832-.917 3.114v.183a14.463 14.463 0 0 0 2.626 6.595c1.343-3.847 2.625-5.984 3.541-7.144-1.038-1.649-1.648-3.48-1.648-5.496 0-1.71.427-3.358 1.221-4.763l-.916.672zM242.66 259.086c4.213 0 8.06-1.466 10.991-3.847-.122-2.198-.366-4.091-.61-5.8-2.748 1.83-6.168 2.93-9.831 2.93-5.801 0-10.87-2.687-13.8-6.778a60.037 60.037 0 0 0-1.527 5.313c2.809 4.823 8.366 8.182 14.777 8.182z"/>
            <path fill="#FF4D4D" d="M237.348 227.639l-1.16-.366-1.283-.061-1.404.183-1.527.427-1.648.733-1.832 1.038-1.893 1.343-1.954 1.588-2.137 1.893-2.137 2.26 8.548 5.006 2.198-2.26 2.077-1.953 1.954-1.649 1.892-1.343 1.71-1.1 1.649-.732 1.526-.488 1.344-.245 1.282.061 1.038.367z"/>
            <path fill="#ED2A28" d="M237.958 251.331l-.183-.672-.244-.55-.366-.427-.428-.305-.488-.183-.55-.061-.61.06-.672.184-.733.305-.794.428-.855.55-.916.732-.915.855-.672.61-.977 1.039.305-12.152 2.137-2.259 2.076-1.954 1.954-1.649 1.893-1.343 1.771-1.038 1.649-.794 1.526-.488 1.344-.184 1.221.061 1.1.306.915.61s-2.32 3.603-4.58 8.55c-1.954 4.273-3.908 9.769-3.908 9.769z"/>
            <path fill="#0076F6" d="M228.921 241.683l-.305 12.152-8.366-5.008.123-12.15z"/>
        </g>
        <g>
            <path fill="#720C11" d="M215.915 142.213c12.09 0 22.776-5.984 29.249-15.143-3.176-29.127-11.724-56.36-29.86-74.007-17.769 17.341-26.378 43.903-29.676 72.42 6.35 10.075 17.525 16.73 30.287 16.73zM215.182 276.916c13.922 0 17.83-11.54 17.83-11.54s1.1-4.214 2.687-11.541c-5.373 4.396-12.273 7.083-19.784 7.083-8.243 0-15.693-3.176-21.31-8.427 1.71 8.121 2.991 12.884 2.991 12.884s3.664 11.54 17.586 11.54z"/>
            <path fill="#ED2A28" d="M195.46 235.333c-1.772-1.344-3.42-2.81-4.886-4.458 1.466 8.549 2.87 15.937 4.091 21.677 1.039.916 2.077 1.832 3.237 2.626-.916-7.022-1.71-13.556-2.443-19.845z"/>
            <path fill="#FBFBFB" d="M230.204 257.498c1.954-1.038 3.846-2.26 5.495-3.602 1.221-5.557 2.687-12.884 4.152-21.433a33.477 33.477 0 0 1-7.51 5.495c-.61 6.534-1.344 13.007-2.137 19.54z"/>
            <path fill="#ED2A28" d="M212.312 241.927c.061 6.717.061 13.068.123 18.808 1.16.122 2.32.183 3.48.183 5.13 0 10.014-1.222 14.289-3.42a1011.78 1011.78 0 0 0 2.198-19.6 34.039 34.039 0 0 1-16.426 4.213c-1.282 0-2.503-.061-3.664-.184z"/>
            <path fill="#FBFBFB" d="M197.84 255.178a31.05 31.05 0 0 0 14.595 5.557c-.062-5.74-.123-12.09-.123-18.808-6.289-.671-12.09-2.992-16.853-6.594.733 6.29 1.527 12.823 2.382 19.845z"/>
            <path fill="#ED2A28" d="M234.234 216.465c-.489 7.266-1.1 14.41-1.832 21.493a37.1 37.1 0 0 0 7.51-5.495 558.343 558.343 0 0 0 3.542-23.814c-2.687 3.053-5.74 5.74-9.22 7.816z"/>
            <path fill="#FBFBFB" d="M193.078 213.228c-2.26-1.893-4.336-4.03-6.045-6.472a505.875 505.875 0 0 0 3.48 24.12c1.466 1.648 3.114 3.113 4.885 4.457-.855-7.694-1.648-14.96-2.32-22.105zM212.251 221.288c0 7.145.061 14.106.061 20.64 1.222.122 2.382.183 3.603.183 5.984 0 11.54-1.527 16.426-4.214a599.103 599.103 0 0 0 1.832-21.493c-5.374 3.175-11.602 5.068-18.258 5.068-1.221 0-2.442-.061-3.664-.184z"/>
            <path fill="#ED2A28" d="M195.46 235.333c4.823 3.602 10.563 5.923 16.852 6.594-.06-6.594-.06-13.494-.06-20.639a35.257 35.257 0 0 1-19.113-8.06c.61 7.145 1.404 14.41 2.32 22.105z"/>
            <path fill="#FBFBFB" d="M235.333 191.735a534.34 534.34 0 0 1-1.1 24.73c3.481-2.077 6.595-4.702 9.16-7.816 1.038-8.549 1.954-17.647 2.565-27.05a37.348 37.348 0 0 1-10.625 10.136z"/>
            <path fill="#ED2A28" d="M191.612 188.01a36.142 36.142 0 0 1-7.022-8.488c.55 9.465 1.466 18.624 2.443 27.234 1.77 2.381 3.786 4.58 6.045 6.472a430.014 430.014 0 0 1-1.466-25.218zM234.234 216.465c.55-8.06.977-16.304 1.099-24.73-5.618 3.541-12.274 5.556-19.418 5.556-1.221 0-2.503-.06-3.664-.183v24.18c1.222.123 2.443.184 3.725.184 6.656 0 12.884-1.832 18.258-5.007z"/>
            <path fill="#FBFBFB" d="M193.078 213.228c5.312 4.397 11.907 7.328 19.112 8.06v-24.18c-7.877-.794-15.021-4.091-20.639-9.098.306 8.548.794 16.792 1.527 25.218z"/>
            <path fill="#ED2A28" d="M235.088 164.44c.367 9.403.428 18.44.245 27.233a37.348 37.348 0 0 0 10.625-10.136c.61-9.22.915-18.685.793-28.21a37.518 37.518 0 0 1-11.663 11.113z"/>
            <path fill="#FBFBFB" d="M191.796 160.837c-3.115-2.687-5.801-5.8-7.877-9.403-.184 9.464.06 18.868.61 28.027a36.142 36.142 0 0 0 7.022 8.488c-.183-8.549-.122-17.403.245-27.112zM212.373 169.569c-.06 8.854-.06 18.135-.122 27.539 1.222.122 2.443.183 3.664.183 7.144 0 13.8-2.076 19.418-5.556.183-8.793.122-17.892-.245-27.234a36.983 36.983 0 0 1-19.112 5.312c-1.282-.06-2.442-.122-3.603-.244z"/>
            <path fill="#ED2A28" d="M191.796 160.837c-.428 9.709-.428 18.563-.245 27.173 5.618 5.007 12.762 8.304 20.64 9.098 0-9.343.06-18.624.121-27.539-7.754-.733-14.838-3.908-20.516-8.732z"/>
            <path fill="#FBFBFB" d="M235.088 164.44a38.03 38.03 0 0 0 11.663-11.052c-.122-8.793-.61-17.647-1.526-26.318-3.114 4.396-7.206 8.121-11.968 10.747.855 9.22 1.465 18.074 1.831 26.623z"/>
            <path fill="#ED2A28" d="M185.628 125.543c-.977 8.549-1.526 17.28-1.71 25.952 2.077 3.541 4.763 6.717 7.878 9.403.366-8.121.916-16.853 1.831-26.379-3.114-2.564-5.862-5.617-7.999-8.976z"/>
            <path fill="#FBFBFB" d="M193.627 134.458a520.874 520.874 0 0 0-1.831 26.38c5.617 4.823 12.7 7.998 20.516 8.731.061-9.892.123-19.296.245-27.539-7.084-.61-13.617-3.358-18.93-7.572z"/>
            <path fill="#ED2A28" d="M212.618 142.091c-.122 8.244-.183 17.586-.245 27.54a36.82 36.82 0 0 0 22.715-5.13 466.302 466.302 0 0 0-1.892-26.623c-5.13 2.809-10.992 4.457-17.22 4.457a66.924 66.924 0 0 0-3.358-.244z"/>
            <path fill="#FBFBFB" d="M215.243.305l2.992 60.33v.244l-.122.305-.183.244-.244.245-.367.183-.366.183-.427.122-.489.122H215l-.488-.06-.428-.123-.427-.122-.428-.183-.305-.245-.244-.244-.122-.244-.061-.244L215.243.305"/>
        </g>
        <g>
            <path fill="#720C11" d="M236.065 329.735c-6.106 0-11.48-2.931-14.899-7.45l2.076 3.114.367.428 2.809 2.442.183.122 3.358 1.71 3.725.855 3.786-.061 3.603-.977.122-.061 3.236-1.832.916-.916c-2.565 1.649-5.74 2.626-9.282 2.626z"/>
            <path fill="#FBFBFB" d="M247.667 325.033l1.405-2.076 1.648-3.48.794-1.955.916-3.908.122-.55c-1.282 2.626-3.236 4.947-5.679 6.717.184 1.527.306 3.847.428 5.923l.366-.671zM218.113 306.348l-.244 1.71.061 4.03.183 2.076.61 2.076 1.222 3.725 1.221 2.381.855 1.221c.183-2.625.55-4.824.916-6.594-2.625-2.87-4.396-6.534-4.824-10.625z"/>
            <path fill="#720C11" d="M236.188 314.652c7.327 0 13.25-5.923 13.25-13.25 0-1.405-.244-2.81-.61-4.03l-1.222-1.649-.61-.733-2.87-2.32-.55-.428-3.175-1.465-.428-.122-3.175-.672-3.236.061h-.244l-3.42.855-2.992 1.588-.733.427-.488.428c-1.71 2.259-2.748 5.068-2.748 8.12 0 7.267 5.923 13.19 13.25 13.19z"/>
            <path fill="#ED2A28" d="M252.552 313.126l.244-1.466-.06-2.015-.306-3.969-.488-1.832-1.405-3.663-.733-1.466-1.038-1.343c.428 1.282.611 2.625.611 4.03 0 3.969-1.77 7.571-4.58 10.014.611 1.099 1.466 3.42 1.954 8.426 2.565-1.77 4.458-4.09 5.801-6.716z"/>
            <path fill="#FBFBFB" d="M222.937 316.973c3.42 3.724 8.305 6.045 13.74 6.045 3.968 0 7.388-1.222 10.196-3.237-.55-5.007-1.404-7.327-1.954-8.426a13.221 13.221 0 0 1-8.67 3.236c-4.275 0-8.06-2.015-10.442-5.13-.672.856-1.954 2.993-2.87 7.512z"/>
            <path fill="#ED2A28" d="M218.113 306.348a18.503 18.503 0 0 0 4.763 10.625c.916-4.519 2.198-6.595 2.809-7.45a13.094 13.094 0 0 1-2.809-8.121c0-3.053 1.038-5.862 2.748-8.121l-2.137 1.954-.794.732-.855 1.283-2.076 3.297-.61 1.71-1.1 3.847.061.244zM246.873 319.781c-2.808 2.015-6.228 3.237-10.197 3.237-5.434 0-10.32-2.32-13.739-6.045-.366 1.77-.672 3.846-.916 6.411 3.42 3.908 8.427 6.35 14.044 6.35 4.458 0 8.305-1.587 11.236-4.03-.122-2.259-.244-4.213-.428-5.923z"/>
            <path fill="#FF4D4D" d="M240.645 295.357l-.427-2.138-.794-3.297-.916-3.42-.977-3.48-1.1-3.541-1.22-3.542-1.283-3.542-1.343-3.48-1.466-3.42-1.465-3.297-1.527-3.175-1.587-2.992-10.136 3.602 1.526 3.053 1.527 3.176 1.465 3.297 1.405 3.42 1.343 3.48 1.282 3.542 1.221 3.541 1.1 3.542 1.038 3.48.916 3.42.793 3.297.672 3.175s1.893-3.236 5.19-4.396c3.298-.977 4.763-.305 4.763-.305z"/>
            <path fill="#ED2A28" d="M216.404 259.696l1.526 3.054 1.527 3.175 1.465 3.297 1.405 3.42 1.343 3.48 1.282 3.542 1.221 3.541 1.1 3.542 1.038 3.48.916 3.42.793 3.297.672 3.175s-1.1-3.114-3.42-4.884c-2.32-1.771-3.724-.428-3.724-.428l-.061-1.16-.122-1.221-.245-1.344-.244-1.404-.305-1.466-.367-1.526-.427-1.588-.489-1.587-.488-1.588-.55-1.588-.61-1.587-.61-1.588-.672-1.526-.672-1.527-.489-.977-.671-1.404-.122-12.03"/>
        </g>
        <path fill="#FFF" d="M177.812 316.3c-11.418 0-20.822 8.672-21.982 19.785-4.03-4.397-9.83-7.144-16.303-7.144a21.929 21.929 0 0 0-14.777 5.678c-1.466-10.807-10.686-19.112-21.86-19.112-12.213 0-22.105 9.892-22.105 22.105 0 12.212 9.892 22.104 22.104 22.104a21.929 21.929 0 0 0 14.777-5.679c1.466 10.808 10.686 19.113 21.86 19.113 11.42 0 20.823-8.671 21.983-19.785 4.03 4.397 9.83 7.145 16.303 7.145 12.213 0 22.105-9.892 22.105-22.105 0-12.212-9.892-22.104-22.105-22.104z" opacity=".5"/>
    </g>
</svg>
