<svg xmlns="http://www.w3.org/2000/svg" width="19" height="19" viewBox="0 0 19 19">
    <path fill="#FFF" fill-rule="evenodd" d="M7.963 11.697l-1.24-3.705 3.85-1.29 1.241 3.705-3.851 1.29zM18.38 9.795c-.257-.772-1.13-1.183-1.902-.926l-1.851.617-1.234-3.702 1.902-.617c.772-.257 1.183-1.131.926-1.903-.257-.77-1.131-1.182-1.903-.925l-1.85.617-.67-1.954C11.544.231 10.67-.18 9.898.077c-.77.257-1.182 1.13-.925 1.902l.565 1.954-3.856 1.285-.668-1.954c-.257-.77-1.132-1.182-1.903-.925-.771.257-1.182 1.131-.925 1.902l.668 1.954-1.851.617C.231 7.07-.181 7.944.077 8.715c.205.617.77 1.028 1.388 1.028.154 0 .36-.051.514-.103l1.851-.617 1.234 3.702-1.851.617c-.771.258-1.183 1.132-.925 1.903.205.617.77 1.028 1.388 1.028.154 0 .36-.051.514-.103l1.851-.617.668 1.954c.206.617.772 1.029 1.389 1.029.154 0 .36-.052.514-.103.771-.257 1.183-1.131.925-1.903l-.668-1.954 3.856-1.285.72 1.954c.206.617.772 1.028 1.389 1.028.154 0 .36-.051.514-.103.771-.257 1.182-1.13.925-1.902l-.668-1.954 1.85-.617c.772-.257 1.184-1.131.926-1.902z"/>
</svg>
