<?xml version="1.0" encoding="UTF-8" standalone="no"?>
<svg width="269px" height="225px" viewBox="0 0 269 225" version="1.1" xmlns="http://www.w3.org/2000/svg" xmlns:xlink="http://www.w3.org/1999/xlink">
    <!-- Generator: Sketch 44.1 (41455) - http://www.bohemiancoding.com/sketch -->
    <title>Page 1</title>
    <desc>Created with Sketch.</desc>
    <defs>
        <polygon id="path-1" points="1.39484318 2.4587907 174.827163 2.4587907 174.827163 129.215252 1.39484318 129.215252"></polygon>
    </defs>
    <g id="Page-1" stroke="none" stroke-width="1" fill="none" fill-rule="evenodd">
        <g id="_top_" transform="translate(-505.000000, -213.000000)">
            <g id="Group-4" transform="translate(375.000000, 210.000000)">
                <g id="Page-1" transform="translate(130.000000, 0.000000)">
                    <path d="M13.3927604,210.514456 C12.931167,208.439665 10.6887165,207.546642 8.67855165,207.582363 C7.1270022,207.61213 5.41166154,208.139014 4.48847473,209.326735 C4.0239033,209.922084 3.86011209,210.681153 3.92562857,211.469991 C4.08941978,213.842456 6.69518901,214.143107 9.1729033,214.372316 C12.3385407,214.768223 16.2635736,215.592781 17.1540022,219.283944 C17.2522769,219.778084 17.3177934,220.340688 17.3177934,220.799107 C17.3177934,225.24934 12.8984088,227.821247 8.74109011,227.821247 C5.17937582,227.821247 0.861243956,225.710735 0.429430769,221.593898 L0.396672527,220.965805 L3.76183736,220.900316 L3.7945956,221.394456 L3.7945956,221.260502 C4.0239033,223.406735 6.62967253,224.528967 8.77384835,224.528967 C11.2485846,224.528967 13.9526286,223.141805 13.9526286,220.76934 C13.9526286,220.537153 13.9228484,220.272223 13.8543538,219.977526 C13.4582769,218.230177 11.0847934,217.932502 8.77384835,217.700316 C5.17937582,217.34013 0.956540659,216.548316 0.5962,211.731944 L0.5962,211.767665 C0.462189011,210.216781 0.861243956,208.668874 1.84994725,207.379944 C3.39851868,205.370642 6.17105714,204.313898 8.84234286,204.313898 C12.4010791,204.313898 16.0968044,206.162456 16.6924088,210.383479 L13.3927604,210.514456 Z" id="Fill-1" fill="#241A1B"></path>
                    <polygon id="Fill-3" fill="#241A1B" points="22.5025297 227.624781 19.1701231 227.624781 19.1701231 204.546084 21.8771451 204.546084 29.4949253 215.756502 37.1156835 204.546084 39.751233 204.546084 39.751233 227.624781 36.4575407 227.624781 36.4575407 211.371758 30.4181121 220.340688 28.5389802 220.340688 22.5025297 211.371758"></polygon>
                    <path d="M48.0733154,217.700316 L53.8149418,217.700316 L50.9768868,209.558921 L48.0733154,217.700316 Z M55.0984692,220.834828 L46.8195681,220.834828 C45.9291396,222.94534 44.7766451,225.710735 44.0470297,227.624781 L40.4525571,227.624781 L49.7231396,204.248409 L52.1651176,204.248409 L61.432722,227.624781 L57.8710077,227.624781 L55.0984692,220.834828 Z" id="Fill-5" fill="#241A1B"></path>
                    <path d="M66.3530099,215.921414 L70.2452846,215.921414 C73.0505813,215.921414 74.4323835,213.909135 74.4323835,211.896856 C74.4323835,209.920298 73.0505813,207.910995 70.2452846,207.910995 L65.1320209,207.910995 L65.1320209,227.625972 L61.8323725,227.625972 L61.8323725,204.547274 L70.2452846,204.547274 C75.2572956,204.547274 77.7647901,208.238437 77.7647901,211.896856 C77.7647901,215.162344 75.7546253,218.261135 71.7968341,218.957693 L79.0840538,227.625972 L74.762944,227.625972 L66.3530099,217.505042 L66.3530099,215.921414 Z" id="Fill-7" fill="#241A1B"></path>
                    <polygon id="Fill-9" fill="#241A1B" points="84.9945341 227.726586 84.9945341 207.9104 78.0021385 207.9104 78.0021385 204.546679 95.286578 204.546679 95.286578 207.9104 88.3269407 207.9104 88.3269407 227.726586"></polygon>
                    <path d="M111.292255,207.877656 C113.305398,205.799888 116.140475,204.448447 119.276332,204.448447 C124.553387,204.448447 128.710705,207.743702 130.029969,212.953005 L126.730321,212.953005 C125.509332,209.491051 122.671277,207.743702 119.276332,207.743702 C117.063662,207.743702 115.053497,208.699237 113.600222,210.217377 C112.149925,211.73254 111.226738,213.777563 111.226738,216.153005 C111.226738,218.459981 112.149925,220.502028 113.600222,222.023144 C115.053497,223.538307 117.063662,224.493842 119.276332,224.493842 C122.769552,224.493842 125.741618,222.481563 126.92687,218.986865 L130.19376,218.986865 C128.874497,224.228912 124.651662,227.789098 119.276332,227.789098 C116.140475,227.789098 113.305398,226.473377 111.292255,224.362865 C109.314848,222.252353 107.995585,219.350028 107.995585,216.153005 C107.995585,212.890493 109.314848,209.988167 111.292255,207.877656" id="Fill-11" fill="#241A1B"></path>
                    <path d="M148.968402,210.119144 C147.416853,208.56826 145.275655,207.612726 143.000446,207.612726 C140.722259,207.612726 138.610842,208.56826 137.095029,210.119144 C135.576237,211.637284 134.620292,213.747795 134.620292,216.087516 C134.620292,218.427237 135.576237,220.537749 137.095029,222.052912 C138.610842,223.600819 140.722259,224.55933 143.000446,224.55933 C145.275655,224.55933 147.416853,223.600819 148.968402,222.052912 C150.451457,220.537749 151.41038,218.459981 151.41038,216.087516 C151.41038,213.712074 150.451457,211.637284 148.968402,210.119144 M134.685809,207.743702 C136.797226,205.600447 139.766314,204.249005 143.000446,204.249005 C146.264358,204.249005 149.19771,205.600447 151.341886,207.743702 C153.420545,209.886958 154.772567,212.819051 154.772567,216.087516 C154.772567,219.353005 153.420545,222.285098 151.341886,224.428353 C149.19771,226.604353 146.264358,227.920074 143.000446,227.920074 C139.766314,227.920074 136.797226,226.604353 134.685809,224.428353 C132.610127,222.285098 131.255127,219.353005 131.255127,216.087516 C131.255127,212.819051 132.610127,209.886958 134.685809,207.743702" id="Fill-13" fill="#241A1B"></path>
                    <polygon id="Fill-15" fill="#241A1B" points="156.861054 227.624781 156.861054 204.51334 159.434065 204.546084 170.682054 220.799107 170.682054 204.546084 173.981702 204.546084 173.981702 227.624781 171.343175 227.624781 160.19346 211.502735 160.19346 227.624781"></polygon>
                    <polygon id="Fill-17" fill="#241A1B" points="182.069712 227.726586 182.069712 207.9104 175.074338 207.9104 175.074338 204.546679 192.358778 204.546679 192.358778 207.9104 185.399141 207.9104 185.399141 227.726586"></polygon>
                    <path d="M198.43573,215.921414 L202.328004,215.921414 C205.130323,215.921414 206.518081,213.909135 206.518081,211.896856 C206.518081,209.920298 205.130323,207.910995 202.328004,207.910995 L197.214741,207.910995 L197.214741,227.625972 L193.915092,227.625972 L193.915092,204.547274 L202.328004,204.547274 C207.340015,204.547274 209.84751,208.238437 209.84751,211.896856 C209.84751,215.162344 207.837345,218.261135 203.876576,218.957693 L211.166774,227.625972 L206.845664,227.625972 L198.43573,217.505042 L198.43573,215.921414 Z" id="Fill-19" fill="#241A1B"></path>
                    <path d="M216.946519,217.700316 L222.685167,217.700316 L219.85009,209.558921 L216.946519,217.700316 Z M223.971673,220.834828 L215.692771,220.834828 C214.802343,222.94534 213.649848,225.710735 212.920233,227.624781 L209.32576,227.624781 L218.596343,204.248409 L221.035343,204.248409 L230.305925,227.624781 L226.741233,227.624781 L223.971673,220.834828 Z" id="Fill-21" fill="#241A1B"></path>
                    <path d="M233.213666,207.877656 C235.223831,205.799888 238.061886,204.448447 241.194765,204.448447 C246.47182,204.448447 250.629138,207.743702 251.948402,212.953005 L248.648754,212.953005 C247.430743,209.491051 244.592688,207.743702 241.194765,207.743702 C238.985073,207.743702 236.97193,208.699237 235.521633,210.217377 C234.071336,211.73254 233.145171,213.777563 233.145171,216.153005 C233.145171,218.459981 234.071336,220.502028 235.521633,222.023144 C236.97193,223.538307 238.985073,224.493842 241.194765,224.493842 C244.690963,224.493842 247.660051,222.481563 248.848281,218.986865 L252.115171,218.986865 C250.79293,224.228912 246.573073,227.789098 241.194765,227.789098 C238.061886,227.789098 235.223831,226.473377 233.213666,224.362865 C231.233281,222.252353 229.914018,219.350028 229.914018,216.153005 C229.914018,212.890493 231.233281,209.988167 233.213666,207.877656" id="Fill-23" fill="#241A1B"></path>
                    <polygon id="Fill-25" fill="#241A1B" points="258.554548 227.726586 258.554548 207.9104 251.559175 207.9104 251.559175 204.546679 268.843614 204.546679 268.843614 207.9104 261.883977 207.9104 261.883977 227.726586"></polygon>
                    <g id="Group-49" transform="translate(32.758242, 0.518847)">
                        <mask id="mask-2" fill="white">
                            <use xlink:href="#path-1"></use>
                        </mask>
                        <g id="Clip-48"></g>
                        <path d="M124.430097,118.946233 L110.123679,125.697488 L109.676976,125.908837 C109.73058,125.876093 108.986075,126.26307 109.277921,126.111256 L109.221338,126.138047 L109.105196,126.188651 L108.881844,126.28986 L108.429185,126.489302 L107.705525,126.80186 L106.791273,127.17693 C106.499426,127.290047 106.145042,127.438884 105.909778,127.507349 L104.343338,128.010419 C102.237877,128.614698 100.075833,128.995721 97.9048549,129.141581 C93.5628989,129.448186 89.1822286,128.793302 85.1559429,127.260279 C84.1463934,126.888186 83.1696022,126.441674 82.2077011,125.962419 L80.8080308,125.209302 L79.9563165,124.703256 L76.5643495,122.67907 L69.7744593,118.627721 L56.2006352,110.522047 L29.0678769,94.2809302 L15.5000088,86.1603721 L14.6512725,85.6513488 L14.1926571,85.3864186 L13.9871736,85.2524651 L13.5702505,84.9845581 L13.1563055,84.7166512 L12.8793495,84.5291163 L12.548789,84.299907 C12.1110198,83.9903256 11.6613385,83.6688372 11.2473934,83.3562791 C9.77625055,82.1774884 8.41827253,80.8468837 7.21217363,79.3912558 C4.82677802,76.456186 3.08463516,73.024 2.20016264,69.4370233 C0.350810989,62.2779535 1.73261319,54.5354419 5.87206374,48.552186 C6.90841538,47.0667907 8.09664615,45.6885581 9.41293187,44.4651163 C10.7411297,43.2535814 12.1824923,42.1968372 13.6923495,41.2889302 L14.844844,40.6608372 C15.0443714,40.5596279 15.2170967,40.4584186 15.4344923,40.3542326 L15.8811956,40.139907 L17.6650308,39.2885581 L21.2327011,37.5888372 L49.7770418,23.9851163 L78.3213824,10.3784186 L85.4567231,6.97897674 L89.0243934,5.27627907 L89.9178,4.8535814 L90.3645033,4.64223256 L90.5342505,4.55590698 L90.6474154,4.50827907 L90.8737451,4.40409302 L91.3234264,4.20465116 L91.5527341,4.10344186 L91.8356462,3.99032558 C92.2108769,3.84744186 92.5950418,3.68967442 92.9613385,3.56465116 C95.8291736,2.59423256 98.8786681,2.26976744 101.8418,2.56148837 C104.804932,2.87106977 107.669789,3.82660465 110.19813,5.30306977 L110.329163,5.38046512 L110.347031,5.39237209 L142.917657,27.1851163 L159.204459,38.08 L167.346371,43.5274419 L171.417327,46.2511628 C172.09036,46.7155349 172.793174,47.1322791 173.436426,47.6413023 C173.710404,47.9687442 173.9278,48.3825116 174.160086,48.7724651 C174.389393,49.1683721 174.624657,49.5523721 174.827163,49.9899535 C174.344723,49.9810233 173.895042,49.9244651 173.442382,49.867907 C172.992701,49.8143256 172.525152,49.7815814 172.114185,49.6625116 C171.393503,49.2755349 170.729404,48.7992558 170.032547,48.3706047 L165.902031,45.736186 L157.643976,40.4673488 L141.124888,29.9266977 L108.08969,8.84837209 L108.238591,8.93767442 C106.121218,7.93748837 103.822185,7.3867907 101.529108,7.34809302 C99.2360308,7.31832558 96.960822,7.7707907 94.9059868,8.66976744 C94.655833,8.77990698 94.4414154,8.896 94.2061516,9.00316279 L94.0334264,9.08651163 L93.8219868,9.20260465 L93.3901736,9.44074419 L93.172778,9.55981395 L93.0655692,9.61934884 L93.0119648,9.64911628 C93.1132176,9.60148837 93.0089868,9.65506977 93.0179209,9.64911628 L92.5920637,9.89916279 L91.7373714,10.3992558 L88.3275363,12.3936744 L81.5019099,16.3854884 L54.2083385,32.3467907 L26.914767,48.3110698 L23.5019538,50.3054884 L21.7985253,51.3026977 L21.3696901,51.5527442 C21.2952396,51.5973953 21.1910088,51.6747907 21.1046462,51.7343256 L20.5537121,52.1034419 C19.8538769,52.6362791 19.2225363,53.2107907 18.6596901,53.8329302 C18.108756,54.4669767 17.6382286,55.1486512 17.2391736,55.8690233 C15.6548659,58.7386047 15.4196022,62.3523721 16.5512505,65.3023256 C17.0843165,66.7906977 17.9598549,68.0706977 19.0081187,69.1185116 C19.5471407,69.6334884 20.130833,70.0948837 20.7621736,70.5026977 C20.8872505,70.5652093 20.9855253,70.6098605 21.089756,70.6753488 L21.1642066,70.7229767 L21.2029209,70.7497674 L21.3071516,70.8003721 L21.7449209,71.0325581 L22.1797121,71.2617674 L22.4000857,71.3778605 C21.9236022,71.1099535 22.298833,71.3183256 22.2065143,71.2647442 L22.2630967,71.2915349 L22.3732835,71.348093 L23.2637121,71.7737674 L37.5046132,78.6530233 L65.9804593,92.4055814 L80.2094484,99.2967442 L87.3239429,102.746791 L90.8797011,104.467349 L91.7701297,104.898977 C91.9190308,104.952558 92.0143275,104.982326 92.1334484,105.029953 C92.3687121,105.101395 92.6009978,105.178791 92.8392396,105.223442 C93.7802945,105.434791 94.7511297,105.431814 95.6475143,105.223442 C96.0971956,105.122233 96.5290088,104.979349 96.9369978,104.794791 C97.0352725,104.738233 97.1335473,104.687628 97.2348,104.64 C97.3122286,104.616186 97.2556462,104.613209 97.2675582,104.604279 L97.2616022,104.592372 L97.2586242,104.595349 L97.4373055,104.497116 L97.8691187,104.256 L98.0835363,104.13693 L98.1907451,104.077395 L98.2473275,104.047628 C98.5719319,103.877953 97.8631626,104.24707 97.9554813,104.196465 L98.3783604,103.937488 L111.877734,95.691907 C118.113712,91.8816744 126.26158,93.8463256 130.073448,100.079628 C133.885316,106.315907 131.919822,114.460279 125.680866,118.270512 C125.275855,118.517581 124.849998,118.746791 124.430097,118.946233" id="Fill-47" fill="#484646" mask="url(#mask-2)"></path>
                    </g>
                    <path d="M130.820932,36.2644837 L181.48602,67.0529488 L206.802185,82.4754605 L213.130481,86.3333209 L216.293141,88.2652279 L218.1008,89.3547163 L218.878064,89.857786 L219.289031,90.1286698 L219.917393,90.5632744 C220.325382,90.8579721 220.772086,91.1645767 221.132426,91.4592744 L222.153888,92.3195535 C222.499338,92.5993674 222.812031,92.9238326 223.136635,93.2304372 C223.452305,93.5429953 223.77691,93.8496 224.071734,94.1859721 C225.301657,95.4868093 226.352899,96.945414 227.282042,98.4605767 C229.113525,101.51174 230.286866,104.899274 230.745481,108.334437 C231.698448,115.198809 229.828251,122.328112 225.563723,127.721972 C224.500569,129.05853 223.324251,130.305786 222.016899,131.377414 C220.721459,132.466902 219.330723,133.41946 217.87447,134.196391 L217.329492,134.491088 C217.147833,134.586344 216.951284,134.693507 216.829185,134.750065 L215.995338,135.151926 L214.327646,135.955647 L210.989284,137.566065 L184.291316,150.437507 L157.590371,163.314902 L150.916624,166.532763 L147.578262,168.143181 C146.809932,168.506344 146.503196,168.655181 145.708064,168.964763 C145.353679,169.098716 144.981426,169.256484 144.64491,169.357693 L143.617492,169.673228 C138.105174,171.218158 132.095525,170.381693 127.342602,167.544856 L127.184767,167.452577 L99.1764703,148.648484 L85.170833,139.247926 L78.1695033,134.54467 L74.6703275,132.196019 L72.9192505,131.020205 C72.7673714,130.930902 72.6363385,130.808856 72.5559319,130.609414 C72.4606352,130.430809 72.3802286,130.234344 72.299822,130.037879 C72.1360308,129.641972 71.9573495,129.269879 71.8292945,128.829321 C72.2879099,128.766809 72.6988769,128.778716 73.1247341,128.766809 C73.3391516,128.760856 73.5535692,128.754902 73.7530967,128.769786 C73.9675143,128.760856 74.1313055,128.832298 74.2742505,128.933507 L76.0580857,130.058716 L79.6287341,132.303181 L86.7670527,136.795088 L101.040712,145.781879 L129.593987,163.749507 L129.43913,163.660205 C133.373097,165.535553 137.965207,165.681414 141.863437,164.190065 L142.584119,163.889414 C142.825338,163.794158 143.012954,163.681042 143.230349,163.582809 C143.578778,163.425042 144.356042,162.97853 144.683624,162.779088 L147.861174,160.873972 L154.216273,157.06374 L179.639646,141.825786 L205.06302,126.587833 L208.240569,124.682716 L209.830833,123.730158 L210.622987,123.256856 C210.777844,123.164577 210.846338,123.113972 210.929723,123.054437 L211.182855,122.881786 C211.864822,122.426344 212.46936,121.908391 213.008382,121.345786 C213.562295,120.795088 214.014954,120.172949 214.425921,119.538902 C216.048943,116.978902 216.516492,113.725321 215.792833,110.867647 C215.444404,109.435833 214.801152,108.129042 213.964327,107.030623 C213.532514,106.491833 213.088789,105.973879 212.555723,105.539274 C212.436602,105.417228 212.287701,105.321972 212.156668,105.217786 C212.016701,105.116577 211.89758,104.997507 211.742723,104.911181 L211.316866,104.622437 C211.185833,104.542065 211.108404,104.521228 211.01013,104.458716 L210.876119,104.375367 L210.491954,104.169972 L209.672998,103.741321 C210.104811,103.985414 209.762338,103.794902 209.845723,103.84253 L209.792119,103.81574 L209.687888,103.768112 L209.479426,103.666902 L209.062503,103.464484 L208.228657,103.059647 L204.893273,101.449228 L198.216547,98.225414 L171.524536,85.3271814 L118.173273,59.4682047 C111.5978,56.2830884 108.852064,48.3679256 112.041525,41.7952744 C115.230987,35.2226233 123.143591,32.4810419 129.719064,35.6661581 C130.094295,35.8447628 130.472503,36.0561116 130.820932,36.2644837" id="Fill-50" fill="#2FA4DE"></path>
                </g>
            </g>
        </g>
    </g>
</svg>