<svg xmlns="http://www.w3.org/2000/svg" width="21" height="18" viewBox="0 0 21 18">
    <g fill="none" fill-rule="evenodd">
        <path fill="#0861CC" d="M7.936 16.927c-.598 0-.497-.238-.703-.837L5.474 9.998l13.539-8.453"/>
        <path fill="#084792" d="M7.936 16.927c.461 0 .665-.223.923-.486l2.46-2.519-3.07-1.948"/>
        <g fill="#1A82FF">
            <path d="M18.928.605L.948 7.735C-.279 8.242-.272 8.946.725 9.26l4.614 1.482L16.02 3.81c.504-.315.967-.145.587.201l-8.655 8.034 7.522 5.717c.858.487 1.478.235 1.691-.82L20.23 2.1c.044-.181.066-.35.07-.503v-.078c-.015-.665-.4-1.03-.882-1.03-.155 0-.321.038-.489.117"/>
        </g>
    </g>
</svg>
