<svg xmlns="http://www.w3.org/2000/svg" xmlns:xlink="http://www.w3.org/1999/xlink" width="187" height="59" viewBox="0 0 187 59">
    <defs>
        <path id="prefix__a" d="M0.191 0.99L27.614 0.99 27.614 26.357 0.191 26.357z"/>
        <path id="prefix__c" d="M0 0.704L48.798 0.704 48.798 59 0 59z"/>
    </defs>
    <g fill="none" fill-rule="evenodd">
        <path fill="#FFF" d="M38.184 6.781l-5.002-5.78H15.615l-5.002 5.78s-4.39-1.243-6.466.87c0 0 5.856-.538 7.87 2.797 0 0 5.428 1.056 6.16 1.056.732 0 2.318-.62 3.782-1.119 1.464-.497 2.44-.5 2.44-.5s.975.003 2.44.5c1.464.498 3.05 1.12 3.782 1.12.731 0 6.16-1.057 6.16-1.057 2.013-3.335 7.87-2.797 7.87-2.797-2.075-2.113-6.467-.87-6.467-.87" transform="translate(0 -1)"/>
        <path fill="#4B4F54" d="M66.65 34.197c.46 4.14 4.35 7.56 8.451 7.626 5.344.083 8.985-3.457 8.985-8.694 0-5.238-3.56-8.695-8.753-8.695-5.55-.012-9.314 4.087-8.683 9.763m-4.59-1.573V12.585h1.885c1.537 0 2.782 1.266 2.782 2.827v8.91c3.022-2.74 5.592-3.837 9.018-3.908 6.57-.136 12.271 4.824 12.813 11.481.648 7.953-5.042 13.94-12.455 13.94-8.138 0-14.043-5.129-14.043-13.21M96.346 20.915v3.569c2.937-3.312 4.676-4.202 8.113-4.202 1 .001 1.998.083 2.986.244v4.741c-1.054-.295-2.142-.442-3.235-.439-2.488 0-4.577.828-6.11 2.393-1.343 1.37-1.742 2.443-1.742 4.595v13.2h-4.84V20.915h4.828zM127.736 32.992c-3.07.908-6.223 1.497-9.409 1.76-4.328.438-5.674 1.271-5.674 3.47 0 2.442 1.992 3.725 5.922 3.725 3.234 0 5.674-.827 7.418-2.442 1.392-1.32 1.743-2.248 1.743-4.555v-1.958zm-19.144-4.107c.249-2.348.698-3.619 1.692-4.84 1.99-2.484 5.575-3.763 10.65-3.763 4.032 0 6.969.637 9.01 2.003 1.694 1.123 2.39 2.787 2.39 5.718v10.703c0 2.348.599 3.176 2.24 3.13.366-.014.732-.046 1.096-.1v3.226c-.816.283-1.675.415-2.538.388-3.035 0-4.427-.926-5.373-3.618-2.984 2.786-6.072 3.958-10.5 3.958-5.92 0-9.553-2.736-9.553-7.187-.028-2.538 1.441-4.846 3.73-5.863 1.791-.783 2.887-1.027 8.011-1.565 4.379-.438 5.129-.538 6.37-.93 1.345-.44 1.943-1.173 1.943-2.394 0-2.592-2.138-3.764-6.619-3.764-4.236 0-6.419.853-7.294 3.031-.433 1.113-1.49 1.848-2.668 1.854l-2.587.013zM147.35 45.012h-1.245c-1.098.007-2.103-.628-2.582-1.632l-10.44-22.465h2.9c1.69-.013 3.229.989 3.923 2.555l6.965 16.147 7.197-16.21c.704-1.541 2.229-2.521 3.9-2.508h2.637L149.92 43.406c-.485.99-1.482 1.613-2.57 1.606" transform="translate(0 -1)"/>
        <g transform="translate(0 -1) translate(159 19.296)">
            <mask id="prefix__b" fill="#fff">
                <use xlink:href="#prefix__a"/>
            </mask>
            <path fill="#4B4F54" d="M22.69 11.336c-1.096-4.252-4.33-6.649-8.81-6.649s-7.713 2.397-8.858 6.65H22.69zM4.876 15.062c.497 4.646 4.072 7.527 9.404 7.527 3.026 0 5.295-.915 6.7-2.74.819-1.048 2.064-1.657 3.38-1.657h2.807c-2.444 5.474-6.82 8.165-13.34 8.165-8.145 0-13.636-5.034-13.636-12.562C.19 6.27 5.816.99 13.929.99c5.869 0 10.59 2.687 12.492 7.187.847 2.07 1.194 3.91 1.194 6.89l-22.74-.005z" mask="url(#prefix__b)"/>
        </g>
        <g transform="translate(0 -1) translate(0 .296)">
            <mask id="prefix__d" fill="#fff">
                <use xlink:href="#prefix__c"/>
            </mask>
            <path fill="#FF3A1E" d="M47.09 14.688l1.342-3.355s-1.708-1.865-3.782-3.978c-2.074-2.113-6.466-.87-6.466-.87L33.182.705H15.615l-5.002 5.78s-4.391-1.243-6.465.87S.366 11.333.366 11.333l1.342 3.355L0 19.66s5.023 19.383 5.611 21.751c1.16 4.661 1.953 6.463 5.247 8.824 3.294 2.361 9.271 6.463 10.247 7.085.976.621 2.196 1.68 3.294 1.68 1.098 0 2.318-1.059 3.294-1.68.976-.622 6.953-4.724 10.247-7.085 3.294-2.36 4.087-4.163 5.246-8.824.589-2.368 5.612-21.75 5.612-21.75l-1.708-4.973z" mask="url(#prefix__d)"/>
        </g>
        <path fill="#FFF" d="M24.425 9.886c.164.004 1.089.05 2.414.5 1.464.497 3.05 1.119 3.782 1.119.732 0 6.16-1.057 6.16-1.057s6.434 7.924 6.434 9.617c0 1.694-.81 2.14-1.623 3.02l-4.824 5.219c-.456.495-1.406 1.243-.848 2.59.559 1.347 1.383 3.062.467 4.802-.917 1.739-2.488 2.899-3.494 2.708-1.007-.193-3.37-1.451-4.239-2.026-.87-.575-3.625-2.89-3.625-3.775 0-.886 2.848-2.476 3.374-2.837.526-.361 2.926-1.76 2.975-2.31.049-.548.03-.71-.678-2.065-.708-1.356-1.983-3.166-1.771-4.37.212-1.204 2.269-1.831 3.737-2.395 1.467-.565 4.294-1.632 4.647-1.798.353-.165.261-.323-.808-.426-1.069-.104-4.104-.514-5.472-.126-1.368.389-3.706.98-3.895 1.294-.19.313-.357.323-.162 1.405.194 1.08 1.196 6.27 1.293 7.19.097.923.287 1.532-.689 1.76-.975.227-2.617.62-3.181.62-.564 0-2.206-.393-3.182-.62-.975-.228-.785-.837-.688-1.76.097-.92 1.098-6.11 1.293-7.19.194-1.082.027-1.092-.162-1.405-.19-.314-2.527-.905-3.895-1.294-1.368-.388-4.403.022-5.472.126-1.07.103-1.161.26-.808.426.353.166 3.179 1.233 4.647 1.798 1.467.564 3.524 1.19 3.737 2.395.212 1.204-1.064 3.014-1.772 4.37-.708 1.356-.727 1.517-.677 2.066.048.549 2.448 1.948 2.975 2.309.526.36 3.373 1.95 3.373 2.837 0 .886-2.755 3.2-3.624 3.775-.869.575-3.233 1.833-4.239 2.026-1.006.19-2.577-.97-3.494-2.708-.917-1.74-.092-3.455.466-4.802.559-1.347-.391-2.095-.847-2.59l-4.824-5.218c-.814-.881-1.623-1.327-1.623-3.021 0-1.693 6.433-9.617 6.433-9.617s5.429 1.057 6.161 1.057c.732 0 2.318-.622 3.782-1.12 1.324-.45 2.25-.495 2.414-.5h.052zm-.026 27.393c.334 0 2.477.77 4.196 1.676 1.719.908 2.965 1.548 3.363 1.802.399.254.155.733-.207.994-.363.262-5.238 4.108-5.711 4.532-.473.426-1.168 1.128-1.641 1.128-.473 0-1.168-.702-1.641-1.128-.474-.424-5.349-4.27-5.711-4.532-.363-.261-.606-.74-.207-.994.398-.254 1.644-.894 3.363-1.802 1.719-.906 3.862-1.676 4.196-1.676z" transform="translate(0 -1)"/>
        <path fill="#FF3A1E" d="M38.184 6.781l-5.002-5.78H15.615l-5.002 5.78s-4.39-1.243-6.466.87c0 0 5.856-.538 7.87 2.797 0 0 5.428 1.056 6.16 1.056.732 0 2.318-.62 3.782-1.119 1.464-.497 2.44-.5 2.44-.5s.975.003 2.44.5c1.464.498 3.05 1.12 3.782 1.12.731 0 6.16-1.057 6.16-1.057 2.013-3.335 7.87-2.797 7.87-2.797-2.075-2.113-6.467-.87-6.467-.87" transform="translate(0 -1)"/>
    </g>
</svg>
