<svg xmlns="http://www.w3.org/2000/svg" width="133" height="43" viewBox="0 0 133 43">
    <defs>
        <linearGradient id="7rd5m9o4ka" x1="0%" x2="100%" y1="50.706%" y2="50.706%">
            <stop offset="0%" stop-color="#F50"/>
            <stop offset="40.988%" stop-color="#F50"/>
            <stop offset="58.198%" stop-color="#FF2000"/>
            <stop offset="100%" stop-color="#FF2000"/>
        </linearGradient>
        <linearGradient id="346mxravcb" x1="2.148%" x2="100%" y1="50.706%" y2="50.706%">
            <stop offset="0%" stop-color="#FF452A"/>
            <stop offset="100%" stop-color="#FF2000"/>
        </linearGradient>
    </defs>
    <g fill="none">
        <g fill="#3B3E4F">
            <path d="M.067 14.295V.065h1.34c1.09 0 1.975.898 1.975 2.007V8.4c2.146-1.947 3.971-2.726 6.404-2.776 4.665-.097 8.714 3.425 9.099 8.153.46 5.648-3.58 9.9-8.845 9.9-5.779 0-9.973-3.643-9.973-9.382zm3.26 1.117c.327 2.94 3.089 5.369 6.002 5.416 3.794.058 6.38-2.455 6.38-6.175 0-3.719-2.528-6.174-6.216-6.174-3.942-.009-6.614 2.902-6.166 6.933zM24.415 5.98v2.534c2.086-2.352 3.32-2.984 5.762-2.984.71 0 1.419.059 2.12.173V9.07c-.748-.21-1.52-.314-2.297-.312-1.767 0-3.25.588-4.338 1.7-.955.973-1.238 1.734-1.238 3.263v9.374h-3.436V5.98h3.427zM33.113 11.64c.176-1.667.494-2.57 1.2-3.437 1.414-1.765 3.96-2.673 7.563-2.673 2.864 0 4.95.453 6.398 1.423 1.204.797 1.698 1.979 1.698 4.06v7.6c0 1.668.425 2.256 1.591 2.223.26-.009.52-.032.778-.07v2.29c-.58.202-1.19.295-1.802.277-2.155 0-3.144-.659-3.815-2.57-2.12 1.979-4.312 2.81-7.456 2.81-4.206 0-6.786-1.943-6.786-5.103-.018-1.803 1.025-3.442 2.65-4.164 1.272-.555 2.05-.729 5.689-1.111 3.109-.312 3.641-.382 4.523-.662.955-.311 1.38-.832 1.38-1.699 0-1.84-1.518-2.673-4.7-2.673-3.008 0-4.558.606-5.18 2.153-.308.79-1.058 1.312-1.895 1.317l-1.836.009zm13.594 2.916c-2.18.645-4.419 1.063-6.682 1.25-3.074.311-4.029.902-4.029 2.464 0 1.734 1.415 2.646 4.206 2.646 2.296 0 4.029-.588 5.267-1.735.989-.938 1.238-1.596 1.238-3.234v-1.39zM60.636 23.092h-.885c-.78.005-1.493-.446-1.833-1.159L50.504 5.98h2.06c1.2-.01 2.292.702 2.785 1.814l4.946 11.467 5.11-11.511c.501-1.095 1.584-1.792 2.772-1.782h1.871L62.461 21.95c-.344.703-1.052 1.145-1.825 1.14zM72.37 15.527c.354 3.298 2.893 5.345 6.68 5.345 2.148 0 3.76-.65 4.757-1.947.582-.743 1.466-1.176 2.4-1.176h1.994c-1.736 3.887-4.842 5.798-9.473 5.798-5.785 0-9.683-3.575-9.683-8.92s3.994-9.094 9.756-9.094c4.167 0 7.52 1.908 8.87 5.104.602 1.47.848 2.776.848 4.892l-16.148-.002zm12.652-2.647c-.778-3.02-3.075-4.722-6.256-4.722-3.182 0-5.478 1.703-6.291 4.722h12.547z" transform="translate(0 .971) translate(44.43 8.163)"/>
        </g>
        <g>
            <path fill="url(#7rd5m9o4ka)" d="M33.44 9.931l.954-2.383s-1.213-1.324-2.686-2.825c-1.473-1.5-4.592-.617-4.592-.617L23.564 0H11.09L7.537 4.106s-3.119-.883-4.591.617C1.473 6.223.26 7.548.26 7.548l.953 2.383L0 13.461s3.567 13.766 3.985 15.447c.823 3.31 1.386 4.59 3.725 6.267 2.34 1.677 6.585 4.59 7.278 5.03.693.442 1.56 1.194 2.339 1.194.78 0 1.646-.752 2.339-1.193.693-.442 4.938-3.354 7.277-5.031 2.34-1.677 2.902-2.957 3.725-6.267.418-1.681 3.986-15.446 3.986-15.446L33.44 9.93z" transform="translate(0 .971) translate(.426)"/>
            <path fill="#FFF" d="M17.327 25.763c.237 0 1.759.547 2.98 1.19 1.22.645 2.105 1.1 2.388 1.28.283.18.11.52-.147.706-.258.186-3.72 2.917-4.056 3.219-.336.302-.83.8-1.165.8-.336 0-.83-.498-1.166-.8-.336-.302-3.798-3.033-4.055-3.219-.258-.185-.43-.525-.148-.706.283-.18 1.168-.635 2.389-1.28 1.22-.643 2.742-1.19 2.98-1.19zm.018-19.453c.117.003.774.036 1.714.355 1.04.353 2.166.795 2.686.795s4.375-.75 4.375-.75 4.569 5.626 4.569 6.829c0 1.202-.575 1.52-1.153 2.145l-3.425 3.706c-.325.35-1 .882-.602 1.84.396.956.982 2.174.33 3.409-.65 1.235-1.766 2.059-2.48 1.923-.715-.137-2.394-1.03-3.01-1.439-.618-.408-2.575-2.052-2.575-2.68 0-.63 2.023-1.759 2.396-2.015.374-.257 2.078-1.25 2.113-1.64.035-.39.022-.504-.481-1.467-.503-.963-1.409-2.248-1.258-3.104.15-.855 1.611-1.3 2.654-1.7 1.042-.401 3.049-1.159 3.3-1.277.25-.117.185-.23-.574-.303-.76-.073-2.915-.365-3.886-.089-.972.276-2.632.696-2.766.918-.135.223-.253.23-.115.998s.849 4.453.918 5.108c.069.654.204 1.087-.489 1.248-.693.161-1.859.442-2.26.442-.4 0-1.566-.28-2.259-.442-.692-.161-.557-.594-.488-1.248.069-.655.78-4.34.918-5.108.138-.767.019-.775-.115-.998-.135-.222-1.795-.642-2.766-.918-.972-.276-3.127.016-3.886.09-.76.072-.825.185-.574.302.25.118 2.258.876 3.3 1.277 1.042.4 2.503.845 2.654 1.7.15.856-.755 2.14-1.258 3.104-.503.963-.516 1.078-.482 1.467.035.39 1.74 1.383 2.113 1.64.374.256 2.396 1.386 2.396 2.014 0 .63-1.956 2.273-2.574 2.681-.617.409-2.295 1.302-3.01 1.439-.715.136-1.83-.688-2.481-1.923-.651-1.235-.066-2.453.33-3.41.398-.957-.277-1.488-.601-1.839l-3.426-3.706c-.578-.625-1.152-.943-1.152-2.145 0-1.203 4.568-6.83 4.568-6.83s3.856.75 4.375.75c.52 0 1.646-.44 2.686-.794.94-.32 1.598-.352 1.714-.355h.037z" transform="translate(0 .971) translate(.426)"/>
            <path fill="url(#346mxravcb)" d="M24.276 4.106L20.724 0H8.249L4.697 4.106s-3.12-.883-4.592.617c0 0 4.158-.382 5.588 1.986 0 0 3.855.75 4.375.75s1.646-.44 2.686-.794c1.04-.353 1.732-.355 1.732-.355s.693.002 1.733.355 2.166.795 2.685.795c.52 0 4.376-.75 4.376-.75 1.429-2.369 5.587-1.987 5.587-1.987-1.472-1.5-4.591-.617-4.591-.617" transform="translate(0 .971) translate(.426) translate(2.84)"/>
        </g>
    </g>
</svg>
