<svg xmlns="http://www.w3.org/2000/svg" xmlns:xlink="http://www.w3.org/1999/xlink" width="789" height="537" viewBox="0 0 789 537">
    <defs>
        <filter id="8ja9s7snsb" width="107.7%" height="112.6%" x="-3.9%" y="-5.7%" filterUnits="objectBoundingBox">
            <feOffset dy="2" in="SourceAlpha" result="shadowOffsetOuter1"/>
            <feGaussianBlur in="shadowOffsetOuter1" result="shadowBlurOuter1" stdDeviation="7"/>
            <feComposite in="shadowBlurOuter1" in2="SourceAlpha" operator="out" result="shadowBlurOuter1"/>
            <feColorMatrix in="shadowBlurOuter1" values="0 0 0 0 0 0 0 0 0 0 0 0 0 0 0 0 0 0 0.05 0"/>
        </filter>
        <filter id="x6w1mac01d" width="118.6%" height="118.6%" x="-9.3%" y="-8.5%" filterUnits="objectBoundingBox">
            <feOffset dy="2" in="SourceAlpha" result="shadowOffsetOuter1"/>
            <feGaussianBlur in="shadowOffsetOuter1" result="shadowBlurOuter1" stdDeviation="7"/>
            <feComposite in="shadowBlurOuter1" in2="SourceAlpha" operator="out" result="shadowBlurOuter1"/>
            <feColorMatrix in="shadowBlurOuter1" values="0 0 0 0 0 0 0 0 0 0 0 0 0 0 0 0 0 0 0.05 0"/>
        </filter>
        <filter id="f7h7yhuawf" width="145.9%" height="145.9%" x="-22.9%" y="-22.9%" filterUnits="objectBoundingBox">
            <feOffset dx="5" dy="5" in="SourceAlpha" result="shadowOffsetOuter1"/>
            <feGaussianBlur in="shadowOffsetOuter1" result="shadowBlurOuter1" stdDeviation="4"/>
            <feComposite in="shadowBlurOuter1" in2="SourceAlpha" operator="out" result="shadowBlurOuter1"/>
            <feColorMatrix in="shadowBlurOuter1" result="shadowMatrixOuter1" values="0 0 0 0 0 0 0 0 0 0 0 0 0 0 0 0 0 0 0.08 0"/>
            <feOffset dx="-5" dy="-5" in="SourceAlpha" result="shadowOffsetOuter2"/>
            <feGaussianBlur in="shadowOffsetOuter2" result="shadowBlurOuter2" stdDeviation="4"/>
            <feComposite in="shadowBlurOuter2" in2="SourceAlpha" operator="out" result="shadowBlurOuter2"/>
            <feColorMatrix in="shadowBlurOuter2" result="shadowMatrixOuter2" values="0 0 0 0 1 0 0 0 0 1 0 0 0 0 1 0 0 0 0.9 0"/>
            <feMerge>
                <feMergeNode in="shadowMatrixOuter1"/>
                <feMergeNode in="shadowMatrixOuter2"/>
            </feMerge>
        </filter>
        <filter id="jnmzk7flki" width="131.8%" height="131.8%" x="-15.9%" y="-15.9%" filterUnits="objectBoundingBox">
            <feOffset dx="5" dy="5" in="SourceAlpha" result="shadowOffsetOuter1"/>
            <feGaussianBlur in="shadowOffsetOuter1" result="shadowBlurOuter1" stdDeviation="4"/>
            <feColorMatrix in="shadowBlurOuter1" result="shadowMatrixOuter1" values="0 0 0 0 0 0 0 0 0 0 0 0 0 0 0 0 0 0 0.08 0"/>
            <feOffset dx="-5" dy="-5" in="SourceAlpha" result="shadowOffsetOuter2"/>
            <feGaussianBlur in="shadowOffsetOuter2" result="shadowBlurOuter2" stdDeviation="4"/>
            <feColorMatrix in="shadowBlurOuter2" result="shadowMatrixOuter2" values="0 0 0 0 1 0 0 0 0 1 0 0 0 0 1 0 0 0 0.9 0"/>
            <feMerge>
                <feMergeNode in="shadowMatrixOuter1"/>
                <feMergeNode in="shadowMatrixOuter2"/>
            </feMerge>
        </filter>
        <filter id="mcgxw47pik" width="216.2%" height="301.3%" x="-58.1%" y="-100.6%" filterUnits="objectBoundingBox">
            <feGaussianBlur in="SourceGraphic" stdDeviation="7"/>
        </filter>
        <filter id="aj46skwsin" width="131.8%" height="131.8%" x="-15.9%" y="-15.9%" filterUnits="objectBoundingBox">
            <feOffset dx="5" dy="5" in="SourceAlpha" result="shadowOffsetOuter1"/>
            <feGaussianBlur in="shadowOffsetOuter1" result="shadowBlurOuter1" stdDeviation="4"/>
            <feColorMatrix in="shadowBlurOuter1" result="shadowMatrixOuter1" values="0 0 0 0 0 0 0 0 0 0 0 0 0 0 0 0 0 0 0.08 0"/>
            <feOffset dx="-5" dy="-5" in="SourceAlpha" result="shadowOffsetOuter2"/>
            <feGaussianBlur in="shadowOffsetOuter2" result="shadowBlurOuter2" stdDeviation="4"/>
            <feColorMatrix in="shadowBlurOuter2" result="shadowMatrixOuter2" values="0 0 0 0 1 0 0 0 0 1 0 0 0 0 1 0 0 0 0.9 0"/>
            <feMerge>
                <feMergeNode in="shadowMatrixOuter1"/>
                <feMergeNode in="shadowMatrixOuter2"/>
            </feMerge>
        </filter>
        <filter id="rpmrhh9xgp" width="193.4%" height="261.8%" x="-46.7%" y="-80.9%" filterUnits="objectBoundingBox">
            <feGaussianBlur in="SourceGraphic" stdDeviation="7"/>
        </filter>
        <filter id="dlel5wq3ys" width="131.8%" height="131.8%" x="-15.9%" y="-15.9%" filterUnits="objectBoundingBox">
            <feOffset dx="5" dy="5" in="SourceAlpha" result="shadowOffsetOuter1"/>
            <feGaussianBlur in="shadowOffsetOuter1" result="shadowBlurOuter1" stdDeviation="4"/>
            <feColorMatrix in="shadowBlurOuter1" result="shadowMatrixOuter1" values="0 0 0 0 0 0 0 0 0 0 0 0 0 0 0 0 0 0 0.08 0"/>
            <feOffset dx="-5" dy="-5" in="SourceAlpha" result="shadowOffsetOuter2"/>
            <feGaussianBlur in="shadowOffsetOuter2" result="shadowBlurOuter2" stdDeviation="4"/>
            <feColorMatrix in="shadowBlurOuter2" result="shadowMatrixOuter2" values="0 0 0 0 1 0 0 0 0 1 0 0 0 0 1 0 0 0 0.9 0"/>
            <feMerge>
                <feMergeNode in="shadowMatrixOuter1"/>
                <feMergeNode in="shadowMatrixOuter2"/>
            </feMerge>
        </filter>
        <filter id="rq63h8wu0u" width="229.5%" height="324.3%" x="-64.8%" y="-112.2%" filterUnits="objectBoundingBox">
            <feGaussianBlur in="SourceGraphic" stdDeviation="7"/>
        </filter>
        <filter id="2gks5iwanw" width="131.8%" height="131.8%" x="-15.9%" y="-15.9%" filterUnits="objectBoundingBox">
            <feOffset dx="5" dy="5" in="SourceAlpha" result="shadowOffsetOuter1"/>
            <feGaussianBlur in="shadowOffsetOuter1" result="shadowBlurOuter1" stdDeviation="4"/>
            <feColorMatrix in="shadowBlurOuter1" result="shadowMatrixOuter1" values="0 0 0 0 0 0 0 0 0 0 0 0 0 0 0 0 0 0 0.08 0"/>
            <feOffset dx="-5" dy="-5" in="SourceAlpha" result="shadowOffsetOuter2"/>
            <feGaussianBlur in="shadowOffsetOuter2" result="shadowBlurOuter2" stdDeviation="4"/>
            <feColorMatrix in="shadowBlurOuter2" result="shadowMatrixOuter2" values="0 0 0 0 1 0 0 0 0 1 0 0 0 0 1 0 0 0 0.9 0"/>
            <feMerge>
                <feMergeNode in="shadowMatrixOuter1"/>
                <feMergeNode in="shadowMatrixOuter2"/>
            </feMerge>
        </filter>
        <filter id="x3xsayhb1y" width="229.5%" height="324.3%" x="-64.8%" y="-112.2%" filterUnits="objectBoundingBox">
            <feGaussianBlur in="SourceGraphic" stdDeviation="7"/>
        </filter>
        <filter id="g9abizrn9A" width="117.1%" height="110.6%" x="-8.5%" y="-4.8%" filterUnits="objectBoundingBox">
            <feOffset dy="2" in="SourceAlpha" result="shadowOffsetOuter1"/>
            <feGaussianBlur in="shadowOffsetOuter1" result="shadowBlurOuter1" stdDeviation="7"/>
            <feComposite in="shadowBlurOuter1" in2="SourceAlpha" operator="out" result="shadowBlurOuter1"/>
            <feColorMatrix in="shadowBlurOuter1" values="0 0 0 0 0 0 0 0 0 0 0 0 0 0 0 0 0 0 0.05 0"/>
        </filter>
        <filter id="cbv7gfxneC" width="114.6%" height="157.2%" x="-7.3%" y="-28.6%" filterUnits="objectBoundingBox">
            <feOffset dx="3" dy="3" in="SourceAlpha" result="shadowOffsetOuter1"/>
            <feGaussianBlur in="shadowOffsetOuter1" result="shadowBlurOuter1" stdDeviation="3"/>
            <feColorMatrix in="shadowBlurOuter1" result="shadowMatrixOuter1" values="0 0 0 0 0 0 0 0 0 0 0 0 0 0 0 0 0 0 0.18 0"/>
            <feOffset dx="-3" dy="-3" in="SourceAlpha" result="shadowOffsetOuter2"/>
            <feGaussianBlur in="shadowOffsetOuter2" result="shadowBlurOuter2" stdDeviation="3"/>
            <feColorMatrix in="shadowBlurOuter2" result="shadowMatrixOuter2" values="0 0 0 0 1 0 0 0 0 1 0 0 0 0 1 0 0 0 0.9 0"/>
            <feMerge>
                <feMergeNode in="shadowMatrixOuter1"/>
                <feMergeNode in="shadowMatrixOuter2"/>
            </feMerge>
        </filter>
        <filter id="o0e95ma9qH" width="104.3%" height="121.2%" x="-2.2%" y="-10.6%" filterUnits="objectBoundingBox">
            <feGaussianBlur in="SourceAlpha" result="shadowBlurInner1" stdDeviation="2.5"/>
            <feOffset dx="3" dy="3" in="shadowBlurInner1" result="shadowOffsetInner1"/>
            <feComposite in="shadowOffsetInner1" in2="SourceAlpha" k2="-1" k3="1" operator="arithmetic" result="shadowInnerInner1"/>
            <feColorMatrix in="shadowInnerInner1" result="shadowMatrixInner1" values="0 0 0 0 0 0 0 0 0 0 0 0 0 0 0 0 0 0 0.08 0"/>
            <feGaussianBlur in="SourceAlpha" result="shadowBlurInner2" stdDeviation="2.5"/>
            <feOffset dx="-3" dy="-3" in="shadowBlurInner2" result="shadowOffsetInner2"/>
            <feComposite in="shadowOffsetInner2" in2="SourceAlpha" k2="-1" k3="1" operator="arithmetic" result="shadowInnerInner2"/>
            <feColorMatrix in="shadowInnerInner2" result="shadowMatrixInner2" values="0 0 0 0 1 0 0 0 0 1 0 0 0 0 1 0 0 0 1 0"/>
            <feMerge>
                <feMergeNode in="shadowMatrixInner1"/>
                <feMergeNode in="shadowMatrixInner2"/>
            </feMerge>
        </filter>
        <filter id="is8gnsq1uJ" width="104.3%" height="121.2%" x="-2.2%" y="-10.6%" filterUnits="objectBoundingBox">
            <feGaussianBlur in="SourceAlpha" result="shadowBlurInner1" stdDeviation="2.5"/>
            <feOffset dx="3" dy="3" in="shadowBlurInner1" result="shadowOffsetInner1"/>
            <feComposite in="shadowOffsetInner1" in2="SourceAlpha" k2="-1" k3="1" operator="arithmetic" result="shadowInnerInner1"/>
            <feColorMatrix in="shadowInnerInner1" result="shadowMatrixInner1" values="0 0 0 0 0 0 0 0 0 0 0 0 0 0 0 0 0 0 0.08 0"/>
            <feGaussianBlur in="SourceAlpha" result="shadowBlurInner2" stdDeviation="2.5"/>
            <feOffset dx="-3" dy="-3" in="shadowBlurInner2" result="shadowOffsetInner2"/>
            <feComposite in="shadowOffsetInner2" in2="SourceAlpha" k2="-1" k3="1" operator="arithmetic" result="shadowInnerInner2"/>
            <feColorMatrix in="shadowInnerInner2" result="shadowMatrixInner2" values="0 0 0 0 1 0 0 0 0 1 0 0 0 0 1 0 0 0 1 0"/>
            <feMerge>
                <feMergeNode in="shadowMatrixInner1"/>
                <feMergeNode in="shadowMatrixInner2"/>
            </feMerge>
        </filter>
        <filter id="h664tmx7rK" width="145.9%" height="145.9%" x="-22.9%" y="-22.9%" filterUnits="objectBoundingBox">
            <feOffset dx="5" dy="5" in="SourceAlpha" result="shadowOffsetOuter1"/>
            <feGaussianBlur in="shadowOffsetOuter1" result="shadowBlurOuter1" stdDeviation="4"/>
            <feColorMatrix in="shadowBlurOuter1" result="shadowMatrixOuter1" values="0 0 0 0 0 0 0 0 0 0 0 0 0 0 0 0 0 0 0.08 0"/>
            <feOffset dx="-5" dy="-5" in="SourceAlpha" result="shadowOffsetOuter2"/>
            <feGaussianBlur in="shadowOffsetOuter2" result="shadowBlurOuter2" stdDeviation="4"/>
            <feColorMatrix in="shadowBlurOuter2" result="shadowMatrixOuter2" values="0 0 0 0 1 0 0 0 0 1 0 0 0 0 1 0 0 0 0.9 0"/>
            <feMerge>
                <feMergeNode in="shadowMatrixOuter1"/>
                <feMergeNode in="shadowMatrixOuter2"/>
            </feMerge>
        </filter>
        <filter id="cbx7cil68S" width="117.1%" height="110.6%" x="-8.5%" y="-4.8%" filterUnits="objectBoundingBox">
            <feOffset dy="2" in="SourceAlpha" result="shadowOffsetOuter1"/>
            <feGaussianBlur in="shadowOffsetOuter1" result="shadowBlurOuter1" stdDeviation="7"/>
            <feComposite in="shadowBlurOuter1" in2="SourceAlpha" operator="out" result="shadowBlurOuter1"/>
            <feColorMatrix in="shadowBlurOuter1" values="0 0 0 0 0 0 0 0 0 0 0 0 0 0 0 0 0 0 0.05 0"/>
        </filter>
        <filter id="a1hmwqjtoW" width="104.3%" height="184.7%" x="-2.2%" y="-42.4%" filterUnits="objectBoundingBox">
            <feGaussianBlur in="SourceAlpha" result="shadowBlurInner1" stdDeviation="2.5"/>
            <feOffset dx="3" dy="3" in="shadowBlurInner1" result="shadowOffsetInner1"/>
            <feComposite in="shadowOffsetInner1" in2="SourceAlpha" k2="-1" k3="1" operator="arithmetic" result="shadowInnerInner1"/>
            <feColorMatrix in="shadowInnerInner1" result="shadowMatrixInner1" values="0 0 0 0 0 0 0 0 0 0 0 0 0 0 0 0 0 0 0.08 0"/>
            <feGaussianBlur in="SourceAlpha" result="shadowBlurInner2" stdDeviation="2.5"/>
            <feOffset dx="-3" dy="-3" in="shadowBlurInner2" result="shadowOffsetInner2"/>
            <feComposite in="shadowOffsetInner2" in2="SourceAlpha" k2="-1" k3="1" operator="arithmetic" result="shadowInnerInner2"/>
            <feColorMatrix in="shadowInnerInner2" result="shadowMatrixInner2" values="0 0 0 0 1 0 0 0 0 1 0 0 0 0 1 0 0 0 1 0"/>
            <feMerge>
                <feMergeNode in="shadowMatrixInner1"/>
                <feMergeNode in="shadowMatrixInner2"/>
            </feMerge>
        </filter>
        <filter id="okoihj5f3Z" width="104.3%" height="121.2%" x="-2.2%" y="-10.6%" filterUnits="objectBoundingBox">
            <feGaussianBlur in="SourceAlpha" result="shadowBlurInner1" stdDeviation="2.5"/>
            <feOffset dx="3" dy="3" in="shadowBlurInner1" result="shadowOffsetInner1"/>
            <feComposite in="shadowOffsetInner1" in2="SourceAlpha" k2="-1" k3="1" operator="arithmetic" result="shadowInnerInner1"/>
            <feColorMatrix in="shadowInnerInner1" result="shadowMatrixInner1" values="0 0 0 0 0 0 0 0 0 0 0 0 0 0 0 0 0 0 0.08 0"/>
            <feGaussianBlur in="SourceAlpha" result="shadowBlurInner2" stdDeviation="2.5"/>
            <feOffset dx="-3" dy="-3" in="shadowBlurInner2" result="shadowOffsetInner2"/>
            <feComposite in="shadowOffsetInner2" in2="SourceAlpha" k2="-1" k3="1" operator="arithmetic" result="shadowInnerInner2"/>
            <feColorMatrix in="shadowInnerInner2" result="shadowMatrixInner2" values="0 0 0 0 1 0 0 0 0 1 0 0 0 0 1 0 0 0 1 0"/>
            <feMerge>
                <feMergeNode in="shadowMatrixInner1"/>
                <feMergeNode in="shadowMatrixInner2"/>
            </feMerge>
        </filter>
        <filter id="zv3ocihp4aa" width="131.8%" height="131.8%" x="-15.9%" y="-15.9%" filterUnits="objectBoundingBox">
            <feOffset dx="5" dy="5" in="SourceAlpha" result="shadowOffsetOuter1"/>
            <feGaussianBlur in="shadowOffsetOuter1" result="shadowBlurOuter1" stdDeviation="4"/>
            <feColorMatrix in="shadowBlurOuter1" result="shadowMatrixOuter1" values="0 0 0 0 0 0 0 0 0 0 0 0 0 0 0 0 0 0 0.08 0"/>
            <feOffset dx="-5" dy="-5" in="SourceAlpha" result="shadowOffsetOuter2"/>
            <feGaussianBlur in="shadowOffsetOuter2" result="shadowBlurOuter2" stdDeviation="4"/>
            <feColorMatrix in="shadowBlurOuter2" result="shadowMatrixOuter2" values="0 0 0 0 1 0 0 0 0 1 0 0 0 0 1 0 0 0 0.9 0"/>
            <feMerge>
                <feMergeNode in="shadowMatrixOuter1"/>
                <feMergeNode in="shadowMatrixOuter2"/>
            </feMerge>
        </filter>
        <filter id="ph9ry1khgac" width="193%" height="261.1%" x="-46.5%" y="-80.6%" filterUnits="objectBoundingBox">
            <feGaussianBlur in="SourceGraphic" stdDeviation="7"/>
        </filter>
        <filter id="z2mgy1ohkae" width="203.2%" height="203.2%" x="-51.6%" y="-51.6%" filterUnits="objectBoundingBox">
            <feOffset dx="5" dy="5" in="SourceAlpha" result="shadowOffsetOuter1"/>
            <feGaussianBlur in="shadowOffsetOuter1" result="shadowBlurOuter1" stdDeviation="4"/>
            <feColorMatrix in="shadowBlurOuter1" result="shadowMatrixOuter1" values="0 0 0 0 0 0 0 0 0 0 0 0 0 0 0 0 0 0 0.08 0"/>
            <feOffset dx="-5" dy="-5" in="SourceAlpha" result="shadowOffsetOuter2"/>
            <feGaussianBlur in="shadowOffsetOuter2" result="shadowBlurOuter2" stdDeviation="4"/>
            <feColorMatrix in="shadowBlurOuter2" result="shadowMatrixOuter2" values="0 0 0 0 1 0 0 0 0 1 0 0 0 0 1 0 0 0 0.9 0"/>
            <feMerge>
                <feMergeNode in="shadowMatrixOuter1"/>
                <feMergeNode in="shadowMatrixOuter2"/>
            </feMerge>
        </filter>
        <path id="rcyxlcpeac" d="M20 0h530.895c11.045 0 20 8.954 20 20v309.444c0 11.046-8.955 20-20 20H20c-11.046 0-20-8.954-20-20V20C0 8.954 8.954 0 20 0z"/>
        <path id="ytlhsd9she" d="M20 0h196.111c11.046 0 20 8.954 20 20v196.111c0 11.046-8.954 20-20 20H20c-11.046 0-20-8.954-20-20V20C0 8.954 8.954 0 20 0z"/>
        <path id="zoxpwpb0bg" d="M118.056 37.778c23.472 0 42.5 19.028 42.5 42.5s-19.028 42.5-42.5 42.5c-23.473 0-42.5-19.028-42.5-42.5s19.027-42.5 42.5-42.5z"/>
        <path id="acypfwyxfj" d="M10 0h102.778c5.523 0 10 4.477 10 10v102.778c0 5.523-4.477 10-10 10H10c-5.523 0-10-4.477-10-10V10C0 4.477 4.477 0 10 0z"/>
        <path id="li670j8ido" d="M10 0h102.778c5.523 0 10 4.477 10 10v102.778c0 5.523-4.477 10-10 10H10c-5.523 0-10-4.477-10-10V10C0 4.477 4.477 0 10 0z"/>
        <path id="j2ery77npt" d="M10 0h102.778c5.523 0 10 4.477 10 10v102.778c0 5.523-4.477 10-10 10H10c-5.523 0-10-4.477-10-10V10C0 4.477 4.477 0 10 0z"/>
        <path id="x6pbe4cx2x" d="M10 0h102.778c5.523 0 10 4.477 10 10v102.778c0 5.523-4.477 10-10 10H10c-5.523 0-10-4.477-10-10V10C0 4.477 4.477 0 10 0z"/>
        <path id="3y299l3exB" d="M20 0h217.833c11.046 0 20 8.954 20 20v375.556c0 11.045-8.954 20-20 20H20c-11.046 0-20-8.955-20-20V20C0 8.954 8.954 0 20 0z"/>
        <path id="29qrcw1f2D" d="M45.889 336.222H211c5.523 0 10 4.477 10 10v27.222c0 5.523-4.477 10-10 10H45.889c-5.523 0-10-4.477-10-10v-27.222c0-5.523 4.477-10 10-10z"/>
        <path id="2x2ch3058G" d="M40.889 192.667H216c2.761 0 5 2.238 5 5v27.777c0 2.762-2.239 5-5 5H40.889c-2.762 0-5-2.238-5-5v-27.777c0-2.762 2.238-5 5-5z"/>
        <path id="vc7blormgI" d="M40.889 275.778H216c2.761 0 5 2.238 5 5v27.778c0 2.761-2.239 5-5 5H40.889c-2.762 0-5-2.239-5-5v-27.778c0-2.762 2.238-5 5-5z"/>
        <path id="56eo8y8zzL" d="M106.889 39.667h45c11.046 0 20 8.954 20 20v45c0 11.045-8.954 20-20 20h-45c-11.046 0-20-8.955-20-20v-45c0-11.046 8.954-20 20-20z"/>
        <path id="dr3rra92sM" d="M0.659 0.914L23.208 0.914 23.208 23.439 0.659 23.439z"/>
        <path id="ktw2xdoruO" d="M0.001 0.223L22.552 0.223 22.552 22.748 0.001 22.748z"/>
        <path id="8dwrluhvdQ" d="M0.237 0.699L22.788 0.699 22.788 23.191 0.237 23.191z"/>
        <path id="9w6o39lnyT" d="M20 0h217.833c11.046 0 20 8.954 20 20v375.556c0 11.045-8.954 20-20 20H20c-11.046 0-20-8.955-20-20V20C0 8.954 8.954 0 20 0z"/>
        <path id="sntrk4hnyV" d="M40.611 314.5h174.677c2.608 0 4.722 2.114 4.722 4.722 0 2.608-2.114 4.722-4.722 4.722H40.61c-2.608 0-4.722-2.114-4.722-4.722 0-2.608 2.114-4.722 4.722-4.722z"/>
        <path id="uja5jmtwcY" d="M40.889 342.833H216c2.761 0 5 2.239 5 5v27.778c0 2.762-2.239 5-5 5H40.889c-2.762 0-5-2.238-5-5v-27.778c0-2.761 2.238-5 5-5z"/>
        <path id="y2c33isvoab" d="M100.667 72.722h102.777c5.523 0 10 4.477 10 10V185.5c0 5.523-4.477 10-10 10H100.667c-5.523 0-10-4.477-10-10V82.722c0-5.523 4.477-10 10-10z"/>
        <path id="e5ry8yki3af" d="M45.333 115.222c10.432 0 18.89 8.457 18.89 18.89 0 10.431-8.458 18.888-18.89 18.888s-18.889-8.457-18.889-18.889c0-10.432 8.457-18.889 18.89-18.889z"/>
        <linearGradient id="u22es9te0a" x1="0%" x2="100%" y1="50%" y2="50%">
            <stop offset="0%" stop-color="#272D34"/>
            <stop offset="100%" stop-color="#40474F"/>
        </linearGradient>
        <linearGradient id="lxblze0tyh" x1="93.218%" x2="5.8%" y1="90.739%" y2="7.788%">
            <stop offset="0%" stop-color="#F2F4F7"/>
            <stop offset="100%" stop-color="#E6EEF5"/>
        </linearGradient>
        <linearGradient id="bfemdbr72l" x1="33.19%" x2="66.81%" y1="33.954%" y2="73.771%">
            <stop offset="0%" stop-color="#E8F2FB"/>
            <stop offset="100%" stop-color="#AEC7DE"/>
        </linearGradient>
        <linearGradient id="8x8nydh6hm" x1="50%" x2="50%" y1="0%" y2="100%">
            <stop offset="0%" stop-color="#E8F2FB"/>
            <stop offset="100%" stop-color="#FFF"/>
        </linearGradient>
        <linearGradient id="fb7jcudomq" x1="50%" x2="50%" y1="0%" y2="100%">
            <stop offset="0%" stop-color="#E7F1FB"/>
            <stop offset="100%" stop-color="#B4CBE0"/>
        </linearGradient>
        <linearGradient id="vvhbyqr59r" x1="50%" x2="50%" y1="0%" y2="100%">
            <stop offset="0%" stop-color="#EDF5FC"/>
            <stop offset="100%" stop-color="#FFF"/>
        </linearGradient>
        <linearGradient id="pqvhtxajvv" x1="0%" x2="100%" y1="35.687%" y2="71.791%">
            <stop offset="0%" stop-color="#E7F1FB"/>
            <stop offset="100%" stop-color="#B3CBE0"/>
        </linearGradient>
        <linearGradient id="e3ux13h0zz" x1="14.823%" x2="84.37%" y1="12.13%" y2="83.162%">
            <stop offset="0%" stop-color="#FFF"/>
            <stop offset="47.469%" stop-color="#EBF3FB"/>
            <stop offset="100%" stop-color="#B4CBE1"/>
        </linearGradient>
        <linearGradient id="xqc8kefh8E" x1="93.218%" x2="5.8%" y1="52.651%" y2="47.253%">
            <stop offset="0%" stop-color="#007CFF"/>
            <stop offset="100%" stop-color="#0072EA"/>
        </linearGradient>
        <linearGradient id="ivgxp2j33F" x1="0%" x2="98.556%" y1="50%" y2="50%">
            <stop offset="0%" stop-color="#F9FAFB"/>
            <stop offset="100%" stop-color="#F2F4F7"/>
        </linearGradient>
        <linearGradient id="117azxtc8U" x1="0%" x2="98.556%" y1="50%" y2="50%">
            <stop offset="0%" stop-color="#F9FAFB"/>
            <stop offset="100%" stop-color="#F2F4F7"/>
        </linearGradient>
        <linearGradient id="wudas5jnhX" x1="88.422%" x2="0%" y1="50%" y2="50%">
            <stop offset="0%" stop-color="#00E47C"/>
            <stop offset="100%" stop-color="#5B57EF"/>
        </linearGradient>
        <linearGradient id="w8n8obbqcad" x1="0%" x2="100%" y1="35.687%" y2="71.791%">
            <stop offset="0%" stop-color="#E7F1FB"/>
            <stop offset="100%" stop-color="#B3CBE0"/>
        </linearGradient>
    </defs>
    <g fill="none" fill-rule="evenodd">
        <path fill="#E8F2FB" d="M102.167 44.389h644.889v485.444H82.166V64.39c0-11.046 8.955-20 20-20z" transform="translate(14 12)"/>
        <path fill="url(#u22es9te0a)" d="M101.611 53.833h645.445v37.778H101.61c-5.523 0-10-4.477-10-10V63.833c0-5.523 4.477-10 10-10z" transform="translate(14 12)"/>
        <g transform="translate(14 12) translate(0 132.222)">
            <use fill="#000" filter="url(#8ja9s7snsb)" xlink:href="#rcyxlcpeac"/>
            <use fill="#F2F6F9" fill-opacity=".8" xlink:href="#rcyxlcpeac"/>
            <g transform="translate(289 311.667)">
                <use fill="#000" filter="url(#x6w1mac01d)" xlink:href="#ytlhsd9she"/>
                <use fill="#F2F6F9" fill-opacity=".8" xlink:href="#ytlhsd9she"/>
                <use fill="#000" filter="url(#f7h7yhuawf)" xlink:href="#zoxpwpb0bg"/>
                <use fill="url(#lxblze0tyh)" fill-opacity=".7" xlink:href="#zoxpwpb0bg"/>
                <path fill="#B7CDDE" d="M135.415 89.44c-6.766-1.563-13.067-2.93-10.015-8.693 9.287-17.536 2.462-26.914-7.343-26.914-10 0-16.654 9.74-7.343 26.914 3.142 5.794-3.394 7.166-10.015 8.693-6.047 1.397-6.273 4.4-6.254 9.649l.008 1.967h47.204l.008-1.904c.023-5.291-.182-8.31-6.25-9.712"/>
            </g>
            <g transform="translate(37.778 37.778)">
                <use fill="#000" filter="url(#jnmzk7flki)" xlink:href="#acypfwyxfj"/>
                <use fill="url(#lxblze0tyh)" xlink:href="#acypfwyxfj"/>
                <g>
                    <path fill="#B5CBDE" d="M18.242 28.333L0.11 38.802 18.13 49.201 36.255 38.739z" filter="url(#mcgxw47pik)" transform="translate(42.5 20.778)"/>
                    <path fill="url(#bfemdbr72l)" d="M18.128 20.869L18.128 41.67 36.257 31.204 36.257 10.403z" transform="translate(42.5 20.778)"/>
                    <path fill="url(#8x8nydh6hm)" d="M0 31.203L18.129 41.673 18.129 20.868 0 10.406z" transform="translate(42.5 20.778)"/>
                    <path fill="#FFF" d="M18.242 0L0.11 10.469 18.13 20.868 36.255 10.406z" transform="translate(42.5 20.778)"/>
                </g>
                <path fill="#DAE5EF" d="M14.167 80.278L108.611 80.278 108.611 89.722 14.167 89.722zM14.167 99.167L81.222 99.167 81.222 108.611 14.167 108.611z"/>
            </g>
            <g transform="translate(37.778 188.889)">
                <use fill="#000" filter="url(#aj46skwsin)" xlink:href="#li670j8ido"/>
                <use fill="url(#lxblze0tyh)" xlink:href="#li670j8ido"/>
                <g>
                    <path fill="#B5CBDE" d="M0.142 32.928L22.548 45.868 45.099 32.845 22.693 19.91z" filter="url(#rpmrhh9xgp)" transform="translate(37.778 17)"/>
                    <path fill="url(#fb7jcudomq)" d="M22.55 37.109L45.101 24.091 22.554 0.001z" transform="translate(37.778 17)"/>
                    <path fill="url(#vvhbyqr59r)" d="M22.546 0.001L-0.001 24.091 22.55 37.109 22.55 0.001z" transform="translate(37.778 17)"/>
                </g>
                <path fill="#DAE5EF" d="M14.167 80.278L108.611 80.278 108.611 89.722 14.167 89.722zM14.167 99.167L81.222 99.167 81.222 108.611 14.167 108.611z"/>
            </g>
            <g opacity=".4" transform="translate(188.889 37.778)">
                <use fill="#000" filter="url(#dlel5wq3ys)" xlink:href="#j2ery77npt"/>
                <use fill="url(#lxblze0tyh)" xlink:href="#j2ery77npt"/>
                <g>
                    <path fill="#B5CBDE" d="M4.713 31.78c6.31-3.644 16.577-3.625 22.928.042 3.177 1.833 4.772 4.233 4.784 6.627.013 2.396-1.557 4.788-4.712 6.61-6.313 3.645-16.577 3.627-22.929-.041C1.613 43.186.017 40.794 0 38.4c-.018-2.4 1.553-4.796 4.713-6.62" filter="url(#rq63h8wu0u)" transform="translate(45.333 19.833)"/>
                    <path fill="#FFF" d="M4.713 3.447C11.023-.197 21.29-.179 27.64 3.49c3.177 1.833 4.772 4.233 4.784 6.627.013 2.396-1.557 4.787-4.712 6.61-6.313 3.645-16.577 3.626-22.929-.042C1.613 14.854.017 12.46 0 10.068c-.018-2.4 1.553-4.796 4.713-6.62" transform="translate(45.333 19.833)"/>
                    <path fill="url(#pqvhtxajvv)" d="M0 10.067c.017 2.393 1.612 4.786 4.784 6.617 6.353 3.668 16.617 3.686 22.929.042 3.156-1.821 4.725-4.214 4.713-6.61v21.722c.012 2.396-1.557 4.789-4.713 6.61-6.312 3.645-16.576 3.626-22.93-.041C1.614 36.575.018 34.182 0 31.79V10.067z" transform="translate(45.333 19.833)"/>
                </g>
                <path fill="#DAE5EF" d="M14.167 80.278L108.611 80.278 108.611 89.722 14.167 89.722zM14.167 99.167L81.222 99.167 81.222 108.611 14.167 108.611z"/>
            </g>
            <g opacity=".4" transform="translate(188.889 188.889)">
                <use fill="#000" filter="url(#2gks5iwanw)" xlink:href="#x6pbe4cx2x"/>
                <use fill="url(#lxblze0tyh)" xlink:href="#x6pbe4cx2x"/>
                <g transform="translate(43.444 20.778)">
                    <path fill="#B5CBDE" d="M6.601 23.28c6.312-3.644 16.578-3.625 22.93.042 3.176 1.833 4.771 4.233 4.783 6.627.013 2.396-1.557 4.788-4.712 6.61-6.313 3.645-16.577 3.627-22.929-.041-3.171-1.832-4.767-4.224-4.784-6.617-.018-2.4 1.553-4.796 4.712-6.62" filter="url(#x3xsayhb1y)"/>
                    <circle cx="17.944" cy="17.944" r="17.944" fill="url(#e3ux13h0zz)"/>
                </g>
                <path fill="#DAE5EF" d="M14.167 80.278L108.611 80.278 108.611 89.722 14.167 89.722zM14.167 99.167L81.222 99.167 81.222 108.611 14.167 108.611z"/>
            </g>
        </g>
        <g transform="translate(14 12) translate(253.111)">
            <use fill="#000" filter="url(#g9abizrn9A)" xlink:href="#3y299l3exB"/>
            <use fill="#F2F6F9" fill-opacity=".8" xlink:href="#3y299l3exB"/>
            <use fill="#000" filter="url(#cbv7gfxneC)" xlink:href="#29qrcw1f2D"/>
            <use fill="url(#xqc8kefh8E)" xlink:href="#29qrcw1f2D"/>
            <use fill="url(#ivgxp2j33F)" xlink:href="#2x2ch3058G"/>
            <use fill="#000" filter="url(#o0e95ma9qH)" xlink:href="#2x2ch3058G"/>
            <use fill="url(#ivgxp2j33F)" xlink:href="#vc7blormgI"/>
            <use fill="#000" filter="url(#is8gnsq1uJ)" xlink:href="#vc7blormgI"/>
            <path fill="#DAE5EF" d="M35.889 170L130.333 170 130.333 179.444 35.889 179.444zM35.889 253.111L130.333 253.111 130.333 262.556 35.889 262.556z"/>
            <path fill="#FFF" opacity=".4" style="mix-blend-mode:overlay" d="M81.222 355.111L175.667 355.111 175.667 364.556 81.222 364.556z"/>
            <g>
                <use fill="#000" filter="url(#h664tmx7rK)" xlink:href="#56eo8y8zzL"/>
                <use fill="url(#lxblze0tyh)" xlink:href="#56eo8y8zzL"/>
            </g>
            <g>
                <g transform="translate(104.833 59.5) translate(21.894 19.33)">
                    <mask id="0xt9vmmriN" fill="#fff">
                        <use xlink:href="#dr3rra92sM"/>
                    </mask>
                    <path fill="#FEC100" d="M6.259 2.514l.14-.083c7.47-4.313 16.81 1.082 16.81 9.704 0 4.002-2.137 7.702-5.605 9.703l-.14.083C9.994 26.234.66 20.844.66 12.218c0-4.002 2.132-7.702 5.6-9.704" mask="url(#0xt9vmmriN)"/>
                </g>
                <g transform="translate(104.833 59.5) translate(0 20.022)">
                    <mask id="tw7edhxu3P" fill="#fff">
                        <use xlink:href="#ktw2xdoruO"/>
                    </mask>
                    <path fill="#7A54EF" d="M16.947 1.823l-.14-.083C9.337-2.573.001 2.822.001 11.444c0 4.002 2.133 7.702 5.6 9.703l.14.083c7.471 4.313 16.811-1.077 16.811-9.703 0-4.002-2.137-7.702-5.605-9.704" mask="url(#tw7edhxu3P)"/>
                </g>
                <g transform="translate(104.833 59.5) translate(11.107 .157)">
                    <mask id="5qgm5afdcR" fill="#fff">
                        <use xlink:href="#8dwrluhvdQ"/>
                    </mask>
                    <path fill="#00D592" d="M5.84 2.279l.14-.083c3.468-2.002 7.737-2.002 11.205 0 7.47 4.317 7.47 15.098 0 19.41l-.14.084c-3.463 2.001-7.737 2.001-11.205 0-7.47-4.318-7.47-15.098 0-19.411" mask="url(#5qgm5afdcR)"/>
                </g>
            </g>
        </g>
        <g transform="translate(14 12) translate(539.278 28.333)">
            <use fill="#000" filter="url(#cbx7cil68S)" xlink:href="#9w6o39lnyT"/>
            <use fill="#F2F6F9" fill-opacity=".8" xlink:href="#9w6o39lnyT"/>
            <use fill="url(#117azxtc8U)" xlink:href="#sntrk4hnyV"/>
            <use fill="#000" filter="url(#a1hmwqjtoW)" xlink:href="#sntrk4hnyV"/>
            <path fill="url(#wudas5jnhX)" d="M40.611 315.444h51c2.087 0 3.778 1.692 3.778 3.778 0 2.087-1.691 3.778-3.778 3.778h-51c-2.086 0-3.778-1.691-3.778-3.778 0-2.086 1.692-3.778 3.778-3.778z"/>
            <use fill="url(#ivgxp2j33F)" xlink:href="#uja5jmtwcY"/>
            <use fill="#000" filter="url(#okoihj5f3Z)" xlink:href="#uja5jmtwcY"/>
            <path fill="#DAE5EF" d="M35.889 229.5L187 229.5 187 238.944 35.889 238.944zM35.889 248.389L149.222 248.389 149.222 257.833 35.889 257.833zM35.889 295.611L111.444 295.611 111.444 305.056 35.889 305.056z"/>
            <use fill="#000" filter="url(#zv3ocihp4aa)" xlink:href="#y2c33isvoab"/>
            <use fill="url(#lxblze0tyh)" xlink:href="#y2c33isvoab"/>
            <g>
                <path fill="#B5CBDE" d="M6.56 43.3c8.787-5.074 23.079-5.049 31.92.057 4.423 2.552 6.645 5.893 6.66 9.226.02 3.336-2.167 6.665-6.56 9.203-8.788 5.073-23.077 5.047-31.92-.059-4.415-2.55-6.636-5.88-6.66-9.211-.025-3.34 2.162-6.677 6.56-9.217" filter="url(#ph9ry1khgac)" transform="translate(129.389 101.056)"/>
                <path fill="#FFF" d="M6.56 3.855c8.787-5.074 23.079-5.048 31.92.058 4.423 2.552 6.645 5.892 6.66 9.226.02 3.335-2.167 6.664-6.56 9.202-8.788 5.074-23.077 5.048-31.92-.058-4.415-2.55-6.636-5.88-6.66-9.212-.025-3.34 2.162-6.676 6.56-9.216" transform="translate(129.389 101.056)"/>
                <path fill="url(#w8n8obbqcad)" d="M0 13.07c.023 3.332 2.245 6.663 6.66 9.213 8.844 5.106 23.134 5.131 31.92.058 4.394-2.536 6.579-5.867 6.563-9.203V43.38c.016 3.336-2.169 6.667-6.563 9.203-8.786 5.073-23.076 5.048-31.92-.059-4.415-2.55-6.637-5.88-6.66-9.211V13.07z" transform="translate(129.389 101.056)"/>
            </g>
            <g>
                <use fill="#000" filter="url(#z2mgy1ohkae)" xlink:href="#e5ry8yki3af"/>
                <use fill="url(#lxblze0tyh)" xlink:href="#e5ry8yki3af"/>
            </g>
            <path fill="#D7E5F0" fill-rule="nonzero" d="M48.167 142.611L50.173 140.639 43.645 134.111 50.173 127.617 48.167 125.611 39.667 134.111z"/>
        </g>
    </g>
</svg>
