<svg xmlns="http://www.w3.org/2000/svg" width="30" height="34" viewBox="0 0 30 34">
    <path fill="#FFF" fill-rule="evenodd" d="M18.003 14.263c-.969 0-1.734.85-1.734 1.887s.782 1.887 1.734 1.887c.969 0 1.734-.85 1.734-1.887s-.765-1.887-1.734-1.887zm-6.205 0c-.969 0-1.734.85-1.734 1.887s.782 1.887 1.734 1.887c.969 0 1.734-.85 1.734-1.887.017-1.037-.765-1.887-1.734-1.887zm7.905 7.939c3.757-.12 5.202-2.584 5.202-2.584 0-5.474-2.448-9.911-2.448-9.911-2.448-1.836-4.777-1.785-4.777-1.785l-.238.272c2.89.884 4.233 2.159 4.233 2.159-1.768-.97-3.502-1.445-5.117-1.632-1.224-.136-2.397-.102-3.434.034l-.289.034c-.595.05-2.04.272-3.859 1.07-.629.29-1.003.494-1.003.494s1.411-1.343 4.471-2.227l-.17-.204S9.945 7.87 7.497 9.707c0 0-2.448 4.437-2.448 9.91 0 0 1.428 2.466 5.185 2.585 0 0 .629-.765 1.139-1.411-2.159-.646-2.975-2.006-2.975-2.006l.476.289.068.05.067.04.02.008.066.038c.425.238.85.425 1.241.578.697.272 1.53.544 2.499.732 1.275.237 2.771.322 4.403.016.799-.135 1.615-.373 2.465-.73.595-.222 1.258-.545 1.955-1.003 0 0-.85 1.393-3.077 2.022.51.646 1.122 1.377 1.122 1.377zM26.265 0c1.921 0 3.485 1.564 3.485 3.502V34l-3.655-3.23-2.057-1.904-2.176-2.023.901 3.145H3.485C1.564 29.988 0 28.425 0 26.486V3.502C0 1.564 1.564 0 3.485 0h22.78z"/>
</svg>
