<svg xmlns="http://www.w3.org/2000/svg" width="134" height="36" viewBox="0 0 134 36">
    <g fill="none" fill-rule="evenodd">
        <path fill="#FFF" d="M18.637 10.946c.168.838.256 1.758.256 2.751 0 5.348-2.512 8.54-6.72 8.54-1.754 0-3.235-.56-4.352-1.63L22.468 5.96c-.393-.695-.84-1.344-1.343-1.938-.212-.25-.435-.483-.662-.71l.002-.001c-.03-.03-.062-.058-.092-.087-.067-.066-.132-.135-.201-.2l-.004.004C18.041 1.046 15.308 0 12.173 0c-3.621 0-6.71 1.39-8.932 4.023C1.15 6.498 0 9.933 0 13.697c0 2.501.51 4.855 1.464 6.88l4.25-4.25c-.148-.805-.223-1.682-.223-2.63 0-2.46.5-4.45 1.49-5.915 1.158-1.717 2.954-2.624 5.191-2.624 1.743 0 3.193.55 4.296 1.57L1.852 21.346c.402.729.866 1.408 1.389 2.027.105.124.213.242.321.36l.003.004c.125.136.254.268.384.398l.048.049c.042.04.082.084.124.124l.005-.005c2.128 2.025 4.883 3.092 8.047 3.092 3.624 0 6.72-1.39 8.952-4.022 2.101-2.478 3.259-5.914 3.259-9.675 0-2.54-.53-4.93-1.52-6.978l-4.227 4.227zM98.855 21.125c.507-.436 1.168-.699 1.89-.699h.317v-2.09c0-5.184-.075-8.95-.037-8.95h.037c.037 0 2.908 4.102 5.258 7.31l2.75 3.73h.87c1.002 0 1.884.506 2.407 1.277 1.472-1.003 3.2-1.526 5.08-1.526.41 0 .809.028 1.199.076V.66h-5.183V9.2c0 4.4.074 8.65.037 8.65h-.037c-.038 0-3.32-4.66-5.11-7.01L100.763.66h-4.885v19.562c1.08.106 2.086.413 2.977.903M89.847 22.256c.124-.127.255-.251.392-.37l.024-.02c.492-.42 1.035-.762 1.619-1.028V.66h-5.183v20.027c1.152.29 2.213.817 3.148 1.57M76.907 23.33c0-1.604 1.3-2.904 2.905-2.904h3.242v-8.02H71.38v4.214h7.235v1.12c-.82 2.013-3.17 4.474-7.645 4.474-4.848 0-8.428-3.319-8.428-8.502 0-4.96 3.245-8.466 8.13-8.466 2.573 0 5.146 1.231 6.563 3.17l5.296-1.38C80.182 2.86 75.856.175 70.672.137c-7.495 0-13.536 5.706-13.536 13.575 0 7.868 6.041 13.574 13.537 13.574 2.387 0 4.623-.813 6.234-1.852v-2.103zM49.389 26.764L54.572 26.764 54.572.659 49.389.659zM36.386 13.227h-4.624v-7.72h4.624c2.834 0 4.214 1.828 4.214 3.879 0 1.976-1.343 3.841-4.214 3.841m9.584-3.841C45.97 4.128 42.129.66 35.715.66h-9.137v26.104h5.184v-8.913H36.013l5.184 8.913h5.817l-5.967-9.883c3.17-1.305 4.923-3.915 4.923-7.495"/>
        <path fill="#000" d="M129.413 28.643c.663 0 1.179-.514 1.179-1.245 0-.73-.516-1.228-1.18-1.228h-1.543v2.473h1.544zm0-5.312c1.179 0 2.157.382 2.954 1.145.797.764 1.196 1.743 1.196 2.922s-.399 2.158-1.196 2.922c-.797.763-1.775 1.145-2.954 1.145h-1.544v3.486h-2.972v-11.62h4.516zm-11.986 8.964c.897 0 1.644-.298 2.242-.88.598-.597.896-1.361.896-2.274s-.298-1.677-.896-2.258c-.598-.597-1.345-.896-2.242-.896-.896 0-1.643.299-2.24.896-.598.581-.897 1.345-.897 2.258s.299 1.677.897 2.274c.597.582 1.344.88 2.24.88zm0 2.905c-1.71 0-3.154-.58-4.332-1.743-1.179-1.178-1.76-2.606-1.76-4.316s.581-3.138 1.76-4.3c1.178-1.178 2.623-1.759 4.332-1.759 1.71 0 3.138.58 4.317 1.76 1.178 1.161 1.776 2.59 1.776 4.3 0 1.709-.598 3.137-1.776 4.315-1.179 1.162-2.606 1.743-4.317 1.743zm-10.441-11.87h2.955v11.621h-2.955v-4.465h-3.27v4.465h-2.972v-11.62h2.972v4.3h3.27v-4.3zm-16.484 8.982l2.54-1.478c.432 1.03 1.195 1.544 2.291 1.544.913 0 1.361-.266 1.361-.78 0-.349-.265-.615-.78-.83-.216-.083-.714-.232-1.46-.448C92.328 29.705 91 28.676 91 26.684c0-1.079.382-1.942 1.146-2.606.78-.664 1.743-.996 2.888-.996 1.942 0 3.52.93 4.316 2.656l-2.49 1.46c-.365-.863-.962-1.294-1.81-1.294-.713 0-1.079.315-1.079.764 0 .514.416.796 1.993 1.261.564.166 1.012.316 1.36.465.35.15.715.349 1.13.63.813.532 1.211 1.395 1.211 2.54 0 1.146-.398 2.026-1.211 2.673-.813.648-1.876.963-3.204.963-2.456 0-4.1-1.112-4.748-2.888zm-5.959-.233c.814 0 1.46-.265 1.976-.796.514-.548.763-1.262.763-2.142 0-.88-.249-1.594-.763-2.125-.515-.548-1.162-.813-1.976-.813h-1.677v5.876h1.677zm0-8.748c1.61 0 2.938.564 4.017 1.676 1.079 1.113 1.627 2.49 1.627 4.134 0 1.643-.548 3.038-1.627 4.15-1.079 1.112-2.407 1.66-4.017 1.66h-4.731v-11.62h4.731z"/>
    </g>
</svg>
