<svg xmlns="http://www.w3.org/2000/svg" width="74" height="74" viewBox="0 0 74 74">
    <path fill="#7A54EF" fill-rule="evenodd" d="M74 43.167C74 60.196 60.196 74 43.167 74c-8.603 0-16.342-3.561-21.926-9.25h10.113c3.51 1.946 7.52 3.083 11.813 3.083 13.6 0 24.666-11.066 24.666-24.666S56.767 18.5 43.167 18.5c-4.292 0-8.304 1.138-11.813 3.083H21.241c5.584-5.688 13.323-9.25 21.926-9.25C60.196 12.333 74 26.137 74 43.167zM9.25 58.583h21.583v-6.166H9.25v6.166zM0 46.25h24.667v-6.167H0v6.167zm6.167-12.333h24.666V27.75H6.167v6.167zM64.29 14.67l4.338-4.339 4.36 4.36-4.073 4.073c-1.425-1.492-2.973-2.858-4.625-4.094zM37 8.307V0h12.333v8.306c-4.437-.749-7.992-.733-12.333 0zm12.056 32.825l8.128-12.414-1.4-1.252-11.325 9.556c-2.082-.426-4.323.21-5.84 1.905-2.27 2.538-2.05 6.438.49 8.707 2.54 2.27 6.438 2.05 8.707-.49 1.517-1.696 1.897-3.993 1.24-6.012z"/>
</svg>
