<svg xmlns="http://www.w3.org/2000/svg" width="65" height="68" viewBox="0 0 65 68">
    <path fill="#FEC100" fill-rule="evenodd" d="M28.434 1.334c2.42-1.779 5.709-1.779 8.133 0 5.802 4.267 4.55 3.86 11.74 3.837 3.001-.009 5.661 1.935 6.577 4.805 2.198 6.877 1.429 5.814 7.254 10.042 2.435 1.765 3.452 4.91 2.517 7.777-2.238 6.848-2.25 5.533 0 12.41.938 2.865-.08 6.012-2.517 7.775-5.825 4.227-5.053 3.164-7.254 10.044-.916 2.873-3.579 4.816-6.577 4.805-7.192-.023-5.94-.43-11.74 3.837-2.421 1.779-5.71 1.779-8.133 0-5.803-4.265-4.555-3.862-11.74-3.837-3.002.009-5.662-1.935-6.578-4.805-2.198-6.885-1.44-5.823-7.257-10.044C.427 46.217-.59 43.072.346 40.205c2.24-6.848 2.248-5.533 0-12.41-.939-2.87.078-6.015 2.51-7.78 5.811-4.22 5.059-3.148 7.257-10.042.916-2.873 3.58-4.816 6.578-4.805 7.172.023 5.906.456 11.743-3.834"/>
</svg>
