<svg xmlns="http://www.w3.org/2000/svg" xmlns:xlink="http://www.w3.org/1999/xlink" width="1169" height="664" viewBox="0 0 1169 664">
    <defs>
        <filter id="prefix__b" width="107.3%" height="111.9%" x="-3.6%" y="-5.4%" filterUnits="objectBoundingBox">
            <feOffset dy="2" in="SourceAlpha" result="shadowOffsetOuter1"/>
            <feGaussianBlur in="shadowOffsetOuter1" result="shadowBlurOuter1" stdDeviation="7"/>
            <feComposite in="shadowBlurOuter1" in2="SourceAlpha" operator="out" result="shadowBlurOuter1"/>
            <feColorMatrix in="shadowBlurOuter1" values="0 0 0 0 0 0 0 0 0 0 0 0 0 0 0 0 0 0 0.05 0"/>
        </filter>
        <filter id="prefix__d" width="117.6%" height="117.6%" x="-8.8%" y="-8%" filterUnits="objectBoundingBox">
            <feOffset dy="2" in="SourceAlpha" result="shadowOffsetOuter1"/>
            <feGaussianBlur in="shadowOffsetOuter1" result="shadowBlurOuter1" stdDeviation="7"/>
            <feComposite in="shadowBlurOuter1" in2="SourceAlpha" operator="out" result="shadowBlurOuter1"/>
            <feColorMatrix in="shadowBlurOuter1" values="0 0 0 0 0 0 0 0 0 0 0 0 0 0 0 0 0 0 0.05 0"/>
        </filter>
        <filter id="prefix__f" width="143.3%" height="143.3%" x="-21.7%" y="-21.7%" filterUnits="objectBoundingBox">
            <feOffset dx="5" dy="5" in="SourceAlpha" result="shadowOffsetOuter1"/>
            <feGaussianBlur in="shadowOffsetOuter1" result="shadowBlurOuter1" stdDeviation="4"/>
            <feComposite in="shadowBlurOuter1" in2="SourceAlpha" operator="out" result="shadowBlurOuter1"/>
            <feColorMatrix in="shadowBlurOuter1" result="shadowMatrixOuter1" values="0 0 0 0 0 0 0 0 0 0 0 0 0 0 0 0 0 0 0.08 0"/>
            <feOffset dx="-5" dy="-5" in="SourceAlpha" result="shadowOffsetOuter2"/>
            <feGaussianBlur in="shadowOffsetOuter2" result="shadowBlurOuter2" stdDeviation="4"/>
            <feComposite in="shadowBlurOuter2" in2="SourceAlpha" operator="out" result="shadowBlurOuter2"/>
            <feColorMatrix in="shadowBlurOuter2" result="shadowMatrixOuter2" values="0 0 0 0 1 0 0 0 0 1 0 0 0 0 1 0 0 0 0.9 0"/>
            <feMerge>
                <feMergeNode in="shadowMatrixOuter1"/>
                <feMergeNode in="shadowMatrixOuter2"/>
            </feMerge>
        </filter>
        <filter id="prefix__i" width="130%" height="130%" x="-15%" y="-15%" filterUnits="objectBoundingBox">
            <feOffset dx="5" dy="5" in="SourceAlpha" result="shadowOffsetOuter1"/>
            <feGaussianBlur in="shadowOffsetOuter1" result="shadowBlurOuter1" stdDeviation="4"/>
            <feColorMatrix in="shadowBlurOuter1" result="shadowMatrixOuter1" values="0 0 0 0 0 0 0 0 0 0 0 0 0 0 0 0 0 0 0.08 0"/>
            <feOffset dx="-5" dy="-5" in="SourceAlpha" result="shadowOffsetOuter2"/>
            <feGaussianBlur in="shadowOffsetOuter2" result="shadowBlurOuter2" stdDeviation="4"/>
            <feColorMatrix in="shadowBlurOuter2" result="shadowMatrixOuter2" values="0 0 0 0 1 0 0 0 0 1 0 0 0 0 1 0 0 0 0.9 0"/>
            <feMerge>
                <feMergeNode in="shadowMatrixOuter1"/>
                <feMergeNode in="shadowMatrixOuter2"/>
            </feMerge>
        </filter>
        <filter id="prefix__k" width="209.7%" height="290.1%" x="-54.9%" y="-95%" filterUnits="objectBoundingBox">
            <feGaussianBlur in="SourceGraphic" stdDeviation="7"/>
        </filter>
        <filter id="prefix__n" width="130%" height="130%" x="-15%" y="-15%" filterUnits="objectBoundingBox">
            <feOffset dx="5" dy="5" in="SourceAlpha" result="shadowOffsetOuter1"/>
            <feGaussianBlur in="shadowOffsetOuter1" result="shadowBlurOuter1" stdDeviation="4"/>
            <feColorMatrix in="shadowBlurOuter1" result="shadowMatrixOuter1" values="0 0 0 0 0 0 0 0 0 0 0 0 0 0 0 0 0 0 0.08 0"/>
            <feOffset dx="-5" dy="-5" in="SourceAlpha" result="shadowOffsetOuter2"/>
            <feGaussianBlur in="shadowOffsetOuter2" result="shadowBlurOuter2" stdDeviation="4"/>
            <feColorMatrix in="shadowBlurOuter2" result="shadowMatrixOuter2" values="0 0 0 0 1 0 0 0 0 1 0 0 0 0 1 0 0 0 0.9 0"/>
            <feMerge>
                <feMergeNode in="shadowMatrixOuter1"/>
                <feMergeNode in="shadowMatrixOuter2"/>
            </feMerge>
        </filter>
        <filter id="prefix__p" width="188.2%" height="252.8%" x="-44.1%" y="-76.4%" filterUnits="objectBoundingBox">
            <feGaussianBlur in="SourceGraphic" stdDeviation="7"/>
        </filter>
        <filter id="prefix__s" width="130%" height="130%" x="-15%" y="-15%" filterUnits="objectBoundingBox">
            <feOffset dx="5" dy="5" in="SourceAlpha" result="shadowOffsetOuter1"/>
            <feGaussianBlur in="shadowOffsetOuter1" result="shadowBlurOuter1" stdDeviation="4"/>
            <feColorMatrix in="shadowBlurOuter1" result="shadowMatrixOuter1" values="0 0 0 0 0 0 0 0 0 0 0 0 0 0 0 0 0 0 0.08 0"/>
            <feOffset dx="-5" dy="-5" in="SourceAlpha" result="shadowOffsetOuter2"/>
            <feGaussianBlur in="shadowOffsetOuter2" result="shadowBlurOuter2" stdDeviation="4"/>
            <feColorMatrix in="shadowBlurOuter2" result="shadowMatrixOuter2" values="0 0 0 0 1 0 0 0 0 1 0 0 0 0 1 0 0 0 0.9 0"/>
            <feMerge>
                <feMergeNode in="shadowMatrixOuter1"/>
                <feMergeNode in="shadowMatrixOuter2"/>
            </feMerge>
        </filter>
        <filter id="prefix__u" width="222.3%" height="311.9%" x="-61.2%" y="-105.9%" filterUnits="objectBoundingBox">
            <feGaussianBlur in="SourceGraphic" stdDeviation="7"/>
        </filter>
        <filter id="prefix__w" width="130%" height="130%" x="-15%" y="-15%" filterUnits="objectBoundingBox">
            <feOffset dx="5" dy="5" in="SourceAlpha" result="shadowOffsetOuter1"/>
            <feGaussianBlur in="shadowOffsetOuter1" result="shadowBlurOuter1" stdDeviation="4"/>
            <feColorMatrix in="shadowBlurOuter1" result="shadowMatrixOuter1" values="0 0 0 0 0 0 0 0 0 0 0 0 0 0 0 0 0 0 0.08 0"/>
            <feOffset dx="-5" dy="-5" in="SourceAlpha" result="shadowOffsetOuter2"/>
            <feGaussianBlur in="shadowOffsetOuter2" result="shadowBlurOuter2" stdDeviation="4"/>
            <feColorMatrix in="shadowBlurOuter2" result="shadowMatrixOuter2" values="0 0 0 0 1 0 0 0 0 1 0 0 0 0 1 0 0 0 0.9 0"/>
            <feMerge>
                <feMergeNode in="shadowMatrixOuter1"/>
                <feMergeNode in="shadowMatrixOuter2"/>
            </feMerge>
        </filter>
        <filter id="prefix__y" width="222.3%" height="311.9%" x="-61.2%" y="-105.9%" filterUnits="objectBoundingBox">
            <feGaussianBlur in="SourceGraphic" stdDeviation="7"/>
        </filter>
        <filter id="prefix__A" width="116.1%" height="110%" x="-8.1%" y="-4.5%" filterUnits="objectBoundingBox">
            <feOffset dy="2" in="SourceAlpha" result="shadowOffsetOuter1"/>
            <feGaussianBlur in="shadowOffsetOuter1" result="shadowBlurOuter1" stdDeviation="7"/>
            <feComposite in="shadowBlurOuter1" in2="SourceAlpha" operator="out" result="shadowBlurOuter1"/>
            <feColorMatrix in="shadowBlurOuter1" values="0 0 0 0 0 0 0 0 0 0 0 0 0 0 0 0 0 0 0.05 0"/>
        </filter>
        <filter id="prefix__C" width="113.8%" height="154%" x="-6.9%" y="-27%" filterUnits="objectBoundingBox">
            <feOffset dx="3" dy="3" in="SourceAlpha" result="shadowOffsetOuter1"/>
            <feGaussianBlur in="shadowOffsetOuter1" result="shadowBlurOuter1" stdDeviation="3"/>
            <feColorMatrix in="shadowBlurOuter1" result="shadowMatrixOuter1" values="0 0 0 0 0 0 0 0 0 0 0 0 0 0 0 0 0 0 0.18 0"/>
            <feOffset dx="-3" dy="-3" in="SourceAlpha" result="shadowOffsetOuter2"/>
            <feGaussianBlur in="shadowOffsetOuter2" result="shadowBlurOuter2" stdDeviation="3"/>
            <feColorMatrix in="shadowBlurOuter2" result="shadowMatrixOuter2" values="0 0 0 0 1 0 0 0 0 1 0 0 0 0 1 0 0 0 0.9 0"/>
            <feMerge>
                <feMergeNode in="shadowMatrixOuter1"/>
                <feMergeNode in="shadowMatrixOuter2"/>
            </feMerge>
        </filter>
        <filter id="prefix__H" width="104.1%" height="120%" x="-2%" y="-10%" filterUnits="objectBoundingBox">
            <feGaussianBlur in="SourceAlpha" result="shadowBlurInner1" stdDeviation="2.5"/>
            <feOffset dx="3" dy="3" in="shadowBlurInner1" result="shadowOffsetInner1"/>
            <feComposite in="shadowOffsetInner1" in2="SourceAlpha" k2="-1" k3="1" operator="arithmetic" result="shadowInnerInner1"/>
            <feColorMatrix in="shadowInnerInner1" result="shadowMatrixInner1" values="0 0 0 0 0 0 0 0 0 0 0 0 0 0 0 0 0 0 0.08 0"/>
            <feGaussianBlur in="SourceAlpha" result="shadowBlurInner2" stdDeviation="2.5"/>
            <feOffset dx="-3" dy="-3" in="shadowBlurInner2" result="shadowOffsetInner2"/>
            <feComposite in="shadowOffsetInner2" in2="SourceAlpha" k2="-1" k3="1" operator="arithmetic" result="shadowInnerInner2"/>
            <feColorMatrix in="shadowInnerInner2" result="shadowMatrixInner2" values="0 0 0 0 1 0 0 0 0 1 0 0 0 0 1 0 0 0 1 0"/>
            <feMerge>
                <feMergeNode in="shadowMatrixInner1"/>
                <feMergeNode in="shadowMatrixInner2"/>
            </feMerge>
        </filter>
        <filter id="prefix__J" width="104.1%" height="120%" x="-2%" y="-10%" filterUnits="objectBoundingBox">
            <feGaussianBlur in="SourceAlpha" result="shadowBlurInner1" stdDeviation="2.5"/>
            <feOffset dx="3" dy="3" in="shadowBlurInner1" result="shadowOffsetInner1"/>
            <feComposite in="shadowOffsetInner1" in2="SourceAlpha" k2="-1" k3="1" operator="arithmetic" result="shadowInnerInner1"/>
            <feColorMatrix in="shadowInnerInner1" result="shadowMatrixInner1" values="0 0 0 0 0 0 0 0 0 0 0 0 0 0 0 0 0 0 0.08 0"/>
            <feGaussianBlur in="SourceAlpha" result="shadowBlurInner2" stdDeviation="2.5"/>
            <feOffset dx="-3" dy="-3" in="shadowBlurInner2" result="shadowOffsetInner2"/>
            <feComposite in="shadowOffsetInner2" in2="SourceAlpha" k2="-1" k3="1" operator="arithmetic" result="shadowInnerInner2"/>
            <feColorMatrix in="shadowInnerInner2" result="shadowMatrixInner2" values="0 0 0 0 1 0 0 0 0 1 0 0 0 0 1 0 0 0 1 0"/>
            <feMerge>
                <feMergeNode in="shadowMatrixInner1"/>
                <feMergeNode in="shadowMatrixInner2"/>
            </feMerge>
        </filter>
        <filter id="prefix__K" width="143.3%" height="143.3%" x="-21.7%" y="-21.7%" filterUnits="objectBoundingBox">
            <feOffset dx="5" dy="5" in="SourceAlpha" result="shadowOffsetOuter1"/>
            <feGaussianBlur in="shadowOffsetOuter1" result="shadowBlurOuter1" stdDeviation="4"/>
            <feColorMatrix in="shadowBlurOuter1" result="shadowMatrixOuter1" values="0 0 0 0 0 0 0 0 0 0 0 0 0 0 0 0 0 0 0.08 0"/>
            <feOffset dx="-5" dy="-5" in="SourceAlpha" result="shadowOffsetOuter2"/>
            <feGaussianBlur in="shadowOffsetOuter2" result="shadowBlurOuter2" stdDeviation="4"/>
            <feColorMatrix in="shadowBlurOuter2" result="shadowMatrixOuter2" values="0 0 0 0 1 0 0 0 0 1 0 0 0 0 1 0 0 0 0.9 0"/>
            <feMerge>
                <feMergeNode in="shadowMatrixOuter1"/>
                <feMergeNode in="shadowMatrixOuter2"/>
            </feMerge>
        </filter>
        <filter id="prefix__S" width="116.1%" height="110%" x="-8.1%" y="-4.5%" filterUnits="objectBoundingBox">
            <feOffset dy="2" in="SourceAlpha" result="shadowOffsetOuter1"/>
            <feGaussianBlur in="shadowOffsetOuter1" result="shadowBlurOuter1" stdDeviation="7"/>
            <feComposite in="shadowBlurOuter1" in2="SourceAlpha" operator="out" result="shadowBlurOuter1"/>
            <feColorMatrix in="shadowBlurOuter1" values="0 0 0 0 0 0 0 0 0 0 0 0 0 0 0 0 0 0 0.05 0"/>
        </filter>
        <filter id="prefix__W" width="104.1%" height="180%" x="-2.1%" y="-40%" filterUnits="objectBoundingBox">
            <feGaussianBlur in="SourceAlpha" result="shadowBlurInner1" stdDeviation="2.5"/>
            <feOffset dx="3" dy="3" in="shadowBlurInner1" result="shadowOffsetInner1"/>
            <feComposite in="shadowOffsetInner1" in2="SourceAlpha" k2="-1" k3="1" operator="arithmetic" result="shadowInnerInner1"/>
            <feColorMatrix in="shadowInnerInner1" result="shadowMatrixInner1" values="0 0 0 0 0 0 0 0 0 0 0 0 0 0 0 0 0 0 0.08 0"/>
            <feGaussianBlur in="SourceAlpha" result="shadowBlurInner2" stdDeviation="2.5"/>
            <feOffset dx="-3" dy="-3" in="shadowBlurInner2" result="shadowOffsetInner2"/>
            <feComposite in="shadowOffsetInner2" in2="SourceAlpha" k2="-1" k3="1" operator="arithmetic" result="shadowInnerInner2"/>
            <feColorMatrix in="shadowInnerInner2" result="shadowMatrixInner2" values="0 0 0 0 1 0 0 0 0 1 0 0 0 0 1 0 0 0 1 0"/>
            <feMerge>
                <feMergeNode in="shadowMatrixInner1"/>
                <feMergeNode in="shadowMatrixInner2"/>
            </feMerge>
        </filter>
        <filter id="prefix__Z" width="104.1%" height="120%" x="-2%" y="-10%" filterUnits="objectBoundingBox">
            <feGaussianBlur in="SourceAlpha" result="shadowBlurInner1" stdDeviation="2.5"/>
            <feOffset dx="3" dy="3" in="shadowBlurInner1" result="shadowOffsetInner1"/>
            <feComposite in="shadowOffsetInner1" in2="SourceAlpha" k2="-1" k3="1" operator="arithmetic" result="shadowInnerInner1"/>
            <feColorMatrix in="shadowInnerInner1" result="shadowMatrixInner1" values="0 0 0 0 0 0 0 0 0 0 0 0 0 0 0 0 0 0 0.08 0"/>
            <feGaussianBlur in="SourceAlpha" result="shadowBlurInner2" stdDeviation="2.5"/>
            <feOffset dx="-3" dy="-3" in="shadowBlurInner2" result="shadowOffsetInner2"/>
            <feComposite in="shadowOffsetInner2" in2="SourceAlpha" k2="-1" k3="1" operator="arithmetic" result="shadowInnerInner2"/>
            <feColorMatrix in="shadowInnerInner2" result="shadowMatrixInner2" values="0 0 0 0 1 0 0 0 0 1 0 0 0 0 1 0 0 0 1 0"/>
            <feMerge>
                <feMergeNode in="shadowMatrixInner1"/>
                <feMergeNode in="shadowMatrixInner2"/>
            </feMerge>
        </filter>
        <filter id="prefix__aa" width="130%" height="130%" x="-15%" y="-15%" filterUnits="objectBoundingBox">
            <feOffset dx="5" dy="5" in="SourceAlpha" result="shadowOffsetOuter1"/>
            <feGaussianBlur in="shadowOffsetOuter1" result="shadowBlurOuter1" stdDeviation="4"/>
            <feColorMatrix in="shadowBlurOuter1" result="shadowMatrixOuter1" values="0 0 0 0 0 0 0 0 0 0 0 0 0 0 0 0 0 0 0.08 0"/>
            <feOffset dx="-5" dy="-5" in="SourceAlpha" result="shadowOffsetOuter2"/>
            <feGaussianBlur in="shadowOffsetOuter2" result="shadowBlurOuter2" stdDeviation="4"/>
            <feColorMatrix in="shadowBlurOuter2" result="shadowMatrixOuter2" values="0 0 0 0 1 0 0 0 0 1 0 0 0 0 1 0 0 0 0.9 0"/>
            <feMerge>
                <feMergeNode in="shadowMatrixOuter1"/>
                <feMergeNode in="shadowMatrixOuter2"/>
            </feMerge>
        </filter>
        <filter id="prefix__ac" width="187.9%" height="252.2%" x="-43.9%" y="-76.1%" filterUnits="objectBoundingBox">
            <feGaussianBlur in="SourceGraphic" stdDeviation="7"/>
        </filter>
        <filter id="prefix__ae" width="197.5%" height="197.5%" x="-48.8%" y="-48.8%" filterUnits="objectBoundingBox">
            <feOffset dx="5" dy="5" in="SourceAlpha" result="shadowOffsetOuter1"/>
            <feGaussianBlur in="shadowOffsetOuter1" result="shadowBlurOuter1" stdDeviation="4"/>
            <feColorMatrix in="shadowBlurOuter1" result="shadowMatrixOuter1" values="0 0 0 0 0 0 0 0 0 0 0 0 0 0 0 0 0 0 0.08 0"/>
            <feOffset dx="-5" dy="-5" in="SourceAlpha" result="shadowOffsetOuter2"/>
            <feGaussianBlur in="shadowOffsetOuter2" result="shadowBlurOuter2" stdDeviation="4"/>
            <feColorMatrix in="shadowBlurOuter2" result="shadowMatrixOuter2" values="0 0 0 0 1 0 0 0 0 1 0 0 0 0 1 0 0 0 0.9 0"/>
            <feMerge>
                <feMergeNode in="shadowMatrixOuter1"/>
                <feMergeNode in="shadowMatrixOuter2"/>
            </feMerge>
        </filter>
        <path id="prefix__c" d="M20 0h564.477c11.045 0 20 8.954 20 20v330c0 11.046-8.955 20-20 20H20c-11.046 0-20-8.954-20-20V20C0 8.954 8.954 0 20 0z"/>
        <path id="prefix__e" d="M20 0h210c11.046 0 20 8.954 20 20v210c0 11.046-8.954 20-20 20H20c-11.046 0-20-8.954-20-20V20C0 8.954 8.954 0 20 0z"/>
        <path id="prefix__g" d="M125 40c24.853 0 45 20.147 45 45s-20.147 45-45 45-45-20.147-45-45 20.147-45 45-45z"/>
        <path id="prefix__j" d="M10 0h110c5.523 0 10 4.477 10 10v110c0 5.523-4.477 10-10 10H10c-5.523 0-10-4.477-10-10V10C0 4.477 4.477 0 10 0z"/>
        <path id="prefix__o" d="M10 0h110c5.523 0 10 4.477 10 10v110c0 5.523-4.477 10-10 10H10c-5.523 0-10-4.477-10-10V10C0 4.477 4.477 0 10 0z"/>
        <path id="prefix__t" d="M10 0h110c5.523 0 10 4.477 10 10v110c0 5.523-4.477 10-10 10H10c-5.523 0-10-4.477-10-10V10C0 4.477 4.477 0 10 0z"/>
        <path id="prefix__x" d="M10 0h110c5.523 0 10 4.477 10 10v110c0 5.523-4.477 10-10 10H10c-5.523 0-10-4.477-10-10V10C0 4.477 4.477 0 10 0z"/>
        <path id="prefix__B" d="M20 0h233c11.046 0 20 8.954 20 20v400c0 11.046-8.954 20-20 20H20c-11.046 0-20-8.954-20-20V20C0 8.954 8.954 0 20 0z"/>
        <path id="prefix__D" d="M48 356h176c5.523 0 10 4.477 10 10v30c0 5.523-4.477 10-10 10H48c-5.523 0-10-4.477-10-10v-30c0-5.523 4.477-10 10-10z"/>
        <path id="prefix__G" d="M43 204h186c2.761 0 5 2.239 5 5v30c0 2.761-2.239 5-5 5H43c-2.761 0-5-2.239-5-5v-30c0-2.761 2.239-5 5-5z"/>
        <path id="prefix__I" d="M43 292h186c2.761 0 5 2.239 5 5v30c0 2.761-2.239 5-5 5H43c-2.761 0-5-2.239-5-5v-30c0-2.761 2.239-5 5-5z"/>
        <path id="prefix__L" d="M112 42h50c11.046 0 20 8.954 20 20v50c0 11.046-8.954 20-20 20h-50c-11.046 0-20-8.954-20-20V62c0-11.046 8.954-20 20-20z"/>
        <path id="prefix__M" d="M0.697 0.967L24.573 0.967 24.573 24.818 0.697 24.818z"/>
        <path id="prefix__O" d="M0.001 0.236L23.879 0.236 23.879 24.086 0.001 24.086z"/>
        <path id="prefix__Q" d="M0.251 0.74L24.129 0.74 24.129 24.555 0.251 24.555z"/>
        <path id="prefix__T" d="M20 0h233c11.046 0 20 8.954 20 20v400c0 11.046-8.954 20-20 20H20c-11.046 0-20-8.954-20-20V20C0 8.954 8.954 0 20 0z"/>
        <path id="prefix__V" d="M43 333h184.952c2.761 0 5 2.239 5 5s-2.239 5-5 5H43c-2.761 0-5-2.239-5-5s2.239-5 5-5z"/>
        <path id="prefix__Y" d="M43 363h186c2.761 0 5 2.239 5 5v30c0 2.761-2.239 5-5 5H43c-2.761 0-5-2.239-5-5v-30c0-2.761 2.239-5 5-5z"/>
        <path id="prefix__ab" d="M106 77h110c5.523 0 10 4.477 10 10v110c0 5.523-4.477 10-10 10H106c-5.523 0-10-4.477-10-10V87c0-5.523 4.477-10 10-10z"/>
        <path id="prefix__af" d="M48 122c11.046 0 20 8.954 20 20s-8.954 20-20 20-20-8.954-20-20 8.954-20 20-20z"/>
        <linearGradient id="prefix__a" x1="0%" x2="100%" y1="50%" y2="50%">
            <stop offset="0%" stop-color="#272D34"/>
            <stop offset="100%" stop-color="#40474F"/>
        </linearGradient>
        <linearGradient id="prefix__h" x1="93.218%" x2="5.8%" y1="90.739%" y2="7.788%">
            <stop offset="0%" stop-color="#F2F4F7"/>
            <stop offset="100%" stop-color="#E6EEF5"/>
        </linearGradient>
        <linearGradient id="prefix__l" x1="33.19%" x2="66.81%" y1="33.954%" y2="73.771%">
            <stop offset="0%" stop-color="#E8F2FB"/>
            <stop offset="100%" stop-color="#AEC7DE"/>
        </linearGradient>
        <linearGradient id="prefix__m" x1="50%" x2="50%" y1="0%" y2="100%">
            <stop offset="0%" stop-color="#E8F2FB"/>
            <stop offset="100%" stop-color="#FFF"/>
        </linearGradient>
        <linearGradient id="prefix__q" x1="50%" x2="50%" y1="0%" y2="100%">
            <stop offset="0%" stop-color="#E7F1FB"/>
            <stop offset="100%" stop-color="#B4CBE0"/>
        </linearGradient>
        <linearGradient id="prefix__r" x1="50%" x2="50%" y1="0%" y2="100%">
            <stop offset="0%" stop-color="#EDF5FC"/>
            <stop offset="100%" stop-color="#FFF"/>
        </linearGradient>
        <linearGradient id="prefix__v" x1="0%" x2="100%" y1="35.687%" y2="71.791%">
            <stop offset="0%" stop-color="#E7F1FB"/>
            <stop offset="100%" stop-color="#B3CBE0"/>
        </linearGradient>
        <linearGradient id="prefix__z" x1="14.823%" x2="84.37%" y1="12.13%" y2="83.162%">
            <stop offset="0%" stop-color="#FFF"/>
            <stop offset="47.469%" stop-color="#EBF3FB"/>
            <stop offset="100%" stop-color="#B4CBE1"/>
        </linearGradient>
        <linearGradient id="prefix__E" x1="93.218%" x2="5.8%" y1="52.651%" y2="47.253%">
            <stop offset="0%" stop-color="#007CFF"/>
            <stop offset="100%" stop-color="#0072EA"/>
        </linearGradient>
        <linearGradient id="prefix__F" x1="0%" x2="98.556%" y1="50%" y2="50%">
            <stop offset="0%" stop-color="#F9FAFB"/>
            <stop offset="100%" stop-color="#F2F4F7"/>
        </linearGradient>
        <linearGradient id="prefix__U" x1="0%" x2="98.556%" y1="50%" y2="50%">
            <stop offset="0%" stop-color="#F9FAFB"/>
            <stop offset="100%" stop-color="#F2F4F7"/>
        </linearGradient>
        <linearGradient id="prefix__X" x1="88.422%" x2="0%" y1="50%" y2="50%">
            <stop offset="0%" stop-color="#00E47C"/>
            <stop offset="100%" stop-color="#5B57EF"/>
        </linearGradient>
        <linearGradient id="prefix__ad" x1="0%" x2="100%" y1="35.687%" y2="71.791%">
            <stop offset="0%" stop-color="#E7F1FB"/>
            <stop offset="100%" stop-color="#B3CBE0"/>
        </linearGradient>
    </defs>
    <g fill="none" fill-rule="evenodd">
        <g fill="#007CFF">
            <path d="M1179.415 43.939c-1.495 0-2.809-.578-3.953-1.36l-53.39 30.84c.012.103.069.204.069.318 0 2.888-1.744 5.357-4.236 6.455v62.246c1.925.85 3.284 2.549 3.862 4.61l53.276-30.772c-.317-.815-.52-1.665-.52-2.582 0-3.908 3.17-7.079 7.078-7.079.124 0 .226.068.35.068V43.418c-.792.306-1.63.52-2.536.52M1057.941 36.86c0 .329-.147.623-.192.952l52.89 30.522c1.212-.996 2.719-1.676 4.418-1.676 1.71 0 3.227.68 4.45 1.688l53.005-30.602c-.034-.306-.17-.578-.17-.884 0-2.174 1.03-4.054 2.582-5.357L1121.591.72c-1.075 2.537-3.59 4.338-6.534 4.338-2.775 0-5.12-1.631-6.275-3.964L1055.7 31.74c1.37 1.291 2.242 3.08 2.242 5.12M1107.983 73.736c0-.125.056-.227.067-.34l-53.298-30.783c-1.133.77-2.424 1.325-3.885 1.325-.951 0-1.846-.193-2.661-.544v61.86c.237-.022.441-.135.69-.135 3.908 0 7.079 3.171 7.079 7.079 0 1.438-.544 2.706-1.291 3.828l53.684 30.998c.566-2.061 1.948-3.76 3.873-4.61v-62.2c-2.503-1.076-4.258-3.568-4.258-6.478M760.134 43.223c-1.495 0-2.809-.577-3.953-1.359l-53.39 30.84c.012.102.069.204.069.317 0 2.888-1.744 5.357-4.236 6.456v62.246c1.925.85 3.285 2.548 3.862 4.61l53.276-30.773c-.317-.815-.52-1.664-.52-2.582 0-3.907 3.17-7.078 7.078-7.078.124 0 .226.068.35.068V42.702c-.792.306-1.63.521-2.536.521M638.66 36.145c0 .328-.147.623-.192.951l52.89 30.523c1.213-.997 2.719-1.676 4.418-1.676 1.71 0 3.228.68 4.45 1.687l53.005-30.602c-.034-.306-.17-.577-.17-.883 0-2.175 1.03-4.055 2.582-5.357L702.311.005c-1.076 2.536-3.59 4.337-6.535 4.337-2.775 0-5.12-1.63-6.275-3.964l-53.083 30.648c1.37 1.29 2.242 3.08 2.242 5.119M688.702 73.02c0-.125.056-.226.068-.34L635.47 41.897c-1.133.77-2.424 1.325-3.885 1.325-.951 0-1.846-.192-2.661-.543v61.86c.238-.022.441-.135.69-.135 3.908 0 7.08 3.17 7.08 7.078 0 1.438-.545 2.707-1.292 3.828l53.684 30.999c.566-2.062 1.948-3.76 3.873-4.61v-62.2c-2.503-1.077-4.258-3.568-4.258-6.479M1179.415 283.63c-1.495 0-2.809-.577-3.953-1.359l-53.39 30.84c.012.102.069.204.069.317 0 2.888-1.744 5.357-4.236 6.456v62.246c1.925.849 3.284 2.548 3.862 4.61l53.276-30.773c-.317-.815-.52-1.665-.52-2.582 0-3.907 3.17-7.079 7.078-7.079.124 0 .226.068.35.068V283.11c-.792.306-1.63.521-2.536.521M1057.941 276.552c0 .328-.147.622-.192.95l52.89 30.524c1.212-.997 2.719-1.677 4.418-1.677 1.71 0 3.227.68 4.45 1.688l53.005-30.602c-.034-.306-.17-.578-.17-.883 0-2.175 1.03-4.055 2.582-5.357l-53.333-30.784c-1.075 2.537-3.59 4.338-6.534 4.338-2.775 0-5.12-1.63-6.275-3.964l-53.083 30.647c1.37 1.291 2.242 3.08 2.242 5.12M1107.983 313.427c0-.125.056-.227.067-.34l-53.298-30.783c-1.133.77-2.424 1.325-3.885 1.325-.951 0-1.846-.193-2.661-.544v61.861c.237-.022.441-.136.69-.136 3.908 0 7.079 3.172 7.079 7.079 0 1.438-.544 2.707-1.291 3.828l53.684 30.998c.566-2.06 1.948-3.76 3.873-4.61v-62.2c-2.503-1.076-4.258-3.567-4.258-6.478M899.656 283.63c-1.495 0-2.81-.577-3.953-1.359l-53.39 30.84c.012.102.069.204.069.317 0 2.888-1.744 5.357-4.236 6.456v62.246c1.925.849 3.284 2.548 3.862 4.61l53.276-30.773c-.317-.815-.521-1.665-.521-2.582 0-3.907 3.171-7.079 7.079-7.079.124 0 .226.068.35.068V283.11c-.792.306-1.63.521-2.536.521M778.182 276.552c0 .328-.147.622-.192.95l52.89 30.524c1.212-.997 2.719-1.677 4.417-1.677 1.71 0 3.228.68 4.451 1.688l53.005-30.602c-.034-.306-.17-.578-.17-.883 0-2.175 1.03-4.055 2.582-5.357l-53.333-30.784c-1.076 2.537-3.59 4.338-6.535 4.338-2.774 0-5.119-1.63-6.274-3.964l-53.083 30.647c1.37 1.291 2.242 3.08 2.242 5.12M828.223 313.427c0-.125.057-.227.068-.34l-53.298-30.783c-1.133.77-2.424 1.325-3.885 1.325-.951 0-1.846-.193-2.662-.544v61.861c.238-.022.442-.136.691-.136 3.908 0 7.079 3.172 7.079 7.079 0 1.438-.544 2.707-1.291 3.828l53.684 30.998c.566-2.06 1.948-3.76 3.873-4.61v-62.2c-2.503-1.076-4.259-3.567-4.259-6.478M1039.893 282.915c-1.495 0-2.809-.578-3.953-1.36l-53.389 30.84c.011.102.068.204.068.317 0 2.889-1.744 5.358-4.236 6.456v62.246c1.926.85 3.285 2.548 3.862 4.61l53.276-30.772c-.317-.816-.52-1.665-.52-2.582 0-3.908 3.17-7.079 7.078-7.079.124 0 .226.068.35.068v-63.265c-.792.305-1.63.52-2.536.52M918.42 275.836c0 .329-.148.623-.193.951l52.89 30.523c1.213-.997 2.719-1.676 4.418-1.676 1.71 0 3.228.68 4.45 1.687l53.005-30.602c-.034-.305-.17-.577-.17-.883 0-2.174 1.03-4.055 2.582-5.357l-53.332-30.783c-1.076 2.537-3.59 4.338-6.535 4.338-2.775 0-5.12-1.631-6.275-3.964l-53.083 30.647c1.37 1.291 2.242 3.08 2.242 5.12M968.46 312.711c0-.124.057-.226.069-.34l-53.299-30.783c-1.133.77-2.424 1.325-3.885 1.325-.951 0-1.846-.192-2.661-.543v61.86c.238-.022.441-.135.69-.135 3.908 0 7.08 3.171 7.08 7.078 0 1.439-.544 2.707-1.292 3.828L968.846 386c.566-2.061 1.948-3.76 3.873-4.61v-62.2c-2.503-1.076-4.258-3.568-4.258-6.479M481.09 282.915c-1.495 0-2.808-.578-3.952-1.36l-53.39 30.84c.012.102.068.204.068.317 0 2.889-1.744 5.358-4.235 6.456v62.246c1.925.85 3.284 2.548 3.862 4.61l53.276-30.772c-.318-.816-.521-1.665-.521-2.582 0-3.908 3.17-7.079 7.078-7.079.125 0 .227.068.351.068v-63.265c-.793.305-1.63.52-2.537.52M359.617 275.836c0 .329-.148.623-.193.951l52.891 30.523c1.212-.997 2.718-1.676 4.417-1.676 1.71 0 3.228.68 4.451 1.687l53.004-30.602c-.034-.305-.17-.577-.17-.883 0-2.174 1.031-4.055 2.583-5.357l-53.333-30.783c-1.076 2.537-3.59 4.338-6.535 4.338-2.775 0-5.12-1.631-6.274-3.964l-53.084 30.647c1.37 1.291 2.243 3.08 2.243 5.12M409.658 312.711c0-.124.057-.226.068-.34l-53.299-30.783c-1.132.77-2.423 1.325-3.884 1.325-.952 0-1.846-.192-2.662-.543v61.86c.238-.022.442-.135.691-.135 3.907 0 7.079 3.171 7.079 7.078 0 1.439-.544 2.707-1.292 3.828L410.043 386c.566-2.061 1.948-3.76 3.874-4.61v-62.2c-2.503-1.076-4.259-3.568-4.259-6.479M760.134 282.915c-1.495 0-2.809-.578-3.953-1.36l-53.39 30.84c.012.102.069.204.069.317 0 2.889-1.744 5.358-4.236 6.456v62.246c1.925.85 3.285 2.548 3.862 4.61l53.276-30.772c-.317-.816-.52-1.665-.52-2.582 0-3.908 3.17-7.079 7.078-7.079.124 0 .226.068.35.068v-63.265c-.792.305-1.63.52-2.536.52M638.66 275.836c0 .329-.147.623-.192.951l52.89 30.523c1.213-.997 2.719-1.676 4.418-1.676 1.71 0 3.228.68 4.45 1.687l53.005-30.602c-.034-.305-.17-.577-.17-.883 0-2.174 1.03-4.055 2.582-5.357l-53.332-30.783c-1.076 2.537-3.59 4.338-6.535 4.338-2.775 0-5.12-1.631-6.275-3.964l-53.083 30.647c1.37 1.291 2.242 3.08 2.242 5.12M688.702 312.711c0-.124.056-.226.068-.34l-53.299-30.783c-1.133.77-2.424 1.325-3.885 1.325-.951 0-1.846-.192-2.661-.543v61.86c.238-.022.441-.135.69-.135 3.908 0 7.08 3.171 7.08 7.078 0 1.439-.545 2.707-1.292 3.828L689.087 386c.566-2.061 1.948-3.76 3.873-4.61v-62.2c-2.503-1.076-4.258-3.568-4.258-6.479M1179.415 524.752c-1.495 0-2.809-.577-3.953-1.359l-53.39 30.84c.012.102.069.204.069.317 0 2.888-1.744 5.357-4.236 6.456v62.246c1.925.85 3.284 2.548 3.862 4.61l53.276-30.772c-.317-.816-.52-1.665-.52-2.583 0-3.907 3.17-7.078 7.078-7.078.124 0 .226.068.35.068V524.23c-.792.306-1.63.521-2.536.521M1057.941 517.674c0 .328-.147.623-.192.951l52.89 30.523c1.212-.997 2.719-1.676 4.418-1.676 1.71 0 3.227.68 4.45 1.687l53.005-30.602c-.034-.306-.17-.577-.17-.883 0-2.175 1.03-4.055 2.582-5.357l-53.333-30.783c-1.075 2.537-3.59 4.337-6.534 4.337-2.775 0-5.12-1.63-6.275-3.964l-53.083 30.648c1.37 1.29 2.242 3.08 2.242 5.119M1107.983 554.55c0-.125.056-.227.067-.34l-53.298-30.784c-1.133.77-2.424 1.325-3.885 1.325-.951 0-1.846-.192-2.661-.543v61.86c.237-.022.441-.135.69-.135 3.908 0 7.079 3.17 7.079 7.078 0 1.439-.544 2.707-1.291 3.828l53.684 30.999c.566-2.062 1.948-3.76 3.873-4.61v-62.2c-2.503-1.077-4.258-3.568-4.258-6.479M620.612 524.752c-1.495 0-2.809-.577-3.953-1.359l-53.389 30.84c.011.102.068.204.068.317 0 2.888-1.744 5.357-4.236 6.456v62.246c1.926.85 3.285 2.548 3.862 4.61l53.276-30.772c-.317-.816-.52-1.665-.52-2.583 0-3.907 3.17-7.078 7.078-7.078.125 0 .226.068.351.068V524.23c-.793.306-1.63.521-2.537.521M499.138 517.674c0 .328-.147.623-.192.951l52.89 30.523c1.213-.997 2.719-1.676 4.418-1.676 1.71 0 3.228.68 4.45 1.687l53.005-30.602c-.034-.306-.17-.577-.17-.883 0-2.175 1.03-4.055 2.582-5.357l-53.332-30.783c-1.076 2.537-3.59 4.337-6.535 4.337-2.775 0-5.12-1.63-6.275-3.964l-53.083 30.648c1.37 1.29 2.242 3.08 2.242 5.119M549.18 554.55c0-.125.056-.227.068-.34l-53.299-30.784c-1.132.77-2.424 1.325-3.885 1.325-.95 0-1.846-.192-2.661-.543v61.86c.238-.022.442-.135.69-.135 3.908 0 7.08 3.17 7.08 7.078 0 1.439-.544 2.707-1.292 3.828l53.684 30.999c.566-2.062 1.948-3.76 3.873-4.61v-62.2c-2.503-1.077-4.258-3.568-4.258-6.479M899.656 524.752c-1.495 0-2.81-.577-3.953-1.359l-53.39 30.84c.012.102.069.204.069.317 0 2.888-1.744 5.357-4.236 6.456v62.246c1.925.85 3.284 2.548 3.862 4.61l53.276-30.772c-.317-.816-.521-1.665-.521-2.583 0-3.907 3.171-7.078 7.079-7.078.124 0 .226.068.35.068V524.23c-.792.306-1.63.521-2.536.521M778.182 517.674c0 .328-.147.623-.192.951l52.89 30.523c1.212-.997 2.719-1.676 4.417-1.676 1.71 0 3.228.68 4.451 1.687l53.005-30.602c-.034-.306-.17-.577-.17-.883 0-2.175 1.03-4.055 2.582-5.357l-53.333-30.783c-1.076 2.537-3.59 4.337-6.535 4.337-2.774 0-5.119-1.63-6.274-3.964l-53.083 30.648c1.37 1.29 2.242 3.08 2.242 5.119M828.223 554.55c0-.125.057-.227.068-.34l-53.298-30.784c-1.133.77-2.424 1.325-3.885 1.325-.951 0-1.846-.192-2.662-.543v61.86c.238-.022.442-.135.691-.135 3.908 0 7.079 3.17 7.079 7.078 0 1.439-.544 2.707-1.291 3.828l53.684 30.999c.566-2.062 1.948-3.76 3.873-4.61v-62.2c-2.503-1.077-4.259-3.568-4.259-6.479M340.853 524.752c-1.495 0-2.809-.577-3.953-1.359l-53.389 30.84c.011.102.068.204.068.317 0 2.888-1.744 5.357-4.236 6.456v62.246c1.926.85 3.285 2.548 3.862 4.61l53.276-30.772c-.317-.816-.52-1.665-.52-2.583 0-3.907 3.17-7.078 7.078-7.078.124 0 .226.068.351.068V524.23c-.793.306-1.63.521-2.537.521M219.38 517.674c0 .328-.148.623-.193.951l52.89 30.523c1.213-.997 2.719-1.676 4.418-1.676 1.71 0 3.228.68 4.45 1.687l53.005-30.602c-.034-.306-.17-.577-.17-.883 0-2.175 1.03-4.055 2.582-5.357l-53.332-30.783c-1.076 2.537-3.59 4.337-6.535 4.337-2.775 0-5.12-1.63-6.275-3.964l-53.083 30.648c1.37 1.29 2.242 3.08 2.242 5.119M269.42 554.55c0-.125.057-.227.069-.34l-53.299-30.784c-1.132.77-2.424 1.325-3.885 1.325-.951 0-1.846-.192-2.661-.543v61.86c.238-.022.442-.135.69-.135 3.908 0 7.08 3.17 7.08 7.078 0 1.439-.544 2.707-1.292 3.828l53.684 30.999c.566-2.062 1.948-3.76 3.873-4.61v-62.2c-2.503-1.077-4.258-3.568-4.258-6.479M1039.893 524.037c-1.495 0-2.809-.578-3.953-1.36l-53.389 30.84c.011.103.068.205.068.318 0 2.888-1.744 5.357-4.236 6.455v62.246c1.926.85 3.285 2.549 3.862 4.61l53.276-30.772c-.317-.815-.52-1.665-.52-2.582 0-3.908 3.17-7.079 7.078-7.079.124 0 .226.068.35.068v-63.265c-.792.306-1.63.52-2.536.52M918.42 516.958c0 .329-.148.623-.193.952l52.89 30.522c1.213-.996 2.719-1.676 4.418-1.676 1.71 0 3.228.68 4.45 1.688l53.005-30.602c-.034-.306-.17-.578-.17-.884 0-2.174 1.03-4.054 2.582-5.357l-53.332-30.783c-1.076 2.537-3.59 4.338-6.535 4.338-2.775 0-5.12-1.631-6.275-3.964l-53.083 30.647c1.37 1.291 2.242 3.08 2.242 5.12M968.46 553.834c0-.125.057-.227.069-.34L915.23 522.71c-1.133.77-2.424 1.325-3.885 1.325-.951 0-1.846-.193-2.661-.544v61.861c.238-.023.441-.136.69-.136 3.908 0 7.08 3.171 7.08 7.079 0 1.438-.544 2.706-1.292 3.828l53.684 30.998c.566-2.061 1.948-3.76 3.873-4.61v-62.2c-2.503-1.076-4.258-3.568-4.258-6.478M481.09 524.037c-1.495 0-2.808-.578-3.952-1.36l-53.39 30.84c.012.103.068.205.068.318 0 2.888-1.744 5.357-4.235 6.455v62.246c1.925.85 3.284 2.549 3.862 4.61l53.276-30.772c-.318-.815-.521-1.665-.521-2.582 0-3.908 3.17-7.079 7.078-7.079.125 0 .227.068.351.068v-63.265c-.793.306-1.63.52-2.537.52M359.617 516.958c0 .329-.148.623-.193.952l52.891 30.522c1.212-.996 2.718-1.676 4.417-1.676 1.71 0 3.228.68 4.451 1.688l53.004-30.602c-.034-.306-.17-.578-.17-.884 0-2.174 1.031-4.054 2.583-5.357l-53.333-30.783c-1.076 2.537-3.59 4.338-6.535 4.338-2.775 0-5.12-1.631-6.274-3.964l-53.084 30.647c1.37 1.291 2.243 3.08 2.243 5.12M409.658 553.834c0-.125.057-.227.068-.34l-53.299-30.783c-1.132.77-2.423 1.325-3.884 1.325-.952 0-1.846-.193-2.662-.544v61.861c.238-.023.442-.136.691-.136 3.907 0 7.079 3.171 7.079 7.079 0 1.438-.544 2.706-1.292 3.828l53.684 30.998c.566-2.061 1.948-3.76 3.874-4.61v-62.2c-2.503-1.076-4.259-3.568-4.259-6.478M760.134 524.037c-1.495 0-2.809-.578-3.953-1.36l-53.39 30.84c.012.103.069.205.069.318 0 2.888-1.744 5.357-4.236 6.455v62.246c1.925.85 3.285 2.549 3.862 4.61l53.276-30.772c-.317-.815-.52-1.665-.52-2.582 0-3.908 3.17-7.079 7.078-7.079.124 0 .226.068.35.068v-63.265c-.792.306-1.63.52-2.536.52M638.66 516.958c0 .329-.147.623-.192.952l52.89 30.522c1.213-.996 2.719-1.676 4.418-1.676 1.71 0 3.228.68 4.45 1.688l53.005-30.602c-.034-.306-.17-.578-.17-.884 0-2.174 1.03-4.054 2.582-5.357l-53.332-30.783c-1.076 2.537-3.59 4.338-6.535 4.338-2.775 0-5.12-1.631-6.275-3.964l-53.083 30.647c1.37 1.291 2.242 3.08 2.242 5.12M688.702 553.834c0-.125.056-.227.068-.34L635.47 522.71c-1.133.77-2.424 1.325-3.885 1.325-.951 0-1.846-.193-2.661-.544v61.861c.238-.023.441-.136.69-.136 3.908 0 7.08 3.171 7.08 7.079 0 1.438-.545 2.706-1.292 3.828l53.684 30.998c.566-2.061 1.948-3.76 3.873-4.61v-62.2c-2.503-1.076-4.258-3.568-4.258-6.478M201.331 524.037c-1.495 0-2.809-.578-3.952-1.36l-53.39 30.84c.012.103.068.205.068.318 0 2.888-1.744 5.357-4.236 6.455v62.246c1.926.85 3.285 2.549 3.862 4.61l53.276-30.772c-.317-.815-.52-1.665-.52-2.582 0-3.908 3.17-7.079 7.078-7.079.125 0 .227.068.351.068v-63.265c-.793.306-1.63.52-2.537.52M79.858 516.958c0 .329-.148.623-.193.952l52.891 30.522c1.212-.996 2.718-1.676 4.417-1.676 1.71 0 3.228.68 4.451 1.688l53.004-30.602c-.034-.306-.17-.578-.17-.884 0-2.174 1.031-4.054 2.583-5.357l-53.333-30.783c-1.076 2.537-3.59 4.338-6.535 4.338-2.775 0-5.12-1.631-6.274-3.964l-53.084 30.647c1.37 1.291 2.243 3.08 2.243 5.12M129.899 553.834c0-.125.057-.227.068-.34L76.668 522.71c-1.132.77-2.423 1.325-3.884 1.325-.952 0-1.847-.193-2.662-.544v61.861c.238-.023.442-.136.69-.136 3.908 0 7.08 3.171 7.08 7.079 0 1.438-.544 2.706-1.292 3.828l53.684 30.998c.566-2.061 1.948-3.76 3.873-4.61v-62.2c-2.503-1.076-4.258-3.568-4.258-6.478M1109.296 163.427c-1.495 0-2.809-.578-3.953-1.36l-53.389 30.84c.012.102.068.204.068.318 0 2.888-1.744 5.357-4.236 6.455v62.246c1.926.85 3.285 2.548 3.862 4.61l53.276-30.772c-.317-.816-.52-1.665-.52-2.582 0-3.908 3.17-7.079 7.078-7.079.125 0 .226.068.351.068v-63.265c-.793.306-1.63.52-2.537.52M987.822 156.348c0 .329-.147.623-.192.952l52.89 30.522c1.213-.996 2.72-1.676 4.418-1.676 1.71 0 3.228.68 4.45 1.688l53.005-30.602c-.034-.306-.17-.578-.17-.884 0-2.174 1.03-4.054 2.582-5.357l-53.332-30.783c-1.076 2.537-3.59 4.338-6.535 4.338-2.775 0-5.12-1.631-6.275-3.964l-53.083 30.647c1.37 1.291 2.242 3.08 2.242 5.12M1037.864 193.223c0-.124.057-.226.068-.34L984.633 162.1c-1.132.77-2.424 1.326-3.885 1.326-.95 0-1.846-.193-2.661-.544v61.86c.238-.022.442-.135.69-.135 3.908 0 7.08 3.171 7.08 7.078 0 1.439-.544 2.707-1.292 3.829l53.684 30.998c.566-2.061 1.948-3.76 3.873-4.61v-62.2c-2.503-1.076-4.258-3.568-4.258-6.479M550.493 163.427c-1.495 0-2.808-.578-3.952-1.36l-53.39 30.84c.012.102.068.204.068.318 0 2.888-1.744 5.357-4.235 6.455v62.246c1.925.85 3.284 2.548 3.862 4.61l53.276-30.772c-.317-.816-.521-1.665-.521-2.582 0-3.908 3.17-7.079 7.078-7.079.125 0 .227.068.351.068v-63.265c-.792.306-1.63.52-2.537.52M429.02 156.348c0 .329-.147.623-.193.952l52.891 30.522c1.212-.996 2.718-1.676 4.417-1.676 1.71 0 3.228.68 4.451 1.688l53.004-30.602c-.034-.306-.17-.578-.17-.884 0-2.174 1.031-4.054 2.583-5.357l-53.333-30.783c-1.076 2.537-3.59 4.338-6.535 4.338-2.775 0-5.119-1.631-6.274-3.964l-53.084 30.647c1.37 1.291 2.243 3.08 2.243 5.12M479.061 193.223c0-.124.057-.226.068-.34L425.831 162.1c-1.133.77-2.424 1.326-3.885 1.326-.952 0-1.846-.193-2.662-.544v61.86c.238-.022.442-.135.691-.135 3.907 0 7.079 3.171 7.079 7.078 0 1.439-.544 2.707-1.291 3.829l53.683 30.998c.567-2.061 1.948-3.76 3.874-4.61v-62.2c-2.503-1.076-4.259-3.568-4.259-6.479M829.537 163.427c-1.495 0-2.809-.578-3.953-1.36l-53.389 30.84c.011.102.068.204.068.318 0 2.888-1.744 5.357-4.236 6.455v62.246c1.926.85 3.285 2.548 3.862 4.61l53.276-30.772c-.317-.816-.52-1.665-.52-2.582 0-3.908 3.17-7.079 7.078-7.079.124 0 .226.068.351.068v-63.265c-.793.306-1.63.52-2.537.52M708.063 156.348c0 .329-.147.623-.192.952l52.89 30.522c1.213-.996 2.719-1.676 4.418-1.676 1.71 0 3.228.68 4.45 1.688l53.005-30.602c-.034-.306-.17-.578-.17-.884 0-2.174 1.03-4.054 2.582-5.357l-53.332-30.783c-1.076 2.537-3.59 4.338-6.535 4.338-2.775 0-5.12-1.631-6.275-3.964l-53.083 30.647c1.37 1.291 2.242 3.08 2.242 5.12M758.105 193.223c0-.124.056-.226.068-.34L704.874 162.1c-1.132.77-2.424 1.326-3.885 1.326-.951 0-1.846-.193-2.661-.544v61.86c.238-.022.442-.135.69-.135 3.908 0 7.08 3.171 7.08 7.078 0 1.439-.544 2.707-1.292 3.829l53.684 30.998c.566-2.061 1.948-3.76 3.873-4.61v-62.2c-2.503-1.076-4.258-3.568-4.258-6.479M690.015 162.711c-1.495 0-2.809-.577-3.952-1.359l-53.39 30.84c.012.102.068.204.068.317 0 2.888-1.744 5.357-4.236 6.456v62.246c1.926.85 3.285 2.548 3.863 4.61l53.276-30.773c-.318-.815-.521-1.665-.521-2.582 0-3.907 3.17-7.078 7.078-7.078.125 0 .227.068.351.068V162.19c-.793.306-1.63.521-2.537.521M568.542 155.633c0 .328-.148.623-.193.951l52.891 30.523c1.212-.997 2.718-1.676 4.417-1.676 1.71 0 3.228.68 4.451 1.687l53.004-30.602c-.034-.306-.17-.578-.17-.883 0-2.175 1.031-4.055 2.583-5.357l-53.333-30.784c-1.076 2.537-3.59 4.338-6.535 4.338-2.775 0-5.12-1.63-6.274-3.964l-53.084 30.647c1.37 1.292 2.243 3.081 2.243 5.12M618.583 192.508c0-.125.057-.227.068-.34l-53.299-30.783c-1.132.77-2.423 1.325-3.884 1.325-.952 0-1.846-.192-2.662-.544v61.861c.238-.022.442-.136.69-.136 3.908 0 7.08 3.172 7.08 7.079 0 1.438-.544 2.707-1.292 3.828l53.684 30.998c.566-2.06 1.948-3.76 3.873-4.61v-62.2c-2.503-1.076-4.258-3.567-4.258-6.478M131.213 162.711c-1.495 0-2.81-.577-3.953-1.359l-53.39 30.84c.012.102.069.204.069.317 0 2.888-1.745 5.357-4.236 6.456v62.246c1.925.85 3.284 2.548 3.862 4.61l53.276-30.773c-.317-.815-.521-1.665-.521-2.582 0-3.907 3.171-7.078 7.078-7.078.125 0 .227.068.352.068V162.19c-.793.306-1.631.521-2.537.521M9.739 155.633c0 .328-.147.623-.193.951l52.891 30.523c1.212-.997 2.719-1.676 4.417-1.676 1.71 0 3.228.68 4.451 1.687l53.005-30.602c-.034-.306-.17-.578-.17-.883 0-2.175 1.03-4.055 2.582-5.357l-53.333-30.784c-1.076 2.537-3.59 4.338-6.535 4.338-2.774 0-5.119-1.63-6.274-3.964L7.496 150.513c1.37 1.292 2.243 3.081 2.243 5.12M59.78 192.508c0-.125.057-.227.068-.34L6.55 161.385c-1.133.77-2.424 1.325-3.885 1.325-.951 0-1.846-.192-2.662-.544v61.861c.238-.022.442-.136.691-.136 3.908 0 7.079 3.172 7.079 7.079 0 1.438-.544 2.707-1.291 3.828l53.683 30.998c.567-2.06 1.948-3.76 3.874-4.61v-62.2c-2.503-1.076-4.259-3.567-4.259-6.478M1109.296 403.834c-1.495 0-2.809-.578-3.953-1.36l-53.389 30.84c.012.102.068.204.068.317 0 2.888-1.744 5.357-4.236 6.456v62.246c1.926.85 3.285 2.548 3.862 4.61l53.276-30.772c-.317-.816-.52-1.665-.52-2.583 0-3.907 3.17-7.078 7.078-7.078.125 0 .226.068.351.068v-63.265c-.793.305-1.63.52-2.537.52M987.822 396.755c0 .328-.147.623-.192.951l52.89 30.523c1.213-.997 2.72-1.676 4.418-1.676 1.71 0 3.228.68 4.45 1.687l53.005-30.602c-.034-.305-.17-.577-.17-.883 0-2.175 1.03-4.055 2.582-5.357l-53.332-30.783c-1.076 2.537-3.59 4.337-6.535 4.337-2.775 0-5.12-1.63-6.275-3.964l-53.083 30.648c1.37 1.29 2.242 3.08 2.242 5.119M1037.864 433.63c0-.124.057-.226.068-.34l-53.299-30.783c-1.132.77-2.424 1.325-3.885 1.325-.95 0-1.846-.192-2.661-.543v61.86c.238-.022.442-.135.69-.135 3.908 0 7.08 3.17 7.08 7.078 0 1.439-.544 2.707-1.292 3.828l53.684 30.999c.566-2.062 1.948-3.76 3.873-4.61v-62.2c-2.503-1.076-4.258-3.568-4.258-6.479M550.493 403.834c-1.495 0-2.808-.578-3.952-1.36l-53.39 30.84c.012.102.068.204.068.317 0 2.888-1.744 5.357-4.235 6.456v62.246c1.925.85 3.284 2.548 3.862 4.61l53.276-30.772c-.317-.816-.521-1.665-.521-2.583 0-3.907 3.17-7.078 7.078-7.078.125 0 .227.068.351.068v-63.265c-.792.305-1.63.52-2.537.52M429.02 396.755c0 .328-.147.623-.193.951l52.891 30.523c1.212-.997 2.718-1.676 4.417-1.676 1.71 0 3.228.68 4.451 1.687l53.004-30.602c-.034-.305-.17-.577-.17-.883 0-2.175 1.031-4.055 2.583-5.357l-53.333-30.783c-1.076 2.537-3.59 4.337-6.535 4.337-2.775 0-5.119-1.63-6.274-3.964l-53.084 30.648c1.37 1.29 2.243 3.08 2.243 5.119M479.061 433.63c0-.124.057-.226.068-.34l-53.298-30.783c-1.133.77-2.424 1.325-3.885 1.325-.952 0-1.846-.192-2.662-.543v61.86c.238-.022.442-.135.691-.135 3.907 0 7.079 3.17 7.079 7.078 0 1.439-.544 2.707-1.291 3.828l53.683 30.999c.567-2.062 1.948-3.76 3.874-4.61v-62.2c-2.503-1.076-4.259-3.568-4.259-6.479M829.537 403.834c-1.495 0-2.809-.578-3.953-1.36l-53.389 30.84c.011.102.068.204.068.317 0 2.888-1.744 5.357-4.236 6.456v62.246c1.926.85 3.285 2.548 3.862 4.61l53.276-30.772c-.317-.816-.52-1.665-.52-2.583 0-3.907 3.17-7.078 7.078-7.078.124 0 .226.068.351.068v-63.265c-.793.305-1.63.52-2.537.52M708.063 396.755c0 .328-.147.623-.192.951l52.89 30.523c1.213-.997 2.719-1.676 4.418-1.676 1.71 0 3.228.68 4.45 1.687l53.005-30.602c-.034-.305-.17-.577-.17-.883 0-2.175 1.03-4.055 2.582-5.357l-53.332-30.783c-1.076 2.537-3.59 4.337-6.535 4.337-2.775 0-5.12-1.63-6.275-3.964l-53.083 30.648c1.37 1.29 2.242 3.08 2.242 5.119M758.105 433.63c0-.124.056-.226.068-.34l-53.299-30.783c-1.132.77-2.424 1.325-3.885 1.325-.951 0-1.846-.192-2.661-.543v61.86c.238-.022.442-.135.69-.135 3.908 0 7.08 3.17 7.08 7.078 0 1.439-.544 2.707-1.292 3.828l53.684 30.999c.566-2.062 1.948-3.76 3.873-4.61v-62.2c-2.503-1.076-4.258-3.568-4.258-6.479M969.774 403.118c-1.495 0-2.808-.578-3.952-1.36l-53.39 30.84c.012.103.068.205.068.318 0 2.888-1.744 5.357-4.235 6.456v62.245c1.925.85 3.284 2.549 3.862 4.61l53.276-30.772c-.318-.815-.521-1.665-.521-2.582 0-3.907 3.17-7.079 7.078-7.079.125 0 .227.068.351.068v-63.265c-.793.306-1.63.521-2.537.521M848.3 396.04c0 .328-.147.622-.192.95L901 427.515c1.212-.997 2.718-1.677 4.417-1.677 1.71 0 3.228.68 4.451 1.688l53.004-30.602c-.034-.306-.17-.578-.17-.884 0-2.174 1.031-4.054 2.583-5.357L911.95 359.9c-1.076 2.537-3.59 4.338-6.535 4.338-2.775 0-5.12-1.631-6.274-3.964l-53.084 30.647c1.37 1.291 2.243 3.08 2.243 5.12M898.342 432.915c0-.125.057-.227.068-.34l-53.299-30.783c-1.132.77-2.423 1.325-3.884 1.325-.952 0-1.846-.193-2.662-.544v61.861c.238-.023.442-.136.691-.136 3.907 0 7.079 3.171 7.079 7.079 0 1.438-.544 2.707-1.292 3.828l53.684 30.998c.566-2.061 1.948-3.76 3.874-4.61v-62.2c-2.503-1.076-4.259-3.568-4.259-6.478M410.972 403.118c-1.495 0-2.81-.578-3.953-1.36l-53.39 30.84c.012.103.069.205.069.318 0 2.888-1.744 5.357-4.236 6.456v62.245c1.925.85 3.284 2.549 3.862 4.61l53.276-30.772c-.317-.815-.521-1.665-.521-2.582 0-3.907 3.171-7.079 7.079-7.079.124 0 .226.068.35.068v-63.265c-.792.306-1.63.521-2.536.521M289.498 396.04c0 .328-.147.622-.193.95l52.891 30.524c1.212-.997 2.719-1.677 4.417-1.677 1.71 0 3.228.68 4.451 1.688l53.005-30.602c-.034-.306-.17-.578-.17-.884 0-2.174 1.03-4.054 2.582-5.357L353.148 359.9c-1.076 2.537-3.59 4.338-6.535 4.338-2.774 0-5.119-1.631-6.274-3.964l-53.083 30.647c1.37 1.291 2.242 3.08 2.242 5.12M339.54 432.915c0-.125.056-.227.067-.34l-53.298-30.783c-1.133.77-2.424 1.325-3.885 1.325-.951 0-1.846-.193-2.662-.544v61.861c.238-.023.442-.136.691-.136 3.908 0 7.079 3.171 7.079 7.079 0 1.438-.544 2.707-1.291 3.828l53.684 30.998c.566-2.061 1.948-3.76 3.873-4.61v-62.2c-2.503-1.076-4.259-3.568-4.259-6.478M690.015 403.118c-1.495 0-2.809-.578-3.952-1.36l-53.39 30.84c.012.103.068.205.068.318 0 2.888-1.744 5.357-4.236 6.456v62.245c1.926.85 3.285 2.549 3.863 4.61l53.276-30.772c-.318-.815-.521-1.665-.521-2.582 0-3.907 3.17-7.079 7.078-7.079.125 0 .227.068.351.068v-63.265c-.793.306-1.63.521-2.537.521M568.542 396.04c0 .328-.148.622-.193.95l52.891 30.524c1.212-.997 2.718-1.677 4.417-1.677 1.71 0 3.228.68 4.451 1.688l53.004-30.602c-.034-.306-.17-.578-.17-.884 0-2.174 1.031-4.054 2.583-5.357L632.192 359.9c-1.076 2.537-3.59 4.338-6.535 4.338-2.775 0-5.12-1.631-6.274-3.964l-53.084 30.647c1.37 1.291 2.243 3.08 2.243 5.12M618.583 432.915c0-.125.057-.227.068-.34l-53.299-30.783c-1.132.77-2.423 1.325-3.884 1.325-.952 0-1.846-.193-2.662-.544v61.861c.238-.023.442-.136.69-.136 3.908 0 7.08 3.171 7.08 7.079 0 1.438-.544 2.707-1.292 3.828l53.684 30.998c.566-2.061 1.948-3.76 3.873-4.61v-62.2c-2.503-1.076-4.258-3.568-4.258-6.478M131.213 403.118c-1.495 0-2.81-.578-3.953-1.36l-53.39 30.84c.012.103.069.205.069.318 0 2.888-1.745 5.357-4.236 6.456v62.245c1.925.85 3.284 2.549 3.862 4.61l53.276-30.772c-.317-.815-.521-1.665-.521-2.582 0-3.907 3.171-7.079 7.078-7.079.125 0 .227.068.352.068v-63.265c-.793.306-1.631.521-2.537.521M9.739 396.04c0 .328-.147.622-.193.95l52.891 30.524c1.212-.997 2.719-1.677 4.417-1.677 1.71 0 3.228.68 4.451 1.688l53.005-30.602c-.034-.306-.17-.578-.17-.884 0-2.174 1.03-4.054 2.582-5.357L73.389 359.9c-1.076 2.537-3.59 4.338-6.535 4.338-2.774 0-5.119-1.631-6.274-3.964L7.496 390.92c1.37 1.291 2.243 3.08 2.243 5.12M59.78 432.915c0-.125.057-.227.068-.34L6.55 401.792c-1.133.77-2.424 1.325-3.885 1.325-.951 0-1.846-.193-2.662-.544v61.861c.238-.023.442-.136.691-.136 3.908 0 7.079 3.171 7.079 7.079 0 1.438-.544 2.707-1.291 3.828l53.683 30.998c.567-2.061 1.948-3.76 3.874-4.61v-62.2c-2.503-1.076-4.259-3.568-4.259-6.478"/>
        </g>
        <g>
            <path fill="#E8F2FB" d="M107 47h684v514H87V67c0-11.046 8.954-20 20-20z" transform="translate(378 103)"/>
            <path fill="url(#prefix__a)" d="M107 57h684v40H107c-5.523 0-10-4.477-10-10V67c0-5.523 4.477-10 10-10z" transform="translate(378 103)"/>
            <g transform="translate(378 103) translate(0 140)">
                <use fill="#000" filter="url(#prefix__b)" xlink:href="#prefix__c"/>
                <use fill="#F2F6F9" fill-opacity=".8" xlink:href="#prefix__c"/>
                <g transform="translate(306 330)">
                    <use fill="#000" filter="url(#prefix__d)" xlink:href="#prefix__e"/>
                    <use fill="#F2F6F9" fill-opacity=".8" xlink:href="#prefix__e"/>
                    <use fill="#000" filter="url(#prefix__f)" xlink:href="#prefix__g"/>
                    <use fill="url(#prefix__h)" fill-opacity=".7" xlink:href="#prefix__g"/>
                    <path fill="#B7CDDE" d="M143.38 94.7c-7.164-1.654-13.835-3.101-10.603-9.204C142.61 66.93 135.383 57 125 57c-10.587 0-17.633 10.313-7.775 28.496 3.327 6.136-3.594 7.588-10.604 9.205-6.402 1.479-6.642 4.658-6.621 10.217l.008 2.083h49.98l.009-2.017c.025-5.602-.192-8.798-6.617-10.283"/>
                </g>
                <g transform="translate(40 40)">
                    <use fill="#000" filter="url(#prefix__i)" xlink:href="#prefix__j"/>
                    <use fill="url(#prefix__h)" xlink:href="#prefix__j"/>
                    <g>
                        <path fill="#B5CBDE" d="M19.315 30L0.116 41.085 19.196 52.095 38.388 41.018z" filter="url(#prefix__k)" transform="translate(45 22)"/>
                        <path fill="url(#prefix__l)" d="M19.195 22.096L19.195 44.121 38.39 33.04 38.39 11.015z" transform="translate(45 22)"/>
                        <path fill="url(#prefix__m)" d="M0 33.039L19.195 44.124 19.195 22.096 0 11.018z" transform="translate(45 22)"/>
                        <path fill="#FFF" d="M19.315 0L0.116 11.085 19.196 22.095 38.388 11.018z" transform="translate(45 22)"/>
                    </g>
                    <path fill="#DAE5EF" d="M15 85L115 85 115 95 15 95zM15 105L86 105 86 115 15 115z"/>
                </g>
                <g transform="translate(40 200)">
                    <use fill="#000" filter="url(#prefix__n)" xlink:href="#prefix__o"/>
                    <use fill="url(#prefix__h)" xlink:href="#prefix__o"/>
                    <g>
                        <path fill="#B5CBDE" d="M0.15 34.865L23.874 48.566 47.752 34.777 24.027 21.081z" filter="url(#prefix__p)" transform="translate(40 18)"/>
                        <path fill="url(#prefix__q)" d="M23.876 39.292L47.754 25.508 23.881 0.001z" transform="translate(40 18)"/>
                        <path fill="url(#prefix__r)" d="M23.872 0.001L-0.001 25.508 23.876 39.292 23.876 0.001z" transform="translate(40 18)"/>
                    </g>
                    <path fill="#DAE5EF" d="M15 85L115 85 115 95 15 95zM15 105L86 105 86 115 15 115z"/>
                </g>
                <g opacity=".4" transform="translate(200 40)">
                    <use fill="#000" filter="url(#prefix__s)" xlink:href="#prefix__t"/>
                    <use fill="url(#prefix__h)" xlink:href="#prefix__t"/>
                    <g>
                        <path fill="#B5CBDE" d="M4.99 33.65c6.682-3.859 17.552-3.84 24.277.044 3.363 1.941 5.053 4.482 5.066 7.017.014 2.537-1.65 5.069-4.99 7-6.684 3.858-17.552 3.838-24.277-.045C1.708 45.726.018 43.193 0 40.66c-.019-2.54 1.644-5.078 4.99-7.01" filter="url(#prefix__u)" transform="translate(48 21)"/>
                        <path fill="#FFF" d="M4.99 3.65c6.682-3.859 17.552-3.84 24.277.044 3.363 1.941 5.053 4.482 5.066 7.017.014 2.537-1.65 5.069-4.99 7-6.684 3.858-17.552 3.838-24.277-.045C1.708 15.726.018 13.193 0 10.66c-.019-2.54 1.644-5.078 4.99-7.01" transform="translate(48 21)"/>
                        <path fill="url(#prefix__v)" d="M0 10.66c.018 2.533 1.707 5.067 5.065 7.006 6.727 3.883 17.595 3.903 24.278.044 3.342-1.928 5.003-4.462 4.99-7v23c.013 2.538-1.648 5.072-4.99 7-6.683 3.859-17.551 3.84-24.278-.044C1.707 38.726.018 36.193 0 33.66v-23z" transform="translate(48 21)"/>
                    </g>
                    <path fill="#DAE5EF" d="M15 85L115 85 115 95 15 95zM15 105L86 105 86 115 15 115z"/>
                </g>
                <g opacity=".4" transform="translate(200 200)">
                    <use fill="#000" filter="url(#prefix__w)" xlink:href="#prefix__x"/>
                    <use fill="url(#prefix__h)" xlink:href="#prefix__x"/>
                    <g transform="translate(46 22)">
                        <path fill="#B5CBDE" d="M6.99 24.65c6.682-3.859 17.552-3.84 24.277.044 3.363 1.941 5.053 4.482 5.066 7.017.014 2.537-1.65 5.069-4.99 7-6.684 3.858-17.552 3.838-24.277-.045C3.708 36.726 2.018 34.193 2 31.66c-.019-2.54 1.644-5.078 4.99-7.01" filter="url(#prefix__y)"/>
                        <circle cx="19" cy="19" r="19" fill="url(#prefix__z)"/>
                    </g>
                    <path fill="#DAE5EF" d="M15 85L115 85 115 95 15 95zM15 105L86 105 86 115 15 115z"/>
                </g>
            </g>
            <g transform="translate(378 103) translate(268)">
                <use fill="#000" filter="url(#prefix__A)" xlink:href="#prefix__B"/>
                <use fill="#F2F6F9" fill-opacity=".8" xlink:href="#prefix__B"/>
                <use fill="#000" filter="url(#prefix__C)" xlink:href="#prefix__D"/>
                <use fill="url(#prefix__E)" xlink:href="#prefix__D"/>
                <use fill="url(#prefix__F)" xlink:href="#prefix__G"/>
                <use fill="#000" filter="url(#prefix__H)" xlink:href="#prefix__G"/>
                <use fill="url(#prefix__F)" xlink:href="#prefix__I"/>
                <use fill="#000" filter="url(#prefix__J)" xlink:href="#prefix__I"/>
                <path fill="#DAE5EF" d="M38 180L138 180 138 190 38 190zM38 268L138 268 138 278 38 278z"/>
                <path fill="#FFF" opacity=".4" style="mix-blend-mode:overlay" d="M86 376L186 376 186 386 86 386z"/>
                <g>
                    <use fill="#000" filter="url(#prefix__K)" xlink:href="#prefix__L"/>
                    <use fill="url(#prefix__h)" xlink:href="#prefix__L"/>
                </g>
                <g>
                    <g transform="translate(111 63) translate(23.182 20.468)">
                        <mask id="prefix__N" fill="#fff">
                            <use xlink:href="#prefix__M"/>
                        </mask>
                        <path fill="#FEC100" d="M6.627 2.662l.149-.088c7.91-4.567 17.799 1.145 17.799 10.274 0 4.238-2.263 8.156-5.935 10.275l-.148.088C10.582 27.778.697 22.07.697 12.937c0-4.238 2.258-8.156 5.93-10.275" mask="url(#prefix__N)"/>
                    </g>
                    <g transform="translate(111 63) translate(0 21.2)">
                        <mask id="prefix__P" fill="#fff">
                            <use xlink:href="#prefix__O"/>
                        </mask>
                        <path fill="#7A54EF" d="M17.944 1.93l-.148-.087C9.886-2.724 0 2.988 0 12.117c0 4.237 2.258 8.155 5.93 10.274l.149.088c7.91 4.567 17.799-1.14 17.799-10.274 0-4.238-2.263-8.155-5.935-10.274" mask="url(#prefix__P)"/>
                    </g>
                    <g transform="translate(111 63) translate(11.76 .166)">
                        <mask id="prefix__R" fill="#fff">
                            <use xlink:href="#prefix__Q"/>
                        </mask>
                        <path fill="#00D592" d="M6.184 2.413l.148-.088c3.672-2.12 8.192-2.12 11.864 0 7.91 4.571 7.91 15.986 0 20.553l-.148.088c-3.667 2.119-8.192 2.119-11.864 0-7.91-4.572-7.91-15.986 0-20.553" mask="url(#prefix__R)"/>
                    </g>
                </g>
            </g>
            <g transform="translate(378 103) translate(571 30)">
                <use fill="#000" filter="url(#prefix__S)" xlink:href="#prefix__T"/>
                <use fill="#F2F6F9" fill-opacity=".8" xlink:href="#prefix__T"/>
                <use fill="url(#prefix__U)" xlink:href="#prefix__V"/>
                <use fill="#000" filter="url(#prefix__W)" xlink:href="#prefix__V"/>
                <path fill="url(#prefix__X)" d="M43 334h54c2.21 0 4 1.79 4 4s-1.79 4-4 4H43c-2.21 0-4-1.79-4-4s1.79-4 4-4z"/>
                <use fill="url(#prefix__F)" xlink:href="#prefix__Y"/>
                <use fill="#000" filter="url(#prefix__Z)" xlink:href="#prefix__Y"/>
                <path fill="#DAE5EF" d="M38 243L198 243 198 253 38 253zM38 263L158 263 158 273 38 273zM38 313L118 313 118 323 38 323z"/>
                <use fill="#000" filter="url(#prefix__aa)" xlink:href="#prefix__ab"/>
                <use fill="url(#prefix__h)" xlink:href="#prefix__ab"/>
                <g>
                    <path fill="#B5CBDE" d="M6.947 45.846c9.302-5.372 24.435-5.345 33.797.062 4.683 2.702 7.035 6.239 7.052 9.768.02 3.532-2.295 7.057-6.946 9.744-9.305 5.372-24.436 5.345-33.798-.062-4.674-2.7-7.027-6.226-7.051-9.753-.027-3.537 2.288-7.07 6.946-9.759" filter="url(#prefix__ac)" transform="translate(137 107)"/>
                    <path fill="#FFF" d="M6.947 4.081c9.302-5.371 24.435-5.344 33.797.062 4.683 2.702 7.035 6.239 7.052 9.768.02 3.532-2.295 7.057-6.946 9.744-9.305 5.372-24.436 5.345-33.798-.061-4.674-2.7-7.027-6.227-7.051-9.754-.027-3.537 2.288-7.069 6.946-9.759" transform="translate(137 107)"/>
                    <path fill="url(#prefix__ad)" d="M0 13.84c.025 3.527 2.377 7.054 7.052 9.753 9.364 5.407 24.495 5.434 33.798.062 4.652-2.685 6.965-6.212 6.948-9.744v32.02c.017 3.532-2.296 7.059-6.948 9.744-9.303 5.372-24.434 5.344-33.798-.062C2.377 52.913.025 49.387 0 45.86V13.84z" transform="translate(137 107)"/>
                </g>
                <g>
                    <use fill="#000" filter="url(#prefix__ae)" xlink:href="#prefix__af"/>
                    <use fill="url(#prefix__h)" xlink:href="#prefix__af"/>
                </g>
                <path fill="#D7E5F0" fill-rule="nonzero" d="M51 151L53.124 148.912 46.212 142 53.124 135.124 51 133 42 142z"/>
            </g>
        </g>
    </g>
</svg>
