<svg xmlns="http://www.w3.org/2000/svg" width="55" height="60" viewBox="0 0 55 60">
    <path fill="#FFF" fill-rule="evenodd" d="M.991 17.065c-.308.227-.64.42-.991.572v24.734c2.057.898 3.29 3.032 3.038 5.262L24.46 60c.308-.227.64-.42.992-.573V34.694c-2.058-.898-3.29-3.032-3.039-5.262L.991 17.064v.001zm53.016-.137L32.562 29.432c.25 2.23-.982 4.364-3.039 5.262l.024 24.597c.351.153.683.345.991.572l21.423-12.367c-.25-2.23.982-4.364 3.039-5.262V17.5c-.35-.153-.683-.345-.991-.572h-.002zM24.45 0L3.028 12.367c.042.38.042.764 0 1.145L24.45 25.878c1.806-1.332 4.27-1.332 6.076 0L51.95 13.511c-.042-.38-.042-.764 0-1.144L30.53 0c-1.807 1.333-4.27 1.333-6.077 0h-.003z"/>
</svg>
