<svg xmlns="http://www.w3.org/2000/svg" width="55" height="57" viewBox="0 0 55 57">
    <path fill="#FFF" fill-rule="evenodd" d="M27.79 7.184c1.824 0 3.311.608 3.311 1.354 0 .746-1.487 1.356-3.312 1.356-1.829 0-3.312-.608-3.312-1.356 0-.748 1.483-1.354 3.312-1.354zm5.224 3.28V8.191C32.7 4.562 22.801 4.543 22.531 8.19h-.034v2.275c-.086 3.836 10.649 3.843 10.517 0zm-12.939 3.541c0 .746-1.485 1.356-3.312 1.356-1.83 0-3.312-.608-3.312-1.356 0-.745 1.483-1.353 3.312-1.353 1.825 0 3.312.608 3.312 1.353zm-8.568-.349h-.034v2.276c-.086 3.835 10.644 3.842 10.515 0v-2.273c-.313-3.627-10.213-3.646-10.481-.003zM55 14.587v28.94L28.696 57V28.168L52.283 15.84 27.493 2.738 2.788 15.69 26.304 28.11V57L0 43.524V14.435l.022.012L0 14.402 27.5 0 55 14.587zm-19.525-.58c0-.745 1.485-1.353 3.312-1.353 1.827 0 3.312.608 3.312 1.354 0 .745-1.485 1.353-3.312 1.353-1.827 0-3.312-.608-3.312-1.353zm8.537 1.925v-2.273c-.316-3.627-10.213-3.648-10.484-.003h-.033v2.276c-.084 3.837 10.648 3.845 10.517 0zm-16.225 2.496c1.827 0 3.312.608 3.312 1.353 0 .746-1.485 1.354-3.312 1.354-1.827 0-3.312-.608-3.312-1.354 0-.745 1.485-1.353 3.312-1.353zm-5.29 3.28c-.086 3.835 10.646 3.842 10.515 0v-2.273c-.313-3.627-10.213-3.648-10.484-.003h-.03v2.275z"/>
</svg>
