<svg xmlns="http://www.w3.org/2000/svg" xmlns:xlink="http://www.w3.org/1999/xlink" width="66" height="66" viewBox="0 0 66 66">
    <defs>
        <path id="zj382tuapa" d="M0 0L66 0 66 66.001 0 66.001z"/>
    </defs>
    <g fill="none" fill-rule="evenodd">
        <mask id="g1pmh7go0b" fill="#fff">
            <use xlink:href="#zj382tuapa"/>
        </mask>
        <path fill="#AF252A" d="M33 20.52c-6.893 0-12.481 5.587-12.481 12.48 0 6.893 5.588 12.48 12.48 12.48 6.893 0 12.482-5.587 12.482-12.48 0-6.893-5.589-12.48-12.482-12.48M13.54 33c0-10.748 8.713-19.461 19.46-19.461 10.75 0 19.462 8.713 19.462 19.461 0 .711-.038 1.413-.112 2.103-.148 1.898 1.244 3.346 3.13 3.346 3.199 0 3.54-4.125 3.54-5.449 0-14.37-11.65-26.02-26.02-26.02S6.981 18.63 6.981 33s11.648 26.018 26.018 26.018c7.632 0 14.497-3.284 19.256-8.517l5.35 4.492C51.561 61.747 42.776 66 32.998 66 14.774 66.001 0 51.226 0 33S14.774 0 33 0s33 14.774 33 33c0 7.326-3.488 13.274-10.495 13.274-3.083 0-4.957-1.412-5.98-2.989-3.437 5.51-9.552 9.177-16.526 9.177-10.747 0-19.46-8.714-19.46-19.462m19.46-5.711c3.156 0 5.713 2.557 5.713 5.711 0 3.155-2.557 5.712-5.713 5.712-3.154 0-5.71-2.558-5.71-5.712s2.556-5.711 5.71-5.711" mask="url(#g1pmh7go0b)"/>
    </g>
</svg>
