<svg xmlns="http://www.w3.org/2000/svg" width="60" height="72" viewBox="0 0 60 72">
    <path fill="#007CFF" fill-rule="evenodd" d="M39 24h9v-3h-9v3zm-27 6h7.158l.387-3H12v3zM54 7.5c0-.828-.672-1.5-1.5-1.5h-45C6.672 6 6 6.672 6 7.5V9h48V7.5zM60 6v27c0 3.312-2.688 6-6 6h-5.967l.045.06c-.093 1.29-.315 2.718-.666 4.371-1.353 6.432-4.911 15.366-2.49 25.254-6.936 1.068-10.953 1.569-17.976 3.315-.819-12.186-6.798-14.829-5.412-25.41 1.626-12.411 2.532-19.383 3.588-27.765.33-2.637 2.193-3.921 4.011-3.921 1.893 0 3.738 1.392 3.756 4.098.063 9.909.324 19.779.972 22.179.438 1.62 3.261 1.914 3.261-1.536l-.006-6.648H52.5c.828 0 1.5-.672 1.5-1.5V18H37.296c-.471-4.383-3.81-7.593-8.163-7.593h-.003c-4.32 0-7.734 3.114-8.418 7.593H6v13.5c0 .828.672 1.5 1.5 1.5h11.271l-.783 6H6c-3.312 0-6-2.688-6-6V6c0-3.312 2.688-6 6-6h48c3.312 0 6 2.688 6 6zM12 24h7.929l.384-3H12v3zm-.579 31.626c-1.383.501-1.836 1.44-1.467 2.562.441 1.347 1.935 2.394 3.882 1.905 1.818-.453 4.224-1.188 5.103-1.461-.609-1.515-1.134-3.105-1.437-4.977l-6.081 1.971zm-5.235-5.748c-.495-1.5.114-2.763 1.968-3.435l9.747-3.465-.402 3.084c-.231 1.767-.309 3.321-.267 4.719-.75.234-3.285 1.017-5.835 1.656-2.613.654-4.614-.75-5.211-2.559z"/>
</svg>
