<svg xmlns="http://www.w3.org/2000/svg" width="62" height="75" viewBox="0 0 62 75">
    <g fill="none" fill-rule="evenodd">
        <path fill="#002C8B" d="M17.93 43.44c.36-2.56 1.423-3.648 4.294-3.655l7.006-.006c14.18 0 22.314-6.479 24.871-19.809C56.581 7.155 47.582 0 35.405 0H12.64c-1.603 0-2.97 1.184-3.218 2.793C2.28 48.785.214 60.475.003 64.043c-.065 1.125.834 2.083 1.969 2.083h12.366L17.93 43.44z"/>
        <path fill="#009EE4" d="M62 30.262c0 1.659-.205 3.36-.524 5.04-2.626 13.7-11.612 18.433-23.092 18.433h-1.776c-1.401 0-2.595 1.036-2.812 2.446l-2.489 15.78c-.22 1.403-1.414 2.439-2.815 2.439h-8.481c-1.21 0-2.133-1.076-1.947-2.27l4.296-27.527.193-.174h6.68c16.229 0 26.378-8.116 29.366-23.46C61.117 23.491 62 26.783 62 30.261z"/>
    </g>
</svg>
