<svg xmlns="http://www.w3.org/2000/svg" width="54" height="54" viewBox="0 0 54 54">
    <path fill="#FFF" fill-rule="evenodd" d="M2.25 54h49.5V22.5H2.25V54zm4.5-11.25h40.5V27H6.75v15.75zM36.009 0l6.736 11.255v2.47c0 2.4-2.096 4.275-4.495 4.275s-4.5-2.1-4.5-4.5v-2.47L31.637 0h4.372zM31.5 11.025v2.47C31.5 15.894 29.399 18 27 18c-2.4 0-4.5-2.1-4.5-4.5v-2.47L24.856 0h4.286L31.5 11.025zM54 13.653c0 2.4-2.101 4.347-4.5 4.347S45 15.9 45 13.5v-2.47L38.504 0h4.532L54 11.185v2.468zM15.496 0L9 11.185v2.47C9 16.054 6.9 18 4.5 18S0 16.054 0 13.653v-2.468L10.966 0h4.53zm6.867 0L20.25 11.185v2.47c0 2.399-2.1 4.345-4.5 4.345s-4.5-1.946-4.5-4.347v-2.468L17.991 0h4.372z"/>
</svg>
