<svg xmlns="http://www.w3.org/2000/svg" width="64" height="64" viewBox="0 0 64 64">
    <path fill="#00D592" fill-rule="evenodd" d="M2.667 64h58.666V26.667H2.667V64zM8 50.667h48V32H8v18.667zM42.677 0l7.984 13.339v2.928c0 2.845-2.485 5.066-5.328 5.066C42.491 21.333 40 18.845 40 16v-2.928L37.496 0h5.181zm-5.344 13.067v2.928c0 2.842-2.49 5.338-5.333 5.338-2.845 0-5.333-2.488-5.333-5.333v-2.928L29.459 0h5.08l2.794 13.067zM64 16.18c0 2.846-2.49 5.152-5.333 5.152S53.333 18.845 53.333 16v-2.928L45.635 0h5.37L64 13.256v2.925zM18.365 0l-7.698 13.256v2.928c0 2.843-2.488 5.15-5.334 5.15C2.488 21.333 0 19.026 0 16.18v-2.925L12.997 0h5.368zm8.139 0L24 13.256v2.928c0 2.843-2.488 5.15-5.333 5.15-2.846 0-5.334-2.307-5.334-5.153v-2.925L21.323 0h5.181z"/>
</svg>
