<svg xmlns="http://www.w3.org/2000/svg" width="61" height="81" viewBox="0 0 61 81">
    <path fill="#00CC58" fill-rule="evenodd" d="M37.266 80.175c1.551-.3 2.545-1.225 2.12-2.932-.406-1.628-1.701-1.859-3.097-1.472-3.93 1.09-7.833 1.063-11.76-.028-1.406-.39-2.678-.08-3.058 1.546-.369 1.58.524 2.533 1.979 2.83 2.312.47 5.294.881 6.998.881 1.704 0 4.575-.392 6.818-.825M15.454 9.701c6.047.047 10.697 2.585 15.016 5.996 4.341-3.508 9.01-5.897 14.88-6.03-7.51-6.457-22.175-6.458-29.896.034m11.592 9.055c-1.11-.765-2.013-1.473-2.992-2.049-9.148-5.379-17.147-1.684-19.085 8.797-.985 5.329-.48 10.581.981 15.74 1.817 6.416 4.768 12.246 9.356 17.578-2.56-15.413 2.095-28.335 11.74-40.066m6.815.03c9.612 11.574 14.184 24.491 11.74 40.085 5.651-6.904 9.032-14.15 10.347-22.347.892-5.556.783-11.036-1.795-16.2-2.159-4.323-5.8-6.44-10.401-6.036-3.781.332-6.902 2.16-9.891 4.498m-3.564 2.991c-.378.561-.604.97-.899 1.323-5.815 6.972-9.275 14.986-10.18 24.019-.552 5.496-.213 10.952 2.944 15.777 4.175 6.38 12.468 6.354 16.588-.05.78-1.211 1.416-2.561 1.875-3.93 1.682-5.016 1.559-10.15.573-15.262-1.572-8.157-5.011-15.402-10.901-21.877M61 31.5c-.892 13.92-6.147 26.094-17.235 35.295-8.503 7.057-17.31 7.27-26.01.466C7.319 59.1 1.783 48.01.267 34.924c-1.353-11.68 2.41-21.526 11.858-28.57 9.968-7.433 21.016-8.307 32.08-2.82C55.394 9.084 60.579 18.75 61 31.499"/>
</svg>
