<svg xmlns="http://www.w3.org/2000/svg" xmlns:xlink="http://www.w3.org/1999/xlink" width="116" height="116" viewBox="0 0 116 116">
    <defs>
        <linearGradient id="ys0rognt5a" x1="50.898%" x2="41.036%" y1="79.568%" y2="-11.87%">
            <stop offset=".058%" stop-color="#FFF"/>
            <stop offset="100%" stop-color="#1E313F"/>
        </linearGradient>
        <linearGradient id="ybnofzsgrb" x1="48.094%" x2="58.005%" y1="17.958%" y2="112.287%">
            <stop offset=".058%" stop-color="#FFF"/>
            <stop offset="99.67%" stop-color="#4E5A64"/>
        </linearGradient>
        <path id="cg0pydihcc" d="M0 0L22.122 0 22.122 22.122 0 22.122z"/>
    </defs>
    <g fill="none" fill-rule="evenodd">
        <g>
            <g>
                <g>
                    <g>
                        <g fill-rule="nonzero">
                            <g transform="translate(-373 -56) translate(181 -135) translate(191.86 191.03)">
                                <circle cx="58.045" cy="58.237" r="57.613" fill="#1E313F" transform="rotate(-.192 58.045 58.237)"/>
                                <path fill="#FFF" d="M94.076 94.028c19.763-19.906 19.667-52.014-.24-71.777-19.905-19.763-52.014-19.667-71.776.24l72.016 71.537z" opacity=".2"/>
                            </g>
                            <g>
                                <path fill="#FAFBFC" d="M31.87 31.056c-.575-.096-1.102-.24-1.628-.335-7.082-1.436-12.202-2.44-12.202-7.37 0-3.062 3.015-5.502 8.422-5.502 4.833 0 8.661 1.962 11.15 5.646l.382.096 7.704-7.896-.048-.287c-3.062-3.637-6.938-6.173-11.388-7.513-.622-.19-1.197-.334-1.819-.478h-.048c-.239-.048-.43-.096-.67-.144V.287H21.199v6.986c-.335.048-.67.144-1.005.192h-.048c-4.976 1.196-9.33 3.78-12.728 7.752-1.436 2.392-2.153 5.263-2.153 8.565 0 11.293 8.517 14.882 16.843 16.892 1.532.383 3.063.67 4.546.909 5.216.957 9.714 1.77 9.714 6.46 0 2.919-3.206 6.556-9.905 6.556-3.972 0-7.226-1.34-9.618-3.78-.144-.144-.335-.288-.479-.431l-9.092 6.316v.335c1.292 1.531 2.728 2.871 4.26 4.02.526.382 1.052.717 1.578 1.052h.048c.527.335 1.1.622 1.627.91 0 0 .048 0 .048.047.574.287 1.1.527 1.675.766.048 0 .048 0 .095.048.575.239 1.149.43 1.723.622.048 0 .096 0 .096.048.287.095.526.143.813.239h.096c.287.096.574.143.91.24.047 0 .095 0 .143.047.239.048.526.096.765.144v6.986h10.528v-6.986c.191-.048.382-.048.574-.096h.096c.717-.144 1.435-.335 2.153-.574.335-.096.718-.24 1.053-.335 3.876-1.436 7.273-3.828 10.048-7.082 1.053-1.244 1.962-2.536 2.776-3.972.43-1.531.622-3.254.622-5.072.048-12.155-9.14-15.456-17.13-17.035z" transform="translate(-373 -56) translate(181 -135) translate(191.86 191.03) translate(31.582 22.012)"/>
                                <path fill="url(#ys0rognt5a)" d="M7.321 56.991c-.526-.622-1.005-1.244-1.435-1.914-.192-.287-.383-.574-.574-.813-.048-.048-.096-.144-.144-.192-.144-.24-.335-.526-.479-.813l-.143-.287c-.144-.24-.287-.527-.43-.766l-.144-.287c-.144-.24-.287-.527-.383-.814-.048-.095-.096-.239-.144-.335-.143-.287-.239-.526-.383-.813-.047-.096-.095-.191-.143-.335-.096-.287-.24-.574-.335-.861 0-.048-.048-.144-.048-.192-.24-.67-.478-1.34-.67-2.01 0-.047-.048-.095-.048-.19-.047-.24-.143-.48-.191-.719l-.144-.574c-.047-.24-.095-.43-.143-.67-.048-.191-.096-.43-.144-.622-.048-.24-.095-.43-.143-.67l-.144-.718c-.048-.191-.048-.43-.096-.622-.047-.239-.095-.478-.095-.765-.048-.192-.048-.383-.096-.622-.048-.287-.048-.527-.096-.814 0-.191-.047-.383-.047-.574 0-.335-.048-.622-.048-.957 0-.144 0-.287-.048-.479 0-.478-.048-.957-.048-1.435 0-.479 0-.91.048-1.388v-.43c0-.335.048-.623.048-.958 0-.143.048-.334.048-.478.047-.287.047-.622.095-.91 0-.143.048-.286.048-.43.048-.383.096-.718.144-1.053 0-.095 0-.191.047-.239.048-.43.144-.861.24-1.292.048-.143.048-.287.095-.383.048-.287.144-.574.192-.861.048-.144.096-.335.096-.479.047-.287.143-.526.19-.813.049-.144.097-.335.145-.479.095-.287.19-.574.239-.86.048-.144.095-.24.143-.384l.431-1.148c.048-.144.096-.24.144-.383.095-.287.19-.526.334-.813.048-.144.144-.287.192-.479.096-.24.191-.43.335-.67.096-.143.143-.335.24-.478.095-.24.238-.431.334-.67.096-.144.144-.287.24-.43.19-.336.382-.67.574-1.006-.431 1.58-.623 3.302-.623 5.12 0 6.221 2.632 10.958 7.848 14.164.287 5.599 1.914 10.001 4.69 12.825l-9.57 6.268z" transform="translate(-373 -56) translate(181 -135) translate(191.86 191.03) translate(31.582 22.012)"/>
                                <path fill="url(#ybnofzsgrb)" d="M37.66 23.495c1.626 2.44 2.679 5.503 3.062 9.188 1.34.622 2.488 1.34 3.54 2.153C48.14 37.85 50.1 42.253 50.1 47.85c0 .67-.047 1.34-.095 2.01v-.048c.191-.43.383-.909.526-1.387.048-.144.096-.24.144-.383.095-.335.239-.67.335-1.005.048-.144.095-.335.143-.479.048-.19.144-.43.192-.622.095-.287.143-.526.239-.813.048-.191.096-.43.143-.622l.144-.718c.048-.143.048-.335.096-.478.048-.335.143-.718.191-1.053 0-.144.048-.287.048-.43l.144-1.15c0-.095 0-.143.047-.239.048-.382.096-.717.096-1.1 0-.096 0-.191.048-.287.048-.43.048-.862.096-1.292v-.287c0-.431.047-.91.047-1.34 0-.479 0-.957-.047-1.484 0-.143 0-.287-.048-.478 0-.335-.048-.67-.048-.957 0-.191-.048-.383-.048-.574-.048-.287-.048-.575-.096-.862 0-.191-.047-.382-.095-.622-.048-.287-.048-.526-.096-.813-.048-.192-.048-.43-.096-.622-.048-.24-.095-.527-.143-.766-.048-.191-.096-.43-.144-.622l-.143-.718c-.048-.191-.096-.43-.144-.622-.048-.239-.144-.478-.191-.718-.048-.19-.096-.43-.192-.622-.048-.239-.143-.43-.191-.67-.048-.19-.144-.43-.192-.622-.095-.239-.143-.43-.239-.622-.096-.191-.143-.43-.24-.622-.095-.191-.143-.43-.238-.622-.096-.191-.192-.43-.24-.622l-.287-.574c-.095-.192-.191-.383-.287-.622l-.287-.574c-.096-.192-.191-.383-.335-.575-.096-.191-.191-.382-.335-.526-.096-.191-.24-.383-.335-.574-.096-.192-.24-.335-.335-.527-.335-.526-.718-1.052-1.1-1.579-.287-.382-.575-.717-.862-1.052l-7.99 8.23z" transform="translate(-373 -56) translate(181 -135) translate(191.86 191.03) translate(31.582 22.012)"/>
                            </g>
                        </g>
                        <g transform="translate(-373 -56) translate(181 -135) translate(191.86 191.03) translate(79.734 1.661)">
                            <mask id="vieogepmrd" fill="#fff">
                                <use xlink:href="#cg0pydihcc"/>
                            </mask>
                            <path fill="#FFF" d="M22.122 11.06c-8.071 0-11.06 2.632-11.06 11.063 0-8.431-2.99-11.062-11.062-11.062C8.071 11.06 11.061 8.43 11.061 0c0 8.43 2.99 11.06 11.061 11.06" mask="url(#vieogepmrd)"/>
                        </g>
                    </g>
                </g>
            </g>
        </g>
    </g>
</svg>
