<svg xmlns="http://www.w3.org/2000/svg" width="375" height="314" viewBox="0 0 375 314">
    <path fill="#FFF" fill-rule="evenodd" d="M43.5 309a2.5 2.5 0 1 0 .001 5.001A2.5 2.5 0 0 0 43.5 309m-.5-2a2 2 0 1 0 0-4.001A2 2 0 0 0 43 307m-7-4a2 2 0 1 0 0 4 2 2 0 0 0 0-4m7.5-8a2.501 2.501 0 1 0 .002 5.002A2.501 2.501 0 0 0 43.5 295m-7 0a2.5 2.5 0 1 0 .001 5.001A2.5 2.5 0 0 0 36.5 295m435-7a2.5 2.5 0 1 0 0 5 2.5 2.5 0 0 0 0-5m-428 0a2.5 2.5 0 1 0 0 5 2.5 2.5 0 0 0 0-5m-9.5 2.5a2.5 2.5 0 1 0 5 0 2.5 2.5 0 0 0-5 0m444.5-9.5a2.5 2.5 0 1 0 0 5 2.5 2.5 0 0 0 0-5m-428 0a2.5 2.5 0 1 0 .001 5.001A2.5 2.5 0 0 0 50.5 281m-7 0a2.501 2.501 0 1 0 .002 5.002A2.501 2.501 0 0 0 43.5 281m-5.5 2.5a1.5 1.5 0 1 0-3-.001 1.5 1.5 0 0 0 3 .002M486.501 274a2.5 2.5 0 1 0 0 5.002 2.5 2.5 0 0 0 0-5.002M50.5 274a2.499 2.499 0 1 0 0 5 2.5 2.5 0 1 0 0-5m-6.998 0a2.5 2.5 0 1 0-.002 5 2.5 2.5 0 0 0 .002-5m-7.001 0a2.5 2.5 0 1 0-.002 4.998A2.5 2.5 0 0 0 36.5 274m400-7a2.5 2.5 0 1 0 0 5 2.5 2.5 0 0 0 0-5m-7.002 0a2.499 2.499 0 0 0-2.498 2.5 2.501 2.501 0 1 0 2.498-2.5m-6.997 0a2.5 2.5 0 1 0 0 5.002 2.5 2.5 0 0 0 0-5.002m-7 0a2.501 2.501 0 1 0 0 5.002 2.501 2.501 0 0 0 0-5.002m-358 0a2.5 2.5 0 1 0 0 5.002 2.5 2.5 0 0 0 0-5.002m-7.001 0a2.5 2.5 0 1 0 0 5 2.5 2.5 0 0 0 0-5m-7 0a2.5 2.5 0 1 0 .001 5.001A2.5 2.5 0 0 0 43.5 267m400.5-5a1 1 0 1 0 0 2 1 1 0 0 0 0-2m-7.5-2a2.5 2.5 0 1 0 0 5 2.5 2.5 0 0 0 0-5m-7.002 0a2.499 2.499 0 0 0-2.498 2.5 2.5 2.5 0 1 0 2.498-2.5m-6.998 0a2.5 2.5 0 1 0 .002 5.001A2.5 2.5 0 0 0 422.5 260m-7 0a2.5 2.5 0 1 0 0 5 2.5 2.5 0 0 0 0-5m-20.997 0a2.501 2.501 0 1 0 0 0m-7.003 0a2.5 2.5 0 1 0 .002 5.002A2.5 2.5 0 0 0 387.5 260m-7 0a2.5 2.5 0 1 0 .002 5.001A2.5 2.5 0 0 0 380.5 260m-162.001 0a2.5 2.5 0 1 0 .001 4.999A2.5 2.5 0 0 0 218.5 260m-6.998 0a2.501 2.501 0 1 0 0 5.002 2.501 2.501 0 0 0 0-5.002m-7.003 0a2.5 2.5 0 1 0 .003 5 2.5 2.5 0 0 0-.003-5M71.5 260a2.5 2.5 0 1 0 0 5.001 2.5 2.5 0 0 0 0-5.001m-7 0a2.5 2.5 0 1 0 .002 5.001A2.5 2.5 0 0 0 64.5 260m-6.999 5a2.5 2.5 0 1 0 0-5 2.5 2.5 0 0 0 0 5m-7 0a2.5 2.5 0 1 0 .002-4.998A2.5 2.5 0 0 0 50.5 265m-7 0a2.499 2.499 0 1 0 0-5 2.5 2.5 0 0 0 0 5m399.998-12a2.5 2.5 0 1 0 .003 4.999 2.5 2.5 0 0 0-.003-4.999m-6.998 5a2.499 2.499 0 1 0 0-5 2.5 2.5 0 1 0 0 5m-7.002 0a2.5 2.5 0 1 0 .003-5.001 2.5 2.5 0 0 0-.003 5.001m-6.998-5a2.5 2.5 0 1 0 0 5 2.5 2.5 0 0 0 0-5m-7 5a2.499 2.499 0 1 0-2.5-2.5 2.5 2.5 0 0 0 2.5 2.5m-7-5a2.5 2.5 0 1 0 0 5 2.5 2.5 0 0 0 0-5m-7.001 0a2.5 2.5 0 0 0 0 5 2.5 2.5 0 1 0 0-5m-6.996 5a2.498 2.498 0 0 0 2.497-2.5c0-1.381-1.118-2.5-2.497-2.5a2.501 2.501 0 0 0-2.503 2.5c0 1.381 1.121 2.5 2.503 2.5m-7.003-5a2.5 2.5 0 1 0 0 5 2.5 2.5 0 0 0 0-5m-7 0a2.5 2.5 0 1 0 0 5 2.5 2.5 0 0 0 0-5M218.5 258a2.501 2.501 0 1 0 0-4.998 2.501 2.501 0 0 0 0 4.998m-6.998 0a2.5 2.5 0 1 0 0-4.999 2.5 2.5 0 0 0 0 4.999m-7.003-5a2.499 2.499 0 0 0-2.498 2.5 2.499 2.499 0 1 0 5 0 2.5 2.5 0 0 0-2.502-2.5M78.5 253a2.5 2.5 0 1 0-.001 5 2.5 2.5 0 0 0 .001-5m-7 5c1.383 0 2.5-1.119 2.5-2.5s-1.117-2.5-2.5-2.5a2.5 2.5 0 1 0 0 5m-7 0a2.5 2.5 0 1 0 .001-5 2.5 2.5 0 0 0-.002 5m-6.999 0a2.499 2.499 0 1 0-2.5-2.5 2.5 2.5 0 0 0 2.5 2.5m-7 0a2.5 2.5 0 1 0 0-5 2.5 2.5 0 0 0 0 5m-7 0a2.5 2.5 0 1 0 0-5 2.5 2.5 0 0 0 0 5m399.998-7a2.501 2.501 0 1 0 .002-5.002 2.501 2.501 0 0 0-.002 5.002m-6.998-5a2.5 2.5 0 1 0 0 5 2.5 2.5 0 0 0 0-5m-7.002 5a2.5 2.5 0 1 0 .003-5.001 2.5 2.5 0 0 0-.003 5.001m-6.998 0a2.501 2.501 0 1 0-.002-5.002A2.501 2.501 0 0 0 422.5 251m-7-5a2.501 2.501 0 1 0 .002 5.002A2.501 2.501 0 0 0 415.5 246m-7 5a2.5 2.5 0 1 0 0-5 2.5 2.5 0 0 0 0 5m-7.001-5a2.5 2.5 0 1 0 .001 5 2.5 2.5 0 0 0-.001-5m-6.996 5a2.5 2.5 0 1 0-2.503-2.5c0 1.381 1.121 2.5 2.503 2.5m-7.003 0a2.5 2.5 0 1 0 .002-4.999A2.5 2.5 0 0 0 387.5 251m-7 0a2.499 2.499 0 1 0-2.5-2.5 2.5 2.5 0 0 0 2.5 2.5m-155-5a2.5 2.5 0 1 0 .001 5.001 2.5 2.5 0 0 0 0-5.001m-7.001 5a2.5 2.5 0 1 0 0-5 2.5 2.5 0 0 0 0 5m-7 0a2.5 2.5 0 1 0 .001-5 2.5 2.5 0 0 0-.001 5m-7.002 0a2.5 2.5 0 1 0 .003-5.001 2.5 2.5 0 0 0-.003 5.001m-6.998-5c-1.382 0-2.5 1.12-2.5 2.5a2.5 2.5 0 1 0 2.5-2.5m-119 0a2.5 2.5 0 1 0 0 5 2.5 2.5 0 0 0 0-5m-7 5c1.383 0 2.5-1.119 2.5-2.5a2.499 2.499 0 1 0-5 0 2.5 2.5 0 0 0 2.5 2.5m-7 0a2.5 2.5 0 1 0 .001-5 2.5 2.5 0 0 0-.002 5m-6.999 0a2.499 2.499 0 1 0 0-5 2.5 2.5 0 0 0 0 5m-7 0a2.5 2.5 0 1 0 0-5 2.5 2.5 0 0 0 0 5m-7 0a2.5 2.5 0 1 0 0-5 2.5 2.5 0 0 0 0 5m393-7a2.5 2.5 0 1 0-.002-5.002A2.5 2.5 0 0 0 436.5 244m-7.002 0a2.5 2.5 0 1 0 .003-5.001 2.5 2.5 0 0 0-.003 5.001m-6.998 0a2.501 2.501 0 1 0-.002-5.002A2.501 2.501 0 0 0 422.5 244m-7.001 0a2.5 2.5 0 1 0 .002-5 2.5 2.5 0 0 0-.002 5m-6.999 0a2.5 2.5 0 1 0 0-5 2.5 2.5 0 0 0 0 5m-7 0a2.5 2.5 0 1 0 .002-4.998A2.5 2.5 0 0 0 401.5 244m-6.999 0a2.5 2.5 0 1 0 0-4.998 2.5 2.5 0 0 0 0 4.998m-7 0a2.5 2.5 0 1 0 0-5 2.5 2.5 0 0 0 0 5m-7 0c1.381 0 2.499-1.119 2.499-2.5a2.5 2.5 0 1 0-2.5 2.5m-127-5a2.5 2.5 0 1 0 0 4.998 2.5 2.5 0 0 0 0-4.998m-7 0a2.5 2.5 0 1 0 .001 5 2.5 2.5 0 0 0-.001-5m-20.999 5a2.498 2.498 0 0 0 2.499-2.5 2.499 2.499 0 1 0-5 0c0 1.381 1.121 2.5 2.501 2.5m-7.001 0a2.5 2.5 0 1 0 0-5 2.5 2.5 0 0 0 0 5m-7 0a2.5 2.5 0 1 0 .001-4.999A2.5 2.5 0 0 0 211.5 244m-7.001 0a2.5 2.5 0 1 0 .002-5 2.5 2.5 0 0 0-.002 5m-7 0a2.5 2.5 0 1 0 .001-5 2.5 2.5 0 0 0 0 5m-105-5a2.5 2.5 0 1 0 0 5 2.5 2.5 0 0 0 0-5m-7 0a2.5 2.5 0 1 0 0 5 2.5 2.5 0 0 0 0-5m-7 5a2.5 2.5 0 1 0 0-5 2.5 2.5 0 0 0 0 5m-7 0a2.5 2.5 0 1 0 0-5 2.5 2.5 0 0 0 0 5m-7 0a2.5 2.5 0 1 0 .001-5 2.5 2.5 0 0 0-.002 5m-6.998 0a2.5 2.5 0 1 0 0-4.999 2.5 2.5 0 0 0 0 4.999m-7.002 0a2.5 2.5 0 1 0 .001-5 2.5 2.5 0 0 0 0 5m-7 0a2.5 2.5 0 1 0 .001-4.999A2.5 2.5 0 0 0 43.5 244m385.998-7a2.5 2.5 0 1 0 0 0m-6.998 0a2.5 2.5 0 1 0-.002-5.002A2.5 2.5 0 0 0 422.5 237m-7.001 0a2.501 2.501 0 1 0 0-5.002 2.501 2.501 0 0 0 0 5.002m-6.997 0a2.5 2.5 0 1 0-.004-5 2.5 2.5 0 0 0 .004 5m-7.002 0a2.5 2.5 0 1 0 0-5 2.5 2.5 0 0 0 0 5m-6.999 0a2.5 2.5 0 1 0-.002-5 2.5 2.5 0 0 0 .002 5m-141-5a2.5 2.5 0 1 0 0 5 2.5 2.5 0 0 0 0-5m-21.002 0a2.5 2.5 0 1 0 .001 5.001A2.5 2.5 0 0 0 232.5 232m-6.998 5a2.499 2.499 0 0 0 2.499-2.5 2.5 2.5 0 1 0-2.499 2.5m-7.001-5a2.5 2.5 0 1 0 0 5 2.5 2.5 0 0 0 0-5m-7 5a2.5 2.5 0 1 0 0-5 2.5 2.5 0 0 0 0 5m-7.001 0a2.501 2.501 0 1 0 0-5.002 2.501 2.501 0 0 0 0 5.002m-7 0a2.501 2.501 0 1 0 0-5.002 2.501 2.501 0 0 0 0 5.002m-7.001-5a2.5 2.5 0 1 0 2.502 2.5 2.5 2.5 0 0 0-2.502-2.5M92.5 232a2.499 2.499 0 1 0 0 5 2.5 2.5 0 0 0 0-5m-7 5a2.5 2.5 0 1 0-.002-5.002A2.5 2.5 0 0 0 85.5 237m-7 0a2.5 2.5 0 1 0-.002-5.002A2.5 2.5 0 0 0 78.5 237m-7 0a2.5 2.5 0 1 0 0-5 2.5 2.5 0 0 0 0 5m-7 0a2.5 2.5 0 1 0 0-5 2.5 2.5 0 0 0 0 5m-7 0a2.5 2.5 0 1 0-.001-5 2.5 2.5 0 0 0 .002 5m-7.002 0a2.501 2.501 0 1 0 0-5.002 2.501 2.501 0 0 0 0 5.002m-6.999 0a2.5 2.5 0 1 0 0-5 2.5 2.5 0 0 0 0 5m365.002-7a2.5 2.5 0 1 0-.004-5 2.5 2.5 0 0 0 .004 5m-169-5a2.5 2.5 0 1 0-.003 5.001 2.5 2.5 0 0 0 .003-5.001m-7.002 5a2.5 2.5 0 1 0 .001-4.998 2.5 2.5 0 0 0 0 4.998m-7-5a2.501 2.501 0 1 0 0 5.002 2.501 2.501 0 0 0 0-5.002m-7.001 0a2.499 2.499 0 1 0 0 5 2.501 2.501 0 0 0 0-5m-7 0a2.5 2.5 0 1 0 0 5 2.5 2.5 0 0 0 0-5m-7.001 0a2.5 2.5 0 1 0 .001 5 2.5 2.5 0 0 0-.001-5m-7 5a2.501 2.501 0 1 0 0-5.002 2.501 2.501 0 0 0 0 5.002m-7.001-5a2.5 2.5 0 1 0 2.502 2.5c0-1.381-1.121-2.5-2.502-2.5M92.5 225a2.5 2.5 0 1 0-.001 4.999A2.5 2.5 0 0 0 92.5 225m-7 5a2.5 2.5 0 1 0-.002-5.002A2.5 2.5 0 0 0 85.5 230m-9.5-2.5a2.5 2.5 0 1 0 5 0 2.5 2.5 0 0 0-5 0m-7 0a2.501 2.501 0 1 0 5.002-.001 2.501 2.501 0 0 0-5.002 0M64.5 225a2.5 2.5 0 1 0 0 5 2.5 2.5 0 0 0 0-5m-7 0a2.5 2.5 0 1 0 0 5 2.5 2.5 0 0 0 0-5m-7 0a2.5 2.5 0 1 0 0 5 2.5 2.5 0 0 0 0-5m-7 0a2.5 2.5 0 1 0-.001 4.999A2.5 2.5 0 0 0 43.5 225m-7 5a2.5 2.5 0 1 0-.002-5.002A2.5 2.5 0 0 0 36.5 230m203.002-12a2.501 2.501 0 1 0 0 0m-7.003 0a2.5 2.5 0 1 0 .001 4.999A2.5 2.5 0 0 0 232.5 218m-6.998 0a2.502 2.502 0 0 0-2.501 2.5c0 1.38 1.121 2.5 2.501 2.5a2.499 2.499 0 0 0 2.499-2.5c0-1.38-1.117-2.5-2.499-2.5m-7.001 0a2.5 2.5 0 1 0 0 5 2.5 2.5 0 0 0 0-5m-7 0a2.5 2.5 0 1 0 0 5 2.5 2.5 0 0 0 0-5m-7.001 0a2.5 2.5 0 1 0 .003 5.001A2.5 2.5 0 0 0 204.5 218m-7 5a2.5 2.5 0 1 0 0-5.001 2.5 2.5 0 0 0 0 5.001M99.5 218a2.5 2.5 0 1 0 .001 5.001A2.5 2.5 0 0 0 99.5 218m-7 0a2.5 2.5 0 1 0 0 5 2.5 2.5 0 0 0 0-5m-7 5a2.5 2.5 0 1 0 0-5 2.5 2.5 0 0 0 0 5m-7-5a2.5 2.5 0 1 0 0 5 2.5 2.5 0 0 0 0-5m-7 5a2.5 2.5 0 1 0 .001-4.999A2.5 2.5 0 0 0 71.5 223m-7 0a2.5 2.5 0 1 0 .001-5 2.5 2.5 0 0 0-.001 5m-7-5a2.501 2.501 0 1 0 .001 5.002 2.501 2.501 0 0 0 0-5.002m-7.002 0a2.5 2.5 0 1 0 .003 5.001A2.5 2.5 0 0 0 50.5 218m-6.999 0a2.5 2.5 0 1 0 0 5 2.5 2.5 0 0 0 0-5m-7 0a2.5 2.5 0 1 0 .002 5.002A2.5 2.5 0 0 0 36.5 218m-7 0a2.5 2.5 0 1 0 0 5 2.5 2.5 0 0 0 0-5m399.998-2a2.501 2.501 0 1 0 .002-5.002 2.501 2.501 0 0 0-.002 5.002m-6.998 0a2.5 2.5 0 1 0-.002-5.001A2.5 2.5 0 0 0 422.5 216m-63-5a2.499 2.499 0 1 0 0 5 2.5 2.5 0 0 0 0-5M232.5 211a2.5 2.5 0 1 0 2.501 2.499 2.5 2.5 0 0 0-2.501-2.499m-6.998 0a2.5 2.5 0 1 0 0 5.001 2.5 2.5 0 0 0 0-5.001m-7.001 0a2.5 2.5 0 1 0 0 5 2.5 2.5 0 0 0 0-5m-7 0a2.5 2.5 0 1 0 2.5 2.499 2.499 2.499 0 0 0-2.5-2.499m-7.001 0a2.5 2.5 0 1 0 0 4.998 2.5 2.5 0 0 0 0-4.998m-7 5a2.5 2.5 0 1 0 0-5.001 2.5 2.5 0 0 0 0 5.001m-7-5a2.5 2.5 0 1 0 .003 5.001A2.5 2.5 0 0 0 190.5 211m-91 0a2.5 2.5 0 1 0-.001 4.999A2.5 2.5 0 0 0 99.5 211m-7 5a2.5 2.5 0 1 0-.001-5.001A2.5 2.5 0 0 0 92.5 216m-7-5a2.5 2.5 0 1 0-.002 4.998A2.5 2.5 0 0 0 85.5 211m-7 0a2.499 2.499 0 1 0 0 5 2.5 2.5 0 0 0 0-5m-7 0a2.5 2.5 0 1 0 0 5 2.5 2.5 0 0 0 0-5m-7 0a2.5 2.5 0 1 0 0 5 2.5 2.5 0 1 0 0-5m-7 5a2.5 2.5 0 1 0 0-5 2.5 2.5 0 0 0 0 5m-7 0a2.5 2.5 0 1 0 0-5.001 2.5 2.5 0 0 0 0 5.001m-7 0a2.5 2.5 0 1 0 0-5 2.5 2.5 0 0 0 0 5m-7-5a2.5 2.5 0 1 0 0 5 2.5 2.5 0 0 0 0-5m-7 0a2.5 2.5 0 1 0 0 5.001 2.5 2.5 0 0 0 0-5.001m-8 1a1.5 1.5 0 1 0 .001 3.001A1.5 1.5 0 0 0 21.5 212m401.5-4a2 2 0 1 0 0-4 2 2 0 0 0 0 4m-7.501 1a2.5 2.5 0 1 0 .001-5.001A2.5 2.5 0 0 0 415.5 209m-6.497-5a2.001 2.001 0 1 0-.001 4.002 2.001 2.001 0 0 0 0-4.002m-21.5 5a2.5 2.5 0 1 0-.002-5 2.5 2.5 0 0 0 .001 5m-14-5a2.5 2.5 0 1 0 0 5 2.5 2.5 0 0 0 0-5m-21 0a2.501 2.501 0 0 0 0 5 2.5 2.5 0 1 0 0-5m-112.999 0a2.5 2.5 0 1 0-.003 5 2.5 2.5 0 0 0 .003-5m-7.002 5a2.5 2.5 0 1 0 .001-5.001A2.5 2.5 0 0 0 232.5 209m-6.998 0a2.5 2.5 0 1 0-.001-4.999A2.5 2.5 0 0 0 225.5 209m-7.001 0a2.5 2.5 0 1 0 0-5.001 2.5 2.5 0 0 0 0 5.001m-7 0a2.5 2.5 0 1 0 0-5 2.5 2.5 0 0 0 0 5m-7.001 0c1.38 0 2.501-1.12 2.501-2.498a2.5 2.5 0 1 0-2.501 2.498m-7 0a2.5 2.5 0 1 0 0-5.001 2.5 2.5 0 0 0 0 5.001m-7 0a2.5 2.5 0 1 0 0-5.001 2.5 2.5 0 0 0 0 5.001M85.5 209a2.5 2.5 0 1 0 0-5 2.5 2.5 0 0 0 0 5m-7.002 0a2.5 2.5 0 1 0 .002-5.001 2.5 2.5 0 0 0-.002 5.001m-6.998 0a2.5 2.5 0 1 0 .001-4.999A2.5 2.5 0 0 0 71.5 209m-7 0a2.5 2.5 0 1 0 .001-4.999A2.5 2.5 0 0 0 64.5 209m-7 0a2.5 2.5 0 1 0 0-5 2.5 2.5 0 0 0 0 5m-7 0a2.5 2.5 0 1 0 0-5 2.5 2.5 0 0 0 0 5m-7 0a2.5 2.5 0 1 0 0-5 2.5 2.5 0 0 0 0 5m-7 0a2.5 2.5 0 1 0 0-5 2.5 2.5 0 0 0 0 5m-7 0a2.5 2.5 0 1 0 0-5 2.5 2.5 0 0 0 0 5m-7.5-2.5a.5.5 0 1 0-1 0 .5.5 0 0 0 1 0m364-7a1.5 1.5 0 1 0 3.002-.002 1.5 1.5 0 0 0-3.002.002m-5.5 2.5a2.5 2.5 0 1 0 0-4.999 2.5 2.5 0 0 0 0 4.999m-7-5a2.5 2.5 0 1 0-.002 4.999A2.5 2.5 0 0 0 373.5 197m-7 0a2.5 2.5 0 1 0 .002 5.002A2.5 2.5 0 0 0 366.5 197m-14 0a2.5 2.5 0 1 0 0 5.001 2.5 2.5 0 0 0 0-5.001m-106 5a2.5 2.5 0 1 0 0-5 2.5 2.5 0 0 0 0 5m-6.998 0c1.38 0 2.498-1.12 2.498-2.5a2.5 2.5 0 1 0-2.498 2.5m-7.002 0a2.5 2.5 0 1 0 0-5 2.5 2.5 0 0 0 0 5m-6.999 0a2.5 2.5 0 1 0-.002-5 2.5 2.5 0 0 0 .002 5m-7.001-5a2.499 2.499 0 1 0 0 5 2.501 2.501 0 0 0 0-5m-7 5a2.5 2.5 0 1 0 0-4.999 2.5 2.5 0 0 0 0 4.999m-7.002-5a2.5 2.5 0 1 0 .003 4.999 2.5 2.5 0 0 0-.003-4.999m-6.998 0a2.5 2.5 0 1 0 0 5.001 2.5 2.5 0 0 0 0-5.001m-7.001 0a2.5 2.5 0 1 0 .002 5 2.5 2.5 0 0 0-.002-5M71.5 202a2.5 2.5 0 1 0 0-5 2.5 2.5 0 0 0 0 5m-7 0a2.5 2.5 0 1 0 0-5 2.5 2.5 0 0 0 0 5m-7 0a2.5 2.5 0 1 0 0-5 2.5 2.5 0 0 0 0 5m-7 0a2.5 2.5 0 1 0-.001-5.002 2.5 2.5 0 0 0 0 5.002m-6.999 0a2.5 2.5 0 1 0 0-5 2.5 2.5 0 0 0 0 5m-7 0a2.5 2.5 0 1 0-.002-5.002A2.5 2.5 0 0 0 36.5 202m-7 0a2.5 2.5 0 1 0 0-5 2.5 2.5 0 0 0 0 5m351-7c1.382 0 2.5-1.119 2.5-2.5a2.5 2.5 0 1 0-2.5 2.5m-28-5a2.5 2.5 0 1 0 0 4.999 2.5 2.5 0 0 0 0-4.999m-98.999 0a2.5 2.5 0 1 0 0 4.998 2.5 2.5 0 0 0 0-4.998m-7 5a2.5 2.5 0 1 0 0-5 2.5 2.5 0 0 0 0 5m-6.999 0a2.498 2.498 0 0 0 2.498-2.5 2.499 2.499 0 1 0-5 0 2.5 2.5 0 0 0 2.502 2.5m-7.002 0a2.5 2.5 0 1 0 0-5 2.5 2.5 0 0 0 0 5m-9.5-2.5a2.501 2.501 0 0 0 5 0 2.5 2.5 0 1 0-5 0m-4.5 2.5a2.5 2.5 0 1 0 0-5 2.5 2.5 0 0 0 0 5m-7 0c1.382 0 2.5-1.119 2.5-2.5a2.5 2.5 0 1 0-2.5 2.5m-7.002 0a2.501 2.501 0 0 0 2.502-2.5 2.5 2.5 0 1 0-2.502 2.5m-6.998 0a2.5 2.5 0 1 0 0-5 2.5 2.5 0 0 0 0 5m-7.001 0a2.5 2.5 0 1 0 .001-5 2.5 2.5 0 0 0-.001 5m-6.999-5a2.5 2.5 0 1 0 0 5 2.5 2.5 0 0 0 0-5m-21 0a2.5 2.5 0 1 0 0 5 2.5 2.5 0 0 0 0-5m-7 0a2.5 2.5 0 1 0 0 4.999 2.5 2.5 0 0 0 0-4.999m-84 5a2.5 2.5 0 1 0 .001-4.999A2.5 2.5 0 0 0 71.5 195m-7 0a2.499 2.499 0 1 0 0-5 2.5 2.5 0 0 0 0 5m-7 0a2.5 2.5 0 1 0 .001-4.999A2.5 2.5 0 0 0 57.5 195m-7 0a2.5 2.5 0 1 0 0-5 2.5 2.5 0 0 0 0 5m-7 0a2.5 2.5 0 1 0 0-5 2.5 2.5 0 0 0 0 5m-7 0a2.5 2.5 0 1 0 0-5 2.5 2.5 0 0 0 0 5m-7 0a2.5 2.5 0 1 0 0-5 2.5 2.5 0 0 0 0 5M397 185a2 2 0 1 0-4 0 2 2 0 0 0 4 0m-143.5 3a2.5 2.5 0 1 0-.002-4.999A2.5 2.5 0 0 0 253.5 188m-7 0a2.5 2.5 0 1 0 0-5 2.5 2.5 0 0 0 0 5m-6.998-5a2.5 2.5 0 1 0-.003 5.001 2.5 2.5 0 0 0 .003-5.001m-7.002 5a2.5 2.5 0 1 0 0-5 2.5 2.5 0 0 0 0 5m-7 0a2.5 2.5 0 1 0 0-5 2.5 2.5 0 0 0 0 5m-7-5a2.499 2.499 0 1 0 0 5 2.501 2.501 0 0 0 0-5m-7 5a2.5 2.5 0 1 0 0-4.999 2.5 2.5 0 0 0 0 4.999m-7.002-5a2.5 2.5 0 1 0 2.502 2.5c0-1.381-1.121-2.5-2.502-2.5m-6.998 0a2.5 2.5 0 1 0-.001 4.999A2.5 2.5 0 0 0 197.5 183m-7.001 5a2.501 2.501 0 1 0 0-5.002 2.501 2.501 0 0 0 0 5.002m-7-5a2.5 2.5 0 1 0 .001 5.001A2.5 2.5 0 0 0 183.5 183m-6.997 0a2.5 2.5 0 1 0-.002 5.001 2.5 2.5 0 0 0 .002-5.001m-7.002 0a2.499 2.499 0 1 0 0 5 2.5 2.5 0 1 0 0-5m-7 0a2.5 2.5 0 1 0-.001 4.999 2.5 2.5 0 0 0 0-4.999m-6.999 0a2.5 2.5 0 1 0 0 5.001 2.5 2.5 0 0 0 0-5.001m-7 0a2.5 2.5 0 1 0-.001 5 2.5 2.5 0 0 0 .001-5m-91 5a2.5 2.5 0 1 0 0-5 2.5 2.5 0 0 0 0 5m-7-5a2.5 2.5 0 1 0 0 5 2.5 2.5 0 0 0 0-5m-7 0a2.5 2.5 0 1 0-.001 4.999A2.5 2.5 0 0 0 43.5 183m-9.5 2.5a2.501 2.501 0 1 0 5.002-.001 2.501 2.501 0 0 0-5.002 0M21.5 184a1.5 1.5 0 1 0 0 3 1.5 1.5 0 0 0 0-3m368.5-5.5a2.501 2.501 0 0 0-5 0 2.501 2.501 0 0 0 5 0m-30.498 2.5a2.498 2.498 0 0 0 2.498-2.5 2.499 2.499 0 1 0-5 0 2.5 2.5 0 0 0 2.502 2.5m-7.002 0a2.5 2.5 0 1 0 .001-5 2.5 2.5 0 0 0-.001 5m-42.001-5a2.5 2.5 0 1 0 .002 5 2.5 2.5 0 0 0-.002-5M303 177a1 1 0 1 0 0 2 1 1 0 0 0 0-2m-56.5 4a2.5 2.5 0 1 0 .001-4.999 2.5 2.5 0 0 0 0 4.999m-6.999 0a2.498 2.498 0 0 0 2.498-2.5 2.5 2.5 0 1 0-2.498 2.5m-7.002 0a2.5 2.5 0 1 0 .002-5 2.5 2.5 0 0 0-.002 5m-9.5-2.5a2.5 2.5 0 1 0 5-.001 2.5 2.5 0 0 0-5 .002M218.5 181a2.5 2.5 0 1 0 .001-4.999 2.5 2.5 0 0 0 0 4.999m-7 0c1.381 0 2.499-1.118 2.499-2.5a2.499 2.499 0 1 0-5 0c0 1.382 1.118 2.5 2.5 2.5m-7.002-5a2.499 2.499 0 0 0-2.498 2.5 2.5 2.5 0 1 0 2.498-2.5m-6.998 5a2.5 2.5 0 1 0 .001-4.999 2.5 2.5 0 0 0 0 4.999m-7.002 0a2.5 2.5 0 1 0 .002-5 2.5 2.5 0 0 0-.002 5m-7 0a2.5 2.5 0 1 0 .002-5 2.5 2.5 0 0 0-.002 5m-6.997 0a2.5 2.5 0 1 0-.002-4.999 2.5 2.5 0 0 0 .002 4.999m-7.002 0a2.5 2.5 0 1 0 .002-5 2.5 2.5 0 0 0-.002 5m-7 0c1.382 0 2.5-1.118 2.5-2.5a2.5 2.5 0 1 0-2.5 2.5m-7.001 0a2.5 2.5 0 1 0 .002-5 2.5 2.5 0 0 0-.002 5m-6.998 0a2.498 2.498 0 0 0 2.499-2.5 2.499 2.499 0 1 0-5 0 2.5 2.5 0 0 0 2.501 2.5m-7.001-5a2.5 2.5 0 1 0 0 5 2.5 2.5 0 0 0 0-5m-127 0a2.5 2.5 0 1 0 0 5 2.5 2.5 0 0 0 0-5m372.999-2a2.5 2.5 0 1 0 .001-5.001A2.5 2.5 0 0 0 387.5 174m-27.997 0a2.5 2.5 0 1 0-.004-5 2.5 2.5 0 0 0 .004 5m-7.002 0a2.5 2.5 0 1 0 0-5.001 2.5 2.5 0 0 0 0 5.001m-7-5a2.5 2.5 0 1 0 0 5 2.5 2.5 0 0 0 0-5m-35.001 0a2.5 2.5 0 1 0 .001 5 2.5 2.5 0 0 0-.001-5m-6.999 0a2.5 2.5 0 1 0 0 5 2.5 2.5 0 0 0 0-5m-41.999 0a2.5 2.5 0 1 0-.002 5 2.5 2.5 0 0 0 .002-5m-7.999 5a2.499 2.499 0 0 0 2.498-2.5 2.5 2.5 0 1 0-2.498 2.5m-7.003 0a2.5 2.5 0 1 0 .001-5.001A2.5 2.5 0 0 0 246.5 174m-14 0a2.5 2.5 0 1 0 .002-5 2.5 2.5 0 0 0-.001 5m-7 0a2.5 2.5 0 1 0 0-5 2.5 2.5 0 0 0 0 5m-7 0a2.5 2.5 0 1 0 0-5 2.5 2.5 0 0 0 0 5m-7 0a2.499 2.499 0 1 0 0-5 2.5 2.5 0 1 0 0 5m-7.002 0a2.502 2.502 0 0 0 2.502-2.5c0-1.381-1.121-2.5-2.502-2.5a2.498 2.498 0 0 0-2.498 2.5c0 1.381 1.118 2.5 2.498 2.5m-6.998-5a2.5 2.5 0 1 0-.001 4.999A2.5 2.5 0 0 0 197.5 169m-7.001 5a2.5 2.5 0 1 0 0-5.001 2.5 2.5 0 0 0 0 5.001m-7 0a2.5 2.5 0 1 0 .001-5 2.5 2.5 0 0 0 0 5m-6.998 0a2.5 2.5 0 1 0-.004-5 2.5 2.5 0 0 0 .004 5m-7.002 0a2.5 2.5 0 1 0 .001-5 2.5 2.5 0 0 0-.001 5m-7 0a2.5 2.5 0 1 0 0-4.999 2.5 2.5 0 0 0 0 4.999m-7.001-5a2.5 2.5 0 1 0 .002 5 2.5 2.5 0 0 0-.002-5m-6.998 0a2.5 2.5 0 1 0 0 5.001 2.5 2.5 0 0 0 0-5.001m-7.001 5a2.5 2.5 0 1 0 0-5 2.5 2.5 0 0 0 0 5m-134-4a1.5 1.5 0 1 0 0 3 1.5 1.5 0 0 0 0-3m-7-1a2.5 2.5 0 1 0-.001 4.999A2.5 2.5 0 0 0 .5 169m-7 0a2.5 2.5 0 1 0-.001 4.999A2.5 2.5 0 0 0-6.5 169m366.002-2a2.5 2.5 0 1 0-.003-4.999 2.5 2.5 0 0 0 .003 4.999m-7.002-5a2.5 2.5 0 1 0 0 4.999 2.5 2.5 0 0 0 0-4.999m-7 5a2.499 2.499 0 1 0 0-5 2.501 2.501 0 0 0 0 5m-7.001-5a2.499 2.499 0 0 0-2.499 2.5 2.501 2.501 0 1 0 2.499-2.5m-14.001 0a2.5 2.5 0 1 0 .003 5 2.5 2.5 0 0 0-.003-5m-6.998 0a2.5 2.5 0 1 0 0 5 2.5 2.5 0 0 0 0-5m-7.001 5a2.5 2.5 0 1 0 .002-5 2.5 2.5 0 0 0-.002 5m-6.999 0a2.5 2.5 0 1 0 0-5 2.5 2.5 0 0 0 0 5m-34.999-5a2.5 2.5 0 1 0-.002 5 2.5 2.5 0 0 0 .002-5m-6.999 5a2.5 2.5 0 1 0-2.502-2.5 2.5 2.5 0 0 0 2.502 2.5m-8 0a2.5 2.5 0 1 0-2.502-2.5 2.5 2.5 0 0 0 2.502 2.5m-7.003 0a2.5 2.5 0 1 0 .002-5 2.5 2.5 0 0 0-.002 5m-6.996 0a2.498 2.498 0 0 0 2.497-2.5c0-1.38-1.117-2.5-2.497-2.5a2.502 2.502 0 0 0-2.503 2.5c0 1.381 1.121 2.5 2.503 2.5M233 167c1.105 0 1.999-1.119 1.999-2.5 0-1.38-.894-2.5-2-2.5-1.105 0-2 1.12-2 2.5 0 1.381.895 2.5 2 2.5m-7.5 0a2.5 2.5 0 1 0 .001-4.999A2.5 2.5 0 0 0 225.5 167m-7 0a2.5 2.5 0 1 0-.002-5.002A2.5 2.5 0 0 0 218.5 167m-7 0c1.382 0 2.5-1.119 2.5-2.5a2.5 2.5 0 1 0-2.5 2.5m-7.001 0a2.5 2.5 0 1 0 .001-5 2.5 2.5 0 0 0-.001 5m-7 0a2.501 2.501 0 1 0 0-5 2.5 2.5 0 0 0 0 5m-7 0a2.5 2.5 0 1 0 .001-5 2.5 2.5 0 0 0-.001 5m-7 0a2.5 2.5 0 1 0 .002-5 2.5 2.5 0 0 0-.001 5m-7 0a2.5 2.5 0 1 0 0-5 2.5 2.5 0 0 0 0 5m-7 0a2.5 2.5 0 1 0 0-5 2.5 2.5 0 0 0 0 5m-7 0a2.499 2.499 0 1 0 0-5 2.5 2.5 0 0 0 0 5m-7.001 0a2.5 2.5 0 1 0 0-5.001 2.5 2.5 0 0 0 0 5.001m-6.998 0a2.5 2.5 0 1 0-.001-5.001A2.5 2.5 0 0 0 148.5 167m-7.001 0a2.5 2.5 0 1 0 .001-5 2.5 2.5 0 0 0-.001 5M32 164.5a2.5 2.5 0 1 0-5.001 0 2.5 2.5 0 0 0 5.001 0M7.5 162a2.5 2.5 0 1 0 0 5 2.5 2.5 0 0 0 0-5m-21 0a2.5 2.5 0 1 0 .002 5.001A2.5 2.5 0 0 0-13.5 162m-7 0a2.5 2.5 0 1 0 .002 5.002A2.5 2.5 0 0 0-20.5 162m408-2a2.5 2.5 0 1 0 .001-5 2.5 2.5 0 0 0-.001 5m-7 0a2.5 2.5 0 1 0-.001-5 2.5 2.5 0 0 0 .002 5m-6.999 0a2.499 2.499 0 0 0 2.498-2.5c0-1.381-1.118-2.5-2.498-2.5a2.501 2.501 0 0 0-2.502 2.5c0 1.381 1.121 2.5 2.502 2.5m-7.002 0a2.499 2.499 0 1 0 0-5 2.5 2.5 0 1 0 0 5m-7 0a2.5 2.5 0 1 0 0-5 2.5 2.5 0 0 0 0 5m-7 0a2.5 2.5 0 1 0 0-5 2.5 2.5 0 0 0 0 5m-7 0a2.5 2.5 0 1 0 0-4.999 2.5 2.5 0 0 0 0 4.999m-7.001 0a2.501 2.501 0 1 0 0-4.998 2.501 2.501 0 0 0 0 4.998m-6.998-5a2.5 2.5 0 1 0-.002 5 2.5 2.5 0 0 0 .002-5m-7.003 5a2.5 2.5 0 1 0 .002-5.002 2.5 2.5 0 0 0-.002 5.002m-6.998 0a2.5 2.5 0 1 0 0-5 2.5 2.5 0 0 0 0 5m-7.003 0a2.502 2.502 0 0 0 2.503-2.5 2.5 2.5 0 1 0-2.503 2.5m-6.997 0a2.5 2.5 0 1 0 0-5 2.5 2.5 0 0 0 0 5m-7-5a2.499 2.499 0 1 0 0 5 2.5 2.5 0 1 0 0-5m-27.999 0a2.502 2.502 0 0 0-2.501 2.5 2.5 2.5 0 1 0 2.501-2.5m-6.999 5a2.5 2.5 0 1 0-.004-5 2.5 2.5 0 0 0 .004 5m-8 0a2.499 2.499 0 0 0 2.498-2.5 2.5 2.5 0 1 0-2.498 2.5m-7.002 0a2.5 2.5 0 1 0 .001-5 2.5 2.5 0 0 0-.001 5m-6.999 0a2.5 2.5 0 1 0-.001-4.999A2.5 2.5 0 0 0 239.5 160m-14 0c1.381 0 2.499-1.119 2.499-2.5s-1.118-2.5-2.5-2.5a2.5 2.5 0 1 0 0 5m-7.001 0a2.501 2.501 0 1 0-2.499-2.5 2.5 2.5 0 0 0 2.499 2.5m-6.998 0c1.382 0 2.499-1.119 2.499-2.5s-1.117-2.5-2.5-2.5a2.5 2.5 0 1 0 0 5m-7.001 0a2.5 2.5 0 1 0 0-5.001 2.5 2.5 0 0 0 0 5.001m-7 0a2.501 2.501 0 1 0 0-4.998 2.501 2.501 0 0 0 0 4.998m-6.999 0a2.5 2.5 0 1 0 0-5 2.5 2.5 0 0 0 0 5m-7 0a2.5 2.5 0 1 0 0-5 2.5 2.5 0 0 0 0 5m-7 0a2.5 2.5 0 1 0-.001-5.001A2.5 2.5 0 0 0 176.5 160m-7 0a2.5 2.5 0 1 0-.002-5.001A2.5 2.5 0 0 0 169.5 160m-7 0a2.5 2.5 0 1 0 0-4.999 2.5 2.5 0 0 0 0 4.999m-7 0a2.5 2.5 0 1 0 0-5 2.5 2.5 0 0 0 0 5m-6.999 0a2.5 2.5 0 1 0-.002-5 2.5 2.5 0 0 0 .002 5m-7.001 0a2.5 2.5 0 1 0 0-5 2.5 2.5 0 0 0 0 5m-155 0a2.5 2.5 0 1 0 0-5 2.5 2.5 0 0 0 0 5m-7 0a2.5 2.5 0 1 0 .001-4.999A2.5 2.5 0 0 0-20.5 160m401-8a2.5 2.5 0 1 0 0-5 2.5 2.5 0 0 0 0 5m-6.998 0a2.5 2.5 0 1 0-.005-5 2.5 2.5 0 0 0 .005 5m-7.002 0a2.5 2.5 0 1 0 0-4.999 2.5 2.5 0 0 0 0 4.999m-7 0a2.5 2.5 0 1 0 0-5 2.5 2.5 0 0 0 0 5m-7 0a2.5 2.5 0 1 0-.002-4.998A2.5 2.5 0 0 0 352.5 152m-7 0a2.5 2.5 0 1 0 0-5 2.5 2.5 0 0 0 0 5m-7 0a2.501 2.501 0 1 0-.002-5.002A2.501 2.501 0 0 0 338.5 152m-7 0a2.5 2.5 0 1 0 0-4.999 2.5 2.5 0 0 0 0 4.999m-7.002 0a2.5 2.5 0 1 0 0 0m-6.998 0a2.5 2.5 0 1 0-.001-5 2.5 2.5 0 0 0 .001 5m-7.003 0a2.502 2.502 0 0 0 2.503-2.5c0-1.381-1.121-2.5-2.503-2.5a2.498 2.498 0 0 0-2.497 2.5 2.5 2.5 0 0 0 2.497 2.5m-6.996 0a2.5 2.5 0 1 0-.002-5 2.5 2.5 0 0 0 .002 5m-7.001 0a2.5 2.5 0 1 0 0-5 2.5 2.5 0 0 0 0 5m-7-5a2.5 2.5 0 1 0-.002 4.998A2.5 2.5 0 0 0 289.5 147m-6.999 0a2.5 2.5 0 1 0-.002 5 2.5 2.5 0 0 0 .002-5m-7 0a2.5 2.5 0 1 0-.002 5 2.5 2.5 0 0 0 .002-5m-7 5a2.5 2.5 0 1 0-.001-5 2.5 2.5 0 0 0 0 5m-14.997 0a2.5 2.5 0 0 0 2.497-2.5c0-1.381-1.118-2.5-2.497-2.5a2.501 2.501 0 0 0-2.503 2.5c0 1.38 1.121 2.5 2.503 2.5m-7.003 0a2.5 2.5 0 1 0 0-5 2.5 2.5 0 0 0 0 5m-6.999 0a2.5 2.5 0 1 0-.002-5 2.5 2.5 0 0 0 .002 5m-7 0a2.5 2.5 0 1 0 0-5 2.5 2.5 0 0 0 0 5m-7 0a2.5 2.5 0 1 0 0-4.999 2.5 2.5 0 0 0 0 4.999m-7.001 0a2.501 2.501 0 1 0-.002-5.002A2.501 2.501 0 0 0 218.5 152m-7 0a2.5 2.5 0 1 0-.001-5 2.5 2.5 0 0 0 .002 5m-7.002 0a2.501 2.501 0 1 0 0-5.002 2.501 2.501 0 0 0 0 5.002m-7 0a2.501 2.501 0 1 0 0-5.002 2.501 2.501 0 0 0 0 5.002m-7 0c1.38 0 2.501-1.12 2.501-2.5a2.5 2.5 0 1 0-2.501 2.5m-6.999 0a2.5 2.5 0 1 0 0-5 2.5 2.5 0 0 0 0 5m-6.999 0a2.5 2.5 0 1 0-.002-5 2.5 2.5 0 0 0 .002 5m-7.002 0a2.5 2.5 0 1 0 0 0m-6.998 0a2.5 2.5 0 1 0-.001-4.999A2.5 2.5 0 0 0 162.5 152m-7.001 0a2.5 2.5 0 1 0 0-5.001 2.5 2.5 0 0 0 0 5.001m-7 0a2.5 2.5 0 1 0-.001-5.002 2.5 2.5 0 0 0 0 5.002M21.5 147a2.5 2.5 0 1 0-.001 4.999A2.5 2.5 0 0 0 21.5 147m-35 5a2.5 2.5 0 1 0 0-5.001 2.5 2.5 0 0 0 0 5.001m-7 0a2.5 2.5 0 1 0 0-5 2.5 2.5 0 1 0 0 5m-7-5a2.5 2.5 0 1 0 0 5 2.5 2.5 0 0 0 0-5m415-2a2.5 2.5 0 1 0 0-5 2.5 2.5 0 0 0 0 5m-7 0a2.5 2.5 0 1 0 .001-4.998 2.5 2.5 0 0 0 0 4.998m-7 0a2.5 2.5 0 1 0-.002-5 2.5 2.5 0 0 0 .001 5m-7 0a2.499 2.499 0 1 0-2.5-2.5c0 1.38 1.12 2.5 2.5 2.5m-7 0a2.5 2.5 0 1 0 0-5 2.5 2.5 0 0 0 0 5m-7.001 0c1.38 0 2.501-1.12 2.501-2.5s-1.121-2.5-2.501-2.5a2.499 2.499 0 0 0-2.499 2.5c0 1.38 1.117 2.5 2.499 2.5m-6.998 0a2.5 2.5 0 1 0-.003-5 2.5 2.5 0 0 0 .003 5m-7.001 0a2.5 2.5 0 1 0-.001-5.002 2.5 2.5 0 0 0 0 5.002m-7 0a2.501 2.501 0 1 0 0-5.002 2.501 2.501 0 0 0 0 5.002m-7.002 0a2.502 2.502 0 0 0 2.503-2.5 2.5 2.5 0 1 0-2.503 2.5m-6.997 0a2.5 2.5 0 1 0 0-5 2.5 2.5 0 0 0 0 5m-7.001 0a2.5 2.5 0 1 0 .002-5 2.5 2.5 0 0 0-.002 5m-7 0a2.501 2.501 0 0 0 0-5 2.5 2.5 0 0 0 0 5m-6.999 0a2.5 2.5 0 1 0 0-4.999 2.5 2.5 0 0 0 0 4.999m-7 0a2.5 2.5 0 1 0 0-5 2.5 2.5 0 0 0 0 5m-7 0a2.5 2.5 0 1 0 0-5.001 2.5 2.5 0 0 0 0 5.001m-6.998 0a2.5 2.5 0 1 0-.004-5 2.5 2.5 0 0 0 .004 5m-7.002 0a2.5 2.5 0 1 0 0-5 2.5 2.5 0 0 0 0 5m-7 0a2.5 2.5 0 1 0 0-5 2.5 2.5 0 0 0 0 5m-7.997 0a2.5 2.5 0 1 0-.006-5 2.5 2.5 0 0 0 .006 5m-7.003 0a2.5 2.5 0 1 0 0-4.999 2.5 2.5 0 0 0 0 4.999m-6.998 0c1.38 0 2.498-1.12 2.498-2.5s-1.118-2.5-2.498-2.5a2.501 2.501 0 1 0 0 5m-7.003 0c1.38 0 2.501-1.12 2.501-2.5s-1.121-2.5-2.501-2.5a2.5 2.5 0 0 0 0 5m-7-5a2.5 2.5 0 1 0 0 5 2.5 2.5 0 0 0 0-5m-14 5a2.5 2.5 0 1 0 .001-5 2.5 2.5 0 0 0 0 5m-9.5-2.5a2.5 2.5 0 1 0 4.998.002A2.5 2.5 0 0 0 202 142.5m-11.5 2.5a2.5 2.5 0 1 0 0-5.001 2.5 2.5 0 0 0 0 5.001m-7 0a2.501 2.501 0 0 0 0-5 2.5 2.5 0 0 0 0 5m-6.999 0a2.5 2.5 0 1 0-.001-4.999A2.5 2.5 0 0 0 176.5 145m-7.001 0a2.5 2.5 0 1 0 0-5 2.5 2.5 0 0 0 0 5m-7 0a2.5 2.5 0 1 0 0-5.001 2.5 2.5 0 0 0 0 5.001m-7 0a2.5 2.5 0 1 0 0-5 2.5 2.5 0 0 0 0 5m-141 0a2.5 2.5 0 1 0-.001-5.001A2.5 2.5 0 0 0 14.5 145m-7 0a2.5 2.5 0 1 0 0-5 2.5 2.5 0 0 0 0 5m-7 0a2.5 2.5 0 1 0 0-5 2.5 2.5 0 0 0 0 5m-7 0a2.5 2.5 0 1 0 0-5 2.5 2.5 0 0 0 0 5m-7 0a2.5 2.5 0 1 0 0-5.001 2.5 2.5 0 0 0 0 5.001m-7 0a2.5 2.5 0 1 0 0-5 2.5 2.5 0 0 0 0 5m-7 0a2.5 2.5 0 1 0 0-5 2.5 2.5 0 0 0 0 5m-7-5a2.5 2.5 0 1 0 0 5 2.5 2.5 0 0 0 0-5m-7 0a2.5 2.5 0 1 0 .001 5 2.5 2.5 0 0 0-.001-5m455.5-4.5a1.5 1.5 0 1 0 3 0 1.5 1.5 0 0 0-3 0m-5.499-2.5a2.5 2.5 0 1 0-.003 5 2.5 2.5 0 0 0 .003-5m-28 5c1.381 0 2.499-1.119 2.499-2.5a2.499 2.499 0 1 0-5 0 2.5 2.5 0 0 0 2.5 2.5m-6.999 0a2.5 2.5 0 1 0-2.501-2.5 2.5 2.5 0 0 0 2.501 2.5m-7.002 0a2.5 2.5 0 1 0 .002-5 2.5 2.5 0 0 0-.002 5m-6.999 0a2.499 2.499 0 1 0 0-5 2.5 2.5 0 0 0 0 5m-7 0a2.5 2.5 0 1 0 0-5 2.5 2.5 0 0 0 0 5m-7 0a2.5 2.5 0 1 0 0-5 2.5 2.5 0 0 0 0 5m-7 0a2.5 2.5 0 1 0 0-5 2.5 2.5 0 0 0 0 5m-7 0a2.5 2.5 0 1 0 0-5 2.5 2.5 0 0 0 0 5m-7.003 0a2.501 2.501 0 0 0 2.503-2.5c0-1.381-1.121-2.5-2.503-2.5a2.499 2.499 0 0 0-2.497 2.5c0 1.381 1.118 2.5 2.497 2.5m-6.996 0a2.5 2.5 0 1 0-.002-5 2.5 2.5 0 0 0 .002 5m-7.002 0a2.5 2.5 0 1 0 .003-5 2.5 2.5 0 0 0-.003 5m-6.999 0a2.5 2.5 0 1 0 0-5 2.5 2.5 0 0 0 0 5m-7.001 0a2.5 2.5 0 1 0 .002-5 2.5 2.5 0 0 0-.002 5m-6.999 0a2.5 2.5 0 1 0 0-5 2.5 2.5 0 0 0 0 5m-7 0a2.499 2.499 0 1 0 0-5 2.5 2.5 0 1 0 0 5m-7.001 0a2.5 2.5 0 1 0 .002-5 2.5 2.5 0 0 0-.002 5m-6.998 0a2.499 2.499 0 0 0 2.499-2.5 2.499 2.499 0 1 0-5 0 2.5 2.5 0 0 0 2.501 2.5m-7.001 0a2.5 2.5 0 1 0 0-5 2.5 2.5 0 0 0 0 5m-7.998 0a2.499 2.499 0 0 0 2.498-2.5 2.499 2.499 0 1 0-5 0 2.5 2.5 0 0 0 2.502 2.5m-7.003 0a2.5 2.5 0 1 0 .002-5 2.5 2.5 0 0 0-.002 5m-6.997 0a2.498 2.498 0 0 0 2.498-2.5 2.5 2.5 0 1 0-2.498 2.5m-7.003-4a1.5 1.5 0 1 0 .001 3 1.5 1.5 0 0 0 0-3m-49.001 4a2.5 2.5 0 1 0 0-5.001 2.5 2.5 0 0 0 0 5.001m-6.997 0a2.498 2.498 0 0 0 2.498-2.5 2.499 2.499 0 1 0-5 0 2.5 2.5 0 0 0 2.502 2.5m-7.002 0a2.5 2.5 0 1 0 .001-5 2.5 2.5 0 0 0-.001 5m-7 0a2.499 2.499 0 1 0 0-5 2.5 2.5 0 1 0 0 5M32 135.5a2.5 2.5 0 1 0-5-.001 2.5 2.5 0 0 0 5 .001M21.5 138a2.5 2.5 0 1 0 0-5 2.5 2.5 0 0 0 0 5m-7 0a2.5 2.5 0 1 0 .001-4.999A2.5 2.5 0 0 0 14.5 138m-7 0a2.5 2.5 0 1 0 .001-4.999A2.5 2.5 0 0 0 7.5 138m-7 0a2.5 2.5 0 1 0 .001-5 2.5 2.5 0 0 0-.002 5m-6.998 0C-5.12 138-4 136.881-4 135.5a2.5 2.5 0 1 0-5 0 2.5 2.5 0 0 0 2.5 2.5m-7 0a2.5 2.5 0 1 0 .001-5 2.5 2.5 0 0 0-.002 5m-6.998 0c1.38 0 2.499-1.119 2.499-2.5a2.5 2.5 0 1 0-5 0 2.5 2.5 0 0 0 2.5 2.5m-7 0a2.5 2.5 0 1 0 0-5 2.5 2.5 0 0 0 0 5m-7 0a2.5 2.5 0 1 0 0-5 2.5 2.5 0 0 0 0 5m-7 0a2.5 2.5 0 1 0 0-5 2.5 2.5 0 0 0 0 5m-7-5a2.5 2.5 0 1 0 0 5 2.5 2.5 0 0 0 0-5m471-2a2.5 2.5 0 1 0-.002-5.002A2.5 2.5 0 0 0 422.5 131m-27.998 0c1.38 0 2.498-1.12 2.498-2.5a2.5 2.5 0 1 0-2.498 2.5m-14 0a2.499 2.499 0 0 0 2.498-2.5 2.5 2.5 0 1 0-2.499 2.5m-7 0a2.5 2.5 0 1 0-.002-5 2.5 2.5 0 0 0 .002 5m-7.002 0a2.5 2.5 0 1 0 0-5.001 2.5 2.5 0 0 0 0 5.001m-6.998 0a2.5 2.5 0 1 0-.003-5.001A2.5 2.5 0 0 0 359.5 131m-7.001 0a2.501 2.501 0 1 0-.002-5.002A2.501 2.501 0 0 0 352.5 131m-7 0a2.5 2.5 0 1 0 0-5 2.5 2.5 0 0 0 0 5m-7 0a2.5 2.5 0 1 0-.001-5 2.5 2.5 0 0 0 .001 5m-6.999 0a2.5 2.5 0 1 0-.002-5 2.5 2.5 0 0 0 .002 5m-7.003 0a2.5 2.5 0 1 0 0 0m-6.998 0a2.5 2.5 0 1 0 0-5 2.5 2.5 0 0 0 0 5m-7 0a2.5 2.5 0 1 0 0-5 2.5 2.5 0 0 0 0 5m-7 0a2.5 2.5 0 1 0-.001-5 2.5 2.5 0 0 0 .001 5m-7 0a2.5 2.5 0 1 0 0-5 2.5 2.5 0 0 0 0 5m-6.998 0a2.5 2.5 0 1 0-.005-5.002 2.5 2.5 0 0 0 .005 5.002m-7.002 0a2.5 2.5 0 1 0 0-5 2.5 2.5 0 0 0 0 5m-7 0a2.5 2.5 0 1 0 0-5 2.5 2.5 0 0 0 0 5m-7 0a2.5 2.5 0 1 0-.001-5.002 2.5 2.5 0 0 0 0 5.002m-14.997 0a2.5 2.5 0 1 0-.003-5 2.5 2.5 0 0 0 .003 5m-7.003 0a2.501 2.501 0 1 0 0-5.002 2.501 2.501 0 0 0 0 5.002m-6.996 0c1.38 0 2.497-1.12 2.497-2.5a2.501 2.501 0 1 0-2.497 2.5m-7.003 0a2.501 2.501 0 1 0-.002-5.002A2.501 2.501 0 0 0 232.5 131m-7 0a2.5 2.5 0 1 0 0-5 2.5 2.5 0 0 0 0 5m-7 0a2.5 2.5 0 1 0-.001-5 2.5 2.5 0 0 0 .001 5m-7 0a2.5 2.5 0 1 0 0-5.001 2.5 2.5 0 0 0 0 5.001m-6.5-2.5a.5.5 0 1 0-1 0 .5.5 0 0 0 1 0m-42.5 2.5a2.5 2.5 0 1 0 0-5 2.5 2.5 0 0 0 0 5m-7.001 0a2.5 2.5 0 1 0 0 0M21.5 131a2.5 2.5 0 1 0-.002-5 2.5 2.5 0 0 0 .002 5m-7.001 0a2.5 2.5 0 1 0-.002-5.002A2.5 2.5 0 0 0 14.5 131m-7 0a2.5 2.5 0 1 0 0-5 2.5 2.5 0 0 0 0 5m-7 0a2.5 2.5 0 1 0 0-5 2.5 2.5 0 0 0 0 5m-7 0a2.5 2.5 0 1 0 0-5 2.5 2.5 0 0 0 0 5m-7 0a2.5 2.5 0 1 0 0-5 2.5 2.5 0 0 0 0 5m-7 0a2.5 2.5 0 1 0 0-5 2.5 2.5 0 0 0 0 5m-7 0a2.5 2.5 0 1 0-.001-5 2.5 2.5 0 0 0 .002 5m-7.001 0a2.5 2.5 0 1 0-.002-5.002A2.5 2.5 0 0 0-34.5 131m-7 0a2.5 2.5 0 1 0-.001-5.002 2.5 2.5 0 0 0 0 5.002m-7 0a2.501 2.501 0 1 0 0-5.002 2.501 2.501 0 0 0 0 5.002m450.001-7a2.5 2.5 0 1 0-.001-5 2.5 2.5 0 0 0 .001 5m-6.997 0c1.38 0 2.497-1.12 2.497-2.5 0-1.381-1.117-2.5-2.497-2.5a2.502 2.502 0 0 0-2.503 2.5c0 1.38 1.121 2.5 2.503 2.5m-7.003-5a2.5 2.5 0 1 0 0 4.999 2.5 2.5 0 0 0 0-4.999m-7 5a2.5 2.5 0 1 0 0-5 2.5 2.5 0 0 0 0 5m-6.998 0c1.38 0 2.498-1.12 2.498-2.5 0-1.381-1.118-2.5-2.498-2.5a2.501 2.501 0 0 0-2.502 2.5c0 1.38 1.121 2.5 2.502 2.5m-7.002 0a2.5 2.5 0 1 0 .001-5 2.5 2.5 0 0 0-.001 5m-7 0a2.5 2.5 0 1 0 0-5 2.5 2.5 0 0 0 0 5m-7 0a2.501 2.501 0 1 0-.003-4.998A2.501 2.501 0 0 0 352.5 124m-7 0a2.5 2.5 0 1 0 0-4.999 2.5 2.5 0 0 0 0 4.999m-7.002 0a2.501 2.501 0 1 0 .002-5.002 2.501 2.501 0 0 0-.002 5.002m-6.998 0a2.501 2.501 0 1 0-.002-5.002A2.501 2.501 0 0 0 331.5 124m-7.001 0a2.5 2.5 0 1 0 0-5.001 2.5 2.5 0 0 0 0 5.001m-6.999 0a2.5 2.5 0 1 0 0-5 2.5 2.5 0 0 0 0 5m-7.001 0a2.5 2.5 0 1 0 0-5.001 2.5 2.5 0 0 0 0 5.001m-6.998 0a2.5 2.5 0 1 0-.001-5 2.5 2.5 0 0 0 .001 5m-7.001 0a2.5 2.5 0 1 0 .001-5 2.5 2.5 0 0 0-.001 5m-7.002 0a2.501 2.501 0 1 0 .001-5.002 2.501 2.501 0 0 0 0 5.002m-6.998 0a2.5 2.5 0 0 0 0-5 2.5 2.5 0 1 0 0 5m-7.001 0a2.5 2.5 0 1 0 .001-5 2.5 2.5 0 0 0-.001 5m-7 0a2.5 2.5 0 1 0 0-4.999 2.5 2.5 0 0 0 0 4.999m-14.997 0c1.379 0 2.497-1.12 2.497-2.5 0-1.381-1.118-2.5-2.497-2.5a2.502 2.502 0 0 0-2.503 2.5c0 1.38 1.121 2.5 2.503 2.5m-7.003 0a2.5 2.5 0 1 0 .001-5 2.5 2.5 0 0 0-.001 5m-14-5a2.5 2.5 0 1 0 0 5 2.5 2.5 0 0 0 0-5m-7 5c1.382 0 2.5-1.12 2.5-2.5a2.5 2.5 0 1 0-2.5 2.5m-7 0a2.5 2.5 0 1 0 0-5 2.501 2.501 0 0 0 0 5m-4.5-2.5a2.499 2.499 0 1 0-5 0 2.501 2.501 0 0 0 5 0m-9.501 2.5a2.5 2.5 0 1 0 0-5.002 2.5 2.5 0 0 0 0 5.002M190 122a1 1 0 1 0 2 0 1 1 0 0 0-2 0m-20.501 2a2.501 2.501 0 1 0 0-5 2.5 2.5 0 0 0 0 5m-6.998 0a2.5 2.5 0 0 0 0-5 2.5 2.5 0 1 0 0 5m-7.001 0a2.5 2.5 0 1 0 0-5 2.5 2.5 0 0 0 0 5m-119 0a2.5 2.5 0 1 0-.001-5 2.5 2.5 0 0 0 .001 5m-7 0a2.5 2.5 0 1 0 0-5 2.5 2.5 0 0 0 0 5m-8 0a2.5 2.5 0 1 0-.001-5.001A2.5 2.5 0 0 0 21.5 124m-7 0a2.5 2.5 0 1 0 0-5.001 2.5 2.5 0 0 0 0 5.001m-7 0a2.5 2.5 0 1 0 0-4.999 2.5 2.5 0 0 0 0 4.999m-7 0a2.5 2.5 0 1 0 0-5 2.5 2.5 0 0 0 0 5m-7 0a2.5 2.5 0 1 0 0-4.999 2.5 2.5 0 0 0 0 4.999m-7 0a2.5 2.5 0 1 0-.001-5.001A2.5 2.5 0 0 0-13.5 124m-7 0a2.5 2.5 0 1 0 0-4.999 2.5 2.5 0 0 0 0 4.999m-7 0a2.5 2.5 0 1 0-.001-5.001A2.5 2.5 0 0 0-27.5 124m-7 0a2.5 2.5 0 1 0 0-5.001 2.5 2.5 0 0 0 0 5.001m-7 0a2.5 2.5 0 1 0-.001-5 2.5 2.5 0 0 0 .001 5m-7 0a2.5 2.5 0 1 0-.001-5.001A2.5 2.5 0 0 0-48.5 124m-7-5a2.5 2.5 0 1 0 0 5 2.5 2.5 0 0 0 0-5m464.001-2a2.5 2.5 0 1 0 0-4.998 2.5 2.5 0 0 0 0 4.998m-7.002 0a2.5 2.5 0 1 0 .002-5 2.5 2.5 0 0 0-.002 5m-7 0a2.5 2.5 0 1 0 .002-4.999A2.5 2.5 0 0 0 394.5 117m-7 0c1.382 0 2.5-1.119 2.5-2.5a2.5 2.5 0 1 0-5 0 2.5 2.5 0 0 0 2.5 2.5m-7 0c1.382 0 2.5-1.119 2.5-2.5a2.499 2.499 0 1 0-5 0 2.5 2.5 0 0 0 2.5 2.5m-6.999 0a2.5 2.5 0 1 0-.001-5 2.5 2.5 0 0 0 .001 5m-7 0c1.38 0 2.499-1.119 2.499-2.5a2.5 2.5 0 1 0-5 0 2.5 2.5 0 0 0 2.5 2.5m-7 0a2.499 2.499 0 1 0 0-5 2.5 2.5 0 0 0 0 5m-7.001 0a2.501 2.501 0 1 0 0-5.002 2.501 2.501 0 0 0 0 5.002m-6.998 0a2.499 2.499 0 0 0 2.499-2.5 2.499 2.499 0 1 0-5 0c0 1.381 1.121 2.5 2.501 2.5m-7.003 0a2.5 2.5 0 1 0 .003-5.001 2.5 2.5 0 0 0-.003 5.001m-6.998 0a2.5 2.5 0 1 0 0-5.001 2.5 2.5 0 0 0 0 5.001m-7.001 0a2.501 2.501 0 1 0 0-5 2.5 2.5 0 0 0 0 5m-6.999 0a2.5 2.5 0 1 0 0-5 2.5 2.5 0 0 0 0 5m-7 0a2.5 2.5 0 1 0 0-5 2.5 2.5 0 1 0 0 5m-7 0a2.5 2.5 0 1 0 0-5.001 2.5 2.5 0 0 0 0 5.001m-7 0a2.5 2.5 0 1 0 0-5 2.5 2.5 0 1 0 0 5m-7 0a2.5 2.5 0 1 0 0-5 2.5 2.5 0 0 0 0 5m-7 0a2.5 2.5 0 1 0 0-5 2.5 2.5 0 0 0 0 5m-7-5a2.5 2.5 0 1 0-.001 4.999A2.5 2.5 0 0 0 275.5 112m-7 5a2.499 2.499 0 1 0 0-5 2.5 2.5 0 1 0 0 5m-7-5a2.5 2.5 0 1 0 0 5 2.5 2.5 0 0 0 0-5m-15 5a2.5 2.5 0 1 0 .002-4.998A2.5 2.5 0 0 0 246.5 117m-7 0c1.382 0 2.5-1.119 2.5-2.5a2.499 2.499 0 1 0-5 0 2.5 2.5 0 0 0 2.5 2.5m-18.5-2.5c0-1.382-1.118-2.5-2.5-2.5a2.499 2.499 0 1 0 0 5 2.5 2.5 0 0 0 2.5-2.5m-9.501 2.5a2.501 2.501 0 1 0 0-5.002 2.501 2.501 0 0 0 0 5.002m-7 0a2.5 2.5 0 1 0 .001-5 2.5 2.5 0 0 0 0 5m-7 0a2.5 2.5 0 1 0 0-5 2.5 2.5 0 0 0 0 5m-14 0a2.5 2.5 0 1 0 .001-4.999 2.5 2.5 0 0 0 0 4.999m-7 0a2.499 2.499 0 1 0 0-5 2.5 2.5 0 1 0 0 5m-7.001 0a2.5 2.5 0 1 0 .001-5 2.5 2.5 0 0 0-.001 5m-119 0a2.5 2.5 0 1 0 0-5 2.5 2.5 0 0 0 0 5m-7 0a2.5 2.5 0 1 0 .001-5 2.5 2.5 0 0 0-.001 5m-7 0a2.5 2.5 0 1 0 0-5 2.5 2.5 0 0 0 0 5m-7 0a2.5 2.5 0 1 0 0-5 2.5 2.5 0 0 0 0 5m-15 0a2.5 2.5 0 1 0 0-5 2.5 2.5 0 0 0 0 5m-7 0a2.499 2.499 0 1 0 0-5 2.5 2.5 0 1 0 0 5m-7 0a2.5 2.5 0 1 0 .001-4.999A2.5 2.5 0 0 0 .5 117m-7 0a2.5 2.5 0 1 0 .001-4.999A2.5 2.5 0 0 0-6.5 117m-7 0a2.5 2.5 0 1 0 0-5 2.5 2.5 0 0 0 0 5m-7 0a2.5 2.5 0 1 0 .001-5 2.5 2.5 0 0 0-.001 5m-7 0a2.5 2.5 0 1 0 0-5 2.5 2.5 0 0 0 0 5m-7 0a2.5 2.5 0 1 0 0-5 2.5 2.5 0 0 0 0 5m-7 0a2.5 2.5 0 1 0 0-5 2.5 2.5 0 0 0 0 5m-7 0a2.5 2.5 0 1 0 0-5 2.5 2.5 0 0 0 0 5m-7 0a2.5 2.5 0 1 0 0-5 2.5 2.5 0 0 0 0 5m470.999-7a2.501 2.501 0 1 0 0-5.002 2.501 2.501 0 0 0 0 5.002m-6.997 0a2.5 2.5 0 1 0-.003-5 2.5 2.5 0 0 0 .003 5m-7.002 0a2.5 2.5 0 1 0 0-5 2.5 2.5 0 0 0 0 5m-7 0a2.5 2.5 0 1 0 0-5 2.5 2.5 0 0 0 0 5m-6.999 0a2.5 2.5 0 1 0 0-4.999 2.5 2.5 0 0 0 0 4.999m-7 0a2.5 2.5 0 1 0 0-4.999 2.5 2.5 0 0 0 0 4.999m-6.999 0a2.5 2.5 0 1 0-.003-5 2.5 2.5 0 0 0 .003 5m-7.003 0a2.501 2.501 0 1 0 0-5.002 2.501 2.501 0 0 0 0 5.002m-6.999 0a2.5 2.5 0 1 0 0-5 2.5 2.5 0 0 0 0 5m-7 0a2.501 2.501 0 1 0-.002-5.002A2.501 2.501 0 0 0 352.5 110m-7 0a2.5 2.5 0 1 0-.001-5.002 2.5 2.5 0 0 0 0 5.002m-7 0a2.501 2.501 0 1 0 0-5.002 2.501 2.501 0 0 0 0 5.002m-6.999 0a2.5 2.5 0 1 0-.001-5 2.5 2.5 0 0 0 .001 5m-7.003 0a2.501 2.501 0 1 0 0 0m-6.996 0a2.501 2.501 0 1 0-.004-5.002A2.501 2.501 0 0 0 317.5 110m-7.001 0a2.5 2.5 0 1 0 0-5 2.5 2.5 0 0 0 0 5m-7 0a2.5 2.5 0 1 0 0-5 2.5 2.5 0 0 0 0 5m-7 0a2.5 2.5 0 1 0-.002-5.001A2.5 2.5 0 0 0 296.5 110m-7 0a2.5 2.5 0 1 0 0-5 2.5 2.5 0 0 0 0 5m-7 0a2.5 2.5 0 1 0 0-5 2.5 2.5 0 0 0 0 5m-7.001 0a2.501 2.501 0 1 0 0-5.002 2.501 2.501 0 0 0 0 5.002m-6.997 0a2.5 2.5 0 0 0 2.498-2.5 2.5 2.5 0 1 0-2.498 2.5m-7.002 0a2.5 2.5 0 1 0 0-5 2.5 2.5 0 0 0 0 5m-7.999 0a2.5 2.5 0 1 0-.002-5 2.5 2.5 0 0 0 .002 5m-7 0a2.5 2.5 0 1 0 0-5 2.5 2.5 0 0 0 0 5m-7 0a2.5 2.5 0 1 0 0-4.999 2.5 2.5 0 0 0 0 4.999m-7.001 0a2.501 2.501 0 1 0-.002-5.002A2.501 2.501 0 0 0 232.5 110m-7 0a2.5 2.5 0 1 0 0-5 2.5 2.5 0 0 0 0 5m-7 0a2.501 2.501 0 1 0-.002-5.002A2.501 2.501 0 0 0 218.5 110m-7 0a2.501 2.501 0 1 0-.002-5.002A2.501 2.501 0 0 0 211.5 110m-7.002 0a2.5 2.5 0 1 0 0 0m-6.998 0a2.5 2.5 0 1 0-.002-5.001A2.5 2.5 0 0 0 197.5 110m-7 0a2.5 2.5 0 1 0 0-5 2.5 2.5 0 0 0 0 5m-7.002 0a2.5 2.5 0 1 0 0 0m-6.997 0a2.5 2.5 0 1 0-.001-4.999A2.5 2.5 0 0 0 176.5 110m-7.001 0a2.5 2.5 0 1 0 0-5.001 2.5 2.5 0 0 0 0 5.001m-7-5a2.5 2.5 0 1 0 0 5 2.5 2.5 0 0 0 0-5M70 107.5a1.5 1.5 0 1 0 3 0 1.5 1.5 0 0 0-3 0m-8 0a2.5 2.5 0 1 0 5.001.001A2.5 2.5 0 0 0 62 107.5M50.5 106a1.5 1.5 0 1 0-.001 2.999A1.5 1.5 0 0 0 50.5 106m-7 4a2.5 2.5 0 1 0-.002-5.002A2.5 2.5 0 0 0 43.5 110m-7 0a2.5 2.5 0 1 0 0-5 2.5 2.5 0 0 0 0 5m-8 0a2.5 2.5 0 1 0-.002-5.002A2.5 2.5 0 0 0 28.5 110m-7 0a2.5 2.5 0 1 0 0-5 2.5 2.5 0 0 0 0 5m-7 0a2.5 2.5 0 1 0 0-5 2.5 2.5 0 0 0 0 5m-14 0a2.5 2.5 0 1 0 0-5.001A2.5 2.5 0 0 0 .5 110m-7 0a2.5 2.5 0 1 0 0-5 2.5 2.5 0 0 0 0 5m-7 0a2.501 2.501 0 1 0-.001-5.002 2.501 2.501 0 0 0 0 5.002m-6.999 0a2.5 2.5 0 1 0 0-5 2.5 2.5 0 0 0 0 5m-7 0a2.5 2.5 0 1 0-.002-5.002A2.5 2.5 0 0 0-27.5 110m-7 0a2.5 2.5 0 1 0-.001-5.002 2.5 2.5 0 0 0 0 5.002m-6.998 0a2.5 2.5 0 1 0-.002-5 2.5 2.5 0 0 0 .002 5m-7.002 0a2.501 2.501 0 1 0 0-5.002 2.501 2.501 0 0 0 0 5.002m-6.999 0a2.5 2.5 0 1 0-.002-5.002A2.5 2.5 0 0 0-55.5 110m506.501-11a2 2 0 1 0-.002 4 2 2 0 0 0 .002-4m-35.501 4a2.5 2.5 0 1 0 .002-4.999A2.5 2.5 0 0 0 415.5 103m-7.001 0a2.5 2.5 0 1 0 .001-5.001 2.5 2.5 0 0 0-.001 5.001m-6.999 0a2.499 2.499 0 1 0 0-5 2.5 2.5 0 1 0 0 5m-7 0c1.382 0 2.5-1.119 2.5-2.5s-1.118-2.5-2.5-2.5a2.5 2.5 0 1 0 0 5m-7 0a2.5 2.5 0 1 0 0-5 2.5 2.5 0 0 0 0 5m-7 0a2.5 2.5 0 1 0 0-4.999 2.5 2.5 0 0 0 0 4.999m-6.998 0a2.499 2.499 0 0 0 2.498-2.5 2.5 2.5 0 1 0-2.498 2.5m-7.002 0a2.5 2.5 0 1 0 0-5 2.499 2.499 0 0 0-2.5 2.5c0 1.381 1.118 2.5 2.5 2.5m-6.999 0a2.5 2.5 0 1 0-.002-5 2.5 2.5 0 0 0 .002 5m-7.001 0a2.5 2.5 0 1 0 0-5 2.5 2.5 0 0 0 0 5m-7 0a2.5 2.5 0 1 0 0-5 2.5 2.5 0 1 0 0 5m-7.003 0a2.502 2.502 0 0 0 2.503-2.5c0-1.381-1.121-2.5-2.503-2.5a2.498 2.498 0 0 0-2.497 2.5c0 1.381 1.118 2.5 2.497 2.5m-6.996 0a2.5 2.5 0 1 0 0-4.999 2.5 2.5 0 0 0 0 4.999m-7.003 0a2.5 2.5 0 1 0 .003-5.001 2.5 2.5 0 0 0-.003 5.001m-6.998 0a2.5 2.5 0 1 0 0-5.001 2.5 2.5 0 0 0 0 5.001m-7 0a2.499 2.499 0 1 0 0-5 2.5 2.5 0 1 0 0 5m-7 0a2.5 2.5 0 1 0 0-5 2.5 2.5 0 0 0 0 5m-7 0a2.5 2.5 0 1 0 0-5 2.5 2.5 0 1 0 0 5m-7.001 0a2.5 2.5 0 1 0 .002-5 2.5 2.5 0 0 0-.002 5m-6.999 0a2.5 2.5 0 1 0 0-5 2.5 2.5 0 1 0 0 5m-7 0a2.5 2.5 0 1 0 .002-4.999A2.5 2.5 0 0 0 275.5 103m-7 0a2.5 2.5 0 1 0-.002-5.001A2.5 2.5 0 0 0 268.5 103m-7 0a2.499 2.499 0 1 0-2.5-2.5 2.5 2.5 0 0 0 2.5 2.5m-7.998 0a2.498 2.498 0 0 0 2.498-2.5 2.5 2.5 0 1 0-2.498 2.5m-7.003 0a2.5 2.5 0 1 0 .002-5 2.5 2.5 0 0 0-.002 5m-6.998 0a2.5 2.5 0 1 0 0-4.999 2.5 2.5 0 0 0 0 4.999m-7.001 0a2.5 2.5 0 1 0 0-5 2.5 2.5 0 0 0 0 5m-7 0c1.382 0 2.5-1.119 2.5-2.5s-1.118-2.5-2.5-2.5a2.5 2.5 0 1 0 0 5m-7.002 0a2.501 2.501 0 0 0 2.502-2.5 2.5 2.5 0 1 0-2.502 2.5m-6.998 0a2.5 2.5 0 1 0 0-5 2.5 2.5 0 0 0 0 5m-7.001 0a2.5 2.5 0 1 0 .001-5.001A2.5 2.5 0 0 0 204.5 103m-7 0a2.501 2.501 0 1 0 0-4.998 2.501 2.501 0 0 0 0 4.998m-6.998 0a2.499 2.499 0 0 0 2.499-2.5 2.5 2.5 0 1 0-2.499 2.5m-7.002 0a2.5 2.5 0 1 0 .002-5 2.5 2.5 0 0 0-.002 5m-7 0a2.5 2.5 0 1 0 .001-5 2.5 2.5 0 0 0 0 5m-14 0a2.5 2.5 0 1 0 0-5 2.5 2.5 0 1 0 0 5m-105 0a2.5 2.5 0 1 0 0-5 2.5 2.5 0 0 0 0 5m-7 0a2.5 2.5 0 1 0 0-5 2.5 2.5 0 0 0 0 5m-7 0a2.5 2.5 0 1 0 0-5 2.5 2.5 0 0 0 0 5m-7 0a2.5 2.5 0 1 0 0-5 2.5 2.5 0 0 0 0 5m-8 0a2.5 2.5 0 1 0 0-5 2.5 2.5 0 0 0 0 5m-7 0a2.499 2.499 0 1 0 0-5 2.5 2.5 0 1 0 0 5m-7 0a2.5 2.5 0 1 0 0-5 2.5 2.5 0 0 0 0 5m-7 0a2.5 2.5 0 1 0 0-5 2.5 2.5 0 1 0 0 5m-7 0a2.5 2.5 0 1 0 0-5 2.5 2.5 0 0 0 0 5m-7 0a2.5 2.5 0 1 0 0-5 2.5 2.5 0 0 0 0 5m-7 0a2.5 2.5 0 1 0 0-5 2.5 2.5 0 0 0 0 5m-7 0a2.5 2.5 0 1 0 0-5 2.5 2.5 0 0 0 0 5m-7 0a2.5 2.5 0 1 0 0-4.999 2.5 2.5 0 0 0 0 4.999m-7 0a2.5 2.5 0 1 0 0-5 2.5 2.5 0 0 0 0 5m-7 0a2.5 2.5 0 1 0 0-5 2.5 2.5 0 0 0 0 5m-7 0a2.5 2.5 0 1 0 0-5 2.5 2.5 0 0 0 0 5m-7 0a2.5 2.5 0 1 0 0-4.999 2.5 2.5 0 0 0 0 4.999m506-12a2.5 2.5 0 1 0 0 4.999 2.5 2.5 0 0 0 0-4.999m-35 5a2.5 2.5 0 1 0 .002-4.999A2.5 2.5 0 0 0 415.5 96m-7 0a2.5 2.5 0 1 0 0-5.002 2.5 2.5 0 0 0 0 5.002m-7.001 0a2.5 2.5 0 1 0 .002-5 2.5 2.5 0 0 0-.002 5m-6.998 0A2.498 2.498 0 0 0 397 93.5a2.499 2.499 0 1 0-5 0c0 1.381 1.121 2.5 2.501 2.5m-7 0a2.499 2.499 0 1 0 0-5 2.5 2.5 0 0 0 0 5m-7.002 0a2.5 2.5 0 1 0 .002-5 2.5 2.5 0 0 0-.002 5m-6.996 0A2.498 2.498 0 0 0 376 93.5a2.499 2.499 0 1 0-5 0c0 1.381 1.121 2.5 2.503 2.5m-7.003 0a2.5 2.5 0 1 0 .002-4.999A2.5 2.5 0 0 0 366.5 96m-7 0a2.5 2.5 0 1 0 .001-4.998 2.5 2.5 0 0 0 0 4.998m-7.002 0A2.501 2.501 0 0 0 355 93.5a2.5 2.5 0 1 0-2.501 2.5m-6.999 0a2.5 2.5 0 1 0 .001-4.998 2.5 2.5 0 0 0 0 4.998m-7.003 0a2.5 2.5 0 1 0 .003-5.001 2.5 2.5 0 0 0-.003 5.001m-6.998 0a2.5 2.5 0 1 0 0-5.001 2.5 2.5 0 0 0 0 5.001m-7.001 0a2.5 2.5 0 1 0 .002-5 2.5 2.5 0 0 0-.002 5m-6.999 0a2.5 2.5 0 1 0 0-5 2.5 2.5 0 0 0 0 5m-7.001 0a2.5 2.5 0 1 0 .002-5 2.5 2.5 0 0 0-.002 5m-6.998 0a2.5 2.5 0 1 0 0-4.999 2.5 2.5 0 0 0 0 4.999m-7 0a2.5 2.5 0 1 0 0-4.998 2.5 2.5 0 0 0 0 4.998m-7.001 0a2.5 2.5 0 1 0 .002-4.999A2.5 2.5 0 0 0 289.5 96m-6.999 0a2.5 2.5 0 1 0-.004-5.002 2.5 2.5 0 0 0 .004 5.002m-7 0a2.499 2.499 0 1 0 0-5 2.501 2.501 0 0 0 0 5m-6.999 0A2.5 2.5 0 1 0 266 93.5a2.5 2.5 0 0 0 2.502 2.5m-7.003 0a2.5 2.5 0 1 0 .002-5 2.5 2.5 0 0 0-.002 5m-7.996 0A2.498 2.498 0 0 0 256 93.5c0-1.38-1.117-2.5-2.497-2.5A2.502 2.502 0 0 0 251 93.5c0 1.381 1.121 2.5 2.503 2.5m-7.003 0a2.5 2.5 0 1 0 .002-4.999A2.5 2.5 0 0 0 246.5 96m-7 0a2.5 2.5 0 1 0 .001-5 2.5 2.5 0 0 0-.001 5m-7 0a2.5 2.5 0 1 0 0-5 2.5 2.5 0 0 0 0 5m-7 0a2.5 2.5 0 1 0 0-5.002 2.5 2.5 0 0 0 0 5.002m-7.001 0a2.5 2.5 0 1 0 .001-5.001A2.5 2.5 0 0 0 218.5 96m-7 0A2.501 2.501 0 0 0 214 93.5a2.5 2.5 0 1 0-2.501 2.5m-7 0a2.5 2.5 0 1 0 .001-5.001A2.5 2.5 0 0 0 204.5 96m-7 0a2.5 2.5 0 1 0 0-5 2.5 2.5 0 0 0 0 5m-7 0a2.5 2.5 0 1 0 .001-5 2.5 2.5 0 0 0 0 5m-7 0a2.5 2.5 0 1 0 .001-4.999A2.5 2.5 0 0 0 183.5 96m-20.499 0a2 2 0 1 0-.001-4 2 2 0 0 0 .001 4m-7.501 0a2.5 2.5 0 1 0 0-5 2.5 2.5 0 0 0 0 5M55 93.5a2.5 2.5 0 1 0 4.999 0 2.5 2.5 0 0 0-4.999 0M50.5 96a2.5 2.5 0 1 0 0-4.999 2.5 2.5 0 0 0 0 4.999m-7 0a2.5 2.5 0 1 0 0-5 2.5 2.5 0 0 0 0 5m-7 0a2.5 2.5 0 1 0 0-4.999 2.5 2.5 0 0 0 0 4.999m-8 0a2.5 2.5 0 1 0 0-5 2.5 2.5 0 0 0 0 5m-14 0a2.5 2.5 0 1 0 .001-5 2.5 2.5 0 0 0-.001 5m-7 0a2.5 2.5 0 1 0 0-5 2.5 2.5 0 0 0 0 5m-7 0a2.5 2.5 0 1 0 0-5 2.5 2.5 0 0 0 0 5m-7 0a2.5 2.5 0 1 0 0-4.999A2.5 2.5 0 0 0-6.5 96m-7 0a2.5 2.5 0 1 0 0-5 2.5 2.5 0 0 0 0 5m-7 0a2.5 2.5 0 1 0 0-5 2.5 2.5 0 0 0 0 5m-7 0a2.5 2.5 0 1 0 0-5 2.5 2.5 0 0 0 0 5m-7 0a2.5 2.5 0 1 0 0-5 2.5 2.5 0 0 0 0 5m-7 0a2.5 2.5 0 1 0 0-4.999 2.5 2.5 0 0 0 0 4.999m-7 0a2.5 2.5 0 1 0 0-5 2.5 2.5 0 0 0 0 5m-7 0a2.5 2.5 0 1 0 0-4.999 2.5 2.5 0 0 0 0 4.999m-7-5a2.5 2.5 0 1 0 0 5 2.5 2.5 0 0 0 0-5m520-7a2.5 2.5 0 1 0 0 4.999 2.5 2.5 0 0 0 0-4.999m-7 5a2.5 2.5 0 1 0 0-5 2.5 2.5 0 0 0 0 5M415.5 89a2.5 2.5 0 1 0 .002-5 2.5 2.5 0 0 0-.002 5m-6.999 0c1.382 0 2.5-1.119 2.5-2.5s-1.118-2.5-2.5-2.5a2.5 2.5 0 1 0 0 5m-7 0a2.5 2.5 0 1 0 .002-4.999A2.5 2.5 0 0 0 401.5 89m-7 0a2.5 2.5 0 1 0 .001-5 2.5 2.5 0 0 0-.001 5m-6.999 0A2.499 2.499 0 0 0 390 86.5a2.501 2.501 0 1 0-2.499 2.5m-7.001 0a2.5 2.5 0 1 0 .002-4.999A2.5 2.5 0 0 0 380.5 89m-6.999 0a2.5 2.5 0 1 0-.002-5 2.5 2.5 0 0 0 .002 5m-7 0a2.499 2.499 0 1 0 0-5 2.5 2.5 0 1 0 0 5m-7 0a2.5 2.5 0 1 0 0-4.998 2.5 2.5 0 0 0 0 4.998m-7.001 0a2.5 2.5 0 1 0 0-5 2.5 2.5 0 0 0 0 5m-6.999 0a2.5 2.5 0 1 0-.002-5 2.5 2.5 0 0 0 .002 5m-7.003 0a2.5 2.5 0 1 0 .003-5.001 2.5 2.5 0 0 0-.003 5.001m-6.998 0a2.5 2.5 0 1 0 0-5 2.5 2.5 0 0 0 0 5m-7.003 0A2.502 2.502 0 0 0 327 86.5c0-1.381-1.121-2.5-2.503-2.5A2.497 2.497 0 0 0 322 86.5c0 1.381 1.117 2.5 2.497 2.5m-6.996 0a2.5 2.5 0 1 0 0-4.999 2.5 2.5 0 0 0 0 4.999m-7.001 0a2.5 2.5 0 1 0 .002-4.999A2.5 2.5 0 0 0 310.5 89m-7.002 0a2.501 2.501 0 1 0 .002-5.002 2.501 2.501 0 0 0-.002 5.002m-6.997 0A2.499 2.499 0 0 0 299 86.5a2.499 2.499 0 1 0-5 0 2.5 2.5 0 0 0 2.501 2.5m-7.001 0a2.5 2.5 0 1 0 .002-4.999A2.5 2.5 0 0 0 289.5 89m-7 0a2.501 2.501 0 1 0-.002-5.002A2.501 2.501 0 0 0 282.5 89m-7.001 0a2.5 2.5 0 1 0 .002-5 2.5 2.5 0 0 0-.002 5m-6.997 0A2.499 2.499 0 0 0 271 86.5a2.499 2.499 0 1 0-5 0 2.5 2.5 0 0 0 2.502 2.5m-7.002 0a2.5 2.5 0 1 0 .002-4.999A2.5 2.5 0 0 0 261.5 89m-7.999 0a2.5 2.5 0 1 0 0-4.999 2.5 2.5 0 0 0 0 4.999m-7 0a2.499 2.499 0 1 0 0-5 2.5 2.5 0 1 0 0 5m-7 0c1.381 0 2.499-1.119 2.499-2.5s-1.118-2.5-2.5-2.5a2.5 2.5 0 1 0 0 5m-7.001 0A2.501 2.501 0 0 0 235 86.5a2.499 2.499 0 1 0-5 0c0 1.381 1.118 2.5 2.499 2.5m-6.998 0a2.5 2.5 0 1 0 0-4.999 2.5 2.5 0 0 0 0 4.999m-7.002 0a2.5 2.5 0 1 0 .001-5.001A2.5 2.5 0 0 0 218.5 89m-7 0a2.5 2.5 0 1 0 0-5 2.5 2.5 0 0 0 0 5M197.5 84a2.499 2.499 0 1 0 0 5 2.501 2.501 0 0 0 0-5m-14.002 5a2.5 2.5 0 1 0 .002-5.002 2.5 2.5 0 0 0-.002 5.002M162.5 88a1.5 1.5 0 1 0 .001-2.999A1.5 1.5 0 0 0 162.5 88m-112 1a2.5 2.5 0 1 0 0-5 2.5 2.5 0 0 0 0 5m-7 0a2.5 2.5 0 1 0 0-5 2.5 2.5 0 0 0 0 5m-7 0a2.5 2.5 0 1 0 0-5 2.5 2.5 0 0 0 0 5m-29 0a2.499 2.499 0 1 0 0-5 2.5 2.5 0 1 0 0 5m-7 0a2.5 2.5 0 1 0 0-5 2.5 2.5 0 0 0 0 5m-7 0a2.5 2.5 0 1 0 0-4.999A2.5 2.5 0 0 0-6.5 89m-7 0a2.5 2.5 0 1 0 0-5 2.5 2.5 0 0 0 0 5m-7 0a2.5 2.5 0 1 0 0-5 2.5 2.5 0 0 0 0 5m-7 0a2.5 2.5 0 1 0 0-5 2.5 2.5 0 0 0 0 5m-7.001 0a2.5 2.5 0 1 0 .002-5 2.5 2.5 0 0 0-.002 5m-6.999 0a2.5 2.5 0 1 0 0-5 2.5 2.5 0 0 0 0 5m-7 0a2.5 2.5 0 1 0 0-5 2.5 2.5 0 0 0 0 5m-7 0a2.5 2.5 0 1 0 0-5 2.5 2.5 0 0 0 0 5m-7 0a2.5 2.5 0 1 0 0-4.999 2.5 2.5 0 0 0 0 4.999m-7-5a2.5 2.5 0 1 0 0 5 2.5 2.5 0 0 0 0-5m-6.5 1a2 2 0 1 0 0 4 2 2 0 0 0 0-4m-42.5 0a1.5 1.5 0 1 0-.001 2.999A1.5 1.5 0 0 0-118.5 85M455 79.5a2.5 2.5 0 1 0 5 0 2.5 2.5 0 0 0-5 0M443.498 82a2.501 2.501 0 1 0 0 0M422.5 82a2.5 2.5 0 1 0-.002-5.001A2.5 2.5 0 0 0 422.5 82m-7 0a2.5 2.5 0 1 0 0-5 2.5 2.5 0 0 0 0 5m-6.999 0a2.5 2.5 0 1 0-.003-5 2.5 2.5 0 0 0 .003 5m-7.001 0a2.5 2.5 0 1 0 0-5 2.5 2.5 0 0 0 0 5m-7 0a2.5 2.5 0 1 0 0-5 2.5 2.5 0 0 0 0 5m-7 0c1.38 0 2.5-1.12 2.5-2.5a2.501 2.501 0 0 0-5 0c0 1.38 1.12 2.5 2.5 2.5m-7 0a2.5 2.5 0 1 0 0-5 2.5 2.5 0 0 0 0 5m-6.998 0a2.5 2.5 0 1 0-.004-5 2.5 2.5 0 0 0 .004 5m-7.003 0a2.5 2.5 0 1 0 .001-4.999 2.5 2.5 0 0 0-.001 4.999m-6.998 0a2.5 2.5 0 1 0-.002-5 2.5 2.5 0 0 0 .002 5m-7.001 0a2.5 2.5 0 1 0 0-4.999 2.5 2.5 0 0 0 0 4.999m-7 0a2.501 2.501 0 1 0-.002-5.002A2.501 2.501 0 0 0 345.5 82m-7.001 0c1.38 0 2.501-1.12 2.501-2.5s-1.121-2.5-2.501-2.5a2.5 2.5 0 0 0 0 5m-6.999 0a2.5 2.5 0 1 0-.002-5.001A2.5 2.5 0 0 0 331.5 82m-7.002 0a2.501 2.501 0 1 0 0 0m-7 0A2.502 2.502 0 0 0 320 79.5a2.5 2.5 0 1 0-2.502 2.5m-6.998 0a2.5 2.5 0 1 0 0-5 2.5 2.5 0 0 0 0 5m-7.002 0a2.501 2.501 0 1 0 0 0m-6.998 0c1.379 0 2.5-1.12 2.5-2.5s-1.121-2.5-2.5-2.5a2.5 2.5 0 1 0 0 5m-7 0a2.5 2.5 0 1 0 0-5 2.5 2.5 0 0 0 0 5m-7 0a2.501 2.501 0 0 0 0-5 2.5 2.5 0 1 0 0 5m-7 0a2.5 2.5 0 1 0 0-5 2.5 2.5 0 0 0 0 5m-6.997 0a2.5 2.5 0 1 0-.006-5 2.5 2.5 0 0 0 .006 5m-7.003 0a2.5 2.5 0 1 0 0-5 2.5 2.5 0 0 0 0 5m-7.998 0a2.5 2.5 0 1 0-.003-4.999 2.5 2.5 0 0 0 .003 4.999m-7.003 0a2.5 2.5 0 1 0 .001-4.999 2.5 2.5 0 0 0-.001 4.999m-6.998 0a2.5 2.5 0 1 0 0-4.999 2.5 2.5 0 0 0 0 4.999m-7.001 0a2.5 2.5 0 1 0 0-4.999 2.5 2.5 0 0 0 0 4.999m-7 0a2.5 2.5 0 1 0 0-5.002 2.5 2.5 0 0 0 0 5.002m-7 0a2.5 2.5 0 1 0-.002-5.001A2.5 2.5 0 0 0 218.5 82m-7 0a2.5 2.5 0 1 0 0-4.999 2.5 2.5 0 0 0 0 4.999m-14 0c1.379 0 2.5-1.12 2.5-2.5s-1.121-2.5-2.5-2.5a2.5 2.5 0 1 0 0 5m-7 0a2.5 2.5 0 1 0 0-5 2.5 2.5 0 0 0 0 5m-7 0a2.5 2.5 0 1 0 0-5 2.5 2.5 0 0 0 0 5m-133 0a2.501 2.501 0 0 0 0-5 2.5 2.5 0 1 0 0 5m-14 0a2.5 2.5 0 1 0 0-5 2.5 2.5 0 0 0 0 5m-8 0a2.5 2.5 0 1 0 0-4.999 2.5 2.5 0 0 0 0 4.999m-35 0a2.5 2.5 0 1 0-.002-5.001A2.5 2.5 0 0 0-6.499 82m-7 0a2.5 2.5 0 1 0-.003-5.001A2.5 2.5 0 0 0-13.499 82m-7.002 0a2.5 2.5 0 1 0 0-4.999 2.5 2.5 0 0 0 0 4.999m-6.999 0a2.501 2.501 0 0 0 0-5 2.5 2.5 0 1 0 0 5m-7 0a2.5 2.5 0 1 0-.001-5.001A2.5 2.5 0 0 0-34.5 82m-7 0a2.501 2.501 0 0 0 0-5 2.5 2.5 0 1 0 0 5m-7 0a2.5 2.5 0 1 0 0-4.999 2.5 2.5 0 0 0 0 4.999m-7 0a2.5 2.5 0 1 0 0-5 2.5 2.5 0 0 0 0 5m-7 0a2.5 2.5 0 1 0 0-5.002 2.5 2.5 0 0 0 0 5.002m-7 0a2.5 2.5 0 1 0 0-5 2.5 2.5 0 0 0 0 5m-7-5a2.5 2.5 0 1 0 .001 5.001A2.5 2.5 0 0 0-76.5 77m-35 0a2.5 2.5 0 1 0 0 5 2.5 2.5 0 0 0 0-5m-7 0a2.5 2.5 0 1 0 .001 5.001A2.5 2.5 0 0 0-118.5 77m596.999-2a2.5 2.5 0 1 0 .002-5 2.5 2.5 0 0 0-.002 5m-6.998 0a2.5 2.5 0 1 0 0-4.999 2.5 2.5 0 0 0 0 4.999m-7-5a2.5 2.5 0 1 0-.002 5 2.5 2.5 0 0 0 .001-5m-14 5a2.501 2.501 0 0 0 0-5 2.5 2.5 0 0 0 0 5m-7.002 0a2.5 2.5 0 1 0 .003-5.001 2.5 2.5 0 0 0-.003 5.001m-6.998 0a2.5 2.5 0 1 0 0-5 2.5 2.5 0 0 0 0 5m-7.001 0a2.5 2.5 0 1 0 .002-5 2.5 2.5 0 0 0-.002 5m-6.998 0a2.5 2.5 0 1 0 0-4.999 2.5 2.5 0 0 0 0 4.999m-7.001 0a2.5 2.5 0 1 0 .002-4.999A2.5 2.5 0 0 0 415.5 75m-7 0a2.5 2.5 0 1 0 .001-5 2.5 2.5 0 0 0-.001 5m-7 0a2.499 2.499 0 1 0 0-5 2.5 2.5 0 0 0 0 5m-7 0a2.5 2.5 0 1 0 0-5.002 2.5 2.5 0 0 0 0 5.002m-6.999 0a2.499 2.499 0 0 0 0-5 2.501 2.501 0 1 0 0 5m-7 0a2.5 2.5 0 1 0-.001-5 2.5 2.5 0 0 0 0 5m-6.998 0A2.5 2.5 0 1 0 371 72.5a2.5 2.5 0 0 0 2.502 2.5m-7.002 0a2.5 2.5 0 1 0 .002-4.999A2.5 2.5 0 0 0 366.5 75m-7 0a2.5 2.5 0 1 0 0-5 2.5 2.5 0 0 0 0 5m-7 0a2.5 2.5 0 1 0 0-5 2.5 2.5 0 0 0 0 5m-7 0a2.5 2.5 0 1 0 .001-4.998 2.5 2.5 0 0 0 0 4.998m-7.004 0A2.502 2.502 0 0 0 341 72.5a2.499 2.499 0 1 0-5 0c0 1.381 1.118 2.5 2.497 2.5m-6.996 0a2.5 2.5 0 1 0-.003-5 2.5 2.5 0 0 0 .003 5m-7.003 0a2.5 2.5 0 1 0 .003-5.001 2.5 2.5 0 0 0-.003 5.001m-7 0a2.5 2.5 0 1 0 .003-5 2.5 2.5 0 0 0-.002 5m-7 0a2.5 2.5 0 1 0 .001-5 2.5 2.5 0 0 0 0 5m-7.001 0a2.5 2.5 0 1 0 .002-5 2.5 2.5 0 0 0-.002 5m-6.999 0a2.5 2.5 0 1 0 0-5 2.5 2.5 0 0 0 0 5m-7.001 0a2.5 2.5 0 1 0 .002-5 2.5 2.5 0 0 0-.002 5m-6.998 0a2.5 2.5 0 1 0-.002-5 2.5 2.5 0 0 0 .002 5m-7.001 0a2.5 2.5 0 1 0 .002-4.999A2.5 2.5 0 0 0 275.5 75m-6.998 0A2.498 2.498 0 0 0 271 72.5a2.499 2.499 0 1 0-5 0 2.5 2.5 0 0 0 2.502 2.5m-7.002 0a2.5 2.5 0 1 0 0-5 2.5 2.5 0 0 0 0 5m-7.998 0A2.498 2.498 0 0 0 256 72.5a2.499 2.499 0 1 0-5 0 2.5 2.5 0 0 0 2.502 2.5m-7.002 0a2.5 2.5 0 1 0 .002-4.999A2.5 2.5 0 0 0 246.5 75m-7 0a2.5 2.5 0 1 0 .001-5 2.5 2.5 0 0 0-.001 5m-7 0a2.5 2.5 0 1 0 0-5 2.5 2.5 0 0 0 0 5m-7 0a2.5 2.5 0 1 0 .002-4.999A2.5 2.5 0 0 0 225.5 75m-7.001 0a2.501 2.501 0 1 0 0-5 2.5 2.5 0 0 0 0 5m-6.999 0a2.5 2.5 0 1 0 0-5 2.5 2.5 0 0 0 0 5m-14.003 0A2.502 2.502 0 0 0 200 72.5c0-1.38-1.121-2.5-2.503-2.5A2.498 2.498 0 0 0 195 72.5c0 1.381 1.117 2.5 2.497 2.5m-6.996 0a2.5 2.5 0 1 0-.001-5.001 2.5 2.5 0 0 0 .001 5.001m-7.001 0a2.5 2.5 0 1 0 .002-4.999A2.5 2.5 0 0 0 183.5 75m-98 0a2.5 2.5 0 1 0 0-5 2.5 2.5 0 0 0 0 5m-49-5a2.5 2.5 0 1 0 0 5 2.5 2.5 0 0 0 0-5m-8 5a2.5 2.5 0 1 0 0-5 2.5 2.5 0 0 0 0 5m-35 0a2.5 2.5 0 1 0 0-5 2.5 2.5 0 0 0 0 5m-7 0a2.5 2.5 0 1 0 0-5 2.5 2.5 0 0 0 0 5m-7 0a2.5 2.5 0 1 0 0-5 2.5 2.5 0 0 0 0 5m-7 0a2.5 2.5 0 1 0 0-5 2.5 2.5 0 0 0 0 5m-7-5a2.5 2.5 0 1 0 0 4.999 2.5 2.5 0 0 0 0-4.999m-6.5 1a2 2 0 1 0 0 4 2 2 0 0 0 0-4m-7.5 4a2.5 2.5 0 1 0 0-5 2.5 2.5 0 0 0 0 5m-7 0a2.5 2.5 0 1 0 0-5 2.5 2.5 0 0 0 0 5m-7 0a2.5 2.5 0 1 0 0-5 2.5 2.5 0 0 0 0 5m-7 0a2.5 2.5 0 1 0 .002-4.998A2.5 2.5 0 0 0-69.5 75m-7 0a2.5 2.5 0 1 0 .001-5 2.5 2.5 0 0 0-.002 5m-7-5a2.5 2.5 0 1 0 .002 5 2.5 2.5 0 0 0-.001-5m-7 0a2.5 2.5 0 1 0 0 5 2.5 2.5 0 0 0 0-5m-7 0a2.5 2.5 0 1 0 0 5 2.5 2.5 0 0 0 0-5m-7 0a2.5 2.5 0 1 0 0 5.001 2.5 2.5 0 0 0 0-5.001m-7 5a2.5 2.5 0 1 0 0-5 2.5 2.5 0 0 0 0 5m-7 0a2.5 2.5 0 1 0 0-4.999 2.5 2.5 0 0 0 0 4.999m-7-5a2.5 2.5 0 1 0 0 5 2.5 2.5 0 0 0 0-5M486.5 68a2.5 2.5 0 1 0-.001-4.999A2.5 2.5 0 0 0 486.5 68m-8.001 0a2.5 2.5 0 1 0 .001-5 2.5 2.5 0 0 0-.001 5m-7 0a2.5 2.5 0 1 0-.001-5.002 2.5 2.5 0 0 0 0 5.002m-6.998 0c1.38 0 2.499-1.12 2.499-2.5a2.5 2.5 0 1 0-2.499 2.5m-7.003 0a2.5 2.5 0 1 0 .002-5.002 2.5 2.5 0 0 0-.002 5.002m-6.998 0a2.5 2.5 0 1 0-.001-5 2.5 2.5 0 0 0 .001 5m-7.003 0A2.501 2.501 0 1 0 441 65.5a2.5 2.5 0 0 0 2.497 2.5m-6.997 0a2.5 2.5 0 1 0-.001-5 2.5 2.5 0 0 0 .001 5m-7 0a2.5 2.5 0 1 0 .001-5 2.5 2.5 0 0 0-.001 5m-7.002 0a2.501 2.501 0 1 0 .002-5.002 2.501 2.501 0 0 0-.002 5.002m-6.998 0a2.5 2.5 0 1 0 0-5 2.5 2.5 0 1 0 0 5m-7 0c1.382 0 2.5-1.12 2.5-2.5a2.5 2.5 0 1 0-2.5 2.5m-7.001 0a2.5 2.5 0 1 0 0 0m-6.998 0a2.5 2.5 0 1 0-.001-5 2.5 2.5 0 0 0 0 5m-6.999 0a2.5 2.5 0 1 0 0-4.998 2.5 2.5 0 0 0 0 4.998m-7.002 0a2.5 2.5 0 1 0 .001-5.001A2.5 2.5 0 0 0 380.5 68m-6.998 0a2.5 2.5 0 1 0-.002-5 2.5 2.5 0 0 0 .002 5m-7.001 0a2.5 2.5 0 1 0 .001-5 2.5 2.5 0 0 0-.001 5m-7 0a2.5 2.5 0 1 0 0-4.999 2.5 2.5 0 0 0 0 4.999m-7.001 0a2.5 2.5 0 1 0 0 0m-6.998 0c1.38 0 2.499-1.12 2.499-2.5a2.5 2.5 0 1 0-2.499 2.5m-7.003 0a2.5 2.5 0 1 0 .002-5.002 2.5 2.5 0 0 0-.002 5.002m-6.998 0a2.5 2.5 0 1 0-.001-5.002 2.5 2.5 0 0 0 0 5.002m-7 0a2.5 2.5 0 1 0 .001-5 2.5 2.5 0 0 0 0 5m-7.001 0a2.5 2.5 0 1 0 .002-5 2.5 2.5 0 0 0-.002 5m-6.999 0a2.5 2.5 0 1 0 0-4.999 2.5 2.5 0 0 0 0 4.999m-7.003 0A2.501 2.501 0 1 0 301 65.5a2.5 2.5 0 0 0 2.497 2.5m-6.997 0a2.5 2.5 0 1 0-.001-5 2.5 2.5 0 0 0 .001 5m-7 0a2.5 2.5 0 1 0 .001-5 2.5 2.5 0 0 0-.001 5m-7 0a2.5 2.5 0 1 0 0-4.999 2.5 2.5 0 0 0 0 4.999m-7 0a2.5 2.5 0 1 0 0-5 2.5 2.5 0 1 0 0 5m-6.998 0c1.38 0 2.498-1.12 2.498-2.5a2.5 2.5 0 1 0-2.498 2.5m-7.003 0a2.5 2.5 0 1 0 .001-5.001A2.5 2.5 0 0 0 261.5 68m-7.996 0A2.5 2.5 0 0 0 256 65.5c0-1.382-1.119-2.5-2.497-2.5a2.501 2.501 0 1 0 0 5m-7.003 0a2.5 2.5 0 1 0 .001-5 2.5 2.5 0 0 0-.001 5m-7 0c1.382 0 2.5-1.12 2.5-2.5a2.5 2.5 0 1 0-2.5 2.5m-7 0a2.5 2.5 0 1 0 0-4.999 2.5 2.5 0 0 0 0 4.999m-7 0a2.5 2.5 0 1 0 .001-5 2.5 2.5 0 0 0-.001 5m-7 0a2.5 2.5 0 1 0 0-4.999 2.5 2.5 0 0 0 0 4.999m-7.001 0a2.5 2.5 0 1 0 0 0m-6.998 0c1.38 0 2.499-1.12 2.499-2.5a2.5 2.5 0 1 0-2.499 2.5m-7.003 0a2.5 2.5 0 1 0 .002-5.002 2.5 2.5 0 0 0-.002 5.002m-6.998 0a2.5 2.5 0 1 0-.001-5.002 2.5 2.5 0 0 0 0 5.002M134.5 63a2.5 2.5 0 1 0 0 5 2.5 2.5 0 1 0 0-5m-42 5a2.5 2.5 0 1 0 0-5 2.5 2.5 0 0 0 0 5m-7 0a2.5 2.5 0 1 0 0-5 2.5 2.5 0 0 0 0 5m-7 0a2.5 2.5 0 1 0-.001-5.002 2.5 2.5 0 0 0 0 5.002M43.5 68a2.5 2.5 0 1 0 .001-4.999A2.5 2.5 0 0 0 43.5 68m-7 0a2.5 2.5 0 1 0 0-5 2.5 2.5 0 0 0 0 5m-22 0a2.5 2.5 0 1 0 0-5.001 2.5 2.5 0 0 0 0 5.001m-7 0a2.5 2.5 0 1 0 0-5 2.5 2.5 0 0 0 0 5m-7 0a2.5 2.5 0 1 0 0-5 2.5 2.5 0 0 0 0 5m-7 0a2.5 2.5 0 1 0 0-5 2.5 2.5 0 0 0 0 5m-7 0a2.5 2.5 0 1 0 0-5 2.5 2.5 0 0 0 0 5m-7 0a2.5 2.5 0 1 0 0-5.001 2.5 2.5 0 0 0 0 5.001m-7 0a2.5 2.5 0 1 0 0-5 2.5 2.5 0 0 0 0 5m-7 0a2.5 2.5 0 1 0 0-5 2.5 2.5 0 0 0 0 5m-7 0a2.5 2.5 0 1 0 0-5 2.5 2.5 0 0 0 0 5m-7 0a2.5 2.5 0 1 0 0-5 2.5 2.5 0 0 0 0 5m-7 0a2.5 2.5 0 1 0 0-5 2.5 2.5 0 1 0 0 5m-7 0a2.5 2.5 0 1 0 0-5 2.5 2.5 0 0 0 0 5m-7 0a2.5 2.5 0 1 0 0-5 2.5 2.5 0 1 0 0 5m-7 0a2.5 2.5 0 1 0 0-5.001 2.5 2.5 0 0 0 0 5.001m-7 0a2.5 2.5 0 1 0 0-5 2.5 2.5 0 0 0 0 5m-7 0a2.5 2.5 0 1 0 0-5 2.5 2.5 0 0 0 0 5m-7 0a2.5 2.5 0 1 0 0-5.001 2.5 2.5 0 0 0 0 5.001m-7 0a2.5 2.5 0 1 0 0-5 2.5 2.5 0 0 0 0 5m-7 0a2.5 2.5 0 1 0 0-5 2.5 2.5 0 0 0 0 5m-7 0a2.5 2.5 0 1 0 0-5 2.5 2.5 0 0 0 0 5m626-12a2.5 2.5 0 1 0 0 5 2.5 2.5 0 0 0 0-5m-7 0a2.501 2.501 0 1 0 .002 5.002A2.501 2.501 0 0 0 500.5 56m-7 0a2.5 2.5 0 1 0 .002 5.002A2.5 2.5 0 0 0 493.5 56m-7 5a2.501 2.501 0 1 0-.002-5.002A2.501 2.501 0 0 0 486.5 61m-8 0a2.5 2.5 0 1 0 .001-4.999 2.5 2.5 0 0 0 0 4.999m-7 0a2.5 2.5 0 1 0-.001-5 2.5 2.5 0 0 0 0 5m-7 0c1.379 0 2.5-1.12 2.5-2.5s-1.121-2.5-2.5-2.5a2.5 2.5 0 0 0 0 5m-7.001 0c1.38 0 2.501-1.12 2.501-2.5s-1.121-2.5-2.501-2.5a2.5 2.5 0 0 0 0 5m-6.999 0a2.5 2.5 0 1 0-.001-5.001A2.5 2.5 0 0 0 450.5 61m-7.003 0A2.502 2.502 0 0 0 446 58.5c0-1.38-1.121-2.5-2.503-2.5A2.498 2.498 0 0 0 441 58.5c0 1.38 1.116 2.5 2.497 2.5m-6.999 0c1.38 0 2.502-1.12 2.502-2.5s-1.121-2.5-2.502-2.5a2.5 2.5 0 0 0 0 5m-6.998 0a2.5 2.5 0 1 0 .001-4.999 2.5 2.5 0 0 0 0 4.999m-7.002 0a2.5 2.5 0 1 0 .001-5 2.5 2.5 0 0 0-.001 5m-7 0c1.38 0 2.501-1.12 2.501-2.5s-1.121-2.5-2.501-2.5a2.5 2.5 0 0 0 0 5m-6.998 0A2.499 2.499 0 0 0 411 58.5a2.499 2.499 0 1 0-5 0c0 1.38 1.121 2.5 2.501 2.5m-7.001 0a2.5 2.5 0 1 0-.001-5.001 2.5 2.5 0 0 0 0 5.001m-7 0a2.5 2.5 0 1 0 .001-5 2.5 2.5 0 0 0 0 5m-6.998 0c1.38 0 2.498-1.12 2.498-2.5a2.5 2.5 0 1 0-2.498 2.5m-7.002 0a2.5 2.5 0 1 0 .001-5 2.5 2.5 0 0 0-.001 5m-6.998 0a2.5 2.5 0 1 0-.002-4.998 2.5 2.5 0 0 0 .002 4.998m-7.003 0c1.38 0 2.501-1.12 2.501-2.5s-1.121-2.5-2.501-2.5a2.5 2.5 0 0 0 0 5m-6.999 0a2.5 2.5 0 1 0 0-5 2.5 2.5 0 0 0 0 5m-7 0a2.5 2.5 0 1 0-.001-5.001 2.5 2.5 0 0 0 0 5.001m-7 0a2.5 2.5 0 1 0 .001-5 2.5 2.5 0 0 0 0 5m-7.001 0a2.5 2.5 0 1 0 0-5.001 2.5 2.5 0 0 0 0 5.001m-6.999 0a2.5 2.5 0 1 0 0-5 2.5 2.5 0 0 0 0 5m-7.002 0A2.502 2.502 0 0 0 327 58.5a2.5 2.5 0 1 0-5 0c0 1.38 1.118 2.5 2.498 2.5m-6.998 0a2.501 2.501 0 0 0 0-5 2.5 2.5 0 0 0 0 5m-7 0a2.5 2.5 0 1 0 0-5 2.5 2.5 0 0 0 0 5m-7.003 0A2.502 2.502 0 0 0 306 58.5c0-1.38-1.121-2.5-2.503-2.5A2.499 2.499 0 0 0 301 58.5c0 1.38 1.117 2.5 2.497 2.5M296 57a2 2 0 1 0 .001 4.002 2 2 0 0 0 0-4.002m-6.5 4a2.5 2.5 0 1 0 0-4.999 2.5 2.5 0 0 0 0 4.999m-7 0a2.5 2.5 0 1 0-.002-5.001A2.5 2.5 0 0 0 282.5 61m-7.001 0a2.5 2.5 0 1 0 0-5.001 2.5 2.5 0 0 0 0 5.001m-6.996 0c1.38 0 2.497-1.12 2.497-2.5s-1.117-2.5-2.497-2.5A2.502 2.502 0 0 0 266 58.5c0 1.38 1.121 2.5 2.503 2.5m-7.003 0a2.5 2.5 0 1 0 .001-5 2.5 2.5 0 0 0-.001 5m-7.999 0a2.5 2.5 0 1 0-.001-5 2.5 2.5 0 0 0 .001 5M239.5 61a2.5 2.5 0 1 0 0-5 2.5 2.5 0 0 0 0 5m-6.999-5a2.5 2.5 0 1 0 0 5.002 2.5 2.5 0 0 0 0-5.002m-7.001 0a2.501 2.501 0 0 0 0 5 2.5 2.5 0 0 0 0-5m-6.999 5a2.5 2.5 0 1 0 0-4.998 2.5 2.5 0 0 0 0 4.998m-7.001 0a2.5 2.5 0 1 0-.001-5.001 2.5 2.5 0 0 0 0 5.001m-7 0a2.5 2.5 0 1 0 0-5.001 2.5 2.5 0 0 0 0 5.001m-7 0c1.38 0 2.501-1.12 2.501-2.5s-1.121-2.5-2.501-2.5a2.5 2.5 0 0 0 0 5M99.5 61a2.5 2.5 0 1 0 0-5 2.5 2.5 0 0 0 0 5m-7 0a2.5 2.5 0 1 0 0-5 2.5 2.5 0 0 0 0 5m-7 0a2.5 2.5 0 1 0 0-5 2.5 2.5 0 0 0 0 5m-7 0a2.5 2.5 0 1 0 0-5 2.5 2.5 0 0 0 0 5m-7-4a1.5 1.5 0 1 0 0 3 1.5 1.5 0 0 0 0-3m-21 4a2.5 2.5 0 1 0 0-5 2.5 2.5 0 0 0 0 5m-7 0a2.5 2.5 0 1 0 0-5 2.5 2.5 0 0 0 0 5m-7 0a2.5 2.5 0 1 0 0-4.999 2.5 2.5 0 0 0 0 4.999m-22 0a2.5 2.5 0 1 0 0-5 2.5 2.5 0 0 0 0 5m-7 0a2.5 2.5 0 1 0 0-5 2.5 2.5 0 0 0 0 5m-7 0a2.5 2.5 0 1 0 0-5.001A2.5 2.5 0 0 0 .5 61m-7 0a2.5 2.5 0 1 0 0-5 2.5 2.5 0 0 0 0 5m-7 0a2.5 2.5 0 1 0-.001-5.001A2.5 2.5 0 0 0-13.5 61m-7 0a2.5 2.5 0 1 0-.001-5.001A2.5 2.5 0 0 0-20.5 61m-6.5-4a2 2 0 1 0 0 4.001A2 2 0 0 0-27 57m-7.5 4a2.5 2.5 0 1 0 0-5.001 2.5 2.5 0 0 0 0 5.001m-7 0a2.5 2.5 0 1 0 0-5 2.5 2.5 0 0 0 0 5m-7 0a2.5 2.5 0 1 0 0-5.001 2.5 2.5 0 0 0 0 5.001m-7 0a2.5 2.5 0 1 0 .001-4.999 2.5 2.5 0 0 0 0 4.999m-7.001 0a2.5 2.5 0 1 0 0-5 2.5 2.5 0 0 0 0 5m-7 0a2.5 2.5 0 1 0 0-5 2.5 2.5 0 0 0 0 5m-7 0a2.5 2.5 0 1 0 0-5 2.5 2.5 0 0 0 0 5m-7 0a2.5 2.5 0 1 0 0-5.001 2.5 2.5 0 0 0 0 5.001m-7 0a2.5 2.5 0 1 0 0-5 2.5 2.5 0 0 0 0 5m-7 0a2.5 2.5 0 1 0 0-5.001 2.5 2.5 0 0 0 0 5.001m-7 0a2.5 2.5 0 1 0 0-5 2.5 2.5 0 0 0 0 5m-7 0a2.5 2.5 0 1 0 0-5 2.5 2.5 0 0 0 0 5m-7 0a2.5 2.5 0 1 0 0-5 2.5 2.5 0 0 0 0 5m612-7a2.5 2.5 0 1 0 0-5 2.5 2.5 0 0 0 0 5m-7 0a2.5 2.5 0 1 0-.001-5 2.5 2.5 0 0 0 .001 5m-8.001 0a2.501 2.501 0 1 0 0-5.002 2.501 2.501 0 0 0 0 5.002m-6.998 0a2.5 2.5 0 1 0-.002-5 2.5 2.5 0 0 0 .002 5m-7 0a2.5 2.5 0 1 0-.003-5.002A2.5 2.5 0 0 0 464.5 54m-7.003 0A2.502 2.502 0 0 0 460 51.5c0-1.381-1.121-2.5-2.503-2.5A2.498 2.498 0 0 0 455 51.5c0 1.38 1.117 2.5 2.497 2.5m-6.996 0a2.5 2.5 0 1 0-.003-5.001A2.5 2.5 0 0 0 450.5 54m-7.002 0a2.5 2.5 0 1 0 .001-5 2.5 2.5 0 0 0-.001 5m-7 0a2.501 2.501 0 1 0 0-5.002 2.501 2.501 0 0 0 0 5.002m-7 0a2.501 2.501 0 1 0 0-5.002 2.501 2.501 0 0 0 0 5.002m-7 0a2.5 2.5 0 1 0 0-5.001 2.5 2.5 0 0 0 0 5.001m-7 0a2.501 2.501 0 1 0 0-5.002 2.501 2.501 0 0 0 0 5.002m-7 0a2.5 2.5 0 1 0 0-5 2.5 2.5 0 0 0 0 5m-6.999 0a2.5 2.5 0 1 0-.002-5.001A2.5 2.5 0 0 0 401.5 54m-7 0a2.5 2.5 0 1 0 0-5 2.5 2.5 0 0 0 0 5m-6.999 0a2.5 2.5 0 1 0-.003-5.001A2.5 2.5 0 0 0 387.5 54m-7 0a2.5 2.5 0 1 0-.003-5.001A2.5 2.5 0 0 0 380.5 54m-6.998 0a2.5 2.5 0 1 0-.003-5 2.5 2.5 0 0 0 .003 5m-7.002 0a2.501 2.501 0 1 0-.002-5.002A2.501 2.501 0 0 0 366.5 54m-7 0a2.5 2.5 0 1 0-.001-5.002 2.5 2.5 0 0 0 0 5.002m-7 0a2.501 2.501 0 1 0 0-5.002 2.501 2.501 0 0 0 0 5.002m-6.999 0a2.5 2.5 0 1 0 0-4.999 2.5 2.5 0 0 0 0 4.999m-7.003 0A2.502 2.502 0 0 0 341 51.5c0-1.381-1.121-2.5-2.503-2.5A2.498 2.498 0 0 0 336 51.5a2.5 2.5 0 0 0 2.497 2.5m-6.996 0a2.5 2.5 0 1 0-.002-5 2.5 2.5 0 0 0 .002 5m-7.001 0a2.5 2.5 0 1 0 0-5 2.5 2.5 0 0 0 0 5m-7.002 0a2.5 2.5 0 1 0 0 0m-6.997 0a2.5 2.5 0 1 0-.004-4.999 2.5 2.5 0 0 0 .004 4.999m-14 0a2.5 2.5 0 1 0-.003-5.002A2.5 2.5 0 0 0 296.5 54m-13.999 0a2.5 2.5 0 1 0-.003-5.001A2.5 2.5 0 0 0 282.5 54M274 51.5a1.5 1.5 0 1 0 3 0 1.5 1.5 0 0 0-3 0M232.501 54a2.5 2.5 0 1 0-.002-5 2.5 2.5 0 0 0 .002 5m-7.001 0a2.5 2.5 0 1 0 0-5 2.5 2.5 0 0 0 0 5m-7 0a2.5 2.5 0 1 0-.001-5.002 2.5 2.5 0 0 0 0 5.002m-7 0a2.501 2.501 0 1 0 0-5.002 2.501 2.501 0 0 0 0 5.002m-6.999 0a2.5 2.5 0 1 0 0-5 2.5 2.5 0 0 0 0 5m-7.5-2.5a.5.5 0 1 0 1 0 .5.5 0 0 0-1 0M120.5 49a2.5 2.5 0 1 0 0 5 2.5 2.5 0 0 0 0-5m-7 0a2.5 2.5 0 1 0 0 5 2.5 2.5 0 0 0 0-5m-7 0a2.5 2.5 0 1 0 0 5 2.5 2.5 0 0 0 0-5m-7 5a2.5 2.5 0 1 0 0-5 2.5 2.5 0 0 0 0 5M92.5 54a2.501 2.501 0 1 0 0-5.002 2.501 2.501 0 0 0 0 5.002M85.5 54a2.5 2.5 0 1 0 0-5 2.5 2.5 0 0 0 0 5m-7 0a2.5 2.5 0 1 0-.001-5 2.5 2.5 0 0 0 .002 5m-35.002 0a2.5 2.5 0 1 0 .001-5 2.5 2.5 0 0 0 0 5m-7 0a2.5 2.5 0 1 0 0-5 2.5 2.5 0 0 0 0 5m-22 0a2.501 2.501 0 1 0-.001-5.002 2.501 2.501 0 0 0 0 5.002M5 51.5a2.5 2.5 0 1 0 5 0 2.5 2.5 0 0 0-5 0M.5 54a2.5 2.5 0 1 0-.002-5.002A2.5 2.5 0 0 0 .5 54m-7 0a2.501 2.501 0 1 0-.001-5.002 2.501 2.501 0 0 0 0 5.002M-20.5 54a2.5 2.5 0 1 0 0-4.999 2.5 2.5 0 0 0 0 4.999m-14 0a2.5 2.5 0 1 0 0-5 2.5 2.5 0 0 0 0 5m-7 0a2.5 2.5 0 1 0 0-5 2.5 2.5 0 0 0 0 5m-7 0a2.5 2.5 0 1 0 0-5 2.5 2.5 0 0 0 0 5m-7 0a2.5 2.5 0 1 0 0-5 2.5 2.5 0 0 0 0 5m-7 0a2.5 2.5 0 1 0 0-5.001 2.5 2.5 0 0 0 0 5.001m-7 0a2.5 2.5 0 1 0 0-5 2.5 2.5 0 0 0 0 5m-7 0a2.5 2.5 0 1 0-.002-5.002A2.5 2.5 0 0 0-76.5 54m-7 0a2.5 2.5 0 1 0 0-5 2.5 2.5 0 0 0 0 5m-7 0a2.5 2.5 0 1 0-.002-5.002A2.5 2.5 0 0 0-90.5 54m-7 0a2.5 2.5 0 1 0-.001-5.002 2.5 2.5 0 0 0 0 5.002m-6.998 0a2.5 2.5 0 1 0-.002-5 2.5 2.5 0 0 0 .002 5m-7.001 0a2.5 2.5 0 1 0-.002-5.002A2.5 2.5 0 0 0-111.5 54m-7 0a2.5 2.5 0 1 0 0-5 2.5 2.5 0 0 0 0 5m-7 0a2.5 2.5 0 1 0 0-5 2.5 2.5 0 0 0 0 5m-7.5-4a2 2 0 1 0 .001 4.001A2 2 0 0 0-133 50m626.5-3a2.5 2.5 0 1 0 0-5 2.5 2.5 0 0 0 0 5m-43 0a2.5 2.5 0 1 0 0-4.999 2.5 2.5 0 0 0 0 4.999m-14.001 0a2.5 2.5 0 1 0 0-5.001 2.5 2.5 0 0 0 0 5.001m-7 0a2.5 2.5 0 1 0 .001-5.001A2.5 2.5 0 0 0 429.5 47m-6.999 0a2.5 2.5 0 1 0 0-4.999 2.5 2.5 0 0 0 0 4.999m-7 0a2.5 2.5 0 1 0 0-5.001 2.5 2.5 0 0 0 0 5.001m-7 0a2.499 2.499 0 1 0 0-5 2.501 2.501 0 0 0 0 5m-7 0a2.501 2.501 0 0 0 0-5 2.5 2.5 0 1 0 0 5m-7 0a2.5 2.5 0 1 0 .001-5 2.5 2.5 0 0 0-.001 5m-6.998 0A2.5 2.5 0 0 0 390 44.5a2.5 2.5 0 1 0-2.498 2.5m-7.003 0a2.5 2.5 0 1 0 .001-5.001A2.5 2.5 0 0 0 380.5 47m-6.997 0A2.5 2.5 0 0 0 376 44.5a2.5 2.5 0 1 0-2.498 2.5m-7.002 0a2.5 2.5 0 1 0 0-5.001 2.5 2.5 0 0 0 0 5.001m-7-7a2.5 2.5 0 1 0 0-5.001 2.5 2.5 0 0 0 0 5.001m0 7a2.5 2.5 0 1 0 0-5 2.5 2.5 0 0 0 0 5m-7 0a2.5 2.5 0 1 0 0-5 2.5 2.5 0 0 0 0 5m-7 0c1.382 0 2.5-1.12 2.5-2.5 0-1.382-1.118-2.5-2.5-2.5a2.499 2.499 0 1 0 0 5m-7.003 0a2.501 2.501 0 1 0 0 0m-6.996 0a2.5 2.5 0 1 0-.003-5.001A2.5 2.5 0 0 0 331.5 47m-7.001 0a2.5 2.5 0 1 0 .001-5 2.5 2.5 0 0 0-.001 5m-7.001 0a2.5 2.5 0 1 0 .002-5 2.5 2.5 0 0 0-.002 5m-6.998 0a2.501 2.501 0 1 0-.004-5.002A2.501 2.501 0 0 0 310.5 47m-7.001 0a2.5 2.5 0 1 0 0-5 2.5 2.5 0 0 0 0 5m-7 0a2.5 2.5 0 1 0-.001-5 2.5 2.5 0 0 0 .001 5m-7.001 0a2.5 2.5 0 1 0 .001-5.001A2.5 2.5 0 0 0 289.5 47M268.5 47a2.5 2.5 0 1 0-.001-4.999A2.5 2.5 0 0 0 268.5 47M218.5 47a2.5 2.5 0 1 0 .002-4.999A2.5 2.5 0 0 0 218.5 47m-91-5a2.5 2.5 0 1 0 0 5 2.5 2.5 0 0 0 0-5m-7 5a2.5 2.5 0 1 0 0-5 2.5 2.5 0 0 0 0 5m-7 0a2.5 2.5 0 1 0 0-5 2.5 2.5 0 0 0 0 5m-7 0a2.5 2.5 0 1 0 0-5 2.5 2.5 0 0 0 0 5m-7 0a2.5 2.5 0 1 0 0-5 2.5 2.5 0 1 0 0 5M92.5 47a2.5 2.5 0 1 0 .001-5.001A2.5 2.5 0 0 0 92.5 47M85.5 47a2.5 2.5 0 1 0 0-5 2.5 2.5 0 0 0 0 5m-7 0a2.5 2.5 0 1 0 0-5 2.5 2.5 0 0 0 0 5m-42-5a2.5 2.5 0 1 0 0 5 2.5 2.5 0 0 0 0-5m-8 5a2.5 2.5 0 1 0 0-5 2.5 2.5 0 0 0 0 5m-7 0a2.5 2.5 0 1 0 0-5 2.5 2.5 0 0 0 0 5m-7 0a2.5 2.5 0 1 0 0-5.001 2.5 2.5 0 0 0 0 5.001M8 44.5a.5.5 0 1 0-1 0 .5.5 0 0 0 1 0M-6.5 42a2.5 2.5 0 1 0 0 5 2.5 2.5 0 0 0 0-5m-21 5a2.5 2.5 0 1 0 0-5 2.5 2.5 0 0 0 0 5m-7 0a2.5 2.5 0 1 0 0-5 2.5 2.5 0 0 0 0 5m-7 0a2.5 2.5 0 1 0 0-5 2.5 2.5 0 1 0 0 5m436-7a2.5 2.5 0 1 0 0-5 2.5 2.5 0 0 0 0 5m-14.001 0a2.5 2.5 0 1 0 0-5.002 2.5 2.5 0 0 0 0 5.002m-6.997 0a2.5 2.5 0 1 0-.003-4.999 2.5 2.5 0 0 0 .003 4.999m-7.002-5a2.5 2.5 0 1 0-.001 4.998 2.5 2.5 0 0 0 0-4.998M350 37.5a2.5 2.5 0 1 0 5.001-.001A2.5 2.5 0 0 0 350 37.5m-4.5-2.5a2.5 2.5 0 1 0 0 5 2.5 2.5 0 0 0 0-5m-9.5 2.5a2.499 2.499 0 1 0 5 0 2.499 2.499 0 1 0-5 0m-4.499 2.5a2.5 2.5 0 1 0-.004-5.002 2.5 2.5 0 0 0 .004 5.002m-7.001 0a2.5 2.5 0 1 0 0-5 2.5 2.5 0 0 0 0 5m-7.001 0a2.5 2.5 0 1 0 .001-5.001A2.5 2.5 0 0 0 317.5 40M303.5 39a1.5 1.5 0 1 0 .001-2.999A1.5 1.5 0 0 0 303.5 39m-7 1a2.499 2.499 0 1 0 0-5 2.5 2.5 0 0 0 0 5m-27.999 0a2.5 2.5 0 1 0-.002-5 2.5 2.5 0 0 0 .002 5M120.5 40a2.5 2.5 0 1 0 0-5 2.5 2.5 0 0 0 0 5m-7 0a2.5 2.5 0 1 0 0-5 2.5 2.5 0 0 0 0 5m-7 0a2.5 2.5 0 1 0 0-5.001 2.5 2.5 0 0 0 0 5.001m-7 0a2.5 2.5 0 1 0 0-5 2.5 2.5 0 0 0 0 5M92.5 40a2.5 2.5 0 1 0 0-5.002 2.5 2.5 0 0 0 0 5.002M85.5 40a2.5 2.5 0 1 0 0-5 2.5 2.5 0 0 0 0 5m-7 0a2.5 2.5 0 1 0-.002-5.001A2.5 2.5 0 0 0 78.501 40M71.5 40a2.5 2.5 0 1 0 0-5 2.5 2.5 0 0 0 0 5m-43-5a2.5 2.5 0 1 0 0 5 2.5 2.5 0 0 0 0-5m-14 5a2.5 2.5 0 1 0 0-5.001 2.5 2.5 0 0 0 0 5.001m-7 0a2.5 2.5 0 1 0 0-5 2.5 2.5 0 0 0 0 5M-2 37.5a2.499 2.499 0 1 0 5 0 2.5 2.5 0 0 0-5 0M-13.5 40a2.5 2.5 0 1 0-.001-5.001A2.5 2.5 0 0 0-13.5 40m-14 0a2.5 2.5 0 1 0-.001-5.001A2.5 2.5 0 0 0-27.5 40m-14 0a2.5 2.5 0 1 0 0-4.999 2.5 2.5 0 0 0 0 4.999m-7 0a2.5 2.5 0 1 0 0-5.002 2.5 2.5 0 0 0 0 5.002m-7 0a2.5 2.5 0 1 0 0-5 2.5 2.5 0 0 0 0 5m491.999-7a2.501 2.501 0 1 0 0-5.002 2.501 2.501 0 0 0 0 5.002M422.5 33a2.5 2.5 0 1 0 0-5 2.5 2.5 0 0 0 0 5m-56 0a2.5 2.5 0 1 0-.001-5.002 2.5 2.5 0 0 0 0 5.002m-7 0a2.5 2.5 0 1 0 0-5.001 2.5 2.5 0 0 0 0 5.001m-6.999 0a2.5 2.5 0 1 0-.001-5 2.5 2.5 0 0 0 .001 5m-7 0a2.5 2.5 0 1 0 0-5 2.5 2.5 0 1 0 0 5m-7.003-5a2.5 2.5 0 1 0 .004 4.999 2.5 2.5 0 0 0-.004-4.999m-6.996 5a2.5 2.5 0 1 0-.004-5.002 2.5 2.5 0 0 0 .004 5.002M275.5 33a2.5 2.5 0 1 0 0-5 2.5 2.5 0 0 0 0 5m-141-5a2.5 2.5 0 1 0 0 5 2.5 2.5 0 0 0 0-5m-7 5a2.5 2.5 0 1 0-.001-5 2.5 2.5 0 0 0 .001 5m-7 0a2.5 2.5 0 1 0 0-5 2.5 2.5 0 0 0 0 5m-7 0a2.5 2.5 0 1 0 0-5 2.5 2.5 0 0 0 0 5m-7 0a2.501 2.501 0 0 0 0-5 2.5 2.5 0 0 0 0 5m-7 0a2.5 2.5 0 1 0 0-5 2.5 2.5 0 0 0 0 5m-7 0a2.5 2.5 0 1 0 0-5 2.5 2.5 0 0 0 0 5m-7 0a2.5 2.5 0 1 0 0-5 2.5 2.5 0 0 0 0 5m-7 0a2.5 2.5 0 1 0-.001-5.001A2.5 2.5 0 0 0 78.5 33m-7 0a2.5 2.5 0 1 0 0-5 2.5 2.5 0 0 0 0 5m-7 0a2.5 2.5 0 1 0 0-5 2.5 2.5 0 0 0 0 5M24 30.5a2.5 2.5 0 1 0-5 0 2.5 2.5 0 0 0 5 0M14.5 33a2.5 2.5 0 1 0 0-5 2.5 2.5 0 0 0 0 5m-7 0a2.5 2.5 0 1 0 0-5 2.5 2.5 0 0 0 0 5m-14 0a2.5 2.5 0 1 0 0-5.002A2.5 2.5 0 0 0-6.5 33m-7 0a2.5 2.5 0 1 0-.001-5.001A2.5 2.5 0 0 0-13.5 33m-7 0a2.5 2.5 0 1 0 0-5 2.5 2.5 0 0 0 0 5m-7 0a2.5 2.5 0 1 0-.001-5 2.5 2.5 0 0 0 .001 5m-14 0a2.5 2.5 0 1 0 0-5 2.5 2.5 0 0 0 0 5m400.498-8A2.001 2.001 0 1 0 357 23a2 2 0 0 0 1.998 2m-6.498 1a2.5 2.5 0 1 0 .001-4.999 2.5 2.5 0 0 0 0 4.999M200 23.5a2.5 2.5 0 1 0-5 0 2.5 2.5 0 0 0 5 0M134.499 26a2.5 2.5 0 1 0 .002-5 2.5 2.5 0 0 0-.002 5m-6.999-5a2.5 2.5 0 1 0 0 5 2.5 2.5 0 0 0 0-5m-7 5a2.5 2.5 0 1 0 .001-4.999A2.5 2.5 0 0 0 120.5 26m-7 0c1.382 0 2.5-1.118 2.5-2.5a2.5 2.5 0 1 0-2.5 2.5m-7 0a2.5 2.5 0 1 0 .001-4.999A2.5 2.5 0 0 0 106.5 26m-7 0a2.5 2.5 0 1 0 0-5 2.5 2.5 0 0 0 0 5m-7-5a2.5 2.5 0 1 0 0 5 2.5 2.5 0 0 0 0-5m-7 0a2.5 2.5 0 1 0 0 5 2.5 2.5 0 0 0 0-5m-7 0a2.5 2.5 0 1 0 0 5 2.5 2.5 0 0 0 0-5m-7 5a2.5 2.5 0 1 0 0-5 2.5 2.5 0 0 0 0 5m-7 0a2.499 2.499 0 1 0 0-5 2.5 2.5 0 1 0 0 5m-7 0a2.5 2.5 0 1 0 .001-4.999A2.5 2.5 0 0 0 57.5 26m-7 0a2.5 2.5 0 1 0 0-5 2.5 2.5 0 0 0 0 5M46 23.5a2.5 2.5 0 1 0-5 0 2.5 2.5 0 0 0 5 0M21.5 26c1.382 0 2.5-1.118 2.5-2.5a2.5 2.5 0 1 0-5 0 2.5 2.5 0 0 0 2.5 2.5m-7 0a2.499 2.499 0 1 0 0-5 2.5 2.5 0 0 0 0 5m-7-5a2.5 2.5 0 1 0 0 5 2.5 2.5 0 0 0 0-5m-14 5a2.5 2.5 0 1 0 .001-5 2.5 2.5 0 0 0-.002 5M-48.5 26a2.499 2.499 0 1 0 0-5 2.5 2.5 0 1 0 0 5m401-7a2.501 2.501 0 1 0-.002-5.002A2.501 2.501 0 0 0 352.5 19m-7-1a1.501 1.501 0 1 0-.002-3.002A1.501 1.501 0 0 0 345.5 18m-141 1a2.5 2.5 0 1 0 0-5 2.5 2.5 0 1 0 0 5m-7.002 0a2.5 2.5 0 1 0 .003-5.001 2.5 2.5 0 0 0-.003 5.001m-6.997 0a2.5 2.5 0 1 0-.003-5 2.5 2.5 0 0 0 .003 5m-63 0a2.5 2.5 0 1 0-.002-5 2.5 2.5 0 0 0 .002 5m-7.002 0a2.5 2.5 0 1 0 .001-5 2.5 2.5 0 0 0 0 5m-7 0a2.5 2.5 0 1 0 0-5 2.5 2.5 0 1 0 0 5m-7 0a2.5 2.5 0 1 0 0-5 2.5 2.5 0 0 0 0 5m-7 0a2.5 2.5 0 1 0 0-5 2.5 2.5 0 0 0 0 5m-7 0a2.5 2.5 0 1 0 0-5 2.5 2.5 0 0 0 0 5m-7 0a2.5 2.5 0 1 0 0-5 2.5 2.5 0 0 0 0 5m-7 0a2.5 2.5 0 1 0 0-5 2.5 2.5 0 0 0 0 5m-7 0a2.5 2.5 0 1 0 0-4.999 2.5 2.5 0 0 0 0 4.999m-7 0a2.5 2.5 0 1 0 0-5 2.5 2.5 0 0 0 0 5m-7 0a2.5 2.5 0 1 0 0-5 2.5 2.5 0 0 0 0 5m-7 0a2.5 2.5 0 1 0 0-4.999 2.5 2.5 0 0 0 0 4.999m-7 0a2.5 2.5 0 1 0 0-5 2.5 2.5 0 0 0 0 5m-15 0a2.5 2.5 0 1 0 0-5 2.5 2.5 0 0 0 0 5M21.5 19a2.5 2.5 0 1 0 0-4.999 2.5 2.5 0 0 0 0 4.999M14.5 19a2.5 2.5 0 1 0 0-5 2.5 2.5 0 0 0 0 5m-7 0a2.5 2.5 0 1 0 0-5 2.5 2.5 0 0 0 0 5m-7 0a2.5 2.5 0 1 0 0-4.999A2.5 2.5 0 0 0 .5 19M-20 18a2 2 0 1 0 0-4 2 2 0 0 0 0 4m358.499-6a2.5 2.5 0 1 0 .002-5 2.5 2.5 0 0 0-.002 5m-204 0a2.5 2.5 0 1 0 0 0m-6.998 0a2.5 2.5 0 1 0-.003-5.001 2.5 2.5 0 0 0 .003 5.001m-7.002 0a2.5 2.5 0 1 0 0-5.002 2.5 2.5 0 0 0 0 5.002m-6.999 0a2.5 2.5 0 1 0 0-5 2.5 2.5 0 0 0 0 5m-7 0a2.5 2.5 0 1 0 0-5.002 2.5 2.5 0 0 0 0 5.002m-7 0a2.5 2.5 0 1 0 0-5 2.5 2.5 0 0 0 0 5m-7 0a2.5 2.5 0 1 0 0-5 2.5 2.5 0 0 0 0 5m-7 0a2.5 2.5 0 1 0 0-5 2.5 2.5 0 0 0 0 5m-7 0a2.5 2.5 0 1 0-.001-5 2.5 2.5 0 0 0 .001 5m-7 0a2.5 2.5 0 1 0 0-5 2.5 2.5 0 0 0 0 5m-7 0a2.5 2.5 0 1 0 0-5 2.5 2.5 0 0 0 0 5m-7 0a2.5 2.5 0 1 0 0-5 2.5 2.5 0 0 0 0 5m-7 0a2.5 2.5 0 1 0 0-5 2.5 2.5 0 0 0 0 5m-14 0a2.5 2.5 0 1 0 0-5 2.5 2.5 0 0 0 0 5m-8 0a2.5 2.5 0 1 0 0-5 2.5 2.5 0 0 0 0 5m-14-4a1.5 1.5 0 1 0 0 3 1.5 1.5 0 0 0 0-3m-14 4a2.5 2.5 0 1 0-.002-5.001A2.5 2.5 0 0 0 .501 12M120.5 4a1.5 1.5 0 1 0 .002-2.998A1.5 1.5 0 0 0 120.5 4m-7 1c1.382 0 2.5-1.118 2.5-2.5a2.5 2.5 0 1 0-2.5 2.5m-7 0a2.5 2.5 0 1 0 .001-5 2.5 2.5 0 0 0-.002 5M99.5 5a2.5 2.5 0 1 0 0-5 2.5 2.5 0 0 0 0 5m-7 0C93.882 5 95 3.882 95 2.5A2.5 2.5 0 1 0 92.5 5m-14 0a2.5 2.5 0 1 0 0-5 2.5 2.5 0 0 0 0 5m-14 0a2.499 2.499 0 1 0 0-5 2.5 2.5 0 1 0 0 5m-14 0a2.499 2.499 0 1 0 0-5 2.5 2.5 0 0 0 0 5m-7 0a2.5 2.5 0 1 0 0-5 2.5 2.5 0 0 0 0 5m-7 0a2.499 2.499 0 1 0 0-5 2.5 2.5 0 0 0 0 5m-8 0a2.499 2.499 0 1 0 0-5 2.5 2.5 0 0 0 0 5m-6.998 0A2.498 2.498 0 0 0 24 2.5a2.499 2.499 0 1 0-5 0A2.5 2.5 0 0 0 21.502 5M12 2.5a2.5 2.5 0 1 1 5 0 2.5 2.5 0 0 1-5 0" opacity=".2"/>
</svg>
