<svg xmlns="http://www.w3.org/2000/svg" xmlns:xlink="http://www.w3.org/1999/xlink" width="546" height="200" viewBox="0 0 546 200">
    <defs>
        <linearGradient id="5vjgdev78b" x1="50.898%" x2="41.036%" y1="79.568%" y2="-11.87%">
            <stop offset=".058%" stop-color="#FFF"/>
            <stop offset="100%" stop-color="#1E313F"/>
        </linearGradient>
        <linearGradient id="gyyjhuhmac" x1="48.094%" x2="58.005%" y1="17.958%" y2="112.287%">
            <stop offset=".058%" stop-color="#FFF"/>
            <stop offset="99.67%" stop-color="#4E5A64"/>
        </linearGradient>
        <radialGradient id="dlmszpmu9a" cx="50%" cy="50%" r="50.013%" fx="50%" fy="50%">
            <stop offset="0%" stop-color="#67747D"/>
            <stop offset="100%" stop-color="#061D2A"/>
        </radialGradient>
        <path id="z6plpz5xid" d="M0 0L16.4 0 16.4 16.4 0 16.4z"/>
    </defs>
    <g fill="none" fill-rule="evenodd">
        <g>
            <g>
                <g>
                    <g>
                        <g fill="url(#dlmszpmu9a)" opacity=".8" transform="translate(-49) translate(49 -173)">
                            <circle cx="273" cy="273" r="273"/>
                        </g>
                        <g>
                            <g>
                                <g fill-rule="nonzero">
                                    <g transform="translate(-49) translate(49 -173) translate(197.586 230.059) translate(.32 .462)">
                                        <circle cx="42.98" cy="42.98" r="42.712" fill="#1E313F" transform="rotate(-.192 42.98 42.98)"/>
                                        <path fill="#FFF" d="M69.691 69.514c14.651-14.758 14.58-38.561-.177-53.212-14.757-14.651-38.56-14.58-53.212.177l53.39 53.035z" opacity=".2"/>
                                    </g>
                                    <g>
                                        <path fill="#FAFBFC" d="M23.626 23.023c-.426-.07-.816-.177-1.206-.248-5.25-1.065-9.046-1.81-9.046-5.463 0-2.27 2.235-4.08 6.243-4.08 3.583 0 6.421 1.454 8.266 4.186l.284.071 5.711-5.853-.035-.213c-2.27-2.696-5.144-4.576-8.443-5.57-.461-.142-.887-.248-1.348-.354h-.036c-.177-.036-.319-.071-.496-.107V.212h-7.805v5.18c-.248.036-.496.107-.745.142h-.035c-3.69.887-6.918 2.803-9.436 5.747-1.065 1.774-1.597 3.902-1.597 6.35 0 8.372 6.315 11.032 12.487 12.522 1.135.284 2.27.497 3.37.674 3.867.71 7.202 1.313 7.202 4.79 0 2.163-2.377 4.86-7.344 4.86-2.944 0-5.356-.994-7.13-2.803-.106-.106-.248-.213-.355-.32l-6.74 4.683v.249c.958 1.135 2.022 2.128 3.157 2.98.39.283.78.532 1.171.78h.036c.39.248.815.461 1.206.674 0 0 .035 0 .035.036.426.212.816.39 1.242.567.035 0 .035 0 .07.036.426.177.852.319 1.278.46.035 0 .07 0 .07.036.214.071.39.107.604.178h.07c.214.07.426.106.675.177.035 0 .07 0 .106.035.178.036.39.071.568.107v5.18h7.804v-5.18c.142-.036.284-.036.426-.071h.07c.533-.106 1.065-.248 1.597-.426.249-.07.532-.177.78-.248 2.874-1.064 5.393-2.838 7.45-5.25.78-.923 1.455-1.88 2.058-2.945.32-1.135.461-2.412.461-3.76.035-9.01-6.776-11.458-12.7-12.629z" transform="translate(-49) translate(49 -173) translate(197.586 230.059) translate(23.682 16.587)"/>
                                        <path fill="url(#5vjgdev78b)" d="M5.428 42.25c-.39-.46-.745-.922-1.065-1.419-.142-.213-.283-.425-.425-.603-.036-.035-.071-.106-.107-.142-.106-.177-.248-.39-.354-.603l-.107-.213c-.106-.177-.213-.39-.32-.567l-.106-.213c-.106-.177-.212-.39-.283-.603-.036-.071-.071-.177-.107-.248-.106-.213-.177-.39-.284-.604-.035-.07-.07-.141-.106-.248-.071-.213-.177-.426-.248-.638 0-.036-.036-.107-.036-.142-.177-.497-.355-.994-.496-1.49 0-.036-.036-.071-.036-.142-.035-.177-.106-.355-.142-.532l-.106-.426c-.036-.177-.071-.32-.107-.497-.035-.141-.07-.319-.106-.46-.036-.178-.071-.32-.107-.497l-.106-.532c-.035-.142-.035-.32-.07-.462-.036-.177-.072-.354-.072-.567-.035-.142-.035-.284-.07-.461-.036-.213-.036-.39-.072-.603 0-.142-.035-.284-.035-.426 0-.249-.036-.461-.036-.71 0-.106 0-.213-.035-.354 0-.355-.036-.71-.036-1.065 0-.354 0-.674.036-1.028v-.32c0-.248.035-.46.035-.71 0-.106.036-.248.036-.354.035-.213.035-.461.07-.674 0-.106.036-.213.036-.32.036-.283.071-.531.107-.78 0-.07 0-.142.035-.177.036-.32.106-.639.177-.958.036-.106.036-.213.071-.284.036-.213.107-.425.142-.638.036-.107.071-.249.071-.355.036-.213.107-.39.142-.603.036-.106.071-.248.107-.355.07-.213.141-.425.177-.638.035-.107.07-.178.106-.284l.32-.851c.035-.107.07-.178.106-.284.071-.213.142-.39.248-.603.036-.107.107-.213.142-.355.071-.177.142-.32.249-.497.07-.106.106-.248.177-.354.07-.178.177-.32.248-.497.071-.107.107-.213.178-.32l.425-.744c-.319 1.17-.46 2.447-.46 3.795 0 4.612 1.95 8.124 5.817 10.5.213 4.151 1.419 7.415 3.477 9.508L5.428 42.25z" transform="translate(-49) translate(49 -173) translate(197.586 230.059) translate(23.682 16.587)"/>
                                        <path fill="url(#gyyjhuhmac)" d="M27.919 17.418c1.206 1.81 1.986 4.08 2.27 6.811.993.461 1.845.993 2.625 1.597 2.873 2.234 4.328 5.498 4.328 9.649 0 .496-.036.993-.071 1.49v-.036c.142-.32.284-.674.39-1.029.036-.106.071-.177.107-.283.07-.249.177-.497.248-.745.035-.107.07-.249.106-.355.036-.142.107-.32.142-.461.071-.213.107-.39.178-.603.035-.142.07-.32.106-.462l.106-.532c.036-.106.036-.248.071-.354.036-.249.107-.533.142-.78 0-.107.036-.214.036-.32l.106-.852c0-.07 0-.106.036-.177.035-.284.07-.532.07-.816 0-.07 0-.142.036-.213.036-.319.036-.638.071-.958v-.212c0-.32.036-.674.036-.994 0-.354 0-.71-.036-1.1 0-.106 0-.212-.035-.354 0-.248-.036-.497-.036-.71 0-.142-.035-.283-.035-.425-.036-.213-.036-.426-.071-.639 0-.142-.036-.284-.071-.461-.036-.213-.036-.39-.071-.603-.036-.142-.036-.32-.071-.461-.036-.178-.071-.39-.107-.568-.035-.142-.07-.32-.106-.461l-.106-.532c-.036-.142-.071-.32-.107-.461-.035-.178-.106-.355-.142-.532-.035-.142-.07-.32-.142-.462-.035-.177-.106-.319-.142-.496-.035-.142-.106-.32-.141-.461-.071-.178-.107-.32-.178-.462-.07-.141-.106-.319-.177-.46-.071-.143-.107-.32-.178-.462-.07-.142-.141-.32-.177-.461l-.213-.426c-.07-.142-.142-.284-.213-.461l-.212-.426c-.071-.142-.142-.283-.249-.425-.07-.142-.142-.284-.248-.39-.071-.142-.177-.284-.248-.426-.071-.142-.178-.249-.249-.39-.248-.39-.532-.78-.816-1.171-.213-.284-.425-.532-.638-.78l-5.924 6.101z" transform="translate(-49) translate(49 -173) translate(197.586 230.059) translate(23.682 16.587)"/>
                                    </g>
                                </g>
                                <g transform="translate(-49) translate(49 -173) translate(197.586 230.059) translate(59.38 1.5)"/>
                            </g>
                            <g>
                                <path fill="#1A82FF" d="M40.811 0c22.54 0 40.812 18.272 40.812 40.811 0 22.54-18.272 40.812-40.812 40.812S0 63.35 0 40.81 18.272 0 40.811 0z" transform="translate(-49) translate(49 -173) translate(197.586 230.059) translate(70.18 2.397)"/>
                                <path fill="#FFF" d="M52.317 35.893c.3 1.499.456 3.142.456 4.918 0 9.56-4.484 15.267-11.995 15.267-3.132 0-5.775-1.003-7.77-2.915L59.157 26.98c-.7-1.242-1.499-2.403-2.398-3.465-.378-.445-.775-.862-1.18-1.267l.002-.003c-.054-.053-.11-.103-.163-.156-.12-.118-.238-.241-.36-.355l-.007.006c-3.795-3.546-8.677-5.415-14.272-5.415-6.466 0-11.98 2.486-15.947 7.192-3.731 4.424-5.786 10.566-5.786 17.294 0 4.472.912 8.68 2.615 12.3l7.588-7.597c-.264-1.44-.398-3.008-.398-4.703 0-4.4.894-7.957 2.658-10.574 2.069-3.07 5.274-4.693 9.27-4.693 3.11 0 5.7.982 7.668 2.81L22.352 54.483c.718 1.304 1.546 2.517 2.479 3.624.187.221.38.433.573.644l.006.006c.223.244.452.48.685.711l.087.088c.075.073.146.151.22.222l.01-.007c3.799 3.618 8.716 5.527 14.366 5.527 6.47 0 11.995-2.486 15.98-7.191 3.752-4.43 5.82-10.573 5.82-17.296 0-4.54-.946-8.812-2.714-12.474l-7.547 7.556z" transform="translate(-49) translate(49 -173) translate(197.586 230.059) translate(70.18 2.397)"/>
                            </g>
                        </g>
                    </g>
                </g>
            </g>
        </g>
    </g>
</svg>
