<svg width="512" height="512" viewBox="0 0 512 512" fill="none" xmlns="http://www.w3.org/2000/svg">
<path d="M256 512C397.385 512 512 397.385 512 256C512 114.615 397.385 0 256 0C114.615 0 0 114.615 0 256C0 397.385 114.615 512 256 512Z" fill="#1A82FF"/>
<path d="M228.29 153.629C229.784 155.402 231.294 157.146 232.818 158.875C240.189 157.175 247.852 156.238 255.736 156.238C302.144 156.238 341.255 187.391 353.344 229.931C355.66 230.429 357.96 230.927 360.29 231.352C378.681 234.737 390.257 236.745 397.481 237.961C387.854 168.283 328.067 114.636 255.736 114.636C237.976 114.636 220.963 117.874 205.269 123.794C211.966 132.88 221.666 145.335 228.275 153.629H228.29Z" fill="white"/>
<path d="M357.638 269.686C379.355 265.701 391.737 263.561 398.756 262.433C398.8 260.879 398.844 259.312 398.844 257.744C398.844 256.176 398.815 254.593 398.756 253.025C391.737 251.882 379.355 249.757 357.638 245.772C357.257 245.698 356.861 245.625 356.48 245.552C356.964 249.552 357.242 253.611 357.242 257.744C357.242 261.876 356.964 265.92 356.495 269.921C356.876 269.848 357.272 269.774 357.653 269.701L357.638 269.686Z" fill="white"/>
<path d="M216.933 352.553C217.153 352.289 217.373 352.04 217.593 351.791C180.445 336.712 154.245 300.298 154.245 257.744C154.245 215.189 180.445 178.76 217.593 163.682C217.373 163.418 217.138 163.154 216.918 162.905C216.918 162.905 200.99 142.888 191.524 129.832C144.734 153.365 112.628 201.81 112.628 257.758C112.628 313.706 144.734 362.137 191.524 385.67C200.99 372.599 216.933 352.582 216.933 352.582V352.553Z" fill="white"/>
<path d="M360.29 284.106C357.975 284.531 355.66 285.014 353.359 285.527C341.27 328.067 302.159 359.235 255.751 359.235C247.852 359.235 240.189 358.298 232.818 356.598C231.294 358.312 229.784 360.056 228.304 361.829C221.696 370.138 211.995 382.593 205.283 391.679C220.978 397.599 237.99 400.837 255.751 400.837C328.081 400.837 387.868 347.175 397.496 277.497C390.272 278.699 378.695 280.721 360.305 284.106H360.29Z" fill="white"/>
<path d="M185.398 331.789C205.606 311.728 237.888 294.613 276.896 282.875C276.911 282.875 276.925 282.86 276.955 282.846H276.94C276.94 282.846 276.925 282.875 276.911 282.875C256.557 294.349 237.639 308.622 221.124 325.107C214.955 331.262 209.05 337.782 203.525 344.523L202.778 345.446C207.291 348.187 212.024 350.56 216.948 352.583C221.71 346.868 226.78 341.299 232.041 336.053H232.056C266.624 301.544 310.043 278.64 357.667 269.701C358.122 265.774 358.385 261.788 358.385 257.744C358.385 253.7 358.122 249.699 357.667 245.772C310.043 236.833 266.609 213.929 232.041 179.435C226.81 174.189 221.74 168.635 216.948 162.905C212.01 164.927 207.262 167.316 202.763 170.056L203.51 170.965C209.05 177.735 214.97 184.256 221.109 190.381C237.654 206.881 256.571 221.154 276.955 232.642C237.917 220.875 205.635 203.774 185.428 183.684L185.237 183.494C181.501 187.055 178.028 190.894 174.848 194.982C187.333 207.277 203.569 218.472 223.132 228.217H223.117C240.364 236.804 260.118 244.175 281.424 250.007H153.703C153.512 252.557 153.38 255.136 153.38 257.729C153.38 260.323 153.512 262.902 153.703 265.452H281.453C260.147 271.269 240.364 278.64 223.146 287.242C203.584 296.987 187.362 308.182 174.862 320.476C178.028 324.565 181.501 328.404 185.252 331.965L185.442 331.774L185.398 331.789Z" fill="white"/>
<path opacity="0.2" d="M416.018 414.949C503.794 326.572 503.325 183.772 414.949 95.9966C326.572 8.22095 183.772 8.68986 95.9963 97.0663L416.018 414.949Z" fill="white"/>
<path d="M316.271 176.284C333.928 189.443 347.161 208.2 353.345 229.946C355.66 230.444 357.96 230.942 360.29 231.367C378.681 234.752 390.257 236.76 397.482 237.976C392.074 198.821 370.812 164.737 340.405 142.375L316.271 176.299V176.284Z" fill="url(#paint0_linear_2101_459)"/>
<path d="M316.285 339.174C333.943 326.015 347.175 307.259 353.359 285.513C355.675 285.014 357.975 284.516 360.305 284.091C378.695 280.706 390.272 278.699 397.496 277.482C392.089 316.637 370.826 350.722 340.42 373.083L316.285 339.16V339.174Z" fill="url(#paint1_linear_2101_459)"/>
<defs>
<linearGradient id="paint0_linear_2101_459" x1="374.886" y1="292.048" x2="351.293" y2="179.698" gradientUnits="userSpaceOnUse">
<stop stop-color="#1A82FF" stop-opacity="0.5"/>
<stop offset="1" stop-color="white"/>
</linearGradient>
<linearGradient id="paint1_linear_2101_459" x1="374.886" y1="223.41" x2="351.293" y2="335.76" gradientUnits="userSpaceOnUse">
<stop stop-color="#1A82FF" stop-opacity="0.5"/>
<stop offset="1" stop-color="white"/>
</linearGradient>
</defs>
</svg>
