<svg width="350" height="350" viewBox="0 0 350 350" fill="none" xmlns="http://www.w3.org/2000/svg">
<g clip-path="url(#clip0_171_2619)">
<path d="M174.7 349.4C271.184 349.4 349.4 271.184 349.4 174.7C349.4 78.2159 271.184 0 174.7 0C78.2159 0 0 78.2159 0 174.7C0 271.184 78.2159 349.4 174.7 349.4Z" fill="#FF1D1D"/>
<path fill-rule="evenodd" clip-rule="evenodd" d="M239.929 265.786C243.839 256.91 241.04 246.969 238.357 237.446C235.661 227.872 233.084 218.72 237.56 211.494C239.952 207.631 243.308 203.605 246.981 199.198C257.015 187.159 269.414 172.285 270.982 150.168C271.772 138.956 270.155 131.71 261.924 119.417C234.161 77.9241 146.736 44.8635 110.975 69.3885C105.123 73.3991 100.961 76.5388 94.0613 82.8383C80.0742 95.603 76.9068 108.737 80.1883 124.103C80.3544 124.88 80.5392 125.77 80.7466 126.771L80.7466 126.771C84.6436 145.566 96.5475 202.979 143.256 263.326C172.051 297.5 180.845 295.483 188.188 293.799C188.83 293.652 189.461 293.507 190.093 293.39C197.956 291.926 232.084 283.593 239.932 265.799L239.929 265.786ZM222.348 259.739C208.122 271.737 194.168 265.456 172.259 239.443C150.35 213.43 83.4959 117.521 119.994 86.745C156.505 55.9668 225.191 100.12 246.592 125.509C267.988 150.905 243.075 176.734 228.41 189.095C221.021 195.322 223.149 210.157 225.26 224.88C227.34 239.381 229.405 253.774 222.346 259.727L222.348 259.739ZM139.48 175.158L183.04 199.938L226.36 174.654L183.219 234.604L139.48 175.158ZM137.069 162.618L183.305 92.7174L228.605 162.086L182.974 188.743L137.069 162.618ZM213.62 248.721C223.744 242.337 211.933 210.539 211.933 210.539L211.93 210.527L190.506 240.606C190.506 240.606 203.496 255.105 213.62 248.721ZM174.04 89.3053C174.04 89.3053 131.986 82.0395 122.899 98.0998C111.922 117.503 129.665 154.03 129.665 154.03L174.04 89.3053ZM244.69 141.005C244.137 128.194 202.292 101.673 202.292 101.673L236.827 157.092C236.827 157.092 245.243 153.816 244.69 141.005Z" fill="white"/>
<path opacity="0.2" d="M283.9 283.17C343.8 222.86 343.48 125.41 283.17 65.51C222.86 5.61002 125.41 5.93002 65.5098 66.24L283.9 283.17Z" fill="white"/>
</g>
<defs>
<clipPath id="clip0_171_2619">
<rect width="349.4" height="349.4" fill="white"/>
</clipPath>
</defs>
</svg>
