<svg width="300" height="300" viewBox="0 0 300 300" fill="none" xmlns="http://www.w3.org/2000/svg">
<g clip-path="url(#clip0_78_414)">
<path d="M161.054 0.000895591C84.5573 0.23899 22.7548 62.4497 22.9929 138.946C23.0269 153.334 25.2718 167.177 29.3874 180.204C38.1629 176.021 47.9928 173.64 58.3669 173.64C95.5096 173.64 125.714 203.844 125.714 240.986C125.714 251.497 123.299 261.463 118.979 270.34C132.516 274.694 146.972 277.041 161.972 276.973C238.468 276.701 300.271 214.49 299.999 137.994C299.727 61.4973 237.516 -0.271212 161.054 0.000895591Z" fill="#030C17"/>
<path opacity="0.2" d="M248.06 224.49C295.543 176.667 295.305 99.4224 247.482 51.9396C199.659 4.45673 122.414 4.69482 74.9316 52.5178L248.06 224.49Z" fill="white"/>
<path d="M236.359 97.2455L220.611 81.3612L212.04 90.0686C212.006 90.0346 211.972 90.0006 211.938 89.9666L204.965 97.0074L162.074 140.477L134.931 112.96C129.319 118.81 125.611 126.497 124.795 135L162.074 172.789L204.251 130.034C204.795 132.756 205.067 135.579 205.067 138.47C205.067 162.483 185.509 182.041 161.496 182.041C137.482 182.041 117.924 162.483 117.924 138.47C117.924 114.456 137.482 94.8985 161.496 94.8985C171.36 94.8985 180.475 98.1979 187.788 103.742L206.462 84.7965C194.285 74.5925 178.604 68.402 161.496 68.402C122.89 68.402 91.4619 99.8305 91.4619 138.436C91.4619 177.075 122.89 208.47 161.496 208.47C200.101 208.47 231.529 177.041 231.529 138.436C231.529 127.824 229.149 117.79 224.931 108.776L236.359 97.2455Z" fill="white"/>
<path d="M162.075 172.789L124.83 135C125.646 126.463 129.354 118.81 134.966 112.96L162.109 140.477V172.789H162.075Z" fill="url(#paint0_linear_78_414)"/>
<path d="M58.3671 182.619C26.1904 182.619 0 208.81 0 240.987C0 273.163 26.1904 299.354 58.3671 299.354C90.5439 299.354 116.734 273.163 116.734 240.987C116.734 208.81 90.5779 182.619 58.3671 182.619Z" fill="#00C483"/>
<path d="M30.884 220.476L40.2378 251.667L49.5234 220.476H64.6254L49.3534 265.816H30.9861L15.748 220.476H30.884Z" fill="white"/>
<path d="M82.0061 231.735V237.381H96.1217V248.061H82.0401V254.456H98.0604V265.816H67.8564V220.476H98.0604V231.735H82.0061Z" fill="white"/>
</g>
<defs>
<linearGradient id="paint0_linear_78_414" x1="115.481" y1="113.256" x2="148.839" y2="143.176" gradientUnits="userSpaceOnUse">
<stop stop-color="#1D313F"/>
<stop offset="1" stop-color="white"/>
</linearGradient>
<clipPath id="clip0_78_414">
<rect width="300" height="300" fill="white"/>
</clipPath>
</defs>
</svg>
