<svg width="300" height="300" viewBox="0 0 300 300" fill="none" xmlns="http://www.w3.org/2000/svg">
<path fill-rule="evenodd" clip-rule="evenodd" d="M299.537 138.037C299.792 214.273 238.198 276.282 161.962 276.537C143.795 276.598 126.436 273.147 110.529 266.822C112.457 260.892 113.499 254.565 113.499 248C113.499 214.366 86.17 187 52.499 187C45.8356 187 39.4183 188.074 33.4112 190.057C27.0495 174.266 23.5223 157.025 23.4617 138.963C23.2063 62.7265 84.8006 0.71799 161.037 0.462523C237.273 0.207056 299.281 61.8014 299.537 138.037ZM37.0691 198.338C41.9464 196.819 47.1292 196 52.499 196C81.196 196 104.499 219.333 104.499 248C104.499 253.286 103.706 258.392 102.231 263.202C73.809 249.669 50.734 226.703 37.0691 198.338Z" fill="#0074F0"/>
<path opacity="0.2" d="M247.781 224.23C295.111 176.584 294.874 99.5457 247.228 52.2163C199.583 4.88689 122.544 5.12393 75.2148 52.7694L247.781 224.23Z" fill="white"/>
<path d="M155.863 83.9818C157.716 83.7924 159.596 83.6954 161.499 83.6954C191.756 83.6954 216.284 108.223 216.284 138.48C216.284 162.074 201.369 182.184 180.453 189.897L161.864 216.039C204.532 215.842 239.059 181.193 239.059 138.48C239.059 98.3713 208.615 65.3735 169.574 61.3351L155.863 83.9818Z" fill="white"/>
<path d="M159.74 60.9394C117.717 61.875 83.9395 96.2328 83.9395 138.48C83.9395 178.004 113.503 210.623 151.723 215.43L167.734 192.913C165.688 193.145 163.607 193.264 161.499 193.264C131.243 193.264 106.715 168.736 106.715 138.48C106.715 114.234 122.466 93.6666 144.293 86.4519L159.74 60.9394Z" fill="white"/>
<path d="M180.454 189.897C201.37 182.185 216.285 162.074 216.285 138.48H239.06C239.06 181.194 204.533 215.843 161.865 216.039L180.454 189.897Z" fill="url(#paint0_linear_432_1274)"/>
<path d="M159.74 60.9394C117.717 61.875 83.9395 96.2328 83.9395 138.48C83.9395 138.48 106.715 138.807 106.715 138.48C106.715 114.234 122.466 93.6666 144.293 86.4519L159.74 60.9394Z" fill="url(#paint1_linear_432_1274)"/>
<path d="M161.36 201.883L200.303 147.042L161.36 170.024L122.438 147.042L161.36 201.883Z" fill="white"/>
<path opacity="0.1" d="M161.359 201.883L200.303 147.042L161.359 170.024V201.883Z" fill="#0074F0"/>
<path d="M161.241 162.746L200.378 139.721L161.241 75.0791L122.104 139.721L161.241 162.746Z" fill="url(#paint2_linear_432_1274)"/>
<path d="M161.241 162.746L200.378 139.721L161.241 75.0791L122.104 139.721L161.241 162.746Z" fill="white"/>
<path opacity="0.1" d="M161.24 162.744L122.103 139.721L161.24 75.0791L161.24 162.744Z" fill="#0074F0"/>
<path opacity="0.1" d="M161.241 162.746V121.373L122.104 139.722L161.241 162.746Z" fill="#0074F0"/>
<path opacity="0.1" d="M161.242 162.746V121.373L200.379 139.722L161.242 162.746Z" fill="#0074F0"/>
<path d="M52.5 196C23.8333 196 0.5 219.333 0.5 248C0.5 276.667 23.8333 300 52.5 300C81.1667 300 104.5 276.667 104.5 248C104.5 219.333 81.197 196 52.5 196Z" fill="#0074F0"/>
<path d="M83.925 229.394L74.4098 271.03H58.1674L53.3492 247.394L48.531 271.03H32.2886L22.7734 229.394H36.834L40.5916 255.636L46.228 229.394H60.4704L66.1068 255.636L69.8644 229.394H83.925Z" fill="white"/>
<defs>
<linearGradient id="paint0_linear_432_1274" x1="110.435" y1="235.661" x2="195.853" y2="179.707" gradientUnits="userSpaceOnUse">
<stop stop-color="#1A82FF" stop-opacity="0.5"/>
<stop offset="1" stop-color="white"/>
</linearGradient>
<linearGradient id="paint1_linear_432_1274" x1="203.357" y1="25.2384" x2="121.629" y2="84.2898" gradientUnits="userSpaceOnUse">
<stop stop-color="#1A82FF" stop-opacity="0.5"/>
<stop offset="1" stop-color="white"/>
</linearGradient>
<linearGradient id="paint2_linear_432_1274" x1="77.9774" y1="98.4878" x2="146.542" y2="140.33" gradientUnits="userSpaceOnUse">
<stop stop-color="#1C313F"/>
<stop offset="1" stop-color="white"/>
</linearGradient>
</defs>
</svg>
