<svg width="40" height="40" viewBox="0 0 40 40" fill="none" xmlns="http://www.w3.org/2000/svg">
<path d="M20 40C31.0457 40 40 31.0457 40 20C40 8.9543 31.0457 0 20 0C8.9543 0 0 8.9543 0 20C0 31.0457 8.9543 40 20 40Z" fill="#0074F0"/>
<path d="M20.0519 37.5865C16.3186 37.5865 12.6002 36.3706 9.58365 34.1627L10.511 32.8999C13.2608 34.9124 16.6495 36.0209 20.0519 36.0209C21.6363 36.0209 23.2081 35.7854 24.7239 35.3215L25.1841 36.8185C23.5195 37.3282 21.7931 37.5865 20.053 37.5865H20.0519ZM27.0021 36.1511L26.3816 34.7135C26.4732 34.6747 26.5636 34.6347 26.6541 34.5935C31.2047 32.5365 34.4823 28.5619 35.6466 23.6903L37.1715 24.0537C35.895 29.3996 32.2969 33.7604 27.2997 36.0197C27.2001 36.0643 27.1005 36.1089 27.0021 36.1511ZM8.08508 32.9342C6.33923 31.3332 4.954 29.4213 3.96945 27.2512C2.92766 24.9553 2.3999 22.5212 2.3999 20.0163C2.3999 19.398 2.4331 18.7718 2.4995 18.1558L4.05875 18.3215C3.99922 18.8826 3.96831 19.4529 3.96831 20.0163C3.96831 22.2972 4.44913 24.5142 5.39819 26.6055C6.29572 28.5825 7.55617 30.3241 9.14633 31.7812L8.08508 32.9342ZM37.5173 22.1498L35.9614 21.9555C36.0439 21.2973 36.0862 20.6288 36.0862 19.966C36.0862 17.685 35.6054 15.468 34.6563 13.3767C33.8012 11.4934 32.614 9.82038 31.1257 8.40334L32.2076 7.27084C33.8424 8.82617 35.1463 10.6638 36.0851 12.731C37.1269 15.0269 37.6546 17.461 37.6546 19.966C37.6546 20.6928 37.6088 21.4276 37.5184 22.1498H37.5173ZM4.34152 16.5822L2.80975 16.2474C3.38559 13.6247 4.57048 11.13 6.23848 9.03301C7.98777 6.83316 10.179 5.12813 12.7537 3.96364C12.9517 3.87336 13.1532 3.78766 13.3524 3.70652L13.9466 5.15442C13.7645 5.2287 13.5814 5.30755 13.4005 5.38983C11.0559 6.45033 9.05932 8.00337 7.46687 10.0067C5.9477 11.9174 4.86699 14.1915 4.34152 16.5833V16.5822ZM29.7806 7.25942C26.9849 5.13271 23.5115 3.96136 20.0015 3.96136C18.5178 3.96136 17.041 4.1682 15.6146 4.57617L15.183 3.07113C16.7502 2.62316 18.3713 2.39575 20.0015 2.39575C23.8527 2.39575 27.6626 3.68138 30.7308 6.01379L29.7806 7.25827V7.25942Z" fill="white"/>
<path opacity="0.2" d="M32.4994 32.4187C39.3567 25.5137 39.3186 14.3581 32.4136 7.50086C25.5087 0.643581 14.3531 0.6817 7.49585 7.58663L32.4994 32.4234V32.4187Z" fill="white"/>
<path d="M20.9991 27.8647C20.6846 27.9028 20.3653 27.9267 20.046 27.9267C15.6906 27.9267 12.1499 24.386 12.1499 20.0305C12.1499 16.5471 14.4182 13.5831 17.5538 12.5395L19.865 8.78918C13.7511 8.88449 8.80469 13.8928 8.80469 20.0305C8.80469 25.7394 13.0839 30.4666 18.6022 31.1814L21.0039 27.8695L20.9991 27.8647Z" fill="white"/>
<path d="M12.1453 20.0255C12.1453 16.5421 14.4136 13.5781 17.5492 12.5345L19.8603 8.78418C13.7464 8.87949 8.80005 13.8878 8.80005 20.0255H12.1453Z" fill="url(#paint0_linear_2_25160)"/>
<path d="M21.4185 8.87024L19.3884 12.1631C19.6076 12.144 19.8268 12.1345 20.046 12.1345C24.4015 12.1345 27.9422 15.6751 27.9422 20.0306C27.9422 23.352 25.8788 26.2017 22.9672 27.3644L20.1318 31.272C26.2886 31.2243 31.2874 26.2017 31.2874 20.0306C31.2874 14.2932 26.97 9.55168 21.4137 8.87024H21.4185Z" fill="white"/>
<path d="M27.9422 20.0258C27.9422 23.3472 25.8788 26.1968 22.9672 27.3596L20.1318 31.2671C26.2886 31.2195 31.2874 26.1968 31.2874 20.0258H27.9422Z" fill="url(#paint1_linear_2_25160)"/>
<path d="M14.644 21.8821L20.0002 24.97L25.3611 21.8821L20.0002 29.2445L14.644 21.8821ZM14.3533 20.3333L20.0002 11.1982L25.6471 20.3333L20.0002 23.588L14.3533 20.3333Z" fill="white"/>
<path opacity="0.1" d="M20.0143 11.0693L14.3674 20.4379L20.0143 23.7737V17.8694V11.0693Z" fill="#0074F0"/>
<path opacity="0.1" d="M20.0144 24.841L19.9429 24.9267V29.2584L20.0144 29.4633L25.6612 21.5052L20.0144 24.841Z" fill="#0074F0"/>
<path opacity="0.1" d="M20.0142 23.773L25.6611 20.4373L20.0142 17.8688V23.773Z" fill="#0074F0"/>
<path opacity="0.1" d="M14.3674 20.4373L20.0143 23.773V17.8688L14.3674 20.4373Z" fill="#0074F0"/>
<defs>
<linearGradient id="paint0_linear_2_25160" x1="27.137" y1="3.23736" x2="10.8825" y2="17.0901" gradientUnits="userSpaceOnUse">
<stop stop-color="#0074F0" stop-opacity="0.5"/>
<stop offset="1" stop-color="white"/>
</linearGradient>
<linearGradient id="paint1_linear_2_25160" x1="12.698" y1="34.112" x2="25.0592" y2="26.0443" gradientUnits="userSpaceOnUse">
<stop stop-color="#0074F0" stop-opacity="0.5"/>
<stop offset="1" stop-color="white"/>
</linearGradient>
</defs>
</svg>
