<svg width="300" height="300" viewBox="0 0 300 300" fill="none" xmlns="http://www.w3.org/2000/svg">
<g clip-path="url(#clip0_78_628)">
<path d="M161.019 0.000895103C84.5226 0.273004 22.72 62.4838 22.9921 138.98C23.0261 153.368 25.271 167.212 29.3867 180.239C38.1622 176.021 47.9921 173.674 58.3662 173.674C95.509 173.674 125.713 203.878 125.713 241.021C125.713 251.531 123.298 261.497 118.978 270.375C132.516 274.728 146.972 277.075 161.971 277.007C238.468 276.735 300.271 214.524 299.999 138.028C299.726 61.5314 237.516 -0.271213 161.019 0.000895103Z" fill="#030C17"/>
<path opacity="0.2" d="M248.06 224.49C295.543 176.667 295.304 99.4225 247.481 51.9396C199.658 4.45664 122.414 4.69474 74.9307 52.5178L248.06 224.49Z" fill="white"/>
<path d="M173.196 127.348C172.006 127.11 170.815 126.871 169.659 126.633C154.319 123.538 143.231 121.327 143.231 110.681C143.231 104.048 149.761 98.7763 161.496 98.7763C171.904 98.7763 180.271 102.994 185.645 110.987L186.462 111.225L203.128 94.1504L203.06 93.5042C196.394 85.613 188.026 80.1028 178.435 77.2117C177.142 76.8035 175.815 76.4634 174.455 76.1573C174.421 76.1573 174.387 76.1573 174.353 76.1232C173.877 76.0212 173.401 75.9192 172.924 75.8511V60.6811H150.135V75.8511C149.421 75.9872 148.673 76.1232 147.958 76.2933C147.924 76.2933 147.89 76.2933 147.822 76.3273C137.006 78.8783 127.652 84.5586 120.271 93.096C117.21 98.2661 115.646 104.457 115.646 111.599C115.646 136.055 134.081 143.81 152.108 148.164C155.441 148.98 158.707 149.559 161.904 150.137C173.162 152.178 182.924 153.912 182.924 164.116C182.924 170.409 175.986 178.3 161.462 178.3C152.89 178.3 145.85 175.443 140.645 170.137C140.339 169.831 139.931 169.524 139.659 169.184L120.033 182.824L119.999 183.504C122.822 186.803 125.918 189.695 129.251 192.177C130.373 192.994 131.53 193.776 132.686 194.49C132.72 194.49 132.72 194.524 132.754 194.524C133.911 195.239 135.101 195.885 136.326 196.497C136.36 196.531 136.394 196.531 136.428 196.565C137.618 197.177 138.843 197.722 140.101 198.232C140.169 198.266 140.203 198.266 140.271 198.3C141.496 198.81 142.754 199.252 144.047 199.66C144.115 199.694 144.217 199.694 144.285 199.729C144.863 199.899 145.441 200.069 146.054 200.239C146.122 200.239 146.19 200.273 146.224 200.307C146.87 200.477 147.516 200.647 148.162 200.783C148.265 200.817 148.333 200.817 148.435 200.851C148.979 200.987 149.523 201.089 150.101 201.191V216.327H172.89V201.157C173.298 201.089 173.707 201.021 174.115 200.919C174.183 200.919 174.251 200.885 174.353 200.885C175.918 200.545 177.482 200.137 178.979 199.66C179.727 199.422 180.475 199.15 181.224 198.878C189.625 195.783 196.938 190.647 202.992 183.538C205.237 180.885 207.244 177.994 209.013 174.933C209.897 171.565 210.373 167.892 210.373 163.912C210.339 137.892 190.509 130.681 173.196 127.348Z" fill="#F9FBFD"/>
<path d="M120.033 183.47C118.91 182.178 117.89 180.783 116.869 179.354C116.461 178.776 116.053 178.164 115.679 177.552C115.577 177.416 115.475 177.28 115.407 177.11C115.033 176.531 114.693 175.987 114.352 175.409C114.25 175.205 114.114 175.035 114.012 174.831C113.706 174.286 113.366 173.708 113.06 173.13C112.958 172.892 112.822 172.688 112.72 172.45C112.414 171.871 112.142 171.327 111.869 170.715C111.767 170.477 111.631 170.239 111.529 170.001C111.257 169.422 110.985 168.844 110.747 168.232C110.645 167.994 110.543 167.756 110.475 167.552C110.203 166.939 109.965 166.327 109.727 165.681C109.693 165.545 109.625 165.409 109.591 165.273C109.046 163.844 108.57 162.416 108.128 160.953C108.094 160.817 108.06 160.715 108.026 160.579C107.856 160.069 107.72 159.525 107.584 158.98C107.482 158.572 107.346 158.164 107.244 157.756C107.108 157.28 107.005 156.769 106.903 156.293C106.801 155.817 106.699 155.375 106.597 154.899C106.495 154.422 106.393 153.946 106.325 153.47C106.223 152.96 106.121 152.45 106.053 151.939C105.985 151.497 105.917 151.021 105.849 150.579C105.781 150.035 105.679 149.491 105.611 148.946C105.543 148.504 105.509 148.062 105.441 147.62C105.373 147.042 105.305 146.429 105.271 145.851C105.237 145.443 105.203 145.035 105.169 144.627C105.135 143.946 105.067 143.266 105.067 142.586C105.067 142.246 105.033 141.906 104.999 141.565C104.965 140.545 104.931 139.525 104.931 138.47C104.931 137.45 104.965 136.463 104.999 135.477C104.999 135.171 105.033 134.865 105.033 134.559C105.067 133.878 105.101 133.164 105.169 132.484C105.203 132.144 105.237 131.803 105.237 131.429C105.305 130.783 105.373 130.103 105.441 129.457C105.475 129.116 105.509 128.81 105.543 128.47C105.645 127.688 105.747 126.906 105.849 126.157C105.883 125.987 105.883 125.783 105.917 125.613C106.053 124.661 106.223 123.742 106.427 122.824C106.495 122.552 106.563 122.246 106.597 121.974C106.733 121.327 106.869 120.681 107.005 120.069C107.074 119.729 107.176 119.389 107.278 119.014C107.414 118.436 107.584 117.858 107.72 117.28C107.822 116.94 107.924 116.599 108.026 116.259C108.196 115.647 108.4 115.035 108.604 114.457C108.706 114.184 108.774 113.912 108.876 113.606C109.148 112.756 109.454 111.94 109.761 111.089C109.863 110.817 109.965 110.545 110.067 110.307C110.305 109.729 110.543 109.15 110.781 108.606C110.917 108.266 111.087 107.926 111.223 107.62C111.461 107.144 111.665 106.633 111.903 106.157C112.074 105.817 112.244 105.477 112.38 105.137C112.618 104.627 112.89 104.15 113.128 103.674C113.298 103.368 113.434 103.062 113.604 102.79C114.012 102.042 114.454 101.327 114.897 100.613C113.978 104.014 113.536 107.722 113.536 111.633C113.536 125.069 119.25 135.341 130.475 142.246C131.087 154.388 134.59 163.844 140.645 170.001L120.033 183.47Z" fill="url(#paint0_linear_78_628)"/>
<path d="M185.646 110.953C189.183 116.191 191.394 122.824 192.244 130.851C195.101 132.246 197.686 133.81 199.897 135.511C208.265 142.042 212.482 151.531 212.482 163.674C212.482 165.171 212.414 166.599 212.312 167.994C212.312 167.96 212.346 167.926 212.346 167.892C212.754 166.905 213.162 165.919 213.537 164.933C213.639 164.661 213.741 164.388 213.843 164.082C214.115 163.368 214.353 162.62 214.591 161.871C214.693 161.531 214.829 161.157 214.931 160.817C215.067 160.375 215.203 159.933 215.305 159.49C215.475 158.912 215.611 158.334 215.782 157.722C215.884 157.28 215.986 156.837 216.122 156.361C216.224 155.851 216.36 155.341 216.462 154.831C216.53 154.49 216.598 154.15 216.666 153.81C216.802 153.028 216.938 152.28 217.074 151.497C217.142 151.191 217.176 150.885 217.21 150.579C217.346 149.763 217.448 148.912 217.55 148.062C217.584 147.892 217.584 147.722 217.618 147.518C217.72 146.735 217.788 145.953 217.856 145.137C217.89 144.933 217.89 144.729 217.924 144.525C217.992 143.606 218.06 142.688 218.094 141.769C218.094 141.565 218.094 141.361 218.128 141.191C218.162 140.239 218.196 139.252 218.196 138.266C218.196 137.212 218.162 136.157 218.128 135.103C218.128 134.763 218.094 134.422 218.06 134.082C218.026 133.368 217.992 132.654 217.924 131.974C217.89 131.565 217.856 131.157 217.822 130.749C217.754 130.137 217.72 129.525 217.652 128.878C217.618 128.436 217.55 127.994 217.482 127.586C217.414 127.008 217.346 126.429 217.244 125.851C217.176 125.409 217.108 124.967 217.006 124.525C216.904 123.98 216.802 123.436 216.7 122.892C216.598 122.45 216.53 121.974 216.428 121.531C216.326 121.021 216.19 120.477 216.088 119.967C215.986 119.525 215.884 119.048 215.748 118.606C215.611 118.096 215.475 117.586 215.339 117.11C215.203 116.667 215.067 116.191 214.931 115.749C214.795 115.273 214.625 114.797 214.489 114.286C214.353 113.844 214.183 113.368 214.047 112.926C213.877 112.45 213.707 112.008 213.537 111.531C213.367 111.089 213.196 110.647 213.026 110.205C212.856 109.763 212.652 109.32 212.482 108.878C212.312 108.436 212.108 107.994 211.904 107.552C211.7 107.11 211.496 106.701 211.326 106.259C211.122 105.817 210.918 105.375 210.714 104.967C210.509 104.559 210.305 104.15 210.067 103.742C209.829 103.334 209.625 102.892 209.387 102.484C209.183 102.076 208.945 101.701 208.707 101.327C208.469 100.919 208.23 100.511 207.958 100.103C207.72 99.7287 207.482 99.3545 207.244 98.9804C206.496 97.8239 205.713 96.7015 204.897 95.613C204.319 94.8307 203.707 94.0824 203.06 93.3341L185.646 110.953Z" fill="url(#paint1_linear_78_628)"/>
<path d="M58.3673 182.62C26.1904 182.62 0 208.81 0 240.987C0 273.164 26.1904 299.354 58.3673 299.354C90.5441 299.354 116.735 273.164 116.735 240.987C116.735 208.81 90.5781 182.62 58.3673 182.62Z" fill="#1A82FF"/>
<path d="M93.6394 220.103L82.9591 266.837H64.7278L59.3197 240.307L53.9115 266.837H35.6803L25 220.103H40.7823L45 249.558L51.3265 220.103H67.3129L73.6394 249.558L77.8571 220.103H93.6394Z" fill="white"/>
</g>
<defs>
<linearGradient id="paint0_linear_78_628" x1="124.584" y1="166.449" x2="105.598" y2="90.5063" gradientUnits="userSpaceOnUse">
<stop offset="0.00058093" stop-color="white"/>
<stop offset="1" stop-color="#1E313F"/>
</linearGradient>
<linearGradient id="paint1_linear_78_628" x1="198.716" y1="106.554" x2="215.803" y2="177.181" gradientUnits="userSpaceOnUse">
<stop offset="0.00058093" stop-color="white"/>
<stop offset="0.9967" stop-color="#4E5A64"/>
</linearGradient>
<clipPath id="clip0_78_628">
<rect width="300" height="300" fill="white"/>
</clipPath>
</defs>
</svg>
