<svg width="40" height="40" viewBox="0 0 40 40" fill="none" xmlns="http://www.w3.org/2000/svg">
<path d="M20 40C31.0457 40 40 31.0457 40 20C40 8.9543 31.0457 0 20 0C8.9543 0 0 8.9543 0 20C0 31.0457 8.9543 40 20 40Z" fill="#030C17"/>
<path d="M20.0411 37.6268C16.3036 37.6268 12.5809 36.4095 9.56087 34.1991L10.4892 32.9349C13.2422 34.9496 16.6348 36.0594 20.0411 36.0594C21.6273 36.0594 23.201 35.8237 24.7185 35.3592L25.1792 36.858C23.5127 37.3682 21.7844 37.6268 20.0422 37.6268H20.0411ZM26.9993 36.1898L26.3781 34.7506C26.4698 34.7117 26.5603 34.6716 26.6508 34.6304C31.2067 32.5711 34.4881 28.5919 35.6537 23.7147L37.1804 24.0785C35.9024 29.4306 32.3001 33.7964 27.2973 36.0583C27.1975 36.1029 27.0978 36.1475 26.9993 36.1898ZM8.06058 32.9692C6.31273 31.3664 4.92592 29.4523 3.94024 27.2797C2.89726 24.9812 2.3689 22.5443 2.3689 20.0364C2.3689 19.4175 2.40213 18.7905 2.46861 18.1739L4.02964 18.3398C3.97004 18.9015 3.9391 19.4724 3.9391 20.0364C3.9391 22.32 4.42047 24.5396 5.37061 26.6333C6.26918 28.6125 7.53107 30.3561 9.12305 31.8148L8.06058 32.9692ZM37.5253 22.1725L35.9678 21.978C36.0503 21.319 36.0927 20.6497 36.0927 19.9861C36.0927 17.7025 35.6113 15.483 34.6612 13.3893C33.805 11.5038 32.6165 9.82889 31.1265 8.41022L32.2096 7.27643C33.8463 8.83354 35.1517 10.6732 36.0915 12.7429C37.1345 15.0414 37.6629 17.4783 37.6629 19.9861C37.6629 20.7137 37.617 21.4494 37.5265 22.1725H37.5253ZM4.31274 16.5973L2.77921 16.2621C3.35571 13.6364 4.54196 11.1389 6.21188 9.03947C7.96317 6.8371 10.1569 5.13012 12.7345 3.9643C12.9328 3.87391 13.1345 3.78811 13.3339 3.70688L13.9288 5.15644C13.7465 5.2308 13.5632 5.30974 13.3821 5.39212C11.0348 6.45383 9.03594 8.00865 7.44167 10.0142C5.92076 11.9272 4.83881 14.2039 4.31274 16.5985V16.5973ZM29.7809 7.26499C26.9821 5.13584 23.5047 3.96315 19.9907 3.96315C18.5053 3.96315 17.0268 4.17023 15.5987 4.57867L15.1666 3.07191C16.7357 2.62343 18.3586 2.39575 19.9907 2.39575C23.8463 2.39575 27.6606 3.68285 30.7322 6.01794L29.7809 7.26385V7.26499Z" fill="white"/>
<path opacity="0.2" d="M32.5043 32.4187C39.3616 25.5137 39.3235 14.3581 32.4185 7.50086C25.5136 0.643581 14.358 0.6817 7.50073 7.58663L32.5043 32.4234V32.4187Z" fill="white"/>
<path d="M21.6918 18.3896C21.5155 18.3562 21.3487 18.3181 21.1819 18.2848C18.966 17.8416 17.3649 17.5175 17.3649 15.9784C17.3649 15.0205 18.3037 14.2581 20.0001 14.2581C21.506 14.2581 22.7116 14.868 23.4883 16.0212L23.6027 16.0594L26.0092 13.5909L25.9996 13.4956C25.037 12.3567 23.8314 11.5609 22.4447 11.1416C22.2541 11.0844 22.0635 11.0367 21.8681 10.9891H21.8538C21.7871 10.97 21.7156 10.9557 21.6441 10.9462V8.75891H18.3561V10.9462C18.2512 10.9652 18.1464 10.9891 18.0416 11.0129C18.0368 11.0129 18.032 11.0129 18.0225 11.0129C16.4595 11.3798 15.1109 12.1995 14.0483 13.4337C13.6051 14.1818 13.3811 15.0729 13.3811 16.107C13.3811 19.6381 16.0449 20.758 18.6468 21.387C19.1281 21.5061 19.5998 21.5919 20.0621 21.6729C21.6918 21.9683 23.0976 22.2209 23.0976 23.6934C23.0976 24.6036 22.0969 25.7377 20.0001 25.7377C18.7611 25.7377 17.7461 25.3231 16.998 24.5607C16.9551 24.513 16.8979 24.4749 16.855 24.4272L14.0197 26.4048V26.5049C14.4199 26.9814 14.8679 27.4008 15.3539 27.7534C15.516 27.8726 15.6828 27.9822 15.8495 28.087C15.8495 28.087 15.8543 28.087 15.8591 28.0918C16.0258 28.1966 16.1974 28.2919 16.3737 28.3777C16.3785 28.3777 16.3832 28.3825 16.388 28.3872C16.5596 28.473 16.7359 28.554 16.917 28.6302C16.9265 28.6302 16.936 28.635 16.9408 28.6398C17.1171 28.7113 17.303 28.778 17.484 28.8352C17.4936 28.8352 17.5079 28.8399 17.5174 28.8447C17.6032 28.8685 17.6889 28.8971 17.7747 28.9209C17.7842 28.9209 17.7938 28.9257 17.8033 28.9305C17.8938 28.9543 17.9892 28.9781 18.0845 29.0019C18.0988 29.0019 18.1131 29.0067 18.1226 29.0115C18.2036 29.0305 18.2798 29.0448 18.3608 29.0591V31.2464H21.6489V29.0544C21.7061 29.0448 21.768 29.0305 21.8252 29.021C21.8348 29.021 21.8443 29.021 21.8586 29.0162C22.0873 28.9686 22.3065 28.9066 22.5257 28.8399C22.6353 28.8066 22.7449 28.7684 22.8498 28.7303C24.0602 28.2871 25.1181 27.539 25.9901 26.5144C26.3142 26.1332 26.6048 25.7139 26.8574 25.2707C26.9861 24.7846 27.0528 24.2557 27.0528 23.6791C27.0528 19.924 24.1888 18.8852 21.6918 18.3991V18.3896Z" fill="#FAFBFC"/>
<path d="M14.0148 26.4958C13.8528 26.3052 13.705 26.1098 13.5573 25.9049C13.4954 25.8192 13.4382 25.7334 13.3858 25.6476C13.3715 25.6286 13.3572 25.6047 13.3476 25.5857C13.2952 25.5047 13.2476 25.4189 13.1952 25.3379C13.1809 25.3093 13.1618 25.2807 13.1475 25.2521C13.0999 25.1711 13.057 25.0901 13.0141 25.0043C12.995 24.9709 12.9807 24.9376 12.9617 24.909C12.9188 24.828 12.8759 24.7422 12.8378 24.6612C12.8235 24.6278 12.8044 24.5945 12.7901 24.5564C12.752 24.4706 12.7139 24.3896 12.6757 24.3038C12.6614 24.2704 12.6471 24.2371 12.6329 24.2037C12.5947 24.1132 12.5614 24.0274 12.5232 23.9369C12.5137 23.9178 12.509 23.8987 12.5042 23.8797C12.4279 23.6748 12.3565 23.4651 12.2945 23.2554C12.2897 23.2364 12.285 23.2173 12.2755 23.1982C12.2516 23.122 12.2326 23.0458 12.2135 22.9695C12.1992 22.9123 12.1801 22.8504 12.1658 22.7932C12.1468 22.7217 12.1325 22.6502 12.1182 22.5788C12.1039 22.512 12.0896 22.4453 12.0753 22.3786C12.061 22.3119 12.0467 22.2404 12.0372 22.1737C12.0229 22.1022 12.0086 22.026 11.9991 21.9545C11.9895 21.8878 11.9752 21.8211 11.9657 21.7591C11.9562 21.6829 11.9419 21.6019 11.9324 21.5256C11.9228 21.4637 11.9181 21.4017 11.9085 21.335C11.899 21.2492 11.8895 21.1635 11.8847 21.0777C11.8799 21.0205 11.8752 20.9585 11.8704 20.9014C11.8609 20.8061 11.8561 20.706 11.8513 20.6059C11.8513 20.5583 11.8466 20.5106 11.8418 20.4582C11.837 20.3105 11.8323 20.1627 11.8323 20.015C11.8323 19.8673 11.8323 19.7243 11.8418 19.5814C11.8418 19.5385 11.8418 19.4908 11.8466 19.4479C11.8466 19.3479 11.8561 19.2478 11.8656 19.1477C11.8656 19.0953 11.8752 19.0477 11.8752 18.9952C11.8847 18.8999 11.8942 18.8046 11.9038 18.7093C11.9085 18.6617 11.9133 18.614 11.9181 18.5664C11.9324 18.452 11.9466 18.3424 11.9657 18.228C11.9657 18.1994 11.9752 18.1756 11.9752 18.147C11.9991 18.0136 12.0229 17.8754 12.0467 17.742C12.0562 17.6991 12.0658 17.661 12.0705 17.6181C12.0896 17.5275 12.1087 17.4322 12.1325 17.3417C12.142 17.2893 12.1563 17.2416 12.1706 17.194C12.1897 17.1082 12.2135 17.0272 12.2373 16.9462C12.2516 16.8985 12.2659 16.8461 12.2802 16.7984C12.304 16.7079 12.3326 16.6221 12.3612 16.5363C12.3755 16.4982 12.3851 16.4553 12.3993 16.4172C12.4422 16.2933 12.4851 16.1742 12.528 16.055C12.5423 16.0169 12.5566 15.9788 12.5757 15.9407C12.609 15.8597 12.6424 15.7739 12.6757 15.6929C12.6948 15.6452 12.7186 15.5976 12.7377 15.5499C12.771 15.4784 12.8044 15.407 12.8378 15.3402C12.8616 15.2926 12.8854 15.2449 12.9092 15.1925C12.9474 15.121 12.9807 15.0496 13.0188 14.9829C13.0427 14.94 13.0665 14.8971 13.0903 14.8542C13.1523 14.7493 13.2094 14.6397 13.2762 14.5397C13.1475 15.0305 13.0808 15.569 13.0808 16.1313C13.0808 18.0708 13.9052 19.5528 15.5302 20.5535C15.6159 22.3071 16.1258 23.67 16.9979 24.5611L14.0196 26.5006L14.0148 26.4958Z" fill="url(#paint0_linear_2_25268)"/>
<path d="M23.4883 16.0263C23.9982 16.784 24.3222 17.7418 24.4366 18.8998C24.8512 19.1 25.2229 19.3239 25.5421 19.5765C26.7478 20.52 27.3625 21.8877 27.3625 23.6461C27.3625 23.8605 27.3529 24.0654 27.3339 24.2703C27.3339 24.2703 27.3339 24.2608 27.3387 24.256C27.4006 24.1131 27.453 23.9701 27.5102 23.8271C27.5245 23.789 27.5388 23.7461 27.5531 23.708C27.5912 23.6032 27.6246 23.4983 27.6579 23.3887C27.6722 23.3363 27.6913 23.2887 27.7056 23.2362C27.7246 23.1743 27.7437 23.1076 27.7628 23.0456C27.7866 22.9599 27.8104 22.8741 27.8295 22.7931C27.8438 22.7264 27.8628 22.6644 27.8771 22.5977C27.8962 22.5262 27.9105 22.45 27.9248 22.3785C27.9343 22.3308 27.9438 22.2832 27.9534 22.2308C27.9772 22.1212 27.9963 22.0068 28.0153 21.8972C28.0249 21.8543 28.0296 21.8067 28.0344 21.7638C28.0534 21.6446 28.0677 21.5255 28.082 21.4016C28.082 21.3778 28.0868 21.3492 28.0916 21.3254C28.1059 21.211 28.1154 21.0966 28.1249 20.9823C28.1249 20.9537 28.1297 20.9203 28.1345 20.8917C28.144 20.7583 28.1535 20.6296 28.1583 20.4962C28.1583 20.4676 28.1583 20.439 28.1583 20.4104C28.1631 20.2722 28.1678 20.1293 28.1678 19.9911C28.1678 19.8386 28.1678 19.6861 28.1583 19.5336C28.1583 19.486 28.1535 19.4383 28.1488 19.3906C28.144 19.2906 28.1392 19.1857 28.1297 19.0857C28.1297 19.0285 28.1202 18.9665 28.1154 18.9093C28.1059 18.8188 28.1011 18.7283 28.0916 18.6425C28.082 18.5805 28.0773 18.5186 28.0677 18.4566C28.0582 18.3756 28.0439 18.2899 28.0344 18.2088C28.0249 18.1421 28.0153 18.0802 28.001 18.0135C27.9867 17.9325 27.9724 17.8562 27.9581 17.7752C27.9438 17.7085 27.9296 17.6418 27.92 17.5798C27.9057 17.5036 27.8867 17.4273 27.8724 17.3559C27.8581 17.2891 27.839 17.2224 27.8247 17.1605C27.8056 17.089 27.7866 17.0175 27.7675 16.9413C27.7485 16.8746 27.7294 16.8078 27.7103 16.7459C27.6913 16.6744 27.6675 16.6077 27.6436 16.5362C27.6246 16.4695 27.6007 16.4076 27.5769 16.3408C27.5531 16.2741 27.5293 16.2074 27.5054 16.1407C27.4816 16.074 27.4578 16.012 27.434 15.9501C27.4101 15.8834 27.3815 15.8214 27.3529 15.7595C27.3244 15.6975 27.3005 15.6308 27.2719 15.5689C27.2433 15.5069 27.2147 15.445 27.1862 15.383C27.1576 15.3211 27.129 15.2591 27.0956 15.1972C27.067 15.1352 27.0337 15.078 27.0051 15.0209C26.9717 14.9589 26.9431 14.897 26.9098 14.8398C26.8764 14.7826 26.8431 14.7254 26.8097 14.6682C26.7763 14.6063 26.7382 14.5491 26.7049 14.4871C26.6715 14.4347 26.6381 14.3823 26.6 14.3251C26.4904 14.1583 26.3808 13.9963 26.2617 13.8391C26.1759 13.7247 26.0901 13.6151 25.9996 13.5103L23.4883 16.0359V16.0263Z" fill="url(#paint1_linear_2_25268)"/>
<defs>
<linearGradient id="paint0_linear_2_25268" x1="14.6676" y1="24.0369" x2="11.9276" y2="13.072" gradientUnits="userSpaceOnUse">
<stop stop-color="white"/>
<stop offset="1" stop-color="#1E313F"/>
</linearGradient>
<linearGradient id="paint1_linear_2_25268" x1="25.3706" y1="15.3878" x2="27.839" y2="25.5903" gradientUnits="userSpaceOnUse">
<stop stop-color="white"/>
<stop offset="1" stop-color="#4E5A64"/>
</linearGradient>
</defs>
</svg>
