<svg width="1024" height="1024" viewBox="0 0 1024 1024" fill="none" xmlns="http://www.w3.org/2000/svg">
<g clip-path="url(#clip0_3176_3432)">
<path d="M512 0.5C794.51 0.5 1023.5 229.51 1023.5 512C1023.5 794.51 794.51 1023.5 512 1023.5C229.53 1023.5 0.5 794.51 0.5 512C0.5 229.53 229.51 0.5 512 0.5Z" fill="white" stroke="#E5E5E7"/>
<path fill-rule="evenodd" clip-rule="evenodd" d="M656.32 450.275C660.081 469.081 662.061 489.709 662.061 511.98C662.061 631.906 605.8 703.51 511.569 703.51C472.273 703.51 439.114 690.919 414.111 666.926L742.137 338.465C733.348 322.885 723.331 308.315 712.047 295.012C707.296 289.429 702.307 284.183 697.219 279.115L697.259 279.056C696.586 278.403 695.873 277.769 695.22 277.116C693.696 275.631 692.25 274.087 690.706 272.662L690.607 272.721C642.997 228.258 581.747 204.8 511.569 204.8C430.463 204.8 361.275 235.999 311.507 295.012C264.708 350.521 238.933 427.588 238.933 511.98C238.933 568.083 250.376 620.86 271.736 666.273L366.917 570.973C363.611 552.919 361.928 533.241 361.928 511.98C361.928 456.788 373.153 412.147 395.285 379.325C421.218 340.821 461.445 320.45 511.569 320.45C550.588 320.45 583.073 332.783 607.779 355.688L280.407 683.516C289.414 699.867 299.807 715.091 311.487 728.968C313.843 731.74 316.258 734.412 318.693 737.065L318.752 737.124C321.563 740.193 324.434 743.162 327.344 746.052L328.453 747.161C329.383 748.071 330.274 749.042 331.224 749.932L331.323 749.853C378.973 795.246 440.678 819.2 511.549 819.2C592.714 819.2 662.021 788.001 712.027 728.968C759.083 673.4 785.016 596.332 785.016 512C785.016 455.046 773.138 401.457 750.966 355.51L656.3 450.295L656.32 450.275Z" fill="#0074F0"/>
</g>
<defs>
<clipPath id="clip0_3176_3432">
<rect width="1024" height="1024" fill="white"/>
</clipPath>
</defs>
</svg>
