<svg xmlns="http://www.w3.org/2000/svg" xmlns:xlink="http://www.w3.org/1999/xlink" width="69" height="70" viewBox="0 0 69 70">
    <defs>
        <path id="a" d="M0 .039h68.961V69H0z"/>
    </defs>
    <g fill="none" fill-rule="evenodd">
        <path fill="#FFF" d="M36.362 51.617h-8.15V37.825h8.358c5.225 0 7.733 2.926 7.733 6.896 0 4.389-3.135 6.896-7.941 6.896zm-8.15-32.182h7.105c4.806 0 7.732 2.717 7.732 6.687 0 3.971-2.926 6.897-7.523 6.897h-7.314V19.435zM42.63 34.9c3.761-1.463 6.478-4.597 6.478-9.195 0-6.687-4.806-11.493-12.957-11.493h-14v42.84h15.045c7.732 0 13.166-4.807 13.166-11.703 0-4.806-2.926-9.195-7.732-10.449z"/>
        <g transform="translate(0 .171)">
            <mask id="b" fill="#fff">
                <use xlink:href="#a"/>
            </mask>
            <path fill="#FFF" d="M64.573 69H4.388c-1.044 0-2.298-.418-3.134-1.254C.418 66.91 0 65.866 0 64.611V4.427c0-1.254.418-2.299 1.254-3.135C2.09.456 3.134.04 4.388.04h60.394c1.045 0 2.299.417 3.134 1.253.836.836 1.046 1.881 1.046 3.135v58.93h-1.463V4.428c0-.836-.21-1.463-.836-1.88-.418-.419-1.254-.837-1.88-.837H4.387c-.836 0-1.462.21-1.88.836-.627.418-1.045 1.045-1.045 1.88V64.82c0 .837.209 1.463.836 1.881.418.418 1.253.836 1.88.836h60.394c.836 0 1.463-.209 1.88-.836.419-.418.837-1.254.837-1.88v-1.463h1.672v1.462c0 1.045-.418 2.3-1.254 3.135-.836.836-1.881 1.045-3.135 1.045" mask="url(#b)"/>
        </g>
    </g>
</svg>
