<svg xmlns="http://www.w3.org/2000/svg" xmlns:xlink="http://www.w3.org/1999/xlink" width="94" height="76" viewBox="0 0 94 76">
    <defs>
        <circle id="a" cx="15" cy="15" r="15"/>
    </defs>
    <g fill="none" fill-rule="evenodd">
        <path fill="#FFF" d="M38.553 20.338c-2.13 0-3.853-1.735-3.853-3.872 0-2.14 1.723-3.875 3.853-3.875s3.857 1.735 3.857 3.875a3.865 3.865 0 0 1-3.857 3.872m-19.276 0c-2.13 0-3.854-1.735-3.854-3.872 0-2.14 1.724-3.875 3.854-3.875s3.856 1.735 3.856 3.875a3.865 3.865 0 0 1-3.856 3.872m44.66 18.888a3.22 3.22 0 0 1-3.214-3.23 3.22 3.22 0 0 1 3.214-3.228 3.218 3.218 0 0 1 3.21 3.229 3.218 3.218 0 0 1-3.21 3.229m-16.067 0a3.215 3.215 0 0 1-3.207-3.23 3.215 3.215 0 0 1 3.207-3.228 3.219 3.219 0 0 1 3.213 3.229 3.219 3.219 0 0 1-3.213 3.229M28.917 0C12.947 0 0 10.839 0 24.213c0 7.296 3.893 13.864 9.99 18.305.49.345.81.921.81 1.575l-.1.616-1.303 4.883-.157.707c0 .536.433.971.963.971l.56-.18 6.33-3.675c.474-.274.977-.445 1.534-.445l.85.127c2.953.854 6.14 1.33 9.44 1.33l1.586-.037a18.83 18.83 0 0 1-.97-5.935c0-12.196 11.807-22.083 26.374-22.083l1.566.04C55.297 8.846 43.34 0 28.917 0m42.756 57.705C76.753 54.004 80 48.534 80 42.45c0-11.14-10.79-20.174-24.093-20.174-13.31 0-24.1 9.034-24.1 20.174 0 11.144 10.79 20.178 24.1 20.178 2.746 0 5.4-.392 7.863-1.106l.707-.107c.466 0 .883.144 1.28.372l5.276 3.065.464.147a.809.809 0 0 0 .806-.807l-.133-.59-1.087-4.07-.083-.515c0-.543.267-1.022.673-1.313"/>
        <g transform="translate(60 42)">
            <mask id="b" fill="#fff">
                <use xlink:href="#a"/>
            </mask>
            <use fill="#D8D8D8" stroke="#FFF" stroke-width="7" xlink:href="#a"/>
            <g mask="url(#b)">
                <path fill="#F00" d="M-8.136 40h61.017V-4.068H-8.136z"/>
                <path fill="#FFC000" d="M21.413 22.655l.074-1.597-.999 1.249-1.496-.565.879 1.336-1 1.25 1.543-.424.879 1.336.074-1.597 1.543-.423-1.497-.565zm4.509-3.71l1.26-.985-1.599.057-.548-1.502-.44 1.538-1.598.057 1.327.893-.44 1.538 1.26-.986 1.326.893-.548-1.502zm-1.412-6.25l.226 1.584.748-1.414 1.576.275-1.114-1.148.748-1.414-1.436.704-1.114-1.148.226 1.583-1.436.705 1.576.274zm-4.128-4.214l.822 1.372.14-1.593 1.56-.36-1.472-.625.14-1.593-1.05 1.206-1.472-.626.823 1.372-1.05 1.206 1.559-.359zm-4.397 3.79l-3.882 2.82 1.482 4.564-3.881-2.82-3.882 2.82 1.482-4.564-3.881-2.82H8.22l1.483-4.563 1.482 4.563h4.799z"/>
            </g>
        </g>
    </g>
</svg>
