<svg xmlns="http://www.w3.org/2000/svg" width="64" height="74" viewBox="0 0 64 74">
    <path fill="#FFF" fill-rule="evenodd" d="M38.73 31.043c-2.085 0-3.731 1.85-3.731 4.107s1.682 4.107 3.73 4.107c2.085 0 3.73-1.85 3.73-4.107s-1.645-4.107-3.73-4.107m-13.348 0c-2.085 0-3.73 1.85-3.73 4.107s1.682 4.107 3.73 4.107c2.084 0 3.73-1.85 3.73-4.107.036-2.257-1.646-4.107-3.73-4.107m17.005 17.279c8.083-.259 11.191-5.624 11.191-5.624 0-11.914-5.266-21.571-5.266-21.571-5.266-3.996-10.277-3.885-10.277-3.885l-.512.592c6.217 1.924 9.107 4.699 9.107 4.699a29.566 29.566 0 0 0-11.008-3.552 30.588 30.588 0 0 0-7.388.074l-.622.074c-1.28.111-4.388.592-8.301 2.331-1.353.629-2.158 1.073-2.158 1.073s3.035-2.923 9.618-4.847l-.365-.444s-5.01-.111-10.277 3.885c0 0-5.266 9.657-5.266 21.571 0 0 3.072 5.365 11.154 5.624 0 0 1.353-1.665 2.45-3.071-4.644-1.406-6.4-4.366-6.4-4.366l1.024.629.147.111.143.08.042.022.144.083c.914.518 1.828.925 2.67 1.258a30.43 30.43 0 0 0 5.375 1.591c2.743.515 5.962.703 9.472.037 1.72-.296 3.475-.814 5.303-1.591a20.837 20.837 0 0 0 4.206-2.183s-1.829 3.034-6.62 4.403a170.284 170.284 0 0 0 2.414 2.997M56.503 0C60.635 0 64 3.404 64 7.622V74l-7.863-7.03-4.425-4.144-4.681-4.403 1.938 6.845H7.497C3.365 65.268 0 61.864 0 57.643V7.622C0 3.404 3.365 0 7.497 0h49.006"/>
</svg>
