<svg xmlns="http://www.w3.org/2000/svg" xmlns:xlink="http://www.w3.org/1999/xlink" width="388" height="482" viewBox="0 0 388 482">
    <defs>
        <path id="a" d="M.46.426h115.977v66.697H.46z"/>
        <path id="c" d="M0 481h387.91V.293H0z"/>
        <path id="e" d="M0 .236h115.977v66.697H0z"/>
        <path id="g" d="M0 481h387.91V.293H0z"/>
        <path id="i" d="M.543.543H116.52v66.696H.543z"/>
        <path id="k" d="M0 481h387.91V.293H0z"/>
        <path id="m" d="M.195.443H244.56v140.22H.195z"/>
        <path id="o" d="M0 481.248h387.995V.293H0z"/>
        <path id="q" d="M.446.56H37.68v46.852H.446z"/>
        <path id="s" d="M.437.153h96.49v55.49H.437z"/>
        <path id="u" d="M0 481h387.91V.293H0z"/>
        <path id="w" d="M.391.35h37.234v45.468H.391z"/>
        <path id="y" d="M.383.553h96.49v55.49H.383z"/>
        <path id="A" d="M0 481h387.91V.293H0z"/>
        <path id="C" d="M.072.18h37.845v45.468H.072z"/>
        <path id="E" d="M.13.378h96.49v55.49H.13z"/>
        <path id="G" d="M0 481h387.91V.293H0z"/>
        <path id="I" d="M.482.103h37.234v45.469H.482z"/>
        <path id="K" d="M.533.3h96.49v55.489H.532z"/>
        <path id="M" d="M0 481h387.91V.293H0z"/>
    </defs>
    <g fill="none" fill-rule="evenodd">
        <g>
            <g transform="translate(139.944 297.933)">
                <mask id="b" fill="#fff">
                    <use xlink:href="#a"/>
                </mask>
                <path fill="#111D28" fill-opacity=".1" d="M113.64 29.985c3.73 2.146 3.73 5.656 0 7.802L65.424 65.514c-3.73 2.145-9.835 2.145-13.565 0L3.258 37.564c-3.73-2.146-3.73-5.656 0-7.802L51.472 2.035c3.73-2.146 9.835-2.146 13.565 0l48.602 27.95z" mask="url(#b)"/>
            </g>
            <mask id="d" fill="#fff">
                <use xlink:href="#c"/>
            </mask>
            <path fill="#1CBA81" d="M198.585 196.705c-2.458 0-4.916-.536-6.781-1.609l-48.602-27.95c-1.818-1.045-2.743-2.416-2.789-3.793V323.75c.046 1.378.97 2.748 2.789 3.793l48.602 27.95c1.865 1.073 4.323 1.61 6.781 1.61V196.704z" mask="url(#d)"/>
            <path fill="#13A36B" d="M198.585 196.705c2.46 0 4.92-.536 6.785-1.609l48.214-27.727c1.916-1.102 2.84-2.564 2.788-4.016V323.75c.053 1.452-.872 2.915-2.788 4.016l-48.214 27.728c-1.866 1.073-4.325 1.608-6.785 1.608V196.705z" mask="url(#d)"/>
            <path fill="#6F8294" d="M253.584 159.568c3.73 2.145 3.73 5.656 0 7.801l-48.214 27.727c-3.73 2.145-9.835 2.145-13.566 0l-48.602-27.95c-3.73-2.145-3.73-5.656 0-7.801l48.214-27.728c3.73-2.145 9.835-2.145 13.566 0l48.602 27.95z" mask="url(#d)"/>
            <path fill="#EBF0F3" d="M198.585 124.32c-2.458 0-4.916-.537-6.781-1.61l-48.602-27.95c-1.818-1.045-2.743-2.415-2.789-3.793v72.386c.046 1.377.97 2.747 2.789 3.792l48.602 27.951c1.865 1.073 4.323 1.609 6.781 1.609V124.32z" mask="url(#d)"/>
            <path fill="#C2CBD3" d="M198.585 124.32c2.46 0 4.92-.536 6.785-1.61l48.214-27.726c1.916-1.102 2.84-2.565 2.788-4.017v72.386c.053 1.452-.872 2.914-2.788 4.016l-48.214 27.727c-1.866 1.073-4.325 1.609-6.785 1.609V124.32z" mask="url(#d)"/>
            <path fill="#FFF" d="M253.584 87.182c3.73 2.145 3.73 5.656 0 7.801L205.37 122.71c-3.73 2.146-9.835 2.146-13.566 0l-48.602-27.95c-3.73-2.145-3.73-5.656 0-7.801l48.214-27.728c3.73-2.145 9.835-2.145 13.566 0l48.602 27.951z" mask="url(#d)"/>
            <path fill="#1CBA81" d="M194.848 77.711c.415.675.496 1.323.246 1.94-.251.62-.794 1.169-1.628 1.648a7.16 7.16 0 0 1-3.28.968c-1.158.054-2.216-.1-3.175-.463l-.111.064c1.398 1.559 1.15 2.882-.742 3.97-.908.523-1.927.867-3.054 1.033-1.128.165-2.29.131-3.488-.104a11.326 11.326 0 0 1-3.482-1.32c-1.83-1.053-2.833-2.144-3.01-3.275-.18-1.131.604-2.25 2.346-3.354l3.757 2.16c-.671.42-1.027.848-1.07 1.286-.042.44.281.857.971 1.253a3.53 3.53 0 0 0 1.807.475 3.499 3.499 0 0 0 1.758-.455c1.297-.746 1-1.662-.89-2.748l-.72-.414 3.108-1.787.697.402c1.664.99 3.115 1.13 4.352.42.537-.31.804-.631.802-.966-.002-.335-.25-.646-.745-.93-.54-.31-1.15-.45-1.83-.422a4.95 4.95 0 0 0-2.003.532l-3.756-2.16c1.743-.917 3.55-1.353 5.419-1.306 1.868.046 3.68.574 5.434 1.582 1.11.638 1.872 1.296 2.287 1.971M200.71 90.12c1.417-.815 2.332-1.535 2.747-2.162.415-.626.128-1.224-.861-1.793-1.005-.578-2.06-.748-3.164-.51-1.106.24-2.358.762-3.76 1.567-1.415.815-2.334 1.54-2.756 2.18-.423.64-.131 1.249.873 1.826.99.57 2.036.73 3.142.483 1.104-.247 2.364-.778 3.78-1.592m-8.817-5.07c2.46-1.414 4.91-2.246 7.353-2.495 2.441-.25 4.766.26 6.97 1.528 2.189 1.259 3.07 2.593 2.645 4.002-.426 1.409-1.869 2.82-4.327 4.234-2.473 1.423-4.94 2.259-7.397 2.508-2.458.249-4.78-.256-6.97-1.515-2.204-1.267-3.086-2.606-2.645-4.015.44-1.408 1.898-2.825 4.371-4.247M212.723 103.493c-.05.27.111.513.486.73.36.206.779.297 1.258.273.477-.026.955-.175 1.432-.45.462-.265.714-.536.758-.811.042-.275-.115-.516-.475-.723a2.216 2.216 0 0 0-1.268-.279c-.471.03-.938.176-1.4.443-.477.274-.74.546-.79.817zm-.684-10.497c-.052.27.103.51.463.716.374.216.804.313 1.291.292.485-.02.96-.163 1.421-.429.462-.265.711-.538.747-.817.036-.28-.134-.527-.509-.743-.36-.206-.776-.295-1.246-.266-.47.029-.937.177-1.399.442-.462.266-.719.534-.768.805zm8.139 10.323c.033.774-.546 1.504-1.737 2.189a7.361 7.361 0 0 1-3.818 1.005c-1.353-.015-2.584-.341-3.694-.98-1.095-.63-1.659-1.335-1.692-2.118-.035-.782.544-1.515 1.737-2.202a7.276 7.276 0 0 1 3.817-.992c1.353.024 2.576.35 3.671.98 1.11.638 1.681 1.344 1.716 2.118zm-.697-10.478c.042.779-.534 1.51-1.725 2.195a7.264 7.264 0 0 1-3.818.993c-1.353-.024-2.576-.35-3.67-.98-1.126-.647-1.709-1.359-1.75-2.137-.042-.778.533-1.51 1.725-2.195a7.268 7.268 0 0 1 3.818-.993c1.352.024 2.592.36 3.716 1.006 1.095.63 1.662 1.334 1.704 2.111zm8.98 4.291l-24.528 4.121-3.711-2.135 24.53-4.12 3.71 2.134z" mask="url(#d)"/>
        </g>
        <g>
            <g transform="translate(0 299.728)">
                <mask id="f" fill="#fff">
                    <use xlink:href="#e"/>
                </mask>
                <path fill="#111D28" fill-opacity=".2" d="M113.18 29.795c3.73 2.145 3.73 5.656 0 7.802L64.965 65.324c-3.73 2.145-9.835 2.145-13.565 0L2.798 37.374c-3.73-2.146-3.73-5.656 0-7.802L51.012 1.845c3.73-2.146 9.835-2.146 13.565 0l48.603 27.95z" mask="url(#f)"/>
            </g>
            <mask id="h" fill="#fff">
                <use xlink:href="#g"/>
            </mask>
            <path fill="#1CBA81" d="M58.181 229.713c-2.458 0-4.916-.536-6.781-1.61l-48.602-27.95C.98 199.109.055 197.739.009 196.36v128.994c.046 1.378.97 2.749 2.789 3.794l48.602 27.95c1.865 1.073 4.323 1.61 6.781 1.61V229.712z" mask="url(#h)"/>
            <path fill="#13A36B" d="M58.181 229.713c2.46 0 4.918-.536 6.785-1.61l48.214-27.726c1.916-1.103 2.84-2.564 2.788-4.017v128.994c.053 1.453-.872 2.915-2.788 4.017L64.966 357.1c-1.867 1.072-4.325 1.608-6.785 1.608V229.713z" mask="url(#h)"/>
            <path fill="#6F8294" d="M113.18 192.575c3.73 2.146 3.73 5.656 0 7.802l-48.215 27.727c-3.73 2.145-9.835 2.145-13.565 0l-48.602-27.95c-3.73-2.146-3.73-5.656 0-7.802l48.214-27.727c3.73-2.145 9.835-2.145 13.565 0l48.603 27.95z" mask="url(#h)"/>
            <path fill="#EBF0F3" d="M58.181 194.027c-2.458 0-4.916-.536-6.781-1.609l-48.602-27.95C.98 163.421.055 162.051.009 160.673v35.686c.046 1.378.97 2.748 2.789 3.793l48.602 27.95c1.865 1.073 4.323 1.61 6.781 1.61v-35.686z" mask="url(#h)"/>
            <path fill="#C2CBD3" d="M58.181 194.027c2.46 0 4.918-.536 6.785-1.609l48.214-27.727c1.916-1.102 2.84-2.564 2.788-4.017v35.686c.053 1.453-.872 2.914-2.788 4.016l-48.214 27.728c-1.867 1.073-4.325 1.608-6.785 1.608v-35.685z" mask="url(#h)"/>
            <path fill="#FFF" d="M113.18 156.89c3.73 2.145 3.73 5.655 0 7.8l-48.215 27.728c-3.73 2.145-9.835 2.145-13.565 0l-48.602-27.95c-3.73-2.146-3.73-5.657 0-7.802l48.214-27.727c3.73-2.145 9.835-2.145 13.565 0l48.603 27.95z" mask="url(#h)"/>
            <path fill="#1CBA81" d="M47.965 148.908c1.222-.702 1.3-1.36.236-1.973a3.085 3.085 0 0 0-1.941-.396c-.695.08-1.497.364-2.406.853l-3.756-2.16c2.012-1.053 4.042-1.548 6.09-1.485 2.048.064 3.897.57 5.546 1.519 1.725.991 2.593 1.988 2.607 2.99.012 1-.674 1.9-2.06 2.697-1.535.883-3.628 1.406-6.28 1.568-2.653.163-5.31.062-7.973-.305l6.276 3.61-3.085 1.773-11.336-6.518 2.861-1.645c8.151.796 13.224.62 15.22-.528M59.5 159.037c1.416-.813 2.33-1.533 2.746-2.16.415-.627.128-1.225-.861-1.794-1.005-.578-2.06-.747-3.164-.51-1.106.24-2.358.762-3.76 1.567-1.415.815-2.334 1.541-2.757 2.181-.422.64-.131 1.248.874 1.826.99.57 2.036.73 3.142.483 1.104-.248 2.364-.778 3.78-1.593m-8.817-5.07c2.46-1.413 4.91-2.245 7.353-2.495 2.441-.249 4.765.26 6.97 1.528 2.188 1.26 3.07 2.593 2.645 4.002-.426 1.41-1.869 2.82-4.327 4.235-2.474 1.422-4.94 2.258-7.397 2.507-2.458.249-4.781-.256-6.97-1.515-2.204-1.268-3.086-2.606-2.645-4.015.44-1.408 1.898-2.824 4.371-4.247M71.512 172.41c-.05.272.112.515.486.73.36.207.779.298 1.257.274.478-.025.955-.175 1.433-.45.461-.265.714-.535.758-.81.043-.276-.115-.516-.475-.723a2.221 2.221 0 0 0-1.269-.28c-.47.029-.937.177-1.398.443-.477.274-.742.546-.792.817zm-.685-10.496c-.05.27.104.51.464.716.375.216.805.314 1.29.293.486-.02.96-.164 1.422-.43.462-.265.711-.538.747-.817.035-.28-.134-.526-.509-.742-.36-.207-.775-.297-1.246-.267-.47.03-.937.177-1.398.442-.462.266-.72.534-.77.805zm8.14 10.324c.033.773-.546 1.503-1.737 2.188a7.363 7.363 0 0 1-3.818 1.006c-1.353-.016-2.584-.342-3.694-.98-1.095-.63-1.659-1.335-1.693-2.118-.034-.782.545-1.516 1.737-2.202a7.28 7.28 0 0 1 3.818-.993c1.352.024 2.576.35 3.67.98 1.11.639 1.682 1.345 1.717 2.119zm-.696-10.478c.04.778-.534 1.51-1.727 2.195a7.262 7.262 0 0 1-3.817.992c-1.353-.024-2.576-.35-3.671-.98-1.124-.646-1.708-1.359-1.75-2.137-.04-.777.534-1.51 1.726-2.195a7.266 7.266 0 0 1 3.818-.993c1.353.024 2.591.36 3.716 1.007 1.095.629 1.663 1.332 1.705 2.11zm8.98 4.29l-24.53 4.12-3.71-2.133 24.529-4.12 3.711 2.134z" mask="url(#h)"/>
        </g>
        <g>
            <g transform="translate(70.873 338.016)">
                <mask id="j" fill="#fff">
                    <use xlink:href="#i"/>
                </mask>
                <path fill="#111D28" fill-opacity=".2" d="M113.722 30.102c3.73 2.145 3.73 5.656 0 7.8L65.508 65.63c-3.73 2.146-9.835 2.146-13.565 0L3.34 37.68c-3.73-2.146-3.73-5.656 0-7.802L51.555 2.152c3.73-2.146 9.835-2.146 13.565 0l48.602 27.95z" mask="url(#j)"/>
            </g>
            <mask id="l" fill="#fff">
                <use xlink:href="#k"/>
            </mask>
            <path fill="#1CBA81" d="M129.597 266.558c-2.459 0-4.916-.536-6.781-1.609L74.214 237c-1.818-1.045-2.743-2.415-2.789-3.794V363.95c.046 1.378.97 2.748 2.79 3.793l48.6 27.95c1.866 1.073 4.323 1.61 6.782 1.61V266.557z" mask="url(#l)"/>
            <path fill="#13A36B" d="M129.597 266.558c2.46 0 4.919-.536 6.784-1.609l48.215-27.727c1.916-1.102 2.84-2.564 2.788-4.017V363.95c.052 1.452-.872 2.914-2.788 4.016l-48.215 27.727c-1.865 1.074-4.325 1.61-6.784 1.61V266.557z" mask="url(#l)"/>
            <path fill="#6F8294" d="M184.596 229.42c3.73 2.146 3.73 5.656 0 7.802l-48.215 27.727c-3.73 2.146-9.835 2.146-13.565 0L74.214 237c-3.73-2.146-3.73-5.656 0-7.802l48.214-27.727c3.73-2.145 9.835-2.145 13.565 0l48.603 27.95z" mask="url(#l)"/>
            <path fill="#EBF0F3" d="M129.597 216.873c-2.459 0-4.916-.536-6.781-1.608l-48.602-27.951c-1.818-1.045-2.743-2.415-2.789-3.794v49.685c.046 1.379.97 2.749 2.79 3.794l48.6 27.95c1.866 1.072 4.323 1.61 6.782 1.61v-49.686z" mask="url(#l)"/>
            <path fill="#C2CBD3" d="M129.597 216.873c2.46 0 4.919-.536 6.784-1.608l48.215-27.728c1.916-1.102 2.84-2.564 2.788-4.017v49.685c.052 1.453-.872 2.915-2.788 4.017l-48.215 27.727c-1.865 1.073-4.325 1.61-6.784 1.61v-49.686z" mask="url(#l)"/>
            <path fill="#FFF" d="M184.596 179.736c3.73 2.145 3.73 5.656 0 7.801l-48.215 27.727c-3.73 2.146-9.835 2.146-13.565 0l-48.602-27.95c-3.73-2.145-3.73-5.656 0-7.801l48.214-27.727c3.73-2.146 9.835-2.146 13.565 0l48.603 27.95z" mask="url(#l)"/>
            <path fill="#1CBA81" d="M121.544 172.83c1.222-.702 1.301-1.36.236-1.972a3.082 3.082 0 0 0-1.94-.396c-.696.08-1.497.364-2.407.853l-3.755-2.16c2.012-1.054 4.042-1.549 6.09-1.486 2.048.064 3.897.57 5.546 1.519 1.724.992 2.593 1.988 2.606 2.99.013 1.001-.673 1.9-2.059 2.698-1.535.883-3.629 1.405-6.28 1.568-2.654.162-5.31.061-7.973-.305l6.275 3.609-3.084 1.774-11.336-6.52 2.86-1.644c8.152.797 13.225.62 15.221-.527M140.764 181.904l-7.152-4.113-3.196 1.838c.672-.025 1.39.067 2.154.274a9.037 9.037 0 0 1 2.135.88c1.064.613 1.722 1.26 1.972 1.945.25.684.153 1.352-.292 2.005-.445.652-1.144 1.253-2.098 1.8a11.185 11.185 0 0 1-5.563 1.519c-1.98.018-3.856-.482-5.624-1.5-1.2-.69-2.03-1.411-2.49-2.164-.46-.753-.55-1.486-.27-2.198.28-.714.904-1.366 1.873-1.957l3.756 2.16c-.432.335-.643.693-.633 1.075.009.383.307.742.892 1.079a3.723 3.723 0 0 0 2.166.5 5.166 5.166 0 0 0 2.227-.699c.685-.394 1.034-.801 1.047-1.223.013-.42-.304-.817-.948-1.188a4.074 4.074 0 0 0-1.561-.524 3.877 3.877 0 0 0-1.513.094l-3.734-2.148 9.566-5.501 10.64 6.117-3.354 1.929zM145.07 196.32c-.052.272.11.514.485.73.36.207.778.298 1.258.273.477-.025.955-.174 1.432-.449.462-.265.714-.536.758-.81.043-.276-.115-.516-.475-.723a2.216 2.216 0 0 0-1.268-.28c-.471.029-.938.177-1.4.442-.477.275-.741.547-.79.818zm-.686-10.497c-.051.27.104.51.464.717.374.216.804.313 1.29.293.486-.021.96-.164 1.422-.43.462-.265.711-.538.747-.817.035-.28-.134-.527-.51-.742-.358-.207-.775-.297-1.245-.267-.47.029-.937.177-1.399.442-.462.266-.719.534-.769.804zm8.14 10.324c.033.774-.546 1.503-1.738 2.189a7.36 7.36 0 0 1-3.817 1.005c-1.353-.015-2.585-.341-3.694-.98-1.094-.63-1.659-1.335-1.692-2.118-.035-.782.544-1.516 1.737-2.201a7.266 7.266 0 0 1 3.817-.993c1.352.024 2.576.35 3.671.98 1.11.639 1.68 1.344 1.715 2.118zm-.697-10.478c.042.778-.533 1.51-1.725 2.196a7.27 7.27 0 0 1-3.818.992c-1.353-.024-2.576-.35-3.67-.98-1.125-.646-1.709-1.359-1.75-2.137-.042-.777.533-1.51 1.725-2.195a7.268 7.268 0 0 1 3.818-.993c1.352.024 2.591.36 3.716 1.006 1.095.63 1.662 1.333 1.704 2.111zm8.98 4.29l-24.528 4.122-3.711-2.135 24.53-4.12 3.71 2.134z" mask="url(#l)"/>
        </g>
        <g>
            <g transform="translate(142.979 340.585)">
                <mask id="n" fill="#fff">
                    <use xlink:href="#m"/>
                </mask>
                <path fill="#111D28" fill-opacity=".2" d="M122.612 140.663L.195 70.243 121.378.443l123.18 69.98z" mask="url(#n)"/>
            </g>
            <mask id="p" fill="#fff">
                <use xlink:href="#o"/>
            </mask>
            <path fill="#119965" d="M387.537 405.978l-60.015 34.525v-1.098l60.015-34.523z" mask="url(#p)"/>
            <path fill="#4CE5AB" d="M327.522 439.405l-122.417-70.42 59.251-34.085 123.181 69.982z" mask="url(#p)"/>
            <path fill="#26D198" d="M327.522 440.502l-122.417-70.42v-1.097l122.417 70.42z" mask="url(#p)"/>
            <path fill="#1AB57D" d="M339.946 426.45c-7.75-2.482-17.219-2.503-24.948-.058l-87.27-50.202c4.25-4.447 4.213-9.894-.101-14.352l24.305-13.982c7.79 2.495 17.318 2.503 25.07.019l87.827 49.897c-4.161 4.428-4.096 9.83.187 14.256l-25.07 14.422zm29.186-32.024l-86.37-49.07-18.406-10.455-18.18 10.457-22.891 13.168-18.18 10.459 104.124 59.897 18.293 10.524 18.18-10.459 41.835-24.065-18.405-10.456z" mask="url(#p)"/>
            <path fill="#1AB57D" d="M249.03 361.022c6.079-3.497 15.966-3.48 22.084.04 6.117 3.519 6.148 9.206.069 12.704-6.08 3.496-15.967 3.48-22.084-.04-6.118-3.519-6.148-9.207-.07-12.704M323.078 403.277c6.079-3.497 15.967-3.479 22.084.04 6.118 3.519 6.148 9.206.07 12.704-6.08 3.497-15.967 3.48-22.085-.04-6.117-3.519-6.148-9.206-.069-12.704" mask="url(#p)"/>
            <path fill="#119965" d="M387.537 403.966l-60.015 34.524v-1.097l60.015-34.524z" mask="url(#p)"/>
            <path fill="#4CE5AB" d="M327.522 437.393l-122.417-70.42 59.251-34.085 123.181 69.981z" mask="url(#p)"/>
            <path fill="#26D198" d="M327.522 438.49l-122.417-70.42v-1.097l122.417 70.42z" mask="url(#p)"/>
            <path fill="#1AB57D" d="M339.946 424.438c-7.75-2.482-17.219-2.503-24.948-.059l-87.27-50.202c4.25-4.446 4.213-9.893-.101-14.351l24.305-13.982c7.79 2.494 17.318 2.503 25.07.019l87.827 49.896c-4.161 4.429-4.096 9.83.187 14.257l-25.07 14.422zm29.186-32.025l-86.37-49.069-18.406-10.456-18.18 10.458-22.891 13.168-18.18 10.459 104.124 59.896 18.293 10.525 18.18-10.459 41.835-24.065-18.405-10.457z" mask="url(#p)"/>
            <path fill="#1AB57D" d="M249.03 359.01c6.079-3.497 15.966-3.48 22.084.039 6.117 3.52 6.148 9.207.069 12.704-6.08 3.497-15.967 3.48-22.084-.04-6.118-3.518-6.148-9.206-.07-12.703M323.078 401.265c6.079-3.497 15.967-3.48 22.084.04 6.118 3.519 6.148 9.206.07 12.704-6.08 3.497-15.967 3.48-22.085-.04-6.117-3.519-6.148-9.207-.069-12.704" mask="url(#p)"/>
            <path fill="#119965" d="M387.537 401.954l-60.015 34.524v-1.097l60.015-34.524z" mask="url(#p)"/>
            <path fill="#4CE5AB" d="M327.522 435.38l-122.417-70.42 59.251-34.084 123.181 69.981z" mask="url(#p)"/>
            <path fill="#26D198" d="M327.522 436.478l-122.417-70.42v-1.098l122.417 70.42z" mask="url(#p)"/>
            <path fill="#1AB57D" d="M339.946 422.426c-7.75-2.482-17.219-2.504-24.948-.059l-87.27-50.202c4.25-4.446 4.213-9.893-.101-14.351l24.305-13.983c7.79 2.495 17.318 2.503 25.07.02l87.827 49.896c-4.161 4.429-4.096 9.83.187 14.257l-25.07 14.422zm29.186-32.025l-86.37-49.069-18.406-10.456-18.18 10.458-22.891 13.168-18.18 10.459 104.124 59.897 18.293 10.523 18.18-10.458 41.835-24.066-18.405-10.456z" mask="url(#p)"/>
            <path fill="#1AB57D" d="M249.03 356.998c6.079-3.498 15.966-3.48 22.084.04 6.117 3.518 6.148 9.206.069 12.703-6.08 3.497-15.967 3.48-22.084-.04-6.118-3.518-6.148-9.206-.07-12.703M323.078 399.253c6.079-3.497 15.967-3.48 22.084.04 6.118 3.519 6.148 9.206.07 12.704-6.08 3.497-15.967 3.48-22.085-.04-6.117-3.52-6.148-9.207-.069-12.704" mask="url(#p)"/>
            <path fill="#119965" d="M387.537 399.942l-60.015 34.524v-1.097l60.015-34.524z" mask="url(#p)"/>
            <path fill="#4CE5AB" d="M327.522 433.369l-122.417-70.42 59.251-34.085 123.181 69.981z" mask="url(#p)"/>
            <path fill="#26D198" d="M327.522 434.466l-122.417-70.42v-1.098l122.417 70.42z" mask="url(#p)"/>
            <path fill="#1AB57D" d="M339.946 420.414c-7.75-2.482-17.219-2.504-24.948-.058l-87.27-50.203c4.25-4.446 4.213-9.893-.101-14.351l24.305-13.983c7.79 2.495 17.318 2.503 25.07.02l87.827 49.896c-4.161 4.429-4.096 9.83.187 14.257l-25.07 14.422zm29.186-32.025l-86.37-49.069-18.406-10.456-18.18 10.457-22.891 13.169-18.18 10.458 104.124 59.897 18.293 10.524 18.18-10.458 41.835-24.066-18.405-10.456z" mask="url(#p)"/>
            <path fill="#1AB57D" d="M249.03 354.986c6.079-3.498 15.966-3.48 22.084.04 6.117 3.518 6.148 9.206.069 12.703-6.08 3.498-15.967 3.48-22.084-.04-6.118-3.518-6.148-9.207-.07-12.703M323.078 397.24c6.079-3.497 15.967-3.478 22.084.04 6.118 3.52 6.148 9.207.07 12.704-6.08 3.498-15.967 3.48-22.085-.04-6.117-3.518-6.148-9.206-.069-12.703" mask="url(#p)"/>
            <path fill="#119965" d="M387.537 397.93l-60.015 34.523v-1.096l60.015-34.524z" mask="url(#p)"/>
            <path fill="#4CE5AB" d="M327.522 431.357l-122.417-70.42 59.251-34.085 123.181 69.98z" mask="url(#p)"/>
            <path fill="#26D198" d="M327.522 432.453l-122.417-70.42v-1.097l122.417 70.42z" mask="url(#p)"/>
            <path fill="#1AB57D" d="M339.946 418.401c-7.75-2.482-17.219-2.503-24.948-.058l-87.27-50.203c4.25-4.446 4.213-9.892-.101-14.35l24.305-13.983c7.79 2.495 17.318 2.504 25.07.02l87.827 49.896c-4.161 4.428-4.096 9.83.187 14.257l-25.07 14.421zm29.186-32.024l-86.37-49.07-18.406-10.454-18.18 10.456-22.891 13.169-18.18 10.458 104.124 59.897 18.293 10.524 18.18-10.458 41.835-24.066-18.405-10.456z" mask="url(#p)"/>
            <path fill="#1AB57D" d="M249.03 352.973c6.079-3.497 15.966-3.479 22.084.04 6.117 3.52 6.148 9.207.069 12.704-6.08 3.497-15.967 3.48-22.084-.04-6.118-3.519-6.148-9.207-.07-12.704M323.078 395.229c6.079-3.498 15.967-3.48 22.084.04 6.118 3.518 6.148 9.206.07 12.703-6.08 3.498-15.967 3.48-22.085-.04-6.117-3.518-6.148-9.206-.069-12.703" mask="url(#p)"/>
            <path fill="#119965" d="M387.537 395.918l-60.015 34.523v-1.096l60.015-34.524z" mask="url(#p)"/>
            <path fill="#4CE5AB" d="M327.522 429.345l-122.417-70.421 59.251-34.084 123.181 69.98z" mask="url(#p)"/>
            <path fill="#26D198" d="M327.522 430.441l-122.417-70.42v-1.097l122.417 70.42z" mask="url(#p)"/>
            <path fill="#1AB57D" d="M339.946 416.389c-7.75-2.482-17.219-2.503-24.948-.058l-87.27-50.203c4.25-4.446 4.213-9.893-.101-14.35l24.305-13.983c7.79 2.495 17.318 2.503 25.07.02l87.827 49.895c-4.161 4.43-4.096 9.83.187 14.258l-25.07 14.421zm29.186-32.025l-86.37-49.068-18.406-10.456-18.18 10.457-22.891 13.169-18.18 10.458 104.124 59.897 18.293 10.524 18.18-10.458 41.835-24.066-18.405-10.457z" mask="url(#p)"/>
            <path fill="#1AB57D" d="M249.03 350.961c6.079-3.497 15.966-3.479 22.084.04 6.117 3.518 6.148 9.207.069 12.704-6.08 3.497-15.967 3.479-22.084-.04-6.118-3.519-6.148-9.207-.07-12.704M323.078 393.216c6.079-3.497 15.967-3.479 22.084.04 6.118 3.52 6.148 9.207.07 12.704-6.08 3.497-15.967 3.48-22.085-.04-6.117-3.519-6.148-9.206-.069-12.704" mask="url(#p)"/>
            <path fill="#119965" d="M387.537 393.905l-60.015 34.524v-1.097l60.015-34.523z" mask="url(#p)"/>
            <path fill="#4CE5AB" d="M327.522 427.332l-122.417-70.42 59.251-34.084 123.181 69.98z" mask="url(#p)"/>
            <path fill="#26D198" d="M327.522 428.43l-122.417-70.42v-1.098l122.417 70.42z" mask="url(#p)"/>
            <path fill="#1AB57D" d="M339.946 414.377c-7.75-2.482-17.219-2.503-24.948-.058l-87.27-50.202c4.25-4.447 4.213-9.894-.101-14.352l24.305-13.982c7.79 2.495 17.318 2.503 25.07.02l87.827 49.895c-4.161 4.43-4.096 9.83.187 14.257l-25.07 14.422zm29.186-32.025l-86.37-49.068-18.406-10.456-18.18 10.457-22.891 13.168-18.18 10.459 104.124 59.896 18.293 10.524 18.18-10.457 41.835-24.066-18.405-10.457z" mask="url(#p)"/>
            <path fill="#1AB57D" d="M249.03 348.949c6.079-3.497 15.966-3.479 22.084.04 6.117 3.519 6.148 9.206.069 12.704-6.08 3.497-15.967 3.479-22.084-.04-6.118-3.519-6.148-9.207-.07-12.704M323.078 391.204c6.079-3.497 15.967-3.479 22.084.04 6.118 3.519 6.148 9.207.07 12.704-6.08 3.497-15.967 3.48-22.085-.04-6.117-3.519-6.148-9.206-.069-12.704" mask="url(#p)"/>
            <path fill="#119965" d="M387.537 391.893l-60.015 34.524v-1.097l60.015-34.524z" mask="url(#p)"/>
            <path fill="#4CE5AB" d="M327.522 425.32L205.105 354.9l59.251-34.085 123.181 69.981z" mask="url(#p)"/>
            <path fill="#26D198" d="M327.522 426.417l-122.417-70.42V354.9l122.417 70.42z" mask="url(#p)"/>
            <path fill="#1AB57D" d="M339.946 412.364c-7.75-2.481-17.219-2.502-24.948-.057l-87.27-50.202c4.25-4.447 4.213-9.894-.101-14.352l24.305-13.982c7.79 2.494 17.318 2.503 25.07.019l87.827 49.896c-4.161 4.429-4.096 9.83.187 14.257l-25.07 14.421zm29.186-32.023l-86.37-49.07-18.406-10.455-18.18 10.457-22.891 13.168-18.18 10.459 104.124 59.896 18.293 10.524 18.18-10.458 41.835-24.065-18.405-10.456z" mask="url(#p)"/>
            <path fill="#1AB57D" d="M249.03 346.936c6.079-3.496 15.966-3.478 22.084.04 6.117 3.52 6.148 9.207.069 12.705-6.08 3.496-15.967 3.48-22.084-.04-6.118-3.52-6.148-9.207-.07-12.705M323.078 389.192c6.079-3.497 15.967-3.479 22.084.04 6.118 3.519 6.148 9.206.07 12.704-6.08 3.497-15.967 3.48-22.085-.04-6.117-3.519-6.148-9.207-.069-12.704" mask="url(#p)"/>
            <path fill="#119965" d="M387.537 389.881l-60.015 34.524v-1.097l60.015-34.524z" mask="url(#p)"/>
            <path fill="#4CE5AB" d="M327.522 423.308l-122.417-70.42 59.251-34.085 123.181 69.981z" mask="url(#p)"/>
            <path fill="#26D198" d="M327.522 424.405l-122.417-70.42v-1.097l122.417 70.42z" mask="url(#p)"/>
            <path fill="#1AB57D" d="M339.946 410.353c-7.75-2.482-17.219-2.503-24.948-.059l-87.27-50.202c4.25-4.446 4.213-9.893-.101-14.351l24.305-13.982c7.79 2.494 17.318 2.502 25.07.019l87.827 49.896c-4.161 4.429-4.096 9.83.187 14.257l-25.07 14.422zm29.186-32.025l-86.37-49.069-18.406-10.456-18.18 10.458-22.891 13.168-18.18 10.459 104.124 59.896 18.293 10.524 18.18-10.458 41.835-24.066-18.405-10.456z" mask="url(#p)"/>
            <path fill="#1AB57D" d="M249.03 344.925c6.079-3.498 15.966-3.48 22.084.039 6.117 3.519 6.148 9.207.069 12.704-6.08 3.497-15.967 3.48-22.084-.04-6.118-3.518-6.148-9.206-.07-12.703M323.078 387.18c6.079-3.497 15.967-3.48 22.084.04 6.118 3.519 6.148 9.206.07 12.704-6.08 3.497-15.967 3.48-22.085-.04-6.117-3.52-6.148-9.207-.069-12.704" mask="url(#p)"/>
            <path fill="#119965" d="M387.537 387.869l-60.015 34.524v-1.097l60.015-34.524z" mask="url(#p)"/>
            <path fill="#4CE5AB" d="M327.522 421.296l-122.417-70.42 59.251-34.085 123.181 69.981z" mask="url(#p)"/>
            <path fill="#26D198" d="M327.522 422.393l-122.417-70.42v-1.098l122.417 70.42z" mask="url(#p)"/>
            <path fill="#1AB57D" d="M339.946 408.34c-7.75-2.481-17.219-2.503-24.948-.058l-87.27-50.202c4.25-4.446 4.213-9.893-.101-14.351l24.305-13.983c7.79 2.495 17.318 2.503 25.07.02l87.827 49.896c-4.161 4.429-4.096 9.83.187 14.257l-25.07 14.422zm29.186-32.024l-86.37-49.069-18.406-10.456-18.18 10.458-22.891 13.168-18.18 10.459 104.124 59.897 18.293 10.523 18.18-10.458 41.835-24.066-18.405-10.456z" mask="url(#p)"/>
            <path fill="#1AB57D" d="M249.03 342.912c6.079-3.497 15.966-3.478 22.084.04 6.117 3.519 6.148 9.207.069 12.704-6.08 3.497-15.967 3.48-22.084-.04-6.118-3.518-6.148-9.207-.07-12.704M323.078 385.168c6.079-3.498 15.967-3.48 22.084.04 6.118 3.518 6.148 9.206.07 12.703-6.08 3.498-15.967 3.48-22.085-.04-6.117-3.518-6.148-9.206-.069-12.703" mask="url(#p)"/>
            <path fill="#119965" d="M387.537 385.857l-60.015 34.523v-1.096l60.015-34.524z" mask="url(#p)"/>
            <path fill="#4CE5AB" d="M327.522 419.284l-122.417-70.42 59.251-34.085 123.181 69.981z" mask="url(#p)"/>
            <path fill="#26D198" d="M327.522 420.38l-122.417-70.42v-1.097l122.417 70.42z" mask="url(#p)"/>
            <path fill="#1AB57D" d="M339.946 406.328c-7.75-2.481-17.219-2.503-24.948-.058l-87.27-50.202c4.25-4.447 4.213-9.893-.101-14.351l24.305-13.983c7.79 2.495 17.318 2.503 25.07.02l87.827 49.896c-4.161 4.428-4.096 9.83.187 14.257l-25.07 14.42zm29.186-32.024l-86.37-49.07-18.406-10.455-18.18 10.457-22.891 13.169-18.18 10.458 104.124 59.897 18.293 10.524 18.18-10.458 41.835-24.066-18.405-10.456z" mask="url(#p)"/>
            <path fill="#1AB57D" d="M249.03 340.9c6.079-3.497 15.966-3.479 22.084.04 6.117 3.519 6.148 9.207.069 12.704-6.08 3.497-15.967 3.48-22.084-.04-6.118-3.52-6.148-9.207-.07-12.703M323.078 383.156c6.079-3.498 15.967-3.48 22.084.04 6.118 3.518 6.148 9.206.07 12.703-6.08 3.498-15.967 3.48-22.085-.04-6.117-3.518-6.148-9.206-.069-12.703" mask="url(#p)"/>
            <path fill="#119965" d="M387.537 383.845l-60.015 34.523v-1.096l60.015-34.524z" mask="url(#p)"/>
            <path fill="#4CE5AB" d="M327.522 417.272l-122.417-70.42 59.251-34.085 123.181 69.98z" mask="url(#p)"/>
            <path fill="#26D198" d="M327.522 418.368l-122.417-70.42v-1.097l122.417 70.42z" mask="url(#p)"/>
            <path fill="#1AB57D" d="M339.946 404.316c-7.75-2.482-17.219-2.503-24.948-.058l-87.27-50.203c4.25-4.446 4.213-9.893-.101-14.35l24.305-13.983c7.79 2.494 17.318 2.503 25.07.02l87.827 49.895c-4.161 4.43-4.096 9.83.187 14.258l-25.07 14.42zm29.186-32.025l-86.37-49.068-18.406-10.456-18.18 10.457-22.891 13.169-18.18 10.458 104.124 59.897 18.293 10.524 18.18-10.458 41.835-24.066-18.405-10.457z" mask="url(#p)"/>
            <path fill="#1AB57D" d="M249.03 338.888c6.079-3.497 15.966-3.479 22.084.04 6.117 3.518 6.148 9.207.069 12.703-6.08 3.498-15.967 3.48-22.084-.039-6.118-3.519-6.148-9.207-.07-12.704M323.078 381.144c6.079-3.498 15.967-3.48 22.084.04 6.118 3.518 6.148 9.206.07 12.703-6.08 3.497-15.967 3.48-22.085-.04-6.117-3.518-6.148-9.207-.069-12.703" mask="url(#p)"/>
            <path fill="#119965" d="M387.537 381.832l-60.015 34.524v-1.097l60.015-34.523z" mask="url(#p)"/>
            <path fill="#4CE5AB" d="M327.522 415.26l-122.417-70.421 59.251-34.084 123.181 69.98z" mask="url(#p)"/>
            <path fill="#26D198" d="M327.522 416.356l-122.417-70.42v-1.097l122.417 70.42z" mask="url(#p)"/>
            <path fill="#1AB57D" d="M339.946 402.304c-7.75-2.482-17.219-2.503-24.948-.058l-87.27-50.203c4.25-4.446 4.213-9.893-.101-14.35l24.305-13.983c7.79 2.494 17.318 2.503 25.07.02l87.827 49.895c-4.161 4.43-4.096 9.83.187 14.257l-25.07 14.422zm29.186-32.025l-86.37-49.068-18.406-10.456-18.18 10.457-22.891 13.169-18.18 10.458 104.124 59.897 18.293 10.523 18.18-10.457 41.835-24.066-18.405-10.457z" mask="url(#p)"/>
            <path fill="#1AB57D" d="M249.03 336.876c6.079-3.497 15.966-3.479 22.084.04 6.117 3.518 6.148 9.206.069 12.703-6.08 3.498-15.967 3.48-22.084-.039-6.118-3.519-6.148-9.207-.07-12.704M323.078 379.131c6.079-3.497 15.967-3.479 22.084.04 6.118 3.52 6.148 9.207.07 12.704-6.08 3.497-15.967 3.48-22.085-.04-6.117-3.519-6.148-9.206-.069-12.704" mask="url(#p)"/>
        </g>
        <g transform="translate(250 368)">
            <mask id="r" fill="#fff">
                <use xlink:href="#q"/>
            </mask>
            <path fill="#111D28" fill-opacity=".1" d="M.446 26.367V.56L37.68 21.605v25.807z" mask="url(#r)"/>
        </g>
        <g>
            <g transform="translate(249.858 336.221)">
                <mask id="t" fill="#fff">
                    <use xlink:href="#s"/>
                </mask>
                <path fill="#111D28" fill-opacity=".1" d="M60.439.153L.437 34.659l36.488 20.984 60.002-34.507z" mask="url(#t)"/>
            </g>
            <mask id="v" fill="#fff">
                <use xlink:href="#u"/>
            </mask>
            <path fill="#C2CBD3" d="M249.79 396.11v-25.733l36.488 20.984v25.733z" mask="url(#v)"/>
            <path fill="#EBF0F3" d="M309.792 335.871l-60.002 34.507 36.488 20.983 60.002-34.506z" mask="url(#v)"/>
            <path fill="#119965" d="M325.534 441.466l-60.001 34.506v-1.096l60.001-34.506z" mask="url(#v)"/>
            <path fill="#4CE5AB" d="M265.533 474.876l-122.39-70.384 59.238-34.067 123.153 69.945z" mask="url(#v)"/>
            <path fill="#26D198" d="M265.533 475.972l-122.39-70.384v-1.096l122.39 70.384z" mask="url(#v)"/>
            <path fill="#1AB57D" d="M277.954 461.927c-7.75-2.48-17.215-2.501-24.943-.058l-87.251-50.176c4.249-4.445 4.212-9.888-.101-14.345l24.3-13.974c7.789 2.493 17.314 2.502 25.064.019l87.808 49.87c-4.16 4.427-4.095 9.826.187 14.25l-25.064 14.414zm29.18-32.008l-86.353-49.044-18.4-10.45-18.176 10.452-22.887 13.162-18.176 10.453 104.101 59.866 18.29 10.518 18.175-10.453 41.826-24.053-18.4-10.45z" mask="url(#v)"/>
            <path fill="#1AB57D" d="M187.057 396.533c6.078-3.495 15.964-3.477 22.08.04 6.116 3.517 6.146 9.202.069 12.697-6.079 3.495-15.964 3.478-22.08-.04-6.116-3.517-6.146-9.202-.069-12.697M261.09 438.767c6.077-3.496 15.963-3.477 22.079.04 6.116 3.516 6.146 9.2.069 12.697-6.078 3.495-15.964 3.477-22.08-.04-6.116-3.517-6.146-9.202-.069-12.697" mask="url(#v)"/>
            <path fill="#119965" d="M325.534 439.455l-60.001 34.506v-1.096l60.001-34.506z" mask="url(#v)"/>
            <path fill="#4CE5AB" d="M265.533 472.865l-122.39-70.384 59.238-34.067 123.153 69.945z" mask="url(#v)"/>
            <path fill="#26D198" d="M265.533 473.961l-122.39-70.384v-1.096l122.39 70.384z" mask="url(#v)"/>
            <path fill="#1AB57D" d="M277.954 459.916c-7.75-2.48-17.215-2.501-24.943-.058l-87.251-50.177c4.249-4.443 4.212-9.888-.101-14.343l24.3-13.975c7.789 2.493 17.314 2.501 25.064.019l87.808 49.87c-4.16 4.427-4.095 9.825.187 14.25l-25.064 14.414zm29.18-32.008l-86.353-49.044-18.4-10.45-18.176 10.452-22.887 13.162-18.176 10.453 104.101 59.866 18.29 10.518 18.175-10.452 41.826-24.054-18.4-10.451z" mask="url(#v)"/>
            <path fill="#1AB57D" d="M187.057 394.522c6.078-3.496 15.964-3.477 22.08.04 6.116 3.516 6.146 9.202.069 12.697-6.079 3.495-15.964 3.478-22.08-.04-6.116-3.517-6.146-9.202-.069-12.697M261.09 436.755c6.077-3.495 15.963-3.477 22.079.04 6.116 3.517 6.146 9.202.069 12.698-6.078 3.495-15.964 3.477-22.08-.04-6.116-3.518-6.146-9.202-.069-12.698" mask="url(#v)"/>
            <path fill="#119965" d="M325.534 437.444l-60.001 34.506v-1.096l60.001-34.506z" mask="url(#v)"/>
            <path fill="#4CE5AB" d="M265.533 470.853l-122.39-70.383 59.238-34.067 123.153 69.945z" mask="url(#v)"/>
            <path fill="#26D198" d="M265.533 471.95l-122.39-70.384v-1.096l122.39 70.383z" mask="url(#v)"/>
            <path fill="#1AB57D" d="M277.954 457.905c-7.75-2.48-17.215-2.502-24.943-.058L165.76 407.67c4.249-4.443 4.212-9.888-.101-14.343l24.3-13.976c7.789 2.494 17.314 2.502 25.064.02l87.808 49.87c-4.16 4.427-4.095 9.825.187 14.25l-25.064 14.414zm29.18-32.008l-86.353-49.043-18.4-10.45-18.176 10.451-22.887 13.162-18.176 10.453 104.101 59.866 18.29 10.518 18.175-10.452 41.826-24.054-18.4-10.451z" mask="url(#v)"/>
            <path fill="#1AB57D" d="M187.057 392.51c6.078-3.495 15.964-3.476 22.08.04 6.116 3.517 6.146 9.202.069 12.698-6.079 3.495-15.964 3.477-22.08-.04-6.116-3.517-6.146-9.202-.069-12.697M261.09 434.744c6.077-3.495 15.963-3.477 22.079.04 6.116 3.517 6.146 9.202.069 12.697-6.078 3.496-15.964 3.478-22.08-.04-6.116-3.517-6.146-9.201-.069-12.697" mask="url(#v)"/>
            <path fill="#119965" d="M325.534 435.433l-60.001 34.506v-1.096l60.001-34.506z" mask="url(#v)"/>
            <path fill="#4CE5AB" d="M265.533 468.843l-122.39-70.384 59.238-34.068 123.153 69.946z" mask="url(#v)"/>
            <path fill="#26D198" d="M265.533 469.939l-122.39-70.384v-1.096l122.39 70.384z" mask="url(#v)"/>
            <path fill="#1AB57D" d="M277.954 455.893c-7.75-2.48-17.215-2.5-24.943-.057l-87.251-50.177c4.249-4.444 4.212-9.888-.101-14.343l24.3-13.976c7.789 2.494 17.314 2.502 25.064.02l87.808 49.87c-4.16 4.426-4.095 9.826.187 14.25l-25.064 14.413zm29.18-32.007l-86.353-49.044-18.4-10.45-18.176 10.452-22.887 13.161-18.176 10.453 104.101 59.866 18.29 10.519 18.175-10.453 41.826-24.053-18.4-10.451z" mask="url(#v)"/>
            <path fill="#1AB57D" d="M187.057 390.5c6.078-3.496 15.964-3.478 22.08.04 6.116 3.516 6.146 9.201.069 12.697-6.079 3.495-15.964 3.477-22.08-.04-6.116-3.517-6.146-9.202-.069-12.697M261.09 432.733c6.077-3.495 15.963-3.477 22.079.04 6.116 3.517 6.146 9.202.069 12.697-6.078 3.496-15.964 3.478-22.08-.04-6.116-3.517-6.146-9.201-.069-12.697" mask="url(#v)"/>
            <path fill="#119965" d="M325.534 433.422l-60.001 34.506v-1.096l60.001-34.507z" mask="url(#v)"/>
            <path fill="#4CE5AB" d="M265.533 466.832l-122.39-70.384 59.238-34.068 123.153 69.945z" mask="url(#v)"/>
            <path fill="#26D198" d="M265.533 467.928l-122.39-70.384v-1.096l122.39 70.384z" mask="url(#v)"/>
            <path fill="#1AB57D" d="M277.954 453.883c-7.75-2.48-17.215-2.502-24.943-.058l-87.251-50.177c4.249-4.444 4.212-9.888-.101-14.344l24.3-13.975c7.789 2.493 17.314 2.502 25.064.02l87.808 49.87c-4.16 4.426-4.095 9.825.187 14.25l-25.064 14.414zm29.18-32.008L220.78 372.83l-18.4-10.45-18.176 10.452-22.887 13.162-18.176 10.452 104.101 59.866 18.29 10.519 18.175-10.453 41.826-24.054-18.4-10.45z" mask="url(#v)"/>
            <path fill="#1AB57D" d="M187.057 388.488c6.078-3.495 15.964-3.477 22.08.04 6.116 3.517 6.146 9.202.069 12.697-6.079 3.496-15.964 3.479-22.08-.04-6.116-3.516-6.146-9.201-.069-12.697M261.09 430.722c6.077-3.495 15.963-3.477 22.079.04 6.116 3.517 6.146 9.202.069 12.697-6.078 3.495-15.964 3.478-22.08-.04-6.116-3.517-6.146-9.202-.069-12.697" mask="url(#v)"/>
            <path fill="#119965" d="M325.534 431.41l-60.001 34.507v-1.097l60.001-34.506z" mask="url(#v)"/>
            <path fill="#4CE5AB" d="M265.533 464.82l-122.39-70.384 59.238-34.067 123.153 69.945z" mask="url(#v)"/>
            <path fill="#26D198" d="M265.533 465.917l-122.39-70.384v-1.097l122.39 70.384z" mask="url(#v)"/>
            <path fill="#1AB57D" d="M277.954 451.872c-7.75-2.48-17.215-2.502-24.943-.058l-87.251-50.177c4.249-4.444 4.212-9.888-.101-14.344l24.3-13.975c7.789 2.493 17.314 2.502 25.064.02l87.808 49.87c-4.16 4.426-4.095 9.825.187 14.25l-25.064 14.414zm29.18-32.008L220.78 370.82l-18.4-10.45-18.176 10.452-22.887 13.162-18.176 10.452 104.101 59.866 18.29 10.518 18.175-10.452 41.826-24.053-18.4-10.451z" mask="url(#v)"/>
            <path fill="#1AB57D" d="M187.057 386.477c6.078-3.495 15.964-3.477 22.08.04 6.116 3.517 6.146 9.202.069 12.697-6.079 3.496-15.964 3.478-22.08-.04-6.116-3.516-6.146-9.201-.069-12.697M261.09 428.71c6.077-3.494 15.963-3.476 22.079.04 6.116 3.518 6.146 9.203.069 12.698-6.078 3.495-15.964 3.478-22.08-.04-6.116-3.517-6.146-9.202-.069-12.697" mask="url(#v)"/>
            <path fill="#119965" d="M325.534 429.4l-60.001 34.506v-1.097l60.001-34.505z" mask="url(#v)"/>
            <path fill="#4CE5AB" d="M265.533 462.81l-122.39-70.385 59.238-34.067 123.153 69.945z" mask="url(#v)"/>
            <path fill="#26D198" d="M265.533 463.906l-122.39-70.385v-1.096l122.39 70.384z" mask="url(#v)"/>
            <path fill="#1AB57D" d="M277.954 449.86c-7.75-2.48-17.215-2.501-24.943-.057l-87.251-50.177c4.249-4.444 4.212-9.888-.101-14.344l24.3-13.975c7.789 2.493 17.314 2.502 25.064.02l87.808 49.87c-4.16 4.426-4.095 9.825.187 14.25l-25.064 14.413zm29.18-32.007l-86.353-49.044-18.4-10.45-18.176 10.451-22.887 13.162-18.176 10.453 104.101 59.866 18.29 10.518 18.175-10.452 41.826-24.053-18.4-10.451z" mask="url(#v)"/>
            <path fill="#1AB57D" d="M187.057 384.466c6.078-3.495 15.964-3.477 22.08.04 6.116 3.517 6.146 9.202.069 12.697-6.079 3.496-15.964 3.478-22.08-.04-6.116-3.516-6.146-9.202-.069-12.697M261.09 426.7c6.077-3.496 15.963-3.477 22.079.04 6.116 3.516 6.146 9.202.069 12.697-6.078 3.495-15.964 3.477-22.08-.04-6.116-3.517-6.146-9.202-.069-12.697" mask="url(#v)"/>
            <path fill="#119965" d="M325.534 427.389l-60.001 34.505v-1.096l60.001-34.506z" mask="url(#v)"/>
            <path fill="#4CE5AB" d="M265.533 460.798l-122.39-70.384 59.238-34.067 123.153 69.945z" mask="url(#v)"/>
            <path fill="#26D198" d="M265.533 461.894l-122.39-70.384v-1.096l122.39 70.384z" mask="url(#v)"/>
            <path fill="#1AB57D" d="M277.954 447.85c-7.75-2.481-17.215-2.502-24.943-.059l-87.251-50.176c4.249-4.444 4.212-9.888-.101-14.344l24.3-13.975c7.789 2.493 17.314 2.502 25.064.02l87.808 49.87c-4.16 4.426-4.095 9.825.187 14.25l-25.064 14.413zm29.18-32.008l-86.353-49.044-18.4-10.45-18.176 10.451-22.887 13.162-18.176 10.453 104.101 59.866 18.29 10.518 18.175-10.452 41.826-24.053-18.4-10.451z" mask="url(#v)"/>
            <path fill="#1AB57D" d="M187.057 382.455c6.078-3.495 15.964-3.477 22.08.04 6.116 3.517 6.146 9.202.069 12.697-6.079 3.495-15.964 3.478-22.08-.04-6.116-3.517-6.146-9.201-.069-12.697M261.09 424.689c6.077-3.496 15.963-3.478 22.079.04 6.116 3.516 6.146 9.201.069 12.697-6.078 3.495-15.964 3.477-22.08-.04-6.116-3.517-6.146-9.202-.069-12.697" mask="url(#v)"/>
            <path fill="#119965" d="M325.534 425.378l-60.001 34.505v-1.096l60.001-34.506z" mask="url(#v)"/>
            <path fill="#4CE5AB" d="M265.533 458.787l-122.39-70.384 59.238-34.067 123.153 69.945z" mask="url(#v)"/>
            <path fill="#26D198" d="M265.533 459.883L143.143 389.5v-1.096l122.39 70.384z" mask="url(#v)"/>
            <path fill="#1AB57D" d="M277.954 445.838c-7.75-2.48-17.215-2.502-24.943-.058l-87.251-50.176c4.249-4.444 4.212-9.888-.101-14.344l24.3-13.976c7.789 2.494 17.314 2.502 25.064.02l87.808 49.87c-4.16 4.427-4.095 9.826.187 14.25l-25.064 14.414zm29.18-32.008l-86.353-49.043-18.4-10.45-18.176 10.451-22.887 13.162-18.176 10.453 104.101 59.866 18.29 10.518 18.175-10.452 41.826-24.054-18.4-10.45z" mask="url(#v)"/>
            <path fill="#1AB57D" d="M187.057 380.444c6.078-3.496 15.964-3.477 22.08.04 6.116 3.517 6.146 9.202.069 12.697-6.079 3.496-15.964 3.478-22.08-.04-6.116-3.517-6.146-9.201-.069-12.697M261.09 422.677c6.077-3.495 15.963-3.477 22.079.04 6.116 3.518 6.146 9.202.069 12.698-6.078 3.495-15.964 3.478-22.08-.04-6.116-3.517-6.146-9.202-.069-12.698" mask="url(#v)"/>
            <path fill="#119965" d="M325.534 423.366l-60.001 34.506v-1.096l60.001-34.506z" mask="url(#v)"/>
            <path fill="#4CE5AB" d="M265.533 456.776l-122.39-70.384 59.238-34.067 123.153 69.945z" mask="url(#v)"/>
            <path fill="#26D198" d="M265.533 457.872l-122.39-70.384v-1.096l122.39 70.384z" mask="url(#v)"/>
            <path fill="#1AB57D" d="M277.954 443.827c-7.75-2.48-17.215-2.502-24.943-.058l-87.251-50.176c4.249-4.444 4.212-9.888-.101-14.344l24.3-13.976c7.789 2.494 17.314 2.502 25.064.02l87.808 49.87c-4.16 4.427-4.095 9.826.187 14.25l-25.064 14.414zm29.18-32.008l-86.353-49.043-18.4-10.45-18.176 10.452-22.887 13.16-18.176 10.453 104.101 59.866 18.29 10.519 18.175-10.452 41.826-24.054-18.4-10.45z" mask="url(#v)"/>
            <path fill="#1AB57D" d="M187.057 378.433c6.078-3.496 15.964-3.478 22.08.04 6.116 3.517 6.146 9.201.069 12.697-6.079 3.496-15.964 3.478-22.08-.04-6.116-3.517-6.146-9.202-.069-12.697M261.09 420.666c6.077-3.495 15.963-3.477 22.079.04 6.116 3.517 6.146 9.202.069 12.697-6.078 3.496-15.964 3.479-22.08-.04-6.116-3.516-6.146-9.201-.069-12.697" mask="url(#v)"/>
            <path fill="#119965" d="M325.534 421.355l-60.001 34.506v-1.096l60.001-34.506z" mask="url(#v)"/>
            <path fill="#4CE5AB" d="M265.533 454.765l-122.39-70.384 59.238-34.067 123.153 69.944z" mask="url(#v)"/>
            <path fill="#26D198" d="M265.533 455.86l-122.39-70.383v-1.096l122.39 70.384z" mask="url(#v)"/>
            <path fill="#1AB57D" d="M277.954 441.816c-7.75-2.48-17.215-2.502-24.943-.058l-87.251-50.176c4.249-4.445 4.212-9.888-.101-14.345l24.3-13.974c7.789 2.493 17.314 2.501 25.064.019l87.808 49.87c-4.16 4.426-4.095 9.826.187 14.25l-25.064 14.414zm29.18-32.008l-86.353-49.044-18.4-10.45-18.176 10.452-22.887 13.162-18.176 10.453 104.101 59.865 18.29 10.519 18.175-10.453 41.826-24.053-18.4-10.45z" mask="url(#v)"/>
            <path fill="#1AB57D" d="M187.057 376.422c6.078-3.496 15.964-3.478 22.08.039 6.116 3.518 6.146 9.202.069 12.698-6.079 3.495-15.964 3.478-22.08-.04-6.116-3.517-6.146-9.202-.069-12.697M261.09 418.655c6.077-3.495 15.963-3.477 22.079.04 6.116 3.517 6.146 9.202.069 12.697-6.078 3.496-15.964 3.478-22.08-.04-6.116-3.516-6.146-9.202-.069-12.697" mask="url(#v)"/>
            <path fill="#119965" d="M325.534 419.344l-60.001 34.506v-1.096l60.001-34.506z" mask="url(#v)"/>
            <path fill="#4CE5AB" d="M265.533 452.754l-122.39-70.384 59.238-34.067 123.153 69.944z" mask="url(#v)"/>
            <path fill="#26D198" d="M265.533 453.85l-122.39-70.384v-1.096l122.39 70.384z" mask="url(#v)"/>
            <path fill="#1AB57D" d="M277.954 439.805c-7.75-2.48-17.215-2.502-24.943-.058L165.76 389.57c4.249-4.444 4.212-9.888-.101-14.344l24.3-13.974c7.789 2.493 17.314 2.501 25.064.019l87.808 49.87c-4.16 4.427-4.095 9.825.187 14.25l-25.064 14.414zm29.18-32.008l-86.353-49.044-18.4-10.45-18.176 10.452-22.887 13.162-18.176 10.453 104.101 59.866 18.29 10.518 18.175-10.453 41.826-24.053-18.4-10.451z" mask="url(#v)"/>
            <path fill="#1AB57D" d="M187.057 374.41c6.078-3.495 15.964-3.477 22.08.04 6.116 3.517 6.146 9.202.069 12.697-6.079 3.496-15.964 3.479-22.08-.039-6.116-3.517-6.146-9.202-.069-12.697M261.09 416.644c6.077-3.495 15.963-3.477 22.079.04 6.116 3.517 6.146 9.202.069 12.697-6.078 3.495-15.964 3.478-22.08-.04-6.116-3.517-6.146-9.201-.069-12.697" mask="url(#v)"/>
            <path fill="#119965" d="M325.534 417.333l-60.001 34.506v-1.097l60.001-34.505z" mask="url(#v)"/>
            <path fill="#4CE5AB" d="M265.533 450.742l-122.39-70.384 59.238-34.066 123.153 69.945z" mask="url(#v)"/>
            <path fill="#26D198" d="M265.533 451.839l-122.39-70.384v-1.097l122.39 70.384z" mask="url(#v)"/>
            <path fill="#1AB57D" d="M277.954 437.794c-7.75-2.48-17.215-2.502-24.943-.058l-87.251-50.177c4.249-4.444 4.212-9.888-.101-14.344l24.3-13.975c7.789 2.494 17.314 2.502 25.064.02l87.808 49.87c-4.16 4.427-4.095 9.825.187 14.25l-25.064 14.414zm29.18-32.008l-86.353-49.044-18.4-10.45-18.176 10.452-22.887 13.162-18.176 10.453 104.101 59.866 18.29 10.518 18.175-10.453 41.826-24.053-18.4-10.451z" mask="url(#v)"/>
            <path fill="#1AB57D" d="M187.057 372.4c6.078-3.496 15.964-3.477 22.08.04 6.116 3.516 6.146 9.2.069 12.697-6.079 3.495-15.964 3.477-22.08-.04-6.116-3.517-6.146-9.202-.069-12.697M261.09 414.633c6.077-3.496 15.963-3.477 22.079.04 6.116 3.517 6.146 9.202.069 12.697-6.078 3.496-15.964 3.478-22.08-.04-6.116-3.517-6.146-9.201-.069-12.697" mask="url(#v)"/>
        </g>
        <g transform="translate(188 406)">
            <mask id="x" fill="#fff">
                <use xlink:href="#w"/>
            </mask>
            <path fill="#111D28" fill-opacity=".1" d="M.391 25.396V.35l37.234 20.424v25.044z" mask="url(#x)"/>
        </g>
        <g>
            <g transform="translate(187.994 371.519)">
                <mask id="z" fill="#fff">
                    <use xlink:href="#y"/>
                </mask>
                <path fill="#111D28" fill-opacity=".1" d="M60.385.553L.383 35.06l36.488 20.984 60.002-34.506z" mask="url(#z)"/>
            </g>
            <mask id="B" fill="#fff">
                <use xlink:href="#A"/>
            </mask>
            <path fill="#EBF0F3" d="M187.872 431.807v-25.732l36.488 20.984v25.732z" mask="url(#B)"/>
            <path fill="#FFF" d="M247.874 371.569l-60.002 34.506 36.488 20.983 60.002-34.505z" mask="url(#B)"/>
            <path fill="#26D198" d="M143.251 375.483l60.002 34.506v-1.097l-60.002-34.505z" mask="url(#B)"/>
            <path fill="#4CE5AB" d="M203.253 408.892l122.39-70.384-59.238-34.066-123.154 69.944z" mask="url(#B)"/>
            <path fill="#119965" d="M203.253 409.989l122.39-70.384v-1.097l-122.39 70.384z" mask="url(#B)"/>
            <path fill="#1AB57D" d="M165.768 381.53c4.281-4.425 4.347-9.823.187-14.25l87.808-49.87c7.75 2.482 17.275 2.474 25.064-.02l24.3 13.975c-4.313 4.456-4.35 9.9-.1 14.344l-87.252 50.177c-7.728-2.444-17.194-2.422-24.943.058l-25.064-14.415zm-22.517-7.143l41.827 24.053 18.175 10.452 18.29-10.517 104.1-59.866-18.175-10.453-22.887-13.162-18.176-10.453-18.4 10.451-86.353 49.044-18.4 10.45z" mask="url(#B)"/>
            <path fill="#1AB57D" d="M281.728 330.55c-6.077-3.496-15.963-3.478-22.079.039-6.116 3.517-6.147 9.202-.07 12.697 6.079 3.496 15.964 3.478 22.08-.039 6.116-3.517 6.147-9.202.07-12.697M207.696 372.783c-6.078-3.495-15.963-3.477-22.079.04-6.116 3.516-6.147 9.202-.07 12.697 6.079 3.495 15.964 3.478 22.08-.04 6.116-3.517 6.147-9.202.07-12.697" mask="url(#B)"/>
            <path fill="#26D198" d="M143.251 373.472l60.002 34.505v-1.096l-60.002-34.505z" mask="url(#B)"/>
            <path fill="#4CE5AB" d="M203.253 406.881l122.39-70.384-59.238-34.067-123.154 69.945z" mask="url(#B)"/>
            <path fill="#119965" d="M203.253 407.977l122.39-70.384v-1.096l-122.39 70.384z" mask="url(#B)"/>
            <path fill="#1AB57D" d="M165.768 379.519c4.281-4.425 4.347-9.824.187-14.25l87.808-49.87c7.75 2.482 17.275 2.474 25.064-.02l24.3 13.975c-4.313 4.456-4.35 9.9-.1 14.344l-87.252 50.177c-7.728-2.444-17.194-2.422-24.943.057l-25.064-14.413zm-22.517-7.143l41.827 24.053 18.175 10.452 18.29-10.518 104.1-59.866-18.175-10.453-22.887-13.161-18.176-10.453-18.4 10.45-86.353 49.045-18.4 10.45z" mask="url(#B)"/>
            <path fill="#1AB57D" d="M281.728 328.539c-6.077-3.496-15.963-3.478-22.079.04-6.116 3.516-6.147 9.2-.07 12.697 6.079 3.495 15.964 3.477 22.08-.04 6.116-3.518 6.147-9.202.07-12.697M207.696 370.772c-6.078-3.496-15.963-3.477-22.079.04-6.116 3.517-6.147 9.201-.07 12.697 6.079 3.495 15.964 3.478 22.08-.04 6.116-3.517 6.147-9.201.07-12.697" mask="url(#B)"/>
            <path fill="#26D198" d="M143.251 371.46l60.002 34.507v-1.096l-60.002-34.507z" mask="url(#B)"/>
            <path fill="#4CE5AB" d="M203.253 404.87l122.39-70.384-59.238-34.067-123.154 69.945z" mask="url(#B)"/>
            <path fill="#119965" d="M203.253 405.966l122.39-70.384v-1.096l-122.39 70.384z" mask="url(#B)"/>
            <path fill="#1AB57D" d="M165.768 377.508c4.281-4.425 4.347-9.824.187-14.25l87.808-49.87c7.75 2.482 17.275 2.473 25.064-.02l24.3 13.974c-4.313 4.457-4.35 9.901-.1 14.345l-87.252 50.176c-7.728-2.443-17.194-2.422-24.943.058l-25.064-14.413zm-22.517-7.143l41.827 24.053 18.175 10.452 18.29-10.518 104.1-59.866-18.175-10.453-22.887-13.161-18.176-10.453-18.4 10.45-86.353 49.044-18.4 10.452z" mask="url(#B)"/>
            <path fill="#1AB57D" d="M281.728 326.527c-6.077-3.495-15.963-3.477-22.079.04-6.116 3.517-6.147 9.202-.07 12.697 6.079 3.496 15.964 3.478 22.08-.04 6.116-3.517 6.147-9.201.07-12.697M207.696 368.761c-6.078-3.496-15.963-3.478-22.079.04-6.116 3.517-6.147 9.201-.07 12.697 6.079 3.496 15.964 3.478 22.08-.04 6.116-3.517 6.147-9.202.07-12.697" mask="url(#B)"/>
            <path fill="#26D198" d="M143.251 369.45l60.002 34.506v-1.097l-60.002-34.506z" mask="url(#B)"/>
            <path fill="#4CE5AB" d="M203.253 402.859l122.39-70.384-59.238-34.067-123.154 69.945z" mask="url(#B)"/>
            <path fill="#119965" d="M203.253 403.955l122.39-70.384v-1.096l-122.39 70.384z" mask="url(#B)"/>
            <path fill="#1AB57D" d="M165.768 375.496c4.281-4.425 4.347-9.823.187-14.25l87.808-49.87c7.75 2.483 17.275 2.474 25.064-.02l24.3 13.975c-4.313 4.457-4.35 9.901-.1 14.345l-87.252 50.176c-7.728-2.443-17.194-2.422-24.943.059l-25.064-14.415zm-22.517-7.143l41.827 24.054 18.175 10.452 18.29-10.518 104.1-59.866-18.175-10.453-22.887-13.161-18.176-10.453-18.4 10.451-86.353 49.043-18.4 10.451z" mask="url(#B)"/>
            <path fill="#1AB57D" d="M281.728 324.516c-6.077-3.496-15.963-3.477-22.079.04-6.116 3.517-6.147 9.201-.07 12.697 6.079 3.496 15.964 3.478 22.08-.04 6.116-3.517 6.147-9.201.07-12.697M207.696 366.75c-6.078-3.496-15.963-3.478-22.079.039-6.116 3.518-6.147 9.202-.07 12.698 6.079 3.495 15.964 3.478 22.08-.04 6.116-3.517 6.147-9.202.07-12.698" mask="url(#B)"/>
            <path fill="#26D198" d="M143.251 367.438l60.002 34.507v-1.097l-60.002-34.506z" mask="url(#B)"/>
            <path fill="#4CE5AB" d="M203.253 400.848l122.39-70.384-59.238-34.067-123.154 69.945z" mask="url(#B)"/>
            <path fill="#119965" d="M203.253 401.944l122.39-70.384v-1.096l-122.39 70.384z" mask="url(#B)"/>
            <path fill="#1AB57D" d="M165.768 373.485c4.281-4.425 4.347-9.823.187-14.25l87.808-49.87c7.75 2.483 17.275 2.474 25.064-.02l24.3 13.976c-4.313 4.456-4.35 9.9-.1 14.344l-87.252 50.177c-7.728-2.444-17.194-2.423-24.943.058l-25.064-14.415zm-22.517-7.142l41.827 24.053 18.175 10.452 18.29-10.518 104.1-59.866-18.175-10.453-22.887-13.162-18.176-10.452-18.4 10.45-86.353 49.045-18.4 10.45z" mask="url(#B)"/>
            <path fill="#1AB57D" d="M281.728 322.505c-6.077-3.495-15.963-3.478-22.079.04-6.116 3.517-6.147 9.201-.07 12.697 6.079 3.496 15.964 3.478 22.08-.04 6.116-3.517 6.147-9.202.07-12.697M207.696 364.739c-6.078-3.496-15.963-3.478-22.079.039-6.116 3.517-6.147 9.202-.07 12.697 6.079 3.496 15.964 3.478 22.08-.039 6.116-3.517 6.147-9.202.07-12.697" mask="url(#B)"/>
            <path fill="#26D198" d="M143.251 365.427l60.002 34.506v-1.096l-60.002-34.506z" mask="url(#B)"/>
            <path fill="#4CE5AB" d="M203.253 398.837l122.39-70.384-59.238-34.067-123.154 69.945z" mask="url(#B)"/>
            <path fill="#119965" d="M203.253 399.933l122.39-70.384v-1.096l-122.39 70.384z" mask="url(#B)"/>
            <path fill="#1AB57D" d="M165.768 371.474c4.281-4.425 4.347-9.823.187-14.25l87.808-49.87c7.75 2.483 17.275 2.474 25.064-.02l24.3 13.975c-4.313 4.456-4.35 9.9-.1 14.344l-87.252 50.177c-7.728-2.443-17.194-2.422-24.943.058l-25.064-14.414zm-22.517-7.142l41.827 24.053 18.175 10.452 18.29-10.518 104.1-59.866L307.468 318l-22.887-13.162-18.176-10.452-18.4 10.45-86.353 49.045-18.4 10.45z" mask="url(#B)"/>
            <path fill="#1AB57D" d="M281.728 320.494c-6.077-3.495-15.963-3.477-22.079.04-6.116 3.517-6.147 9.202-.07 12.697 6.079 3.495 15.964 3.478 22.08-.04 6.116-3.517 6.147-9.202.07-12.697M207.696 362.728c-6.078-3.496-15.963-3.478-22.079.039-6.116 3.517-6.147 9.202-.07 12.697 6.079 3.496 15.964 3.478 22.08-.039 6.116-3.517 6.147-9.202.07-12.697" mask="url(#B)"/>
            <path fill="#26D198" d="M143.251 363.416l60.002 34.506v-1.096l-60.002-34.506z" mask="url(#B)"/>
            <path fill="#4CE5AB" d="M203.253 396.826l122.39-70.385-59.238-34.066-123.154 69.945z" mask="url(#B)"/>
            <path fill="#119965" d="M203.253 397.922l122.39-70.384v-1.097l-122.39 70.385z" mask="url(#B)"/>
            <path fill="#1AB57D" d="M165.768 369.463c4.281-4.425 4.347-9.823.187-14.25l87.808-49.87c7.75 2.482 17.275 2.474 25.064-.02l24.3 13.975c-4.313 4.456-4.35 9.9-.1 14.344l-87.252 50.177c-7.728-2.444-17.194-2.422-24.943.058l-25.064-14.414zm-22.517-7.143l41.827 24.054 18.175 10.452 18.29-10.518 104.1-59.866-18.175-10.453-22.887-13.162-18.176-10.452-18.4 10.45-86.353 49.044-18.4 10.451z" mask="url(#B)"/>
            <path fill="#1AB57D" d="M281.728 318.483c-6.077-3.496-15.963-3.477-22.079.04-6.116 3.516-6.147 9.202-.07 12.697 6.079 3.495 15.964 3.477 22.08-.04 6.116-3.517 6.147-9.202.07-12.697M207.696 360.716c-6.078-3.495-15.963-3.477-22.079.04-6.116 3.517-6.147 9.202-.07 12.698 6.079 3.495 15.964 3.477 22.08-.04 6.116-3.518 6.147-9.202.07-12.698" mask="url(#B)"/>
            <path fill="#26D198" d="M143.251 361.405l60.002 34.506v-1.096l-60.002-34.506z" mask="url(#B)"/>
            <path fill="#4CE5AB" d="M203.253 394.814l122.39-70.384-59.238-34.066-123.154 69.945z" mask="url(#B)"/>
            <path fill="#119965" d="M203.253 395.911l122.39-70.384v-1.097l-122.39 70.384z" mask="url(#B)"/>
            <path fill="#1AB57D" d="M165.768 367.452c4.281-4.425 4.347-9.823.187-14.25l87.808-49.87c7.75 2.482 17.275 2.474 25.064-.02l24.3 13.975c-4.313 4.457-4.35 9.9-.1 14.345l-87.252 50.176c-7.728-2.444-17.194-2.422-24.943.058l-25.064-14.414zm-22.517-7.143l41.827 24.054 18.175 10.451 18.29-10.518 104.1-59.866-18.175-10.452-22.887-13.162-18.176-10.452-18.4 10.45-86.353 49.044-18.4 10.451z" mask="url(#B)"/>
            <path fill="#1AB57D" d="M281.728 316.472c-6.077-3.496-15.963-3.478-22.079.04-6.116 3.516-6.147 9.201-.07 12.697 6.079 3.495 15.964 3.477 22.08-.04 6.116-3.517 6.147-9.202.07-12.697M207.696 358.705c-6.078-3.496-15.963-3.477-22.079.04-6.116 3.517-6.147 9.202-.07 12.697 6.079 3.496 15.964 3.478 22.08-.04 6.116-3.517 6.147-9.201.07-12.697" mask="url(#B)"/>
            <path fill="#26D198" d="M143.251 359.394l60.002 34.506v-1.096l-60.002-34.507z" mask="url(#B)"/>
            <path fill="#4CE5AB" d="M203.253 392.804l122.39-70.384-59.238-34.068-123.154 69.945z" mask="url(#B)"/>
            <path fill="#119965" d="M203.253 393.9l122.39-70.384v-1.096l-122.39 70.384z" mask="url(#B)"/>
            <path fill="#1AB57D" d="M165.768 365.44c4.281-4.424 4.347-9.823.187-14.249l87.808-49.87c7.75 2.482 17.275 2.473 25.064-.02l24.3 13.975c-4.313 4.457-4.35 9.9-.1 14.345l-87.252 50.176c-7.728-2.444-17.194-2.423-24.943.058l-25.064-14.414zm-22.517-7.142l41.827 24.053 18.175 10.452 18.29-10.518 104.1-59.866-18.175-10.452-22.887-13.162-18.176-10.452-18.4 10.45-86.353 49.044-18.4 10.451z" mask="url(#B)"/>
            <path fill="#1AB57D" d="M281.728 314.46c-6.077-3.495-15.963-3.477-22.079.04-6.116 3.517-6.147 9.202-.07 12.698 6.079 3.495 15.964 3.477 22.08-.04 6.116-3.518 6.147-9.202.07-12.698M207.696 356.694c-6.078-3.495-15.963-3.477-22.079.04-6.116 3.517-6.147 9.201-.07 12.697 6.079 3.496 15.964 3.478 22.08-.04 6.116-3.517 6.147-9.202.07-12.697" mask="url(#B)"/>
            <path fill="#26D198" d="M143.251 357.383l60.002 34.506v-1.096l-60.002-34.507z" mask="url(#B)"/>
            <path fill="#4CE5AB" d="M203.253 390.793l122.39-70.384-59.238-34.068-123.154 69.945z" mask="url(#B)"/>
            <path fill="#119965" d="M203.253 391.889l122.39-70.384v-1.096l-122.39 70.384z" mask="url(#B)"/>
            <path fill="#1AB57D" d="M165.768 363.43c4.281-4.425 4.347-9.824.187-14.25l87.808-49.87c7.75 2.482 17.275 2.473 25.064-.02l24.3 13.975c-4.313 4.456-4.35 9.9-.1 14.344l-87.252 50.177c-7.728-2.444-17.194-2.423-24.943.058l-25.064-14.414zm-22.517-7.143l41.827 24.053 18.175 10.452 18.29-10.518 104.1-59.866-18.175-10.452-22.887-13.162-18.176-10.453-18.4 10.451-86.353 49.044-18.4 10.45z" mask="url(#B)"/>
            <path fill="#1AB57D" d="M281.728 312.45c-6.077-3.496-15.963-3.478-22.079.039-6.116 3.517-6.147 9.202-.07 12.697 6.079 3.496 15.964 3.478 22.08-.04 6.116-3.516 6.147-9.201.07-12.697M207.696 354.683c-6.078-3.495-15.963-3.477-22.079.04-6.116 3.517-6.147 9.202-.07 12.697 6.079 3.495 15.964 3.478 22.08-.04 6.116-3.517 6.147-9.202.07-12.697" mask="url(#B)"/>
            <path fill="#26D198" d="M143.251 355.371l60.002 34.507v-1.097l-60.002-34.506z" mask="url(#B)"/>
            <path fill="#4CE5AB" d="M203.253 388.781l122.39-70.384-59.238-34.067-123.154 69.945z" mask="url(#B)"/>
            <path fill="#119965" d="M203.253 389.878l122.39-70.384v-1.097l-122.39 70.384z" mask="url(#B)"/>
            <path fill="#1AB57D" d="M165.768 361.418c4.281-4.424 4.347-9.822.187-14.249l87.808-49.87c7.75 2.482 17.275 2.474 25.064-.02l24.3 13.975c-4.313 4.456-4.35 9.9-.1 14.344l-87.252 50.177c-7.728-2.444-17.194-2.423-24.943.058l-25.064-14.415zm-22.517-7.142l41.827 24.053 18.175 10.452 18.29-10.518 104.1-59.865-18.175-10.453-22.887-13.162-18.176-10.453-18.4 10.451-86.353 49.044-18.4 10.45z" mask="url(#B)"/>
            <path fill="#1AB57D" d="M281.728 310.438c-6.077-3.495-15.963-3.477-22.079.04-6.116 3.517-6.147 9.202-.07 12.697 6.079 3.496 15.964 3.478 22.08-.04 6.116-3.516 6.147-9.202.07-12.697M207.696 352.672c-6.078-3.496-15.963-3.477-22.079.04-6.116 3.516-6.147 9.202-.07 12.697 6.079 3.495 15.964 3.478 22.08-.04 6.116-3.517 6.147-9.202.07-12.697" mask="url(#B)"/>
            <path fill="#26D198" d="M143.251 353.36l60.002 34.506v-1.096l-60.002-34.506z" mask="url(#B)"/>
            <path fill="#4CE5AB" d="M203.253 386.77l122.39-70.384-59.238-34.067-123.154 69.945z" mask="url(#B)"/>
            <path fill="#119965" d="M203.253 387.866l122.39-70.384v-1.096l-122.39 70.384z" mask="url(#B)"/>
            <path fill="#1AB57D" d="M165.768 359.407c4.281-4.424 4.347-9.823.187-14.249l87.808-49.87c7.75 2.482 17.275 2.474 25.064-.02l24.3 13.975c-4.313 4.456-4.35 9.9-.1 14.344l-87.252 50.177c-7.728-2.444-17.194-2.423-24.943.057l-25.064-14.414zm-22.517-7.142l41.827 24.053 18.175 10.452 18.29-10.518 104.1-59.866-18.175-10.453-22.887-13.162-18.176-10.452-18.4 10.45-86.353 49.045-18.4 10.45z" mask="url(#B)"/>
            <path fill="#1AB57D" d="M281.728 308.427c-6.077-3.495-15.963-3.477-22.079.04-6.116 3.517-6.147 9.202-.07 12.697 6.079 3.495 15.964 3.478 22.08-.04 6.116-3.517 6.147-9.202.07-12.697M207.696 350.66c-6.078-3.495-15.963-3.476-22.079.04-6.116 3.517-6.147 9.202-.07 12.698 6.079 3.495 15.964 3.477 22.08-.04 6.116-3.517 6.147-9.202.07-12.697" mask="url(#B)"/>
            <path fill="#26D198" d="M143.251 351.35l60.002 34.505v-1.096l-60.002-34.506z" mask="url(#B)"/>
            <path fill="#4CE5AB" d="M203.253 384.76l122.39-70.385-59.238-34.067-123.154 69.945z" mask="url(#B)"/>
            <path fill="#119965" d="M203.253 385.855l122.39-70.384v-1.096l-122.39 70.384z" mask="url(#B)"/>
            <path fill="#1AB57D" d="M165.768 357.396c4.281-4.424 4.347-9.823.187-14.25l87.808-49.87c7.75 2.482 17.275 2.474 25.064-.019l24.3 13.974c-4.313 4.457-4.35 9.9-.1 14.345l-87.252 50.176c-7.728-2.443-17.194-2.422-24.943.058l-25.064-14.414zm-22.517-7.143l41.827 24.054 18.175 10.452 18.29-10.518 104.1-59.866-18.175-10.453-22.887-13.161-18.176-10.453-18.4 10.45-86.353 49.044-18.4 10.451z" mask="url(#B)"/>
            <path fill="#1AB57D" d="M281.728 306.416c-6.077-3.495-15.963-3.477-22.079.04-6.116 3.516-6.147 9.202-.07 12.697 6.079 3.495 15.964 3.478 22.08-.04 6.116-3.517 6.147-9.202.07-12.697M207.696 348.65c-6.078-3.496-15.963-3.478-22.079.04-6.116 3.516-6.147 9.201-.07 12.697 6.079 3.495 15.964 3.477 22.08-.04 6.116-3.517 6.147-9.202.07-12.697" mask="url(#B)"/>
        </g>
        <g transform="translate(242 341)">
            <mask id="D" fill="#fff">
                <use xlink:href="#C"/>
            </mask>
            <path fill="#111D28" fill-opacity=".1" d="M37.917 25.225V.18L.072 20.603v25.045z" mask="url(#D)"/>
        </g>
        <g>
            <g transform="translate(183.79 305.71)">
                <mask id="F" fill="#fff">
                    <use xlink:href="#E"/>
                </mask>
                <path fill="#111D28" fill-opacity=".1" d="M36.617.378L96.62 34.884 60.131 55.868.13 21.362z" mask="url(#F)"/>
            </g>
            <mask id="H" fill="#fff">
                <use xlink:href="#G"/>
            </mask>
            <path fill="#C2CBD3" d="M280.913 365.824v-25.733l-36.487 20.984v25.732z" mask="url(#H)"/>
            <path fill="#FFF" d="M220.912 305.586l60.001 34.505-36.488 20.984-60.001-34.506z" mask="url(#H)"/>
            <path fill="#26D198" d="M205.518 411.3l60.002 34.506v-1.097l-60.002-34.506z" mask="url(#H)"/>
            <path fill="#4CE5AB" d="M265.52 444.709l122.39-70.384-59.238-34.067-123.154 69.945z" mask="url(#H)"/>
            <path fill="#119965" d="M265.52 445.805l122.39-70.383v-1.097l-122.39 70.384z" mask="url(#H)"/>
            <path fill="#1AB57D" d="M228.035 417.346c4.28-4.425 4.347-9.823.186-14.25l87.808-49.87c7.75 2.483 17.275 2.474 25.064-.02l24.3 13.976c-4.312 4.456-4.35 9.9-.1 14.344l-87.251 50.177c-7.728-2.444-17.194-2.423-24.943.058l-25.064-14.415zm-22.517-7.142l41.826 24.053 18.176 10.452 18.29-10.518 104.1-59.866-18.176-10.452-22.886-13.162-18.176-10.453-18.4 10.451-86.353 49.044-18.401 10.45z" mask="url(#H)"/>
            <path fill="#1AB57D" d="M343.995 366.366c-6.078-3.495-15.963-3.477-22.08.04-6.115 3.517-6.146 9.202-.068 12.697 6.077 3.496 15.963 3.478 22.079-.04 6.116-3.517 6.147-9.201.07-12.697M269.963 408.6c-6.078-3.496-15.963-3.478-22.08.039-6.115 3.518-6.146 9.202-.068 12.697 6.077 3.496 15.963 3.479 22.079-.039 6.116-3.517 6.147-9.202.07-12.697" mask="url(#H)"/>
            <path fill="#26D198" d="M205.518 409.288l60.002 34.507v-1.097l-60.002-34.506z" mask="url(#H)"/>
            <path fill="#4CE5AB" d="M265.52 442.698l122.39-70.384-59.238-34.067-123.154 69.945z" mask="url(#H)"/>
            <path fill="#119965" d="M265.52 443.795l122.39-70.385v-1.096l-122.39 70.384z" mask="url(#H)"/>
            <path fill="#1AB57D" d="M228.035 415.335c4.28-4.425 4.347-9.823.186-14.25l87.808-49.87c7.75 2.483 17.275 2.474 25.064-.02l24.3 13.976c-4.312 4.456-4.35 9.9-.1 14.344l-87.251 50.177c-7.728-2.444-17.194-2.423-24.943.057l-25.064-14.414zm-22.517-7.142l41.826 24.053 18.176 10.452 18.29-10.518 104.1-59.866-18.176-10.453-22.886-13.162-18.176-10.452-18.4 10.45-86.353 49.045-18.401 10.45z" mask="url(#H)"/>
            <path fill="#1AB57D" d="M343.995 364.355c-6.078-3.495-15.963-3.477-22.08.04-6.115 3.517-6.146 9.202-.068 12.697 6.077 3.495 15.963 3.478 22.079-.04 6.116-3.516 6.147-9.202.07-12.697M269.963 406.589c-6.078-3.496-15.963-3.477-22.08.04-6.115 3.516-6.146 9.201-.068 12.697 6.077 3.495 15.963 3.477 22.079-.04 6.116-3.517 6.147-9.202.07-12.697" mask="url(#H)"/>
            <path fill="#26D198" d="M205.518 407.277l60.002 34.506v-1.096l-60.002-34.506z" mask="url(#H)"/>
            <path fill="#4CE5AB" d="M265.52 440.687l122.39-70.384-59.238-34.067-123.154 69.945z" mask="url(#H)"/>
            <path fill="#119965" d="M265.52 441.783l122.39-70.384v-1.096l-122.39 70.384z" mask="url(#H)"/>
            <path fill="#1AB57D" d="M228.035 413.324c4.28-4.424 4.347-9.823.186-14.25l87.808-49.87c7.75 2.483 17.275 2.474 25.064-.02l24.3 13.975c-4.312 4.456-4.35 9.9-.1 14.345l-87.251 50.176c-7.728-2.443-17.194-2.422-24.943.058l-25.064-14.414zm-22.517-7.142l41.826 24.053 18.176 10.452 18.29-10.518 104.1-59.866-18.176-10.453-22.886-13.162-18.176-10.452-18.4 10.45-86.353 49.045-18.401 10.45z" mask="url(#H)"/>
            <path fill="#1AB57D" d="M343.995 362.344c-6.078-3.495-15.963-3.477-22.08.04-6.115 3.517-6.146 9.202-.068 12.697 6.077 3.495 15.963 3.478 22.079-.04 6.116-3.517 6.147-9.202.07-12.697M269.963 404.578c-6.078-3.496-15.963-3.478-22.08.04-6.115 3.516-6.146 9.201-.068 12.697 6.077 3.495 15.963 3.477 22.079-.04 6.116-3.517 6.147-9.202.07-12.697" mask="url(#H)"/>
            <path fill="#26D198" d="M205.518 405.266l60.002 34.506v-1.096l-60.002-34.506z" mask="url(#H)"/>
            <path fill="#4CE5AB" d="M265.52 438.675l122.39-70.383-59.238-34.067-123.154 69.945z" mask="url(#H)"/>
            <path fill="#119965" d="M265.52 439.772l122.39-70.384v-1.096l-122.39 70.383z" mask="url(#H)"/>
            <path fill="#1AB57D" d="M228.035 411.313c4.28-4.425 4.347-9.823.186-14.25l87.808-49.87c7.75 2.482 17.275 2.474 25.064-.02l24.3 13.975c-4.312 4.457-4.35 9.9-.1 14.345l-87.251 50.176c-7.728-2.444-17.194-2.422-24.943.058l-25.064-14.414zm-22.517-7.143l41.826 24.054 18.176 10.451 18.29-10.517 104.1-59.866-18.176-10.453-22.886-13.162-18.176-10.452-18.4 10.45-86.353 49.044-18.401 10.451z" mask="url(#H)"/>
            <path fill="#1AB57D" d="M343.995 360.333c-6.078-3.496-15.963-3.477-22.08.04-6.115 3.516-6.146 9.202-.068 12.697 6.077 3.495 15.963 3.477 22.079-.04 6.116-3.517 6.147-9.202.07-12.697M269.963 402.566c-6.078-3.495-15.963-3.477-22.08.04-6.115 3.517-6.146 9.202-.068 12.698 6.077 3.495 15.963 3.477 22.079-.04 6.116-3.518 6.147-9.202.07-12.698" mask="url(#H)"/>
            <path fill="#26D198" d="M205.518 403.255l60.002 34.506v-1.096l-60.002-34.506z" mask="url(#H)"/>
            <path fill="#4CE5AB" d="M265.52 436.664l122.39-70.383-59.238-34.067-123.154 69.945z" mask="url(#H)"/>
            <path fill="#119965" d="M265.52 437.761l122.39-70.384v-1.096l-122.39 70.383z" mask="url(#H)"/>
            <path fill="#1AB57D" d="M228.035 409.302c4.28-4.425 4.347-9.823.186-14.25l87.808-49.87c7.75 2.482 17.275 2.474 25.064-.02l24.3 13.975c-4.312 4.457-4.35 9.9-.1 14.345l-87.251 50.176c-7.728-2.444-17.194-2.422-24.943.058l-25.064-14.414zm-22.517-7.143l41.826 24.054 18.176 10.451 18.29-10.518 104.1-59.866-18.176-10.452-22.886-13.162-18.176-10.452-18.4 10.45-86.353 49.044-18.401 10.451z" mask="url(#H)"/>
            <path fill="#1AB57D" d="M343.995 358.322c-6.078-3.496-15.963-3.478-22.08.04-6.115 3.516-6.146 9.201-.068 12.697 6.077 3.495 15.963 3.477 22.079-.04 6.116-3.517 6.147-9.202.07-12.697M269.963 400.555c-6.078-3.495-15.963-3.477-22.08.04-6.115 3.517-6.146 9.202-.068 12.697 6.077 3.496 15.963 3.478 22.079-.04 6.116-3.517 6.147-9.201.07-12.697" mask="url(#H)"/>
            <path fill="#26D198" d="M205.518 401.244l60.002 34.506v-1.096l-60.002-34.507z" mask="url(#H)"/>
            <path fill="#4CE5AB" d="M265.52 434.654l122.39-70.384-59.238-34.068-123.154 69.945z" mask="url(#H)"/>
            <path fill="#119965" d="M265.52 435.75l122.39-70.384v-1.096l-122.39 70.384z" mask="url(#H)"/>
            <path fill="#1AB57D" d="M228.035 407.29c4.28-4.424 4.347-9.823.186-14.249l87.808-49.87c7.75 2.482 17.275 2.473 25.064-.02l24.3 13.975c-4.312 4.457-4.35 9.9-.1 14.344l-87.251 50.177c-7.728-2.444-17.194-2.423-24.943.058l-25.064-14.414zm-22.517-7.142l41.826 24.053 18.176 10.452 18.29-10.518 104.1-59.866-18.176-10.452-22.886-13.162-18.176-10.452-18.4 10.45-86.353 49.044-18.401 10.451z" mask="url(#H)"/>
            <path fill="#1AB57D" d="M343.995 356.31c-6.078-3.495-15.963-3.477-22.08.04-6.115 3.518-6.146 9.202-.068 12.698 6.077 3.495 15.963 3.478 22.079-.04 6.116-3.517 6.147-9.202.07-12.698M269.963 398.544c-6.078-3.495-15.963-3.477-22.08.04-6.115 3.517-6.146 9.202-.068 12.697 6.077 3.496 15.963 3.478 22.079-.04 6.116-3.517 6.147-9.202.07-12.697" mask="url(#H)"/>
            <path fill="#26D198" d="M205.518 399.233l60.002 34.506v-1.096l-60.002-34.507z" mask="url(#H)"/>
            <path fill="#4CE5AB" d="M265.52 432.643l122.39-70.385-59.238-34.067-123.154 69.945z" mask="url(#H)"/>
            <path fill="#119965" d="M265.52 433.739l122.39-70.384v-1.097l-122.39 70.385z" mask="url(#H)"/>
            <path fill="#1AB57D" d="M228.035 405.28c4.28-4.425 4.347-9.824.186-14.25l87.808-49.87c7.75 2.482 17.275 2.474 25.064-.02l24.3 13.975c-4.312 4.456-4.35 9.9-.1 14.344l-87.251 50.177c-7.728-2.444-17.194-2.423-24.943.058l-25.064-14.414zm-22.517-7.143l41.826 24.053 18.176 10.452 18.29-10.518 104.1-59.865-18.176-10.453-22.886-13.162-18.176-10.452-18.4 10.45-86.353 49.044-18.401 10.45z" mask="url(#H)"/>
            <path fill="#1AB57D" d="M343.995 354.3c-6.078-3.496-15.963-3.478-22.08.039-6.115 3.517-6.146 9.202-.068 12.697 6.077 3.496 15.963 3.479 22.079-.04 6.116-3.516 6.147-9.201.07-12.697M269.963 396.533c-6.078-3.495-15.963-3.477-22.08.04-6.115 3.517-6.146 9.202-.068 12.697 6.077 3.495 15.963 3.478 22.079-.04 6.116-3.517 6.147-9.202.07-12.697" mask="url(#H)"/>
            <path fill="#26D198" d="M205.518 397.222l60.002 34.506v-1.097l-60.002-34.505z" mask="url(#H)"/>
            <path fill="#4CE5AB" d="M265.52 430.631l122.39-70.384-59.238-34.066-123.154 69.944z" mask="url(#H)"/>
            <path fill="#119965" d="M265.52 431.728l122.39-70.384v-1.097l-122.39 70.384z" mask="url(#H)"/>
            <path fill="#1AB57D" d="M228.035 403.268c4.28-4.424 4.347-9.822.186-14.249l87.808-49.87c7.75 2.482 17.275 2.474 25.064-.02l24.3 13.975c-4.312 4.456-4.35 9.9-.1 14.344l-87.251 50.177c-7.728-2.444-17.194-2.423-24.943.058l-25.064-14.415zm-22.517-7.142l41.826 24.053 18.176 10.452 18.29-10.518 104.1-59.866-18.176-10.453-22.886-13.16-18.176-10.454-18.4 10.451-86.353 49.044-18.401 10.45z" mask="url(#H)"/>
            <path fill="#1AB57D" d="M343.995 352.288c-6.078-3.495-15.963-3.477-22.08.04-6.115 3.517-6.146 9.202-.068 12.697 6.077 3.496 15.963 3.478 22.079-.04 6.116-3.516 6.147-9.202.07-12.697M269.963 394.522c-6.078-3.496-15.963-3.477-22.08.04-6.115 3.516-6.146 9.202-.068 12.697 6.077 3.495 15.963 3.478 22.079-.04 6.116-3.517 6.147-9.202.07-12.697" mask="url(#H)"/>
            <path fill="#26D198" d="M205.518 395.21l60.002 34.506v-1.096l-60.002-34.506z" mask="url(#H)"/>
            <path fill="#4CE5AB" d="M265.52 428.62l122.39-70.384-59.238-34.067-123.154 69.945z" mask="url(#H)"/>
            <path fill="#119965" d="M265.52 429.716l122.39-70.384v-1.096L265.52 428.62z" mask="url(#H)"/>
            <path fill="#1AB57D" d="M228.035 401.257c4.28-4.424 4.347-9.823.186-14.249l87.808-49.87c7.75 2.482 17.275 2.473 25.064-.02l24.3 13.975c-4.312 4.456-4.35 9.9-.1 14.344l-87.251 50.177c-7.728-2.444-17.194-2.423-24.943.057l-25.064-14.414zm-22.517-7.142l41.826 24.053 18.176 10.452 18.29-10.518 104.1-59.866-18.176-10.453-22.886-13.161-18.176-10.453-18.4 10.45-86.353 49.045-18.401 10.45z" mask="url(#H)"/>
            <path fill="#1AB57D" d="M343.995 350.277c-6.078-3.495-15.963-3.477-22.08.04-6.115 3.517-6.146 9.202-.068 12.697 6.077 3.495 15.963 3.478 22.079-.04 6.116-3.517 6.147-9.201.07-12.697M269.963 392.51c-6.078-3.495-15.963-3.476-22.08.04-6.115 3.517-6.146 9.202-.068 12.698 6.077 3.495 15.963 3.477 22.079-.04 6.116-3.517 6.147-9.202.07-12.697" mask="url(#H)"/>
            <path fill="#26D198" d="M205.518 393.2l60.002 34.505v-1.096l-60.002-34.506z" mask="url(#H)"/>
            <path fill="#4CE5AB" d="M265.52 426.61l122.39-70.385-59.238-34.067-123.154 69.945z" mask="url(#H)"/>
            <path fill="#119965" d="M265.52 427.705l122.39-70.384v-1.096L265.52 426.61z" mask="url(#H)"/>
            <path fill="#1AB57D" d="M228.035 399.246c4.28-4.424 4.347-9.823.186-14.25l87.808-49.87c7.75 2.482 17.275 2.474 25.064-.019l24.3 13.974c-4.312 4.457-4.35 9.9-.1 14.345l-87.251 50.176c-7.728-2.443-17.194-2.422-24.943.058l-25.064-14.414zm-22.517-7.143l41.826 24.054 18.176 10.452 18.29-10.518 104.1-59.866-18.176-10.453-22.886-13.161-18.176-10.453-18.4 10.45-86.353 49.044-18.401 10.451z" mask="url(#H)"/>
            <path fill="#1AB57D" d="M343.995 348.266c-6.078-3.496-15.963-3.477-22.08.04-6.115 3.517-6.146 9.202-.068 12.697 6.077 3.496 15.963 3.478 22.079-.04 6.116-3.517 6.147-9.201.07-12.697M269.963 390.5c-6.078-3.496-15.963-3.478-22.08.04-6.115 3.516-6.146 9.201-.068 12.697 6.077 3.495 15.963 3.477 22.079-.04 6.116-3.517 6.147-9.202.07-12.697" mask="url(#H)"/>
            <path fill="#26D198" d="M205.518 391.188l60.002 34.506v-1.096l-60.002-34.506z" mask="url(#H)"/>
            <path fill="#4CE5AB" d="M265.52 424.598l122.39-70.384-59.238-34.067-123.154 69.945z" mask="url(#H)"/>
            <path fill="#119965" d="M265.52 425.694l122.39-70.384v-1.096l-122.39 70.384z" mask="url(#H)"/>
            <path fill="#1AB57D" d="M228.035 397.235c4.28-4.425 4.347-9.823.186-14.25l87.808-49.87c7.75 2.483 17.275 2.474 25.064-.02l24.3 13.975c-4.312 4.457-4.35 9.9-.1 14.345l-87.251 50.176c-7.728-2.444-17.194-2.422-24.943.058l-25.064-14.414zm-22.517-7.143l41.826 24.054 18.176 10.451 18.29-10.517 104.1-59.866-18.176-10.453-22.886-13.161-18.176-10.453-18.4 10.45-86.353 49.044-18.401 10.451z" mask="url(#H)"/>
            <path fill="#1AB57D" d="M343.995 346.255c-6.078-3.496-15.963-3.477-22.08.04-6.115 3.517-6.146 9.201-.068 12.697 6.077 3.496 15.963 3.478 22.079-.04 6.116-3.517 6.147-9.201.07-12.697M269.963 388.488c-6.078-3.495-15.963-3.477-22.08.04-6.115 3.517-6.146 9.202-.068 12.697 6.077 3.496 15.963 3.479 22.079-.04 6.116-3.516 6.147-9.201.07-12.697" mask="url(#H)"/>
            <path fill="#26D198" d="M205.518 389.177l60.002 34.507v-1.097l-60.002-34.506z" mask="url(#H)"/>
            <path fill="#4CE5AB" d="M265.52 422.587l122.39-70.384-59.238-34.067-123.154 69.945z" mask="url(#H)"/>
            <path fill="#119965" d="M265.52 423.683L387.91 353.3v-1.096l-122.39 70.384z" mask="url(#H)"/>
            <path fill="#1AB57D" d="M228.035 395.224c4.28-4.425 4.347-9.823.186-14.25l87.808-49.87c7.75 2.483 17.275 2.474 25.064-.02l24.3 13.975c-4.312 4.457-4.35 9.9-.1 14.345l-87.251 50.176c-7.728-2.443-17.194-2.422-24.943.058l-25.064-14.414zm-22.517-7.143l41.826 24.053 18.176 10.453 18.29-10.518 104.1-59.866-18.176-10.453-22.886-13.162-18.176-10.452-18.4 10.45-86.353 49.044-18.401 10.451z" mask="url(#H)"/>
            <path fill="#1AB57D" d="M343.995 344.244c-6.078-3.496-15.963-3.478-22.08.04-6.115 3.517-6.146 9.201-.068 12.697 6.077 3.495 15.963 3.478 22.079-.04 6.116-3.517 6.147-9.202.07-12.697M269.963 386.477c-6.078-3.495-15.963-3.477-22.08.04-6.115 3.517-6.146 9.202-.068 12.697 6.077 3.496 15.963 3.478 22.079-.04 6.116-3.516 6.147-9.201.07-12.697" mask="url(#H)"/>
            <path fill="#26D198" d="M205.518 387.166l60.002 34.506v-1.096l-60.002-34.506z" mask="url(#H)"/>
            <path fill="#4CE5AB" d="M265.52 420.576l122.39-70.384-59.238-34.067-123.154 69.944z" mask="url(#H)"/>
            <path fill="#119965" d="M265.52 421.672l122.39-70.384v-1.096l-122.39 70.384z" mask="url(#H)"/>
            <path fill="#1AB57D" d="M228.035 393.213c4.28-4.425 4.347-9.823.186-14.25l87.808-49.87c7.75 2.483 17.275 2.474 25.064-.02l24.3 13.975c-4.312 4.456-4.35 9.9-.1 14.344l-87.251 50.177c-7.728-2.443-17.194-2.422-24.943.058l-25.064-14.414zm-22.517-7.143l41.826 24.053 18.176 10.453 18.29-10.518 104.1-59.866-18.176-10.453-22.886-13.162-18.176-10.453-18.4 10.451-86.353 49.044-18.401 10.451z" mask="url(#H)"/>
            <path fill="#1AB57D" d="M343.995 342.233c-6.078-3.496-15.963-3.478-22.08.039-6.115 3.518-6.146 9.202-.068 12.697 6.077 3.496 15.963 3.479 22.079-.039 6.116-3.517 6.147-9.202.07-12.697M269.963 384.466c-6.078-3.495-15.963-3.477-22.08.04-6.115 3.517-6.146 9.202-.068 12.697 6.077 3.496 15.963 3.478 22.079-.04 6.116-3.516 6.147-9.202.07-12.697" mask="url(#H)"/>
        </g>
        <g transform="translate(307 376)">
            <mask id="J" fill="#fff">
                <use xlink:href="#I"/>
            </mask>
            <path fill="#111D28" fill-opacity=".1" d="M37.716 25.149V.103L.482 20.527v25.045z" mask="url(#J)"/>
        </g>
        <g>
            <g transform="translate(245.653 341.606)">
                <mask id="L" fill="#fff">
                    <use xlink:href="#K"/>
                </mask>
                <path fill="#111D28" fill-opacity=".1" d="M37.02.3l60.002 34.505L60.534 55.79.533 21.283z" mask="url(#L)"/>
            </g>
            <mask id="N" fill="#fff">
                <use xlink:href="#M"/>
            </mask>
            <path fill="#C2CBD3" d="M343.18 401.64v-25.732l-36.488 20.984v25.732z" mask="url(#N)"/>
            <path fill="#FFF" d="M283.178 341.402l60.002 34.506-36.488 20.983-60.001-34.505zM141.95 23.92l-3.89 2.237L96.974 2.53l3.89-2.237zM153.307 114.705l-3.89 2.237-11.357-6.531 3.89-2.237zM100.864 84.545l-3.89 2.237-11.358-6.53 3.89-2.238z" mask="url(#N)"/>
            <path fill="#C2CBD3" d="M141.95 23.92l-3.89 2.237v84.254l3.89-2.237z" mask="url(#N)"/>
            <path fill="#EBF0F3" d="M117.517 135.059L85.616 80.25l11.358 6.532V2.53l41.086 23.628v84.253l11.357 6.531z" mask="url(#N)"/>
        </g>
    </g>
</svg>
