<svg xmlns="http://www.w3.org/2000/svg" width="65" height="65" viewBox="0 0 65 65">
    <path fill="#FFF" fill-rule="evenodd" d="M49.85 11.253a3.902 3.902 0 0 0-3.903 3.9c0 2.153 1.747 3.9 3.903 3.9a3.896 3.896 0 0 0 3.894-3.9c0-2.153-1.741-3.9-3.894-3.9M32.5 43.333c-5.983 0-10.833-4.848-10.833-10.833 0-5.983 4.85-10.833 10.833-10.833 5.983 0 10.833 4.85 10.833 10.833 0 5.985-4.85 10.833-10.833 10.833m0-27.522c-9.216 0-16.689 7.473-16.689 16.689 0 9.216 7.473 16.691 16.689 16.691 9.216 0 16.689-7.472 16.689-16.691 0-9.216-7.473-16.689-16.689-16.689M32.5 0c-8.826 0-9.931.038-13.398.195C7.299.737.739 7.285.198 19.099.038 22.57 0 23.674 0 32.5s.038 9.934.195 13.4c.542 11.804 7.09 18.363 18.904 18.905 3.47.157 4.575.195 13.401.195s9.934-.038 13.4-.195c11.793-.542 18.369-7.09 18.902-18.904.16-3.467.198-4.575.198-13.401s-.038-9.931-.198-13.398C64.274 7.31 57.715.739 45.904.198 42.434.038 41.326 0 32.5 0m0 5.858c8.678 0 9.707.033 13.133.19 8.807.4 12.924 4.58 13.322 13.322.16 3.426.19 4.455.19 13.133 0 8.68-.033 9.706-.19 13.132-.4 8.735-4.504 12.922-13.322 13.323-3.426.157-4.45.19-13.133.19-8.678 0-9.707-.033-13.133-.19-8.829-.404-12.921-4.602-13.322-13.325-.157-3.426-.19-4.453-.19-13.133 0-8.677.036-9.704.19-13.133.404-8.74 4.507-12.921 13.322-13.322 3.429-.154 4.455-.187 13.133-.187"/>
</svg>
