<svg xmlns="http://www.w3.org/2000/svg" xmlns:xlink="http://www.w3.org/1999/xlink" width="88" height="75" viewBox="0 0 88 75">
    <defs>
        <circle id="a" cx="15" cy="15" r="15"/>
    </defs>
    <g fill="none" fill-rule="evenodd">
        <path fill="#FFF" d="M62.101 12.434L29.846 41.369l-1.18 11.048-5.314-17.445 37.66-23.928a.903.903 0 0 1 1.19.202.87.87 0 0 1-.1 1.188M75.118.599a2.543 2.543 0 0 0-2.524-.441C59.321 5.047 18.428 20.308 1.718 26.46A2.604 2.604 0 0 0 0 28.977a2.613 2.613 0 0 0 1.875 2.407c7.498 2.23 17.337 5.33 17.337 5.33s4.598 13.816 6.995 20.84c.3.882.994 1.575 1.91 1.815a2.754 2.754 0 0 0 2.568-.652l9.803-9.208S51.8 57.76 58.213 62.304a3.79 3.79 0 0 0 3.508.457 3.667 3.667 0 0 0 2.293-2.646c2.752-12.864 9.427-45.426 11.932-57.128a2.447 2.447 0 0 0-.827-2.388"/>
        <g transform="translate(54 41)">
            <mask id="b" fill="#fff">
                <use xlink:href="#a"/>
            </mask>
            <use fill="#D8D8D8" stroke="#FFF" stroke-width="7" xlink:href="#a"/>
            <g mask="url(#b)">
                <path fill="#FFF" d="M-5 31.47h40V-3H-5z"/>
                <path fill="#000" d="M4.244 11L7.94 5.265m-5.084 4.78l3.698-5.736M1.47 9.089l3.697-5.736M2.195 9.796l-.724-.478 3.62-5.377.723.478-3.62 5.377zm1.357.896l-.724-.478 3.62-5.377.724.478-3.62 5.377zm1.358.896l-.724-.478 3.62-5.377.723.478-3.62 5.377zM24.832 25.118l3.697-5.736m-5.084 4.78l3.698-5.735m-5.084 4.779l3.697-5.735M22.195 22.737l-.724-.478 3.62-5.377.723.478-3.62 5.377zm1.357.896l-.724-.478 3.62-5.377.724.478-3.62 5.377zm1.357.896l-.723-.478 3.62-5.376.723.478-3.62 5.376zM22.647 19.235l4.706 2.941"/>
                <path fill="#FFF" d="M27.43 22.765l-4.783-2.847.51-.683 4.784 2.847z"/>
                <path fill="#F00" d="M9.729 10.889c2.049-3.016 6.202-3.83 9.275-1.82 3.074 2.01 3.905 6.085 1.856 9.1-2.05 3.017-6.202 3.832-9.276 1.821-3.074-2.01-3.904-6.085-1.855-9.101"/>
                <path fill="#0047A0" d="M9.729 10.889a3.244 3.244 0 0 0 .927 4.55c1.537 1.006 3.614.598 4.638-.91 1.025-1.508 3.101-1.915 4.638-.91a3.244 3.244 0 0 1 .928 4.55c-2.05 3.017-6.202 3.832-9.276 1.821-3.074-2.01-3.904-6.085-1.855-9.101"/>
                <path fill="#000" d="M8.337 23.024l-3.71-5.46m2.319 6.37l-3.71-5.46m2.319 6.37l-3.71-5.46M7.966 23.267l-3.71-5.461.742-.486 3.71 5.461-.742.486zm-1.391.91l-3.71-5.461.742-.485 3.71 5.46-.742.486zm-1.391.91l-3.71-5.46.741-.486 3.71 5.46-.741.486zM28.744 9.675l-3.71-5.46m2.319 6.37l-3.71-5.46m2.318 6.37l-3.71-5.46M28.373 9.918l-3.71-5.46.742-.486 3.71 5.46-.742.486zm-1.391.91l-3.71-5.46.741-.486 3.71 5.46-.741.486zm-1.392.91l-3.71-5.46.742-.486 3.71 5.461-.742.485zM26.193 7.4l1.391-.91m-4.406 2.882l1.624-1.062M4.395 21.66l1.392-.91"/>
                <path fill="#FFF" d="M26.44 7.764l-.494-.728 1.391-.91.495.728-1.392.91zm-3.014 1.972l-.495-.728 1.623-1.062.495.728-1.623 1.062zM4.643 22.023l-.495-.728 1.391-.91.495.728-1.391.91z"/>
            </g>
        </g>
    </g>
</svg>
