<svg xmlns="http://www.w3.org/2000/svg" xmlns:xlink="http://www.w3.org/1999/xlink" width="85" height="75" viewBox="0 0 85 75">
    <defs>
        <circle id="a" cx="15" cy="15" r="15"/>
    </defs>
    <g fill="none" fill-rule="evenodd">
        <g fill="#FFF">
            <path d="M30.739 27.203l-2.247 6.382h4.493z"/>
            <path d="M67.557 39.486a2.233 2.233 0 0 1-.872 1.483 2.227 2.227 0 0 1-1.353.454 2.231 2.231 0 0 1-1.797-.894L58.26 33.54l-.78.78v4.908a2.253 2.253 0 0 1-2.25 2.25 2.251 2.251 0 0 1-2.25-2.249V23.842c0-1.24 1.01-2.249 2.25-2.249s2.249 1.009 2.249 2.25v4.833l6.275-6.275c.323-.322.766-.5 1.248-.5.561 0 1.125.242 1.548.664.394.394.629.9.66 1.426a1.753 1.753 0 0 1-.496 1.37l-5.125 5.124 5.536 7.335a2.23 2.23 0 0 1 .432 1.666zM49.95 41.18h-7.216c-1.188 0-2.155-.926-2.155-2.062V23.842c0-1.24 1.03-2.249 2.296-2.249 1.266 0 2.296 1.009 2.296 2.25v13.213h4.78c1.188 0 2.155.925 2.155 2.062 0 1.136-.967 2.062-2.156 2.062zm-11.367-.012a3.44 3.44 0 0 1-1.43.31c-.938 0-1.655-.38-1.871-.993l-1.114-2.916h-6.859l-1.114 2.917c-.216.612-.933.992-1.87.992-.494 0-.982-.105-1.43-.31-.62-.286-1.216-1.072-.533-3.194l5.38-14.16c.379-1.078 1.53-2.187 2.995-2.22 1.469.032 2.62 1.142 3 2.222l5.378 14.154c.684 2.126.088 2.913-.532 3.198zM19.68 39.36c0 1.184-1.009 2.148-2.249 2.148-1.24 0-2.25-.964-2.25-2.148V25.998h-3.509a2.207 2.207 0 0 1-2.207-2.203c0-1.214.99-2.202 2.207-2.202H23.19c1.217 0 2.207.988 2.207 2.202 0 1.215-.99 2.203-2.207 2.203h-3.51V39.36zM38.986.039C17.454.039 0 13.8 0 30.777c0 10.976 7.297 20.606 18.274 26.044-.597 2.06-3.838 13.25-3.967 14.129 0 0-.077.66.35.912.428.252.931.056.931.056 1.227-.171 14.224-9.3 16.473-10.886a49.39 49.39 0 0 0 6.925.484c21.53 0 38.985-13.762 38.985-30.739C77.971 13.801 60.517.04 38.986.04z"/>
        </g>
        <g transform="translate(51 41)">
            <mask id="b" fill="#fff">
                <use xlink:href="#a"/>
            </mask>
            <use fill="#D8D8D8" stroke="#FFF" stroke-width="7" xlink:href="#a"/>
            <g mask="url(#b)">
                <path fill="#FFF" d="M-5 31.47h40V-3H-5z"/>
                <path fill="#000" d="M4.244 11L7.94 5.265m-5.084 4.78l3.698-5.736M1.47 9.089l3.697-5.736M2.195 9.796l-.724-.478 3.62-5.377.723.478-3.62 5.377zm1.357.896l-.724-.478 3.62-5.377.724.478-3.62 5.377zm1.358.896l-.724-.478 3.62-5.377.723.478-3.62 5.377zM24.832 25.118l3.697-5.736m-5.084 4.78l3.698-5.735m-5.084 4.779l3.697-5.735M22.195 22.737l-.724-.478 3.62-5.377.723.478-3.62 5.377zm1.357.896l-.724-.478 3.62-5.377.724.478-3.62 5.377zm1.357.896l-.723-.478 3.62-5.376.723.478-3.62 5.376zM22.647 19.235l4.706 2.941"/>
                <path fill="#FFF" d="M27.43 22.765l-4.783-2.847.51-.683 4.784 2.847z"/>
                <path fill="#F00" d="M9.729 10.889c2.049-3.016 6.202-3.83 9.275-1.82 3.074 2.01 3.905 6.085 1.856 9.1-2.05 3.017-6.202 3.832-9.276 1.821-3.074-2.01-3.904-6.085-1.855-9.101"/>
                <path fill="#0047A0" d="M9.729 10.889a3.244 3.244 0 0 0 .927 4.55c1.537 1.006 3.614.598 4.638-.91 1.025-1.508 3.101-1.915 4.638-.91a3.244 3.244 0 0 1 .928 4.55c-2.05 3.017-6.202 3.832-9.276 1.821-3.074-2.01-3.904-6.085-1.855-9.101"/>
                <path fill="#000" d="M8.337 23.024l-3.71-5.46m2.319 6.37l-3.71-5.46m2.319 6.37l-3.71-5.46M7.966 23.267l-3.71-5.461.742-.486 3.71 5.461-.742.486zm-1.391.91l-3.71-5.461.742-.485 3.71 5.46-.742.486zm-1.391.91l-3.71-5.46.741-.486 3.71 5.46-.741.486zM28.744 9.675l-3.71-5.46m2.319 6.37l-3.71-5.46m2.318 6.37l-3.71-5.46M28.373 9.918l-3.71-5.46.742-.486 3.71 5.46-.742.486zm-1.391.91l-3.71-5.46.741-.486 3.71 5.46-.741.486zm-1.392.91l-3.71-5.46.742-.486 3.71 5.461-.742.485zM26.193 7.4l1.391-.91m-4.406 2.882l1.624-1.062M4.395 21.66l1.392-.91"/>
                <path fill="#FFF" d="M26.44 7.764l-.494-.728 1.391-.91.495.728-1.392.91zm-3.014 1.972l-.495-.728 1.623-1.062.495.728-1.623 1.062zM4.643 22.023l-.495-.728 1.391-.91.495.728-1.391.91z"/>
            </g>
        </g>
    </g>
</svg>
