<svg id="Bold" enable-background="new 0 0 24 24" height="64" viewBox="0 0 24 24" width="64" xmlns="http://www.w3.org/2000/svg"><path id="svg_1" d="m22.085,7.061383l1.915,-1.832l0,-0.401l-6.634,0l-4.728,11.768l-5.379,-11.768l-6.956,0l0,0.401l2.237,2.693c0.218,0.199 0.332,0.49 0.303,0.783l0,10.583c0.069,0.381 -0.055,0.773 -0.323,1.05l-2.52,3.054l0,0.396l7.145,0l0,-0.401l-2.52,-3.049c-0.273,-0.278 -0.402,-0.663 -0.347,-1.05l0,-9.154l6.272,13.659l0.729,0l5.393,-13.659l0,10.881c0,0.287 0,0.346 -0.188,0.534l-1.94,1.877l0,0.402l9.412,0l0,-0.401l-1.87,-1.831c-0.164,-0.124 -0.249,-0.332 -0.214,-0.534l0,-13.467c-0.035,-0.203 0.049,-0.411 0.213,-0.534z" fill="#FFF"/></svg>