<svg xmlns="http://www.w3.org/2000/svg" xmlns:xlink="http://www.w3.org/1999/xlink" width="404" height="359" viewBox="0 0 404 359">
    <defs>
        <path id="a" d="M.21.237h193.36v112.047H.21z"/>
        <path id="c" d="M0 358.394h402.722V.585H0z"/>
        <path id="e" d="M.592.395h193.361v112.047H.593z"/>
        <path id="g" d="M0 358.394h402.722V.585H0z"/>
        <path id="i" d="M.528.02h193.361v112.048H.528z"/>
        <path id="k" d="M0 358.394h402.722V.585H0z"/>
        <path id="m" d="M.19.14h193.362V112.19H.19z"/>
        <path id="o" d="M0 358.394h402.722V.585H0z"/>
        <path id="q" d="M.528.261h193.361v112.048H.528z"/>
        <path id="s" d="M0 358.394h402.722V.585H0z"/>
        <path id="u" d="M.309.14h193.656V112.38H.309z"/>
        <path id="w" d="M0 359.005h403.336V.586H0z"/>
        <path id="y" d="M.596.415h193.361v112.048H.596z"/>
        <path id="A" d="M0 358.394h402.722V.585H0z"/>
        <path id="C" d="M0 .134h193.361V112.18H0z"/>
        <path id="E" d="M0 358.394h402.722V.585H0z"/>
        <path id="G" d="M.587.458h193.361v112.048H.587z"/>
        <path id="I" d="M0 358.394h402.722V.585H0z"/>
    </defs>
    <g fill="none" fill-rule="evenodd">
        <g>
            <g transform="translate(93.046 136.444)">
                <mask id="b" fill="#fff">
                    <use xlink:href="#a"/>
                </mask>
                <path fill="#111D28" fill-opacity=".2" d="M28.313 96C9.587 85.148.226 70.915.209 56.65c-.016-14.409 9.5-28.852 28.532-39.88 37.874-21.947 99.089-22.058 136.726-.248 18.726 10.85 28.087 25.083 28.104 39.35.016 14.408-9.5 28.85-28.532 39.88-37.873 21.946-99.088 22.058-136.726.247" mask="url(#b)"/>
            </g>
            <mask id="d" fill="#fff">
                <use xlink:href="#c"/>
            </mask>
            <path fill="#1A82FF" d="M286.617 165.351v16.993c.017 14.409-9.5 28.852-28.531 39.88-37.874 21.947-99.089 22.059-136.727.248-18.725-10.85-28.087-25.083-28.103-39.35v-17.77h193.361z" mask="url(#d)"/>
            <path fill="#40A0FF" d="M121.36 205.48c-18.726-10.851-28.088-25.084-28.104-39.35-.017-14.409 9.5-28.852 28.531-39.88 37.875-21.947 99.089-22.058 136.727-.247 18.725 10.85 28.087 25.082 28.103 39.348.017 14.409-9.5 28.852-28.531 39.88-37.874 21.948-99.089 22.058-136.727.248" mask="url(#d)"/>
            <path fill="#1A82FF" d="M189.33 210.182c-23.717 0-45.805-5.232-62.2-14.733-14.39-8.338-22.32-18.756-22.334-29.334-.012-10.57 8.285-21.446 22.762-29.834 16.672-9.661 39.04-14.982 62.987-14.982 23.714 0 45.804 5.233 62.2 14.734 14.389 8.339 22.32 18.755 22.332 29.33.013 10.573-8.284 21.447-22.76 29.838-16.673 9.66-39.044 14.98-62.987 14.98" mask="url(#d)"/>
            <path fill="#0F7CE8" d="M127.558 138.598c16.673-9.662 39.04-14.982 62.987-14.982 23.714 0 45.804 5.232 62.2 14.733 13.864 8.035 21.71 18 22.276 28.175.022-.387.056-.774.056-1.16-.011-10.575-7.944-20.992-22.332-29.332-16.396-9.5-38.486-14.732-62.2-14.732-23.946 0-46.314 5.32-62.987 14.981-14.477 8.388-22.774 19.263-22.763 29.835 0 .385.034.77.056 1.155.571-10.202 8.76-20.591 22.707-28.673" mask="url(#d)"/>
            <path fill="#FFF" d="M179.438 187.956l.06-11.186a48.177 48.177 0 0 1-6.847-3.29c-12.171-7.053-13.685-14.598-4.049-20.182 4.02-2.329 8.688-3.553 13.68-3.626l-.21 38.758c2.48.396 4.984.66 7.489.774 1.052.048 2.093.06 3.129.057v.005c.137 0 .271-.006.408-.007.304-.003.611.001.914-.005v-.01c9.386-.206 18.03-2.456 25.207-6.615 8.296-4.807 12.204-10.741 11.304-17.162-.847-6.039-6.032-12.098-14.6-17.062-5.691-3.298-12.22-5.725-19.015-7.131l-.06 11.247c2.17.866 4.34 1.923 6.497 3.173 5.602 3.246 8.985 6.536 10.053 9.779 1.255 3.803-.792 7.383-5.918 10.353-3.992 2.313-8.564 3.513-13.415 3.63l.209-38.68a66.876 66.876 0 0 0-7.794-.83 63.147 63.147 0 0 0-1.556-.049h-.014a62.485 62.485 0 0 0-1.785-.016h-.224c-.188.001-.378-.003-.566 0v.013c-9.483.153-18.222 2.402-25.471 6.602-8.3 4.81-12.224 10.752-11.347 17.186.826 6.058 5.996 12.127 14.555 17.087 5.781 3.35 12.435 5.8 19.366 7.187" mask="url(#d)"/>
        </g>
        <g>
            <g transform="translate(106.339 111.581)">
                <mask id="f" fill="#fff">
                    <use xlink:href="#e"/>
                </mask>
                <path fill="#111D28" fill-opacity=".2" d="M28.695 96.157C9.97 85.307.608 71.074.592 56.808c-.017-14.409 9.5-28.852 28.531-39.88C66.998-5.02 128.213-5.13 165.85 16.68c18.725 10.85 28.087 25.083 28.103 39.35.017 14.408-9.5 28.85-28.531 39.88-37.874 21.946-99.089 22.058-136.727.247" mask="url(#f)"/>
            </g>
            <mask id="h" fill="#fff">
                <use xlink:href="#g"/>
            </mask>
            <path fill="#1A82FF" d="M300.292 140.646v16.993c.017 14.409-9.5 28.852-28.531 39.88-37.875 21.947-99.089 22.058-136.727.248-18.725-10.85-28.087-25.083-28.103-39.35v-17.77h193.361z" mask="url(#h)"/>
            <path fill="#40A0FF" d="M135.034 180.774c-18.725-10.85-28.087-25.083-28.103-39.349-.017-14.409 9.5-28.852 28.531-39.88 37.874-21.947 99.089-22.058 136.727-.248 18.725 10.85 28.087 25.083 28.103 39.35.017 14.408-9.5 28.851-28.531 39.88-37.875 21.947-99.089 22.057-136.727.247" mask="url(#h)"/>
            <path fill="#1A82FF" d="M203.005 185.477c-23.717 0-45.805-5.232-62.2-14.733-14.39-8.338-22.321-18.756-22.334-29.334-.012-10.57 8.285-21.446 22.762-29.834 16.672-9.661 39.04-14.982 62.986-14.982 23.714 0 45.805 5.233 62.2 14.734 14.39 8.339 22.321 18.755 22.333 29.33.013 10.573-8.284 21.447-22.76 29.838-16.674 9.66-39.044 14.98-62.987 14.98" mask="url(#h)"/>
            <path fill="#0F7CE8" d="M141.233 113.893c16.672-9.662 39.04-14.982 62.987-14.982 23.713 0 45.804 5.232 62.2 14.733 13.863 8.035 21.71 18 22.276 28.175.022-.387.056-.774.056-1.16-.012-10.575-7.943-20.992-22.333-29.332-16.395-9.5-38.486-14.732-62.2-14.732-23.945 0-46.314 5.32-62.986 14.981-14.477 8.388-22.774 19.263-22.762 29.834 0 .386.033.77.054 1.156.572-10.202 8.76-20.592 22.708-28.673" mask="url(#h)"/>
            <path fill="#FFF" d="M193.113 163.251l.06-11.186a48.159 48.159 0 0 1-6.847-3.29c-12.172-7.054-13.685-14.598-4.049-20.182 4.02-2.329 8.688-3.553 13.68-3.626l-.21 38.758c2.48.396 4.984.66 7.489.774 1.052.048 2.093.06 3.129.057v.005c.137 0 .271-.006.408-.007.304-.003.611.001.914-.005v-.01c9.385-.206 18.03-2.456 25.207-6.615 8.295-4.807 12.204-10.741 11.303-17.162-.846-6.039-6.031-12.098-14.598-17.062-5.692-3.298-12.22-5.725-19.016-7.131l-.06 11.247c2.17.866 4.34 1.923 6.497 3.173 5.601 3.246 8.984 6.536 10.053 9.779 1.255 3.803-.792 7.383-5.919 10.353-3.99 2.313-8.563 3.513-13.414 3.63l.209-38.68a66.878 66.878 0 0 0-7.794-.83c-.521-.025-1.038-.037-1.556-.049h-.014a62.5 62.5 0 0 0-1.785-.016h-.224c-.188.001-.379-.003-.566 0v.012c-9.483.154-18.222 2.403-25.472 6.603-8.3 4.81-12.223 10.752-11.346 17.186.826 6.058 5.995 12.127 14.555 17.087 5.781 3.35 12.435 5.8 19.366 7.187" mask="url(#h)"/>
        </g>
        <g>
            <g transform="translate(95.463 72.164)">
                <mask id="j" fill="#fff">
                    <use xlink:href="#i"/>
                </mask>
                <path fill="#111D28" fill-opacity=".2" d="M28.631 95.783C9.906 84.933.544 70.7.527 56.434c-.016-14.409 9.5-28.852 28.532-39.88 37.874-21.947 99.089-22.058 136.726-.248 18.726 10.85 28.088 25.083 28.104 39.35.016 14.408-9.5 28.85-28.532 39.88-37.873 21.946-99.088 22.058-136.726.247" mask="url(#j)"/>
            </g>
            <mask id="l" fill="#fff">
                <use xlink:href="#k"/>
            </mask>
            <path fill="#1A82FF" d="M289.352 100.855v16.993c.017 14.409-9.5 28.852-28.531 39.88-37.874 21.947-99.089 22.058-136.727.248-18.725-10.851-28.087-25.083-28.103-39.35v-17.771h193.361z" mask="url(#l)"/>
            <path fill="#40A0FF" d="M124.094 140.983c-18.725-10.85-28.087-25.083-28.103-39.35-.017-14.408 9.5-28.851 28.531-39.88 37.875-21.946 99.089-22.058 136.727-.247 18.725 10.85 28.087 25.083 28.103 39.35.017 14.407-9.5 28.85-28.531 39.879-37.874 21.947-99.089 22.058-136.727.248" mask="url(#l)"/>
            <path fill="#1A82FF" d="M192.065 145.685c-23.717 0-45.805-5.232-62.2-14.733-14.39-8.338-22.32-18.755-22.334-29.333-.012-10.57 8.285-21.446 22.762-29.835 16.672-9.66 39.04-14.981 62.987-14.981 23.714 0 45.804 5.233 62.2 14.733 14.389 8.34 22.32 18.756 22.332 29.331.013 10.573-8.284 21.447-22.76 29.837-16.673 9.661-39.044 14.981-62.987 14.981" mask="url(#l)"/>
            <path fill="#0F7CE8" d="M130.293 74.101c16.673-9.662 39.04-14.981 62.987-14.981 23.714 0 45.804 5.232 62.2 14.733 13.864 8.035 21.71 17.999 22.276 28.175.022-.387.056-.774.056-1.16-.011-10.576-7.944-20.992-22.332-29.332-16.396-9.5-38.486-14.733-62.2-14.733-23.946 0-46.314 5.32-62.987 14.982-14.477 8.388-22.774 19.263-22.763 29.834 0 .386.034.77.056 1.155.571-10.202 8.76-20.59 22.707-28.673" mask="url(#l)"/>
            <path fill="#FFF" d="M182.173 123.46l.06-11.187a48.177 48.177 0 0 1-6.847-3.289c-12.171-7.054-13.685-14.598-4.049-20.182 4.02-2.33 8.688-3.553 13.68-3.626l-.21 38.758c2.48.396 4.984.659 7.489.774a64.49 64.49 0 0 0 3.129.057v.004c.137 0 .271-.005.408-.006.304-.003.611 0 .914-.005v-.01c9.385-.206 18.03-2.456 25.207-6.616 8.295-4.806 12.204-10.741 11.303-17.162-.846-6.038-6.03-12.097-14.598-17.062-5.692-3.298-12.22-5.725-19.016-7.13l-.06 11.247a49.74 49.74 0 0 1 6.497 3.172c5.602 3.247 8.985 6.537 10.054 9.779 1.254 3.803-.793 7.384-5.92 10.354-3.99 2.312-8.563 3.513-13.414 3.629l.209-38.679a66.878 66.878 0 0 0-7.794-.83c-.521-.026-1.038-.037-1.556-.05h-.014a62.485 62.485 0 0 0-1.785-.016h-.224c-.188.002-.379-.003-.566 0v.013c-9.483.154-18.222 2.402-25.472 6.602-8.3 4.81-12.223 10.753-11.346 17.186.826 6.059 5.995 12.127 14.555 17.088 5.781 3.35 12.435 5.8 19.366 7.187" mask="url(#l)"/>
        </g>
        <g>
            <g transform="translate(113.59 49.726)">
                <mask id="n" fill="#fff">
                    <use xlink:href="#m"/>
                </mask>
                <path fill="#111D28" fill-opacity=".2" d="M28.294 95.903C9.568 85.053.207 70.82.19 56.554c-.016-14.409 9.5-28.852 28.532-39.88 37.874-21.947 99.088-22.058 136.726-.248 18.726 10.85 28.087 25.083 28.104 39.35.016 14.408-9.5 28.85-28.532 39.88-37.874 21.946-99.089 22.057-136.726.247" mask="url(#n)"/>
            </g>
            <mask id="p" fill="#fff">
                <use xlink:href="#o"/>
            </mask>
            <path fill="#1A82FF" d="M307.14 78.537V95.53c.017 14.41-9.5 28.852-28.53 39.88-37.875 21.947-99.09 22.059-136.727.248-18.726-10.85-28.087-25.083-28.104-39.35v-17.77h193.362z" mask="url(#p)"/>
            <path fill="#40A0FF" d="M141.883 118.666c-18.725-10.851-28.087-25.084-28.104-39.35-.016-14.409 9.5-28.852 28.532-39.88 37.874-21.947 99.089-22.058 136.726-.248 18.726 10.851 28.087 25.083 28.104 39.35.016 14.408-9.5 28.851-28.532 39.88-37.874 21.947-99.088 22.057-136.726.248" mask="url(#p)"/>
            <path fill="#1A82FF" d="M209.853 123.368c-23.716 0-45.805-5.232-62.2-14.733-14.389-8.338-22.32-18.756-22.334-29.334-.011-10.57 8.285-21.445 22.763-29.834 16.672-9.661 39.04-14.982 62.986-14.982 23.714 0 45.805 5.233 62.2 14.734 14.39 8.339 22.321 18.756 22.332 29.33.014 10.573-8.283 21.447-22.76 29.838-16.673 9.66-39.043 14.98-62.987 14.98" mask="url(#p)"/>
            <path fill="#0F7CE8" d="M148.082 51.784c16.672-9.662 39.04-14.982 62.986-14.982 23.714 0 45.805 5.232 62.2 14.733 13.864 8.035 21.711 18 22.277 28.175.022-.387.055-.774.055-1.16-.011-10.575-7.943-20.992-22.332-29.331-16.395-9.5-38.486-14.733-62.2-14.733-23.946 0-46.314 5.32-62.986 14.981-14.478 8.388-22.774 19.263-22.763 29.835 0 .385.034.77.055 1.155.572-10.202 8.76-20.591 22.708-28.673" mask="url(#p)"/>
            <path fill="#FFF" d="M199.962 101.142l.06-11.186a48.143 48.143 0 0 1-6.847-3.29c-12.172-7.053-13.686-14.597-4.05-20.182 4.02-2.329 8.689-3.553 13.68-3.626l-.209 38.759a67.1 67.1 0 0 0 7.488.773 63.73 63.73 0 0 0 3.13.057v.005c.136 0 .27-.006.407-.007.305-.003.612.001.915-.005v-.01c9.385-.206 18.03-2.456 25.207-6.615 8.295-4.807 12.204-10.741 11.303-17.162-.847-6.039-6.031-12.098-14.599-17.062-5.691-3.298-12.22-5.725-19.015-7.131l-.06 11.247c2.17.866 4.339 1.923 6.496 3.173 5.602 3.246 8.985 6.536 10.054 9.779 1.254 3.803-.793 7.383-5.919 10.353-3.991 2.313-8.563 3.514-13.414 3.63l.208-38.68a66.878 66.878 0 0 0-7.793-.83 63.453 63.453 0 0 0-1.556-.049h-.015a62.932 62.932 0 0 0-1.784-.016h-.224c-.189.001-.379-.003-.567 0v.013c-9.483.154-18.222 2.402-25.47 6.602-8.3 4.81-12.224 10.752-11.347 17.186.826 6.058 5.995 12.127 14.555 17.087 5.78 3.35 12.435 5.8 19.366 7.187" mask="url(#p)"/>
        </g>
        <g>
            <g transform="translate(95.463 27.289)">
                <mask id="r" fill="#fff">
                    <use xlink:href="#q"/>
                </mask>
                <path fill="#111D28" fill-opacity=".2" d="M28.631 96.023C9.906 85.173.544 70.94.527 56.674c-.016-14.409 9.5-28.852 28.532-39.88 37.874-21.947 99.089-22.058 136.726-.247 18.726 10.85 28.088 25.082 28.104 39.348.016 14.409-9.5 28.852-28.532 39.88-37.873 21.948-99.088 22.058-136.726.248" mask="url(#r)"/>
            </g>
            <mask id="t" fill="#fff">
                <use xlink:href="#s"/>
            </mask>
            <path fill="#1A82FF" d="M289.352 56.22v16.993c.017 14.409-9.5 28.852-28.531 39.88-37.874 21.947-99.089 22.058-136.727.248-18.725-10.85-28.087-25.083-28.103-39.35V56.22h193.361z" mask="url(#t)"/>
            <path fill="#40A0FF" d="M124.094 96.348c-18.725-10.85-28.087-25.083-28.103-39.35-.017-14.408 9.5-28.851 28.531-39.88 37.875-21.946 99.089-22.057 136.727-.247 18.725 10.85 28.087 25.083 28.103 39.349.017 14.409-9.5 28.852-28.531 39.88-37.874 21.947-99.089 22.058-136.727.248" mask="url(#t)"/>
            <path fill="#1A82FF" d="M192.065 101.05c-23.717 0-45.805-5.232-62.2-14.733-14.39-8.338-22.32-18.755-22.334-29.333-.012-10.57 8.285-21.446 22.762-29.834 16.672-9.662 39.04-14.982 62.987-14.982 23.714 0 45.804 5.232 62.2 14.734 14.389 8.339 22.32 18.755 22.332 29.33.013 10.573-8.284 21.447-22.76 29.837-16.673 9.661-39.044 14.982-62.987 14.982" mask="url(#t)"/>
            <path fill="#0F7CE8" d="M130.293 29.466c16.673-9.662 39.04-14.981 62.987-14.981 23.714 0 45.804 5.232 62.2 14.733 13.864 8.035 21.71 18 22.276 28.175.022-.387.056-.774.056-1.16-.011-10.576-7.944-20.992-22.332-29.332-16.396-9.5-38.486-14.733-62.2-14.733-23.946 0-46.314 5.32-62.987 14.982-14.477 8.388-22.774 19.263-22.763 29.835 0 .385.034.77.056 1.154.571-10.201 8.76-20.591 22.707-28.673" mask="url(#t)"/>
            <path fill="#FFF" d="M182.173 78.825l.06-11.187a48.178 48.178 0 0 1-6.847-3.29c-12.171-7.052-13.685-14.597-4.049-20.181 4.02-2.329 8.688-3.554 13.68-3.626l-.21 38.758c2.48.396 4.984.659 7.489.774 1.052.048 2.093.06 3.129.057v.004c.137 0 .271-.005.408-.006.304-.003.611.001.914-.005v-.01c9.385-.206 18.03-2.456 25.207-6.615 8.295-4.807 12.204-10.742 11.303-17.162-.846-6.039-6.03-12.098-14.598-17.063-5.692-3.298-12.22-5.725-19.016-7.13l-.06 11.246c2.17.866 4.34 1.923 6.497 3.173 5.602 3.247 8.985 6.537 10.054 9.78 1.254 3.802-.793 7.383-5.92 10.353-3.99 2.313-8.563 3.513-13.414 3.629l.209-38.679a66.865 66.865 0 0 0-7.794-.831c-.521-.025-1.038-.037-1.556-.048h-.014a64.559 64.559 0 0 0-1.785-.017h-.224c-.188.002-.379-.002-.566 0v.013c-9.483.154-18.222 2.402-25.472 6.603-8.3 4.81-12.223 10.752-11.346 17.185.826 6.06 5.995 12.127 14.555 17.088 5.781 3.35 12.435 5.8 19.366 7.187" mask="url(#t)"/>
        </g>
        <g>
            <g transform="translate(209.371 246.626)">
                <mask id="v" fill="#fff">
                    <use xlink:href="#u"/>
                </mask>
                <path fill="#111D28" fill-opacity=".2" d="M28.455 96.066C9.7 85.196.325 70.94.308 56.65.292 42.216 9.823 27.748 28.884 16.702c37.931-21.985 99.24-22.096 136.934-.249 18.754 10.87 28.13 25.126 28.147 39.417.016 14.432-9.515 28.9-28.575 39.947-37.932 21.985-99.24 22.096-136.935.249" mask="url(#v)"/>
            </g>
            <mask id="x" fill="#fff">
                <use xlink:href="#w"/>
            </mask>
            <path fill="#1A82FF" d="M403.336 275.485v17.022c.016 14.434-9.515 28.901-28.575 39.948-37.932 21.984-99.24 22.096-136.935.248-18.754-10.869-28.13-25.126-28.146-39.416v-17.802h193.656z" mask="url(#x)"/>
            <path fill="#40A0FF" d="M237.826 315.682c-18.754-10.87-28.13-25.126-28.147-39.417-.016-14.433 9.515-28.9 28.576-39.948 37.932-21.984 99.24-22.096 136.934-.248 18.754 10.87 28.13 25.126 28.147 39.416.016 14.433-9.515 28.9-28.575 39.948-37.932 21.985-99.24 22.096-136.935.249" mask="url(#x)"/>
            <path fill="#1A82FF" d="M305.9 320.392c-23.753 0-45.875-5.241-62.295-14.758-14.41-8.353-22.355-18.787-22.368-29.383-.011-10.59 8.298-21.483 22.797-29.886 16.698-9.678 39.1-15.007 63.083-15.007 23.75 0 45.874 5.241 62.294 14.759 14.412 8.353 22.355 18.787 22.367 29.38.013 10.591-8.297 21.484-22.795 29.888-16.698 9.677-39.103 15.007-63.083 15.007" mask="url(#x)"/>
            <path fill="#0F7CE8" d="M244.034 248.686c16.698-9.679 39.1-15.007 63.083-15.007 23.75 0 45.874 5.241 62.294 14.758 13.885 8.049 21.744 18.03 22.311 28.223.022-.388.056-.775.056-1.162-.012-10.594-7.956-21.028-22.367-29.381-16.42-9.517-38.544-14.759-62.294-14.759-23.983 0-46.385 5.329-63.083 15.008-14.5 8.402-22.809 19.295-22.797 29.885 0 .386.033.771.055 1.157.573-10.22 8.773-20.627 22.742-28.722" mask="url(#x)"/>
            <path fill="#FFF" d="M295.993 298.128l.06-11.205a48.247 48.247 0 0 1-6.857-3.295c-12.19-7.065-13.706-14.623-4.055-20.217 4.025-2.332 8.7-3.56 13.7-3.631l-.21 38.823c2.484.397 4.992.66 7.5.775 1.054.049 2.096.061 3.134.058v.004c.137 0 .272-.005.409-.006.304-.003.612.001.915-.006v-.009c9.4-.206 18.058-2.46 25.246-6.627 8.308-4.815 12.222-10.76 11.32-17.191-.848-6.049-6.04-12.118-14.62-17.091-5.701-3.304-12.24-5.735-19.045-7.143l-.06 11.266a49.755 49.755 0 0 1 6.506 3.178c5.611 3.252 8.999 6.547 10.07 9.796 1.255 3.809-.795 7.396-5.929 10.37-3.997 2.318-8.576 3.52-13.435 3.636l.21-38.745a67.085 67.085 0 0 0-7.806-.832 63.222 63.222 0 0 0-1.559-.049h-.014a64.64 64.64 0 0 0-1.787-.016h-.225c-.188.002-.379-.003-.567 0v.013c-9.497.154-18.25 2.406-25.51 6.614-8.313 4.818-12.242 10.77-11.364 17.215.828 6.069 6.005 12.147 14.578 17.116 5.79 3.356 12.454 5.81 19.395 7.2" mask="url(#x)"/>
        </g>
        <g>
            <g transform="translate(9.667 206.789)">
                <mask id="z" fill="#fff">
                    <use xlink:href="#y"/>
                </mask>
                <path fill="#111D28" fill-opacity=".2" d="M28.699 96.177C9.974 85.327.612 71.095.595 56.828c-.016-14.408 9.5-28.852 28.532-39.88 37.874-21.947 99.089-22.058 136.726-.247 18.726 10.85 28.088 25.083 28.104 39.349.016 14.409-9.5 28.851-28.532 39.88-37.873 21.947-99.088 22.058-136.726.247" mask="url(#z)"/>
            </g>
            <mask id="B" fill="#fff">
                <use xlink:href="#A"/>
            </mask>
            <path fill="#1A82FF" d="M203.624 235.874v16.993c.017 14.41-9.5 28.852-28.531 39.88-37.875 21.947-99.089 22.058-136.727.248-18.725-10.85-28.087-25.083-28.103-39.349v-17.772h193.361z" mask="url(#B)"/>
            <path fill="#40A0FF" d="M38.366 276.002c-18.725-10.85-28.087-25.083-28.103-39.35-.017-14.408 9.5-28.85 28.531-39.88 37.874-21.946 99.089-22.057 136.727-.247 18.725 10.85 28.087 25.084 28.103 39.35.017 14.408-9.5 28.85-28.531 39.88-37.874 21.946-99.09 22.058-136.727.247" mask="url(#B)"/>
            <path fill="#1A82FF" d="M106.337 280.705c-23.717 0-45.805-5.233-62.2-14.733-14.39-8.339-22.321-18.755-22.335-29.334-.01-10.57 8.286-21.445 22.763-29.834 16.672-9.661 39.04-14.982 62.987-14.982 23.713 0 45.804 5.233 62.2 14.734 14.389 8.34 22.32 18.755 22.332 29.331.013 10.572-8.284 21.446-22.76 29.836-16.673 9.661-39.044 14.982-62.987 14.982" mask="url(#B)"/>
            <path fill="#0F7CE8" d="M44.565 209.12c16.672-9.661 39.04-14.981 62.987-14.981 23.713 0 45.804 5.233 62.2 14.733 13.863 8.035 21.71 18 22.276 28.175.022-.387.056-.774.056-1.16-.012-10.576-7.944-20.992-22.333-29.331-16.395-9.501-38.486-14.734-62.2-14.734-23.945 0-46.314 5.32-62.986 14.982-14.477 8.389-22.774 19.263-22.763 29.835 0 .386.034.77.056 1.155.571-10.202 8.76-20.592 22.707-28.673" mask="url(#B)"/>
            <path fill="#FFF" d="M96.445 258.479l.06-11.186a48.178 48.178 0 0 1-6.847-3.29c-12.172-7.053-13.685-14.598-4.05-20.182 4.02-2.329 8.689-3.553 13.68-3.625l-.209 38.757c2.48.396 4.984.659 7.489.774 1.052.048 2.093.06 3.129.058v.004c.137 0 .271-.006.408-.007.304-.003.611.001.914-.005v-.01c9.385-.205 18.03-2.456 25.207-6.615 8.295-4.807 12.204-10.741 11.303-17.162-.846-6.038-6.031-12.098-14.598-17.062-5.692-3.299-12.22-5.725-19.016-7.13l-.06 11.246c2.17.865 4.34 1.923 6.497 3.173 5.602 3.246 8.985 6.536 10.053 9.779 1.255 3.802-.792 7.383-5.919 10.353-3.99 2.313-8.563 3.514-13.414 3.629l.209-38.678a66.878 66.878 0 0 0-7.794-.832 63.152 63.152 0 0 0-1.556-.048h-.015a64.559 64.559 0 0 0-1.784-.017h-.224c-.188.002-.379-.002-.566 0v.013c-9.483.154-18.223 2.402-25.472 6.603-8.3 4.81-12.223 10.753-11.346 17.186.826 6.059 5.995 12.127 14.555 17.087 5.781 3.35 12.435 5.8 19.366 7.187" mask="url(#B)"/>
        </g>
        <g>
            <g transform="translate(0 181.32)">
                <mask id="D" fill="#fff">
                    <use xlink:href="#C"/>
                </mask>
                <path fill="#111D28" fill-opacity=".2" d="M28.103 95.896C9.378 85.046.016 70.813 0 56.546c-.017-14.408 9.5-28.851 28.531-39.88C66.406-5.28 127.621-5.39 165.258 16.42c18.725 10.85 28.087 25.083 28.103 39.349.017 14.408-9.5 28.852-28.531 39.88-37.874 21.947-99.089 22.058-136.727.248" mask="url(#D)"/>
            </g>
            <mask id="F" fill="#fff">
                <use xlink:href="#E"/>
            </mask>
            <path fill="#1A82FF" d="M193.361 210.123v16.993c.017 14.409-9.5 28.852-28.531 39.88-37.874 21.947-99.089 22.058-136.726.248C9.378 256.394.016 242.16 0 227.894v-17.771H193.36z" mask="url(#F)"/>
            <path fill="#40A0FF" d="M28.103 250.251C9.378 239.401.016 225.168 0 210.901c-.017-14.408 9.5-28.851 28.531-39.88 37.875-21.946 99.09-22.057 136.727-.247 18.725 10.85 28.087 25.083 28.103 39.349.017 14.409-9.5 28.852-28.531 39.88-37.874 21.947-99.089 22.058-136.727.248" mask="url(#F)"/>
            <path fill="#1A82FF" d="M96.074 254.954c-23.716 0-45.805-5.233-62.2-14.734-14.39-8.338-22.32-18.755-22.335-29.333-.01-10.57 8.286-21.445 22.763-29.834 16.673-9.662 39.04-14.982 62.987-14.982 23.714 0 45.804 5.232 62.2 14.734 14.389 8.339 22.32 18.755 22.332 29.33.013 10.573-8.284 21.447-22.76 29.837-16.673 9.661-39.044 14.982-62.987 14.982" mask="url(#F)"/>
            <path fill="#0F7CE8" d="M34.302 183.37c16.673-9.663 39.04-14.982 62.987-14.982 23.714 0 45.804 5.232 62.2 14.733 13.864 8.035 21.71 18 22.276 28.175.022-.387.056-.774.056-1.16-.011-10.576-7.944-20.992-22.332-29.332-16.396-9.5-38.486-14.733-62.2-14.733-23.946 0-46.314 5.32-62.987 14.982-14.477 8.388-22.774 19.263-22.763 29.835 0 .385.034.77.056 1.154.571-10.201 8.76-20.59 22.707-28.673" mask="url(#F)"/>
            <path fill="#FFF" d="M86.182 232.728l.06-11.187a48.178 48.178 0 0 1-6.847-3.29c-12.171-7.052-13.685-14.597-4.049-20.181 4.02-2.329 8.688-3.554 13.68-3.626l-.21 38.758c2.48.396 4.984.659 7.489.774 1.052.048 2.093.06 3.129.057v.004c.137 0 .271-.005.408-.006.304-.003.612.001.914-.005v-.01c9.386-.206 18.03-2.456 25.207-6.615 8.296-4.807 12.204-10.742 11.304-17.162-.847-6.039-6.032-12.098-14.6-17.063-5.69-3.298-12.22-5.725-19.015-7.13l-.06 11.246c2.17.866 4.34 1.924 6.497 3.173 5.602 3.247 8.985 6.537 10.054 9.78 1.254 3.802-.793 7.383-5.92 10.353-3.99 2.313-8.563 3.513-13.414 3.629l.209-38.679a66.878 66.878 0 0 0-7.794-.831 63.152 63.152 0 0 0-1.556-.048h-.014a64.795 64.795 0 0 0-1.785-.017h-.224c-.188.002-.378-.002-.566 0v.013c-9.483.154-18.222 2.402-25.471 6.603-8.3 4.81-12.224 10.752-11.347 17.186.826 6.058 5.996 12.126 14.555 17.087 5.781 3.35 12.435 5.8 19.366 7.187" mask="url(#F)"/>
        </g>
        <g>
            <g transform="translate(19.939 155.243)">
                <mask id="H" fill="#fff">
                    <use xlink:href="#G"/>
                </mask>
                <path fill="#111D28" fill-opacity=".2" d="M28.69 96.22C9.966 85.37.603 71.138.587 56.872c-.017-14.41 9.5-28.853 28.531-39.88 37.875-21.948 99.09-22.058 136.727-.248 18.725 10.85 28.087 25.083 28.103 39.349.017 14.408-9.5 28.852-28.531 39.88-37.874 21.947-99.089 22.058-136.727.247" mask="url(#H)"/>
            </g>
            <mask id="J" fill="#fff">
                <use xlink:href="#I"/>
            </mask>
            <path fill="#1A82FF" d="M213.887 184.372v16.992c.016 14.41-9.5 28.853-28.532 39.88-37.874 21.948-99.088 22.059-136.726.249-18.725-10.851-28.087-25.084-28.103-39.35v-17.771h193.361z" mask="url(#J)"/>
            <path fill="#40A0FF" d="M48.629 224.5c-18.725-10.85-28.087-25.083-28.104-39.35-.016-14.409 9.5-28.851 28.532-39.88 37.874-21.946 99.089-22.058 136.726-.247 18.726 10.85 28.088 25.083 28.104 39.349.016 14.409-9.5 28.851-28.532 39.88-37.873 21.947-99.088 22.058-136.726.248" mask="url(#J)"/>
            <path fill="#1A82FF" d="M116.6 229.203c-23.717 0-45.806-5.233-62.2-14.734-14.39-8.338-22.321-18.755-22.335-29.334-.011-10.57 8.285-21.445 22.763-29.833 16.672-9.662 39.04-14.982 62.986-14.982 23.714 0 45.805 5.232 62.2 14.733 14.39 8.34 22.321 18.756 22.332 29.331.014 10.573-8.283 21.447-22.76 29.837-16.672 9.66-39.043 14.982-62.987 14.982" mask="url(#J)"/>
            <path fill="#0F7CE8" d="M54.828 157.618c16.672-9.662 39.04-14.982 62.986-14.982 23.714 0 45.805 5.233 62.2 14.734 13.864 8.035 21.711 17.999 22.277 28.175.022-.388.055-.774.055-1.16-.01-10.576-7.943-20.993-22.332-29.332-16.395-9.5-38.486-14.733-62.2-14.733-23.946 0-46.314 5.32-62.986 14.982-14.477 8.388-22.774 19.262-22.763 29.834 0 .386.034.77.055 1.155.572-10.202 8.76-20.591 22.708-28.673" mask="url(#J)"/>
            <path fill="#FFF" d="M106.708 206.976l.06-11.186a48.17 48.17 0 0 1-6.847-3.29c-12.172-7.053-13.686-14.597-4.05-20.182 4.02-2.328 8.689-3.553 13.68-3.625l-.209 38.758c2.48.395 4.984.658 7.488.773 1.053.049 2.093.061 3.13.058v.004c.136 0 .27-.006.407-.007.305-.002.612.002.915-.005v-.009c9.385-.206 18.03-2.457 25.207-6.615 8.295-4.807 12.204-10.742 11.303-17.163-.847-6.038-6.031-12.097-14.599-17.062-5.691-3.298-12.22-5.725-19.015-7.13l-.06 11.246c2.17.866 4.34 1.923 6.496 3.173 5.603 3.246 8.985 6.536 10.054 9.779 1.254 3.803-.793 7.383-5.919 10.354-3.991 2.313-8.563 3.513-13.414 3.628l.209-38.678a66.878 66.878 0 0 0-7.794-.831 63.454 63.454 0 0 0-1.556-.049h-.015a64.56 64.56 0 0 0-1.784-.016h-.224c-.188.002-.379-.003-.567 0v.013c-9.482.154-18.222 2.402-25.47 6.602-8.3 4.81-12.224 10.753-11.347 17.186.826 6.059 5.995 12.127 14.555 17.088 5.78 3.35 12.435 5.799 19.366 7.186" mask="url(#J)"/>
        </g>
    </g>
</svg>
