<svg xmlns="http://www.w3.org/2000/svg" width="74" height="62" viewBox="0 0 74 62">
    <path fill="#FFF" fill-rule="evenodd" d="M48.248 40.824a4.882 4.882 0 0 1-4.875-4.88 4.885 4.885 0 0 1 4.875-4.882 4.881 4.881 0 0 1 0 9.762m.58 9.594c-2.455 2.459-6.312 3.652-11.788 3.652l-.04-.006-.043.006c-5.476 0-9.333-1.193-11.788-3.652a1.148 1.148 0 0 1 1.622-1.62c2.001 2.005 5.331 2.978 10.166 2.978l.043.01.04-.01c4.838 0 8.165-.976 10.166-2.982a1.147 1.147 0 1 1 1.622 1.624M20.89 35.944c0-2.69 2.189-4.882 4.877-4.882a4.885 4.885 0 0 1 4.878 4.882c0 2.691-2.186 4.88-4.878 4.88a4.885 4.885 0 0 1-4.877-4.88M74 30.314c0-4.522-3.678-8.199-8.196-8.199-2.204 0-4.199.887-5.673 2.313-5.578-3.692-13.129-6.042-21.49-6.343L43.21 3.611 55.596 6.53l-.019.18a6.71 6.71 0 0 0 6.703 6.705c3.694 0 6.697-3.007 6.697-6.706C68.977 3.01 65.971 0 62.28 0c-2.836 0-5.254 1.78-6.234 4.275L42.698 1.128a1.137 1.137 0 0 0-1.354.772l-5.103 16.142c-8.747.105-16.674 2.474-22.505 6.277-1.461-1.357-3.4-2.207-5.55-2.207C3.67 22.112 0 25.792 0 30.315c0 3.007 1.643 5.614 4.058 7.04a14.978 14.978 0 0 0-.262 2.657C3.796 52.132 18.62 62 36.846 62c18.225 0 33.05-9.867 33.05-21.988 0-.85-.09-1.69-.231-2.511C72.23 36.11 74 33.434 74 30.315"/>
</svg>
