<svg xmlns="http://www.w3.org/2000/svg" xmlns:xlink="http://www.w3.org/1999/xlink" width="100" height="62" viewBox="0 0 100 62">
    <defs>
        <circle id="a" cx="15" cy="15" r="15"/>
    </defs>
    <g fill="none" fill-rule="evenodd">
        <path fill="#FFF" d="M46.065 48.978c2.131 0 3-1.42 2.978-3.202-.108-6.71 2.496-10.321 7.207-5.618 5.204 5.212 6.285 8.82 12.61 8.82h11.2c2.827 0 3.94-.913 3.94-2.338 0-3.02-4.973-8.354-9.187-12.267-5.9-5.474-6.177-5.603-1.096-12.197C80.021 13.986 88.267 3.5 80.973 3.5H67.04c-2.702 0-2.898 1.519-3.86 3.787-3.483 8.218-10.101 18.858-12.614 17.23-2.628-1.7-1.425-8.424-1.225-18.413.052-2.639.038-4.449-3.993-5.39A28.23 28.23 0 0 0 39.016 0c-7.955 0-13.443 3.332-10.324 3.916 5.498 1.022 4.97 12.919 3.689 18.06-2.233 8.946-10.626-7.084-14.122-15.07-.844-1.915-1.103-3.41-4.113-3.41H2.754C1.032 3.496 0 4.06 0 5.302c0 2.11 10.36 23.52 20.25 34.198 9.646 10.413 19.18 9.478 25.815 9.478"/>
        <g transform="translate(66 28)">
            <mask id="b" fill="#fff">
                <use xlink:href="#a"/>
            </mask>
            <use fill="#D8D8D8" stroke="#FFF" stroke-width="7" xlink:href="#a"/>
            <g mask="url(#b)">
                <path fill="#FFF" d="M-4 16h47V0H-4z"/>
                <path fill="#F00" d="M-4 30h47V14H-4z"/>
                <path fill="#0047A0" d="M-4 20h47V10H-4z"/>
            </g>
        </g>
    </g>
</svg>
