<svg xmlns="http://www.w3.org/2000/svg" width="76" height="63" viewBox="0 0 76 63">
    <path fill="#FFF" fill-rule="evenodd" d="M62.101 12.434L29.846 41.369l-1.18 11.048-5.314-17.445 37.66-23.928a.903.903 0 0 1 1.19.202.87.87 0 0 1-.1 1.188M75.118.599a2.543 2.543 0 0 0-2.524-.441C59.321 5.047 18.428 20.308 1.718 26.461A2.604 2.604 0 0 0 0 28.977a2.613 2.613 0 0 0 1.875 2.407c7.498 2.23 17.337 5.33 17.337 5.33s4.598 13.816 6.995 20.84c.3.882.994 1.575 1.91 1.815a2.754 2.754 0 0 0 2.568-.652l9.803-9.208S51.8 57.76 58.213 62.304a3.79 3.79 0 0 0 3.508.457 3.667 3.667 0 0 0 2.293-2.646c2.752-12.864 9.427-45.426 11.932-57.128a2.447 2.447 0 0 0-.827-2.388"/>
</svg>
