<svg xmlns="http://www.w3.org/2000/svg" xmlns:xlink="http://www.w3.org/1999/xlink" width="88" height="75" viewBox="0 0 88 75">

    <defs>
        <circle id="prefix__a" cx="15" cy="15" r="15"/>
    </defs>
    <g fill="none" fill-rule="evenodd">
        <path fill="#FFF" d="M62.101 12.434L29.846 41.369l-1.18 11.048-5.314-17.445 37.66-23.928c.39-.245.909-.16 1.19.202.289.362.238.879-.1 1.188M75.118.599c-.693-.59-1.66-.76-2.524-.441C59.321 5.047 18.428 20.308 1.718 26.46.657 26.851-.034 27.865 0 28.977c.038 1.115.792 2.083 1.875 2.407 7.498 2.23 17.337 5.33 17.337 5.33s4.598 13.816 6.995 20.84c.3.882.994 1.575 1.91 1.815.911.236 1.887-.013 2.568-.652l9.803-9.208S51.8 57.76 58.213 62.304c1.023.719 2.337.898 3.508.457 1.172-.444 2.03-1.44 2.293-2.646 2.752-12.864 9.427-45.426 11.932-57.128.19-.882-.127-1.799-.827-2.388"/>
        <g transform="translate(54 41)">
            <mask id="prefix__b" fill="#fff">
                <use xlink:href="#prefix__a"/>
            </mask>
            <use fill="#D8D8D8" stroke="#FFF" stroke-width="7" xlink:href="#prefix__a"/>
            <g mask="url(#prefix__b)">
                <g>
                    <path fill="#C60B1E" d="M0 30L45 30 45 0 0 0z" transform="translate(-7)"/>
                    <path fill="#FFC400" d="M0 22.5L45 22.5 45 7.5 0 7.5z" transform="translate(-7)"/>
                </g>
            </g>
        </g>
    </g>
</svg>
