<svg xmlns="http://www.w3.org/2000/svg" xmlns:xlink="http://www.w3.org/1999/xlink" width="88" height="75" viewBox="0 0 88 75">
    <defs>
        <circle id="hpdmx9yqia" cx="15" cy="15" r="15"/>
    </defs>
    <g fill="none" fill-rule="evenodd">
        <g>
            <g>
                <path fill="#FFF" d="M62.101 12.434L29.846 41.369l-1.18 11.048-5.314-17.445 37.66-23.928c.39-.245.909-.16 1.19.202.289.362.238.879-.1 1.188M75.118.599c-.693-.59-1.66-.76-2.524-.441C59.321 5.047 18.428 20.308 1.718 26.46.657 26.851-.034 27.865 0 28.977c.038 1.115.792 2.083 1.875 2.407 7.498 2.23 17.337 5.33 17.337 5.33s4.598 13.816 6.995 20.84c.3.882.994 1.575 1.91 1.815.911.236 1.887-.013 2.568-.652l9.803-9.208S51.8 57.76 58.213 62.304c1.023.719 2.337.898 3.508.457 1.172-.444 2.03-1.44 2.293-2.646 2.752-12.864 9.427-45.426 11.932-57.128.19-.882-.127-1.799-.827-2.388" transform="translate(-766 -7269) translate(766 7269)"/>
                <g transform="translate(-766 -7269) translate(766 7269) translate(54 41)">
                    <mask id="l3npulye0b" fill="#fff">
                        <use xlink:href="#hpdmx9yqia"/>
                    </mask>
                    <use fill="#D8D8D8" stroke="#FFF" stroke-width="7" xlink:href="#hpdmx9yqia"/>
                    <g fill-rule="nonzero" mask="url(#l3npulye0b)">
                        <g transform="translate(-3)">
                            <path fill="#E30A17" d="M0 0H45V30H0z"/>
                            <circle cx="15.938" cy="15" r="7.5" fill="#FFF"/>
                            <circle cx="17.813" cy="15" r="6" fill="#E30A17"/>
                            <path fill="#FFF" d="M21.875 15L28.659 17.204 24.466 11.434 24.466 18.566 28.659 12.796z"/>
                        </g>
                    </g>
                </g>
            </g>
        </g>
    </g>
</svg>
