<svg xmlns="http://www.w3.org/2000/svg" width="70" height="57" viewBox="0 0 70 57">
    <path fill="#FFF" fill-rule="evenodd" d="M70 6.748a28.628 28.628 0 0 1-8.248 2.265 14.408 14.408 0 0 0 6.314-7.96 28.734 28.734 0 0 1-9.12 3.491A14.324 14.324 0 0 0 48.463 0c-9.272 0-16.085 8.668-13.99 17.666-11.933-.599-22.515-6.327-29.6-15.033-3.762 6.468-1.95 14.928 4.443 19.213a14.279 14.279 0 0 1-6.501-1.8c-.158 6.665 4.61 12.902 11.517 14.29-2.02.55-4.234.678-6.486.246 1.826 5.716 7.128 9.875 13.416 9.992C15.225 49.317 7.618 51.436 0 50.535A40.597 40.597 0 0 0 22.015 57c26.664 0 41.729-22.564 40.819-42.803A29.271 29.271 0 0 0 70 6.748"/>
</svg>
