<svg xmlns="http://www.w3.org/2000/svg" xmlns:xlink="http://www.w3.org/1999/xlink" width="85" height="71" viewBox="0 0 85 71">
    <defs>
        <circle id="a" cx="15" cy="15" r="15"/>
    </defs>
    <g fill="none" fill-rule="evenodd">
        <path fill="#FFF" d="M73.19 25.341c-1.685.115-2.797-1.112-2.896-3.217-.457-9.308-7.37-16.216-16.75-16.74-2.24-.125-3.384-1.108-3.29-2.807.093-1.705 1.387-2.62 3.539-2.5C65.856.717 75.185 10.05 75.61 21.9c.078 2.089-.8 3.32-2.422 3.44m-10.005.006c-1.574.436-2.879-.344-3.373-2.194-1.065-3.96-3.602-6.372-7.52-7.4-1.528-.401-2.334-1.383-2.147-2.917.177-1.429 1.081-2.266 3.072-2.292.618.188 1.7.421 2.697.837 4.657 1.975 7.682 5.421 8.997 10.327.499 1.856-.166 3.207-1.726 3.639M61.61 51.385c-4.59 6.274-10.93 10.01-18.306 11.98-11.954 3.212-23.481 2.173-34.136-4.48-5-3.118-8.768-7.4-8.96-13.638-.083-2.671.327-5.582 1.388-8.009 4.682-10.764 12.567-18.586 23.164-23.57 1.934-.904 4.205-1.351 6.357-1.476 3.523-.213 5.763 2.074 5.737 5.608-.01 1.85-.39 3.71-.66 6.07 1.726-.602 3.051-1.21 4.439-1.512 2.723-.582 5.483-1.377 8.233-1.388 5.103-.02 7.354 3.197 6.158 8.155-.732 3.04-.732 3.04 2.178 4.267 7.916 3.347 9.735 10.701 4.408 17.993"/>
        <path fill="#007CFF" d="M29.254 49.999c-2.843 3.139-7.884 4.168-11.746 2.406-4.953-2.271-5.831-8.04-1.777-11.673 2.048-1.84 4.464-2.677 7.235-2.833 1.174.28 2.396.437 3.523.842 4.933 1.757 6.29 7.375 2.765 11.258m-2.073-19.86c-1.31.11-2.843.146-4.35.37-6.243.92-11.918 3.082-16.279 7.868-4.849 5.328-4.215 12.277 1.55 16.564 1.548 1.149 3.279 2.173 5.077 2.838 8.045 2.973 16.023 2.458 23.845-.935 3.462-1.502 6.46-3.66 8.649-6.809 3.17-4.568 2.843-9.698-1.04-13.659-4.724-4.818-10.815-6.023-17.452-6.236"/>
        <g transform="translate(51 37)">
            <mask id="b" fill="#fff">
                <use xlink:href="#a"/>
            </mask>
            <use fill="#D8D8D8" stroke="#FFF" stroke-width="7" xlink:href="#a"/>
            <g mask="url(#b)">
                <path fill="#F00" d="M-8.136 40h61.017V-4.068H-8.136z"/>
                <path fill="#FFC000" d="M21.413 22.655l.074-1.597-.999 1.249-1.496-.565.879 1.336-1 1.25 1.543-.424.879 1.336.074-1.597 1.543-.423-1.497-.565zm4.509-3.71l1.26-.985-1.599.057-.548-1.502-.44 1.538-1.598.057 1.327.893-.44 1.538 1.26-.986 1.326.893-.548-1.502zm-1.412-6.25l.226 1.584.748-1.414 1.576.275-1.114-1.148.748-1.414-1.436.704-1.114-1.148.226 1.583-1.436.705 1.576.274zm-4.128-4.214l.822 1.372.14-1.593 1.56-.36-1.472-.625.14-1.593-1.05 1.206-1.472-.626.823 1.372-1.05 1.206 1.559-.359zm-4.397 3.79l-3.882 2.82 1.482 4.564-3.881-2.82-3.882 2.82 1.482-4.564-3.881-2.82H8.22l1.483-4.563 1.482 4.563h4.799z"/>
            </g>
        </g>
    </g>
</svg>
