<svg xmlns="http://www.w3.org/2000/svg" width="60" height="72" viewBox="0 0 60 72">
    <path fill="#FFF" fill-rule="evenodd" d="M55.449 56.158h-6.942v3.684c0 1.464.126 2.73 1.584 2.73 1.533 0 1.623-1.032 1.623-2.73v-1.356h3.735v1.467c0 3.759-1.614 6.039-5.439 6.039-3.468 0-5.241-2.526-5.241-6.04V51.19c0-3.388 2.241-5.743 5.511-5.743 3.483 0 5.166 2.215 5.166 5.743v4.968h.003zm-13.416 5.256c0 2.415-.9 4.293-3.315 4.293-1.332 0-2.439-.486-3.45-1.75v1.5h-3.66v-26.46h3.66v8.52c.822-.999 1.935-1.824 3.231-1.824 2.655 0 3.537 2.247 3.537 4.894v10.827h-.003zm-13.968 4.044h-3.63v-2.154c-.672.795-1.365 1.4-2.088 1.815-1.959 1.122-4.644 1.095-4.644-2.865V45.939h3.627v14.965c0 .786.189 1.314.969 1.314.708 0 1.692-.91 2.133-1.461V45.939h3.63v19.519h.003zm-14.541 0H9.438v-22.62H5.205v-3.84h12.549v3.84h-4.233v22.62h.003zm36.975-32.059c-7.815-.53-33.198-.53-40.998 0C1.059 33.975.063 39.075 0 52.501c.063 13.4 1.05 18.525 9.501 19.1 7.8.532 33.183.532 40.998 0 8.442-.575 9.435-5.678 9.501-19.1-.066-13.402-1.05-18.526-9.501-19.102zM36.015 48.985a2.781 2.781 0 0 0-.75.594v12.165c.3.318.585.546.864.687.591.3 1.455.32 1.857-.201.21-.276.312-.723.312-1.347V50.806c0-.66-.129-1.158-.387-1.5-.438-.58-1.26-.642-1.896-.321zm14.112-.12c-1.347 0-1.623.945-1.623 2.289v1.977h3.207v-1.98c.003-1.32-.279-2.286-1.584-2.286zM43.515 7.29v15.558c-.465.582-1.5 1.536-2.241 1.536-.81 0-1.011-.558-1.011-1.38V7.29h-3.81v17.13c0 2.025.618 3.66 2.661 3.66 1.149 0 2.754-.6 4.401-2.559v2.262h3.813V7.29h-3.813zM29.328 22.5c0 1.116-.567 1.938-1.593 1.938-1.053 0-1.662-.86-1.662-1.938v-9.537c0-1.122.513-1.953 1.587-1.953 1.167 0 1.668.807 1.668 1.953V22.5zm-1.59-15.38c-3.357 0-5.586 2.22-5.586 5.504v10.047c0 3.612 1.89 5.493 5.586 5.493 3.066 0 5.478-2.049 5.478-5.493V12.624c0-3.207-2.391-5.505-5.478-5.505zM7.953 0h4.32l2.967 11.106L17.988 0h4.362l-4.995 16.515v11.271h-4.293v-11.27L7.953 0z"/>
</svg>
