<svg xmlns="http://www.w3.org/2000/svg" width="87" height="35" viewBox="0 0 87 35">
    <path fill="#FFF" fill-rule="evenodd" d="M77.811 3.493c-.003-.66-.52-1.108-1.252-1.086-.7.022-1.16.48-1.139 1.134.022.636.525 1.077 1.217 1.065.687-.012 1.178-.477 1.174-1.113zm-2.224 10.066h2.073V5.616h-2.073v7.943zM67.138 31.25h2.047V19.933h-2.047V31.25zm-4.037-.013h2.084V19.934H63.1v11.303zM49.276 7.18c0 .51-.004.953 0 1.396.013 1.129-.003 2.26.057 3.387.04.764.456 1.342 1.2 1.59a3.38 3.38 0 002.293-.047v-1.533c-1.424-.03-1.428-.035-1.428-1.49V7.123h1.32v-1.55H51.39v-1.93h-2.107v1.9l-1.151.064V7.18h1.144zm30.34 14.168v1.895l-1.136.063v1.511l1.142.066v.682c.006 1.291-.016 2.584.03 3.874.038 1.1.687 1.823 1.719 1.933.589.064 1.19.012 1.805.012v-1.728c-.28 0-.555.075-.747-.019-.25-.123-.609-.374-.617-.583-.055-1.382-.029-2.767-.029-4.214h1.309v-1.594h-1.339V21.35h-2.136zM58.58 11.065c-.233.628-.76.947-1.412.933-.65-.015-1.123-.325-1.362-.924-.39-.976-.36-1.974-.01-2.951.216-.602.683-.94 1.334-.962.673-.023 1.2.277 1.425.905.193.538.254 1.123.357 1.606-.125.541-.18.985-.332 1.393zm-5.12-.685c.147 1.5 1.116 2.752 2.442 3.162 1.598.495 3.287.048 4.232-1.145.88-1.11.985-2.416.779-3.737-.386-2.47-2.527-3.774-4.93-3.065-1.632.482-2.602 1.985-2.583 4.002.02.261.033.523.06.783zm19.884 16.145c-.116 0-.232-.024-.345-.036-.014-.973.597-1.643 1.467-1.637.898.006 1.388.57 1.383 1.675-.86 0-1.682.001-2.505-.002zm4.568-.298c-.177-1.346-.783-2.442-2.15-2.884-1.418-.46-2.787-.293-3.878.795-1.194 1.19-1.329 2.71-1.08 4.284.236 1.479 1.38 2.582 2.952 2.912 1.591.335 3.223-.216 4.016-1.38l-1-1.129c-.838.836-1.775 1.132-2.842.664-.607-.266-.952-.767-.997-1.502h4.991c0-.64.061-1.209-.012-1.76zM59.156 28.38c0 .893-.481 1.397-1.391 1.412-.52.009-.95-.172-1.09-.744-.124-.51.153-1.095.698-1.239.548-.144 1.131-.157 1.783-.238v.81zm2.165-.463c-.018-.666.009-1.333-.006-1.999-.026-1.15-.51-2.056-1.6-2.485-1.35-.53-2.698-.439-3.945.343-.66.414-1.037 1.03-1.076 1.896.683 0 1.313.054 1.922-.032.195-.028.332-.432.506-.656.047-.06.132-.132.197-.13.481.02 1.035-.083 1.424.122.5.264.477.862.352 1.43-.434 0-.842-.044-1.236.01-.633.088-1.289.157-1.879.382-1.08.411-1.527 1.255-1.444 2.456.066.937.743 1.74 1.737 2.022 1.08.307 2.073.144 2.864-.57.208.208.371.52.566.542.613.068 1.237.025 1.746.025-.045-1.158-.097-2.257-.128-3.356zM44.295 9.274c.024.072.028.15.047.253h-2.613l1.244-3.79.147-.002c.392 1.18.785 2.359 1.175 3.539zm3.547 3.582L44.6 4.192c-.521-1.391-.522-1.376-1.998-1.393-.42-.005-.635.101-.79.526-1.189 3.256-2.409 6.501-3.617 9.75-.054.146-.085.3-.141.502.65 0 1.256-.027 1.857.01.385.023.532-.132.622-.479.117-.447.306-.875.431-1.32.083-.294.215-.427.544-.42 1.03.02 2.06-.013 3.089.025.187.007.455.214.533.395.243.569.415 1.17.617 1.768h2.33c-.095-.284-.157-.495-.234-.7zm16.628-4.46c0-.762.44-1.198 1.236-1.234.777-.035 1.196.285 1.222 1.077.049 1.533.034 3.069.046 4.603v.703h2.122c0-1.702-.002-3.373 0-5.044.003-.803.513-1.321 1.31-1.343.82-.022 1.205.37 1.23 1.29.018.627.005 1.253.005 1.88v3.197h2.07c0-2.007.07-3.965-.023-5.917-.067-1.42-.993-2.142-2.412-2.178-1.017-.026-1.822.38-2.48 1.168-.494-.843-1.205-1.158-2.103-1.169-.892-.011-1.632.325-2.285.955l-.121-.765h-1.95v7.927h2.133v-5.15zM13.607 23.587c-.014 2.62 2.066 4.755 4.63 4.755 2.5-.001 4.665-2.157 4.646-4.627-.02-2.59-2.098-4.685-4.642-4.682-2.506.002-4.621 2.082-4.634 4.554zm30.03 7.642h2.251l1.676-6.846.146.016 1.676 6.852h2.242L54 20.542h-2.205l-1.395 7.332-.116.002-1.7-7.342H46.7l-1.72 7.356-.105-.02-1.404-7.33h-2.205l2.371 10.689zm42.551-20.32l-1.968-.144.101.195c-.364.325-.677.77-1.103.95-.788.331-1.627-.097-1.76-.94a10.282 10.282 0 01-.044-2.682c.08-.745.663-1.132 1.35-1.134.721-.002 1.138.39 1.406 1.331h2.018v-.242c-.326-.654-.51-1.45-1.002-1.938-1.726-1.715-4.928-.917-5.763 1.366-.363.995-.392 2.028-.195 3.048.45 2.319 2.385 3.485 4.668 2.858 1.308-.359 1.997-1.275 2.292-2.546v-.121zM19.032 0c.64.171 1.302.287 1.917.523 2.468.947 3.868 2.889 4.745 5.268 2.399 6.506 4.777 13.02 7.164 19.53 1.076 2.933 2.155 5.866 3.231 8.8.074.201.132.41.224.697-.242-.064-.411-.098-.573-.153-1.85-.637-3.693-1.29-5.548-1.905-.39-.13-.58-.344-.717-.716-2.945-8.066-5.9-16.129-8.86-24.19a7.072 7.072 0 00-.582-1.258c-.886-1.446-2.795-1.458-3.698-.022-.234.371-.408.788-.56 1.202-2.96 8.06-5.916 16.123-8.857 24.19-.16.44-.386.682-.835.83-1.819.6-3.625 1.238-5.433 1.867-.183.064-.353.165-.528.248L0 34.67c.088-.173.194-.34.26-.52 2.1-5.712 4.194-11.425 6.292-17.137 1.445-3.935 2.862-7.88 4.352-11.797.846-2.224 2.33-3.904 4.628-4.735.582-.21 1.2-.323 1.803-.48h1.697z" opacity=".7"/>
</svg>
