<svg xmlns="http://www.w3.org/2000/svg" width="180" height="35" viewBox="0 0 180 35">
    <path fill="#FFF" fill-rule="evenodd" d="M32.201 30.568c0-.896-.704-1.598-1.604-1.599-.879 0-1.623.735-1.621 1.603.001.877.73 1.59 1.624 1.59.904 0 1.602-.695 1.601-1.594zm-1.62-14.16c-.865.012-1.618.78-1.605 1.639.014.883.741 1.582 1.642 1.576a1.58 1.58 0 0 0 1.583-1.615 1.617 1.617 0 0 0-1.62-1.6zm-14.324 1.75c.012.889.748 1.612 1.625 1.597.866-.016 1.61-.784 1.593-1.647-.017-.869-.784-1.614-1.644-1.598-.88.016-1.586.756-1.574 1.648zm68.096-16c-1.348-.015-2.42 1.04-2.412 2.374.008 1.277 1.103 2.377 2.367 2.38 1.273.002 2.35-1.08 2.36-2.372.01-1.324-1.005-2.368-2.315-2.382zm-1.605 25.366h3.128V10.617h-3.128v16.907zM47.486 12.658c-3.49 3.518-3.298 10.12.387 13.268 3.478 2.973 9.934 2.692 12.296-.453l-2.237-2.286-.397.363c-2.98 2.696-7.555 1.462-8.77-2.367-.37-1.163-.382-2.34-.15-3.53.61-3.143 3.04-4.829 6.202-4.323 1.264.202 2.214.929 3.134 1.787l2.42-2.213c-3.152-3.534-9.533-3.625-12.885-.246zm112.734-.05c-2.282-3.169-8.481-3.3-10.969-.232-1.984 2.447-1.157 5.894 1.752 7.098.954.395 1.99.591 2.984.895.778.238 1.577.439 2.315.771.71.32 1.206.903 1.155 1.755-.049.841-.587 1.366-1.315 1.654-1.61.636-3.199.642-4.685-.365-.529-.358-1.017-.777-1.557-1.193l-2.388 1.983c.136.192.203.295.28.392 2.025 2.555 4.812 2.821 7.755 2.531 1.22-.12 2.375-.501 3.382-1.247 1.648-1.221 2.187-2.899 1.932-4.858-.228-1.75-1.315-2.86-2.91-3.458-.9-.338-1.867-.491-2.778-.802-.972-.33-2.005-.61-2.846-1.164-1.06-.7-.84-2.134.292-2.74.87-.466 1.838-.628 2.74-.325.952.32 1.82.894 2.813 1.403l2.283-1.736c-.102-.159-.164-.264-.235-.363zM93.682 26.663c0-2.535-.009-5.07.004-7.605.007-1.324.138-2.629.831-3.808.88-1.497 2.641-2.294 4.48-2.027 1.655.24 2.737 1.255 3.086 2.988.121.603.123 1.235.125 1.854.013 2.858.006 5.716.006 8.574v.865h3.228c0-3.81.056-7.56-.015-11.308-.087-4.664-3.675-6.65-7.746-5.873-1.643.314-2.964 1.17-4.005 2.569v-2.278h-3.198v16.911h3.204v-.862zm-17.48-7.62c.006 3.536-2.26 5.952-5.57 5.938-3.302-.014-5.505-2.377-5.504-5.904.001-3.541 2.188-5.874 5.509-5.877 3.317-.003 5.56 2.352 5.565 5.844zm3.446.037c0-4.957-3.939-8.895-8.943-8.94-4.978-.044-9.06 3.96-9.08 8.908-.018 4.98 3.964 8.93 9.011 8.939 5.072.007 9.012-3.886 9.012-8.907zm52.53-1.44c-.19-2.438 2.35-4.86 5.09-4.882 3.006-.024 5.011 1.974 4.858 4.882h-9.948zm2.503 6.74c-1.644-.914-2.722-2.678-2.46-4.12h13.504c-.067-1.011-.08-1.949-.198-2.873-.641-5.058-4.61-8.059-9.923-7.047-3.376.643-5.625 2.734-6.547 6.005-.942 3.344-.482 6.564 2.025 9.147 2.675 2.756 6.025 2.977 9.531 2.028 1.746-.472 3.145-1.51 4.262-3.016l-2.384-1.83c-3.058 2.696-5.2 3.157-7.81 1.706zm-16.625.477c-4.359.678-7.321-2.543-6.564-7.068.82-4.903 6.256-5.628 8.973-3.414 1.27 1.036 1.986 2.685 1.986 4.7 0 3.094-1.727 5.367-4.395 5.782zm7.607-24.3h-3.212v12.238c-.124-.04-.182-.042-.204-.07-2.518-3.262-8.092-3.324-11.235-.715-3.748 3.11-4.16 9.586-.882 13.292 3.121 3.529 9.362 3.606 12.098.133.033-.041.115-.043.27-.096v2.193h3.165V.558zm53.87 26.819c-.185-.15-.391-.28-.552-.452-1.189-1.268-2.368-2.546-3.55-3.82l-4.433-4.773 7.895-7.712c-1.42 0-2.625-.04-3.825.022-.396.02-.873.206-1.152.48-2.057 2.017-4.073 4.076-6.104 6.12-.18.181-.376.348-.685.632V.574h-3.197v26.943h3.22v-8.483l.164-.081c.133.17.256.348.4.508 2.28 2.558 4.56 5.117 6.856 7.661.18.2.473.417.718.422 1.414.028 2.83-.005 4.245-.018v-.15zM.595 3.966c.162-.383.3-.777.49-1.145C2.446.184 5.985-.52 8.101 1.553c1.824 1.786 4.416 2.062 6.585.127 2.108-1.88 4.435-1.76 6.528.172 1.62 1.496 3.816 1.622 5.587.315.259-.192.504-.402.748-.613C29.48-.114 32.23 0 33.918 1.82a4.53 4.53 0 0 1-.143 6.319c-1.778 1.754-4.53 1.765-6.36-.025-1.167-1.142-2.509-1.75-4.109-1.295a5.396 5.396 0 0 0-2.098 1.177c-2.101 1.929-4.635 1.956-6.704-.03-1.697-1.63-4.087-1.734-5.794-.255-1.942 1.683-2.325 4.102-.952 6.057.185.264.393.513.602.758 1.74 2.043 1.692 4.473-.133 6.443-1.869 2.019-1.637 4.991.523 6.695 1.61 1.271 3.765 1.267 5.43-.05.857-.678 1.665-1.391 2.803-1.599 2.308-.422 4.582.939 5.213 3.168.652 2.305-.529 4.677-2.743 5.515-.225.085-.444.189-.666.284h-1.79c-1.084-.333-1.969-.95-2.806-1.721-1.507-1.389-3.897-1.393-5.428-.01-.842.76-1.715 1.399-2.8 1.73h-1.79c-.774-.454-1.667-.788-2.287-1.4-.581-.573-.873-1.44-1.291-2.178v-1.938c.616-.935 1.188-1.904 1.86-2.797 1.184-1.573 1.192-3.853-.166-5.347-.748-.823-1.357-1.687-1.694-2.742v-1.79c.336-1.085.983-1.955 1.738-2.801 1.319-1.478 1.29-3.718.12-5.286-.67-.896-1.242-1.863-1.858-2.798V3.966z" opacity="1"/>
</svg>
