<svg xmlns="http://www.w3.org/2000/svg" width="107" height="24" viewBox="0 0 107 24">
    <path fill="#FFF" fill-opacity=".7" fill-rule="evenodd" d="M29.716 3.602c-.011 1.145.962 2.137 2.091 2.134 1.129-.003 2.08-.971 2.082-2.117.001-1.123-.941-2.057-2.076-2.06-1.138-.002-2.087.923-2.097 2.043zm.45 19.49h3.308V8.203h-3.309v14.89zm45.97-6.515c-.104 0-.183-.002-.262 0-.71.017-1.422.017-2.132.057-.604.035-1.19.171-1.738.444-.963.478-1.355 1.445-.973 2.428.243.629.756.957 1.364 1.152.98.316 1.986.309 2.996.198.249-.027.496-.066.744-.1v-4.18zm.044-2.222c-.04-.655-.013-1.294-.13-1.905-.166-.877-.814-1.34-1.641-1.557-.906-.236-1.816-.153-2.721.02-.833.161-1.613.47-2.362.862l-.327.176c-.008-.073-.018-.126-.018-.178-.001-.843.002-1.686-.004-2.528-.002-.137.044-.206.163-.266 2.189-1.106 4.484-1.41 6.874-.865 1.847.42 3.043 1.759 3.302 3.637.057.415.088.838.089 1.258.007 3.189.002 6.378.008 9.567 0 .175-.04.254-.22.294-2.09.46-4.203.652-6.339.483-1.046-.083-2.068-.291-3.02-.763-1.712-.85-2.339-2.337-2.222-4.06.127-1.863 1.234-2.951 2.895-3.575.995-.374 2.035-.53 3.091-.57.754-.03 1.51-.022 2.266-.03h.316zm-26.725 8.549c0-3.14.006-6.278-.007-9.417a9.715 9.715 0 0 0-.135-1.56c-.18-1.073-.62-2.022-1.463-2.749-.949-.818-2.097-1.12-3.305-1.252-1.074-.116-2.146-.079-3.218.041-1.608.18-3.174.532-4.698 1.078-.183.065-.238.149-.238.34.006 4.483.004 8.966.004 13.449v.257h3.334V17.494c0-1.991.001-3.982-.004-5.973 0-.15.035-.221.19-.25.356-.067.706-.17 1.063-.224.986-.15 1.978-.25 2.97-.068.886.161 1.587.59 1.96 1.45.215.496.25 1.025.25 1.558-.002 2.943-.001 5.886-.001 8.828v.286h3.298v-.197zM.579 16.299c.07.45.112.907.214 1.35.679 2.934 2.497 4.77 5.399 5.531.46.121.942.157 1.414.233.056.01.111.025.167.037H9.08c.056-.013.11-.034.166-.038a8.491 8.491 0 0 0 3.287-.924c.048-.025.09-.059.092-.06L11.12 20.11l-.148.052c-1.094.376-2.211.474-3.345.229-1.587-.342-2.744-1.231-3.334-2.763-.481-1.25-.477-2.533-.06-3.8.406-1.233 1.218-2.112 2.422-2.611 1.022-.425 2.085-.487 3.164-.3.41.072.81.201 1.16.29l1.408-2.376c-.006-.003-.043-.025-.082-.045-1.931-1-3.97-1.195-6.05-.657-2.939.76-4.778 2.65-5.47 5.62-.098.422-.14.857-.207 1.285V16.3zm86.54 7.15c.056-.012.11-.028.166-.039.603-.119 1.224-.182 1.807-.366 1.199-.38 2.135-1.102 2.638-2.298.323-.768.38-1.575.315-2.396-.108-1.39-.75-2.445-1.969-3.143-.821-.472-1.714-.742-2.627-.96-.65-.155-1.292-.34-1.867-.696-.33-.204-.584-.475-.69-.863-.235-.865.195-1.658 1.072-1.967.635-.222 1.286-.2 1.939-.112 1.09.145 2.053.602 2.957 1.205l.345.231c.01-.057.018-.077.018-.098.001-.937.005-1.875-.005-2.812 0-.076-.08-.182-.152-.222-2.112-1.185-4.33-1.376-6.62-.634-1.06.344-1.88 1.027-2.377 2.05-.434.891-.501 1.84-.39 2.809.14 1.222.712 2.176 1.78 2.817.742.447 1.556.702 2.388.913.745.19 1.493.376 2.167.767.657.38.898.964.803 1.696-.087.671-.52 1.047-1.133 1.243-.729.232-1.475.223-2.22.104-1.234-.197-2.343-.7-3.36-1.418-.078-.055-.157-.108-.264-.181 0 1.008.005 1.967-.005 2.926-.002.187.064.284.22.373.796.458 1.656.731 2.553.896.399.073.802.118 1.204.176h1.308zm16.775-9.206c-.058-.398-.089-.775-.17-1.14-.188-.828-.578-1.535-1.332-1.985-1.202-.718-3.532-.807-4.812 1.053a5.303 5.303 0 0 0-.837 2.072h7.15zm-3.346 9.207c-.465-.071-.934-.122-1.394-.217-3.054-.632-5.166-2.864-5.631-5.95-.294-1.944-.102-3.833.802-5.598 1.116-2.176 2.904-3.446 5.338-3.764 1.265-.165 2.512-.054 3.707.413 1.723.673 2.769 1.968 3.266 3.715.164.576.22 1.182.324 1.774l.04.209v2.398c-.057-.006-.115-.016-.172-.016h-9.981c-.07 0-.14.009-.216.013.045.694.218 1.327.567 1.901.867 1.425 2.195 2.113 3.808 2.231 1.887.139 3.666-.265 5.275-1.304.05-.032.105-.055.183-.095 0 .961.004 1.883-.007 2.805 0 .07-.086.16-.155.205-.924.599-1.95.92-3.025 1.102-.442.076-.89.12-1.334.178h-1.395zM24.69 15.669c-.045-.418-.065-.84-.14-1.254-.378-2.078-1.768-3.47-3.786-3.683-1.688-.177-3.34.673-4.11 2.177-.678 1.323-.782 2.719-.487 4.154.208 1.009.666 1.887 1.46 2.563.908.773 1.978 1.047 3.146.938 1.295-.12 2.331-.71 3.056-1.807.618-.935.827-1.984.861-3.088zm-4.972 7.78c-.407-.063-.821-.099-1.221-.194-3.06-.73-4.964-2.64-5.643-5.702-.455-2.055-.24-4.07.788-5.938 1.14-2.073 2.936-3.25 5.247-3.637 1.724-.29 3.407-.113 4.994.654 2.137 1.033 3.421 2.76 3.934 5.055.399 1.787.302 3.558-.412 5.258-.999 2.374-2.81 3.78-5.309 4.325-.38.083-.771.121-1.157.18h-1.22zm35.864-7.543c0 1.365.005 2.73-.005 4.095-.002.22.051.315.276.364 1.186.257 2.377.318 3.564.062 1.683-.364 2.884-1.317 3.444-2.984.305-.91.374-1.851.23-2.796-.24-1.576-1.05-2.764-2.54-3.389-1.608-.675-3.206-.487-4.773.198-.16.07-.2.165-.2.332.007 1.373.004 2.745.004 4.118zm1.412 7.544c-.396-.043-.792-.083-1.188-.13a16.14 16.14 0 0 1-3.425-.807c-.058-.02-.1-.112-.132-.179-.02-.042-.004-.1-.004-.15V.222h3.327v8.329c.464-.148.895-.318 1.343-.424 2.303-.541 4.505-.314 6.528.98 1.337.855 2.213 2.083 2.675 3.594.576 1.88.561 3.773-.063 5.635-.766 2.286-2.364 3.76-4.618 4.548-.875.307-1.78.47-2.705.53-.071.004-.141.023-.212.035h-1.526z"/>
</svg>
