<svg xmlns="http://www.w3.org/2000/svg" width="155" height="31" viewBox="0 0 155 31">
    <g fill="#007CFF" fill-rule="evenodd">
        <path d="M17.98 5.735l8.99 5.704-8.99 5.735 8.944 5.766 8.99-5.735-8.99-5.735 8.99-5.735L26.924 0 17.98 5.735zM0 5.735l8.99 5.704L0 17.174l8.99 5.766 8.99-5.735-8.99-5.735 8.99-5.735L8.99 0 0 5.735zm8.944 19.05l8.99 5.734 8.99-5.735-8.99-5.735-8.99 5.735zM144.615 16.787l-5.41-7.41h4.635l3.115 4.635 3.162-4.634h4.589l-5.487 7.362L155 24.785h-4.542l-3.534-5.115-3.44 5.115h-4.744l5.875-7.998zm-9.331.573v-.387c0-2.868-1.441-4.588-3.736-4.588-2.247 0-3.735 1.58-3.735 4.588v.387c0 2.775 1.442 4.356 3.735 4.356 2.31-.047 3.736-1.581 3.736-4.356zm-11.516.047v-.434c0-5.162 3.301-7.983 7.796-7.983 4.588 0 7.797 2.821 7.797 7.983v.434c0 5.068-3.162 7.796-7.797 7.796-4.975-.046-7.796-2.712-7.796-7.796zm-5.844-.233v-.387c0-2.821-1.535-4.402-3.689-4.402-2.201 0-3.736 1.767-3.736 4.448v.341c0 2.868 1.489 4.542 3.69 4.542 2.356 0 3.735-1.473 3.735-4.542zm-7.456 4.79l-.34 2.82h-3.442V4.217h3.922v7.89c.868-2.015 2.588-3.116 5.022-3.116 3.689.047 6.417 2.589 6.417 7.704v.48c0 5.115-2.588 8.045-6.51 8.045-2.589-.062-4.263-1.256-5.069-3.255zm-10.013-4.604v-.341c0-3.069-1.58-4.588-3.689-4.588-2.247 0-3.735 1.72-3.735 4.588v.295c0 2.728 1.441 4.448 3.689 4.448 2.31-.046 3.736-1.519 3.736-4.402zM89.219 9.378h3.348l.388 2.914c.806-1.953 2.526-3.302 5.068-3.302 3.921 0 6.51 2.821 6.51 8.045v.434c0 5.068-2.867 7.75-6.51 7.75-2.434 0-4.108-1.101-4.929-2.868v7.797h-3.922l.047-20.77zm-6.216 7.982v-.387c0-2.868-1.441-4.588-3.735-4.588-2.248 0-3.736 1.58-3.736 4.588v.387c0 2.775 1.442 4.356 3.736 4.356 2.294-.047 3.736-1.581 3.736-4.356zm-11.485.047v-.434c0-5.162 3.302-7.983 7.797-7.983 4.588 0 7.796 2.821 7.796 7.983v.434c0 5.068-3.115 7.796-7.796 7.796-4.976-.046-7.797-2.712-7.797-7.796zm-10.664-8.03h3.255l.527 3.581c.62-2.433 2.201-3.735 5.069-3.735h1.007v4.107h-1.674c-3.302 0-4.108 1.147-4.108 4.402v7.084h-4.014V9.378h-.062zm-13.826-.185v12.105h3.115c2.636 0 4.402-1.72 4.402-5.549v-1.007c0-3.829-1.86-5.55-4.541-5.55h-2.976zm-4.061-3.457h7.27c4.634 0 8.463 2.682 8.463 8.804v1.287c0 6.169-3.581 8.943-8.324 8.943h-7.409V5.735z"/>
    </g>
</svg>
