<svg xmlns="http://www.w3.org/2000/svg" xmlns:xlink="http://www.w3.org/1999/xlink" width="124" height="154" viewBox="0 0 124 154">
    <defs>
        <path id="a" d="M.147.136h37.065V21.49H.147z"/>
        <path id="c" d="M0 154h123.971V.094H0z"/>
        <path id="e" d="M0 .075h37.065V21.43H0z"/>
        <path id="g" d="M0 154h123.971V.094H0z"/>
        <path id="i" d="M.174.174h37.064v21.354H.174z"/>
        <path id="k" d="M0 154h123.971V.094H0z"/>
        <path id="m" d="M.062.142h78.096v44.8H.062z"/>
        <path id="o" d="M0 153.76h123.998V.094H0z"/>
        <path id="q" d="M.14.175H11.9v14.641H.14z"/>
        <path id="s" d="M.14.049h30.837v17.766H.14z"/>
        <path id="u" d="M0 154h123.971V.094H0z"/>
        <path id="w" d="M.123.114h11.759v14.827H.123z"/>
        <path id="y" d="M.122.177H30.96v17.766H.122z"/>
        <path id="A" d="M0 154h123.971V.094H0z"/>
        <path id="C" d="M.023.059h11.95v14.826H.024z"/>
        <path id="E" d="M.041.121h30.837v17.766H.041z"/>
        <path id="G" d="M0 154h123.971V.094H0z"/>
        <path id="I" d="M.152.034H11.91V14.86H.152z"/>
        <path id="K" d="M.17.096h30.837v17.766H.17z"/>
        <path id="M" d="M0 154h123.971V.094H0z"/>
    </defs>
    <g fill="none" fill-rule="evenodd">
        <g>
            <g transform="translate(44.724 95.388)">
                <mask id="b" fill="#fff">
                    <use xlink:href="#a"/>
                </mask>
                <path fill="#111D28" fill-opacity=".1" d="M36.318 9.6c1.192.687 1.192 1.811 0 2.498l-15.409 8.877c-1.192.687-3.143.687-4.335 0L1.04 12.027c-1.192-.687-1.192-1.811 0-2.498L16.45.652c1.192-.687 3.143-.687 4.335 0L36.318 9.6z" mask="url(#b)"/>
            </g>
            <mask id="d" fill="#fff">
                <use xlink:href="#c"/>
            </mask>
            <path fill="#1CBA81" d="M63.465 62.978c-.785 0-1.57-.171-2.167-.515l-15.532-8.948c-.581-.335-.877-.774-.892-1.215v51.354c.015.44.31.88.892 1.214l15.532 8.95c.596.342 1.382.514 2.167.514V62.978z" mask="url(#d)"/>
            <path fill="#13A36B" d="M63.465 62.978c.786 0 1.572-.171 2.169-.515l15.408-8.877c.613-.353.908-.82.891-1.286v51.354c.017.465-.278.933-.89 1.286l-15.41 8.877c-.596.344-1.382.515-2.168.515V62.978z" mask="url(#d)"/>
            <path fill="#6F8294" d="M81.042 51.088c1.192.687 1.192 1.811 0 2.498l-15.408 8.877c-1.193.687-3.144.687-4.336 0l-15.532-8.948c-1.193-.687-1.193-1.811 0-2.498l15.408-8.878c1.192-.686 3.143-.686 4.336 0l15.532 8.95z" mask="url(#d)"/>
            <path fill="#EBF0F3" d="M63.465 39.803c-.785 0-1.57-.172-2.167-.515l-15.532-8.949c-.581-.335-.877-.773-.892-1.214V52.3c.015.441.31.88.892 1.214l15.532 8.95c.596.343 1.382.514 2.167.514V39.803z" mask="url(#d)"/>
            <path fill="#C2CBD3" d="M63.465 39.803c.786 0 1.572-.172 2.169-.515l15.408-8.877c.613-.353.908-.821.891-1.286V52.3c.017.465-.278.933-.89 1.286l-15.41 8.877c-.596.344-1.382.515-2.168.515V39.803z" mask="url(#d)"/>
            <path fill="#FFF" d="M81.042 27.913c1.192.687 1.192 1.81 0 2.497l-15.408 8.878c-1.193.687-3.144.687-4.336 0l-15.532-8.949c-1.193-.687-1.193-1.81 0-2.498l15.408-8.877c1.192-.687 3.143-.687 4.336 0l15.532 8.949z" mask="url(#d)"/>
            <path fill="#1CBA81" d="M62.27 24.88c.133.217.16.424.08.622s-.254.374-.52.527c-.33.19-.679.293-1.049.31a2.508 2.508 0 0 1-1.015-.148l-.035.02c.447.5.368.923-.237 1.271-.29.168-.616.278-.976.331a3.28 3.28 0 0 1-1.115-.033 3.616 3.616 0 0 1-1.113-.423c-.584-.337-.905-.686-.962-1.048-.057-.362.193-.72.75-1.074l1.2.691c-.214.135-.328.272-.341.412-.014.14.09.274.31.401.177.102.37.153.578.152.208 0 .395-.05.562-.145.414-.24.319-.532-.285-.88l-.23-.133.993-.572.223.129c.532.317.996.362 1.39.134.172-.099.258-.202.257-.309 0-.107-.08-.207-.238-.298a1.055 1.055 0 0 0-.585-.135 1.58 1.58 0 0 0-.64.17l-1.2-.691a3.479 3.479 0 0 1 1.731-.418 3.622 3.622 0 0 1 1.737.507c.355.204.598.414.73.63M64.145 28.853c.452-.26.745-.491.877-.692.133-.2.041-.392-.275-.574a1.379 1.379 0 0 0-1.011-.163c-.353.076-.754.244-1.201.501-.453.261-.746.494-.881.699-.136.205-.042.4.278.584.317.183.651.234 1.005.155.353-.08.755-.25 1.208-.51m-2.818-1.623c.786-.453 1.569-.72 2.35-.799.78-.08 1.523.083 2.227.49.7.402.982.83.846 1.28-.136.452-.597.903-1.383 1.356-.79.456-1.579.723-2.364.803a3.628 3.628 0 0 1-2.228-.485c-.704-.406-.986-.834-.845-1.285.14-.451.607-.905 1.397-1.36M67.984 33.135c-.017.086.035.164.155.233a.716.716 0 0 0 .402.088c.153-.008.305-.056.458-.144.147-.085.228-.172.242-.26.013-.088-.037-.165-.152-.231a.707.707 0 0 0-.405-.09c-.15.01-.3.057-.447.142-.153.088-.237.175-.253.262zm-.22-3.36c-.016.086.034.162.149.228.12.07.257.1.413.094a.984.984 0 0 0 .454-.137c.147-.085.227-.173.238-.262.012-.09-.042-.169-.162-.238a.696.696 0 0 0-.398-.085c-.15.01-.3.056-.447.141-.148.086-.23.171-.246.258zm2.602 3.304c.01.248-.174.482-.555.701a2.35 2.35 0 0 1-1.22.322 2.376 2.376 0 0 1-1.18-.314c-.35-.201-.53-.427-.542-.678-.01-.25.175-.485.556-.705.38-.22.787-.325 1.22-.318.432.008.823.113 1.173.314.354.204.537.43.548.678zm-.222-3.354c.013.249-.171.483-.552.702-.381.22-.787.326-1.22.318a2.396 2.396 0 0 1-1.173-.313c-.36-.208-.546-.436-.56-.685-.013-.249.171-.483.552-.702a2.32 2.32 0 0 1 1.22-.318c.432.007.828.115 1.188.322.35.201.531.427.545.676zm2.87 1.373l-7.84 1.32-1.186-.684 7.84-1.319 1.186.683z" mask="url(#d)"/>
        </g>
        <g>
            <g transform="translate(0 95.963)">
                <mask id="f" fill="#fff">
                    <use xlink:href="#e"/>
                </mask>
                <path fill="#111D28" fill-opacity=".2" d="M36.17 9.54c1.193.686 1.193 1.81 0 2.497l-15.408 8.877c-1.192.687-3.143.687-4.335 0L.894 11.966c-1.192-.687-1.192-1.811 0-2.498L16.303.59c1.192-.687 3.143-.687 4.335 0l15.533 8.948z" mask="url(#f)"/>
            </g>
            <mask id="h" fill="#fff">
                <use xlink:href="#g"/>
            </mask>
            <path fill="#1CBA81" d="M18.594 73.546c-.786 0-1.571-.171-2.167-.515L.894 64.083c-.58-.335-.876-.774-.891-1.215v41.3c.015.44.31.88.891 1.214l15.533 8.949c.596.343 1.381.515 2.167.515v-41.3z" mask="url(#h)"/>
            <path fill="#13A36B" d="M18.594 73.546c.786 0 1.572-.171 2.168-.515l15.409-8.877c.612-.353.908-.821.89-1.286v41.3c.018.465-.278.933-.89 1.286l-15.409 8.877c-.596.343-1.382.515-2.168.515v-41.3z" mask="url(#h)"/>
            <path fill="#6F8294" d="M36.17 61.656c1.193.687 1.193 1.811 0 2.498L20.763 73.03c-1.192.687-3.143.687-4.335 0L.894 64.082c-1.192-.686-1.192-1.81 0-2.497l15.409-8.878c1.192-.687 3.143-.687 4.335 0l15.533 8.949z" mask="url(#h)"/>
            <path fill="#EBF0F3" d="M18.594 62.12c-.786 0-1.571-.17-2.167-.514L.894 52.656c-.58-.334-.876-.772-.891-1.213v11.425c.015.441.31.88.891 1.214l15.533 8.95c.596.343 1.381.514 2.167.514V62.121z" mask="url(#h)"/>
            <path fill="#C2CBD3" d="M18.594 62.12c.786.001 1.572-.17 2.168-.514l15.409-8.878c.612-.352.908-.82.89-1.285v11.425c.018.465-.278.933-.89 1.286L20.762 73.03c-.596.344-1.382.515-2.168.515V62.121z" mask="url(#h)"/>
            <path fill="#FFF" d="M36.17 50.23c1.193.687 1.193 1.811 0 2.498l-15.408 8.878c-1.192.687-3.143.687-4.335 0L.894 52.656c-1.192-.686-1.192-1.81 0-2.497l15.409-8.877c1.192-.687 3.143-.687 4.335 0l15.533 8.949z" mask="url(#h)"/>
            <path fill="#1CBA81" d="M15.329 47.675c.39-.225.416-.435.075-.631a.985.985 0 0 0-.62-.127c-.222.026-.478.116-.769.273l-1.2-.692c.643-.337 1.291-.495 1.946-.475.655.02 1.246.182 1.773.486.55.318.828.637.833.957.004.321-.216.609-.658.864-.491.283-1.16.45-2.008.502-.848.052-1.697.02-2.548-.097l2.006 1.155-.986.568L9.55 48.37l.915-.527c2.605.255 4.226.2 4.864-.169M19.015 50.918c.453-.26.745-.49.878-.691.133-.201.04-.393-.275-.575a1.379 1.379 0 0 0-1.011-.163c-.354.077-.754.244-1.202.502-.452.26-.746.493-.88.698-.136.205-.043.4.278.585.317.182.651.233 1.004.154.353-.079.756-.249 1.208-.51m-2.817-1.623c.786-.453 1.569-.719 2.35-.799.78-.08 1.523.084 2.227.49.7.403.981.83.845 1.28-.136.452-.597.904-1.382 1.357-.791.455-1.579.723-2.364.802a3.628 3.628 0 0 1-2.228-.485c-.704-.406-.986-.834-.845-1.285.14-.451.606-.904 1.397-1.36M22.854 55.2c-.016.087.036.165.156.234a.716.716 0 0 0 .402.087 1.02 1.02 0 0 0 .457-.144c.148-.085.229-.171.243-.26.013-.087-.037-.164-.152-.23a.709.709 0 0 0-.406-.09c-.15.01-.3.056-.447.142-.152.087-.237.174-.253.261zm-.219-3.36c-.016.086.034.163.149.229.12.069.257.1.412.093a.985.985 0 0 0 .455-.137c.147-.085.227-.172.238-.262.011-.09-.043-.168-.162-.237a.695.695 0 0 0-.399-.086c-.15.01-.299.057-.447.142-.147.085-.23.17-.246.257zm2.602 3.305c.01.247-.175.481-.555.7a2.35 2.35 0 0 1-1.22.322 2.377 2.377 0 0 1-1.18-.314c-.35-.201-.531-.427-.542-.677-.01-.251.174-.486.555-.706.381-.219.788-.325 1.22-.317.432.007.823.112 1.173.314.355.204.538.43.549.678zm-.223-3.355c.013.25-.17.483-.551.703-.381.22-.788.325-1.22.318a2.395 2.395 0 0 1-1.174-.314c-.359-.207-.545-.435-.559-.685-.013-.248.17-.483.552-.702.38-.22.787-.326 1.22-.318.432.008.828.115 1.188.322.35.202.53.427.544.676zm2.87 1.374l-7.839 1.319-1.186-.683 7.84-1.32 1.185.684z" mask="url(#h)"/>
        </g>
        <g>
            <g transform="translate(22.65 108.221)">
                <mask id="j" fill="#fff">
                    <use xlink:href="#i"/>
                </mask>
                <path fill="#111D28" fill-opacity=".2" d="M36.344 9.638c1.192.686 1.192 1.81 0 2.497l-15.408 8.877c-1.193.688-3.144.688-4.336 0L1.068 12.064c-1.193-.687-1.193-1.811 0-2.498L16.476.69c1.192-.687 3.143-.687 4.336 0l15.532 8.949z" mask="url(#j)"/>
            </g>
            <mask id="l" fill="#fff">
                <use xlink:href="#k"/>
            </mask>
            <path fill="#1CBA81" d="M41.418 85.343c-.786 0-1.572-.172-2.168-.515l-15.532-8.949c-.581-.335-.877-.773-.891-1.215v41.86c.014.442.31.88.891 1.215l15.532 8.949c.596.343 1.382.515 2.168.515v-41.86z" mask="url(#l)"/>
            <path fill="#13A36B" d="M41.418 85.343c.786 0 1.572-.172 2.168-.515l15.408-8.878c.613-.352.908-.82.891-1.286v41.86c.017.466-.278.933-.89 1.286l-15.41 8.878c-.595.343-1.381.515-2.167.515v-41.86z" mask="url(#l)"/>
            <path fill="#6F8294" d="M58.994 73.453c1.193.687 1.193 1.81 0 2.497l-15.408 8.878c-1.192.687-3.143.687-4.336 0l-15.532-8.949c-1.192-.687-1.192-1.81 0-2.498l15.408-8.877c1.193-.687 3.144-.687 4.336 0l15.532 8.949z" mask="url(#l)"/>
            <path fill="#EBF0F3" d="M41.418 69.436c-.786 0-1.572-.172-2.168-.516l-15.532-8.948c-.581-.335-.877-.774-.891-1.215v15.907c.014.442.31.88.891 1.215l15.532 8.949c.596.343 1.382.515 2.168.515V69.436z" mask="url(#l)"/>
            <path fill="#C2CBD3" d="M41.418 69.436c.786 0 1.572-.172 2.168-.516l15.408-8.877c.613-.353.908-.82.891-1.286v15.907c.017.466-.278.934-.89 1.286l-15.41 8.878c-.595.343-1.381.515-2.167.515V69.436z" mask="url(#l)"/>
            <path fill="#FFF" d="M58.994 57.545c1.193.687 1.193 1.811 0 2.498L43.586 68.92c-1.192.687-3.143.687-4.336 0l-15.532-8.948c-1.192-.687-1.192-1.811 0-2.498l15.408-8.877c1.193-.687 3.144-.687 4.336 0l15.532 8.948z" mask="url(#l)"/>
            <path fill="#1CBA81" d="M38.844 55.335c.39-.226.416-.436.076-.632a.983.983 0 0 0-.62-.127c-.223.026-.48.117-.77.273l-1.2-.691c.643-.338 1.292-.496 1.946-.476.655.02 1.246.183 1.773.486.55.318.828.637.833.958.004.32-.216.608-.658.863-.491.283-1.16.45-2.008.502-.847.052-1.697.02-2.548-.097l2.006 1.155-.986.568-3.623-2.087.915-.527c2.605.255 4.226.2 4.864-.168M44.987 58.24L42.7 56.922l-1.022.588a2.3 2.3 0 0 1 .689.088c.244.067.471.16.682.282.34.196.55.403.63.622a.674.674 0 0 1-.093.642c-.142.21-.366.401-.67.577a3.57 3.57 0 0 1-1.778.486 3.479 3.479 0 0 1-1.798-.48c-.383-.221-.648-.452-.796-.693-.147-.241-.175-.476-.086-.704.09-.228.29-.437.599-.626l1.2.691c-.138.107-.205.222-.202.344.003.123.098.238.285.346.215.124.446.177.692.16.246-.018.483-.092.712-.224.219-.126.33-.257.334-.391.005-.135-.097-.262-.303-.38a1.3 1.3 0 0 0-.498-.169 1.237 1.237 0 0 0-.484.03l-1.193-.687 3.057-1.762 3.4 1.959-1.071.617zM46.362 62.855c-.016.087.036.165.156.234a.716.716 0 0 0 .402.087 1.02 1.02 0 0 0 .457-.143c.148-.085.229-.172.243-.26.013-.088-.037-.165-.152-.232a.707.707 0 0 0-.406-.089c-.15.01-.3.057-.447.142-.152.087-.237.175-.253.261zm-.219-3.36c-.016.086.034.163.148.229.12.069.258.1.413.094a.987.987 0 0 0 .454-.138c.148-.085.228-.172.239-.262.011-.09-.043-.168-.163-.237a.693.693 0 0 0-.398-.086c-.15.01-.3.057-.447.142-.147.085-.23.17-.246.257zm2.602 3.305c.01.247-.175.481-.556.7a2.35 2.35 0 0 1-1.22.322 2.377 2.377 0 0 1-1.18-.313c-.35-.202-.53-.428-.541-.678-.01-.251.174-.486.555-.705.381-.22.788-.326 1.22-.318.432.008.823.112 1.173.314.355.204.537.43.549.678zm-.223-3.355c.013.25-.17.483-.551.703a2.32 2.32 0 0 1-1.22.318 2.397 2.397 0 0 1-1.174-.314c-.359-.207-.545-.435-.559-.684-.013-.25.17-.484.552-.703a2.32 2.32 0 0 1 1.22-.318c.432.008.828.115 1.188.322.35.202.53.427.544.676zm2.87 1.374l-7.839 1.32-1.186-.684 7.84-1.32 1.185.684z" mask="url(#l)"/>
        </g>
        <g>
            <g transform="translate(45.694 108.818)">
                <mask id="n" fill="#fff">
                    <use xlink:href="#m"/>
                </mask>
                <path fill="#111D28" fill-opacity=".2" d="M39.185 44.942L.062 22.442 38.791.143 78.158 22.5z" mask="url(#n)"/>
            </g>
            <mask id="p" fill="#fff">
                <use xlink:href="#o"/>
            </mask>
            <path fill="#119965" d="M123.852 129.71l-19.18 11.031v-.35l19.18-11.03z" mask="url(#p)"/>
            <path fill="#4CE5AB" d="M104.672 140.39L65.55 117.892l18.936-10.89 39.367 22.36z" mask="url(#p)"/>
            <path fill="#26D198" d="M104.672 140.741l-39.123-22.5v-.35l39.123 22.5z" mask="url(#p)"/>
            <path fill="#1AB57D" d="M108.643 136.252c-2.477-.793-5.503-.8-7.974-.019l-27.89-16.04c1.358-1.42 1.346-3.16-.032-4.585l7.767-4.467c2.49.797 5.535.8 8.012.006l28.069 15.942c-1.33 1.415-1.31 3.14.06 4.555l-8.012 4.608zm9.327-10.232l-27.603-15.678-5.882-3.34-5.81 3.34-7.316 4.208-5.81 3.341 33.277 19.138 5.846 3.362 5.81-3.341 13.37-7.69-5.882-3.34z" mask="url(#p)"/>
            <path fill="#1AB57D" d="M79.587 115.347c1.943-1.117 5.103-1.111 7.058.013 1.955 1.124 1.964 2.941.022 4.059-1.943 1.117-5.103 1.112-7.058-.013-1.955-1.124-1.965-2.941-.022-4.059M103.252 128.848c1.942-1.118 5.103-1.112 7.058.013 1.955 1.124 1.964 2.941.022 4.058-1.943 1.118-5.103 1.112-7.058-.012s-1.965-2.942-.022-4.06" mask="url(#p)"/>
            <path fill="#119965" d="M123.852 129.068l-19.18 11.03v-.35l19.18-11.03z" mask="url(#p)"/>
            <path fill="#4CE5AB" d="M104.672 139.748l-39.123-22.5 18.936-10.89 39.367 22.36z" mask="url(#p)"/>
            <path fill="#26D198" d="M104.672 140.098L65.55 117.6v-.35l39.123 22.5z" mask="url(#p)"/>
            <path fill="#1AB57D" d="M108.643 135.609c-2.477-.793-5.503-.8-7.974-.019l-27.89-16.04c1.358-1.42 1.346-3.16-.032-4.585l7.767-4.467c2.49.797 5.535.8 8.012.006l28.069 15.942c-1.33 1.415-1.31 3.14.06 4.555l-8.012 4.608zm9.327-10.232l-27.603-15.678-5.882-3.34-5.81 3.34-7.316 4.208-5.81 3.342 33.277 19.137 5.846 3.362 5.81-3.341 13.37-7.69-5.882-3.34z" mask="url(#p)"/>
            <path fill="#1AB57D" d="M79.587 114.704c1.943-1.117 5.103-1.111 7.058.013 1.955 1.124 1.964 2.942.022 4.059-1.943 1.117-5.103 1.112-7.058-.013-1.955-1.124-1.965-2.941-.022-4.059M103.252 128.205c1.942-1.117 5.103-1.112 7.058.013 1.955 1.124 1.964 2.941.022 4.059-1.943 1.117-5.103 1.111-7.058-.013-1.955-1.124-1.965-2.942-.022-4.059" mask="url(#p)"/>
            <path fill="#119965" d="M123.852 128.425l-19.18 11.03v-.35l19.18-11.03z" mask="url(#p)"/>
            <path fill="#4CE5AB" d="M104.672 139.105l-39.123-22.5 18.936-10.89 39.367 22.36z" mask="url(#p)"/>
            <path fill="#26D198" d="M104.672 139.456l-39.123-22.5v-.35l39.123 22.499z" mask="url(#p)"/>
            <path fill="#1AB57D" d="M108.643 134.966c-2.477-.793-5.503-.8-7.974-.019l-27.89-16.04c1.358-1.42 1.346-3.16-.032-4.585l7.767-4.467c2.49.797 5.535.8 8.012.006l28.069 15.942c-1.33 1.415-1.31 3.14.06 4.555l-8.012 4.608zm9.327-10.232l-27.603-15.678-5.882-3.34-5.81 3.34-7.316 4.208-5.81 3.342 33.277 19.137 5.846 3.362 5.81-3.341 13.37-7.69-5.882-3.34z" mask="url(#p)"/>
            <path fill="#1AB57D" d="M79.587 114.061c1.943-1.117 5.103-1.111 7.058.013 1.955 1.124 1.964 2.942.022 4.059-1.943 1.117-5.103 1.112-7.058-.013-1.955-1.124-1.965-2.941-.022-4.059M103.252 127.562c1.942-1.117 5.103-1.111 7.058.013 1.955 1.124 1.964 2.941.022 4.059-1.943 1.117-5.103 1.112-7.058-.013-1.955-1.124-1.965-2.942-.022-4.059" mask="url(#p)"/>
            <path fill="#119965" d="M123.852 127.782l-19.18 11.03v-.35l19.18-11.03z" mask="url(#p)"/>
            <path fill="#4CE5AB" d="M104.672 138.462l-39.123-22.5 18.936-10.89 39.367 22.36z" mask="url(#p)"/>
            <path fill="#26D198" d="M104.672 138.813l-39.123-22.5v-.35l39.123 22.5z" mask="url(#p)"/>
            <path fill="#1AB57D" d="M108.643 134.323c-2.477-.793-5.503-.8-7.974-.019l-27.89-16.04c1.358-1.42 1.346-3.16-.032-4.585l7.767-4.467c2.49.797 5.535.8 8.012.006l28.069 15.942c-1.33 1.415-1.31 3.14.06 4.555l-8.012 4.608zm9.327-10.232l-27.603-15.677-5.882-3.341-5.81 3.34-7.316 4.208-5.81 3.342L98.826 135.1l5.846 3.362 5.81-3.34 13.37-7.69-5.882-3.34z" mask="url(#p)"/>
            <path fill="#1AB57D" d="M79.587 113.419c1.943-1.118 5.103-1.112 7.058.012 1.955 1.125 1.964 2.942.022 4.06-1.943 1.117-5.103 1.11-7.058-.013-1.955-1.125-1.965-2.942-.022-4.06M103.252 126.92c1.942-1.118 5.103-1.112 7.058.012s1.964 2.942.022 4.059c-1.943 1.117-5.103 1.112-7.058-.013-1.955-1.124-1.965-2.941-.022-4.059" mask="url(#p)"/>
            <path fill="#119965" d="M123.852 127.14l-19.18 11.03v-.35l19.18-11.031z" mask="url(#p)"/>
            <path fill="#4CE5AB" d="M104.672 137.82l-39.123-22.5 18.936-10.89 39.367 22.359z" mask="url(#p)"/>
            <path fill="#26D198" d="M104.672 138.17l-39.123-22.5v-.35l39.123 22.5z" mask="url(#p)"/>
            <path fill="#1AB57D" d="M108.643 133.68c-2.477-.793-5.503-.8-7.974-.019l-27.89-16.04c1.358-1.42 1.346-3.16-.032-4.585l7.767-4.467c2.49.797 5.535.8 8.012.006l28.069 15.942c-1.33 1.415-1.31 3.141.06 4.555l-8.012 4.608zm9.327-10.232l-27.603-15.677-5.882-3.34-5.81 3.34-7.316 4.207-5.81 3.342 33.277 19.137 5.846 3.362 5.81-3.34 13.37-7.69-5.882-3.34z" mask="url(#p)"/>
            <path fill="#1AB57D" d="M79.587 112.776c1.943-1.118 5.103-1.112 7.058.012 1.955 1.125 1.964 2.942.022 4.06-1.943 1.117-5.103 1.111-7.058-.013-1.955-1.125-1.965-2.942-.022-4.06M103.252 126.276c1.942-1.117 5.103-1.111 7.058.013 1.955 1.124 1.964 2.942.022 4.059-1.943 1.117-5.103 1.112-7.058-.013-1.955-1.124-1.965-2.941-.022-4.059" mask="url(#p)"/>
            <path fill="#119965" d="M123.852 126.497l-19.18 11.03v-.35l19.18-11.031z" mask="url(#p)"/>
            <path fill="#4CE5AB" d="M104.672 137.177l-39.123-22.5 18.936-10.89 39.367 22.359z" mask="url(#p)"/>
            <path fill="#26D198" d="M104.672 137.527l-39.123-22.5v-.35l39.123 22.5z" mask="url(#p)"/>
            <path fill="#1AB57D" d="M108.643 133.037c-2.477-.793-5.503-.8-7.974-.018l-27.89-16.04c1.358-1.42 1.346-3.161-.032-4.585l7.767-4.468c2.49.797 5.535.8 8.012.006l28.069 15.942c-1.33 1.415-1.31 3.141.06 4.556l-8.012 4.607zm9.327-10.232l-27.603-15.677-5.882-3.341-5.81 3.341-7.316 4.208-5.81 3.341 33.277 19.137 5.846 3.363 5.81-3.342 13.37-7.689-5.882-3.34z" mask="url(#p)"/>
            <path fill="#1AB57D" d="M79.587 112.133c1.943-1.118 5.103-1.112 7.058.012 1.955 1.125 1.964 2.942.022 4.06-1.943 1.117-5.103 1.111-7.058-.013-1.955-1.125-1.965-2.942-.022-4.06M103.252 125.633c1.942-1.117 5.103-1.111 7.058.013 1.955 1.125 1.964 2.942.022 4.06-1.943 1.116-5.103 1.11-7.058-.013-1.955-1.125-1.965-2.942-.022-4.06" mask="url(#p)"/>
            <path fill="#119965" d="M123.852 125.854l-19.18 11.03v-.35l19.18-11.03z" mask="url(#p)"/>
            <path fill="#4CE5AB" d="M104.672 136.534l-39.123-22.5 18.936-10.89 39.367 22.36z" mask="url(#p)"/>
            <path fill="#26D198" d="M104.672 136.884l-39.123-22.5v-.35l39.123 22.5z" mask="url(#p)"/>
            <path fill="#1AB57D" d="M108.643 132.394c-2.477-.793-5.503-.8-7.974-.018l-27.89-16.04c1.358-1.42 1.346-3.16-.032-4.585l7.767-4.468c2.49.797 5.535.8 8.012.007l28.069 15.941c-1.33 1.415-1.31 3.141.06 4.555l-8.012 4.608zm9.327-10.232l-27.603-15.677-5.882-3.34-5.81 3.34-7.316 4.208-5.81 3.341 33.277 19.137 5.846 3.363 5.81-3.342 13.37-7.689-5.882-3.34z" mask="url(#p)"/>
            <path fill="#1AB57D" d="M79.587 111.49c1.943-1.117 5.103-1.112 7.058.013 1.955 1.124 1.964 2.941.022 4.059-1.943 1.117-5.103 1.111-7.058-.013-1.955-1.124-1.965-2.942-.022-4.06M103.252 124.99c1.942-1.117 5.103-1.111 7.058.013 1.955 1.124 1.964 2.942.022 4.06-1.943 1.117-5.103 1.111-7.058-.014-1.955-1.124-1.965-2.941-.022-4.058" mask="url(#p)"/>
            <path fill="#119965" d="M123.852 125.21l-19.18 11.031v-.35l19.18-11.03z" mask="url(#p)"/>
            <path fill="#4CE5AB" d="M104.672 135.89L65.55 113.392l18.936-10.89 39.367 22.36z" mask="url(#p)"/>
            <path fill="#26D198" d="M104.672 136.241l-39.123-22.5v-.35l39.123 22.5z" mask="url(#p)"/>
            <path fill="#1AB57D" d="M108.643 131.751c-2.477-.793-5.503-.8-7.974-.018l-27.89-16.04c1.358-1.42 1.346-3.16-.032-4.585l7.767-4.468c2.49.797 5.535.8 8.012.007l28.069 15.942c-1.33 1.414-1.31 3.14.06 4.555l-8.012 4.607zm9.327-10.231l-27.603-15.678-5.882-3.34-5.81 3.34-7.316 4.208-5.81 3.341 33.277 19.137 5.846 3.363 5.81-3.342 13.37-7.689-5.882-3.34z" mask="url(#p)"/>
            <path fill="#1AB57D" d="M79.587 110.847c1.943-1.117 5.103-1.112 7.058.013 1.955 1.124 1.964 2.941.022 4.059-1.943 1.117-5.103 1.111-7.058-.013-1.955-1.124-1.965-2.942-.022-4.06M103.252 124.348c1.942-1.118 5.103-1.112 7.058.012 1.955 1.125 1.964 2.942.022 4.06-1.943 1.117-5.103 1.111-7.058-.013-1.955-1.125-1.965-2.942-.022-4.06" mask="url(#p)"/>
            <path fill="#119965" d="M123.852 124.568l-19.18 11.03v-.35l19.18-11.03z" mask="url(#p)"/>
            <path fill="#4CE5AB" d="M104.672 135.248l-39.123-22.5 18.936-10.89 39.367 22.36z" mask="url(#p)"/>
            <path fill="#26D198" d="M104.672 135.598l-39.123-22.5v-.35l39.123 22.5z" mask="url(#p)"/>
            <path fill="#1AB57D" d="M108.643 131.108c-2.477-.792-5.503-.8-7.974-.018l-27.89-16.04c1.358-1.42 1.346-3.16-.032-4.585l7.767-4.467c2.49.797 5.535.8 8.012.006l28.069 15.942c-1.33 1.415-1.31 3.14.06 4.555l-8.012 4.607zm9.327-10.231l-27.603-15.678-5.882-3.34-5.81 3.34-7.316 4.208-5.81 3.341 33.277 19.137 5.846 3.363 5.81-3.341 13.37-7.69-5.882-3.34z" mask="url(#p)"/>
            <path fill="#1AB57D" d="M79.587 110.204c1.943-1.117 5.103-1.111 7.058.013 1.955 1.124 1.964 2.941.022 4.059-1.943 1.117-5.103 1.112-7.058-.013-1.955-1.124-1.965-2.941-.022-4.059M103.252 123.705c1.942-1.118 5.103-1.112 7.058.013 1.955 1.124 1.964 2.941.022 4.058-1.943 1.118-5.103 1.112-7.058-.012-1.955-1.125-1.965-2.942-.022-4.06" mask="url(#p)"/>
            <path fill="#119965" d="M123.852 123.925l-19.18 11.03v-.35l19.18-11.03z" mask="url(#p)"/>
            <path fill="#4CE5AB" d="M104.672 134.605l-39.123-22.5 18.936-10.89 39.367 22.36z" mask="url(#p)"/>
            <path fill="#26D198" d="M104.672 134.955L65.55 112.456v-.35l39.123 22.499z" mask="url(#p)"/>
            <path fill="#1AB57D" d="M108.643 130.466c-2.477-.793-5.503-.8-7.974-.019l-27.89-16.04c1.358-1.42 1.346-3.16-.032-4.585l7.767-4.467c2.49.797 5.535.8 8.012.006l28.069 15.942c-1.33 1.415-1.31 3.14.06 4.555l-8.012 4.608zm9.327-10.232l-27.603-15.678-5.882-3.34-5.81 3.34-7.316 4.208-5.81 3.341 33.277 19.138 5.846 3.362 5.81-3.341 13.37-7.69-5.882-3.34z" mask="url(#p)"/>
            <path fill="#1AB57D" d="M79.587 109.561c1.943-1.117 5.103-1.111 7.058.013 1.955 1.124 1.964 2.941.022 4.059-1.943 1.117-5.103 1.112-7.058-.013-1.955-1.124-1.965-2.942-.022-4.059M103.252 123.062c1.942-1.118 5.103-1.112 7.058.012 1.955 1.125 1.964 2.942.022 4.06-1.943 1.117-5.103 1.111-7.058-.013-1.955-1.125-1.965-2.942-.022-4.06" mask="url(#p)"/>
            <path fill="#119965" d="M123.852 123.282l-19.18 11.03v-.35l19.18-11.03z" mask="url(#p)"/>
            <path fill="#4CE5AB" d="M104.672 133.962l-39.123-22.5 18.936-10.89 39.367 22.36z" mask="url(#p)"/>
            <path fill="#26D198" d="M104.672 134.312l-39.123-22.5v-.35l39.123 22.5z" mask="url(#p)"/>
            <path fill="#1AB57D" d="M108.643 129.823c-2.477-.793-5.503-.8-7.974-.019l-27.89-16.04c1.358-1.42 1.346-3.16-.032-4.585l7.767-4.467c2.49.797 5.535.8 8.012.006l28.069 15.942c-1.33 1.415-1.31 3.14.06 4.555l-8.012 4.608zm9.327-10.232l-27.603-15.678-5.882-3.34-5.81 3.34-7.316 4.208-5.81 3.341L98.826 130.6l5.846 3.362 5.81-3.341 13.37-7.69-5.882-3.34z" mask="url(#p)"/>
            <path fill="#1AB57D" d="M79.587 108.918c1.943-1.117 5.103-1.111 7.058.013 1.955 1.124 1.964 2.942.022 4.059-1.943 1.117-5.103 1.112-7.058-.013-1.955-1.124-1.965-2.941-.022-4.059M103.252 122.419c1.942-1.117 5.103-1.111 7.058.013 1.955 1.124 1.964 2.941.022 4.059-1.943 1.117-5.103 1.111-7.058-.013-1.955-1.124-1.965-2.942-.022-4.059" mask="url(#p)"/>
            <path fill="#119965" d="M123.852 122.64l-19.18 11.03v-.35l19.18-11.031z" mask="url(#p)"/>
            <path fill="#4CE5AB" d="M104.672 133.32l-39.123-22.5 18.936-10.89 39.367 22.359z" mask="url(#p)"/>
            <path fill="#26D198" d="M104.672 133.67l-39.123-22.5v-.35l39.123 22.5z" mask="url(#p)"/>
            <path fill="#1AB57D" d="M108.643 129.18c-2.477-.793-5.503-.8-7.974-.019l-27.89-16.04c1.358-1.42 1.346-3.16-.032-4.585l7.767-4.467c2.49.797 5.535.8 8.012.006l28.069 15.942c-1.33 1.415-1.31 3.14.06 4.555l-8.012 4.608zm9.327-10.232L90.367 103.27l-5.882-3.34-5.81 3.34-7.316 4.208-5.81 3.342 33.277 19.137 5.846 3.362 5.81-3.341 13.37-7.69-5.882-3.34z" mask="url(#p)"/>
            <path fill="#1AB57D" d="M79.587 108.275c1.943-1.117 5.103-1.111 7.058.013 1.955 1.124 1.964 2.942.022 4.059-1.943 1.117-5.103 1.112-7.058-.013-1.955-1.124-1.965-2.941-.022-4.059M103.252 121.776c1.942-1.117 5.103-1.112 7.058.013 1.955 1.124 1.964 2.941.022 4.059-1.943 1.117-5.103 1.111-7.058-.013-1.955-1.124-1.965-2.942-.022-4.059" mask="url(#p)"/>
            <path fill="#119965" d="M123.852 121.996l-19.18 11.03v-.35l19.18-11.03z" mask="url(#p)"/>
            <path fill="#4CE5AB" d="M104.672 132.676l-39.123-22.5 18.936-10.89 39.367 22.36z" mask="url(#p)"/>
            <path fill="#26D198" d="M104.672 133.027l-39.123-22.5v-.35l39.123 22.5z" mask="url(#p)"/>
            <path fill="#1AB57D" d="M108.643 128.537c-2.477-.793-5.503-.8-7.974-.019l-27.89-16.04c1.358-1.42 1.346-3.16-.032-4.585l7.767-4.467c2.49.797 5.535.8 8.012.006l28.069 15.942c-1.33 1.415-1.31 3.14.06 4.555l-8.012 4.608zm9.327-10.232l-27.603-15.678-5.882-3.34-5.81 3.341-7.316 4.207-5.81 3.342 33.277 19.137 5.846 3.362 5.81-3.341 13.37-7.69-5.882-3.34z" mask="url(#p)"/>
            <path fill="#1AB57D" d="M79.587 107.633c1.943-1.118 5.103-1.112 7.058.012 1.955 1.125 1.964 2.942.022 4.06-1.943 1.117-5.103 1.11-7.058-.013-1.955-1.125-1.965-2.942-.022-4.06M103.252 121.133c1.942-1.117 5.103-1.111 7.058.013 1.955 1.124 1.964 2.942.022 4.059-1.943 1.117-5.103 1.112-7.058-.013-1.955-1.124-1.965-2.941-.022-4.059" mask="url(#p)"/>
        </g>
        <g transform="translate(80 118)">
            <mask id="r" fill="#fff">
                <use xlink:href="#q"/>
            </mask>
            <path fill="#111D28" fill-opacity=".1" d="M.14 8.24V.175L11.9 6.752v8.064z" mask="url(#r)"/>
        </g>
        <g>
            <g transform="translate(79.851 107.647)">
                <mask id="t" fill="#fff">
                    <use xlink:href="#s"/>
                </mask>
                <path fill="#111D28" fill-opacity=".1" d="M19.316.049L.14 11.097l11.66 6.718L30.978 6.767z" mask="url(#t)"/>
            </g>
            <mask id="v" fill="#fff">
                <use xlink:href="#u"/>
            </mask>
            <path fill="#C2CBD3" d="M79.83 126.821v-8.239l11.66 6.719v8.238z" mask="url(#v)"/>
            <path fill="#EBF0F3" d="M99.006 107.535L79.83 118.582l11.66 6.719 19.177-11.048z" mask="url(#v)"/>
            <path fill="#119965" d="M104.037 141.343L84.86 152.39v-.35l19.176-11.048z" mask="url(#v)"/>
            <path fill="#4CE5AB" d="M84.86 152.04l-39.113-22.535 18.931-10.907 39.359 22.394z" mask="url(#v)"/>
            <path fill="#26D198" d="M84.86 152.39l-39.113-22.534v-.351l39.114 22.534z" mask="url(#v)"/>
            <path fill="#1AB57D" d="M88.83 147.893c-2.476-.794-5.501-.8-7.97-.018L52.974 131.81c1.358-1.423 1.346-3.166-.033-4.592l7.767-4.475c2.489.799 5.533.801 8.01.006l28.062 15.967c-1.33 1.417-1.309 3.146.06 4.563l-8.01 4.614zm9.326-10.247l-27.597-15.703-5.88-3.345-5.81 3.346-7.314 4.214-5.809 3.347 33.27 19.167 5.845 3.367 5.809-3.346 13.367-7.701-5.881-3.346z" mask="url(#v)"/>
            <path fill="#1AB57D" d="M59.781 126.956c1.943-1.119 5.102-1.113 7.056.013 1.955 1.126 1.965 2.946.023 4.066-1.943 1.119-5.102 1.113-7.057-.013-1.954-1.126-1.964-2.946-.022-4.066M83.44 140.478c1.943-1.119 5.103-1.113 7.057.013 1.955 1.126 1.965 2.946.022 4.065-1.942 1.12-5.101 1.114-7.056-.012-1.955-1.127-1.964-2.947-.022-4.066" mask="url(#v)"/>
            <path fill="#119965" d="M104.037 140.699L84.86 151.746v-.35l19.176-11.048z" mask="url(#v)"/>
            <path fill="#4CE5AB" d="M84.86 151.395l-39.113-22.534 18.931-10.907 39.359 22.394z" mask="url(#v)"/>
            <path fill="#26D198" d="M84.86 151.746l-39.113-22.534v-.351l39.114 22.534z" mask="url(#v)"/>
            <path fill="#1AB57D" d="M88.83 147.25c-2.476-.795-5.501-.801-7.97-.019l-27.885-16.065c1.358-1.423 1.346-3.166-.033-4.592l7.767-4.474c2.489.798 5.533.8 8.01.006l28.062 15.966c-1.33 1.418-1.309 3.146.06 4.563l-8.01 4.615zm9.326-10.248L70.559 121.3l-5.88-3.346-5.81 3.346-7.314 4.214-5.809 3.347 33.27 19.167 5.845 3.368 5.809-3.347 13.367-7.701-5.881-3.346z" mask="url(#v)"/>
            <path fill="#1AB57D" d="M59.781 126.313c1.943-1.12 5.102-1.114 7.056.012 1.955 1.126 1.965 2.947.023 4.066-1.943 1.119-5.102 1.113-7.057-.013-1.954-1.126-1.964-2.946-.022-4.065M83.44 139.834c1.943-1.119 5.103-1.113 7.057.013 1.955 1.126 1.965 2.946.022 4.065-1.942 1.12-5.101 1.114-7.056-.012-1.955-1.127-1.964-2.947-.022-4.066" mask="url(#v)"/>
            <path fill="#119965" d="M104.037 140.055L84.86 151.103v-.352l19.176-11.047z" mask="url(#v)"/>
            <path fill="#4CE5AB" d="M84.86 150.751l-39.113-22.534 18.931-10.907 39.359 22.394z" mask="url(#v)"/>
            <path fill="#26D198" d="M84.86 151.103l-39.113-22.535v-.351L84.86 150.75z" mask="url(#v)"/>
            <path fill="#1AB57D" d="M88.83 146.606c-2.476-.794-5.501-.801-7.97-.019l-27.885-16.065c1.358-1.422 1.346-3.165-.033-4.592l7.767-4.475c2.489.799 5.533.802 8.01.007l28.062 15.967c-1.33 1.417-1.309 3.145.06 4.562l-8.01 4.615zm9.326-10.248l-27.597-15.702-5.88-3.346-5.81 3.346-7.314 4.214-5.809 3.347 33.27 19.167 5.845 3.368 5.809-3.347 13.367-7.701-5.881-3.346z" mask="url(#v)"/>
            <path fill="#1AB57D" d="M59.781 125.669c1.943-1.12 5.102-1.114 7.056.012 1.955 1.126 1.965 2.946.023 4.066-1.943 1.119-5.102 1.113-7.057-.013-1.954-1.126-1.964-2.946-.022-4.065M83.44 139.19c1.943-1.119 5.103-1.113 7.057.013 1.955 1.126 1.965 2.946.022 4.065-1.942 1.12-5.101 1.114-7.056-.012-1.955-1.126-1.964-2.946-.022-4.066" mask="url(#v)"/>
            <path fill="#119965" d="M104.037 139.411L84.86 150.459v-.351l19.176-11.048z" mask="url(#v)"/>
            <path fill="#4CE5AB" d="M84.86 150.108l-39.113-22.535 18.931-10.907 39.359 22.394z" mask="url(#v)"/>
            <path fill="#26D198" d="M84.86 150.458l-39.113-22.534v-.351l39.114 22.535z" mask="url(#v)"/>
            <path fill="#1AB57D" d="M88.83 145.962c-2.476-.794-5.501-.801-7.97-.019L52.974 129.88c1.358-1.423 1.346-3.166-.033-4.593l7.767-4.474c2.489.798 5.533.8 8.01.006l28.062 15.967c-1.33 1.417-1.309 3.145.06 4.562l-8.01 4.615zm9.326-10.248l-27.597-15.702-5.88-3.346-5.81 3.346-7.314 4.214-5.809 3.347 33.27 19.167 5.845 3.368 5.809-3.347 13.367-7.7-5.881-3.347z" mask="url(#v)"/>
            <path fill="#1AB57D" d="M59.781 125.025c1.943-1.12 5.102-1.114 7.056.013 1.955 1.126 1.965 2.946.023 4.065-1.943 1.119-5.102 1.113-7.057-.013-1.954-1.126-1.964-2.946-.022-4.065M83.44 138.547c1.943-1.12 5.103-1.114 7.057.012 1.955 1.126 1.965 2.946.022 4.066-1.942 1.119-5.101 1.113-7.056-.013s-1.964-2.946-.022-4.065" mask="url(#v)"/>
            <path fill="#119965" d="M104.037 138.767L84.86 149.815v-.351l19.176-11.048z" mask="url(#v)"/>
            <path fill="#4CE5AB" d="M84.86 149.464l-39.113-22.535 18.931-10.907 39.359 22.394z" mask="url(#v)"/>
            <path fill="#26D198" d="M84.86 149.815L45.748 127.28v-.35l39.114 22.534z" mask="url(#v)"/>
            <path fill="#1AB57D" d="M88.83 145.318c-2.476-.794-5.501-.8-7.97-.019l-27.885-16.065c1.358-1.422 1.346-3.165-.033-4.592l7.767-4.474c2.489.798 5.533.8 8.01.006l28.062 15.967c-1.33 1.417-1.309 3.145.06 4.562l-8.01 4.615zm9.326-10.248l-27.597-15.702-5.88-3.346-5.81 3.347-7.314 4.213-5.809 3.347 33.27 19.167 5.845 3.368 5.809-3.347 13.367-7.7-5.881-3.347z" mask="url(#v)"/>
            <path fill="#1AB57D" d="M59.781 124.38c1.943-1.118 5.102-1.112 7.056.014 1.955 1.126 1.965 2.946.023 4.065-1.943 1.119-5.102 1.113-7.057-.013-1.954-1.126-1.964-2.946-.022-4.065M83.44 137.903c1.943-1.12 5.103-1.114 7.057.012 1.955 1.126 1.965 2.947.022 4.066-1.942 1.119-5.101 1.113-7.056-.013s-1.964-2.946-.022-4.065" mask="url(#v)"/>
            <path fill="#119965" d="M104.037 138.123L84.86 149.171v-.351l19.176-11.048z" mask="url(#v)"/>
            <path fill="#4CE5AB" d="M84.86 148.82l-39.113-22.535 18.931-10.907 39.359 22.394z" mask="url(#v)"/>
            <path fill="#26D198" d="M84.86 149.17l-39.113-22.534v-.35L84.86 148.82z" mask="url(#v)"/>
            <path fill="#1AB57D" d="M88.83 144.674c-2.476-.794-5.501-.801-7.97-.019l-27.885-16.064c1.358-1.423 1.346-3.166-.033-4.593l7.767-4.474c2.489.798 5.533.8 8.01.006l28.062 15.967c-1.33 1.417-1.309 3.146.06 4.562l-8.01 4.615zm9.326-10.248l-27.597-15.702-5.88-3.346-5.81 3.347-7.314 4.214-5.809 3.346 33.27 19.167 5.845 3.368 5.809-3.347 13.367-7.7-5.881-3.347z" mask="url(#v)"/>
            <path fill="#1AB57D" d="M59.781 123.737c1.943-1.12 5.102-1.113 7.056.013 1.955 1.126 1.965 2.946.023 4.065-1.943 1.12-5.102 1.113-7.057-.013-1.954-1.126-1.964-2.946-.022-4.065M83.44 137.259c1.943-1.12 5.103-1.114 7.057.012 1.955 1.127 1.965 2.947.022 4.066-1.942 1.119-5.101 1.113-7.056-.013s-1.964-2.946-.022-4.065" mask="url(#v)"/>
            <path fill="#119965" d="M104.037 137.48L84.86 148.526v-.351l19.176-11.048z" mask="url(#v)"/>
            <path fill="#4CE5AB" d="M84.86 148.176L45.748 125.64l18.931-10.907 39.359 22.394z" mask="url(#v)"/>
            <path fill="#26D198" d="M84.86 148.527l-39.113-22.535v-.35l39.114 22.534z" mask="url(#v)"/>
            <path fill="#1AB57D" d="M88.83 144.03c-2.476-.794-5.501-.8-7.97-.018l-27.885-16.065c1.358-1.423 1.346-3.166-.033-4.593l7.767-4.474c2.489.798 5.533.801 8.01.006l28.062 15.967c-1.33 1.417-1.309 3.146.06 4.562l-8.01 4.615zm9.326-10.248L70.559 118.08l-5.88-3.346-5.81 3.347-7.314 4.214-5.809 3.346 33.27 19.167 5.845 3.368 5.809-3.346 13.367-7.702-5.881-3.346z" mask="url(#v)"/>
            <path fill="#1AB57D" d="M59.781 123.093c1.943-1.119 5.102-1.113 7.056.013 1.955 1.126 1.965 2.946.023 4.065-1.943 1.12-5.102 1.114-7.057-.013-1.954-1.126-1.964-2.946-.022-4.065M83.44 136.615c1.943-1.12 5.103-1.113 7.057.013 1.955 1.126 1.965 2.946.022 4.065-1.942 1.119-5.101 1.113-7.056-.013s-1.964-2.946-.022-4.065" mask="url(#v)"/>
            <path fill="#119965" d="M104.037 136.835L84.86 147.883v-.35l19.176-11.049z" mask="url(#v)"/>
            <path fill="#4CE5AB" d="M84.86 147.532l-39.113-22.535 18.931-10.907 39.359 22.394z" mask="url(#v)"/>
            <path fill="#26D198" d="M84.86 147.883l-39.113-22.535v-.35l39.114 22.534z" mask="url(#v)"/>
            <path fill="#1AB57D" d="M88.83 143.386c-2.476-.794-5.501-.8-7.97-.018l-27.885-16.065c1.358-1.423 1.346-3.166-.033-4.593l7.767-4.474c2.489.798 5.533.801 8.01.006L96.78 134.21c-1.33 1.417-1.309 3.146.06 4.562l-8.01 4.615zm9.326-10.247l-27.597-15.703-5.88-3.345-5.81 3.346-7.314 4.214-5.809 3.346 33.27 19.167 5.845 3.368 5.809-3.346 13.367-7.701-5.881-3.346z" mask="url(#v)"/>
            <path fill="#1AB57D" d="M59.781 122.45c1.943-1.12 5.102-1.114 7.056.012 1.955 1.126 1.965 2.946.023 4.065-1.943 1.12-5.102 1.114-7.057-.012-1.954-1.127-1.964-2.947-.022-4.066M83.44 135.971c1.943-1.12 5.103-1.113 7.057.013 1.955 1.126 1.965 2.946.022 4.065-1.942 1.12-5.101 1.113-7.056-.013s-1.964-2.946-.022-4.065" mask="url(#v)"/>
            <path fill="#119965" d="M104.037 136.192L84.86 147.239v-.35l19.176-11.049z" mask="url(#v)"/>
            <path fill="#4CE5AB" d="M84.86 146.888l-39.113-22.535 18.931-10.907 39.359 22.394z" mask="url(#v)"/>
            <path fill="#26D198" d="M84.86 147.24l-39.113-22.535v-.352l39.114 22.535z" mask="url(#v)"/>
            <path fill="#1AB57D" d="M88.83 142.742c-2.476-.794-5.501-.8-7.97-.018l-27.885-16.065c1.358-1.423 1.346-3.166-.033-4.592l7.767-4.475c2.489.798 5.533.801 8.01.006l28.062 15.967c-1.33 1.417-1.309 3.146.06 4.563l-8.01 4.614zm9.326-10.248l-27.597-15.702-5.88-3.345-5.81 3.346-7.314 4.214-5.809 3.347 33.27 19.167 5.845 3.367 5.809-3.346 13.367-7.701-5.881-3.347z" mask="url(#v)"/>
            <path fill="#1AB57D" d="M59.781 121.805c1.943-1.119 5.102-1.113 7.056.013 1.955 1.126 1.965 2.946.023 4.065-1.943 1.12-5.102 1.114-7.057-.012-1.954-1.126-1.964-2.946-.022-4.066M83.44 135.327c1.943-1.119 5.103-1.113 7.057.013 1.955 1.126 1.965 2.946.022 4.065-1.942 1.12-5.101 1.114-7.056-.012-1.955-1.127-1.964-2.947-.022-4.066" mask="url(#v)"/>
            <path fill="#119965" d="M104.037 135.548L84.86 146.595v-.35l19.176-11.048z" mask="url(#v)"/>
            <path fill="#4CE5AB" d="M84.86 146.244L45.748 123.71l18.931-10.907 39.359 22.394z" mask="url(#v)"/>
            <path fill="#26D198" d="M84.86 146.595l-39.113-22.534v-.351l39.114 22.534z" mask="url(#v)"/>
            <path fill="#1AB57D" d="M88.83 142.099c-2.476-.795-5.501-.801-7.97-.019l-27.885-16.065c1.358-1.423 1.346-3.166-.033-4.592l7.767-4.475c2.489.799 5.533.801 8.01.007L96.78 132.92c-1.33 1.418-1.309 3.146.06 4.563l-8.01 4.615zm9.326-10.248l-27.597-15.702-5.88-3.346-5.81 3.346-7.314 4.214-5.809 3.347 33.27 19.167 5.845 3.367 5.809-3.346 13.367-7.701-5.881-3.346z" mask="url(#v)"/>
            <path fill="#1AB57D" d="M59.781 121.162c1.943-1.12 5.102-1.114 7.056.012 1.955 1.126 1.965 2.946.023 4.065-1.943 1.12-5.102 1.114-7.057-.012-1.954-1.126-1.964-2.946-.022-4.065M83.44 134.683c1.943-1.119 5.103-1.113 7.057.013 1.955 1.126 1.965 2.946.022 4.065-1.942 1.12-5.101 1.114-7.056-.013-1.955-1.126-1.964-2.946-.022-4.065" mask="url(#v)"/>
            <path fill="#119965" d="M104.037 134.904L84.86 145.95v-.35l19.176-11.048z" mask="url(#v)"/>
            <path fill="#4CE5AB" d="M84.86 145.6l-39.113-22.534 18.931-10.907 39.359 22.394z" mask="url(#v)"/>
            <path fill="#26D198" d="M84.86 145.951l-39.113-22.534v-.351L84.86 145.6z" mask="url(#v)"/>
            <path fill="#1AB57D" d="M88.83 141.455c-2.476-.795-5.501-.801-7.97-.019l-27.885-16.065c1.358-1.423 1.346-3.166-.033-4.592l7.767-4.475c2.489.799 5.533.801 8.01.007l28.062 15.967c-1.33 1.417-1.309 3.145.06 4.562l-8.01 4.615zm9.326-10.248l-27.597-15.702-5.88-3.346-5.81 3.346-7.314 4.214-5.809 3.347 33.27 19.167 5.845 3.367 5.809-3.346 13.367-7.701-5.881-3.346z" mask="url(#v)"/>
            <path fill="#1AB57D" d="M59.781 120.517c1.943-1.119 5.102-1.113 7.056.013 1.955 1.126 1.965 2.946.023 4.066-1.943 1.119-5.102 1.113-7.057-.013-1.954-1.126-1.964-2.946-.022-4.066M83.44 134.04c1.943-1.12 5.103-1.114 7.057.012 1.955 1.126 1.965 2.946.022 4.065-1.942 1.12-5.101 1.114-7.056-.012-1.955-1.126-1.964-2.947-.022-4.066" mask="url(#v)"/>
            <path fill="#119965" d="M104.037 134.26L84.86 145.307v-.35l19.176-11.048z" mask="url(#v)"/>
            <path fill="#4CE5AB" d="M84.86 144.957l-39.113-22.535 18.931-10.907 39.359 22.394z" mask="url(#v)"/>
            <path fill="#26D198" d="M84.86 145.307l-39.113-22.534v-.351l39.114 22.535z" mask="url(#v)"/>
            <path fill="#1AB57D" d="M88.83 140.81c-2.476-.793-5.501-.8-7.97-.018l-27.885-16.065c1.358-1.423 1.346-3.166-.033-4.592l7.767-4.474c2.489.798 5.533.8 8.01.006l28.062 15.967c-1.33 1.417-1.309 3.145.06 4.562l-8.01 4.615zm9.326-10.247L70.559 114.86l-5.88-3.346-5.81 3.346-7.314 4.214-5.809 3.347 33.27 19.167 5.845 3.368 5.809-3.347 13.367-7.701-5.881-3.346z" mask="url(#v)"/>
            <path fill="#1AB57D" d="M59.781 119.874c1.943-1.12 5.102-1.114 7.056.012 1.955 1.126 1.965 2.947.023 4.066-1.943 1.119-5.102 1.113-7.057-.013-1.954-1.126-1.964-2.946-.022-4.065M83.44 133.395c1.943-1.119 5.103-1.113 7.057.013 1.955 1.126 1.965 2.946.022 4.065-1.942 1.12-5.101 1.114-7.056-.012-1.955-1.126-1.964-2.946-.022-4.066" mask="url(#v)"/>
            <path fill="#119965" d="M104.037 133.616L84.86 144.664v-.351l19.176-11.048z" mask="url(#v)"/>
            <path fill="#4CE5AB" d="M84.86 144.313l-39.113-22.535 18.931-10.907 39.359 22.394z" mask="url(#v)"/>
            <path fill="#26D198" d="M84.86 144.664l-39.113-22.535v-.351l39.114 22.534z" mask="url(#v)"/>
            <path fill="#1AB57D" d="M88.83 140.167c-2.476-.794-5.501-.801-7.97-.019l-27.885-16.065c1.358-1.422 1.346-3.165-.033-4.592l7.767-4.474c2.489.798 5.533.8 8.01.006L96.78 130.99c-1.33 1.417-1.309 3.145.06 4.562l-8.01 4.615zm9.326-10.248l-27.597-15.702-5.88-3.346-5.81 3.346-7.314 4.214-5.809 3.347 33.27 19.167 5.845 3.368 5.809-3.347 13.367-7.701-5.881-3.346z" mask="url(#v)"/>
            <path fill="#1AB57D" d="M59.781 119.23c1.943-1.12 5.102-1.113 7.056.012 1.955 1.127 1.965 2.947.023 4.066-1.943 1.119-5.102 1.113-7.057-.013-1.954-1.126-1.964-2.946-.022-4.065M83.44 132.752c1.943-1.12 5.103-1.114 7.057.012 1.955 1.126 1.965 2.946.022 4.065-1.942 1.12-5.101 1.114-7.056-.012-1.955-1.126-1.964-2.946-.022-4.065" mask="url(#v)"/>
        </g>
        <g transform="translate(60 130)">
            <mask id="x" fill="#fff">
                <use xlink:href="#w"/>
            </mask>
            <path fill="#111D28" fill-opacity=".1" d="M.123 8.281V.114l11.759 6.66v8.167z" mask="url(#x)"/>
        </g>
        <g>
            <g transform="translate(60.08 118.948)">
                <mask id="z" fill="#fff">
                    <use xlink:href="#y"/>
                </mask>
                <path fill="#111D28" fill-opacity=".1" d="M19.298.177L.122 11.225l11.662 6.718L30.959 6.895z" mask="url(#z)"/>
            </g>
            <mask id="B" fill="#fff">
                <use xlink:href="#A"/>
            </mask>
            <path fill="#EBF0F3" d="M60.042 138.25v-8.239l11.66 6.719v8.238z" mask="url(#B)"/>
            <path fill="#FFF" d="M79.217 118.964l-19.175 11.048 11.66 6.718 19.177-11.048z" mask="url(#B)"/>
            <path fill="#26D198" d="M45.781 120.217l19.176 11.048v-.351l-19.176-11.048z" mask="url(#B)"/>
            <path fill="#4CE5AB" d="M64.957 130.914l39.114-22.535L85.14 97.472 45.78 119.866z" mask="url(#B)"/>
            <path fill="#119965" d="M64.957 131.265l39.114-22.535v-.351l-39.114 22.535z" mask="url(#B)"/>
            <path fill="#1AB57D" d="M52.977 122.153c1.369-1.417 1.39-3.145.06-4.562l28.062-15.967c2.477.795 5.521.792 8.01-.006l7.767 4.474c-1.379 1.427-1.39 3.17-.033 4.592L68.96 126.75c-2.47-.782-5.495-.775-7.971.019l-8.01-4.615zm-7.196-2.287l13.368 7.701 5.808 3.346 5.845-3.367 33.27-19.167-5.81-3.347-7.313-4.213-5.81-3.347-5.88 3.346-27.597 15.702-5.88 3.346z" mask="url(#B)"/>
            <path fill="#1AB57D" d="M90.037 105.83c-1.942-1.118-5.102-1.113-7.056.013-1.955 1.127-1.965 2.947-.022 4.066 1.942 1.119 5.101 1.113 7.056-.013 1.954-1.126 1.964-2.946.022-4.065M66.377 119.353c-1.942-1.12-5.101-1.114-7.056.012-1.955 1.126-1.965 2.946-.022 4.065 1.942 1.12 5.101 1.114 7.056-.012 1.955-1.126 1.965-2.946.022-4.065" mask="url(#B)"/>
            <path fill="#26D198" d="M45.781 119.573l19.176 11.048v-.351l-19.176-11.048z" mask="url(#B)"/>
            <path fill="#4CE5AB" d="M64.957 130.27l39.114-22.535L85.14 96.828 45.78 119.222z" mask="url(#B)"/>
            <path fill="#119965" d="M64.957 130.62l39.114-22.534v-.35L64.957 130.27z" mask="url(#B)"/>
            <path fill="#1AB57D" d="M52.977 121.509c1.369-1.417 1.39-3.145.06-4.562l28.062-15.967c2.477.795 5.521.792 8.01-.006l7.767 4.474c-1.379 1.427-1.39 3.17-.033 4.593L68.96 126.105c-2.47-.782-5.495-.775-7.971.019l-8.01-4.615zm-7.196-2.287l13.368 7.701 5.808 3.347 5.845-3.368 33.27-19.167-5.81-3.347-7.313-4.214-5.81-3.346-5.88 3.346-27.597 15.702-5.88 3.346z" mask="url(#B)"/>
            <path fill="#1AB57D" d="M90.037 105.187c-1.942-1.12-5.102-1.113-7.056.013-1.955 1.126-1.965 2.946-.022 4.065 1.942 1.119 5.101 1.113 7.056-.013 1.954-1.126 1.964-2.946.022-4.065M66.377 118.709c-1.942-1.12-5.101-1.114-7.056.012-1.955 1.126-1.965 2.946-.022 4.066 1.942 1.119 5.101 1.113 7.056-.013s1.965-2.946.022-4.065" mask="url(#B)"/>
            <path fill="#26D198" d="M45.781 118.93l19.176 11.047v-.351l-19.176-11.048z" mask="url(#B)"/>
            <path fill="#4CE5AB" d="M64.957 129.626l39.114-22.535L85.14 96.184 45.78 118.578z" mask="url(#B)"/>
            <path fill="#119965" d="M64.957 129.977l39.114-22.535v-.35l-39.114 22.534z" mask="url(#B)"/>
            <path fill="#1AB57D" d="M52.977 120.865c1.369-1.416 1.39-3.145.06-4.562l28.062-15.967c2.477.795 5.521.792 8.01-.006l7.767 4.474c-1.379 1.427-1.39 3.17-.033 4.593L68.96 125.46c-2.47-.782-5.495-.775-7.971.019l-8.01-4.615zm-7.196-2.287l13.368 7.701 5.808 3.347 5.845-3.368 33.27-19.167-5.81-3.346-7.313-4.214-5.81-3.347-5.88 3.346-27.597 15.702-5.88 3.346z" mask="url(#B)"/>
            <path fill="#1AB57D" d="M90.037 104.543c-1.942-1.119-5.102-1.113-7.056.013-1.955 1.126-1.965 2.946-.022 4.065 1.942 1.12 5.101 1.114 7.056-.013 1.954-1.126 1.964-2.946.022-4.065M66.377 118.065c-1.942-1.12-5.101-1.114-7.056.012-1.955 1.127-1.965 2.947-.022 4.066 1.942 1.119 5.101 1.113 7.056-.013s1.965-2.946.022-4.065" mask="url(#B)"/>
            <path fill="#26D198" d="M45.781 118.285l19.176 11.048v-.351l-19.176-11.048z" mask="url(#B)"/>
            <path fill="#4CE5AB" d="M64.957 128.982l39.114-22.535L85.14 95.54 45.78 117.934z" mask="url(#B)"/>
            <path fill="#119965" d="M64.957 129.333l39.114-22.535v-.35l-39.114 22.534z" mask="url(#B)"/>
            <path fill="#1AB57D" d="M52.977 120.221c1.369-1.416 1.39-3.145.06-4.562l28.062-15.967c2.477.795 5.521.792 8.01-.006l7.767 4.474c-1.379 1.427-1.39 3.17-.033 4.593L68.96 124.818c-2.47-.783-5.495-.776-7.971.018l-8.01-4.615zm-7.196-2.287l13.368 7.702 5.808 3.346 5.845-3.368 33.27-19.167-5.81-3.346-7.313-4.214-5.81-3.347-5.88 3.346-27.597 15.702-5.88 3.346z" mask="url(#B)"/>
            <path fill="#1AB57D" d="M90.037 103.9c-1.942-1.12-5.102-1.114-7.056.012-1.955 1.126-1.965 2.946-.022 4.065 1.942 1.12 5.101 1.113 7.056-.013 1.954-1.126 1.964-2.946.022-4.065M66.377 117.42c-1.942-1.118-5.101-1.112-7.056.013-1.955 1.127-1.965 2.947-.022 4.066 1.942 1.119 5.101 1.113 7.056-.013s1.965-2.946.022-4.065" mask="url(#B)"/>
            <path fill="#26D198" d="M45.781 117.641l19.176 11.048v-.351L45.781 117.29z" mask="url(#B)"/>
            <path fill="#4CE5AB" d="M64.957 128.338l39.114-22.535L85.14 94.896 45.78 117.29z" mask="url(#B)"/>
            <path fill="#119965" d="M64.957 128.69l39.114-22.536v-.35l-39.114 22.534z" mask="url(#B)"/>
            <path fill="#1AB57D" d="M52.977 119.577c1.369-1.416 1.39-3.145.06-4.562l28.062-15.967c2.477.795 5.521.792 8.01-.006l7.767 4.474c-1.379 1.427-1.39 3.17-.033 4.593L68.96 124.174c-2.47-.783-5.495-.776-7.971.018l-8.01-4.615zm-7.196-2.286l13.368 7.7 5.808 3.347 5.845-3.368 33.27-19.167-5.81-3.346-7.313-4.214-5.81-3.347-5.88 3.346-27.597 15.702-5.88 3.347z" mask="url(#B)"/>
            <path fill="#1AB57D" d="M90.037 103.255c-1.942-1.119-5.102-1.113-7.056.013-1.955 1.126-1.965 2.946-.022 4.065 1.942 1.12 5.101 1.114 7.056-.012 1.954-1.126 1.964-2.947.022-4.066M66.377 116.777c-1.942-1.12-5.101-1.113-7.056.013s-1.965 2.946-.022 4.065c1.942 1.12 5.101 1.113 7.056-.013s1.965-2.946.022-4.065" mask="url(#B)"/>
            <path fill="#26D198" d="M45.781 116.998l19.176 11.047v-.35l-19.176-11.049z" mask="url(#B)"/>
            <path fill="#4CE5AB" d="M64.957 127.694l39.114-22.534L85.14 94.252 45.78 116.646z" mask="url(#B)"/>
            <path fill="#119965" d="M64.957 128.045l39.114-22.535v-.35l-39.114 22.534z" mask="url(#B)"/>
            <path fill="#1AB57D" d="M52.977 118.934c1.369-1.417 1.39-3.146.06-4.563l28.062-15.967c2.477.795 5.521.792 8.01-.006l7.767 4.474c-1.379 1.427-1.39 3.17-.033 4.593L68.96 123.53c-2.47-.782-5.495-.776-7.971.018l-8.01-4.614zm-7.196-2.287l13.368 7.7 5.808 3.347 5.845-3.367 33.27-19.167-5.81-3.347-7.313-4.214-5.81-3.346-5.88 3.345-27.597 15.703-5.88 3.346z" mask="url(#B)"/>
            <path fill="#1AB57D" d="M90.037 102.611c-1.942-1.119-5.102-1.113-7.056.013-1.955 1.126-1.965 2.946-.022 4.065 1.942 1.12 5.101 1.114 7.056-.012 1.954-1.127 1.964-2.947.022-4.066M66.377 116.133c-1.942-1.119-5.101-1.113-7.056.013s-1.965 2.946-.022 4.065c1.942 1.12 5.101 1.114 7.056-.013 1.955-1.126 1.965-2.946.022-4.065" mask="url(#B)"/>
            <path fill="#26D198" d="M45.781 116.354L64.957 127.4v-.35l-19.176-11.048z" mask="url(#B)"/>
            <path fill="#4CE5AB" d="M64.957 127.05l39.114-22.534L85.14 93.609 45.78 116.003z" mask="url(#B)"/>
            <path fill="#119965" d="M64.957 127.401l39.114-22.534v-.351L64.957 127.05z" mask="url(#B)"/>
            <path fill="#1AB57D" d="M52.977 118.29c1.369-1.417 1.39-3.145.06-4.563l28.062-15.966c2.477.794 5.521.792 8.01-.007l7.767 4.474c-1.379 1.427-1.39 3.17-.033 4.593L68.96 122.886c-2.47-.783-5.495-.776-7.971.019l-8.01-4.615zm-7.196-2.287l13.368 7.7 5.808 3.347 5.845-3.367 33.27-19.167-5.81-3.347-7.313-4.214-5.81-3.347-5.88 3.347-27.597 15.702-5.88 3.346z" mask="url(#B)"/>
            <path fill="#1AB57D" d="M90.037 101.967c-1.942-1.119-5.102-1.113-7.056.013-1.955 1.126-1.965 2.946-.022 4.065 1.942 1.12 5.101 1.114 7.056-.012 1.954-1.126 1.964-2.946.022-4.066M66.377 115.49c-1.942-1.12-5.101-1.114-7.056.012-1.955 1.126-1.965 2.946-.022 4.065 1.942 1.12 5.101 1.114 7.056-.012 1.955-1.127 1.965-2.947.022-4.066" mask="url(#B)"/>
            <path fill="#26D198" d="M45.781 115.71l19.176 11.047v-.35l-19.176-11.048z" mask="url(#B)"/>
            <path fill="#4CE5AB" d="M64.957 126.406l39.114-22.534L85.14 92.965 45.78 115.359z" mask="url(#B)"/>
            <path fill="#119965" d="M64.957 126.757l39.114-22.534v-.351l-39.114 22.534z" mask="url(#B)"/>
            <path fill="#1AB57D" d="M52.977 117.646c1.369-1.417 1.39-3.145.06-4.562l28.062-15.967c2.477.794 5.521.792 8.01-.007l7.767 4.475c-1.379 1.426-1.39 3.17-.033 4.592L68.96 122.242c-2.47-.782-5.495-.775-7.971.019l-8.01-4.615zm-7.196-2.287l13.368 7.701 5.808 3.346 5.845-3.367 33.27-19.167-5.81-3.347-7.313-4.214-5.81-3.346-5.88 3.346-27.597 15.702-5.88 3.346z" mask="url(#B)"/>
            <path fill="#1AB57D" d="M90.037 101.324c-1.942-1.12-5.102-1.114-7.056.012-1.955 1.126-1.965 2.946-.022 4.066 1.942 1.119 5.101 1.113 7.056-.013 1.954-1.126 1.964-2.946.022-4.065M66.377 114.845c-1.942-1.119-5.101-1.113-7.056.013s-1.965 2.946-.022 4.065c1.942 1.12 5.101 1.114 7.056-.012 1.955-1.126 1.965-2.947.022-4.066" mask="url(#B)"/>
            <path fill="#26D198" d="M45.781 115.066l19.176 11.047v-.35l-19.176-11.048z" mask="url(#B)"/>
            <path fill="#4CE5AB" d="M64.957 125.762l39.114-22.534L85.14 92.32 45.78 114.715z" mask="url(#B)"/>
            <path fill="#119965" d="M64.957 126.113l39.114-22.534v-.351l-39.114 22.534z" mask="url(#B)"/>
            <path fill="#1AB57D" d="M52.977 117.002c1.369-1.417 1.39-3.145.06-4.562l28.062-15.967c2.477.795 5.521.792 8.01-.006l7.767 4.474c-1.379 1.427-1.39 3.17-.033 4.592L68.96 121.598c-2.47-.782-5.495-.775-7.971.019l-8.01-4.615zm-7.196-2.287l13.368 7.701 5.808 3.346 5.845-3.367 33.27-19.167-5.81-3.347-7.313-4.214-5.81-3.346-5.88 3.346-27.597 15.702-5.88 3.346z" mask="url(#B)"/>
            <path fill="#1AB57D" d="M90.037 100.68c-1.942-1.12-5.102-1.114-7.056.012-1.955 1.126-1.965 2.947-.022 4.066 1.942 1.119 5.101 1.113 7.056-.013 1.954-1.126 1.964-2.946.022-4.065M66.377 114.201c-1.942-1.119-5.101-1.113-7.056.013s-1.965 2.946-.022 4.065c1.942 1.12 5.101 1.114 7.056-.012 1.955-1.126 1.965-2.947.022-4.066" mask="url(#B)"/>
            <path fill="#26D198" d="M45.781 114.422l19.176 11.048v-.351L45.781 114.07z" mask="url(#B)"/>
            <path fill="#4CE5AB" d="M64.957 125.119l39.114-22.535L85.14 91.677 45.78 114.07z" mask="url(#B)"/>
            <path fill="#119965" d="M64.957 125.47l39.114-22.535v-.35l-39.114 22.534z" mask="url(#B)"/>
            <path fill="#1AB57D" d="M52.977 116.358c1.369-1.417 1.39-3.145.06-4.562l28.062-15.967c2.477.795 5.521.792 8.01-.006l7.767 4.474c-1.379 1.427-1.39 3.17-.033 4.592L68.96 120.954c-2.47-.782-5.495-.775-7.971.019l-8.01-4.615zm-7.196-2.287l13.368 7.701 5.808 3.347 5.845-3.368 33.27-19.167-5.81-3.347-7.313-4.214-5.81-3.346-5.88 3.346-27.597 15.702-5.88 3.346z" mask="url(#B)"/>
            <path fill="#1AB57D" d="M90.037 100.036c-1.942-1.12-5.102-1.114-7.056.012-1.955 1.126-1.965 2.947-.022 4.066 1.942 1.119 5.101 1.113 7.056-.013 1.954-1.126 1.964-2.946.022-4.065M66.377 113.557c-1.942-1.119-5.101-1.113-7.056.013s-1.965 2.946-.022 4.066c1.942 1.119 5.101 1.113 7.056-.013s1.965-2.946.022-4.066" mask="url(#B)"/>
            <path fill="#26D198" d="M45.781 113.778l19.176 11.048v-.351l-19.176-11.048z" mask="url(#B)"/>
            <path fill="#4CE5AB" d="M64.957 124.475l39.114-22.535L85.14 91.033 45.78 113.427z" mask="url(#B)"/>
            <path fill="#119965" d="M64.957 124.826l39.114-22.535v-.351l-39.114 22.535z" mask="url(#B)"/>
            <path fill="#1AB57D" d="M52.977 115.714c1.369-1.417 1.39-3.145.06-4.562l28.062-15.967c2.477.795 5.521.792 8.01-.006l7.767 4.474c-1.379 1.427-1.39 3.17-.033 4.593L68.96 120.31c-2.47-.782-5.495-.775-7.971.019l-8.01-4.615zm-7.196-2.287l13.368 7.701 5.808 3.347 5.845-3.368 33.27-19.167-5.81-3.346-7.313-4.214-5.81-3.347-5.88 3.346-27.597 15.702-5.88 3.346z" mask="url(#B)"/>
            <path fill="#1AB57D" d="M90.037 99.392c-1.942-1.12-5.102-1.113-7.056.013-1.955 1.126-1.965 2.946-.022 4.065 1.942 1.119 5.101 1.113 7.056-.013 1.954-1.126 1.964-2.946.022-4.065M66.377 112.914c-1.942-1.12-5.101-1.114-7.056.012-1.955 1.126-1.965 2.947-.022 4.066 1.942 1.119 5.101 1.113 7.056-.013s1.965-2.946.022-4.065" mask="url(#B)"/>
            <path fill="#26D198" d="M45.781 113.134l19.176 11.048v-.351l-19.176-11.048z" mask="url(#B)"/>
            <path fill="#4CE5AB" d="M64.957 123.83l39.114-22.534L85.14 90.39 45.78 112.783z" mask="url(#B)"/>
            <path fill="#119965" d="M64.957 124.182l39.114-22.535v-.35L64.957 123.83z" mask="url(#B)"/>
            <path fill="#1AB57D" d="M52.977 115.07c1.369-1.417 1.39-3.145.06-4.562l28.062-15.967c2.477.795 5.521.792 8.01-.006l7.767 4.474c-1.379 1.427-1.39 3.17-.033 4.593L68.96 119.667c-2.47-.783-5.495-.776-7.971.018l-8.01-4.615zm-7.196-2.287l13.368 7.701 5.808 3.347 5.845-3.368 33.27-19.167-5.81-3.347-7.313-4.213-5.81-3.347-5.88 3.346-27.597 15.702-5.88 3.346z" mask="url(#B)"/>
            <path fill="#1AB57D" d="M90.037 98.748c-1.942-1.12-5.102-1.113-7.056.013-1.955 1.126-1.965 2.946-.022 4.065 1.942 1.119 5.101 1.113 7.056-.013 1.954-1.126 1.964-2.946.022-4.065M66.377 112.27c-1.942-1.12-5.101-1.113-7.056.012-1.955 1.126-1.965 2.947-.022 4.066 1.942 1.119 5.101 1.113 7.056-.013s1.965-2.946.022-4.065" mask="url(#B)"/>
            <path fill="#26D198" d="M45.781 112.49l19.176 11.048v-.351l-19.176-11.048z" mask="url(#B)"/>
            <path fill="#4CE5AB" d="M64.957 123.187l39.114-22.535L85.14 89.745 45.78 112.14z" mask="url(#B)"/>
            <path fill="#119965" d="M64.957 123.538l39.114-22.535v-.35l-39.114 22.534z" mask="url(#B)"/>
            <path fill="#1AB57D" d="M52.977 114.426c1.369-1.416 1.39-3.145.06-4.562l28.062-15.967c2.477.795 5.521.792 8.01-.006l7.767 4.474c-1.379 1.427-1.39 3.17-.033 4.593L68.96 119.023c-2.47-.783-5.495-.776-7.971.018l-8.01-4.615zm-7.196-2.287l13.368 7.701 5.808 3.347 5.845-3.368 33.27-19.167-5.81-3.346-7.313-4.214-5.81-3.347-5.88 3.346-27.597 15.702-5.88 3.346z" mask="url(#B)"/>
            <path fill="#1AB57D" d="M90.037 98.104c-1.942-1.119-5.102-1.113-7.056.013-1.955 1.126-1.965 2.946-.022 4.065 1.942 1.12 5.101 1.114 7.056-.013 1.954-1.126 1.964-2.946.022-4.065M66.377 111.626c-1.942-1.12-5.101-1.114-7.056.013-1.955 1.126-1.965 2.946-.022 4.065 1.942 1.119 5.101 1.113 7.056-.013s1.965-2.946.022-4.065" mask="url(#B)"/>
        </g>
        <g transform="translate(77 109)">
            <mask id="D" fill="#fff">
                <use xlink:href="#C"/>
            </mask>
            <path fill="#111D28" fill-opacity=".1" d="M11.974 8.226V.059L.023 6.719v8.166z" mask="url(#D)"/>
        </g>
        <g>
            <g transform="translate(58.737 97.878)">
                <mask id="F" fill="#fff">
                    <use xlink:href="#E"/>
                </mask>
                <path fill="#111D28" fill-opacity=".1" d="M11.702.121l19.176 11.048-11.66 6.718L.04 6.839z" mask="url(#F)"/>
            </g>
            <mask id="H" fill="#fff">
                <use xlink:href="#G"/>
            </mask>
            <path fill="#C2CBD3" d="M89.776 117.125v-8.24l-11.66 6.72v8.238z" mask="url(#H)"/>
            <path fill="#FFF" d="M70.6 97.838l19.176 11.048-11.66 6.718-19.176-11.048z" mask="url(#H)"/>
            <path fill="#26D198" d="M65.681 131.684l19.176 11.048v-.351L65.68 131.333z" mask="url(#H)"/>
            <path fill="#4CE5AB" d="M84.857 142.38l39.114-22.534-18.932-10.907-39.358 22.394z" mask="url(#H)"/>
            <path fill="#119965" d="M84.857 142.732l39.114-22.535v-.35L84.857 142.38z" mask="url(#H)"/>
            <path fill="#1AB57D" d="M72.877 133.62c1.368-1.416 1.39-3.145.06-4.562l28.062-15.967c2.477.795 5.521.792 8.01-.006l7.766 4.474c-1.378 1.427-1.39 3.17-.032 4.593L88.86 138.217c-2.47-.783-5.495-.776-7.972.018l-8.01-4.615zm-7.196-2.287l13.367 7.701 5.809 3.347 5.845-3.368 33.27-19.167-5.81-3.346-7.314-4.214-5.809-3.347-5.88 3.346-27.597 15.702-5.881 3.346z" mask="url(#H)"/>
            <path fill="#1AB57D" d="M109.937 117.298c-1.943-1.12-5.102-1.113-7.057.013-1.954 1.126-1.964 2.946-.022 4.065 1.943 1.12 5.102 1.113 7.057-.013 1.954-1.126 1.964-2.946.022-4.065M86.277 130.82c-1.943-1.12-5.102-1.113-7.056.012-1.955 1.127-1.965 2.947-.023 4.066 1.943 1.119 5.102 1.113 7.057-.013 1.954-1.126 1.964-2.946.022-4.065" mask="url(#H)"/>
            <path fill="#26D198" d="M65.681 131.04l19.176 11.048v-.351L65.68 130.689z" mask="url(#H)"/>
            <path fill="#4CE5AB" d="M84.857 141.737l39.114-22.535-18.932-10.907-39.358 22.394z" mask="url(#H)"/>
            <path fill="#119965" d="M84.857 142.088l39.114-22.535v-.35l-39.114 22.534z" mask="url(#H)"/>
            <path fill="#1AB57D" d="M72.877 132.976c1.368-1.416 1.39-3.145.06-4.562l28.062-15.967c2.477.795 5.521.792 8.01-.006l7.766 4.474c-1.378 1.427-1.39 3.17-.032 4.593L88.86 137.573c-2.47-.783-5.495-.776-7.972.018l-8.01-4.615zm-7.196-2.286l13.367 7.7 5.809 3.347 5.845-3.368 33.27-19.167-5.81-3.346-7.314-4.214-5.809-3.347-5.88 3.346-27.597 15.702-5.881 3.347z" mask="url(#H)"/>
            <path fill="#1AB57D" d="M109.937 116.654c-1.943-1.119-5.102-1.113-7.057.013-1.954 1.126-1.964 2.946-.022 4.065 1.943 1.12 5.102 1.114 7.057-.012 1.954-1.127 1.964-2.947.022-4.066M86.277 130.176c-1.943-1.12-5.102-1.113-7.056.013-1.955 1.126-1.965 2.946-.023 4.065 1.943 1.12 5.102 1.113 7.057-.013 1.954-1.126 1.964-2.946.022-4.065" mask="url(#H)"/>
            <path fill="#26D198" d="M65.681 130.396l19.176 11.048v-.35L65.68 130.044z" mask="url(#H)"/>
            <path fill="#4CE5AB" d="M84.857 141.093l39.114-22.534-18.932-10.908-39.358 22.394z" mask="url(#H)"/>
            <path fill="#119965" d="M84.857 141.444l39.114-22.535v-.35l-39.114 22.534z" mask="url(#H)"/>
            <path fill="#1AB57D" d="M72.877 132.333c1.368-1.417 1.39-3.146.06-4.563l28.062-15.967c2.477.795 5.521.792 8.01-.006l7.766 4.474c-1.378 1.427-1.39 3.17-.032 4.593L88.86 136.929c-2.47-.783-5.495-.776-7.972.018l-8.01-4.614zm-7.196-2.287l13.367 7.7 5.809 3.347 5.845-3.367 33.27-19.167-5.81-3.347-7.314-4.214-5.809-3.346-5.88 3.345L71.562 126.7l-5.881 3.346z" mask="url(#H)"/>
            <path fill="#1AB57D" d="M109.937 116.01c-1.943-1.119-5.102-1.113-7.057.013-1.954 1.126-1.964 2.946-.022 4.065 1.943 1.12 5.102 1.114 7.057-.012 1.954-1.127 1.964-2.947.022-4.066M86.277 129.532c-1.943-1.119-5.102-1.113-7.056.013-1.955 1.126-1.965 2.946-.023 4.065 1.943 1.12 5.102 1.114 7.057-.013 1.954-1.126 1.964-2.946.022-4.065" mask="url(#H)"/>
            <path fill="#26D198" d="M65.681 129.752L84.857 140.8v-.35L65.68 129.401z" mask="url(#H)"/>
            <path fill="#4CE5AB" d="M84.857 140.45l39.114-22.535-18.932-10.907-39.358 22.394z" mask="url(#H)"/>
            <path fill="#119965" d="M84.857 140.8l39.114-22.534v-.351l-39.114 22.534z" mask="url(#H)"/>
            <path fill="#1AB57D" d="M72.877 131.688c1.368-1.416 1.39-3.144.06-4.562l28.062-15.966c2.477.794 5.521.792 8.01-.007l7.766 4.474c-1.378 1.427-1.39 3.17-.032 4.593L88.86 136.285c-2.47-.783-5.495-.776-7.972.019l-8.01-4.616zm-7.196-2.286l13.367 7.7 5.809 3.347 5.845-3.367 33.27-19.167-5.81-3.347-7.314-4.214-5.809-3.347-5.88 3.347-27.597 15.702-5.881 3.346z" mask="url(#H)"/>
            <path fill="#1AB57D" d="M109.937 115.366c-1.943-1.119-5.102-1.113-7.057.013-1.954 1.126-1.964 2.946-.022 4.065 1.943 1.12 5.102 1.114 7.057-.012 1.954-1.126 1.964-2.946.022-4.066M86.277 128.888c-1.943-1.119-5.102-1.113-7.056.013-1.955 1.126-1.965 2.946-.023 4.065 1.943 1.12 5.102 1.114 7.057-.012 1.954-1.127 1.964-2.947.022-4.066" mask="url(#H)"/>
            <path fill="#26D198" d="M65.681 129.109l19.176 11.047v-.35L65.68 128.757z" mask="url(#H)"/>
            <path fill="#4CE5AB" d="M84.857 139.805l39.114-22.534-18.932-10.907-39.358 22.394z" mask="url(#H)"/>
            <path fill="#119965" d="M84.857 140.156l39.114-22.534v-.351l-39.114 22.534z" mask="url(#H)"/>
            <path fill="#1AB57D" d="M72.877 131.045c1.368-1.417 1.39-3.145.06-4.563l28.062-15.966c2.477.794 5.521.792 8.01-.007l7.766 4.475c-1.378 1.426-1.39 3.17-.032 4.592L88.86 135.641c-2.47-.782-5.495-.775-7.972.019l-8.01-4.615zm-7.196-2.287l13.367 7.701 5.809 3.346 5.845-3.367 33.27-19.167-5.81-3.347-7.314-4.214-5.809-3.346-5.88 3.346-27.597 15.702-5.881 3.346z" mask="url(#H)"/>
            <path fill="#1AB57D" d="M109.937 114.723c-1.943-1.12-5.102-1.114-7.057.012-1.954 1.126-1.964 2.946-.022 4.066 1.943 1.119 5.102 1.113 7.057-.013 1.954-1.126 1.964-2.946.022-4.065M86.277 128.244c-1.943-1.119-5.102-1.113-7.056.013-1.955 1.126-1.965 2.946-.023 4.065 1.943 1.12 5.102 1.114 7.057-.012 1.954-1.127 1.964-2.947.022-4.066" mask="url(#H)"/>
            <path fill="#26D198" d="M65.681 128.465l19.176 11.047v-.35L65.68 128.113z" mask="url(#H)"/>
            <path fill="#4CE5AB" d="M84.857 139.161l39.114-22.534-18.932-10.907-39.358 22.394z" mask="url(#H)"/>
            <path fill="#119965" d="M84.857 139.512l39.114-22.534v-.351L84.857 139.16z" mask="url(#H)"/>
            <path fill="#1AB57D" d="M72.877 130.4c1.368-1.416 1.39-3.144.06-4.561l28.062-15.967c2.477.795 5.521.792 8.01-.006l7.766 4.474c-1.378 1.427-1.39 3.17-.032 4.592L88.86 134.997c-2.47-.782-5.495-.776-7.972.019l-8.01-4.615zm-7.196-2.286l13.367 7.7 5.809 3.347 5.845-3.367 33.27-19.167-5.81-3.347-7.314-4.214-5.809-3.346-5.88 3.346-27.597 15.702-5.881 3.346z" mask="url(#H)"/>
            <path fill="#1AB57D" d="M109.937 114.079c-1.943-1.12-5.102-1.114-7.057.012-1.954 1.126-1.964 2.947-.022 4.066 1.943 1.119 5.102 1.113 7.057-.013 1.954-1.126 1.964-2.946.022-4.065M86.277 127.6c-1.943-1.119-5.102-1.113-7.056.013-1.955 1.126-1.965 2.946-.023 4.065 1.943 1.12 5.102 1.114 7.057-.012 1.954-1.126 1.964-2.947.022-4.066" mask="url(#H)"/>
            <path fill="#26D198" d="M65.681 127.821l19.176 11.048v-.351L65.68 127.47z" mask="url(#H)"/>
            <path fill="#4CE5AB" d="M84.857 138.518l39.114-22.535-18.932-10.907-39.358 22.394z" mask="url(#H)"/>
            <path fill="#119965" d="M84.857 138.869l39.114-22.535v-.351l-39.114 22.535z" mask="url(#H)"/>
            <path fill="#1AB57D" d="M72.877 129.757c1.368-1.417 1.39-3.145.06-4.562l28.062-15.967c2.477.795 5.521.792 8.01-.006l7.766 4.474c-1.378 1.427-1.39 3.17-.032 4.592L88.86 134.353c-2.47-.782-5.495-.775-7.972.019l-8.01-4.615zm-7.196-2.287l13.367 7.701 5.809 3.347 5.845-3.368 33.27-19.167-5.81-3.347-7.314-4.214-5.809-3.346-5.88 3.346-27.597 15.702-5.881 3.346z" mask="url(#H)"/>
            <path fill="#1AB57D" d="M109.937 113.435c-1.943-1.12-5.102-1.114-7.057.012-1.954 1.126-1.964 2.947-.022 4.066 1.943 1.119 5.102 1.113 7.057-.013 1.954-1.126 1.964-2.946.022-4.065M86.277 126.956c-1.943-1.119-5.102-1.113-7.056.013-1.955 1.126-1.965 2.946-.023 4.066 1.943 1.119 5.102 1.113 7.057-.013 1.954-1.126 1.964-2.946.022-4.066" mask="url(#H)"/>
            <path fill="#26D198" d="M65.681 127.177l19.176 11.048v-.351L65.68 126.826z" mask="url(#H)"/>
            <path fill="#4CE5AB" d="M84.857 137.874l39.114-22.535-18.932-10.907-39.358 22.394z" mask="url(#H)"/>
            <path fill="#119965" d="M84.857 138.225l39.114-22.535v-.351l-39.114 22.535z" mask="url(#H)"/>
            <path fill="#1AB57D" d="M72.877 129.113c1.368-1.417 1.39-3.145.06-4.562l28.062-15.967c2.477.795 5.521.792 8.01-.006l7.766 4.474c-1.378 1.427-1.39 3.17-.032 4.593L88.86 133.709c-2.47-.782-5.495-.775-7.972.019l-8.01-4.615zm-7.196-2.287l13.367 7.701 5.809 3.347 5.845-3.368 33.27-19.167-5.81-3.347-7.314-4.213-5.809-3.347-5.88 3.346-27.597 15.702-5.881 3.346z" mask="url(#H)"/>
            <path fill="#1AB57D" d="M109.937 112.79c-1.943-1.118-5.102-1.112-7.057.014-1.954 1.126-1.964 2.946-.022 4.065 1.943 1.119 5.102 1.113 7.057-.013 1.954-1.126 1.964-2.946.022-4.065M86.277 126.313c-1.943-1.12-5.102-1.114-7.056.012-1.955 1.126-1.965 2.947-.023 4.066 1.943 1.119 5.102 1.113 7.057-.013 1.954-1.126 1.964-2.946.022-4.065" mask="url(#H)"/>
            <path fill="#26D198" d="M65.681 126.533l19.176 11.048v-.351L65.68 126.182z" mask="url(#H)"/>
            <path fill="#4CE5AB" d="M84.857 137.23l39.114-22.535-18.932-10.907-39.358 22.394z" mask="url(#H)"/>
            <path fill="#119965" d="M84.857 137.58l39.114-22.534v-.35L84.857 137.23z" mask="url(#H)"/>
            <path fill="#1AB57D" d="M72.877 128.47c1.368-1.418 1.39-3.146.06-4.563l28.062-15.967c2.477.795 5.521.792 8.01-.006l7.766 4.474c-1.378 1.427-1.39 3.17-.032 4.593L88.86 133.066c-2.47-.783-5.495-.776-7.972.018l-8.01-4.615zm-7.196-2.288l13.367 7.701 5.809 3.347 5.845-3.368 33.27-19.167-5.81-3.347-7.314-4.213-5.809-3.347-5.88 3.346-27.597 15.702-5.881 3.346z" mask="url(#H)"/>
            <path fill="#1AB57D" d="M109.937 112.147c-1.943-1.12-5.102-1.113-7.057.013-1.954 1.126-1.964 2.946-.022 4.065 1.943 1.119 5.102 1.113 7.057-.013 1.954-1.126 1.964-2.946.022-4.065M86.277 125.669c-1.943-1.12-5.102-1.114-7.056.012-1.955 1.126-1.965 2.946-.023 4.066 1.943 1.119 5.102 1.113 7.057-.013 1.954-1.126 1.964-2.946.022-4.065" mask="url(#H)"/>
            <path fill="#26D198" d="M65.681 125.89l19.176 11.047v-.351L65.68 125.538z" mask="url(#H)"/>
            <path fill="#4CE5AB" d="M84.857 136.586l39.114-22.535-18.932-10.907-39.358 22.394z" mask="url(#H)"/>
            <path fill="#119965" d="M84.857 136.937l39.114-22.535v-.35l-39.114 22.534z" mask="url(#H)"/>
            <path fill="#1AB57D" d="M72.877 127.825c1.368-1.416 1.39-3.145.06-4.562l28.062-15.967c2.477.795 5.521.792 8.01-.006l7.766 4.474c-1.378 1.427-1.39 3.17-.032 4.593L88.86 132.422c-2.47-.783-5.495-.776-7.972.018l-8.01-4.615zm-7.196-2.287l13.367 7.701 5.809 3.347 5.845-3.368 33.27-19.167-5.81-3.346-7.314-4.214-5.809-3.347-5.88 3.346-27.597 15.702-5.881 3.346z" mask="url(#H)"/>
            <path fill="#1AB57D" d="M109.937 111.503c-1.943-1.12-5.102-1.113-7.057.013-1.954 1.126-1.964 2.946-.022 4.065 1.943 1.12 5.102 1.114 7.057-.013 1.954-1.126 1.964-2.946.022-4.065M86.277 125.025c-1.943-1.12-5.102-1.114-7.056.013-1.955 1.126-1.965 2.946-.023 4.065 1.943 1.119 5.102 1.113 7.057-.013 1.954-1.126 1.964-2.946.022-4.065" mask="url(#H)"/>
            <path fill="#26D198" d="M65.681 125.245l19.176 11.048v-.351L65.68 124.894z" mask="url(#H)"/>
            <path fill="#4CE5AB" d="M84.857 135.942l39.114-22.535L105.04 102.5l-39.358 22.394z" mask="url(#H)"/>
            <path fill="#119965" d="M84.857 136.293l39.114-22.535v-.35l-39.114 22.534z" mask="url(#H)"/>
            <path fill="#1AB57D" d="M72.877 127.181c1.368-1.416 1.39-3.145.06-4.562l28.062-15.967c2.477.795 5.521.792 8.01-.006l7.766 4.474c-1.378 1.427-1.39 3.17-.032 4.593L88.86 131.778c-2.47-.783-5.495-.776-7.972.018l-8.01-4.615zm-7.196-2.287l13.367 7.702 5.809 3.346 5.845-3.367 33.27-19.168-5.81-3.346-7.314-4.214-5.809-3.347-5.88 3.346-27.597 15.702-5.881 3.346z" mask="url(#H)"/>
            <path fill="#1AB57D" d="M109.937 110.86c-1.943-1.12-5.102-1.114-7.057.012-1.954 1.126-1.964 2.946-.022 4.065 1.943 1.12 5.102 1.114 7.057-.013 1.954-1.126 1.964-2.946.022-4.065M86.277 124.38c-1.943-1.118-5.102-1.112-7.056.014-1.955 1.126-1.965 2.946-.023 4.065 1.943 1.119 5.102 1.113 7.057-.013 1.954-1.126 1.964-2.946.022-4.065" mask="url(#H)"/>
            <path fill="#26D198" d="M65.681 124.601l19.176 11.048v-.35L65.68 124.25z" mask="url(#H)"/>
            <path fill="#4CE5AB" d="M84.857 135.298l39.114-22.535-18.932-10.907-39.358 22.394z" mask="url(#H)"/>
            <path fill="#119965" d="M84.857 135.65l39.114-22.536v-.35l-39.114 22.534z" mask="url(#H)"/>
            <path fill="#1AB57D" d="M72.877 126.537c1.368-1.416 1.39-3.145.06-4.562l28.062-15.967c2.477.795 5.521.793 8.01-.006l7.766 4.474c-1.378 1.427-1.39 3.17-.032 4.593L88.86 131.134c-2.47-.783-5.495-.776-7.972.018l-8.01-4.615zm-7.196-2.286l13.367 7.7 5.809 3.347 5.845-3.368 33.27-19.167-5.81-3.346-7.314-4.214-5.809-3.347-5.88 3.346-27.597 15.703-5.881 3.346z" mask="url(#H)"/>
            <path fill="#1AB57D" d="M109.937 110.215c-1.943-1.119-5.102-1.113-7.057.013-1.954 1.126-1.964 2.946-.022 4.065 1.943 1.12 5.102 1.114 7.057-.012 1.954-1.126 1.964-2.947.022-4.066M86.277 123.737c-1.943-1.12-5.102-1.113-7.056.013-1.955 1.126-1.965 2.946-.023 4.065 1.943 1.12 5.102 1.113 7.057-.013 1.954-1.126 1.964-2.946.022-4.065" mask="url(#H)"/>
            <path fill="#26D198" d="M65.681 123.958l19.176 11.047v-.35L65.68 123.605z" mask="url(#H)"/>
            <path fill="#4CE5AB" d="M84.857 134.654l39.114-22.534-18.932-10.908-39.358 22.394z" mask="url(#H)"/>
            <path fill="#119965" d="M84.857 135.005l39.114-22.534v-.351l-39.114 22.534z" mask="url(#H)"/>
            <path fill="#1AB57D" d="M72.877 125.894c1.368-1.417 1.39-3.146.06-4.563l28.062-15.967c2.477.795 5.521.792 8.01-.006l7.766 4.474c-1.378 1.427-1.39 3.17-.032 4.593L88.86 130.49c-2.47-.782-5.495-.776-7.972.018l-8.01-4.614zm-7.196-2.287l13.367 7.7 5.809 3.347 5.845-3.367 33.27-19.167-5.81-3.347-7.314-4.214-5.809-3.347-5.88 3.346-27.597 15.703-5.881 3.346z" mask="url(#H)"/>
            <path fill="#1AB57D" d="M109.937 109.571c-1.943-1.119-5.102-1.113-7.057.013-1.954 1.126-1.964 2.946-.022 4.065 1.943 1.12 5.102 1.114 7.057-.012 1.954-1.126 1.964-2.946.022-4.066M86.277 123.093c-1.943-1.119-5.102-1.113-7.056.013-1.955 1.126-1.965 2.946-.023 4.065 1.943 1.12 5.102 1.114 7.057-.013 1.954-1.126 1.964-2.946.022-4.065" mask="url(#H)"/>
        </g>
        <g transform="translate(98 120)">
            <mask id="J" fill="#fff">
                <use xlink:href="#I"/>
            </mask>
            <path fill="#111D28" fill-opacity=".1" d="M11.91 8.2V.035L.152 6.694v8.166z" mask="url(#J)"/>
        </g>
        <g>
            <g transform="translate(78.508 109.37)">
                <mask id="L" fill="#fff">
                    <use xlink:href="#K"/>
                </mask>
                <path fill="#111D28" fill-opacity=".1" d="M11.831.096l19.176 11.048-11.661 6.718L.17 6.814z" mask="url(#L)"/>
            </g>
            <mask id="N" fill="#fff">
                <use xlink:href="#M"/>
            </mask>
            <path fill="#C2CBD3" d="M109.676 128.592v-8.239l-11.66 6.718v8.239z" mask="url(#N)"/>
            <path fill="#FFF" d="M90.5 109.306l19.176 11.047-11.661 6.718-19.176-11.047zM45.365 7.658l-1.243.717L30.992.81l1.243-.716zM48.995 36.725l-1.243.716-3.63-2.091 1.243-.716zM32.235 27.069l-1.244.716-3.63-2.091 1.244-.716z" mask="url(#N)"/>
            <path fill="#C2CBD3" d="M45.365 7.658l-1.243.717V35.35l1.243-.716z" mask="url(#N)"/>
            <path fill="#EBF0F3" d="M37.557 43.241L27.362 25.694l3.63 2.09V.81l13.13 7.565V35.35l3.63 2.09z" mask="url(#N)"/>
        </g>
    </g>
</svg>
