<svg xmlns="http://www.w3.org/2000/svg" width="117" height="31" viewBox="0 0 117 31">
    <path fill="#FFF" fill-rule="evenodd" d="M58.979 9.42c.03-.087-.125-.317-.244-.371-1.416-.652-2.83-.551-4.206.113-1.594.768-2.63 2.084-3.422 3.62-.09.175-.193.341-.29.512l-.06-.032V8.756c-.064-.018-.078-.027-.09-.025-2.748.552-5.496 1.107-8.245 1.652-.317.063-.429.21-.416.536.014.333.193.37.456.397 1.517.154 2.031.604 2.233 2.114.141 1.054.229 2.123.23 3.186.007 2.844-.038 5.688-.081 8.531a14.014 14.014 0 0 1-.153 1.693c-.159 1.156-.81 1.796-1.933 1.944a5.659 5.659 0 0 0-.49.082c-.076.017-.206.06-.209.098-.019.273-.046.555.01.818.015.07.311.11.478.11 3.733.007 7.467.006 11.2.006.584 0 .601-.01.534-.711-.01-.113-.159-.282-.267-.302-.338-.065-.687-.077-1.032-.098-1.11-.066-1.703-.527-1.975-1.562a4.335 4.335 0 0 1-.126-.775c-.067-.91-.162-1.822-.17-2.734-.023-2.773.008-5.547-.024-8.32-.008-.661.357-.94.852-1.174 1.1-.522 2.258-.554 3.408-.268.689.171 1.34.494 2.061.77.657-1.754 1.326-3.525 1.97-5.305m41.95 14.493c.023 1.512.06 3.023.081 4.535.013.856-.006.9.825 1.094 1.276.298 2.56.577 3.853.777 1.678.26 3.37.258 5.037-.11 1.66-.367 3.14-1.079 4.272-2.399 1.26-1.468 1.652-3.2 1.501-5.076-.154-1.917-1.205-3.267-2.828-4.195-.66-.377-1.37-.664-2.05-1.005-1.236-.62-2.507-1.18-3.687-1.893-1.115-.674-1.557-1.742-1.33-3.07.197-1.156.996-2.105 2.13-2.341 1.356-.283 2.555.098 3.568 1.024.957.873 1.492 2.017 1.952 3.2.119.304.233.61.346.907.843-.173.85-.173.837-.951-.022-1.373-.075-2.746-.07-4.119.002-.416-.151-.584-.516-.708-2.523-.865-5.106-1.138-7.733-.686-1.756.303-3.274 1.123-4.428 2.515-1.07 1.29-1.468 2.792-1.358 4.456.092 1.404.585 2.612 1.614 3.58.937.88 2.08 1.41 3.267 1.857 1.22.46 2.447.897 3.522 1.662 1.878 1.334 1.429 3.648.362 4.687-1.034 1.007-2.277 1.115-3.595.835-1.578-.335-2.637-1.373-3.408-2.712-.509-.884-.91-1.828-1.379-2.782-.79.139-.798.14-.786.918M88.45 17.125c0-.027 1.717-.078 2.574-.084.666-.003 1.33-.026 1.996-.025.31 0 .45-.093.421-.437-.075-.908-.08-1.824-.19-2.728-.126-1.044-.36-2.07-.963-2.966-.654-.973-1.744-1.166-2.709-.49-.6.42-.979 1.012-1.29 1.65-.735 1.501-1.004 3.118-1.152 4.763-.022.238.09.324.316.319.332-.007.665-.002.997-.002m4.9 1.438h-5.662c-.57.001-.583.003-.566.587.053 1.847.339 3.638 1.32 5.251 1.142 1.876 2.824 2.851 5 3.063 1.84.18 3.52-.178 5.031-1.269.09-.065.343-.062.396.006.15.188.46.342.186.692a8.805 8.805 0 0 1-2.575 2.205c-2.01 1.157-4.174 1.543-6.478 1.304-4.66-.483-8.061-3.957-8.74-8.606-.448-3.06-.032-5.972 1.618-8.625 1.598-2.57 3.941-4.02 6.95-4.382 1.733-.209 3.436-.127 5.042.629 2.168 1.02 3.385 2.821 4.073 5.047.376 1.214.475 2.466.576 3.721.028.341-.146.382-.426.381-1.915-.008-3.83-.004-5.745-.004m-65.63.737c-.037.004.134 3.1.352 4.63.205 1.444.616 2.846 1.512 4.039.618.823 1.416 1.293 2.505 1.164 1.165-.137 1.858-.86 2.352-1.825.78-1.525.99-3.197 1.076-4.868.084-1.602.05-3.213.013-4.82a14.642 14.642 0 0 0-.759-4.314c-.34-1.02-.794-1.984-1.65-2.695-.973-.808-2.3-.826-3.29-.037-.786.626-1.16 1.508-1.428 2.433-.595 2.056-.698 4.169-.684 6.293m-6.188.861c-.004-2.856.49-5.03 1.736-6.997 1.493-2.357 3.64-3.768 6.365-4.273 1.83-.339 3.667-.295 5.47.23 2.689.783 4.62 2.472 5.653 5.056 1.517 3.797 1.533 7.609-.396 11.283-1.449 2.759-3.818 4.328-6.878 4.847-1.985.337-3.95.238-5.854-.45-2.669-.966-4.382-2.882-5.336-5.516-.553-1.528-.772-3.11-.76-4.18M3.515.96c-.75 0-1.499-.01-2.248.011-.124.004-.325.126-.353.23-.174.65-.008.88.636.963.11.014.217.052.327.058 1.644.09 2.47.999 2.742 2.46a24.15 24.15 0 0 1 .41 3.58c.084 2.467.11 4.938.095 7.407-.017 2.76-.089 5.52-.174 8.278-.032 1.05-.167 2.098-.577 3.083-.34.817-.902 1.383-1.815 1.535-.45.074-.893.182-1.341.263-.507.09-.294.481-.317.762-.025.304.2.31.423.307.458-.004.916-.001 1.374-.001l12.741-.001c.2 0 .48.055.44-.27-.035-.277.235-.706-.33-.78-.438-.057-.868-.166-1.306-.221-1.029-.13-1.733-.656-2.11-1.632-.437-1.128-.542-2.305-.578-3.5-.068-2.272-.15-4.544-.235-6.815-.013-.338.098-.477.452-.453 1.009.067 2.019.122 3.03.163.816.032 1.463.377 1.969 1.002.553.683.832 1.49 1.028 2.333.157.678.162.658.848.675.343.01.418-.118.417-.436-.01-2.97-.01-5.94 0-8.91.002-.329-.091-.468-.424-.424-.11.015-.223.012-.333 0-.292-.032-.373.095-.455.382-.208.727-.432 1.463-.77 2.134-.434.862-1.178 1.401-2.17 1.478-1.036.08-2.076.1-3.113.17-.368.024-.494-.1-.482-.467.038-1.177.05-2.356.077-3.535.057-2.453.121-4.907.168-7.361.008-.377.15-.508.524-.504 1.373.016 2.748.01 4.122.009 1.725-.001 3.245.507 4.443 1.799 1.02 1.098 1.637 2.426 2.15 3.811.328.887.329.886 1.23.603.026-.009.066-.004.078-.021.096-.13.256-.257.266-.395.024-.343-.028-.69-.035-1.037-.04-2.08-.086-4.16-.1-6.241-.004-.413-.142-.502-.529-.5-3.72.013-7.44.008-11.16.008H3.516m62.963 17.035c.022 0 .061 5.603.07 8.404.003.707.038 1.414.09 2.119.01.146.135.389.241.41 1.257.238 2.456.18 3.463-.761.962-.9 1.526-2.036 1.922-3.258.772-2.389.988-4.84.766-7.337-.117-1.32-.394-2.594-.943-3.803-1.058-2.332-2.928-3.166-5.246-2.328-.127.046-.279.228-.29.357a24.24 24.24 0 0 0-.07 1.827c-.01 1.456-.003 2.913-.003 4.37M66.58.446v9.713c.145-.066.265-.117.383-.173 2.307-1.104 4.683-1.464 7.107-.466 2.379.98 3.837 2.872 4.577 5.257 1.16 3.738.882 7.405-1.082 10.834-1.48 2.584-3.836 4.005-6.714 4.6a14.135 14.135 0 0 1-4.59.18c-1.699-.207-3.389-.489-5.08-.752-.586-.09-.577-.11-.571-.719.055-5.703.118-11.406.155-17.11.012-1.733-.025-3.469-.095-5.201-.028-.712-.158-1.428-.323-2.123-.238-.999-.953-1.488-1.948-1.585-.355-.035-.616-.104-.565-.56.026-.24.115-.336.343-.378 2.663-.493 5.323-.994 7.985-1.49.134-.024.273-.018.418-.027" opacity=".6"/>
</svg>
