<svg xmlns="http://www.w3.org/2000/svg" width="107" height="35" viewBox="0 0 107 35">
    <path fill="#FFF" fill-rule="evenodd" d="M89.105 5.018c.016-.574-.772-1.396-1.334-1.39-.623.007-1.282.684-1.285 1.32-.003.695.63 1.318 1.33 1.309.573-.008 1.274-.68 1.29-1.239zM60.371 17.723c-.563.002-1.282.763-1.28 1.354.004.638.731 1.331 1.377 1.311.695-.021 1.196-.597 1.184-1.362-.01-.665-.639-1.305-1.28-1.303zM86.7 11.855c0 1.116.018 2.232-.008 3.347-.012.55.195.844.748.868.21.008.422.005.632-.002.483-.015.742-.26.741-.752-.006-2.275-.003-4.55-.03-6.826-.008-.715-.25-.855-1.171-.82-.748.03-.9.183-.898.899.002 1.095 0 2.19 0 3.285H86.7zM59.47 25.96c0 .968.008 1.936-.003 2.903-.013 1.228-.02 1.228 1.22 1.28.66.029.813-.119.811-.794-.003-2.062-.011-4.123-.012-6.185 0-1.343.003-1.329-1.338-1.326-.515.002-.72.2-.71.714.018 1.136.005 2.272.005 3.408h.026zm15.998-1.47c0 1.476.017 2.951-.006 4.426-.017 1.116.145 1.28 1.268 1.167.446-.046.608-.27.606-.71-.015-3.181-.016-6.362-.022-9.543 0-.495-.114-.875-.73-.87-.972.008-1.07.063-1.072.79-.005 1.58-.002 3.16-.002 4.74h-.042zm-12.988-.617v1.895c.001.653.016 1.306.004 1.958-.033 1.87 1.325 2.502 2.812 2.478.67-.01.957-.304.96-.907.005-.66-.198-.88-.879-.956-.658-.073-.892-.31-.898-.975-.009-1.01.01-2.02.005-3.031-.002-.513.222-.72.743-.671.756.07.963-.145.976-.926.013-.797-.144-.96-.956-.914-.537.03-.797-.182-.769-.728.011-.21.014-.42.015-.631.009-1.348.007-1.33-1.302-1.391-.534-.025-.725.194-.722.695.008 1.368.003 2.736.003 4.104h.008zm21.455-12.042c0-.421.012-.842-.002-1.262-.03-.88.088-1.004.996-.998.614.004.82-.22.834-.907.013-.654-.222-.947-.79-.983-1.128-.073-1.128-.073-1.113-1.222 0-.084-.002-.168 0-.252.02-1.272.02-1.26-1.252-1.258-.5 0-.67.24-.665.7.01 1.2 0 2.398.013 3.596.019 1.724.05 3.448.078 5.171.022 1.316 2.345 2.165 3.294 1.609.608-.356.421-.916.37-1.412-.049-.485-.463-.376-.795-.36-.698.035-.968-.212-.98-.908-.01-.505-.003-1.01-.003-1.514h.015zm-47.754.967c0-.822.018-1.644-.006-2.464-.018-.582.247-.812.8-.771.148.01.295.016.442.034.488.059.748-.15.823-.641.13-.844-.208-1.205-1.057-1.203-.297 0-.732-.097-.869-.305-.475-.723.272-1.93 1.144-1.9.376.012.697-.01.744-.462.05-.475.169-1.01-.389-1.28-.778-.378-2.16.052-2.686.754-.542.725-.695 1.567-.81 2.426-.07.518-.228.865-.87.815-.615-.047-.695.449-.697.91-.002.487.15.912.755.851.54-.054.73.19.73.684-.003 1.453.016 2.906-.003 4.359-.017 1.265-.033 1.244 1.216 1.355.563.05.77-.149.756-.7-.022-.82-.006-1.641-.006-2.462h-.017zm4.47 11.01c-1.188-2.303-3.105-2.61-5.143-1.832-2.076.792-2.679 2.24-2.57 4.39.026.498.04 1.051.258 1.478.695 1.366 1.802 2.285 3.352 2.518 1.8.27 3.409-.674 4.19-2.276.238-.491.034-.735-.519-.773-.695-.047-1.241.197-1.77.655-.989.86-2.026.843-2.863-.047-.871-.927-.902-2.013-.453-3.165.418-1.075 1.603-1.582 2.616-1.058.333.172.617.434.941.624.38.223.78.413 1.17.617.921-.126 1.151-.432.79-1.13zm20.989-10.46c0 .632-.009 1.263.005 1.894.004.178.046.496.12.51.482.099.984.198 1.463.145.149-.016.341-.504.348-.78a89.82 89.82 0 0 0 0-4.22c-.013-.561-.04-1.157-.233-1.671-.62-1.642-2.955-2.114-4.321-1.123-.17.122-.46.163-.672.125-.44-.078-.857-.287-1.297-.348-.62-.087-.794.12-.787.734.023 1.979.045 3.957.05 5.936.004 1.42-.008 1.41 1.415 1.4.454-.004.653-.18.643-.641a170.752 170.752 0 0 1-.046-3.852c0-.353.042-.72.142-1.057.189-.64.84-1.047 1.57-1.045.646.002 1.264.397 1.39 1.06.183.962.248 1.946.364 2.921l-.154.013zm42.73-.25c0 .737.007 1.474-.003 2.21-.006.492.21.753.711.758.232.002.464.005.695.013.514.02.725-.251.72-.738-.012-1.242.025-2.486-.049-3.725-.051-.862.018-1.734-.44-2.57-.815-1.487-2.515-1.782-3.983-1.123-.475.213-.818.664-1.387.037-.2-.22-.894-.1-1.307.034-.17.056-.268.56-.272.861-.028 2.083-.002 4.167-.039 6.25-.01.57.168.838.738.83.189-.003.378.012.568.01.644-.003.768-.157.754-.785-.03-1.326-.056-2.652-.045-3.977.007-.956.947-1.924 1.779-1.895.913.033 1.587.841 1.593 1.915.003.632 0 1.264 0 1.895h-.033zM47.75 10.914c0 .715.02 1.431-.003 2.146-.081 2.567 2.987 4.121 4.705 2.791.343-.266.62-.294 1.045.018.3.22.873.158 1.298.078.175-.034.399-.444.398-.682a329.71 329.71 0 0 0-.118-6.866c-.006-.206-.134-.565-.25-.584-.464-.077-.966-.127-1.412-.016-.15.037-.242.578-.246.89-.017 1.284.021 2.567.018 3.85-.003 1.062-.8 1.999-1.718 1.971-.797-.024-1.687-.468-1.626-1.895.05-1.197.005-2.398.011-3.598.007-1.299-.009-1.3-1.279-1.285-.6.008-.839.278-.834.846.006.779.001 1.557.001 2.336h.01zm-7.414.93c-.033 1.463.983 2.635 2.304 2.656 1.222.02 2.276-1.11 2.34-2.51.063-1.36-1.03-2.645-2.26-2.656-1.328-.012-2.351 1.065-2.384 2.51zm2.4-4.255c2.241-.144 4.443 2.05 4.184 4.843a4.264 4.264 0 0 1-4.62 3.84c-2.195-.181-4.055-1.89-3.933-4.75.088-2.064 2.025-4.155 4.37-3.933zm53.49 4.32c-.175-1.525-.81-2.485-2.218-2.616-1.26-.116-2.31 1.092-2.348 2.566-.038 1.465.925 2.628 2.203 2.661 1.273.033 2.344-1.152 2.363-2.612zm-2.35 4.371c-2.262.053-4.253-2.054-4.275-4.323-.023-2.342 1.92-4.429 4.278-4.417 2.665.015 4.4 2.175 4.352 4.552-.045 2.276-2.038 4.208-4.355 4.188zM76.88 14.866c1.072-.134 1.708-.747 1.86-1.834.08-.569-.132-.827-.694-.721-.637.12-1.271.288-1.88.51-.53.193-.738.845-.384 1.238.298.33.727.543 1.098.807zm3.943-2.036c0 .737.025 1.476-.013 2.211-.015.284-.133.776-.273.802-.424.078-1.037.142-1.292-.094-.43-.4-.649-.318-1.043-.027-1.811 1.338-3.895.284-4.468-1.223-.429-1.13.347-2.507 1.472-2.944.875-.34 1.746-.38 2.635-.45.497-.04.882-.302.856-.744-.021-.346-.307-.784-.606-.982-.57-.377-1.291-.208-1.791.28-.165.161-.315.34-.454.525-.418.557-.962.779-1.626.532-.187-.069-.389-.43-.376-.645.04-.72.511-1.225 1.04-1.661 1.56-1.286 4.274-1.085 5.447.495.202.272.38.63.397.958.052.987.019 1.978.019 2.967h.076zM70.408 28.89c.932.015 1.633-.722 1.793-1.842.07-.49-.14-.704-.586-.629-.575.097-1.143.248-1.704.408-.545.156-.88.517-.797 1.115.056.409.83.94 1.294.948zm3.834-3.514c0 1.28.02 2.56-.016 3.84-.008.294-.14.768-.333.838-.42.152-.972.326-1.331-.168-.305-.419-.533-.377-.918-.073-1.453 1.144-3.699.543-4.392-1.144-.43-1.045.071-2.43 1.124-2.879.59-.251 1.245-.356 1.878-.493.39-.085.828-.024 1.18-.176.347-.15.612-.488.913-.743-.319-.33-.584-.835-.968-.954-.805-.25-1.609-.105-2.061.759-.315.6-.823.707-1.435.655-.427-.036-.595-.242-.573-.656.065-1.256.968-1.893 1.948-2.25 1.2-.438 2.477-.424 3.664.242.912.512 1.39 1.25 1.32 2.317-.02.294-.004.59-.004.885h.004zm-29.018 3.493c.96.008 1.965-1.123 1.816-2.017-.028-.17-.344-.442-.482-.417-.753.135-1.516.288-2.227.56-.411.156-.6.62-.348 1.063.28.492.683.856 1.24.811zm3.877-2.147c0 .905-.016 1.81.007 2.714.01.445-.158.697-.6.708-.491.012-1.006.137-1.352-.424-.217-.35-.464-.076-.681.09-1.418 1.08-2.878.693-3.994-.375-1.058-1.012-.64-3.084.713-3.633.652-.264 1.374-.358 2.068-.51.307-.067.63-.064.937-.129.446-.093 1-.276.913-.768-.064-.368-.512-.863-.872-.946-1.077-.249-1.533-.179-2.06.7-.385.644-.893.823-1.62.681-.53-.103-.537-.493-.441-.878.232-.928.905-1.5 1.706-1.925 1.029-.547 3.548-.544 4.596.688.432.507.609 1.049.626 1.669.02.779.005 1.559.005 2.338h.049zM70.876 11.89c0-1.186-.607-2.097-1.57-2.46-.69-.261-1.663.006-2.183.598-.84.958-.867 2.654-.058 3.684.727.926 2.158 1.019 3.013.206.614-.583.716-1.35.798-2.028zm1.946-.72c0 1.346.029 2.694-.024 4.038-.01.29-.26.732-.5.816-.395.138-.948.289-1.257-.211-.26-.423-.474-.385-.856-.146-2.04 1.271-4.596.288-5.395-2.008-.582-1.67-.525-3.253.63-4.636 1.02-1.225 2.4-1.651 3.97-1.344.296.057.553.291.84.419.543.242.692.144.678-.44-.015-.63-.045-1.26-.064-1.89-.02-.672.108-.735 1.084-.828.605-.058.75.266.752.741.009 1.83.003 3.66.003 5.49l.139-.001zm-20.655 14.91c.063.35.087.713.199 1.047.284.851 1.395 1.58 2.16 1.427.877-.175 1.591-.585 1.835-1.516.285-1.088.293-2.17-.616-2.98a2.471 2.471 0 0 0-1.345-.581c-1.27-.108-2.202 1.048-2.233 2.603zm-1.951 1.495c0-1.623-.013-3.245.012-4.867.004-.28.157-.79.26-.795.476-.022 1.102-.063 1.403.206.386.344.625.394 1.022.162 2.759-1.613 5.27.478 5.569 2.925.213 1.755-.196 3.256-1.62 4.394a3.515 3.515 0 0 1-4.028.252c-.16-.098-.366-.123-.551-.182-.053.192-.151.385-.151.578 0 .779.015 1.558.055 2.336.028.547-.204.785-.741.757a3.432 3.432 0 0 0-.505.007c-.487.047-.692-.166-.688-.655.01-1.706.004-3.412.004-5.118h-.041zM4.887 14.367v.012c.61 0 1.219-.006 1.828.003.388.005.6-.166.6-.558 0-1.219.017-2.438-.034-3.655-.008-.201-.319-.552-.499-.558-1.258-.039-2.52-.016-3.78.01-.495.01-.738.239-.711.803.048 1.026.029 2.057.007 3.086-.014.7.095.843.824.855.588.01 1.177.002 1.765.002zm-2.586 13.43v3.347c0 .578.247.86.686.66.795-.363 1.635-.714 2.295-1.263 1.995-1.66 2.203-3.954 1.99-6.335-.015-.164-.35-.423-.542-.428-1.262-.035-2.526.002-3.789-.016-.508-.007-.657.213-.648.688.02 1.115.006 2.231.008 3.347zm11.287-6.333v-.007h3.411c.72 0 .849-.137.843-.846-.007-1.01-.012-2.021-.002-3.031.008-.718-.147-.891-.873-.885-.927.007-1.852.032-2.778.03-1.327 0-2.653-.027-3.979-.025-.44 0-.838.052-.815.686.04 1.072.03 2.146.02 3.22-.007.713.109.855.824.857 1.117.004 2.233.001 3.349.001zm3.64-13.904v.01c2.253 0 4.507-.006 6.761.003.564.003.953-.146.952-.8-.004-1.221.004-2.443 0-3.664-.002-.406-.198-.607-.628-.608-1.052-.002-2.104-.048-3.155-.042-1.895.011-3.79.11-5.684.06-2.65-.07-4.347 1.316-5.557 3.472-.59 1.05-.252 1.567.928 1.568 2.128.004 4.255.001 6.383.001zm1.045 1.925c-2.654 0-5.309.002-7.963-.002-.752 0-.896.149-.888.873.011 1.053.01 2.107-.005 3.16-.011.748.154.97.892.97 2.844.003 5.688-.002 8.532-.025.956-.008 1.051.124 1.045 1.08-.013 2.273.04 4.546.057 6.82.009 1.201-.146 1.361-1.329 1.361-2.781 0-5.562-.007-8.343-.016-.85-.003-.927.076-.895.948.07 1.914-.017 3.823-1.09 5.483-1.514 2.342-3.536 3.928-6.491 3.94-1.677.008-1.533.199-1.527-1.565.012-3.518-.007-7.037-.023-10.555-.003-.509.212-.631.702-.614 1.828.066 3.658.109 5.488.11.728.001.883-.244.876-.999-.008-.99-.01-1.98-.002-2.97.007-.86-.09-.904-.929-.885-1.853.044-3.707.027-5.561.033-.402.002-.561-.228-.561-.604l.003-7.964c0-.4.193-.543.596-.537 1.895.03 3.791.02 5.686.06.536.012.763-.281.924-.693.221-.569.396-1.156.631-1.718 1.07-2.559 3.114-3.941 5.691-4.659.259-.071.543-.069.815-.067 3.687.019 7.373.05 11.06.064 1.25.006 1.277-.01 1.288 1.238.021 2.36 0 4.719.017 7.078.004.537-.155.715-.732.707-2.654-.037-5.31-.016-7.964-.016v-.036z"/>
</svg>
