<svg xmlns="http://www.w3.org/2000/svg" width="105" height="35" viewBox="0 0 105 35">
    <g fill="#007CFF" fill-rule="evenodd">
        <path d="M41.086 18.165c0-3.103-2.252-5.227-4.865-5.227-2.613 0-4.865 2.124-4.865 5.227 0 3.072 2.252 5.227 4.865 5.227 2.613 0 4.865-2.159 4.865-5.227m3.788 0c0 4.966-3.885 8.626-8.653 8.626-4.768 0-8.653-3.66-8.653-8.626 0-5.001 3.885-8.626 8.653-8.626 4.768 0 8.653 3.625 8.653 8.626M59.753 18.165c0-3.103-2.252-5.227-4.865-5.227-2.614 0-4.865 2.124-4.865 5.227 0 3.072 2.251 5.227 4.865 5.227 2.613 0 4.865-2.159 4.865-5.227m3.787 0c0 4.966-3.885 8.626-8.652 8.626-4.768 0-8.653-3.66-8.653-8.626 0-4.997 3.885-8.626 8.653-8.626 4.767 0 8.652 3.625 8.652 8.626M78.1 18.196c0-3.037-2.025-5.258-4.604-5.258-2.613 0-4.803 2.22-4.803 5.258 0 3.006 2.19 5.196 4.803 5.196 2.579 0 4.605-2.19 4.605-5.196zm3.33-8.135v15.485c0 6.37-3.757 8.972-8.199 8.972-4.18 0-6.696-2.796-7.645-5.083l3.298-1.373c.587 1.404 2.026 3.06 4.344 3.06 2.842 0 4.604-1.753 4.604-5.055v-1.24H77.7c-.848 1.046-2.481 1.96-4.542 1.96-4.313 0-8.264-3.757-8.264-8.59 0-4.87 3.95-8.658 8.264-8.658 2.057 0 3.69.914 4.542 1.93h.132v-1.405h3.598v-.003zM83.666 26.262h3.694V.984h-3.694zM92.707 17.9l7.708-3.2c-.424-1.077-1.7-1.828-3.2-1.828-1.926 0-4.605 1.7-4.508 5.029m9.05 3.103l2.94 1.96c-.95 1.404-3.236 3.823-7.187 3.823-4.9 0-8.56-3.788-8.56-8.626 0-5.13 3.691-8.625 8.136-8.625 4.476 0 6.666 3.562 7.381 5.487l.393.98-11.53 4.775c.882 1.731 2.255 2.614 4.18 2.614 1.929 0 3.267-.95 4.247-2.388M13.584 15.921v-3.66h12.332c.12.638.182 1.393.182 2.21 0 2.745-.75 6.14-3.17 8.559-2.352 2.45-5.358 3.757-9.34 3.757C6.207 26.787 0 20.774 0 13.393 0 6.013 6.207 0 13.588 0c4.083 0 6.992 1.602 9.178 3.69l-2.583 2.583c-1.567-1.47-3.69-2.614-6.6-2.614-5.39 0-9.605 4.344-9.605 9.734s4.216 9.734 9.606 9.734c3.496 0 5.487-1.404 6.763-2.68 1.034-1.034 1.715-2.511 1.983-4.53l-8.746.004z"/>
    </g>
</svg>
