<svg xmlns="http://www.w3.org/2000/svg" width="763" height="340" viewBox="0 0 763 340">
    <defs>
        <linearGradient id="prefix__a" x1="50%" x2="50%" y1="0%" y2="100%">
            <stop offset="0%" stop-color="#007CFF" stop-opacity=".3"/>
            <stop offset="100%" stop-color="#007CFF" stop-opacity="0"/>
        </linearGradient>
        <linearGradient id="prefix__b" x1="50%" x2="50%" y1="0%" y2="100%">
            <stop offset="0%" stop-color="#5830D6"/>
            <stop offset="100%" stop-color="#5830D6" stop-opacity="0"/>
        </linearGradient>
    </defs>
    <g fill="none" fill-rule="evenodd" transform="translate(.5)">
        <text fill="#638298" font-family="Lato-Regular, Lato" font-size="14">
            <tspan x="64.26" y="339">2019</tspan>
        </text>
        <text fill="#638298" font-family="Lato-Regular, Lato" font-size="14">
            <tspan x="664.26" y="339">2023</tspan>
        </text>
        <text fill="#638298" font-family="Lato-Regular, Lato" font-size="14">
            <tspan x="514.26" y="339">2022</tspan>
        </text>
        <text fill="#638298" font-family="Lato-Regular, Lato" font-size="14">
            <tspan x="364.26" y="339">2021</tspan>
        </text>
        <text fill="#638298" font-family="Lato-Regular, Lato" font-size="14">
            <tspan x="214.26" y="339">2020</tspan>
        </text>
        <path fill="url(#prefix__a)" d="M85 177.5L681 7.5 681 305.5 85 305.5z"/>
        <path stroke="#979797" stroke-linecap="square" d="M762 305.5L0 305.5"/>
        <path stroke="#007CFF" stroke-linecap="square" stroke-width="5" d="M85 177.5L681 7.5"/>
        <circle cx="84.5" cy="178" r="8" fill="#007CFF"/>
        <circle cx="84.5" cy="296" r="8" fill="#5830D6"/>
        <circle cx="680.5" cy="8" r="8" fill="#007CFF"/>
        <circle cx="680.5" cy="187" r="8" fill="#5830D6"/>
        <path stroke="#5830D6" stroke-linecap="square" stroke-width="5" d="M85 296.5c259.5 0 458.755-30.167 595.5-109.5"/>
        <path fill="url(#prefix__b)" d="M85 296.5c259.5 0 458.755-30.167 595.5-109.5v118.5h-596l.5-9z"/>
    </g>
</svg>
