<svg xmlns="http://www.w3.org/2000/svg" width="113" height="29" viewBox="0 0 113 29">
    <path fill="#FFF" fill-rule="evenodd" d="M90.718 15.92c.316-1.487.637-2.974.941-4.464.048-.235.135-.309.378-.308 2.033.01 4.065.006 6.098.006h.383l.664-3.113h-.426c-3.392 0-6.783.005-10.174-.01-.342 0-.46.099-.53.43-1.292 6.109-2.598 12.215-3.9 18.322-.098.461-.19.924-.285 1.383.068.018.088.027.107.027 3.647.002 7.293.002 10.94.008.173 0 .227-.07.252-.226.038-.242.102-.479.152-.718.15-.706.298-1.411.456-2.165h-7.018l1.258-5.883h.393c1.819 0 3.637-.01 5.455.01.342.004.45-.106.509-.423.144-.794.327-1.58.493-2.37.02-.094.028-.192.045-.313h-6.222c.015-.094.02-.144.031-.192zM52.186 8.043c-1.715-.001-3.431.002-5.147-.006-.175 0-.247.07-.316.214-.607 1.248-1.22 2.493-1.831 3.739-2.456 5-4.911 10.002-7.366 15.003-.192.39-.381.78-.589 1.206 1.349 0 2.645-.008 3.941.006.25.003.372-.075.48-.298 2.229-4.555 4.466-9.106 6.701-13.657.052-.105.11-.206.164-.309l.063.017.842 14.222h4.464L52.404 8.063c-.098-.01-.158-.021-.218-.021zM26.958 27.884c.6-2.802 1.205-5.603 1.796-8.407.046-.22.134-.273.343-.272 1.41.008 2.819.004 4.228.005.09 0 .179.01.302.016l-1.91 8.951h4.236l4.291-20.105c-.086-.014-.134-.03-.182-.03-1.277-.001-2.554.003-3.83-.006-.212-.002-.248.106-.283.272-.529 2.507-1.067 5.012-1.59 7.52-.048.23-.139.29-.363.289-1.236-.01-2.471-.005-3.707-.005h-.81l1.71-8.071h-.388c-1.164 0-2.329.009-3.493-.007-.277-.004-.378.073-.436.352-1.13 5.34-2.27 10.678-3.41 16.017l-.804 3.782h4.229c.025-.105.05-.203.071-.301zm54.462.298l4.287-20.123h-4.216c-.024.083-.048.15-.063.219-.533 2.493-1.068 4.985-1.592 7.48-.054.258-.137.368-.429.362-1.02-.021-2.043-.008-3.064-.008h-1.407l1.719-8.046c-.083-.012-.133-.024-.182-.024-1.277-.001-2.554.005-3.83-.007-.246-.003-.253.145-.287.304l-4.083 19.156c-.048.225-.09.45-.136.683h4.221c.02-.067.037-.114.047-.164.6-2.826 1.202-5.652 1.795-8.48.05-.236.123-.336.392-.332 1.378.016 2.757.007 4.136.008.106 0 .213.012.356.02l-1.897 8.952h4.233zm-20.584.321c.36-.061.72-.117 1.078-.185 1.69-.32 3.155-1.031 4.215-2.44.734-.976 1.134-2.092 1.38-3.273.425-2.038-.199-3.692-1.857-4.933-.717-.538-1.502-.984-2.238-1.497-.593-.413-1.186-.834-1.728-1.31a1.919 1.919 0 0 1-.658-1.619c.106-1.575 1.323-2.624 2.892-2.502.686.053 1.107.407 1.212 1.082.052.339.041.69.023 1.035-.017.3-.083.596-.127.888.046.016.065.03.084.03 1.276.002 2.553.008 3.83-.005.084 0 .226-.135.241-.224.12-.682.278-1.365.308-2.053.08-1.856-.854-3.062-2.648-3.53-.858-.224-1.732-.266-2.613-.251-1.433.025-2.828.243-4.123.891-1.917.96-2.913 2.594-3.392 4.622-.434 1.842-.03 3.442 1.388 4.7.774.688 1.664 1.246 2.494 1.872.618.466 1.248.92 1.83 1.43.458.401.715.939.704 1.573-.03 1.766-1.516 2.987-3.247 2.667-.874-.162-1.257-.585-1.31-1.47-.012-.223.001-.45.03-.672.059-.442.137-.881.207-1.322-.047-.015-.076-.031-.104-.031-1.307-.003-2.615-.009-3.922.004-.084.001-.224.138-.242.23-.135.721-.305 1.443-.356 2.172-.145 2.077.8 3.386 2.757 3.901.333.088.674.147 1.012.22h2.88zm43.566-17.297l-2.96 13.87c.836 0 1.62.02 2.402-.006.875-.03 1.584-.422 2.13-1.106.51-.64.833-1.38 1.082-2.149.734-2.275 1.215-4.61 1.574-6.971.116-.757.157-1.526-.045-2.281-.2-.749-.657-1.283-1.446-1.342-.891-.065-1.791-.015-2.737-.015zM113 14.098c-.081.564-.144 1.13-.247 1.69-.448 2.427-.826 4.873-1.771 7.176-.603 1.467-1.44 2.77-2.727 3.744-1.327 1.005-2.847 1.46-4.488 1.482-2.33.03-4.659.008-6.988.007-.069 0-.138-.012-.231-.021.205-.975.405-1.933.61-2.891 1.191-5.587 2.384-11.173 3.577-16.76.019-.09.045-.179.056-.27.02-.159.094-.22.263-.218 2.594.021 5.188.024 7.782.059.707.01 1.395.193 2.037.502 1.308.63 1.872 1.757 2.066 3.126.011.078.04.153.061.229v2.145zm-97.683-2.922c-.1-.012-.14-.02-.18-.02-1.47-.001-2.941.004-4.412-.008-.22-.001-.244.114-.278.273-.24 1.127-.485 2.253-.726 3.379-.09.425-.176.851-.269 1.298h4.811l1.054-4.922zM21.913 0c-.258 1.25-.514 2.5-.775 3.748-.279 1.329-.564 2.656-.845 3.984-.019.089-.033.178-.055.3h4.198c-.047.232-.085.425-.126.619-.151.718-.314 1.434-.451 2.155-.05.265-.147.361-.435.357-1.185-.02-2.37-.002-3.555-.014-.238-.003-.33.062-.38.304-.3 1.458-.62 2.912-.932 4.368-.016.078-.018.16-.032.282h4.192c-.215 1.013-.415 1.98-.637 2.943-.017.073-.193.155-.296.156-1.175.011-2.35.02-3.524-.001-.325-.006-.449.08-.517.41-.59 2.85-1.2 5.694-1.81 8.563h-4.239l1.898-8.946c-.116-.008-.196-.018-.275-.018-1.42-.001-2.84.003-4.26-.006-.217-.001-.292.068-.337.282-.585 2.787-1.18 5.573-1.774 8.358-.023.109-.05.217-.078.337H2.636L4.54 19.21h-.377l-3.493-.001c-.112 0-.223-.014-.334-.022v-.184c.02-.044.05-.086.06-.132.17-.787.35-1.573.5-2.364.056-.3.16-.412.49-.404 1.184.025 2.37.006 3.554.013.195.002.281-.043.323-.255.185-.94.395-1.875.595-2.812l.406-1.9H2.05c.207-.976.413-1.901.595-2.832.046-.238.153-.282.37-.28 1.174.01 2.348-.006 3.523.012.295.004.417-.07.478-.376.33-1.642.69-3.277 1.035-4.916.192-.918.375-1.837.562-2.756h4.23c-.006.08-.002.162-.019.24-.456 2.157-.915 4.314-1.373 6.471-.092.433-.18.867-.275 1.33 1.575 0 3.106.002 4.636-.009.072 0 .187-.107.208-.185.088-.324.148-.656.218-.986L17.684 0h4.229z"/>
</svg>
