<svg xmlns="http://www.w3.org/2000/svg" width="150" height="24" viewBox="0 0 150 24">
    <path fill="#FFF" fill-opacity=".7" fill-rule="evenodd" d="M47.794 4.947c.996 0 1.806-.763 1.81-1.704.005-1.007-.776-1.772-1.812-1.778-1.02-.005-1.854.778-1.856 1.743-.002.971.819 1.74 1.858 1.739zm1.557 2.752c0-.376-.143-.515-.554-.518-.656-.005-1.311.001-1.967 0-.482-.002-.593.105-.593.581.004 4.19.008 8.38.01 12.571 0 .232-.015.463-.009.694.007.273.143.433.431.432.746-.001 1.491 0 2.237-.006.318-.002.45-.167.448-.49-.007-2.21-.004-4.421-.003-6.632V7.699zm34.167 5.31c0-2.608.007-5.218-.004-7.827-.003-.621.066-.715.69-.713 1.593.005 3.187.006 4.78.007.422 0 .516-.1.517-.53 0-.411-.005-.822 0-1.234.007-.544-.045-.6-.583-.6l-13.921.003c-.219 0-.437-.005-.656 0-.314.009-.466.164-.456.488.012.411.017.823.006 1.234-.014.529.08.638.61.638 1.594 0 3.188.005 4.782-.005 1.06-.007 1.09-.054 1.086 1.062-.018 4.885-.008 9.77-.01 14.654 0 .244-.005.488-.028.73-.032.342.131.53.453.536.77.015 1.542.012 2.313 0 .304-.006.45-.172.45-.5-.008-2.647-.005-5.294-.005-7.942h-.024zm53.409 7.899c0 .427.12.552.547.553.437 0 .874 0 1.311-.004 1.035-.006 1.138.18 1.121-1.088-.036-2.7.04-5.401-.039-8.099-.027-.92.342-1.478.999-1.966.143-.107.306-.188.458-.285.734-.466 1.513-.83 2.384-.925 1.06-.116 2.013.148 2.65 1.054.265.375.453.844.533 1.296.115.64.13 1.305.132 1.959.002 2.532-.018 5.064-.03 7.597 0 .332.212.453.502.456.694.008 1.389-.003 2.083 0 .318.002.405-.152.404-.456-.01-2.97-.005-5.94-.013-8.91-.002-.594.07-1.193-.234-1.762-.275-.515-.452-1.083-.727-1.598-.457-.855-1.235-1.335-2.102-1.709-.933-.402-1.913-.372-2.885-.334a7.183 7.183 0 0 0-1.814.295c-.9.275-1.727.717-2.407 1.397-.067.067-.227.118-.299.083-.072-.035-.118-.186-.121-.288-.007-.204.029-.41.035-.615.014-.414-.09-.529-.51-.536a53.957 53.957 0 0 0-1.467-.002c-.408.004-.51.118-.51.541v6.673l-.001 6.673zm-44.604-9.543c.484-1.181 1.354-2.015 2.622-2.288 1.292-.279 2.59-.274 3.76.476.861.552 1.453 1.315 1.673 2.341.302 1.401.285 2.793.046 4.207-.237 1.4-1.617 2.916-3.128 3.023-1.01.072-2.008.125-2.957-.272-.813-.34-1.404-.957-1.761-1.753-.695-1.546-.632-1.85-.641-3.302-.074-.723.048-1.608.386-2.432zM92 7.8c-1.383.9-2.222 2.202-2.616 3.84-.464 1.936-.402 3.845.214 5.698.466 1.406 1.424 2.521 2.738 3.266.464.263.96.515 1.475.64 1.513.365 3.03.417 4.58.09 1.156-.242 2.119-.793 2.966-1.536 1.052-.923 1.643-2.162 1.942-3.512.463-2.092.31-4.161-.602-6.104-.577-1.23-1.545-2.149-2.774-2.79-1.13-.589-2.327-.78-3.117-.764-2.378-.013-3.262.167-4.806 1.172zm39.495 2.903c.45.682.033 1.476-.798 1.582-1.044.133-2.092.235-3.135.375-1.196.161-2.39.344-3.583.527-.453.07-.634-.115-.501-.563.478-1.619 1.376-2.897 3.023-3.484.52-.186 1.1-.208 1.652-.304 1.534-.096 2.561.683 3.342 1.867zm-10.636 3.379c.017.398.042.795.052 1.194.035 1.49.676 2.76 1.526 3.914a6.063 6.063 0 0 0 3.016 2.213c1.99.67 3.933.474 5.8-.271 1.53-.61 2.693-1.721 3.223-3.36.042-.132.053-.322-.014-.426-.047-.074-.254-.08-.382-.063-.636.091-1.273.178-1.9.313-.261.056-.557.173-.734.36-.617.652-1.32 1.09-2.205 1.322-1.167.305-2.259.151-3.285-.383-1.199-.624-1.836-1.719-2.19-2.988-.112-.403-.017-.544.407-.602 1.998-.27 4.001-.507 5.996-.802.896-.132 1.826-.25 2.649-.594.957-.4 1.502-1.192 1.498-2.34-.004-.967-.447-1.694-.994-2.395-1.042-1.334-2.372-2.21-4.064-2.495-1.068-.179-2.133-.108-3.182.095-.482.094-.95.308-1.4.519-.776.364-1.411.921-1.99 1.551-.65.71-1.155 1.524-1.414 2.435-.257.903-.347 1.854-.51 2.783l.097.02zm-14.406-2.477v8.833c0 .206-.01.412-.003.617.007.237.117.399.373.4.758.003 1.517.005 2.275-.005.295-.004.434-.166.43-.472-.017-1.04.019-2.084-.046-3.122-.047-.757.097-1.392.69-1.892.078-.066.151-.14.216-.218.335-.404.715-.371 1.178-.21.809.282 1.415.832 1.997 1.407 1.111 1.1 1.891 2.453 2.742 3.748.348.53.717.9 1.424.835.611-.057 1.233 0 1.85-.008.128-.002.256-.066.384-.102-.04-.137-.047-.298-.125-.408-.886-1.242-1.766-2.49-2.68-3.711-1.084-1.448-2.299-2.765-3.914-3.646-.254-.14-.263-.283-.069-.477.662-.662 1.315-1.334 1.984-1.99 1.283-1.259 2.576-2.509 3.859-3.77.07-.067.13-.219.1-.294-.03-.075-.178-.146-.275-.146-.899 0-1.799.005-2.697.038a.916.916 0 0 0-.55.222 81.347 81.347 0 0 0-2.01 1.97c-1.24 1.247-2.47 2.502-3.71 3.749-.061.062-.196.116-.263.09-.068-.028-.127-.159-.132-.247-.012-.217.015-.436.015-.654.008-3.292.011-6.583.025-9.875.002-.356-.16-.49-.485-.49-.695-.003-1.39-.006-2.083-.002-.427.003-.508.096-.508.533v9.297h.008zM52.781 14.37c0 2.212.002 4.423-.003 6.634 0 .33.168.47.474.471.669.005 1.338.012 2.006 0 .393-.006.506-.162.505-.56-.01-2.996-.025-5.992-.005-8.987.002-.319.17-.663.342-.948.382-.633 1.018-.94 1.676-1.23 1.005-.443 2.02-.515 3.034-.125.349.135.673.424.919.718.554.663.668 1.49.672 2.32.014 2.803.013 5.606.013 8.41 0 .468.093.586.543.59.643.006 1.286.003 1.929 0 .31 0 .463-.137.461-.472-.01-2.777-.01-5.554-.017-8.331-.001-.347-.07-.696-.039-1.038.023-.264.081-.586.249-.762.376-.396.797-.773 1.26-1.057 1.041-.64 2.17-.888 3.354-.433.484.186.942.422 1.198.953.415.86.529 1.762.527 2.697-.006 2.558-.006 5.117-.008 7.676 0 .463.097.56.57.561.488.002.977 0 1.466 0 .992.001.991.002.991-.978 0-2.572.007-5.144-.002-7.715-.003-.966-.124-1.909-.481-2.828-.579-1.488-1.65-2.42-3.163-2.776-2.43-.573-4.625-.013-6.535 1.609-.318.27-.448.274-.674-.071-.62-.945-1.55-1.388-2.605-1.628-1.024-.233-2.057-.187-3.059.073-.978.255-1.947.575-2.704 1.314-.245.239-.377.189-.477-.145-.191-.635-.586-.965-1.213-.998-.256-.013-.514-.007-.771-.002-.299.006-.432.155-.431.463.006 2.199.003 4.397.003 6.595h-.005zm-38.054 9.083c-.386 0-.772-.012-1.157.002-1.412.05-2.72-.409-4.034-.827-.647-.205-1.299-.422-1.908-.717-2.244-1.087-4.143-2.577-5.553-4.681-.961-1.435-1.481-3.006-1.884-4.664-.256-1.053-.19-2.088-.164-3.13.012-.509.195-1.028.372-1.516.254-.696.482-1.43.89-2.034.46-.68 1.06-1.29 1.685-1.83 1.032-.892 2.297-1.334 3.642-1.394 2.302-.101 4.175.784 5.296 2.837.587 1.075.643 2.284.223 3.513-.284.828-.854 1.307-1.56 1.654-1.164.573-2.685-.307-2.637-1.547a8.31 8.31 0 0 1 .155-1.181c.163-.875.009-1.671-.723-2.215-.72-.535-1.555-.64-2.413-.307-1.434.556-1.938 1.764-2.118 3.143-.143 1.1.147 2.136.712 3.094 1.014 1.72 2.515 2.659 4.489 2.94 1.026.145 2.034.082 3.028-.1.62-.113 1.23-.37 1.8-.655a7.243 7.243 0 0 0 2.774-2.44c.909-1.337 1.437-2.82 1.466-4.43.021-1.128.64-1.865 1.429-2.46 1.008-.763 2.066-1.485 3.182-2.075 1.115-.589 2.31-1.048 3.504-1.461.954-.33 1.97-.473 2.942-.76 1.19-.353 2.395-.16 3.593-.161.367 0 .746.172 1.099.315.273.11.43.345.445.666.109 2.24.079 4.472-.334 6.686-.278 1.49-.652 2.95-1.239 4.356-1.053 2.521-2.559 4.723-4.565 6.578a17.56 17.56 0 0 1-3.395 2.455c-1.827 1.016-3.787 1.7-5.844 2.09-.523.099-1.05.203-1.579.244-.536.042-1.079.01-1.619.01v.002z"/>
</svg>
