<svg xmlns="http://www.w3.org/2000/svg" width="102" height="36" viewBox="0 0 102 36">
    <path fill="#FFF" fill-rule="evenodd" d="M97.613 26.522a4.228 4.228 0 1 1 0 8.456 4.228 4.228 0 0 1 0-8.456zm-3.447-1.333H84.147c0 2.758-2.022 4.045-4.274 4.045-4.32 0-4.687-3.631-4.687-7.078v-.092c0-3.447.321-7.077 4.687-7.077 3.401 0 3.999 2.941 4.09 5.744l10.065-1.103C92.971 9.38 82.861 8.736 80.333 8.736h-.552c-8.318 0-16.498 4.09-16.498 13.374 0 1.976.367 3.723 1.057 5.24h.046v.137c2.481 5.515 8.915 7.997 15.395 7.997 5.286 0 12.685-1.287 14.34-9.421l.045-.874zm-32.814 2.206v-9.88c0-6.297-4.595-8.595-10.294-8.595-4.045 0-7.124 1.103-9.79 4.182-.183.23-.413.506-.689.736V8.645H25.873v7.49h3.355v11.26h-3.355v7.491h18.659v-7.49h-3.539v-6.48c0-2.758 2.068-4.78 4.826-4.78 2.16 0 3.86 1.057 3.86 3.4v7.813h-3.447v7.492h18.245v-7.354c0-.046-.046-.092-.046-.138h-3.079v.046zM.78 8.6h4.458v18.796H.78v7.446h23.852v-7.446h-4.504V8.6h4.504V.556H.78v8.043z" opacity="1"/>
</svg>
