<svg xmlns="http://www.w3.org/2000/svg" xmlns:xlink="http://www.w3.org/1999/xlink" width="140" height="124" viewBox="0 0 140 124">
    <defs>
        <path id="a" d="M.073.082h67.172v38.701H.073z"/>
        <path id="c" d="M0 123.79h139.903V.203H0z"/>
        <path id="e" d="M.206.136h67.172v38.702H.206z"/>
        <path id="g" d="M0 123.79h139.903V.203H0z"/>
        <path id="i" d="M.183.007h67.173V38.71H.183z"/>
        <path id="k" d="M0 123.79h139.903V.203H0z"/>
        <path id="m" d="M.066.049H67.24V38.75H.066z"/>
        <path id="o" d="M0 123.79h139.903V.203H0z"/>
        <path id="q" d="M.183.09h67.173v38.702H.183z"/>
        <path id="s" d="M0 123.79h139.903V.203H0z"/>
        <path id="u" d="M.107.048h67.108v38.66H.107z"/>
        <path id="w" d="M0 123.657h139.77V.202H0z"/>
        <path id="y" d="M.207.143H67.38v38.702H.207z"/>
        <path id="A" d="M0 123.79h139.903V.203H0z"/>
        <path id="C" d="M0 .046h67.173v38.702H0z"/>
        <path id="E" d="M0 123.79h139.903V.203H0z"/>
        <path id="G" d="M.204.158h67.173V38.86H.204z"/>
        <path id="I" d="M0 123.79h139.903V.203H0z"/>
    </defs>
    <g fill="none" fill-rule="evenodd">
        <g>
            <g transform="translate(32.324 47.128)">
                <mask id="b" fill="#fff">
                    <use xlink:href="#a"/>
                </mask>
                <path fill="#111D28" fill-opacity=".2" d="M9.836 33.159C3.33 29.41.078 24.495.073 19.567c-.006-4.977 3.3-9.965 9.911-13.775 13.158-7.58 34.423-7.619 47.498-.085 6.506 3.748 9.758 8.664 9.763 13.591.006 4.977-3.3 9.966-9.911 13.775-13.157 7.58-34.423 7.619-47.498.086" mask="url(#b)"/>
            </g>
            <mask id="d" fill="#fff">
                <use xlink:href="#c"/>
            </mask>
            <path fill="#1A82FF" d="M99.57 57.113v5.87c.005 4.976-3.301 9.965-9.912 13.774-13.158 7.58-34.423 7.62-47.498.086-6.505-3.748-9.758-8.664-9.763-13.592v-6.138h67.172z" mask="url(#d)"/>
            <path fill="#40A0FF" d="M42.16 70.973c-6.506-3.748-9.758-8.663-9.763-13.591-.006-4.977 3.3-9.966 9.911-13.775 13.158-7.58 34.423-7.619 47.498-.085 6.505 3.748 9.758 8.663 9.763 13.591.006 4.977-3.3 9.966-9.911 13.775-13.158 7.58-34.423 7.619-47.498.085" mask="url(#d)"/>
            <path fill="#1A82FF" d="M65.772 72.598c-8.239 0-15.912-1.808-21.608-5.09-4.999-2.88-7.754-6.477-7.759-10.131-.003-3.651 2.879-7.408 7.908-10.305 5.792-3.337 13.562-5.175 21.881-5.175 8.238 0 15.912 1.808 21.608 5.09 4.999 2.88 7.754 6.477 7.758 10.13.005 3.652-2.878 7.408-7.907 10.306-5.792 3.337-13.563 5.175-21.88 5.175" mask="url(#d)"/>
            <path fill="#0F7CE8" d="M44.313 47.872c5.792-3.337 13.563-5.174 21.881-5.174 8.238 0 15.912 1.807 21.608 5.088 4.816 2.776 7.542 6.217 7.739 9.732.007-.134.02-.267.02-.4-.005-3.653-2.76-7.251-7.759-10.132-5.696-3.281-13.37-5.089-21.608-5.089-8.318 0-16.09 1.838-21.881 5.175-5.03 2.897-7.912 6.654-7.908 10.305 0 .133.012.266.02.399.198-3.524 3.043-7.112 7.888-9.904" mask="url(#d)"/>
            <path fill="#FFF" d="M62.336 64.92l.02-3.863a16.779 16.779 0 0 1-2.378-1.136c-4.228-2.437-4.754-5.042-1.407-6.971 1.397-.805 3.019-1.228 4.753-1.253l-.073 13.388c.861.136 1.731.227 2.601.267.366.017.728.02 1.087.02v.001l.142-.002c.106-.001.213 0 .318-.002v-.003c3.26-.071 6.263-.849 8.757-2.285 2.881-1.66 4.24-3.71 3.926-5.928-.294-2.086-2.095-4.179-5.071-5.893-1.978-1.14-4.245-1.978-6.606-2.463l-.021 3.884a17.3 17.3 0 0 1 2.257 1.096c1.946 1.122 3.121 2.258 3.492 3.378.436 1.313-.275 2.55-2.056 3.576-1.386.799-2.975 1.213-4.66 1.254l.073-13.36a23.362 23.362 0 0 0-2.708-.287c-.18-.009-.36-.013-.54-.017h-.005a21.833 21.833 0 0 0-.62-.006h-.275v.005c-3.294.053-6.33.83-8.848 2.28-2.884 1.662-4.247 3.714-3.942 5.936.287 2.093 2.083 4.189 5.056 5.902 2.009 1.157 4.32 2.004 6.728 2.483" mask="url(#d)"/>
        </g>
        <g>
            <g transform="translate(36.942 38.54)">
                <mask id="f" fill="#fff">
                    <use xlink:href="#e"/>
                </mask>
                <path fill="#111D28" fill-opacity=".2" d="M9.969 33.213C3.463 29.465.21 24.55.206 19.622c-.006-4.977 3.3-9.966 9.911-13.775 13.158-7.58 34.423-7.619 47.498-.086 6.505 3.748 9.758 8.664 9.763 13.592.006 4.977-3.3 9.965-9.911 13.775-13.158 7.58-34.423 7.618-47.498.085" mask="url(#f)"/>
            </g>
            <mask id="h" fill="#fff">
                <use xlink:href="#g"/>
            </mask>
            <path fill="#1A82FF" d="M104.32 48.58v5.87c.006 4.976-3.3 9.965-9.912 13.774-13.157 7.58-34.423 7.619-47.498.086-6.505-3.748-9.757-8.664-9.763-13.592V48.58h67.173z" mask="url(#h)"/>
            <path fill="#40A0FF" d="M46.91 62.44c-6.505-3.748-9.757-8.664-9.763-13.591-.006-4.977 3.3-9.966 9.912-13.775 13.157-7.58 34.423-7.619 47.498-.085 6.505 3.747 9.757 8.663 9.763 13.59.006 4.977-3.3 9.966-9.912 13.775-13.157 7.581-34.423 7.62-47.498.086" mask="url(#h)"/>
            <path fill="#1A82FF" d="M70.523 64.064c-8.24 0-15.913-1.807-21.608-5.088-4.999-2.88-7.754-6.479-7.759-10.132-.004-3.651 2.878-7.408 7.908-10.305 5.791-3.337 13.562-5.175 21.88-5.175 8.239 0 15.913 1.807 21.609 5.09 4.998 2.88 7.754 6.477 7.758 10.13.004 3.652-2.878 7.408-7.907 10.306-5.792 3.337-13.563 5.174-21.881 5.174" mask="url(#h)"/>
            <path fill="#0F7CE8" d="M49.064 39.339c5.791-3.337 13.562-5.175 21.88-5.175 8.239 0 15.913 1.807 21.609 5.09 4.816 2.775 7.542 6.216 7.738 9.73.008-.133.02-.266.02-.4-.004-3.653-2.76-7.25-7.758-10.131-5.696-3.281-13.37-5.089-21.608-5.089-8.319 0-16.09 1.838-21.881 5.175-5.03 2.897-7.912 6.653-7.908 10.305 0 .133.012.266.02.399.198-3.524 3.042-7.113 7.888-9.904" mask="url(#h)"/>
            <path fill="#FFF" d="M67.086 56.388l.021-3.864a16.772 16.772 0 0 1-2.378-1.136c-4.229-2.437-4.755-5.043-1.407-6.971 1.396-.805 3.018-1.228 4.752-1.253l-.072 13.387c.86.137 1.73.228 2.6.268.367.016.728.02 1.088.02l.142-.001c.105-.001.212 0 .317-.002v-.003c3.26-.072 6.264-.849 8.757-2.285 2.882-1.66 4.24-3.71 3.927-5.928-.294-2.086-2.095-4.179-5.072-5.894-1.977-1.139-4.245-1.977-6.606-2.463l-.02 3.885c.753.3 1.507.664 2.256 1.096 1.946 1.121 3.122 2.258 3.493 3.378.436 1.313-.275 2.55-2.056 3.576-1.387.799-2.975 1.213-4.66 1.253l.072-13.36a23.362 23.362 0 0 0-2.707-.286c-.181-.009-.361-.013-.54-.017h-.006a21.837 21.837 0 0 0-.62-.006h-.274v.005c-3.295.053-6.33.83-8.849 2.28-2.883 1.661-4.246 3.714-3.942 5.936.287 2.093 2.083 4.189 5.057 5.902 2.008 1.157 4.32 2.003 6.727 2.483" mask="url(#h)"/>
        </g>
        <g>
            <g transform="translate(33.163 24.926)">
                <mask id="j" fill="#fff">
                    <use xlink:href="#i"/>
                </mask>
                <path fill="#111D28" fill-opacity=".2" d="M9.946 33.084C3.441 29.336.19 24.42.183 19.493c-.005-4.977 3.3-9.966 9.912-13.775 13.157-7.58 34.423-7.62 47.498-.086 6.505 3.748 9.757 8.664 9.763 13.591.006 4.977-3.3 9.966-9.912 13.775-13.157 7.58-34.423 7.62-47.498.086" mask="url(#j)"/>
            </g>
            <mask id="l" fill="#fff">
                <use xlink:href="#k"/>
            </mask>
            <path fill="#1A82FF" d="M100.52 34.836v5.87c.005 4.976-3.3 9.965-9.912 13.774-13.158 7.58-34.423 7.619-47.498.086-6.505-3.748-9.758-8.664-9.763-13.592v-6.138h67.172z" mask="url(#l)"/>
            <path fill="#40A0FF" d="M43.11 48.696c-6.505-3.748-9.758-8.664-9.763-13.591-.006-4.977 3.3-9.966 9.911-13.775 13.158-7.58 34.423-7.62 47.498-.086 6.505 3.748 9.758 8.664 9.763 13.592.006 4.976-3.3 9.965-9.911 13.774-13.157 7.58-34.423 7.62-47.498.086" mask="url(#l)"/>
            <path fill="#1A82FF" d="M66.722 50.32c-8.239 0-15.912-1.807-21.608-5.089-4.998-2.88-7.754-6.478-7.758-10.131-.004-3.652 2.878-7.408 7.907-10.305 5.792-3.337 13.563-5.175 21.881-5.175 8.238 0 15.913 1.807 21.608 5.089 4.999 2.88 7.754 6.478 7.758 10.131.005 3.652-2.877 7.408-7.906 10.306-5.792 3.337-13.564 5.174-21.882 5.174" mask="url(#l)"/>
            <path fill="#0F7CE8" d="M45.263 25.595c5.792-3.338 13.563-5.175 21.881-5.175 8.238 0 15.913 1.807 21.608 5.089 4.816 2.775 7.542 6.217 7.74 9.732.007-.134.018-.267.018-.4-.004-3.654-2.76-7.252-7.758-10.132-5.695-3.282-13.37-5.089-21.608-5.089-8.318 0-16.089 1.838-21.88 5.175-5.03 2.897-7.913 6.653-7.909 10.305 0 .133.012.266.02.398.198-3.523 3.043-7.112 7.888-9.903" mask="url(#l)"/>
            <path fill="#FFF" d="M63.286 42.644l.02-3.864a16.779 16.779 0 0 1-2.378-1.136c-4.228-2.437-4.754-5.043-1.406-6.972 1.396-.804 3.018-1.227 4.752-1.252L64.2 42.807c.861.137 1.731.228 2.601.268.366.016.728.02 1.088.02l.141-.001c.106-.001.213 0 .318-.002v-.003c3.26-.072 6.263-.849 8.757-2.286 2.881-1.66 4.24-3.71 3.926-5.927-.294-2.086-2.095-4.179-5.071-5.894-1.977-1.139-4.245-1.977-6.606-2.463l-.021 3.885c.754.299 1.508.664 2.257 1.096 1.946 1.121 3.121 2.258 3.493 3.377.435 1.314-.276 2.55-2.057 3.577-1.386.799-2.974 1.213-4.66 1.253l.073-13.36a23.362 23.362 0 0 0-2.708-.287c-.18-.008-.36-.012-.54-.016h-.005a21.832 21.832 0 0 0-.62-.006h-.275v.004c-3.294.054-6.33.83-8.848 2.28-2.884 1.662-4.247 3.715-3.942 5.937.287 2.093 2.083 4.189 5.056 5.902 2.009 1.157 4.32 2.003 6.728 2.483" mask="url(#l)"/>
        </g>
        <g>
            <g transform="translate(39.46 17.176)">
                <mask id="n" fill="#fff">
                    <use xlink:href="#m"/>
                </mask>
                <path fill="#111D28" fill-opacity=".2" d="M9.83 33.125C3.323 29.378.071 24.461.065 19.535c-.006-4.978 3.3-9.967 9.912-13.776C23.135-1.82 44.4-1.86 57.476 5.674c6.505 3.747 9.757 8.663 9.763 13.591.005 4.977-3.3 9.965-9.912 13.775-13.157 7.58-34.423 7.619-47.498.085" mask="url(#n)"/>
            </g>
            <mask id="p" fill="#fff">
                <use xlink:href="#o"/>
            </mask>
            <path fill="#1A82FF" d="M106.7 27.127v5.87c.005 4.976-3.301 9.965-9.913 13.774-13.157 7.58-34.423 7.62-47.498.086-6.505-3.748-9.757-8.664-9.763-13.592v-6.138H106.7z" mask="url(#p)"/>
            <path fill="#40A0FF" d="M49.29 40.988c-6.506-3.748-9.758-8.664-9.764-13.592-.005-4.977 3.3-9.966 9.912-13.775 13.157-7.58 34.423-7.618 47.498-.085 6.505 3.748 9.757 8.664 9.763 13.591.006 4.977-3.3 9.966-9.912 13.775-13.157 7.58-34.422 7.619-47.498.086" mask="url(#p)"/>
            <path fill="#1A82FF" d="M72.902 42.612c-8.239 0-15.912-1.807-21.608-5.09-4.999-2.88-7.754-6.477-7.759-10.131-.004-3.651 2.878-7.407 7.908-10.305 5.792-3.337 13.562-5.175 21.88-5.175 8.239 0 15.913 1.808 21.609 5.09 4.999 2.88 7.754 6.478 7.758 10.13.005 3.652-2.878 7.408-7.907 10.306-5.792 3.337-13.563 5.175-21.881 5.175" mask="url(#p)"/>
            <path fill="#0F7CE8" d="M51.443 17.886c5.792-3.337 13.562-5.174 21.88-5.174 8.239 0 15.913 1.807 21.609 5.088 4.816 2.776 7.542 6.218 7.739 9.732.007-.133.019-.267.019-.4-.004-3.653-2.76-7.251-7.758-10.132-5.696-3.281-13.37-5.089-21.608-5.089-8.319 0-16.09 1.838-21.881 5.175-5.03 2.898-7.912 6.654-7.908 10.305 0 .133.012.266.02.4.198-3.525 3.042-7.113 7.888-9.905" mask="url(#p)"/>
            <path fill="#FFF" d="M69.466 34.935l.02-3.864a16.767 16.767 0 0 1-2.378-1.136c-4.228-2.436-4.754-5.042-1.407-6.971 1.397-.805 3.018-1.227 4.752-1.252l-.072 13.387a23.44 23.44 0 0 0 2.601.267c.366.017.727.02 1.087.02v.001l.142-.002c.106-.001.212 0 .318-.002v-.003c3.26-.071 6.263-.849 8.756-2.285 2.882-1.66 4.24-3.71 3.927-5.928-.294-2.086-2.095-4.179-5.071-5.893-1.978-1.14-4.246-1.978-6.606-2.463l-.021 3.884c.754.3 1.507.665 2.257 1.096 1.946 1.122 3.121 2.258 3.492 3.378.436 1.314-.275 2.55-2.056 3.576-1.386.799-2.975 1.214-4.66 1.254l.072-13.36a23.362 23.362 0 0 0-2.707-.287 22.17 22.17 0 0 0-.54-.017h-.006a21.988 21.988 0 0 0-.62-.006h-.274v.005c-3.294.053-6.33.83-8.849 2.28-2.883 1.662-4.246 3.714-3.941 5.937.287 2.092 2.082 4.188 5.056 5.901 2.008 1.158 4.32 2.004 6.728 2.483" mask="url(#p)"/>
        </g>
        <g>
            <g transform="translate(33.163 9.426)">
                <mask id="r" fill="#fff">
                    <use xlink:href="#q"/>
                </mask>
                <path fill="#111D28" fill-opacity=".2" d="M9.946 33.167C3.441 29.419.19 24.503.183 19.575.178 14.6 3.483 9.61 10.095 5.801c13.157-7.58 34.423-7.62 47.498-.086 6.505 3.748 9.757 8.664 9.763 13.592.006 4.976-3.3 9.965-9.912 13.774-13.157 7.58-34.423 7.62-47.498.086" mask="url(#r)"/>
            </g>
            <mask id="t" fill="#fff">
                <use xlink:href="#s"/>
            </mask>
            <path fill="#1A82FF" d="M100.52 19.419v5.87c.005 4.976-3.3 9.965-9.912 13.774-13.158 7.58-34.423 7.619-47.498.085-6.505-3.747-9.758-8.664-9.763-13.59v-6.14h67.172z" mask="url(#t)"/>
            <path fill="#40A0FF" d="M43.11 33.279c-6.505-3.748-9.758-8.664-9.763-13.591-.006-4.977 3.3-9.966 9.911-13.775 13.158-7.58 34.423-7.62 47.498-.086 6.505 3.748 9.758 8.664 9.763 13.592.006 4.976-3.3 9.965-9.911 13.774-13.157 7.58-34.423 7.62-47.498.086" mask="url(#t)"/>
            <path fill="#1A82FF" d="M66.722 34.903c-8.239 0-15.912-1.807-21.608-5.089-4.998-2.88-7.754-6.478-7.758-10.132-.004-3.65 2.878-7.407 7.907-10.304 5.792-3.337 13.563-5.175 21.881-5.175 8.238 0 15.913 1.807 21.608 5.089 4.999 2.88 7.754 6.478 7.758 10.131.005 3.652-2.877 7.408-7.906 10.306-5.792 3.337-13.564 5.174-21.882 5.174" mask="url(#t)"/>
            <path fill="#0F7CE8" d="M45.263 10.178c5.792-3.337 13.563-5.175 21.881-5.175 8.238 0 15.913 1.807 21.608 5.089 4.816 2.775 7.542 6.217 7.74 9.732.007-.134.018-.268.018-.4-.004-3.654-2.76-7.252-7.758-10.132-5.695-3.282-13.37-5.09-21.608-5.09-8.318 0-16.089 1.838-21.88 5.176-5.03 2.897-7.913 6.653-7.909 10.305 0 .133.012.266.02.399.198-3.524 3.043-7.113 7.888-9.904" mask="url(#t)"/>
            <path fill="#FFF" d="M63.286 27.226l.02-3.863a16.779 16.779 0 0 1-2.378-1.137c-4.228-2.436-4.754-5.042-1.406-6.97 1.396-.805 3.018-1.228 4.752-1.253L64.2 27.39c.861.137 1.731.228 2.601.267.366.017.728.021 1.088.02v.002l.141-.003.318-.001v-.004c3.26-.07 6.263-.848 8.757-2.285 2.881-1.66 4.24-3.71 3.926-5.927-.294-2.086-2.095-4.179-5.071-5.894-1.977-1.14-4.245-1.977-6.606-2.463l-.021 3.885c.754.299 1.508.664 2.257 1.096 1.946 1.121 3.121 2.257 3.493 3.377.435 1.314-.276 2.55-2.057 3.577-1.386.799-2.974 1.213-4.66 1.253l.073-13.36a23.358 23.358 0 0 0-2.708-.287c-.18-.008-.36-.012-.54-.016h-.005a22.556 22.556 0 0 0-.62-.006h-.275v.004c-3.294.053-6.33.83-8.848 2.28-2.884 1.662-4.247 3.715-3.942 5.937.287 2.093 2.083 4.189 5.056 5.902 2.009 1.157 4.32 2.003 6.728 2.482" mask="url(#t)"/>
        </g>
        <g>
            <g transform="translate(72.554 84.949)">
                <mask id="v" fill="#fff">
                    <use xlink:href="#u"/>
                </mask>
                <path fill="#111D28" fill-opacity=".2" d="M9.86 33.09C3.363 29.344.114 24.434.108 19.512.1 14.54 3.404 9.558 10.009 5.753c13.145-7.573 34.39-7.61 47.453-.086 6.499 3.744 9.748 8.655 9.753 13.577.006 4.971-3.297 9.955-9.902 13.76-13.144 7.572-34.39 7.61-47.452.085" mask="url(#v)"/>
            </g>
            <mask id="x" fill="#fff">
                <use xlink:href="#w"/>
            </mask>
            <path fill="#1A82FF" d="M139.77 94.89v5.862c.006 4.972-3.297 9.955-9.902 13.76-13.145 7.573-34.39 7.611-47.453.086-6.499-3.744-9.748-8.655-9.754-13.577V94.89h67.109z" mask="url(#x)"/>
            <path fill="#40A0FF" d="M82.415 108.735c-6.499-3.744-9.748-8.655-9.754-13.577-.005-4.972 3.297-9.955 9.902-13.76 13.145-7.572 34.39-7.61 47.453-.085 6.499 3.743 9.748 8.654 9.754 13.576.005 4.972-3.297 9.955-9.902 13.76-13.145 7.573-34.39 7.611-47.453.086" mask="url(#x)"/>
            <path fill="#1A82FF" d="M106.005 110.357c-8.231 0-15.897-1.805-21.587-5.083-4.994-2.877-7.747-6.471-7.752-10.121-.004-3.647 2.876-7.4 7.9-10.294 5.787-3.333 13.55-5.169 21.86-5.169 8.23 0 15.898 1.805 21.588 5.083 4.994 2.878 7.747 6.472 7.75 10.12.005 3.649-2.874 7.4-7.899 10.295-5.786 3.334-13.55 5.17-21.86 5.17" mask="url(#x)"/>
            <path fill="#0F7CE8" d="M84.566 85.658c5.787-3.333 13.55-5.169 21.86-5.169 8.23 0 15.898 1.806 21.588 5.084 4.811 2.772 7.535 6.21 7.731 9.721.008-.134.02-.267.02-.4-.004-3.65-2.757-7.243-7.751-10.12-5.69-3.279-13.357-5.084-21.587-5.084-8.311 0-16.074 1.835-21.86 5.17-5.025 2.894-7.905 6.645-7.9 10.293 0 .133.01.266.018.399.199-3.52 3.04-7.105 7.881-9.894" mask="url(#x)"/>
            <path fill="#FFF" d="M102.572 102.689l.02-3.86a16.764 16.764 0 0 1-2.376-1.135c-4.224-2.434-4.75-5.037-1.405-6.963 1.395-.804 3.015-1.226 4.748-1.251l-.073 13.372c.86.137 1.73.228 2.6.267.364.017.726.021 1.085.02v.002c.048 0 .094-.002.142-.003.105 0 .212 0 .317-.002v-.003c3.257-.07 6.257-.847 8.748-2.282 2.88-1.659 4.236-3.706 3.923-5.922-.293-2.083-2.093-4.174-5.066-5.887-1.976-1.138-4.241-1.975-6.6-2.46l-.02 3.88c.752.3 1.505.664 2.254 1.095 1.944 1.12 3.118 2.255 3.49 3.374.435 1.312-.276 2.548-2.055 3.572-1.385.799-2.972 1.213-4.656 1.253l.073-13.346c-.895-.147-1.8-.244-2.705-.287-.181-.008-.36-.012-.54-.016h-.005a22.536 22.536 0 0 0-.62-.006h-.274v.004c-3.29.054-6.324.83-8.84 2.279-2.88 1.66-4.242 3.71-3.938 5.93.287 2.09 2.08 4.183 5.052 5.895 2.006 1.156 4.315 2 6.72 2.48" mask="url(#x)"/>
        </g>
        <g>
            <g transform="translate(3.358 71.426)">
                <mask id="z" fill="#fff">
                    <use xlink:href="#y"/>
                </mask>
                <path fill="#111D28" fill-opacity=".2" d="M9.97 33.22C3.465 29.472.213 24.556.207 19.63c-.006-4.977 3.3-9.966 9.912-13.775 13.157-7.58 34.422-7.619 47.498-.085 6.505 3.747 9.757 8.663 9.763 13.59.005 4.978-3.3 9.966-9.912 13.775-13.157 7.581-34.423 7.62-47.498.086" mask="url(#z)"/>
            </g>
            <mask id="B" fill="#fff">
                <use xlink:href="#A"/>
            </mask>
            <path fill="#1A82FF" d="M70.738 81.472v5.87c.006 4.976-3.3 9.965-9.912 13.774-13.157 7.58-34.423 7.619-47.498.086-6.505-3.748-9.757-8.664-9.763-13.592v-6.138h67.173z" mask="url(#B)"/>
            <path fill="#40A0FF" d="M13.328 95.332c-6.505-3.748-9.757-8.664-9.763-13.591-.006-4.977 3.3-9.966 9.912-13.775 13.157-7.58 34.423-7.619 47.498-.085 6.505 3.747 9.757 8.663 9.763 13.59.006 4.978-3.3 9.966-9.912 13.776-13.157 7.58-34.423 7.619-47.498.085" mask="url(#B)"/>
            <path fill="#1A82FF" d="M36.94 96.957c-8.238 0-15.912-1.808-21.607-5.09-4.999-2.88-7.754-6.477-7.76-10.131-.003-3.651 2.88-7.408 7.909-10.305 5.791-3.337 13.562-5.175 21.88-5.175 8.239 0 15.913 1.807 21.609 5.09 4.998 2.88 7.754 6.477 7.758 10.13.004 3.652-2.878 7.408-7.907 10.306-5.792 3.337-13.563 5.175-21.881 5.175" mask="url(#B)"/>
            <path fill="#0F7CE8" d="M15.482 72.231c5.792-3.337 13.562-5.175 21.88-5.175 8.239 0 15.913 1.808 21.609 5.09 4.816 2.775 7.542 6.216 7.739 9.731.007-.134.019-.267.019-.4-.004-3.654-2.76-7.251-7.758-10.132-5.696-3.281-13.37-5.089-21.608-5.089-8.319 0-16.09 1.838-21.881 5.175-5.03 2.897-7.912 6.653-7.908 10.305 0 .133.012.266.02.399.198-3.524 3.042-7.112 7.888-9.904" mask="url(#B)"/>
            <path fill="#FFF" d="M33.504 89.28l.021-3.864a16.779 16.779 0 0 1-2.378-1.136c-4.229-2.437-4.755-5.043-1.407-6.971 1.396-.805 3.018-1.228 4.752-1.253l-.072 13.387a23.44 23.44 0 0 0 2.601.268c.366.016.727.02 1.087.02v.001l.142-.002c.105-.001.212 0 .317-.002v-.003c3.26-.071 6.264-.849 8.757-2.285 2.882-1.66 4.24-3.71 3.927-5.928-.294-2.086-2.095-4.179-5.072-5.894-1.977-1.139-4.245-1.977-6.605-2.462l-.022 3.884a17.3 17.3 0 0 1 2.257 1.096c1.947 1.121 3.122 2.258 3.493 3.378.436 1.313-.275 2.55-2.056 3.576-1.387.799-2.975 1.213-4.66 1.253l.072-13.36a23.362 23.362 0 0 0-2.707-.286c-.181-.009-.36-.013-.54-.017h-.006a22.555 22.555 0 0 0-.62-.006h-.274v.005c-3.294.053-6.33.83-8.849 2.28-2.883 1.662-4.246 3.714-3.942 5.936.287 2.093 2.083 4.189 5.057 5.902 2.008 1.157 4.32 2.003 6.727 2.483" mask="url(#B)"/>
        </g>
        <g>
            <g transform="translate(0 62.628)">
                <mask id="D" fill="#fff">
                    <use xlink:href="#C"/>
                </mask>
                <path fill="#111D28" fill-opacity=".2" d="M9.763 33.123C3.258 29.375.006 24.459 0 19.53c-.006-4.976 3.3-9.965 9.912-13.774 13.157-7.58 34.423-7.62 47.498-.086 6.505 3.748 9.757 8.664 9.763 13.591.005 4.977-3.3 9.966-9.912 13.775-13.157 7.58-34.423 7.62-47.498.086" mask="url(#D)"/>
            </g>
            <mask id="F" fill="#fff">
                <use xlink:href="#E"/>
            </mask>
            <path fill="#1A82FF" d="M67.173 72.577v5.87c.005 4.977-3.3 9.965-9.912 13.775-13.157 7.58-34.423 7.618-47.498.085C3.258 88.56.006 83.643 0 78.716v-6.139h67.173z" mask="url(#F)"/>
            <path fill="#40A0FF" d="M9.763 86.438C3.258 82.69.006 77.774 0 72.846c-.006-4.977 3.3-9.965 9.912-13.774 13.157-7.58 34.423-7.62 47.498-.086 6.505 3.748 9.757 8.664 9.763 13.591.005 4.977-3.3 9.966-9.912 13.775-13.157 7.58-34.423 7.62-47.498.086" mask="url(#F)"/>
            <path fill="#1A82FF" d="M33.375 88.062c-8.238 0-15.912-1.807-21.607-5.089-5-2.88-7.755-6.478-7.76-10.132-.003-3.651 2.88-7.407 7.908-10.305 5.792-3.337 13.563-5.174 21.882-5.174 8.238 0 15.912 1.807 21.607 5.089 5 2.88 7.755 6.478 7.759 10.13.004 3.652-2.878 7.408-7.907 10.306-5.792 3.337-13.564 5.175-21.882 5.175" mask="url(#F)"/>
            <path fill="#0F7CE8" d="M11.916 63.336C17.708 60 25.48 58.162 33.798 58.162c8.238 0 15.912 1.807 21.607 5.089 4.817 2.775 7.543 6.217 7.74 9.731.007-.133.019-.267.019-.4-.004-3.653-2.76-7.251-7.759-10.131-5.695-3.282-13.37-5.09-21.607-5.09-8.32 0-16.09 1.838-21.882 5.175-5.029 2.898-7.911 6.654-7.907 10.305 0 .134.011.266.019.4.199-3.524 3.043-7.113 7.888-9.905" mask="url(#F)"/>
            <path fill="#FFF" d="M29.94 80.385l.02-3.864a16.779 16.779 0 0 1-2.379-1.136c-4.228-2.436-4.754-5.042-1.406-6.971 1.396-.804 3.018-1.227 4.752-1.252l-.073 13.387a23.44 23.44 0 0 0 2.602.267c.365.017.727.021 1.087.02v.001l.142-.002c.105 0 .212 0 .317-.002v-.003c3.26-.071 6.264-.848 8.757-2.285 2.882-1.66 4.24-3.71 3.927-5.928-.294-2.085-2.096-4.178-5.072-5.893-1.977-1.14-4.245-1.978-6.606-2.463l-.02 3.885c.753.299 1.507.664 2.256 1.096 1.946 1.12 3.122 2.257 3.493 3.377.436 1.314-.276 2.55-2.056 3.576-1.387.8-2.975 1.214-4.66 1.254l.072-13.36a23.362 23.362 0 0 0-2.707-.287c-.181-.009-.361-.013-.541-.017h-.005a22.639 22.639 0 0 0-.62-.005h-.275v.004c-3.294.053-6.33.83-8.848 2.28-2.883 1.662-4.246 3.715-3.942 5.937.287 2.092 2.083 4.188 5.057 5.902 2.008 1.157 4.32 2.003 6.727 2.482" mask="url(#F)"/>
        </g>
        <g>
            <g transform="translate(6.927 53.622)">
                <mask id="H" fill="#fff">
                    <use xlink:href="#G"/>
                </mask>
                <path fill="#111D28" fill-opacity=".2" d="M9.967 33.235C3.462 29.487.21 24.57.204 19.644c-.006-4.977 3.3-9.966 9.912-13.775 13.157-7.58 34.422-7.619 47.498-.086 6.505 3.748 9.757 8.664 9.763 13.592.005 4.976-3.3 9.965-9.912 13.774-13.157 7.581-34.423 7.62-47.498.086" mask="url(#H)"/>
            </g>
            <mask id="J" fill="#fff">
                <use xlink:href="#I"/>
            </mask>
            <path fill="#1A82FF" d="M74.303 63.683v5.869c.006 4.977-3.3 9.966-9.912 13.775-13.157 7.58-34.422 7.619-47.498.085-6.505-3.747-9.757-8.663-9.763-13.59v-6.14h67.173z" mask="url(#J)"/>
            <path fill="#40A0FF" d="M16.893 77.543C10.39 73.795 7.136 68.88 7.13 63.952c-.005-4.977 3.3-9.966 9.912-13.775 13.157-7.58 34.423-7.619 47.498-.086 6.505 3.748 9.757 8.664 9.763 13.592.006 4.977-3.3 9.965-9.912 13.775-13.157 7.58-34.422 7.618-47.498.085" mask="url(#J)"/>
            <path fill="#1A82FF" d="M40.506 79.167c-8.239 0-15.912-1.807-21.608-5.089-4.999-2.88-7.754-6.478-7.759-10.132-.004-3.65 2.879-7.407 7.908-10.304 5.792-3.337 13.562-5.175 21.881-5.175 8.238 0 15.912 1.807 21.608 5.089 4.999 2.88 7.754 6.478 7.758 10.131.005 3.652-2.878 7.408-7.907 10.306-5.792 3.337-13.563 5.174-21.881 5.174" mask="url(#J)"/>
            <path fill="#0F7CE8" d="M19.047 54.442c5.792-3.337 13.562-5.175 21.881-5.175 8.238 0 15.912 1.808 21.608 5.09 4.816 2.774 7.542 6.216 7.739 9.73.007-.133.019-.267.019-.4-.004-3.653-2.76-7.25-7.758-10.131-5.696-3.282-13.37-5.089-21.608-5.089-8.319 0-16.09 1.837-21.881 5.175-5.03 2.897-7.912 6.653-7.908 10.305 0 .133.012.266.02.399.198-3.524 3.043-7.113 7.888-9.904" mask="url(#J)"/>
            <path fill="#FFF" d="M37.07 71.49l.02-3.863a16.776 16.776 0 0 1-2.378-1.137c-4.228-2.436-4.754-5.042-1.407-6.97 1.397-.805 3.018-1.228 4.753-1.253l-.073 13.387c.861.137 1.731.228 2.601.267.366.017.727.021 1.087.02v.002l.142-.002c.106-.001.212 0 .318-.002v-.003c3.26-.072 6.263-.849 8.756-2.285 2.882-1.66 4.24-3.71 3.927-5.928-.294-2.086-2.095-4.179-5.071-5.894-1.978-1.139-4.246-1.977-6.606-2.463l-.021 3.885c.754.299 1.507.664 2.257 1.096 1.946 1.121 3.121 2.258 3.492 3.378.436 1.313-.275 2.55-2.056 3.576-1.386.799-2.975 1.213-4.66 1.253l.073-13.36a23.362 23.362 0 0 0-2.708-.287 22.17 22.17 0 0 0-.54-.016h-.006a22.556 22.556 0 0 0-.62-.006h-.274v.004c-3.294.054-6.33.83-8.849 2.281-2.883 1.661-4.246 3.714-3.941 5.936.287 2.093 2.082 4.189 5.056 5.902 2.008 1.157 4.32 2.003 6.728 2.482" mask="url(#J)"/>
        </g>
    </g>
</svg>
