<svg xmlns="http://www.w3.org/2000/svg" width="112" height="37" viewBox="0 0 112 37">
    <path fill="#FFF" fill-opacity=".7" fill-rule="evenodd" d="M57.039 14.971c-.444 0-.476.034-.473.465.002.248.002.497-.002.745-.006.343.043.401.391.403.635.003 1.27 0 1.904 0 .478 0 .5.02.5.495-.002 2.068 0 4.137-.007 6.206-.001.235.083.337.32.333.442-.007.884 0 1.325-.002.338-.002.37-.042.37-.387-.002-2.088-.003-4.175-.002-6.262 0-.35.054-.39.404-.387.662.006 1.324.007 1.986.004.302-.002.365-.08.36-.385-.006-.257-.01-.515-.004-.772.01-.407-.033-.455-.452-.456h-6.62zm40.177.105c-.725.202-1.33.618-1.68 1.326-.65 1.323-.14 2.772 1.337 3.261.53.176 1.077.302 1.612.465.42.129.841.26 1.244.43.27.114.517.288.524.644.006.351-.19.554-.47.717-.396.231-.834.213-1.262.211a4.618 4.618 0 0 1-2.436-.68c-.158-.097-.343-.181-.46.074-.141.308-.288.615-.425.925-.072.162-.09.33.082.443.152.101.31.2.478.271 1.219.521 2.484.723 3.8.508 1.112-.181 2.054-.616 2.528-1.74.274-.647.21-1.766-.426-2.356-.456-.423-.995-.646-1.571-.815-.757-.22-1.52-.42-2.273-.656-.537-.17-.731-.748-.391-1.168.136-.168.351-.313.558-.373.804-.23 1.598-.116 2.374.16.224.08.435.198.663.264.09.026.272-.01.302-.072.177-.362.327-.737.473-1.113.067-.175-.02-.281-.187-.369-.781-.41-1.627-.55-2.753-.65-.382.065-1.028.122-1.641.293zm-8.194 5.18c-.36-.003-.405-.055-.283-.383.164-.437.345-.868.523-1.3.171-.414.342-.829.525-1.239.037-.082.125-.142.19-.212.051.079.116.152.153.238.335.792.661 1.589 1 2.38.175.404.112.519-.317.515h-.166l-.716-.001v.002h-.909zm5.433 3.36c.302-.005.348-.1.214-.38-.205-.43-.403-.863-.598-1.298-.33-.736-.655-1.476-.984-2.212-.408-.913-.82-1.825-1.227-2.738-.25-.56-.498-1.123-.745-1.686-.103-.234-.257-.353-.534-.337-.395.023-.791.006-1.187.006-.389 0-.478.06-.614.418-.027.07-.047.14-.078.207-.553 1.23-1.11 2.458-1.661 3.688-.594 1.322-1.182 2.647-1.774 3.97-.12.265-.07.358.22.361.478.005.956-.002 1.434.003.17.002.271-.059.337-.22.187-.459.392-.91.58-1.369.072-.178.186-.255.377-.255 1.15.003 2.3.002 3.45 0 .22 0 .349.094.427.31.145.406.322.8.482 1.2.092.227.232.36.501.337.22-.02.441-.004.662-.004.24 0 .478.003.718 0zm-26.718-3.362c-.221 0-.31-.092-.22-.31l.824-2.008c.09-.22.176-.443.278-.658.031-.064.112-.104.17-.156.041.055.097.104.123.166.348.827.69 1.656 1.037 2.484.158.375.089.485-.312.484h-.909v-.002h-.991zm1.01 1.52c.561 0 1.123.004 1.684-.001.24-.002.387.083.472.327.14.407.321.8.483 1.2.089.217.227.332.483.322.45-.018.901-.003 1.352-.006.345-.001.39-.09.246-.394-.279-.588-.545-1.182-.812-1.776-.334-.745-.663-1.492-.996-2.238l-1.009-2.261c-.247-.553-.493-1.106-.738-1.66-.1-.224-.252-.334-.515-.322-.413.02-.829.02-1.242 0-.287-.013-.44.118-.549.362-.508 1.149-1.021 2.296-1.533 3.444l-2.008 4.498c-.111.248-.058.343.215.346.488.006.976.014 1.462-.008a.427.427 0 0 0 .305-.204c.21-.438.4-.887.577-1.34.09-.228.238-.295.468-.29.552.009 1.104.002 1.655.002zm-19.576 1.489c-.001.245.078.356.33.355 2.023-.003 4.046-.004 6.07.001.23 0 .31-.096.3-.317-.01-.294-.003-.588-.003-.882 0-.358-.039-.4-.39-.4l-3.918.004c-.317 0-.388-.067-.392-.389-.004-.386 0-.772-.002-1.159-.001-.409.047-.458.459-.458 1.048.002 2.096.003 3.145.002.357 0 .413-.057.417-.417.003-.24.001-.478.001-.717 0-.375-.056-.436-.429-.435-1.066.002-2.133.007-3.2.012-.293.002-.385-.076-.39-.367-.008-.367-.002-.735-.002-1.103 0-.4.037-.434.445-.433 1.233.002 2.465.002 3.697.001.351 0 .388-.044.386-.404-.001-.276-.008-.552.004-.828.012-.262-.1-.361-.359-.36-1.93.004-3.862.001-5.793.003-.312 0-.372.067-.372.373v3.945c0 1.324.005 2.649-.004 3.973zm27.364-4.496c.085.113.18.218.254.338.683 1.12 1.36 2.245 2.045 3.366a.53.53 0 0 0 .209.206.83.83 0 0 0 1.04-.324c.68-1.144 1.353-2.293 2.033-3.437.042-.07.124-.118.187-.176.038.084.083.166.11.253.016.05.001.11.001.164 0 1.38.002 2.759-.004 4.138 0 .226.097.32.312.32h1.324c.214.002.285-.107.284-.312-.012-2.666-.02-5.333-.025-8 0-.24-.115-.33-.337-.33-.321 0-.644.014-.965-.007-.266-.016-.428.094-.557.313-.688 1.172-1.382 2.34-2.073 3.509-.239.403-.472.809-.712 1.21-.136.226-.279.245-.39.06-.963-1.606-1.928-3.21-2.887-4.82-.105-.176-.241-.268-.445-.267-.34.001-.68.006-1.02-.002-.258-.005-.358.106-.357.366.005 2.648.005 5.297 0 7.945-.001.234.082.34.318.337.414-.004.828-.006 1.241.001.224.004.31-.087.309-.313a772.75 772.75 0 0 1-.017-4.248c0-.087.022-.173.033-.26l.089-.03zm-37.312 0c.086.114.182.22.255.34.683 1.122 1.361 2.245 2.043 3.367.204.337.928.367 1.139.033.367-.582.715-1.176 1.066-1.768.37-.624.733-1.252 1.104-1.875.033-.054.108-.083.163-.123.037.066.08.13.107.2.015.04.004.09.004.137-.001 1.397.002 2.795-.007 4.192-.001.255.104.35.343.347a64.39 64.39 0 0 1 1.27 0c.22.002.31-.091.308-.317-.013-2.666-.02-5.333-.026-8 0-.221-.097-.324-.311-.325-.322-.003-.645.013-.966-.009-.273-.018-.447.083-.584.315-.686 1.173-1.381 2.34-2.072 3.51-.238.403-.47.809-.713 1.21-.145.242-.28.239-.412.004-.09-.16-.184-.317-.279-.475-.858-1.423-1.72-2.843-2.57-4.27-.118-.197-.263-.293-.489-.29a28.36 28.36 0 0 1-.993 0c-.26-.006-.354.11-.354.368.006 2.648.005 5.296 0 7.945 0 .237.088.337.322.334.414-.004.827-.006 1.241.001.226.004.307-.092.305-.316-.01-1.416-.013-2.832-.016-4.248 0-.086.022-.173.035-.26l.087-.026zm-11.835 3.04c.006-.063.05-.155.099-.173.044-.016.136.036.178.083.262.295.518.594.77.897.117.138.115.262-.063.357-.251.132-.494.28-.748.405-.247.122-.364.05-.332-.197.03-.457.058-.915.096-1.371zm-9.868.948c.504-.28 1.01-.557 1.511-.842.392-.223.46-.213.687.17.379.637.757 1.275 1.13 1.916.037.063.035.148.05.223-.076.016-.158.057-.229.044-.332-.064-.662-.144-.993-.218-.949-.21-1.898-.418-2.845-.63-.066-.015-.123-.062-.262-.134l.95-.53zm7.94 13.805c1.567-.117 3.135-.23 4.702-.358a.605.605 0 0 0 .35-.183c.304-.32.595-.652.877-.99.394-.473.823-.925 1.148-1.442.404-.644.714-1.346 1.07-2.02.175-.333.177-.324-.141-.538-.448-.302-.947-.555-1.321-.931-.869-.872-1.68-1.801-2.502-2.72a.677.677 0 0 1-.156-.445c.053-.88.134-1.76.2-2.64.02-.255.067-.52.02-.766-.149-.776-.345-1.543-.502-2.318a3.056 3.056 0 0 1-.061-.818c.05-.687.185-1.372.188-2.059.003-.737.238-1.34.747-1.851.39-.39.578-.833.41-1.39-.173-.571.012-1.007.5-1.349.214-.15.182-.277-.06-.409a11.995 11.995 0 0 0-.592-.297c-.212-.1-.217-.234-.065-.386.13-.13.267-.253.41-.368.19-.154.22-.293.02-.47a4.974 4.974 0 0 1-.597-.611c-.083-.105-.153-.298-.115-.412.331-.974.688-1.939 1.037-2.907.334-.925.665-1.85 1.001-2.775.336-.924.68-1.845 1.013-2.77.038-.103.031-.223.045-.335-.112 0-.23-.023-.336.003-1.62.413-3.24.836-4.86 1.25-1.701.435-3.402.87-5.108 1.287-.523.128-1.06.272-1.592.28-2.041.033-4.083.005-6.125.022-.35.003-.584-.1-.8-.37-1.156-1.453-2.327-2.894-3.49-4.34-.12-.148-.223-.19-.384-.04a837.54 837.54 0 0 1-4.596 4.293c-.46.426-.896.847-1.138 1.458-.464 1.17-.987 2.315-1.473 3.476-.204.489-.428.98-.548 1.491-.122.525-.132 1.076-.183 1.616-.02.21-.12.333-.324.391-.23.066-.457.142-.68.228-.077.03-.185.095-.193.156-.008.064.068.17.136.21.521.31 1.051.606 1.573.914.077.046.128.136.19.205-.078.052-.15.133-.236.15-.316.062-.636.098-.953.156-.061.01-.153.067-.16.112-.007.051.056.126.107.169.055.046.13.067.196.099.382.18.767.355 1.144.547.078.04.126.14.188.211-.066.057-.126.127-.201.17-.176.099-.363.18-.538.28-.237.135-.244.223-.052.42.399.408.792.82 1.196 1.223.144.144.171.292.1.475-.24.606-.475 1.214-.712 1.822-.565 1.446-1.128 2.893-1.697 4.337-.498 1.265-1.006 2.525-1.5 3.791a.58.58 0 0 0-.013.369c.095.276.232.538.338.811.477 1.225.949 2.45 1.423 3.676.338.874.68 1.746 1.012 2.622.09.239.229.294.471.218 1.236-.39 2.475-.768 3.713-1.154 1.974-.616 3.951-1.221 5.918-1.858.767-.248 1.511-.458 2.28-.038.072.04.156.055.234.082 1.628.55 3.258 1.096 4.883 1.653 1.625.557 3.246 1.127 4.87 1.688.093.032.195.037.294.055v-.058zm86.485-12.998c-.724.017-1.449.043-2.173.043-.105 0-.235-.1-.31-.191-.79-.957-1.572-1.92-2.353-2.883-.223-.276-.293-.283-.535-.03-.222.234-.465.45-.662.702a.968.968 0 0 0-.204.514c-.024.523-.01 1.048 0 1.572.005.223-.087.326-.305.326h-1.407c-.208.001-.291-.099-.291-.308.003-2.667.004-5.334 0-8 0-.235.1-.338.33-.336.442.003.883.003 1.325.001.256-.001.352.118.349.377a190.828 190.828 0 0 0-.009 3.145c0 .095.066.19.101.286.082-.05.18-.083.243-.15 1.096-1.152 2.185-2.312 3.287-3.459a.697.697 0 0 1 .432-.191c.513-.024 1.03-.015 1.544-.007.08 0 .16.058.241.089-.04.086-.06.19-.12.255a393.262 393.262 0 0 1-3.031 3.245c-.195.206-.18.338-.006.555 1.048 1.303 2.076 2.622 3.118 3.93.123.153.29.27.436.404v.11z"/>
</svg>
