<svg xmlns="http://www.w3.org/2000/svg" xmlns:xlink="http://www.w3.org/1999/xlink" width="186" height="185" viewBox="0 0 186 185">
    <defs>
        <linearGradient id="cww5p29kja" x1="50.898%" x2="41.036%" y1="79.568%" y2="-11.87%">
            <stop offset=".058%" stop-color="#FFF"/>
            <stop offset="100%" stop-color="#1E313F"/>
        </linearGradient>
        <linearGradient id="lejoll5fhb" x1="48.094%" x2="58.005%" y1="17.958%" y2="112.287%">
            <stop offset=".058%" stop-color="#FFF"/>
            <stop offset="99.67%" stop-color="#4E5A64"/>
        </linearGradient>
        <path id="0iwssjypwc" d="M0 0L35.396 0 35.396 35.396 0 35.396z"/>
    </defs>
    <g fill="none" fill-rule="evenodd">
        <g>
            <g>
                <g>
                    <g>
                        <g fill-rule="nonzero">
                            <g transform="translate(-628 -4677) translate(1 4133) translate(320 238) translate(306.977 305.648)">
                                <circle cx="92.872" cy="93.179" r="92.182" fill="#1E313F" transform="rotate(-.192 92.872 93.179)"/>
                                <path fill="#FFF" d="M150.522 150.445c31.62-31.85 31.467-83.223-.383-114.844-31.85-31.62-83.224-31.467-114.844.383l115.227 114.461z" opacity=".2"/>
                            </g>
                            <g>
                                <path fill="#FAFBFC" d="M50.99 49.689c-.918-.153-1.76-.383-2.603-.536-11.33-2.297-19.523-3.905-19.523-11.79 0-4.9 4.823-8.805 13.475-8.805 7.733 0 13.858 3.139 17.839 9.034l.613.153 12.326-12.633-.077-.459c-4.9-5.819-11.101-9.876-18.221-12.02-.996-.306-1.914-.536-2.91-.766h-.076c-.383-.076-.69-.153-1.072-.23V.46H33.917v11.178c-.536.077-1.072.23-1.608.307h-.076c-7.963 1.914-14.93 6.048-20.366 12.403-2.297 3.828-3.445 8.422-3.445 13.704 0 18.07 13.628 23.811 26.95 27.027 2.45.612 4.9 1.072 7.273 1.455 8.346 1.53 15.542 2.832 15.542 10.336 0 4.67-5.13 10.489-15.848 10.489-6.355 0-11.56-2.144-15.39-6.049-.229-.23-.535-.46-.765-.689L11.637 90.726v.536c2.068 2.45 4.365 4.594 6.815 6.432.842.612 1.684 1.148 2.526 1.684h.077c.842.536 1.76.995 2.603 1.455 0 0 .076 0 .076.076.92.46 1.761.842 2.68 1.225.077 0 .077 0 .153.077.919.383 1.838.689 2.756.995.077 0 .154 0 .154.077.459.153.842.23 1.301.382h.153c.46.154.919.23 1.455.383.076 0 .153 0 .23.077.382.076.842.153 1.225.23v11.178h16.843v-11.179c.307-.076.613-.076.919-.153h.153c1.149-.23 2.297-.536 3.445-.918.536-.154 1.149-.383 1.685-.536 6.201-2.297 11.637-6.125 16.078-11.332 1.684-1.99 3.139-4.057 4.44-6.354.69-2.45.996-5.206.996-8.116.076-19.447-14.624-24.73-27.41-27.256z" transform="translate(-628 -4677) translate(1 4133) translate(320 238) translate(306.977 305.648) translate(50.531 35.219)"/>
                                <path fill="url(#cww5p29kja)" d="M11.714 91.186c-.842-.996-1.608-1.99-2.297-3.063-.306-.46-.612-.918-.919-1.301-.076-.077-.153-.23-.23-.307-.229-.382-.535-.842-.765-1.301l-.23-.46c-.23-.382-.459-.842-.689-1.224l-.23-.46c-.229-.383-.459-.842-.612-1.301-.076-.154-.153-.383-.23-.536-.23-.46-.382-.843-.612-1.302-.077-.153-.153-.306-.23-.536-.153-.46-.383-.919-.536-1.378 0-.077-.076-.23-.076-.306-.383-1.072-.766-2.144-1.072-3.216 0-.076-.077-.153-.077-.306-.076-.383-.23-.766-.306-1.149l-.23-.918c-.076-.383-.153-.69-.23-1.072-.076-.306-.152-.69-.229-.995-.077-.383-.153-.69-.23-1.072l-.23-1.149c-.076-.306-.076-.689-.152-.995-.077-.383-.154-.766-.154-1.225-.076-.306-.076-.613-.153-.995-.076-.46-.076-.843-.153-1.302 0-.306-.076-.612-.076-.919 0-.536-.077-.995-.077-1.53 0-.23 0-.46-.077-.767 0-.765-.076-1.53-.076-2.296 0-.766 0-1.455.076-2.22v-.69c0-.536.077-.995.077-1.531 0-.23.077-.536.077-.766.076-.459.076-.995.153-1.454 0-.23.076-.46.076-.69.077-.612.153-1.148.23-1.684 0-.153 0-.306.077-.383.076-.689.23-1.378.382-2.067.077-.23.077-.46.153-.612.077-.46.23-.919.307-1.378.076-.23.153-.536.153-.766.076-.46.23-.842.306-1.302.077-.23.153-.536.23-.765.153-.46.306-.919.383-1.378.076-.23.153-.383.23-.613l.688-1.837c.077-.23.153-.383.23-.613.153-.46.306-.842.536-1.301.077-.23.23-.46.306-.766.153-.383.306-.69.536-1.072.153-.23.23-.536.383-.766.153-.382.383-.689.536-1.071.153-.23.23-.46.383-.69l.918-1.607c-.689 2.526-.995 5.283-.995 8.192 0 9.953 4.211 17.533 12.556 22.662.46 8.958 3.063 16.002 7.504 20.52L11.714 91.185z" transform="translate(-628 -4677) translate(1 4133) translate(320 238) translate(306.977 305.648) translate(50.531 35.219)"/>
                                <path fill="url(#lejoll5fhb)" d="M60.255 37.592c2.603 3.905 4.287 8.805 4.9 14.7 2.143.995 3.98 2.144 5.665 3.445 6.202 4.824 9.34 11.868 9.34 20.825 0 1.072-.076 2.144-.152 3.216v-.077c.306-.689.612-1.454.842-2.22.076-.23.153-.383.23-.612.153-.536.382-1.072.535-1.608.077-.23.154-.536.23-.766.077-.306.23-.689.306-.995.154-.46.23-.842.383-1.302.077-.306.153-.689.23-.995l.23-1.148c.076-.23.076-.536.153-.766.076-.536.23-1.149.306-1.684 0-.23.077-.46.077-.69l.23-1.837c0-.153 0-.23.076-.383.076-.612.153-1.148.153-1.76 0-.154 0-.307.076-.46.077-.69.077-1.378.154-2.067v-.46c0-.689.076-1.454.076-2.143 0-.766 0-1.532-.076-2.374 0-.23 0-.46-.077-.765 0-.536-.077-1.072-.077-1.532 0-.306-.076-.612-.076-.918-.077-.46-.077-.92-.153-1.379 0-.306-.077-.612-.153-.995-.077-.46-.077-.842-.153-1.301-.077-.307-.077-.69-.154-.996-.076-.383-.153-.842-.23-1.225-.076-.306-.152-.689-.229-.995l-.23-1.149c-.076-.306-.153-.689-.23-.995-.076-.383-.229-.765-.306-1.148-.076-.307-.153-.69-.306-.996-.076-.382-.23-.689-.306-1.071-.077-.307-.23-.69-.306-.996-.153-.383-.23-.689-.383-.995-.153-.306-.23-.69-.383-.995-.153-.307-.23-.69-.383-.996-.153-.306-.306-.689-.383-.995l-.459-.919c-.153-.306-.306-.612-.46-.995l-.459-.919c-.153-.306-.306-.612-.536-.919-.153-.306-.306-.612-.536-.842-.153-.306-.382-.612-.536-.918-.153-.307-.382-.536-.535-.843-.536-.842-1.149-1.684-1.761-2.526-.46-.613-.92-1.149-1.379-1.685l-12.785 13.17z" transform="translate(-628 -4677) translate(1 4133) translate(320 238) translate(306.977 305.648) translate(50.531 35.219)"/>
                            </g>
                        </g>
                        <g transform="translate(-628 -4677) translate(1 4133) translate(320 238) translate(306.977 305.648) translate(127.575 2.658)">
                            <mask id="tw8v8p5mmd" fill="#fff">
                                <use xlink:href="#0iwssjypwc"/>
                            </mask>
                            <path fill="#FFF" d="M35.396 17.697c-12.914 0-17.698 4.21-17.698 17.7 0-13.49-4.784-17.7-17.698-17.7 12.914 0 17.698-4.208 17.698-17.697 0 13.489 4.784 17.697 17.698 17.697" mask="url(#tw8v8p5mmd)"/>
                        </g>
                    </g>
                </g>
            </g>
        </g>
    </g>
</svg>
