<svg xmlns="http://www.w3.org/2000/svg" width="182" height="14" viewBox="0 0 182 14">
    <path fill="#FFF" fill-rule="evenodd" d="M90.792 13.956c.039-.172.11-.345.11-.518.008-2.19.005-4.382.002-6.573 0-.405.01-.422.409-.422 1.167 0 2.334.001 3.5-.002.334 0 .379-.054.377-.38-.002-.379 0-.758-.001-1.138 0-.448-.036-.485-.487-.485-1.148 0-2.296-.003-3.444.005-.255.002-.363-.09-.358-.349.01-.493.001-.986.005-1.48.002-.326.065-.385.38-.385l3.927.002c.626 0 1.252-.001 1.879.001.221.001.373-.072.375-.32.002-.455.014-.91-.007-1.365-.004-.084-.126-.19-.219-.235-.086-.041-.204-.016-.309-.016H82.7c-.066 0-.133.002-.2 0-.218-.006-.303.104-.299.317.008.389.003.778.004 1.167.001.4.06.453.466.453 1.878-.002 3.757-.003 5.636-.003.351 0 .436.086.437.438.002.436-.002.873 0 1.31.002.404-.05.46-.455.46-1.13 0-2.258 0-3.387-.002-.35 0-.414.057-.418.412-.004.379.002.759-.001 1.138-.003.433.017.456.44.457 1.148 0 2.296.002 3.444-.001.25-.001.384.071.383.358-.01 2.078-.004 4.155-.01 6.233-.001.33-.033.661.23.923h1.822zm82.004-5.122v.001h3.13c.308 0 .361-.08.22-.357-.429-.832-.858-1.664-1.293-2.493-.519-.988-1.043-1.973-1.565-2.96-.11-.208-.211-.424-.339-.621-.088-.138-.21-.162-.304.014-.146.275-.296.55-.44.825-.406.77-.805 1.543-1.214 2.31-.512.96-1.035 1.913-1.546 2.873-.167.314-.105.407.25.407 1.034.002 2.068.001 3.101.001zm-8.396 5.122c-.111-.189-.087-.358.019-.555a415.3 415.3 0 0 0 1.986-3.73c.573-1.088 1.137-2.18 1.712-3.267.411-.777.837-1.546 1.249-2.323.424-.802.838-1.61 1.26-2.413.21-.403.418-.807.65-1.198a.404.404 0 0 1 .292-.166 67.81 67.81 0 0 1 2.418 0 .43.43 0 0 1 .311.185c.371.66.723 1.33 1.079 1.997a1456.858 1456.858 0 0 1 2.488 4.684c.344.653.683 1.307 1.026 1.96l1.768 3.366c.15.284.287.578.46.847.132.204.159.395.076.613h-2.05c-.197-.304-.414-.597-.588-.914-.282-.513-.572-1.027-.793-1.568-.232-.57-.61-.682-1.192-.675-2.683.034-5.367.017-8.05.01-.226 0-.376.06-.48.268-.203.406-.41.81-.638 1.202-.33.564-.478 1.237-1.01 1.677H164.4zM33.304 8.836v-.001h3.1c.35-.001.432-.129.272-.436-.257-.495-.526-.984-.786-1.477a1254.46 1254.46 0 0 1-1.503-2.862c-.285-.545-.569-1.09-.85-1.637-.097-.19-.202-.174-.317-.024-.045.06-.08.129-.115.196-.21.402-.415.806-.627 1.207-.42.793-.843 1.586-1.265 2.379-.4.75-.803 1.5-1.199 2.252-.048.092-.11.233-.073.3.037.067.19.098.292.099 1.024.006 2.048.004 3.071.004zm-8.32 5.12c-.138-.238-.084-.434.052-.677.508-.908.972-1.84 1.46-2.758.417-.785.85-1.562 1.267-2.348.478-.902.943-1.812 1.42-2.715.418-.795.848-1.583 1.268-2.377.416-.786.835-1.57 1.235-2.364.143-.283.312-.441.654-.428.607.024 1.217.043 1.82-.005.472-.037.724.146.923.549.456.924.937 1.837 1.42 2.748.57 1.078 1.159 2.147 1.73 3.225.634 1.195 1.254 2.397 1.885 3.594.415.787.838 1.569 1.257 2.354.107.2.2.408.32.601.123.202.177.394.025.601h-1.992c-.112-.136-.25-.257-.332-.41a87.315 87.315 0 0 1-1.12-2.168c-.193-.388-.43-.583-.917-.578-2.75.029-5.502.016-8.253.007-.305 0-.465.132-.587.391-.19.402-.4.794-.611 1.185-.287.527-.583 1.049-.875 1.573h-2.05zM6.874 6.671c1.394 0 2.788.014 4.18-.006.943-.013 1.64-.458 2.047-1.32.683-1.449-.436-3.097-1.988-3.11-2.834-.021-5.668-.005-8.503-.004-.416 0-.47.059-.47.482.002 1.156.003 2.313.001 3.47 0 .475.007.487.496.487h4.237zM.163 13.956c-.192-.286-.161-.609-.161-.93L0 .65c0-.337.059-.4.397-.4 3.539 0 7.077-.01 10.616.005 1.645.007 2.933.708 3.746 2.155.543.966.692 2.002.393 3.1-.325 1.197-1.036 2.072-2.104 2.661-.65.36-1.373.497-2.108.5-2.751.012-5.502.005-8.254.005-.532 0-.545.015-.544.539.002 1.394.008 2.788-.005 4.183-.001.186-.1.373-.154.56H.163zm56.244 0c.038-.343.109-.686.11-1.03.005-3.29-.002-6.581 0-9.872 0-.091.063-.182.097-.274.072.052.154.093.213.156.311.332.614.671.925 1.003 1.445 1.542 2.893 3.08 4.336 4.624a863.95 863.95 0 0 1 2.958 3.185c.586.632 1.165 1.27 1.75 1.903.099.107.209.204.314.305h2.505c.054-.177.154-.354.155-.531.009-4.269.007-8.538.01-12.807.001-.232-.095-.326-.322-.324-.503.006-1.006 0-1.509.003-.339.003-.387.061-.387.404.003 3.425.005 6.85.003 10.274 0 .093-.055.186-.085.279-.09-.042-.201-.063-.268-.129-.188-.186-.355-.393-.536-.587-.633-.68-1.27-1.355-1.904-2.035-1.207-1.296-2.41-2.596-3.62-3.892-.607-.652-1.223-1.295-1.831-1.946-.679-.728-1.347-1.464-2.033-2.185a.618.618 0 0 0-.392-.176c-.73-.017-1.46-.006-2.191-.009-.247 0-.355.095-.355.358.007 4.127.008 8.253.005 12.38 0 .33-.032.661.23.923h1.822zm67.46 0c.135-.179.273-.342.25-.602-.031-.33-.01-.663-.008-.995.003-.422-.021-.451-.448-.451h-4.753c-2.163-.001-4.326 0-6.489-.002-.34 0-.383-.046-.383-.371.001-.949.003-1.897.002-2.846 0-.637-.097-.655.642-.654 2.333.004 4.667 0 7 .005.253 0 .395-.052.38-.346-.019-.407-.009-.815-.004-1.223.003-.254-.084-.378-.366-.377-2.41.009-4.82.007-7.229.009-.349 0-.423-.066-.424-.409-.002-1.015-.002-2.03 0-3.045 0-.351.072-.42.413-.42l8.937.002c.778 0 1.555.003 2.333 0 .31-.002.386-.082.389-.392.003-.36-.003-.72 0-1.08.003-.44-.017-.463-.466-.463h-13.348c-.404 0-.447.04-.447.367.001 4.164.004 8.328-.001 12.492 0 .3-.006.585.244.801h13.776zm19.925-7.285c1.328 0 2.657.014 3.985-.01.369-.006.75-.084 1.101-.203.761-.259 1.39-1.267 1.341-2.072a2.286 2.286 0 0 0-2.288-2.156h-8.368c-.428 0-.498.068-.497.492 0 1.148.002 2.296 0 3.443 0 .488.013.505.514.505h4.212zm-6.774 7.285c-.038-.343-.108-.686-.11-1.03-.008-4.096-.006-8.193-.006-12.29 0-.344.043-.387.398-.387 3.5 0 7 .003 10.5 0 1.176-.002 2.225.334 3.084 1.152a3.995 3.995 0 0 1 1.088 1.735c.286.922.285 1.83-.034 2.731-.326.923-.906 1.666-1.764 2.15-.373.21-.796.335-1.202.482-.239.086-.197.21-.09.367.523.767 1.042 1.536 1.567 2.302.535.78 1.083 1.553 1.603 2.344.067.103 0 .294-.005.444h-2.277c-.013-.044-.015-.097-.04-.132-.444-.613-.896-1.22-1.336-1.836a387.666 387.666 0 0 1-2.168-3.06.56.56 0 0 0-.503-.256c-2.087.003-4.173.001-6.26.004-.332 0-.398.075-.398.403.001 1.318-.002 2.636.005 3.954.002.331.032.662-.23.923h-1.822z"/>
</svg>
