<svg xmlns="http://www.w3.org/2000/svg" width="124" height="31" viewBox="0 0 124 31">
    <g fill="#007CFF" fill-rule="evenodd">
        <path d="M84.096 13.075h-3.291a.956.956 0 0 0-.787.417l-4.54 6.686-1.923-6.425a.952.952 0 0 0-.912-.678h-3.234a.569.569 0 0 0-.541.754l3.625 10.638-3.408 4.811a.57.57 0 0 0 .465.9h3.287a.949.949 0 0 0 .78-.408l10.948-15.8a.57.57 0 0 0-.47-.895M62.09 19.45c-.316 1.87-1.801 3.126-3.695 3.126-.951 0-1.711-.305-2.2-.883-.483-.574-.667-1.391-.513-2.301.295-1.855 1.805-3.152 3.67-3.152.93 0 1.686.309 2.184.892.499.589.697 1.411.554 2.318m4.566-6.375h-3.276a.57.57 0 0 0-.563.481l-.145.916-.23-.332c-.708-1.029-2.29-1.373-3.866-1.373-3.62 0-6.711 2.741-7.312 6.586-.313 1.918.13 3.752 1.219 5.031.998 1.176 2.427 1.666 4.125 1.666 2.916 0 4.533-1.875 4.533-1.875l-.146.91a.57.57 0 0 0 .562.66h2.95c.468 0 .867-.34.94-.803l1.769-11.209a.568.568 0 0 0-.56-.658M47 13.154c-.374 2.454-2.25 2.454-4.062 2.454h-1.032l.724-4.583a.57.57 0 0 1 .563-.481h.473c1.235 0 2.4 0 3.002.704.359.42.47 1.044.332 1.906m-.79-6.405h-6.838a.951.951 0 0 0-.94.802l-2.765 17.537a.57.57 0 0 0 .475.652c.03.003.059.006.089.006h3.265a.95.95 0 0 0 .939-.803l.746-4.73a.95.95 0 0 1 .938-.803h2.165c4.505 0 7.105-2.18 7.784-6.5.306-1.89.013-3.375-.872-4.415-.972-1.142-2.696-1.746-4.985-1.746M119.295 7.23l-2.807 17.858a.568.568 0 0 0 .562.658h2.822a.95.95 0 0 0 .939-.804l2.768-17.535a.57.57 0 0 0-.562-.659h-3.16a.571.571 0 0 0-.562.482m-8.426 12.22c-.314 1.87-1.801 3.126-3.695 3.126-.949 0-1.711-.305-2.199-.884-.484-.573-.666-1.39-.514-2.3.297-1.855 1.805-3.152 3.67-3.152.93 0 1.686.31 2.185.892.5.59.698 1.411.553 2.317m4.565-6.374h-3.273a.567.567 0 0 0-.562.481l-.145.916-.23-.332c-.709-1.029-2.289-1.373-3.867-1.373-3.619 0-6.708 2.741-7.311 6.586-.312 1.918.131 3.752 1.219 5.031 1 1.176 2.426 1.666 4.125 1.666 2.916 0 4.533-1.875 4.533-1.875l-.146.91a.57.57 0 0 0 .564.66h2.949a.951.951 0 0 0 .938-.804l1.771-11.208a.57.57 0 0 0-.565-.658m-19.653.08c-.373 2.453-2.248 2.453-4.062 2.453h-1.03l.724-4.583a.567.567 0 0 1 .562-.48h.473c1.234 0 2.4 0 3.002.703.359.42.468 1.044.331 1.906m-.789-6.405h-6.84a.95.95 0 0 0-.938.802l-2.766 17.537a.568.568 0 0 0 .562.658h3.51a.666.666 0 0 0 .656-.562l.785-4.97a.95.95 0 0 1 .938-.804h2.165c4.505 0 7.104-2.18 7.784-6.5.307-1.89.012-3.375-.873-4.415-.971-1.142-2.694-1.746-4.983-1.746"/>
        <path fill-opacity=".6" d="M23.048 7.667c-.028.18-.06.362-.096.55-1.237 6.351-5.47 8.545-10.874 8.545H9.326c-.661 0-1.218.48-1.321 1.132l-1.41 8.936-.398 2.532a.705.705 0 0 0 .695.815h4.88c.579 0 1.07-.42 1.16-.99l.049-.249.919-5.832.059-.319c.09-.572.582-.992 1.16-.992h.73c4.729 0 8.43-1.92 9.513-7.476.452-2.32.218-4.259-.978-5.622a4.657 4.657 0 0 0-1.336-1.03"/>
        <path d="M21.754 7.151a9.712 9.712 0 0 0-1.203-.267 15.151 15.151 0 0 0-2.426-.177h-7.352c-.578 0-1.07.421-1.16.992L8.05 17.605l-.045.29a1.336 1.336 0 0 1 1.32-1.133h2.753c5.405 0 9.637-2.195 10.874-8.545.037-.188.068-.37.096-.55a6.578 6.578 0 0 0-1.017-.429 6.828 6.828 0 0 0-.277-.087"/>
        <path d="M9.614 7.699a1.17 1.17 0 0 1 1.159-.991h7.352c.87 0 1.684.057 2.426.177.502.079.998.197 1.48.353.366.121.705.264 1.018.429.368-2.347-.003-3.945-1.272-5.392C20.377.682 17.853 0 14.622 0h-9.38c-.66 0-1.223.48-1.325 1.133L.01 25.898a.808.808 0 0 0 .795.932h5.79l1.455-9.225 1.564-9.906z"/>
    </g>
</svg>
