<svg xmlns="http://www.w3.org/2000/svg" xmlns:xlink="http://www.w3.org/1999/xlink" width="406" height="411" viewBox="0 0 406 411">
    <defs>
        <path id="a" d="M0 .568h405.14v408.67H0z"/>
    </defs>
    <g fill="none" fill-rule="evenodd">
        <g transform="translate(0 1)">
            <mask id="b" fill="#fff">
                <use xlink:href="#a"/>
            </mask>
            <path fill="#6E3BEA" fill-opacity=".2" d="M202.57 204.876l192.603-63.135c34.562 107.314-23.65 222.574-130.023 257.443C158.78 434.052 44.53 375.324 9.967 268.01-24.596 160.697 33.617 45.436 139.989 10.568c21.275-6.973 40.212-10 62.581-10v204.308z" mask="url(#b)"/>
        </g>
        <path fill="#6E3BEA" d="M202.57 205.876V1.568c89.477 0 164.953 55.323 192.603 141.173L202.57 205.876z"/>
        <path stroke="#6E3BEA" stroke-width="2" d="M202.57 205.876V1.568c89.477 0 164.953 55.323 192.603 141.173L202.57 205.876z"/>
        <path fill="#FFF" fill-opacity=".4" d="M63.066 205.876c0-77.727 62.458-140.74 139.504-140.74 77.046 0 139.504 63.013 139.504 140.74 0 77.728-62.458 140.739-139.504 140.739-77.046 0-139.504-63.011-139.504-140.739"/>
        <path fill="#FFF" d="M82.82 205.876c0-66.722 53.613-120.81 119.75-120.81 66.136 0 119.75 54.088 119.75 120.81 0 66.722-53.614 120.81-119.75 120.81-66.137 0-119.75-54.088-119.75-120.81"/>
    </g>
</svg>
