<svg xmlns="http://www.w3.org/2000/svg" width="407" height="407" viewBox="0 0 407 407">
    <g fill="none" fill-rule="evenodd">
        <path fill="#1A82FF" fill-opacity=".2" d="M203.104 204.079l178.81 95.075c-52.508 98.754-175.13 136.243-273.885 83.735C9.275 330.38-28.215 207.758 24.294 109.004 60 41.85 127.048 1.564 203.104 1.564v202.515z"/>
        <path fill="#1A82FF" d="M203.104 204.079V1.563c111.846 0 202.516 90.67 202.516 202.516 0 35.79-6.903 63.473-23.705 95.075l-178.81-95.075z"/>
        <path stroke="#1A82FF" stroke-width="2" d="M203.104 204.079V1.563c111.846 0 202.516 90.67 202.516 202.516 0 35.79-6.903 63.473-23.705 95.075l-178.81-95.075z"/>
        <path fill="#FFF" fill-opacity=".4" d="M63.6 204.079c0-77.046 62.458-139.505 139.504-139.505 77.046 0 139.504 62.46 139.504 139.505 0 77.046-62.458 139.504-139.504 139.504-77.046 0-139.504-62.458-139.504-139.504"/>
        <path fill="#FFF" d="M83.353 204.079c0-66.137 53.615-119.751 119.751-119.751 66.137 0 119.75 53.614 119.75 119.751 0 66.136-53.613 119.75-119.75 119.75-66.136 0-119.75-53.614-119.75-119.75"/>
    </g>
</svg>
