<svg xmlns="http://www.w3.org/2000/svg" xmlns:xlink="http://www.w3.org/1999/xlink" width="570" height="450" viewBox="0 0 570 450">
    <defs>
        <path id="a" d="M0 120.626c0 70.37 182.766 120.295 319.224 120.295s211.006-45.76 211.006-102.208C530.23 82.267 455.682.332 319.224.332S0 50.256 0 120.626"/>
        <linearGradient id="b" x1="30.92%" x2="3.543%" y1="47.982%" y2="45.912%">
            <stop offset="0%"/>
            <stop offset="100%"/>
        </linearGradient>
        <path id="d" d="M.07.505H465.3v283.897H.07z"/>
    </defs>
    <g fill="none" fill-rule="evenodd">
        <g transform="translate(0 206.706)">
            <mask id="c" fill="#fff">
                <use xlink:href="#a"/>
            </mask>
            <path fill="url(#b)" fill-opacity=".06" d="M0 120.626c0 70.37 182.766 120.295 319.224 120.295s211.006-45.76 211.006-102.208C530.23 82.267 455.682.332 319.224.332S0 50.256 0 120.626" mask="url(#c)"/>
        </g>
        <path fill="#FFF" d="M147.335 391.581c-47.245-27.276-71.072-62.98-71.525-98.84-.466-36.854 23.755-73.875 72.615-102.084 96.401-55.657 252.21-55.94 348.01-.629 47.246 27.277 71.072 62.98 71.526 98.84.466 36.855-23.755 73.875-72.615 102.084-96.401 55.658-252.211 55.939-348.01.63"/>
        <path stroke="#98A7B4" stroke-width=".25" d="M147.335 391.581c-47.245-27.276-71.072-62.98-71.525-98.84-.466-36.854 23.755-73.875 72.615-102.084 96.401-55.657 252.21-55.94 348.01-.629 47.246 27.277 71.072 62.98 71.526 98.84.466 36.855-23.755 73.875-72.615 102.084-96.401 55.658-252.211 55.939-348.01.63z"/>
        <path fill="#FFF" d="M270.338 321.038c-14.174-8.183-21.322-18.895-21.457-29.652-.14-11.057 7.126-22.163 21.784-30.626 28.92-16.697 75.663-16.782 104.403-.188 14.174 8.183 21.322 18.894 21.458 29.652.14 11.056-7.126 22.163-21.785 30.625-28.92 16.697-75.663 16.781-104.403.189"/>
        <path stroke="#98A7B4" stroke-width=".25" d="M270.338 321.038c-14.174-8.183-21.322-18.895-21.457-29.652-.14-11.057 7.126-22.163 21.784-30.626 28.92-16.697 75.663-16.782 104.403-.188 14.174 8.183 21.322 18.894 21.458 29.652.14 11.056-7.126 22.163-21.785 30.625-28.92 16.697-75.663 16.781-104.403.189z"/>
        <path fill="#FFF" d="M75.81 309.02c.453 35.86 24.28 71.564 71.525 98.84 95.8 55.31 251.61 55.029 348.011-.628 48.86-28.21 73.081-65.23 72.615-102.084v-16.28c.466 36.855-23.755 73.875-72.615 102.085-96.401 55.656-252.211 55.938-348.011.628-47.245-27.276-71.072-62.98-71.525-98.84v16.279z"/>
        <path stroke="#98A7B4" stroke-width=".25" d="M75.81 309.02c.453 35.86 24.28 71.564 71.525 98.84 95.8 55.31 251.61 55.029 348.011-.628 48.86-28.21 73.081-65.23 72.615-102.084v-16.28c.466 36.855-23.755 73.875-72.615 102.085-96.401 55.656-252.211 55.938-348.011.628-47.245-27.276-71.072-62.98-71.525-98.84v16.279z"/>
        <path fill="#0A76E2" d="M374.312 170.987c14.173 8.183 21.322 18.895 21.457 29.652.14 11.056-7.126 22.163-21.784 30.625-8.79 5.075-19.232 8.607-30.31 10.61v13.588c11.078-2.004 21.52-5.535 30.31-10.61 14.658-8.462 21.924-19.569 21.784-30.625-.135-10.758-7.284-21.47-21.457-29.652v-13.588z"/>
        <path fill="#1A82FF" d="M270.338 245.04c-14.174-8.182-21.322-18.894-21.457-29.651-.14-11.057 7.126-22.163 21.784-30.626 28.793-16.623 75.245-16.774 104.015-.401l120.536-69.591c-65.481-37.806-157.676-51.233-245.873-35.81-129.7 22.682-202.337 101.889-162.24 176.915 40.099 75.026 177.747 117.46 307.448 94.778l-50.807-95.063c-25.197 4.402-53.583.895-73.406-10.55" opacity=".3"/>
        <path fill="#0A76E2" d="M343.675 241.874l50.875 95.192v13.588l-50.875-95.192z"/>
        <path fill="#1A82FF" d="M495.216 101.183l-120.904 69.804c14.173 8.183 21.321 18.895 21.457 29.652.14 11.056-7.126 22.163-21.784 30.625-8.79 5.075-19.233 8.607-30.31 10.61l50.876 95.192c41.503-7.257 71.13-17.501 101.753-35.18 95.693-55.25 95.206-145.107-1.088-200.703"/>
        <path fill="#39F" d="M394.55 350.654c41.504-7.258 71.132-17.502 101.754-35.181 47.846-27.624 71.648-63.901 71.453-100.221v-13.588c.195 36.32-23.607 72.597-71.453 100.221-30.622 17.68-60.25 27.923-101.754 35.181v13.588z"/>
        <path fill="#FFF" d="M446.736 206.241l-10.706 6.182c-3.575 2.064-6.653 2.001-10.388-.156-3.736-2.156-3.844-3.933-.268-5.997l11.175-6.452-3.597-2.078a.886.886 0 0 0-.941-.001l-10.883 6.283c-5.979 3.451-4.235 6.872 1.328 10.084 5.565 3.213 11.489 4.22 17.468.767l11.351-6.553-3.598-2.078a.882.882 0 0 0-.94 0M496.255 237.876c.294.17.53.193.843.126l3.602-.876c.215-.056.234-.136.077-.226l-14.49-8.366c-1.357-.783-2.278-.841-3.196-.311l-16.627 9.599c-.781.452-.74.88.302 1.483l13.507 7.798c.295.17.53.193.843.126l3.602-.876c.215-.056.234-.135.077-.226l-12.366-7.14 3.38-1.951c1.172-.677 2.348-.608 4.098.402l5.367 3.1c.295.17.53.193.844.126l3.464-.843c.216-.056.234-.135.077-.226l-9.142-5.278 4.787-2.764 10.95 6.323M464.827 226.567c2.393.434 4.586-.082 6.402-1.131 4.22-2.437 1.386-4.796-2.193-6.862l-8.178-4.722c-1.357-.783-2.278-.84-3.196-.311l-16.627 9.6c-.781.45-.74.88.302 1.483l10.066 5.81c3.794 2.191 7.973 2.912 11.783.712 2.286-1.32 3.237-3.004 1.641-4.58zm-4.915-9.72l6.352 3.669c2.124 1.225 1.918 2.025.27 2.976-1.647.951-3.031 1.07-5.155-.156l-6.352-3.668 4.885-2.82zm-5.855 11.579l-7.1-4.1 3.498-2.019c1.173-.677 2.349-.606 4.1.404l4.7 2.714c2.26 1.306 2.03 2.165.271 3.18-1.758 1.016-3.208 1.126-5.469-.18zM507.293 262.32l3.04-6.727c2.69.92 5.827 1.107 9.403-.957 4.63-2.673 2.99-5.064-1.787-7.822l-8.218-4.745c-1.357-.783-2.278-.841-3.196-.311l-17.291 9.983c-.313.18-.311.362.003.543l3.519 2.032 5.568-3.215c1.172-.677 2.348-.606 4.099.403l3.538 2.044-3.063 6.263c-.077.18-.076.316.219.486l3.657 2.113c.255.147.47.023.509-.09m2.395-10.056l-6.684-3.859 5.783-3.34 6.684 3.86c2.497 1.442 2.09 2.312.156 3.429-1.953 1.128-3.442 1.351-5.939-.09"/>
        <path fill="#562BD8" d="M388.267 148.415c5.589-6.245 8.345-13.11 8.259-19.956-.136-10.758-7.284-21.469-21.458-29.652v13.588c14.174 8.183 21.322 18.894 21.458 29.652.086 6.846-2.67 13.71-8.26 19.955v-13.587z"/>
        <g transform="translate(76.77 .174)">
            <mask id="e" fill="#fff">
                <use xlink:href="#d"/>
            </mask>
            <path fill="#6E3BEA" d="M311.497 161.829c-3.438 3.84-7.944 7.447-13.526 10.67-28.92 16.696-75.663 16.78-104.403.187-14.173-8.182-21.321-18.893-21.458-29.651-.14-11.057 7.127-22.162 21.785-30.625 28.92-16.697 75.664-16.782 104.403-.19l120.904-69.803c-19.259-11.12-38.13-19.05-62.36-26.212C235.689-19.595 87.82 7.904 26.567 77.63c-61.254 69.724-12.695 155.27 108.457 191.073 121.153 35.802 269.022 8.301 330.276-61.424l-153.803-45.45z" mask="url(#e)" opacity=".3"/>
        </g>
        <path fill="#6E3BEA" d="M495.972 29.003L375.068 98.807c14.174 8.184 21.321 18.895 21.458 29.653.086 6.846-2.67 13.71-8.26 19.955l153.804 45.45c49.002-55.78 30.938-120.385-46.098-164.862"/>
        <path fill="#7048EF" d="M569.33 128.916c.06 21.873-8.884 44.032-27.26 64.95v13.587c18.376-20.918 27.32-43.076 27.26-64.949v-13.588z"/>
        <path fill="#562BD8" d="M388.267 148.415l153.803 45.45v13.587l-153.803-45.45z"/>
        <path fill="#FFF" d="M446.367 116.541c-1.917.842-4.521 1.026-6.772.476-1.109-.264-2.056-.699-2.808-1.246-.72-.527-1.276-1.149-1.639-1.92-.527-1.055-.696-2.314-.575-3.97 4.787-.272 8.496-.906 11.129-1.86 1.235-.448 2.177-.955 2.923-1.499.68-.544 1.134-1.145 1.326-1.784.448-1.428-.407-2.896-2.301-3.99-1.896-1.094-4.471-1.57-6.913-1.329-1.107.111-2.148.373-3.09.765-.975.412-1.883.974-2.597 1.688-1.652 1.52-2.748 3.7-3.254 6.444-2.833.089-5.048-.027-6.874-.332-1.336-.209-2.413-.531-3.327-.946-.98-.453-1.7-1.019-2.159-1.621-.952-1.3-.634-2.803.826-3.91.714-.525 1.59-.957 2.827-1.292.422-.132.91-.224 1.464-.355.748-.168 1.56-.336 2.374-.504l.098-.018a778.241 778.241 0 0 1 21.766-4.267l.293-.056c.748-.13 1.53-.28 2.278-.41.78-.149 1.562-.26 2.343-.297 1.465-.053 2.802.231 3.815.817 1.013.584 1.506 1.356 1.413 2.202-.063.452-.256.902-.515 1.353-.225.432-.483.883-.709 1.315l-.096.17a270.773 270.773 0 0 1-7.456 12.566l-.032.018c-.259.45-.615.92-.872 1.371-.226.32-.388.601-.615.846-.583.637-1.296 1.163-2.271 1.575zm-11.51-8.407c.444-2.294 1.378-4.153 2.74-5.393.583-.525 1.199-.919 1.882-1.2.585-.262 1.235-.411 1.886-.485 1.498-.148 3.095.137 4.304.836 1.208.697 1.767 1.62 1.447 2.484-.129.376-.388.751-.841 1.09-.487.393-1.202.768-2.08 1.086-2.112.767-5.334 1.307-9.338 1.582zm16.423 7.532c.226-.32.485-.657.679-.957.323-.489.613-.958.905-1.39v-.038a211.862 211.862 0 0 0 7.455-12.642l.096-.169c.226-.432.484-.883.742-1.334.258-.526.548-1.07.61-1.71.253-1.353-.536-2.634-2.137-3.558-1.633-.943-3.818-1.38-6.13-1.29-1.074.055-2.05.203-2.962.353-.781.148-1.562.298-2.31.428l-.292.056c-7.387 1.359-14.772 2.794-21.897 4.304l-.098.018c-.748.168-1.56.336-2.407.523-.52.112-1.073.242-1.659.392-1.626.448-2.893 1.029-3.899 1.797-2.075 1.614-2.487 3.738-1.142 5.565.492.696 1.212 1.299 2.127 1.828.261.15.62.32.914.452 1.209.548 2.676.983 4.371 1.25 2.087.342 4.433.459 7.429.389-.121 1.73.114 3.103.674 4.289.462.978 1.215 1.825 2.163 2.524.23.169.524.376.785.527a11.4 11.4 0 0 0 3.166 1.228c3.197.796 6.875.52 9.637-.66 1.398-.504 2.404-1.236 3.18-2.175zm44.003 12.208c.948.547 1.275.924 1.275.924l-2.89 1.668s-1.736-2.015-5.22-1.89l-8.54 4.93-3.136-1.81 12.24-7.068 2.647 1.528c.261.152.23.396.002.527l-.519.3c1.27-.054 3.161.326 4.141.891zm-1.408 10.622c-1.209-.698-1.54-1.6-1.315-2.296l4.35-2.512c1.14-.092 2.868.117 3.979.759 2.09 1.208 2.392 2.882.184 4.156-2.207 1.275-5.107 1.1-7.198-.107zm10.425-5.415c-2.155-1.245-4.467-1.08-4.467-1.08l6.85-3.955-3.136-1.81-18.084 10.44 2.646 1.528c.261.15.685.132.911.002l.553-.32s-.319 1.354 1.838 2.6c3.56 2.056 9.066 2.084 12.767-.053 3.734-2.118 3.684-5.297.122-7.352zm13.56 13.94l-7.273 4.198-3.136-1.81 6.916-3.994c2.013-1.161 2.171-2.007.407-3.026-.948-.547-2.415-.832-3.75-.778l-8.507 4.912-3.136-1.811 12.208-7.048 2.483 1.432c.261.152.23.396.003.528l-.52.3c1.857-.016 3.423.475 4.631 1.174 1.373.792 2.127 1.677 2.262 2.655.202 1.166-.542 2.086-2.588 3.267zm2.807 6.943c-1.21-.698-1.54-1.6-1.316-2.296l4.351-2.512c1.14-.092 2.866.118 3.978.759 2.09 1.207 2.393 2.881.185 4.156-2.208 1.275-5.108 1.1-7.198-.107zm10.425-5.416c-2.157-1.245-4.468-1.08-4.468-1.08l6.851-3.955-3.137-1.81-18.085 10.44 2.647 1.528c.262.152.685.134.912.002l.552-.318s-.318 1.353 1.838 2.598c3.561 2.056 9.066 2.085 12.767-.052 3.702-2.137 3.651-5.316.123-7.353zm-47.176-26.862l3.136 1.81-12.208 7.05-3.137-1.812 12.209-7.048zm-13.344 1.857c-1.205.129-2.802-.08-3.978-.76-2.091-1.207-2.393-2.882-.185-4.156 2.208-1.275 5.107-1.1 7.198.107 1.144.66 1.54 1.639 1.316 2.296l-4.351 2.513zm7.825-4.519l-.52.3s.286-1.334-1.87-2.58c-3.561-2.056-9.033-2.103-12.768.053-3.7 2.137-3.683 5.297-.09 7.371 2.189 1.264 4.5 1.062 4.5 1.062l-.551.318c-.26.15-.259.376.003.527l2.646 1.528 12.208-7.049-2.646-1.528c-.262-.15-.685-.132-.912-.002zm13.009 2.6c-1.169.675-3.058.672-4.234-.007-1.176-.679-1.182-1.77-.013-2.445 1.168-.674 3.025-.69 4.234.008 1.177.716 1.15 1.789.013 2.444zM76.52 125.685v167.056"/>
        <path stroke="#98A7B4" stroke-width=".25" d="M76.52 125.685v167.056"/>
        <g>
            <path fill="#FFF" d="M567.96 121.814v167.055"/>
            <path stroke="#98A7B4" stroke-width=".25" d="M567.96 121.814v167.055"/>
        </g>
    </g>
</svg>
