<svg xmlns="http://www.w3.org/2000/svg" width="149" height="26" viewBox="0 0 149 26">
    <path fill="#FFF" fill-rule="evenodd" d="M24.124 16.005c0 1.277.02 2.554-.005 3.83-.028 1.513.19 1.75 1.692 1.76 1.005.008 1.319-.253 1.404-1.461.03-.428-.027-.862-.029-1.293-.009-2.19-.007-4.382-.023-6.573-.004-.429.18-.723.52-.946 1.062-.696 2.246-.664 3.445-.6.366.02.76-.014 1.104-.131.756-.256.949-.695.75-1.5-.17-.687-.665-1.02-1.385-.936-.188.021-.378.049-.566.04-1.64-.076-3.223.142-4.743.799-1.343.58-2.068 1.581-2.116 3.027-.043 1.326-.009 2.656-.009 3.984h-.039zm124.632-3.036v-.57c-.004-2.173-.004-4.347-.015-6.52-.004-.945-.245-1.22-1.17-1.397-.102-.02-.203-.043-.306-.055-1.096-.122-1.57.302-1.572 1.409-.001 1.673.005 3.347-.002 5.02-.013 3.071-.033 6.142-.051 9.212-.006.94.462 1.435 1.38 1.455.138.003.276.008.414.01.98.017 1.383-.389 1.382-1.37-.004-2.398-.002-4.796-.002-7.194h-.058zm-57.79-4.81c-1.208 0-2.417.04-3.622-.011-1.253-.053-2.408.248-3.58.652-.974.337-2.035 1.654-2.023 2.79.008.705.033 1.41.033 2.115 0 1.984-.002 3.968-.018 5.952-.014 1.639.294 1.952 1.924 1.888.874-.034 1.077-.21 1.078-1.08.005-2.743-.004-5.485-.026-8.228-.004-.494.101-.932.578-1.11.542-.201 1.119-.41 1.687-.427 1.81-.055 3.622-.039 5.433-.02 1.154.012 2.308.064 3.46.12.599.03 1.186.59 1.19 1.093.007.653.01 1.306.007 1.959-.007 2.07-.015 4.14-.028 6.21-.007.973.485 1.484 1.443 1.474.258-.003.517-.015.775-.038.67-.058.971-.419.938-1.1a23.93 23.93 0 0 1-.032-1.138c-.002-2.5.044-5.003-.027-7.502-.018-.652-.23-1.437-.64-1.912-.923-1.07-2.28-1.522-3.637-1.638-1.627-.14-3.275-.033-4.914-.033v-.016zm43.104 5.46v.037c1.724 0 3.449.012 5.173-.014.242-.004.572-.131.704-.315.449-.623.045-1.904-.686-2.145-.65-.213-1.331-.408-2.008-.445a62.535 62.535 0 0 0-4.963-.103c-1.217.03-2.438.174-3.641.37-1.054.172-1.436.763-1.389 1.845.027.613.306.88.918.854.344-.015.687-.078 1.03-.08 1.62-.01 3.241-.004 4.862-.004zm.718 7.867c-1.587 0-3.181.086-4.76-.026-1.418-.1-2.924-.218-4.07-1.156-1.12-.918-1.764-2.14-1.646-3.709.109-1.441.085-2.895.064-4.343-.02-1.364.83-2.76 2.123-3.216.955-.337 1.93-.673 2.923-.833.943-.153 1.924-.101 2.887-.096 2.191.01 4.387-.024 6.571.105 1.113.065 2.155.558 3.037 1.301.997.838 1.299 1.908 1.187 3.176-.064.714.018 1.441.046 2.162.04 1.033-.493 1.578-1.532 1.561-1.326-.022-2.653-.047-3.98-.051-2.519-.008-5.038 0-7.557-.002-.654 0-1.308-.015-1.962-.018-.633-.003-.855.296-.544.85.551.981 1.394 1.683 2.54 1.708 3.137.069 6.277.047 9.416.067.535.003 1.043.2 1.241.69.198.487.251 1.09-.164 1.515-.212.216-.595.363-.904.37-1.638.035-3.277.016-4.916.016v-.071zm-90.766-7.763v.013c1.518 0 3.036.002 4.554-.001.414 0 .836.028 1.238-.044.202-.037.472-.241.526-.425.09-.301.112-.675.012-.968-.12-.348-.328-.76-.622-.934a3.391 3.391 0 0 0-1.466-.456 114.25 114.25 0 0 0-5.727-.234c-.996-.013-2.011.04-2.987.225-1.472.278-2.213.784-1.918 2.121.128.582.135.703.751.703h5.64zm1.27 2.656h-6.931c-.735 0-.876.24-.518.874.622 1.103 1.598 1.677 2.83 1.702 2.846.06 5.692.055 8.537.077.242.002.484-.007.725.01.882.06 1.465.942 1.191 1.79-.145.453-.56.753-1.06.752-3.21-.002-6.419.037-9.626-.033-1.412-.031-2.816-.308-4.033-1.126-1.196-.803-1.86-1.9-1.835-3.38.028-1.62.017-3.242.048-4.863.025-1.273.705-2.159 1.754-2.798 1.437-.875 3.007-1.235 4.678-1.232 2.243.005 4.485-.014 6.728-.008 1.666.004 3.205.429 4.526 1.486.558.446.955 1.014.965 1.755.019 1.36.022 2.722-.007 4.083-.015.667-.275.885-.934.886-2.346.005-4.692.002-7.038.002v.023zm-35.181-3.442v.033c1.655 0 3.312.02 4.967-.008 1.033-.017 2.07-.066 2.968-.71.456-.326.722-.721.71-1.293-.014-.653-.015-1.307-.024-1.96-.016-1.071-.077-1.163-1.072-1.56a1.65 1.65 0 0 0-.498-.13c-.928-.056-1.856-.125-2.785-.136-3.379-.037-6.757-.052-10.136-.077-.292-.002-.511.06-.507.422.019 1.393.043 2.786.04 4.18-.003 1.232-.017 1.236 1.215 1.239 1.707.003 3.415 0 5.122 0zm-9.545.176c0-2.45.004-4.9-.002-7.35-.002-.885.385-1.248 1.392-1.246 1.586.002 3.172.025 4.758.017 2.725-.014 5.452-.12 8.175-.043 1.821.052 3.66.28 5.317 1.155 1.143.603 1.864 1.493 1.754 2.902-.059.753-.037 1.518.009 2.274.123 2.03-.96 3.343-2.932 4.029a11.99 11.99 0 0 1-4.005.66c-3.398-.003-6.797.015-10.195.023-1.04.002-1.04 0-1.039 1.024.001 1.156.001 2.312.007 3.467.006 1.218-.29 1.525-1.513 1.544-.223.004-.448-.014-.672-.028-.722-.045-1.04-.398-1.04-1.13.003-2.433.001-4.865.001-7.298H.566zm113.103 5.835v.025c1.345 0 2.69-.008 4.035.003 1.061.009 1.083-.002 1.117-1.078.001-.052-.001-.104-.001-.155-.015-1.655-.049-3.31-.034-4.965.006-.692-.27-1.22-.87-1.452-.714-.277-1.48-.535-2.234-.573-1.876-.093-3.758-.077-5.638-.063-.856.007-1.715.086-2.567.184-.666.076-1.26.786-1.264 1.43-.01 1.586-.014 3.172-.02 4.758-.003.565.175 1.062.749 1.23.885.259 1.784.557 2.693.629 1.337.106 2.688.027 4.034.027zm.174 2.445c-2.328.1-4.655.188-6.951-.37-.958-.232-1.878-.54-2.605-1.193-.659-.59-1.146-1.341-1.159-2.281-.025-1.844-.106-3.692-.014-5.531.057-1.168.638-2.13 1.737-2.744 1.396-.78 2.93-1.053 4.464-1.135a57.435 57.435 0 0 1 6.52.007c1.833.111 3.621.625 5.068 1.834.595.497.958 1.25.96 2.103.005 2.862.016 5.724.035 8.587.015 2.252-.87 2.876-2.674 3.706-1.851.852-3.833.95-5.823.95-.353 0-.72-.097-1.055-.221-.57-.212-.808-.766-.686-1.457.11-.619.446-.93 1.102-.942.654-.012 1.308.026 1.962.037.206.003.42.019.617-.029a51.62 51.62 0 0 0 2.546-.664c.177-.052.304-.273.454-.416-.19-.08-.378-.228-.568-.23-1.31-.02-2.62-.011-3.93-.011zm-46.599-2.159c.048 0-.038.002-.125 0-.991-.017-1.681-.503-2.015-1.415-.274-.746-.125-1.433.45-2.04.606-.64 1.711-.626 2.22.083.234.327.232.668-.071.93-.292.25-.497.019-.68-.212-.192-.24-.406-.271-.675-.09-.463.31-.455 1.275.061 1.53.556.272 1.189.419 1.734.035 1.43-1.008 1.534-1.944.515-3.305a1.711 1.711 0 0 0-.933-.589c-1.648-.359-3.729 1.017-3.99 2.669-.27 1.71.516 3.057 2.26 3.422 1.391.291 2.65.154 3.9-.766 1.186-.874 2.01-2.002 2.353-3.274.625-2.326 1.927-4.257 3.14-6.237.654-1.065 1.651-1.92 2.496-2.867.218-.244.436-.49.674-.715.563-.532 1.08-1.136 1.718-1.558 1.512-1 2.84-2.297 4.591-2.921a.503.503 0 0 0 .218-.137c.092-.113.25-.282.217-.362-.052-.127-.237-.283-.365-.283-.617.002-1.26-.047-1.846.106-1.06.276-2.138.55-3.047 1.224-.756.559-1.585 1.04-2.264 1.68-1.267 1.19-2.185 2.647-2.862 4.252-.166.394-.511.466-.822.174-.273-.255-.334-.572-.134-.89.692-1.101 1.383-2.202 2.106-3.282.221-.33.134-.478-.19-.545-.176-.037-.373 0-.556.032-.732.132-1.075.704-1.373 1.288a28.403 28.403 0 0 0-1.01 2.187 60.652 60.652 0 0 0-1.206 3.199c-.188.55-.242 1.147-.421 1.701-.058.177-.344.419-.487.395-.19-.032-.423-.266-.489-.463-.068-.205.013-.477.08-.704.281-.96.595-1.91.87-2.872.187-.648.013-.862-.654-.89-.736-.03-1.612.789-1.807 1.688-.237 1.095-.466 2.192-.714 3.284-.082.36.01.6.352.754 1.394.627 1.91 1.754 1.835 3.223-.07 1.367-1.539 2.667-3.054 2.561zm.14-14.945c.586.045 1.089.202 1.407.744.183.311.408.598.623.89.339.458.723.829 1.366.767a.89.89 0 0 1 .493.124c.46.265.693.066.869-.358.198-.476.439-.936.637-1.413.413-.996 1.17-1.676 2.117-2.08.392-.167.953-.085 1.391.042.71.205 1.23-.06 1.771-.435.575-.4 1.16-.789 1.769-1.134.522-.296 1.06-.604 1.632-.764.89-.25 1.81-.406 2.723-.556 1.138-.185 1.954.403 2.638 1.218.282.336.142.754-.292.905-2.084.725-3.808 2.025-5.504 3.384-1.625 1.303-3.064 2.794-4.383 4.39-.74.894-1.308 1.934-1.912 2.934-.1.166-.063.522.054.69.375.541.842 1.018 1.23 1.552a185.107 185.107 0 0 1 2.99 4.206c.242.355.685.7.39 1.243-.351.642-.68 1.294-1.571 1.31-.57.011-.97-.286-1.263-.687-.78-1.067-1.512-2.17-2.265-3.257-.235-.34-.484-.671-.713-1.016-.194-.294-.374-.282-.54.007-.36.625-.65 1.3-1.078 1.872-.417.555-.911 1.09-1.475 1.488-1.684 1.186-3.53 1.243-5.424.566-1.567-.56-2.607-2.153-2.264-3.813.081-.396.091-.807.174-1.203.182-.869.818-1.456 1.478-1.912.558-.386 1.278-.605 1.956-.722.465-.081.664-.214.748-.654.219-1.15.512-2.288.67-3.446.049-.352-.182-.796-.405-1.114-.186-.267-.512-.228-.727.094-.57.854-1.136 1.71-1.725 2.55-1.618 2.309-3.252 4.606-4.868 6.915-.462.66-.876 1.354-1.33 2.02-.376.554-.754 1.109-1.175 1.628-.286.353-.649.637-1.169.456-.593-.206-1.107-.519-1.285-1.16-.045-.162.06-.403.164-.564a437.322 437.322 0 0 1 3.332-5.097c.929-1.394 1.905-2.756 2.826-4.155.955-1.451 1.864-2.932 2.804-4.393.289-.449.614-.873.917-1.312.312-.452.746-.63 1.286-.634.308-.003.615-.076.913-.116z"/>
</svg>
