<svg xmlns="http://www.w3.org/2000/svg" width="225" height="32" viewBox="0 0 225 32">
    <path fill="#FFF" fill-rule="evenodd" d="M156.816 12.495c-1.148 0-2.295.012-3.443-.007-.357-.006-.497.083-.496.47.011 4.311.013 8.623-.002 12.935-.001.425.169.495.532.49 1.248-.015 2.495-.02 3.742.003.417.008.54-.126.537-.54a602.88 602.88 0 0 1-.005-6.692c.001-.381.022-.766.08-1.143.129-.835.617-1.288 1.452-1.382.83-.094 1.517.214 2.128.75.12.107.273.177.453.29.344-1.566.656-3.044 1.002-4.514.077-.327-.043-.466-.3-.576-.898-.383-1.84-.542-2.773-.256-.695.213-1.336.6-2.022.918-.06-.746-.06-.746-.885-.746zM115.3 15.64c.306-.225.193-.425.03-.671-1.43-2.165-3.47-3.002-5.994-2.734-1.616.171-3.055.745-4.134 2.036-.837 1-1.25 2.178-1.446 3.443-.285 1.825-.166 3.623.524 5.347 1.408 3.52 5.376 4.162 8.134 3.222 1.488-.508 2.413-1.676 3.306-2.953-.955-.746-1.884-1.483-2.832-2.193-.073-.055-.33.033-.424.13-.3.305-.53.683-.846.967-1.117 1-2.656.508-3.025-.94a7.401 7.401 0 0 1 .023-3.8c.176-.656.531-1.21 1.23-1.361.748-.162 1.363.133 1.802.767.214.31.425.622.665.974 1.034-.774 2.007-1.51 2.987-2.234zm86.21 2.256c.036-.242.125-.48.214-.711.461-1.196 1.802-1.481 2.685-.554.27.283.477.631.677.97.138.235.266.26.472.104a837.58 837.58 0 0 1 2.726-2.053c.235-.176.27-.333.091-.612-1.478-2.306-3.62-3.11-6.251-2.779-1.868.235-3.411 1.048-4.419 2.705-.83 1.365-1.086 2.874-1.081 4.444.005 1.582.265 3.095 1.08 4.49 1.606 2.752 5.22 3.224 7.648 2.41 1.389-.465 2.305-1.512 3.144-2.646.176-.237.16-.406-.076-.586a122.75 122.75 0 0 1-2.428-1.886c-.254-.204-.406-.123-.573.087-.247.309-.472.643-.756.914-.9.858-2.624.79-3-.75-.159-.656-.253-1.327-.344-1.817.075-.708.115-1.221.19-1.73zm-108.182-.115c-.03-1.252.669-1.984 1.802-2.012 1.158-.028 1.935.857 1.896 2.012h-3.698zm.57 3.032c2.296 0 4.593-.01 6.889.01.442.003.589-.15.582-.572-.02-1.333-.077-2.658-.498-3.94-.336-1.023-.826-1.944-1.633-2.682-1.35-1.236-2.986-1.549-4.724-1.4-2.552.22-4.4 1.602-5.215 4.101a9.73 9.73 0 0 0-.01 6.134c.546 1.681 1.577 3.026 3.258 3.664 2.823 1.072 5.516.5 8.097-.88.25-.133.304-.283.129-.556a46.585 46.585 0 0 1-1.402-2.335c-.188-.335-.35-.33-.67-.167-1.113.567-2.297.854-3.558.736-1.094-.102-1.813-.903-1.816-2.113h.57zm87.294-7.952c-.001 4.362.003 8.723-.008 13.084 0 .37.148.44.475.437 1.247-.014 2.495-.024 3.742.004.437.01.57-.117.566-.56-.02-2.413-.013-4.827-.006-7.24.001-.365.029-.734.086-1.094.103-.643.515-1.092 1.042-1.185.85-.151 1.48.047 1.74.688.173.43.212.937.216 1.41.02 2.48.015 4.96.003 7.44-.001.376.097.544.504.538 1.297-.018 2.594-.018 3.891 0 .377.006.488-.125.484-.49-.016-1.399-.005-2.797-.006-4.195-.002-1.432.023-2.864-.016-4.295-.038-1.414-.257-2.818-1.249-3.904-1.319-1.445-3.027-1.525-4.786-1.082-.64.16-1.23.522-1.872.806l-.086-.7h-4.683c-.016.143-.037.24-.037.338zm-7.703-.376c-.415-.006-.54.12-.537.537.017 2.414.014 4.829.003 7.243-.002.447-.032.901-.12 1.337-.115.561-.616.952-1.161.99-.845.058-1.337-.143-1.533-.785a6.153 6.153 0 0 1-.25-1.705 435.176 435.176 0 0 1-.005-7.094c.002-.373-.086-.53-.498-.523-1.297.024-2.596.02-3.893.001-.362-.005-.46.135-.456.468.012 1.032-.008 2.065.007 3.097.03 2.163.024 4.328.13 6.488.058 1.162.477 2.264 1.38 3.057 1.5 1.32 3.234 1.293 5.01.693.47-.159.896-.45 1.354-.686.087.773.087.773.867.773 1.148 0 2.296-.02 3.444.01.458.013.589-.123.587-.585-.017-4.246-.01-8.492-.011-12.738 0-.164-.014-.327-.026-.57-1.468 0-2.88.014-4.292-.008zM74.438 7.835c-.388-.002-.53.113-.524.51.02 1.199.019 2.399 0 3.598-.005.358.129.455.467.451 1.365-.014 2.73.014 4.094-.016.471-.01.622.111.62.605-.02 4.28-.005 8.56-.02 12.841-.002.441.122.572.562.563a79.992 79.992 0 0 1 3.993.003c.526.015.632-.163.63-.652-.018-4.264-.005-8.528-.02-12.791-.001-.435.115-.577.56-.568 1.381.027 2.763 0 4.144.016.368.004.495-.116.489-.488a100.095 100.095 0 0 1 0-3.498c.009-.43-.122-.58-.568-.576-2.412.02-4.825.01-7.238.01-2.397 0-4.793.006-7.19-.008zm48.696 17.875c0-2.198-.005-4.395.004-6.593.002-.532.006-1.07.092-1.591.051-.307.203-.645.416-.869.746-.786 2.197-.419 2.463.626.117.46.128.954.13 1.433a552.47 552.47 0 0 1-.002 7.093c-.004.431.115.586.561.577a82.7 82.7 0 0 1 3.693.001c.455.01.604-.122.601-.585-.018-2.63.032-5.263-.03-7.892-.025-1.016-.21-2.045-.46-3.033a3.185 3.185 0 0 0-1.645-2.087c-1.772-.922-3.515-.768-5.224.188l-.633.35v-6.2c-1.466.578-2.84 1.138-4.228 1.656-.441.165-.526.432-.525.861.013 5.362.008 10.723.009 16.084 0 .117-.035.253.013.345.063.12.191.288.293.289 1.46.019 2.922.013 4.472.013v-.666zm26.52-13.666c-.61-1.365-1.365-2.641-2.71-3.394-2.264-1.268-4.675-1.348-7.123-.658-2.717.766-4.416 2.642-5.246 5.256-.985 3.105-.868 6.214.573 9.177.907 1.865 2.381 3.156 4.388 3.791 1.519.481 3.052.543 4.626.295 2.702-.425 4.505-2.01 5.778-4.324.117-.213.11-.367-.167-.51-1.222-.63-2.428-1.291-3.638-1.943-.273-.148-.469-.165-.629.182-.15.326-.388.612-.586.918-1.204 1.864-4.05 1.714-4.899-.308-.39-.928-.563-1.87-.598-2.847-.053-1.433.013-2.849.692-4.171.922-1.794 3.405-1.817 4.309-.439.305.466.557.971.795 1.477.113.24.205.342.48.232 1.415-.566 2.836-1.12 4.348-1.713-.145-.38-.252-.708-.393-1.021zm74.408 4.357c-.04-.123-.093-.244-.12-.37-.18-.832-.42-1.632-.939-2.335-1.094-1.482-3.282-1.784-4.947-1.28-.637.192-1.234.52-1.931.82V7.199c-.151.01-.222-.002-.279.02-1.38.554-2.753 1.124-4.14 1.658-.305.118-.403.265-.402.579.007 5.48.008 10.958-.001 16.438-.001.37.114.496.485.49 1.264-.016 2.53-.025 3.793.005.45.01.56-.137.558-.568a544.473 544.473 0 0 1-.003-7.145c.002-.447.056-.898.135-1.338.115-.636.577-1.013 1.213-1.047.957-.052 1.389.171 1.587.918.122.458.189.944.192 1.419.02 2.415.017 4.83.002 7.244-.003.388.102.52.505.515 1.43-.017 2.861.003 4.292.01V16.4zM0 .011l30.899.005h.695v.64c0 3.081.013 6.162-.013 9.243-.004.526.165.633.652.63 3.078-.02 6.157-.01 9.235-.01h.596c.013-.253.032-.462.032-.672.002-3.065.01-6.13-.007-9.193-.003-.475.08-.654.62-.652 6.639.022 13.278.02 19.917.003.503-.002.648.123.644.635-.024 3.08-.011 6.162-.012 9.243 0 .707-.001.707-.734.707-6.572 0-13.145.006-19.717-.01-.497-.002-.65.112-.645.63.025 3.081.022 6.162.002 9.243-.004.486.14.614.619.612 6.589-.014 13.178-.01 19.767-.01.708 0 .708.002.708.724v9.776H31.574v-20.93c-.222-.015-.382-.033-.542-.034-3.129-.001-6.257.008-9.385-.01-.441-.003-.56.123-.56.562.014 6.562.01 13.124.01 19.685v.732H10.49v-.643V11.23c0-.64 0-.641-.657-.64L0 10.605V.01z" opacity="1"/>
</svg>
