<svg xmlns="http://www.w3.org/2000/svg" width="63" height="36" viewBox="0 0 63 36">
    <path fill="#FFF" fill-rule="evenodd" d="M60.506 26.947c0 5.4-2.729 8.227-6.91 8.227-3.79 0-6.009-3.083-5.96-6.46.05-2.62 1.964-3.936 3.535-3.73 1.109.147 2.218.962 2.071 2.73-.147 2.522-2.876 2.424-2.975 3.985-.098.962 1.159 2.376 2.779 2.376 2.827 0 2.827-3.584 2.827-6.313V3.28c0-1.414-.452-1.816-1.561-2.072L53.056.903V.206H63v.707l-1.11.304c-1.01.256-1.364.707-1.364 2.12l-.02 23.61zm-21.852 8.227c-2.925 0-3.936-2.022-4.899-2.022-.56 0-1.207.147-1.718 1.816h-.608V23.462h.756c.608 6.51 3.023 10.593 6.41 10.593 2.268 0 3.839-2.071 3.839-5.802 0-7.873-11.25-11.25-11.25-19.977C31.183 3.583 33.558 0 37.838 0c2.778 0 3.328 1.816 4.487 1.816.657 0 1.109-.5 1.364-1.61h.609v11.506h-.756c-.609-5.802-2.12-10.593-5.753-10.593-2.523 0-2.974 2.523-2.974 4.241 0 7.52 11.25 10.092 11.25 20.586.01 5.34-2.916 9.228-7.412 9.228zM3.234 4.84c-.657-2.975-.805-3.485-1.766-3.73L.76.912V.206h8.933v.707l-.756.147c-1.61.354-1.463 1.964-1.011 4.133l3.986 19.781 2.925-15.746-1.06-5.4c-.403-1.914-.56-2.522-1.56-2.778l-.659-.137V.206h9.238v.707l-1.11.206c-1.668.304-1.413 2.12-1.01 4.084l3.838 19.781 3.79-18.72c.706-3.888.353-4.84-1.16-5.145l-1.06-.206V.206h6.411v.707l-.707.255c-1.01.354-1.266 1.316-1.963 4.644l-6.155 29.372h-1.316L15.614 12.27l-4.29 22.913h-1.67L3.235 4.84z" opacity="1"/>
</svg>
