<svg xmlns="http://www.w3.org/2000/svg" width="114" height="26" viewBox="0 0 114 26">
    <g fill="none" fill-rule="evenodd">
        <path fill="#007CFF" d="M35.483 3.97A4.54 4.54 0 0 0 32.29.775C29.455 0 18.115 0 18.115 0S6.775 0 3.939.746C2.417 1.164 1.164 2.417.746 3.97 0 6.804 0 12.683 0 12.683s0 5.91.746 8.714a4.54 4.54 0 0 0 3.193 3.194c2.865.775 14.176.775 14.176.775s11.34 0 14.175-.746a4.54 4.54 0 0 0 3.193-3.193c.746-2.835.746-8.714.746-8.714s.03-5.909-.746-8.744"/>
        <path fill="#FFF" d="M14.504 18.115l9.43-5.432-9.43-5.431z"/>
        <path fill="#007CFF" d="M56.642 20.592c.209-.508.298-1.373.298-2.537v-4.954c0-1.134-.09-1.97-.298-2.507-.21-.537-.537-.776-1.045-.776-.477 0-.835.269-1.014.776-.21.537-.299 1.373-.299 2.507v4.954c0 1.164.09 2.03.299 2.537.179.507.537.776 1.044.776.478 0 .806-.24 1.015-.776m-4.029 2.506c-.716-.477-1.224-1.223-1.522-2.268-.298-1.015-.448-2.387-.448-4.058v-2.298c0-1.701.18-3.074.508-4.118.358-1.045.895-1.791 1.611-2.269.746-.477 1.701-.716 2.895-.716 1.164 0 2.119.239 2.835.716.717.478 1.224 1.254 1.552 2.269.328 1.014.508 2.387.508 4.118v2.298c0 1.7-.15 3.043-.478 4.088-.329 1.015-.836 1.79-1.552 2.268-.716.478-1.701.716-2.925.716-1.253-.03-2.268-.268-2.984-.746M108.15 10.117c-.178.239-.298.597-.357 1.104-.06.507-.09 1.283-.09 2.328v1.134h2.626v-1.134c0-1.015-.03-1.79-.09-2.328-.059-.537-.208-.895-.387-1.104-.18-.21-.478-.328-.836-.328-.417-.03-.686.089-.865.328zm-.447 6.685v.805c0 1.015.03 1.79.09 2.298s.179.896.388 1.104c.179.24.477.359.895.359.537 0 .895-.21 1.104-.627.21-.418.299-1.104.328-2.09l3.074.18c.03.15.03.328.03.567 0 1.462-.388 2.566-1.194 3.283-.805.716-1.94 1.074-3.402 1.074-1.76 0-2.984-.567-3.7-1.671-.716-1.104-1.075-2.805-1.075-5.133v-2.776c0-2.387.359-4.118 1.105-5.222s2-1.641 3.76-1.641c1.223 0 2.178.238 2.835.686.656.448 1.104 1.164 1.373 2.089.268.955.388 2.268.388 3.94v2.715h-5.999v.06zM43.899 16.503L39.84 1.791h3.552l1.432 6.655a70.56 70.56 0 0 1 .806 4.207h.09c.119-.835.387-2.208.805-4.178l1.492-6.684h3.552L47.45 16.503v7.043H43.93v-7.043h-.03zM72.1 7.67v15.906h-2.805l-.298-1.94h-.09c-.746 1.462-1.91 2.209-3.431 2.209-1.045 0-1.821-.359-2.328-1.045-.508-.686-.747-1.76-.747-3.253V7.67h3.582v11.668c0 .716.09 1.224.239 1.522.149.299.417.448.775.448.299 0 .597-.09.896-.299.298-.179.507-.417.626-.716V7.67H72.1zM90.454 7.67v15.906h-2.805l-.299-1.94h-.09c-.745 1.462-1.91 2.209-3.431 2.209-1.045 0-1.82-.359-2.328-1.045-.507-.686-.746-1.76-.746-3.253V7.67h3.581v11.668c0 .716.09 1.224.239 1.522.15.299.418.448.776.448.298 0 .597-.09.895-.299.298-.179.508-.417.627-.716V7.67h3.58z"/>
        <path fill="#007CFF" d="M81.83 4.685h-3.552v18.861h-3.492V4.686h-3.55V1.79h10.593zM99.019 16.682c0 1.164-.06 2.06-.15 2.716-.089.657-.268 1.134-.477 1.403a1.162 1.162 0 0 1-.895.417c-.299 0-.567-.06-.806-.209a1.721 1.721 0 0 1-.597-.626V11.37c.12-.418.328-.776.627-1.074.298-.269.627-.418.955-.418.358 0 .656.15.835.418.21.298.329.776.418 1.432.09.687.12 1.642.12 2.865v2.09h-.03zm3.283-6.476c-.21-1.014-.567-1.73-1.045-2.178-.477-.448-1.164-.687-2-.687-.656 0-1.283.18-1.85.568a3.646 3.646 0 0 0-1.313 1.462h-.03V.985h-3.461v22.561h2.954l.358-1.492h.09c.268.537.686.955 1.253 1.283.567.299 1.164.478 1.85.478 1.224 0 2.09-.567 2.656-1.671.568-1.105.866-2.866.866-5.223v-2.507c-.03-1.82-.12-3.223-.328-4.208z"/>
    </g>
</svg>
