<svg xmlns="http://www.w3.org/2000/svg" width="595" height="389" viewBox="0 0 595 389">
    <g fill="none">
        <g>
            <path fill="#1A82FF" d="M167.133 42.822l-17.471-6.428c-3.461-1.286-7.351.527-8.637 3.988 1.286-3.461-.527-7.35-3.989-8.637l-17.471-6.428c-3.462-1.285-7.352.528-8.637 3.989 1.285-3.461-.528-7.351-3.989-8.637l-17.472-6.428c-3.46-1.286-7.35.527-8.636 3.989 1.285-3.462-.528-7.351-3.99-8.637l-17.47-6.428c-3.462-1.286-7.352.527-8.638 3.988l-15.13 40.778L8.471 69.655C2.637 74.336.857 82.445 4.187 89.138l30.954 61.908c2.769 5.539 7.714 9.692 13.68 11.44l7.055 2.076-11.505 83.83h109.444l-11.57-71.105c-.165-.792-.759-1.418-1.517-1.682-2.175-.692-2.077-3.824.165-4.318l6.066-1.385c.659-.164 1.22-.593 1.516-1.22l23.867-61.05c1.648-3.495 2.242-7.385 1.681-11.176L162.98 73.347l8.11-21.888c1.318-3.462-.495-7.352-3.957-8.637z" transform="translate(2) translate(194.494)"/>
            <path fill="#0B70D6" d="M83.962 101.137l26.372 10.22s4.286-1.32 5.934-3.627c0 0-1.978 6.264 3.297 6.923l27.36 10.219 9.56-22.416L87.589 79.38l-3.626 21.757z" transform="translate(2) translate(194.494)"/>
            <path fill="#0B70D6" d="M163.013 73.347l8.11-21.888c1.285-3.462-.528-7.352-3.99-8.637l-17.471-6.428c-3.461-1.286-7.351.527-8.637 3.988 1.253-3.428-.462-7.219-3.824-8.57l-13.977 39.096 22.746 34.613-24.724 59.338 10.45 83.468h22.152l-11.57-71.106c-.165-.791-.759-1.418-1.517-1.681-2.175-.693-2.077-3.824.165-4.319l6.066-1.384c.659-.165 1.22-.594 1.516-1.22l23.834-60.986c1.648-3.494 2.242-7.384 1.681-11.175l-11.01-23.109z" transform="translate(2) translate(194.494)"/>
            <g>
                <path fill="#1A82FF" d="M33.592 3.099l17.471 6.428c3.461 1.286 5.274 5.175 3.989 8.637l-21.955 59.37c-1.286 3.461-5.176 5.274-8.637 3.989L6.99 75.095c-3.462-1.286-5.275-5.176-3.99-8.637l21.989-59.37c1.252-3.462 5.142-5.275 8.604-3.99z" transform="translate(2) translate(194.494) translate(116.037 33.295)"/>
                <path fill="#FFF" d="M26.768 84.457c-1.055 0-2.143-.198-3.165-.56L6.132 77.467c-2.308-.857-4.154-2.538-5.176-4.813-1.022-2.274-1.187-4.747-.33-7.054L22.614 6.23c.857-2.308 2.538-4.154 4.78-5.176C29.636.033 32.141-.1 34.45.758L51.92 7.186c4.78 1.748 7.252 7.088 5.472 11.868L35.438 78.39c-1.385 3.725-4.912 6.066-8.67 6.066zm4.516-79.249c-.593 0-1.22.132-1.78.396-1.022.462-1.813 1.319-2.209 2.374L5.307 67.315c-.395 1.055-.33 2.209.132 3.23.462 1.022 1.319 1.814 2.374 2.21l17.471 6.427c2.176.791 4.615-.33 5.44-2.505l22.02-59.37c.791-2.176-.33-4.615-2.505-5.407L32.767 5.472c-.494-.198-.989-.264-1.483-.264z" transform="translate(2) translate(194.494) translate(116.037 33.295)"/>
            </g>
            <path fill="#0B70D6" d="M164.167 44.404l-6.66-2.44c2.77 1.418 4.121 4.748 3.033 7.715l-20.405 55.744c-1.187 3.23-4.813 4.911-8.044 3.725l7.352 2.769c3.23 1.186 5.57 1.879 8.043-3.725l20.406-55.777c1.186-3.231 2.769-5.67-3.725-8.01zM89.237 146.63s16.153-38.9-18.79-75.162l-28.35 7.253 28.35 46.81 18.79 21.098z" transform="translate(2) translate(194.494)"/>
            <g>
                <path fill="#1A82FF" d="M33.79 3.23L51.26 9.66c3.462 1.285 5.275 5.175 3.99 8.637l-21.955 59.37c-1.286 3.461-5.176 5.274-8.637 3.989L7.186 75.227c-3.46-1.286-5.274-5.176-3.988-8.637L25.185 7.22c1.253-3.462 5.143-5.275 8.604-3.99z" transform="translate(2) translate(194.494) translate(85.71 22.087)"/>
                <path fill="#FFF" d="M26.966 84.589c-1.055 0-2.143-.198-3.165-.56L6.329 77.6C1.55 75.853-.923 70.512.857 65.733l21.988-59.37c.857-2.308 2.538-4.154 4.78-5.176C29.866.165 32.372.033 34.679.89l17.472 6.428c2.307.857 4.154 2.539 5.175 4.813 1.022 2.275 1.154 4.747.297 7.055L35.635 78.523c-1.351 3.725-4.911 6.066-8.67 6.066zM31.482 5.34c-.594 0-1.22.132-1.78.396-1.022.461-1.813 1.319-2.21 2.373L5.506 67.447c-.395 1.055-.33 2.208.132 3.23.462 1.022 1.319 1.813 2.374 2.209l17.471 6.428c2.176.791 4.615-.33 5.44-2.505l21.987-59.37c.396-1.055.33-2.21-.132-3.231-.461-1.022-1.318-1.813-2.373-2.209L32.932 5.571c-.461-.165-.956-.23-1.45-.23z" transform="translate(2) translate(194.494) translate(85.71 22.087)"/>
            </g>
            <g>
                <path fill="#1A82FF" d="M33.69 3.033L51.162 9.46c3.461 1.286 5.274 5.176 3.989 8.637l-21.988 59.37c-1.286 3.461-5.176 5.275-8.637 3.989L7.055 75.029c-3.462-1.286-5.275-5.176-3.99-8.637l21.989-59.37c1.252-3.462 5.142-5.275 8.636-3.99z" transform="translate(2) translate(194.494) translate(55.711 11.208)"/>
                <path fill="#FFF" d="M26.834 84.39c-1.055 0-2.143-.197-3.165-.56L6.197 77.402c-4.78-1.747-7.252-7.087-5.472-11.867l21.988-59.37c1.747-4.78 7.088-7.22 11.867-5.473L52.052 7.12c4.78 1.748 7.252 7.088 5.472 11.868l-22.02 59.337c-.858 2.308-2.539 4.154-4.78 5.176-1.253.593-2.572.89-3.89.89zM31.35 5.144c-.594 0-1.22.131-1.78.395-1.022.462-1.813 1.319-2.209 2.374L5.406 67.249c-.79 2.176.33 4.615 2.506 5.406l17.471 6.461c1.055.396 2.209.33 3.23-.131 1.023-.462 1.814-1.32 2.21-2.374l21.987-59.37c.791-2.176-.33-4.615-2.505-5.407L32.833 5.406c-.494-.198-.989-.263-1.483-.263z" transform="translate(2) translate(194.494) translate(55.711 11.208)"/>
            </g>
            <path fill="#0B70D6" d="M134.036 33.394l-6.659-2.44c2.77 1.418 4.121 4.747 3.033 7.714l-20.372 55.777c-1.187 3.23-4.813 4.912-8.044 3.725l7.351 2.77c3.231 1.186 5.572 1.878 8.044-3.726l20.372-55.744c1.187-3.263 2.802-5.703-3.725-8.076zM103.94 22.614l-6.66-2.44c2.77 1.418 4.12 4.748 3.033 7.715L79.908 83.666c-1.187 3.23-4.813 4.911-8.044 3.725l7.351 2.769c3.23 1.186 5.571 1.879 8.044-3.725l20.405-55.777c1.187-3.231 2.77-5.67-3.725-8.044z" transform="translate(2) translate(194.494)"/>
            <g>
                <path fill="#1A82FF" d="M33.559 3.165L51.03 9.593c3.461 1.286 5.275 5.175 3.989 8.637L33.03 77.6c-1.286 3.461-5.175 5.274-8.637 3.989L6.923 75.16c-3.462-1.286-5.275-5.176-3.99-8.637l21.989-59.37c1.252-3.462 5.142-5.275 8.637-3.99z" transform="translate(2) translate(194.494) translate(25.713)"/>
                <path fill="#FFF" d="M26.702 84.523c-1.055 0-2.143-.198-3.165-.56L6.066 77.533c-4.78-1.747-7.253-7.087-5.473-11.867l21.988-59.37C24.328 1.516 29.67-.924 34.45.823L51.92 7.252C56.7 9 59.172 14.34 57.392 19.12L35.405 78.457c-.858 2.308-2.539 4.154-4.78 5.176-1.286.593-2.605.89-3.923.89zm4.516-79.249c-1.714 0-3.33 1.055-3.989 2.77L5.274 67.38c-.79 2.175.33 4.615 2.506 5.406l17.471 6.428c1.055.396 2.209.33 3.23-.132 1.023-.461 1.814-1.318 2.21-2.373l21.987-59.37c.791-2.176-.33-4.615-2.505-5.407L32.701 5.505c-.494-.165-.989-.23-1.483-.23z" transform="translate(2) translate(194.494) translate(25.713)"/>
            </g>
            <path fill="#0B70D6" d="M73.611 11.208l-6.659-2.44c2.77 1.418 4.12 4.748 3.033 7.715L49.613 72.227c-1.187 3.23-4.813 4.911-8.044 3.725l7.351 2.769c3.23 1.187 5.571 1.879 8.044-3.725l20.372-55.744c1.187-3.23 2.77-5.703-3.725-8.044z" transform="translate(2) translate(194.494)"/>
            <g>
                <path fill="#1A82FF" d="M89.402 109.642c.626-23.207-30.493-54.92-30.493-54.92-4.352-6.725-4.484-6.89 3.527-6.527l25.548 2.11c4.285.198 8.208-2.407 9.692-6.461l1.318-3.626c1.583-4.286-.033-9.099-3.824-11.604L58.414 4.417c-3.56-2.34-8.241-2.142-11.57.528L8.439 35.668C2.604 40.35.824 48.458 4.154 55.151l30.954 61.908c2.769 5.538 7.714 9.692 13.68 11.44l15.197 4.482c3.033.89 6.33.264 8.835-1.68" transform="translate(2) translate(194.494) translate(0 33.954)"/>
                <path fill="#FFF" d="M66.754 135.882c-1.153 0-2.34-.164-3.46-.494l-15.198-4.483c-6.593-1.945-12.131-6.593-15.197-12.725L1.945 56.272C-1.912 48.59.165 39.097 6.89 33.723L45.294 3C49.481-.363 55.316-.626 59.8 2.34l36.756 24.197c4.813 3.165 6.79 9.164 4.813 14.57l-1.319 3.627c-1.879 5.043-6.758 8.307-12.164 8.043h-.099l-25.515-2.11c-.923-.033-2.044-.098-3-.098.462.758 1.055 1.648 1.616 2.57 2.835 2.935 31.68 33.263 31.02 56.57-.033 1.35-1.154 2.438-2.505 2.438h-.066c-1.385-.032-2.473-1.186-2.44-2.57.594-21.89-29.47-52.811-29.8-53.108-.132-.132-.231-.263-.33-.395l-.033-.033c-2.835-4.385-4.12-6.362-2.9-8.538 1.252-2.176 3.889-2.044 8.636-1.846h.099l25.515 2.11c3.198.131 6.066-1.814 7.186-4.813l1.319-3.627c1.187-3.197 0-6.757-2.868-8.636L57.03 6.527c-2.67-1.747-6.132-1.582-8.604.396L10.02 37.646c-4.878 3.89-6.395 10.78-3.593 16.384l30.954 61.908c2.44 4.912 6.89 8.604 12.132 10.154l15.197 4.483c2.241.66 4.714.198 6.56-1.253 1.088-.857 2.67-.659 3.527.429.857 1.088.66 2.67-.429 3.527-2.208 1.681-4.878 2.604-7.615 2.604z" transform="translate(2) translate(194.494) translate(0 33.954)"/>
            </g>
            <path fill="#FFF" d="M93.324 253.04h-.066c-1.384-.032-2.472-1.186-2.439-2.57l1.714-67.381c.033-1.385 1.187-2.473 2.572-2.44 1.384.033 2.472 1.187 2.439 2.571l-1.714 67.381c-.033 1.385-1.154 2.44-2.506 2.44zM107.928 262.798c-1.319 0-2.44-1.055-2.505-2.373l-3.132-67.381c-.066-1.385.989-2.571 2.373-2.604 1.385-.066 2.572.989 2.605 2.373l3.131 67.381c.066 1.385-.989 2.571-2.373 2.604h-.099z" transform="translate(2) translate(194.494)"/>
            <path fill="#0B70D6" d="M56.535 90.094c-4.351-6.725-3.428-10.978 4.582-10.615l25.548 2.11c2.308.099 4.484-.594 6.264-1.912-2.374-2.242-5.077-4.088-8.11-5.34-3.263-1.352-6.79-1.978-10.318-2.407-9.263-1.154-18.658-1.187-27.921-.099-1.418.165-2.934.396-3.956 1.385-1.912 1.813-4.12 6.79-2.901 9.131 4.681 8.967 13.021 15 20.24 21.823 7.154 6.79 12.494 14.603 16.582 23.603 2.308 5.11 5.769 11.604 9.89 15.658l1.088-1.747-.495 1.055c.626-23.207-30.493-52.645-30.493-52.645z" transform="translate(2) translate(194.494)"/>
        </g>
        <g>
            <path fill="#FFF" d="M37.811 62.436l46.48-16.911c9.231-3.363 19.55 1.45 22.912 10.68l32.437 89.138c3.363 9.23-1.45 19.549-10.68 22.911l-46.481 16.911c-9.23 3.363-19.548-1.45-22.91-10.68L27.096 85.347c-3.362-9.263 1.45-19.549 10.714-22.911z" opacity=".4" transform="translate(2) translate(142.74 93.621)"/>
            <path fill="#A6BDD1" d="M39.855 62.205l-2.275-6.263c-1.45-3.956.627-8.373 4.582-9.824l28.285-10.285c3.955-1.45 8.373.626 9.823 4.582l2.275 6.264-42.69 15.526zM2.835 34.02L.33 27.13c-.923-2.505.395-5.274 2.9-6.197L59.206.56c2.506-.923 5.275.396 6.198 2.901l.66 1.846L9.23 25.944l1.846 5.043-8.241 3.033zM47.569 43.58l-4.484-12.296c-.593-1.582.264-3.363 1.847-3.923l11.34-4.12c1.582-.594 3.362.263 3.922 1.845l4.484 12.296-17.11 6.198z" transform="translate(2) translate(142.74 93.621)"/>
            <path fill="#B70808" d="M102.686 84.852c-17.174 6.264-27.822 24.493-27.822 24.493l6.395 76.183c.396-.099.791-.23 1.187-.396l46.48-16.91c9.231-3.363 14.044-13.681 10.681-22.912l-21.592-59.37s-4.977-4.846-15.329-1.088z" transform="translate(2) translate(142.74 93.621)"/>
            <path fill="#A6BDD1" d="M46.09 13.25L51.233 13.25 51.233 24.491 46.09 24.491z" transform="translate(2) translate(142.74 93.621) rotate(-19.999 48.662 18.87)"/>
            <path fill="#A6BDD1" d="M70.179 55.418L75.322 55.418 75.322 114.755 70.179 114.755z" transform="translate(2) translate(142.74 93.621) rotate(-19.999 72.75 85.087)"/>
            <path fill="#DD0A0A" d="M107.895 112.28C88.38 119.366 71.963 92.6 48.92 100.971c-4.879 1.78-9.131 4.385-12.757 7.286l-.627.23 24 65.964c3.362 9.23 13.68 14.043 22.91 10.68l46.48-16.91c9.231-3.363 14.044-13.681 10.681-22.912L122.73 98.895s-2.142 8.77-14.834 13.384z" transform="translate(2) translate(142.74 93.621)"/>
            <path fill="#A6BDD1" d="M76.38 187.901c-2.802 0-5.637-.626-8.274-1.846-4.747-2.208-8.34-6.098-10.087-11.01L25.548 85.907c-3.692-10.12 1.55-21.328 11.67-25.02l46.48-16.911c10.12-3.693 21.329 1.549 25.021 11.67l32.438 89.137c1.78 4.879 1.55 10.186-.66 14.933-2.208 4.747-6.098 8.34-11.01 10.088l-46.48 16.91c-2.143.792-4.385 1.187-6.627 1.187zM38.371 63.985c-8.406 3.066-12.757 12.395-9.691 20.801l32.437 89.138c3.066 8.406 12.395 12.758 20.801 9.692l46.481-16.911c4.055-1.484 7.286-4.45 9.132-8.406 1.846-3.956 2.044-8.34.56-12.395l-32.438-89.138c-3.065-8.406-12.395-12.758-20.8-9.692L38.37 63.985z" transform="translate(2) translate(142.74 93.621)"/>
        </g>
        <g>
            <path fill="#FFF" d="M58.15 45.558l46.481 16.911c9.23 3.362 14.044 13.68 10.681 22.91l-32.438 89.139c-3.362 9.23-13.68 14.043-22.91 10.68l-46.481-16.91c-9.23-3.363-14.043-13.681-10.681-22.912L35.24 56.24c3.362-9.23 13.68-14.044 22.91-10.681z" opacity=".4" transform="translate(2) translate(302.62 93.621)"/>
            <path fill="#A6BDD1" d="M59.865 46.745l2.274-6.264c1.45-3.956 5.868-6 9.824-4.582l28.284 10.285c3.956 1.45 6 5.868 4.582 9.824l-2.274 6.263-42.69-15.526zM139.212 33.954l2.505-6.89c.923-2.505-.395-5.274-2.9-6.197L82.873.494C80.37-.429 77.6.89 76.677 3.395l-.66 1.846 56.833 20.637-1.846 5.043 8.208 3.033zM77.732 37.415l4.483-12.296c.593-1.582 2.34-2.406 3.923-1.846l11.34 4.121c1.582.593 2.406 2.34 1.846 3.923l-4.483 12.296-17.11-6.198z" transform="translate(2) translate(302.62 93.621)"/>
            <path fill="#0B70D6" d="M93.423 104.5c-17.175-6.264-37.086.89-37.086.89l-44.041 62.436c.363.164.758.33 1.154.461l46.48 16.911c9.23 3.363 19.549-1.45 22.911-10.68l21.626-59.404c0 .033-.693-6.856-11.044-10.614z" transform="translate(2) translate(302.62 93.621)"/>
            <path fill="#A6BDD1" d="M91.91 13.55L97.053 13.55 97.053 24.791 91.91 24.791z" transform="translate(2) translate(302.62 93.621) rotate(19.999 94.482 19.17)"/>
            <path fill="#A6BDD1" d="M67.779 55.738L72.922 55.738 72.922 115.075 67.779 115.075z" transform="translate(2) translate(302.62 93.621) rotate(19.999 70.35 85.407)"/>
            <path fill="#1A82FF" d="M79.776 128.795c-19.516-7.088-14.868-38.174-37.91-46.547-4.88-1.78-9.79-2.505-14.439-2.604l-.626-.23-23.999 65.962c-3.362 9.23 1.45 19.549 10.68 22.911l46.482 16.911c9.23 3.363 19.548-1.45 22.91-10.68l16.912-46.448c-.033.033-7.286 5.373-20.01.725z" transform="translate(2) translate(302.62 93.621)"/>
            <path fill="#A6BDD1" d="M66.03 187.967c-2.242 0-4.484-.395-6.66-1.186l-46.48-16.912c-10.12-3.692-15.362-14.9-11.67-25.02L33.657 55.71c3.693-10.12 14.9-15.362 25.021-11.67l46.48 16.912c4.88 1.78 8.803 5.373 11.011 10.087 2.209 4.747 2.44 10.021.66 14.933L84.39 175.111c-1.78 4.879-5.373 8.802-10.088 11.01-2.637 1.22-5.472 1.846-8.274 1.846zM52.051 46.151c-6.626 0-12.856 4.088-15.263 10.68L4.351 145.97c-1.483 4.054-1.285 8.472.56 12.395 1.847 3.955 5.077 6.922 9.132 8.406l46.481 16.91c8.406 3.067 17.735-1.285 20.801-9.69l32.438-89.139c1.483-4.054 1.285-8.472-.56-12.395-1.847-3.955-5.077-6.922-9.132-8.406l-46.48-16.91c-1.847-.693-3.693-.99-5.539-.99z" transform="translate(2) translate(302.62 93.621)"/>
        </g>
        <g>
            <path fill="#DD0A0A" d="M68.93 5.208l17.373 17.373c6.659 6.66 6.659 17.538 0 24.164L46.778 86.237c-6.66 6.659-17.538 6.659-24.164 0L5.241 68.864c-6.659-6.659-6.659-17.537 0-24.163L44.734 5.208c6.659-6.658 17.537-6.658 24.196 0z" transform="translate(2) translate(384.044 176.364)"/>
            <path fill="#B70808" d="M90.984 31.449c-.626 3.263-2.176 6.362-4.681 8.867L46.778 79.81c-6.66 6.659-17.538 6.659-24.164 0L5.241 62.436c-2.505-2.505-4.054-5.604-4.68-8.868-1.023 5.374.56 11.176 4.68 15.296l17.373 17.373c6.66 6.659 17.538 6.659 24.164 0L86.27 46.745c4.153-4.154 5.736-9.923 4.714-15.296z" transform="translate(2) translate(384.044 176.364)"/>
            <path fill="#F45151" d="M59.403 32.075c4.714 4.714 4.55 12.56-.33 17.439l-9.493 9.494c-4.88 4.878-12.758 5.043-17.439.33-4.714-4.715-4.55-12.56.33-17.44l9.494-9.493c4.879-4.88 12.724-5.044 17.438-.33z" transform="translate(2) translate(384.044 176.364)"/>
            <path fill="#E54242" d="M62.502 37.646c-.527 2.242-1.681 4.385-3.428 6.165l-9.494 9.494c-4.88 4.879-12.758 5.043-17.439.33-1.582-1.583-2.604-3.528-3.099-5.572-.923 3.989.1 8.274 3.099 11.307 4.714 4.714 12.56 4.55 17.439-.33l9.494-9.493c3.263-3.264 4.417-7.813 3.428-11.9z" transform="translate(2) translate(384.044 176.364)"/>
            <path fill="#E2EAF2" d="M49.975 5.472v-.165-.164c-2.604-.231-4.648-2.308-4.813-4.945h-.659c-.165 2.604-2.209 4.714-4.813 4.945v.329c2.604.231 4.648 2.308 4.813 4.945h.66c.197-2.604 2.24-4.714 4.812-4.945z" transform="translate(2) translate(384.044 176.364)"/>
        </g>
        <g>
            <g>
                <path fill="#1A82FF" d="M5.11 22.548L22.482 5.176c6.66-6.66 17.538-6.66 24.164 0l39.492 39.492c6.659 6.659 6.659 17.537 0 24.163L68.765 86.204c-6.659 6.659-17.537 6.659-24.163 0L5.11 46.712c-6.66-6.626-6.66-17.538 0-24.164z" transform="translate(2) translate(120.323 174.715) translate(0 1.648)"/>
                <path fill="#0F7CE8" d="M31.35.494c3.263.627 6.362 2.176 8.868 4.682L79.71 44.668c6.659 6.659 6.659 17.537 0 24.163L62.337 86.204c-2.505 2.505-5.604 4.055-8.868 4.681 5.374 1.022 11.176-.56 15.296-4.681L86.138 68.83c6.659-6.659 6.659-17.537 0-24.163L46.646 5.176C42.526 1.055 36.723-.527 31.35.494z" transform="translate(2) translate(120.323 174.715) translate(0 1.648)"/>
                <path fill="#40A0FF" d="M32.01 32.075c4.713-4.714 12.559-4.55 17.438.33l9.494 9.46c4.879 4.88 5.043 12.758.33 17.44-4.715 4.713-12.56 4.549-17.44-.33L32.34 49.48c-4.912-4.846-5.044-12.692-.33-17.406z" transform="translate(2) translate(120.323 174.715) translate(0 1.648)"/>
                <path fill="#359CEF" d="M37.58 28.976c2.242.528 4.385 1.682 6.165 3.429l9.46 9.46c4.88 4.88 5.044 12.758.33 17.44-1.582 1.582-3.527 2.604-5.57 3.098 3.988.923 8.274-.099 11.306-3.099 4.714-4.714 4.55-12.56-.33-17.438l-9.493-9.461c-3.23-3.264-7.813-4.418-11.868-3.429z" transform="translate(2) translate(120.323 174.715) translate(0 1.648)"/>
            </g>
            <path fill="#E2EAF2" d="M28.449.264h-.33c-.23 2.604-2.307 4.648-4.944 4.813v.659c2.604.165 4.714 2.209 4.944 4.813h.33c.23-2.604 2.307-4.648 4.945-4.813v-.33-.33c-2.605-.164-4.714-2.208-4.945-4.812z" transform="translate(2) translate(120.323 174.715)"/>
        </g>
        <g>
            <g stroke="#85A1B9" stroke-width="2">
                <path fill="#FFF" d="M.23 45.657h117.785c6.264 0 11.373-5.077 11.373-11.373v96.456c0 6.263-5.076 11.373-11.373 11.373H.231l21.955-50.008L.23 45.657z" transform="translate(2) translate(0 245.59)"/>
                <path fill="#1A82FF" d="M118.015 22.944c6.264 0 11.373 5.076 11.373 11.373v96.456c0-6.264-5.076-11.373-11.373-11.373H92.863c-6.264 0-11.373-5.077-11.373-11.373V11.57c0 6.263 5.077 11.373 11.373 11.373h25.152z" transform="translate(2) translate(0 245.59)"/>
                <path fill="#FFF" d="M591.032 45.657H473.215c-6.263 0-11.373-5.077-11.373-11.373v96.456c0 6.263 5.077 11.373 11.373 11.373h117.784l-21.954-50.008 21.987-46.448z" transform="translate(2) translate(0 245.59)"/>
                <path fill="#1A82FF" d="M473.215 22.944c-6.263 0-11.373 5.076-11.373 11.373v96.456c0-6.264 5.077-11.373 11.373-11.373h25.152c6.264 0 11.373-5.077 11.373-11.373V11.57c0 6.263-5.076 11.373-11.373 11.373h-25.152z" transform="translate(2) translate(0 245.59)"/>
                <path fill="#FFF" d="M92.863 96.654c-6.264 0-11.373 5.077-11.373 11.373V11.57C81.49 5.307 86.567.198 92.863.198H498.4c6.264 0 11.373 5.076 11.373 11.373v96.456c0-6.264-5.076-11.373-11.373-11.373H92.863z" transform="translate(2) translate(0 245.59)"/>
            </g>
            <path fill="#000" d="M164.002 62.733l-5.901-10.12h-4.813v10.12h-5.934V33.064h10.384c7.286 0 11.67 3.956 11.67 9.923 0 4.054-1.978 7.054-5.604 8.538l6.79 11.24h-6.592v-.032zm-10.747-15.395h5.242c3.263 0 4.78-2.11 4.78-4.351 0-2.341-1.583-4.418-4.78-4.418h-5.242v8.769zm20.043 15.395V33.064h5.9v29.669h-5.9zm33.196-3.099c-1.615 1.813-5.143 3.692-9 3.692-8.538 0-15.394-6.494-15.394-15.428 0-8.933 6.856-15.427 15.394-15.427 5.901.033 10.813 3.098 13.483 7.845l-6.033 1.583c-1.615-2.209-4.549-3.593-7.45-3.593-5.538 0-9.23 3.988-9.23 9.625 0 5.901 4.055 9.66 9.593 9.66 5.077 0 7.747-2.803 8.703-5.077v-1.286h-8.242v-4.78h13.285v16.318h-5.076c0-2.473.033-3.066.033-3.1h-.066v-.032zm9.23 3.099V33.064h5.9v29.669h-5.9zm36.295-29.669v29.669h-5.538l-8.44-11.44c-2.67-3.658-5.933-8.306-5.966-8.306h-.033c-.033 0 .033 4.285.033 10.186v9.593h-5.901V33.097h5.538l8.604 11.57c2.044 2.671 5.769 7.978 5.802 7.978h.033c.033 0-.033-4.846-.033-9.823v-9.725h5.9v-.033zm-108.884 6.89l-4.813 4.813c.198.956.297 2.01.297 3.131 0 6.066-2.868 9.725-7.648 9.725-2.011 0-3.692-.626-4.945-1.846l16.647-16.647c-.461-.792-.956-1.517-1.516-2.209-.23-.297-.495-.56-.758-.791l-.1-.1-.23-.23c-2.406-2.241-5.538-3.428-9.098-3.428-4.121 0-7.615 1.582-10.154 4.582-2.373 2.802-3.692 6.725-3.692 11.01 0 2.835.594 5.505 1.681 7.813l4.846-4.846c-.164-.923-.263-1.912-.263-3 0-2.802.56-5.076 1.68-6.725 1.32-1.944 3.363-3 5.902-3 1.978 0 3.626.627 4.878 1.78l-16.614 16.615c.462.824.989 1.615 1.582 2.308.132.132.231.263.363.395.132.165.297.297.428.462l.066.066.132.132c2.407 2.307 5.538 3.527 9.165 3.527 4.12 0 7.648-1.582 10.186-4.582 2.373-2.802 3.692-6.725 3.692-11.01.033-2.902-.593-5.638-1.714-7.945zm139.87 22.779l-5.8-10.22h-4.352v10.22h-6.132V33.03h11.142c7.319 0 11.703 3.692 11.703 9.857 0 3.988-1.912 6.89-5.44 8.208l-.724.264 6.89 11.373h-7.286zm-10.152-14.868h5.472c3.099 0 4.879-1.68 4.879-4.615 0-3.032-1.813-4.747-4.945-4.747h-5.44v9.362h.034zm42.36 14.868v-5.604H299.85v-6.956h11.142v-4.912h-11.142v-6.593h15.131v-5.604H293.72v29.702h21.493v-.033zm37.91 0l8.637-29.702h-6.033L352.2 46.052c-1.912 7.352-2.011 7.483-2.044 7.55l-.297.362h-.79l-.166-.363c-.099-.197-1.153-4.186-1.78-6.527l-2.934-11.109-.725-2.934h-6.461l-.857 2.934-2.967 11.01-.363 1.352c-1.351 5.142-1.351 5.175-1.417 5.307l-.165.363h-.989l-.165-.363c-.033-.099-.066-.099-.527-1.912-.33-1.351-.857-3.395-1.517-5.9l-3.362-12.758h-6.923l8.637 29.702h7.516l3.264-12c.824-3 1.351-5.142 1.615-6.197.198-.824.198-.857.264-.956l.165-.363h.989l.164.363c.033.099.066.099.198.626.23.923.791 3.132 1.714 6.198l3.66 12.329h7.186v-.033zm29.405 0l-1.846-5.143h-13.78l-1.846 5.143h-6.428l11.439-29.702h7.582l11.505 29.702h-6.626zm-9.296-22.417c-.132.132-.132.132-1.154 2.802l-.725 1.945-2.539 7.055h9.857l-2.538-7.022-1.055-2.802c-.693-1.879-.693-1.879-.824-2.01l-.198-.198h-.528l-.296.23zm35.206 22.417l-5.801-10.22h-4.352v10.22h-6.131V33.03h11.142c7.318 0 11.702 3.692 11.702 9.857 0 3.988-1.912 6.89-5.439 8.208l-.725.264 6.89 11.373h-7.286zm-10.12-14.868h5.472c3.099 0 4.88-1.68 4.88-4.615 0-3.032-1.814-4.747-4.946-4.747h-5.439v9.362h.033zm20.834 14.868V33.03h12.527c9.098 0 15.691 6.296 15.691 14.966 0 8.67-6.428 14.703-15.625 14.703h-12.593v.033zm6.165-5.604h6c4.548 0 9.889-2.374 9.889-9.099 0-6.46-4.978-9.362-9.89-9.362h-6v18.46zm48.26-2.704c0-6.296-4.845-8.076-9.098-8.867l-.89-.165c-4.022-.824-6.923-1.385-6.923-4.351 0-1.022.462-3.396 4.681-3.396 3.033 0 5.044 1.121 6 3.363l5.868-1.583c-1.714-4.648-5.67-7.021-11.736-7.021-7.054 0-11.076 3.23-11.076 8.834 0 5.934 4.516 7.813 8.934 8.901.824.198 1.648.363 2.439.494 2.868.528 5.571.99 5.571 3.857 0 1.088-.494 3.627-5.208 3.627-3.33 0-5.67-1.286-6.56-3.594l-5.868 1.583c1.945 6 7.813 7.252 12.46 7.252 5.21 0 11.407-1.55 11.407-8.934z" transform="translate(2) translate(0 245.59)"/>
        </g>
        <path fill="#E2EAF2" d="M120.488 82.116c0-.132.033-.296.033-.428 0-.165-.033-.297-.033-.429-6.593-.593-11.835-5.934-12.23-12.56-.264 0-.528-.033-.792-.033-.263 0-.527.033-.79.033-.396 6.66-5.638 12-12.23 12.56 0 .132-.034.297-.034.429 0 .165.033.296.033.428 6.593.594 11.835 5.934 12.23 12.56.264 0 .528.033.791.033.264 0 .528-.033.792-.033.428-6.659 5.637-12 12.23-12.56zM492.434 112.807c0-.132.033-.297.033-.429 0-.165-.033-.296-.033-.428-6.593-.594-11.835-5.934-12.23-12.56-.264 0-.528-.033-.792-.033-.263 0-.527.033-.79.033-.396 6.659-5.638 12-12.23 12.56 0 .132-.034.296-.034.428 0 .165.033.297.033.429 6.593.593 11.835 5.934 12.23 12.56.264 0 .528.032.791.032.264 0 .528-.032.792-.032.428-6.626 5.637-11.967 12.23-12.56zM398.483 32.701c0-.131.033-.296.033-.428 0-.165-.033-.297-.033-.429-6.593-.593-11.835-5.933-12.23-12.56-.264 0-.528-.032-.791-.032-.264 0-.528.033-.791.033-.396 6.659-5.638 11.999-12.23 12.56 0 .131-.034.296-.034.428 0 .165.033.297.033.428 6.593.594 11.835 5.934 12.23 12.56.264 0 .528.033.792.033.263 0 .527-.033.79-.033.43-6.626 5.638-11.966 12.23-12.56zM149.893 92.566v-.198-.197c-3.198-.297-5.703-2.868-5.901-6.066-.132 0-.264-.033-.396-.033s-.263 0-.395.033c-.198 3.198-2.703 5.769-5.901 6.066v.395c3.198.297 5.703 2.868 5.9 6.066.133 0 .264.033.396.033s.264 0 .396-.033c.198-3.23 2.703-5.802 5.9-6.066zM204.714 18.362v-.198-.198c-3.198-.297-5.703-2.868-5.901-6.066-.132 0-.264-.033-.396-.033s-.263 0-.395.033c-.198 3.198-2.703 5.77-5.901 6.066v.396c3.198.296 5.703 2.868 5.9 6.065.133 0 .264.033.396.033s.264 0 .396-.033c.198-3.197 2.703-5.769 5.9-6.065zM70.183 222.812v-.198-.198c-3.198-.297-5.703-2.868-5.9-6.066-.133 0-.265-.033-.397-.033-.131 0-.263 0-.395.033-.198 3.198-2.703 5.77-5.9 6.066v.396c3.197.296 5.702 2.868 5.9 6.065.132 0 .264.033.395.033.132 0 .264 0 .396-.033.198-3.23 2.736-5.802 5.9-6.065zM428.35 143.2v-.197-.198c-3.198-.297-5.704-2.868-5.901-6.065-.132 0-.264-.033-.396-.033s-.264 0-.396.033c-.197 3.197-2.703 5.768-5.9 6.065v.396c3.197.296 5.703 2.868 5.9 6.065.132 0 .264.033.396.033s.264 0 .396-.033c.197-3.23 2.703-5.802 5.9-6.065zM552.826 205.439v-.198-.198c-3.198-.296-5.703-2.868-5.9-6.065-.133 0-.265-.033-.397-.033-.131 0-.263 0-.395.033-.198 3.197-2.703 5.769-5.9 6.065v.396c3.197.297 5.702 2.868 5.9 6.066.132 0 .264.032.395.032.132 0 .264 0 .396-.032.198-3.231 2.703-5.802 5.9-6.066zM496.126 151.739v-.198-.198c-3.198-.297-5.703-2.868-5.901-6.066-.132 0-.264-.032-.396-.032-.131 0-.263 0-.395.032-.198 3.198-2.703 5.77-5.901 6.066v.396c3.198.296 5.703 2.868 5.9 6.065.133 0 .265.033.396.033.132 0 .264 0 .396-.033.198-3.197 2.703-5.769 5.9-6.065zM96.225 167.694v-.198-.198c-3.197-.296-5.703-2.868-5.9-6.065-.132 0-.264-.033-.396-.033s-.264 0-.396.033c-.197 3.197-2.703 5.769-5.9 6.065v.396c3.197.296 5.703 2.868 5.9 6.065.132 0 .264.033.396.033s.264 0 .396-.033c.197-3.197 2.703-5.769 5.9-6.065zM118.378 185.56c-4.12 0-7.45-3.329-7.45-7.45 0-4.12 3.33-7.45 7.45-7.45s7.45 3.33 7.45 7.45c0 4.121-3.33 7.45-7.45 7.45zm0-12.526c-2.802 0-5.077 2.275-5.077 5.077s2.275 5.076 5.077 5.076 5.077-2.274 5.077-5.076c0-2.802-2.275-5.077-5.077-5.077zM154.508 35.701c-4.12 0-7.45-3.33-7.45-7.45s3.33-7.45 7.45-7.45 7.45 3.33 7.45 7.45-3.33 7.45-7.45 7.45zm0-12.526c-2.802 0-5.077 2.274-5.077 5.076 0 2.802 2.275 5.077 5.077 5.077s5.076-2.275 5.076-5.077-2.274-5.076-5.076-5.076zM452.48 97.346c-4.12 0-7.45-3.33-7.45-7.45s3.33-7.45 7.45-7.45 7.45 3.33 7.45 7.45-3.33 7.45-7.45 7.45zm0-12.527c-2.802 0-5.077 2.275-5.077 5.077s2.275 5.077 5.077 5.077 5.077-2.275 5.077-5.077-2.275-5.077-5.077-5.077zM508.52 199.538c-4.12 0-7.45-3.33-7.45-7.45s3.33-7.45 7.45-7.45c4.121 0 7.45 3.33 7.45 7.45s-3.329 7.45-7.45 7.45zm0-12.527c-2.801 0-5.076 2.275-5.076 5.077s2.275 5.077 5.077 5.077 5.076-2.275 5.076-5.077-2.274-5.077-5.076-5.077z" transform="translate(2)"/>
        <path fill="#1A82FF" d="M438.667 133.18c-5.274 7.812-8.67 12.69-8.67 17.438 0 4.747 3.89 8.604 8.67 8.604 4.78 0 8.67-3.857 8.67-8.604 0-4.747-3.362-9.626-8.67-17.439z" transform="translate(2)"/>
        <path fill="#DD0A0A" d="M149.431 133.18c-5.274 7.812-8.67 12.69-8.67 17.438 0 4.747 3.89 8.604 8.67 8.604 4.78 0 8.67-3.857 8.67-8.604 0-4.747-3.395-9.626-8.67-17.439z" transform="translate(2)"/>
        <path fill="#FFF" d="M149.398 138.717c.495.792 1.12 2.143 1.12 3.594 0 4.252-4.35 4.944-4.35 2.34 0-1.747 2.142-4.351 3.23-5.934zM438.634 138.717c.495.792 1.121 2.143 1.121 3.594 0 4.252-4.351 4.944-4.351 2.34.033-1.747 2.176-4.351 3.23-5.934z" transform="translate(2)"/>
    </g>
</svg>
