<svg xmlns="http://www.w3.org/2000/svg" xmlns:xlink="http://www.w3.org/1999/xlink" width="1440" height="1110" viewBox="0 0 1440 1110">
    <defs>
        <radialGradient id="prefix__b" cx="50%" cy="50%" r="52.195%" fx="50%" fy="50%">
            <stop offset="0%" stop-color="#E2EAF2"/>
            <stop offset="100%" stop-color="#FFF" stop-opacity="0"/>
        </radialGradient>
        <path id="prefix__a" d="M0 -0.001L1839.68 -0.001 1839.68 1839.68 0 1839.68z"/>
    </defs>
    <g fill="none" fill-rule="evenodd" transform="translate(-200 -690)">
        <mask id="prefix__c" fill="#fff">
            <use xlink:href="#prefix__a"/>
        </mask>
        <path fill="url(#prefix__b)" d="M1318.56 50.353l-67.234-29.084-331.486 858.57 398.72-829.486zM521.12 1709.327l67.235 29.084L919.84 879.84l-398.72 829.487zM90.353 481.12L61.27 548.354 919.84 879.84 90.354 481.12zm1658.975 797.44l29.083-67.234-858.57-331.486 829.487 398.72zM615.243 11.367l-68.109 26.977L919.841 879.84 615.242 11.366zm609.195 1736.947l68.107-26.976L919.84 879.84l304.598 868.473zM51.367 1184.438l26.978 68.107L919.84 879.84 51.365 1184.438zm1736.947-609.196l-26.976-68.107L919.842 879.84l868.472-304.598zm-188.055-315.126l-51.444-52.152L919.84 879.84l680.418-619.724zM239.423 1499.563l51.442 52.153L919.841 879.84l-680.418 619.723zm60.693-1300.141l-52.151 51.444L919.84 879.84 300.116 199.422zm1239.448 1360.837l52.152-51.445L919.841 879.84l619.722 680.419zM962.758-39.5l-73.254-.502 30.337 919.84 42.918-919.338zM876.923 1799.18l73.255.5-30.337-919.84-42.918 919.34zM.503 836.922L0 910.176l919.84-30.336L.501 836.922zm1838.677 85.836l.501-73.254-919.84 30.336 919.34 42.918zM1146.866-12.06l-71.656-15.231-155.37 907.13 227.026-891.9zm-454.05 1783.8l71.654 15.23 155.37-907.13-227.024 891.9zM27.94 652.815L12.71 724.469l907.13 155.37-891.9-227.024zm1783.8 454.05l15.23-71.655-907.13-155.37 891.9 227.025zM449.702 88.64l-61.437 39.898L919.841 879.84 449.702 88.64zm940.275 1582.4l61.438-39.898L919.84 879.84l470.136 791.2zM128.64 1349.978l39.899 61.437L919.84 879.84l-791.2 470.138zm1582.4-940.276l-39.898-61.437L919.84 879.84l791.2-470.138zM1464.447 137.93l-60.732-40.964L919.84 879.84l544.606-741.91zM375.235 1621.75l60.731 40.964L919.841 879.84l-544.606 741.91zM177.929 335.234l-40.963 60.732L919.841 879.84 177.928 335.234zm1483.822 1089.212l40.964-60.731L919.84 879.84l741.91 544.606zM780.324-29.864l-71.909 13.977L919.841 879.84 780.323-29.864zm279.031 1819.408l71.91-13.978L919.84 879.84l139.515 909.704zm-1049.22-770.19l13.978 71.91L919.84 879.84 10.135 1019.355zM919.842 879.84l895.725-211.425 13.978 71.91L919.84 879.84z" mask="url(#prefix__c)"/>
    </g>
</svg>
