<svg xmlns="http://www.w3.org/2000/svg" width="1230" height="533" viewBox="0 0 1230 533">
    <defs>
        <linearGradient id="prefix__b" x1="33.152%" x2="67.307%" y1="66.922%" y2="32.767%">
            <stop offset="0%" stop-color="#FFCD40"/>
            <stop offset="100%" stop-color="#1A82FF"/>
        </linearGradient>
        <linearGradient id="prefix__c" x1="33.167%" x2="67.322%" y1="66.92%" y2="32.765%">
            <stop offset="0%" stop-color="#FFCD40"/>
            <stop offset="100%" stop-color="#1A82FF"/>
        </linearGradient>
        <linearGradient id="prefix__d" x1="33.134%" x2="67.289%" y1="66.922%" y2="32.767%">
            <stop offset="0%" stop-color="#FFCD40"/>
            <stop offset="100%" stop-color="#1A82FF"/>
        </linearGradient>
        <linearGradient id="prefix__e" x1="33.006%" x2="67.161%" y1="67.023%" y2="32.867%">
            <stop offset="0%" stop-color="#FFCD40"/>
            <stop offset="100%" stop-color="#1A82FF"/>
        </linearGradient>
        <linearGradient id="prefix__f" x1="67.28%" x2="32.987%" y1="66.861%" y2="32.568%">
            <stop offset="0%" stop-color="#FFCD40"/>
            <stop offset="100%" stop-color="#1A82FF"/>
        </linearGradient>
        <linearGradient id="prefix__g" x1="67.41%" x2="33.116%" y1="66.79%" y2="32.497%">
            <stop offset="0%" stop-color="#FFCD40"/>
            <stop offset="100%" stop-color="#1A82FF"/>
        </linearGradient>
        <linearGradient id="prefix__h" x1="67%" x2="32.707%" y1="32.634%" y2="66.928%">
            <stop offset="0%" stop-color="#FFCD40"/>
            <stop offset="100%" stop-color="#1A82FF"/>
        </linearGradient>
        <linearGradient id="prefix__i" x1="33.199%" x2="67.493%" y1="67.24%" y2="32.947%">
            <stop offset="0%" stop-color="#FFCD40"/>
            <stop offset="100%" stop-color="#1A82FF"/>
        </linearGradient>
        <linearGradient id="prefix__j" x1="67.409%" x2="33.115%" y1="66.771%" y2="32.477%">
            <stop offset="0%" stop-color="#DB4437"/>
            <stop offset="100%" stop-color="#1A82FF"/>
        </linearGradient>
        <linearGradient id="prefix__k" x1="67%" x2="32.707%" y1="32.613%" y2="66.907%">
            <stop offset="0%" stop-color="#DB4437"/>
            <stop offset="100%" stop-color="#1A82FF"/>
        </linearGradient>
        <linearGradient id="prefix__l" x1="32.68%" x2="66.962%" y1="32.885%" y2="67.167%">
            <stop offset="0%" stop-color="#FF672A"/>
            <stop offset="100%" stop-color="#1A82FF"/>
        </linearGradient>
        <linearGradient id="prefix__m" x1="32.666%" x2="66.948%" y1="32.885%" y2="67.167%">
            <stop offset="0%" stop-color="#FF672A"/>
            <stop offset="100%" stop-color="#1A82FF"/>
        </linearGradient>
        <linearGradient id="prefix__n" x1="32.759%" x2="67.04%" y1="32.999%" y2="67.279%">
            <stop offset="0%" stop-color="#FF672A"/>
            <stop offset="100%" stop-color="#1A82FF"/>
        </linearGradient>
        <linearGradient id="prefix__o" x1="32.873%" x2="67.154%" y1="33.073%" y2="67.354%">
            <stop offset="0%" stop-color="#FF672A"/>
            <stop offset="100%" stop-color="#1A82FF"/>
        </linearGradient>
        <linearGradient id="prefix__p" x1="66.962%" x2="32.792%" y1="32.75%" y2="66.92%">
            <stop offset="0%" stop-color="#DB4437"/>
            <stop offset="100%" stop-color="#1A82FF"/>
        </linearGradient>
        <linearGradient id="prefix__q" x1="67.313%" x2="33.031%" y1="66.901%" y2="32.62%">
            <stop offset="0%" stop-color="#DB4437"/>
            <stop offset="100%" stop-color="#1A82FF"/>
        </linearGradient>
        <linearGradient id="prefix__r" x1="33.047%" x2="67.329%" y1="67.014%" y2="32.732%">
            <stop offset="0%" stop-color="#DB4437"/>
            <stop offset="100%" stop-color="#1A82FF"/>
        </linearGradient>
        <linearGradient id="prefix__s" x1="67.15%" x2="32.869%" y1="66.872%" y2="32.59%">
            <stop offset="0%" stop-color="#DB4437"/>
            <stop offset="100%" stop-color="#1A82FF"/>
        </linearGradient>
        <linearGradient id="prefix__t" x1="33.103%" x2="67.273%" y1="66.874%" y2="32.815%">
            <stop offset="0%" stop-color="#DB4437"/>
            <stop offset="100%" stop-color="#1A82FF"/>
        </linearGradient>
        <linearGradient id="prefix__u" x1="32.916%" x2="67.197%" y1="32.919%" y2="67.2%">
            <stop offset="0%" stop-color="#DB4437"/>
            <stop offset="100%" stop-color="#1A82FF"/>
        </linearGradient>
        <linearGradient id="prefix__v" x1="67.18%" x2="32.899%" y1="32.806%" y2="67.087%">
            <stop offset="0%" stop-color="#DB4437"/>
            <stop offset="100%" stop-color="#1A82FF"/>
        </linearGradient>
        <linearGradient id="prefix__w" x1="67.341%" x2="33.059%" y1="66.899%" y2="32.618%">
            <stop offset="0%" stop-color="#DB4437"/>
            <stop offset="100%" stop-color="#1A82FF"/>
        </linearGradient>
        <linearGradient id="prefix__x" x1="33.074%" x2="67.356%" y1="67.011%" y2="32.73%">
            <stop offset="0%" stop-color="#DB4437"/>
            <stop offset="100%" stop-color="#1A82FF"/>
        </linearGradient>
        <linearGradient id="prefix__y" x1="33.009%" x2="67.259%" y1="67.148%" y2="32.898%">
            <stop offset="0%" stop-color="#0F9D58"/>
            <stop offset="100%" stop-color="#1A82FF"/>
        </linearGradient>
        <linearGradient id="prefix__z" x1="32.983%" x2="67.233%" y1="67.138%" y2="32.887%">
            <stop offset="0%" stop-color="#0F9D58"/>
            <stop offset="100%" stop-color="#1A82FF"/>
        </linearGradient>
        <linearGradient id="prefix__A" x1="32.983%" x2="67.233%" y1="67.148%" y2="32.898%">
            <stop offset="0%" stop-color="#0F9D58"/>
            <stop offset="100%" stop-color="#1A82FF"/>
        </linearGradient>
        <linearGradient id="prefix__B" x1="32.92%" x2="67.171%" y1="67.029%" y2="32.778%">
            <stop offset="0%" stop-color="#0F9D58"/>
            <stop offset="100%" stop-color="#1A82FF"/>
        </linearGradient>
        <linearGradient id="prefix__C" x1="32.938%" x2="67.188%" y1="67.026%" y2="32.776%">
            <stop offset="0%" stop-color="#0F9D58"/>
            <stop offset="100%" stop-color="#1A82FF"/>
        </linearGradient>
        <linearGradient id="prefix__D" x1="32.9%" x2="67.15%" y1="32.864%" y2="67.114%">
            <stop offset="0%" stop-color="#0F9D58"/>
            <stop offset="100%" stop-color="#1A82FF"/>
        </linearGradient>
        <linearGradient id="prefix__E" x1="32.98%" x2="67.23%" y1="66.972%" y2="32.722%">
            <stop offset="0%" stop-color="#0F9D58"/>
            <stop offset="100%" stop-color="#1A82FF"/>
        </linearGradient>
        <linearGradient id="prefix__F" x1="67.127%" x2="32.877%" y1="67.05%" y2="32.8%">
            <stop offset="0%" stop-color="#0F9D58"/>
            <stop offset="100%" stop-color="#1A82FF"/>
        </linearGradient>
        <linearGradient id="prefix__G" x1="67.048%" x2="32.797%" y1="32.607%" y2="66.858%">
            <stop offset="0%" stop-color="#0F9D58"/>
            <stop offset="100%" stop-color="#1A82FF"/>
        </linearGradient>
        <linearGradient id="prefix__H" x1="32.885%" x2="67.136%" y1="32.884%" y2="67.135%">
            <stop offset="0%" stop-color="#FFCD40"/>
            <stop offset="100%" stop-color="#1A82FF"/>
        </linearGradient>
        <linearGradient id="prefix__I" x1="32.966%" x2="67.216%" y1="66.993%" y2="32.742%">
            <stop offset="0%" stop-color="#FFCD40"/>
            <stop offset="100%" stop-color="#1A82FF"/>
        </linearGradient>
        <linearGradient id="prefix__J" x1="32.919%" x2="67.169%" y1="32.875%" y2="67.125%">
            <stop offset="0%" stop-color="#FFCD40"/>
            <stop offset="100%" stop-color="#1A82FF"/>
        </linearGradient>
        <linearGradient id="prefix__K" x1="32.999%" x2="67.249%" y1="66.983%" y2="32.732%">
            <stop offset="0%" stop-color="#FFCD40"/>
            <stop offset="100%" stop-color="#1A82FF"/>
        </linearGradient>
        <linearGradient id="prefix__L" x1="67.042%" x2="32.792%" y1="32.571%" y2="66.821%">
            <stop offset="0%" stop-color="#FFCD40"/>
            <stop offset="100%" stop-color="#1A82FF"/>
        </linearGradient>
        <linearGradient id="prefix__M" x1="32.934%" x2="67.185%" y1="32.65%" y2="66.9%">
            <stop offset="0%" stop-color="#FFCD40"/>
            <stop offset="100%" stop-color="#1A82FF"/>
        </linearGradient>
        <linearGradient id="prefix__N" x1="67.134%" x2="32.884%" y1="32.783%" y2="67.033%">
            <stop offset="0%" stop-color="#0F9D58"/>
            <stop offset="100%" stop-color="#1A82FF"/>
        </linearGradient>
        <linearGradient id="prefix__O" x1="67.179%" x2="32.929%" y1="32.697%" y2="66.948%">
            <stop offset="0%" stop-color="#0F9D58"/>
            <stop offset="100%" stop-color="#1A82FF"/>
        </linearGradient>
        <linearGradient id="prefix__P" x1="32.934%" x2="67.184%" y1="67.126%" y2="32.876%">
            <stop offset="0%" stop-color="#0F9D58"/>
            <stop offset="100%" stop-color="#1A82FF"/>
        </linearGradient>
        <linearGradient id="prefix__Q" x1="32.95%" x2="67.201%" y1="67.121%" y2="32.871%">
            <stop offset="0%" stop-color="#0F9D58"/>
            <stop offset="100%" stop-color="#1A82FF"/>
        </linearGradient>
        <linearGradient id="prefix__R" x1="49.934%" x2="49.934%" y1="100.172%" y2="-.023%">
            <stop offset="0%" stop-color="#FF672A"/>
            <stop offset="100%" stop-color="#1A82FF"/>
        </linearGradient>
        <linearGradient id="prefix__S" x1="66.953%" x2="33.124%" y1="38.199%" y2="61.331%">
            <stop offset="0%" stop-color="#F5156C"/>
            <stop offset="100%" stop-color="#1A82FF"/>
        </linearGradient>
        <linearGradient id="prefix__T" x1="33.063%" x2="66.892%" y1="38.138%" y2="61.27%">
            <stop offset="0%" stop-color="#FFCD40"/>
            <stop offset="100%" stop-color="#1A82FF"/>
        </linearGradient>
        <linearGradient id="prefix__U" x1="32.789%" x2="67.069%" y1="32.919%" y2="67.2%">
            <stop offset="0%" stop-color="#FF672A"/>
            <stop offset="100%" stop-color="#1A82FF"/>
        </linearGradient>
        <linearGradient id="prefix__V" x1="66.902%" x2="32.62%" y1="32.41%" y2="66.692%">
            <stop offset="0%" stop-color="#FF672A"/>
            <stop offset="100%" stop-color="#1A82FF"/>
        </linearGradient>
        <radialGradient id="prefix__a" cx="50%" cy="50%" r="50%" fx="50%" fy="50%">
            <stop offset="0%" stop-color="#FFF" stop-opacity=".7"/>
            <stop offset="100%" stop-color="#FFF" stop-opacity="0"/>
        </radialGradient>
    </defs>
    <g fill="none" fill-rule="evenodd" transform="translate(0 -96)">
        <circle cx="608" cy="306" r="306" fill="url(#prefix__a)"/>
        <g fill-rule="nonzero" transform="translate(0 37)">
            <g transform="translate(481.386 282.547)">
                <circle cx="55.551" cy="21.595" r="21.376" fill="#1A82FF" transform="rotate(-.428 55.551 21.595)"/>
                <path fill="#FFCD40" d="M11.834 36.514C4.904 40.032.214 47.228.214 55.544c0 7.516 3.89 14.18 9.807 17.964 3.305 2.132 7.303 3.411 11.514 3.411 11.46 0 20.79-9.008 21.322-20.309v-1.013c0-11.78-9.541-21.322-21.322-21.322-3.465-.106-6.77.747-9.701 2.24z"/>
                <path fill="url(#prefix__b)" d="M35.768 29.798c.8 1.652.48 3.731-.906 5.117-1.386 1.386-3.412 1.652-5.118.906l11.514 11.514c-.8-1.652-.48-3.731.906-5.117 1.386-1.386 3.412-1.653 5.118-.906L35.768 29.798z"/>
            </g>
            <g transform="translate(140.344 403.964)">
                <circle cx="55.544" cy="21.596" r="21.376" fill="#1A82FF" transform="rotate(-.428 55.544 21.596)"/>
                <path fill="#FFCD40" d="M11.834 36.514C4.904 40.032.214 47.228.214 55.544c0 7.516 3.89 14.18 9.807 17.964 3.305 2.132 7.303 3.411 11.514 3.411 11.46 0 20.79-9.008 21.322-20.309v-1.013c0-11.78-9.541-21.322-21.322-21.322-3.465-.106-6.77.747-9.701 2.24z"/>
                <path fill="url(#prefix__c)" d="M35.768 29.798c.8 1.652.48 3.731-.906 5.117-1.386 1.386-3.412 1.652-5.118.906l11.514 11.514c-.8-1.652-.48-3.731.906-5.117 1.386-1.386 3.412-1.653 5.118-.906L35.768 29.798z"/>
            </g>
            <g transform="translate(870.448 410.523)">
                <circle cx="55.561" cy="21.595" r="21.376" fill="#1A82FF" transform="rotate(-.428 55.56 21.595)"/>
                <path fill="#FFCD40" d="M11.834 36.514C4.904 40.032.214 47.228.214 55.544c0 7.516 3.89 14.18 9.807 17.964 3.305 2.132 7.303 3.411 11.514 3.411 11.46 0 20.79-9.008 21.322-20.309v-1.013c0-11.78-9.541-21.322-21.322-21.322-3.465-.106-6.77.747-9.701 2.24z"/>
                <path fill="url(#prefix__d)" d="M35.768 29.798c.8 1.652.48 3.731-.906 5.117-1.386 1.386-3.412 1.652-5.118.906l11.514 11.514c-.8-1.652-.48-3.731.906-5.117 1.386-1.386 3.412-1.653 5.118-.906L35.768 29.798z"/>
            </g>
            <g transform="translate(161.592 115.24)">
                <circle cx="55.437" cy="21.856" r="21.376" fill="#1A82FF" transform="rotate(-.428 55.437 21.856)"/>
                <path fill="#FFCD40" d="M11.78 36.78C4.85 40.3.16 47.496.16 55.81c0 7.517 3.891 14.18 9.808 17.964 3.305 2.133 7.303 3.412 11.514 3.412 11.46 0 20.79-9.009 21.322-20.31v-1.012c0-11.78-9.542-21.322-21.322-21.322-3.518-.107-6.77.746-9.702 2.239z"/>
                <path fill="url(#prefix__e)" d="M35.715 30.064c.8 1.653.48 3.732-.907 5.117-1.386 1.386-3.411 1.653-5.117.907l11.514 11.514c-.8-1.653-.48-3.732.906-5.118 1.386-1.386 3.412-1.652 5.117-.906L35.715 30.064z"/>
            </g>
            <g transform="translate(561.344 105.573)">
                <circle cx="19.091" cy="19.298" r="18.871" fill="#1A82FF" transform="rotate(-.428 19.091 19.298)"/>
                <path fill="#FFCD40" d="M32.25 57.836c3.091 6.077 9.435 10.288 16.79 10.288 6.664 0 12.474-3.465 15.832-8.635 1.866-2.932 2.986-6.45 2.986-10.182 0-10.074-7.943-18.337-17.911-18.816h-.906c-10.395 0-18.817 8.422-18.817 18.816-.053 3.039.693 5.97 2.026 8.53z"/>
                <path fill="url(#prefix__f)" d="M26.333 36.727c1.492-.693 3.251-.426 4.477.8 1.226 1.226 1.493 3.038.8 4.478l10.128-10.128c-1.493.693-3.252.426-4.478-.8s-1.492-3.038-.8-4.478L26.334 36.727z"/>
            </g>
            <g>
                <g transform="translate(398.763 51.202) translate(0 29.85)">
                    <circle cx="19.353" cy="19.404" r="18.871" fill="#1A82FF" transform="rotate(-.428 19.353 19.404)"/>
                    <path fill="#FFCD40" d="M32.516 57.943c3.092 6.077 9.435 10.288 16.791 10.288 6.664 0 12.474-3.465 15.832-8.636 1.866-2.932 2.985-6.45 2.985-10.181 0-10.075-7.942-18.337-17.91-18.817h-.907c-10.394 0-18.816 8.422-18.816 18.817 0 3.038.746 5.917 2.025 8.529z"/>
                    <path fill="url(#prefix__g)" d="M26.6 36.834c1.492-.693 3.25-.427 4.477.8 1.226 1.226 1.493 3.038.8 4.477l10.128-10.128c-1.493.693-3.252.427-4.478-.8-1.226-1.225-1.493-3.038-.8-4.477L26.6 36.834z"/>
                </g>
                <g>
                    <path fill="#FFCD40" d="M31.237 36.088c6.077-3.092 10.234-9.435 10.234-16.792 0-6.663-3.464-12.473-8.635-15.831C29.904 1.599 26.386.48 22.655.48 12.58.48 4.318 8.422 3.838 18.39v.906c0 10.395 8.422 18.817 18.817 18.817 3.091.054 5.97-.693 8.582-2.025z" transform="translate(398.763 51.202) translate(26.653)"/>
                    <path fill="url(#prefix__h)" d="M10.128 42.005c-.693-1.493-.426-3.252.8-4.478s3.038-1.493 4.477-.8L5.277 26.6c.693 1.493.427 3.252-.8 4.478-1.225 1.226-3.038 1.493-4.477.8l10.128 10.128z" transform="translate(398.763 51.202) translate(26.653)"/>
                </g>
            </g>
            <g transform="translate(1135.123 .068)">
                <circle cx="49.005" cy="49.257" r="18.871" fill="#1A82FF" transform="rotate(-.428 49.005 49.257)"/>
                <g>
                    <path fill="#FFCD40" d="M10.448 5.917C4.37 9.009.16 15.352.16 22.708c0 6.663 3.465 12.473 8.635 15.832 2.932 1.865 6.45 2.985 10.182 2.985 10.074 0 18.337-7.943 18.816-17.91v-.907c0-10.394-8.422-18.817-18.816-18.817-3.039 0-5.917.747-8.53 2.026z" transform="translate(0 56.504)"/>
                    <path fill="url(#prefix__i)" d="M31.557 0c.693 1.493.426 3.252-.8 4.478s-3.038 1.492-4.478.8l10.128 10.127c-.692-1.492-.426-3.251.8-4.477 1.226-1.226 3.038-1.493 4.478-.8L31.557 0z" transform="translate(0 56.504)"/>
                </g>
            </g>
            <g>
                <g transform="translate(372.823 410.214) translate(0 29.85)">
                    <circle cx="19.354" cy="19.413" r="18.871" fill="#1A82FF" transform="rotate(-.428 19.354 19.413)"/>
                    <path fill="#DB4437" d="M32.516 57.943c3.092 6.077 9.435 10.288 16.791 10.288 6.664 0 12.474-3.465 15.832-8.636 1.866-2.932 2.985-6.45 2.985-10.181 0-10.075-7.942-18.337-17.91-18.817h-.907c-10.394 0-18.816 8.422-18.816 18.817 0 3.038.746 5.917 2.025 8.529z"/>
                    <path fill="url(#prefix__j)" d="M26.6 36.834c1.492-.693 3.25-.427 4.477.8 1.226 1.226 1.493 3.038.8 4.477l10.128-10.128c-1.493.693-3.252.427-4.478-.8-1.226-1.225-1.493-3.038-.8-4.477L26.6 36.834z"/>
                </g>
                <g>
                    <path fill="#DB4437" d="M31.237 36.088c6.077-3.092 10.288-9.435 10.288-16.792 0-6.663-3.465-12.473-8.636-15.831C29.958 1.599 26.44.48 22.708.48 12.633.48 4.371 8.422 3.891 18.39v.906c0 10.395 8.423 18.817 18.817 18.817 3.038.054 5.917-.693 8.529-2.025z" transform="translate(372.823 410.214) translate(26.653)"/>
                    <path fill="url(#prefix__k)" d="M10.128 42.005c-.693-1.493-.426-3.252.8-4.478s3.038-1.493 4.477-.8L5.277 26.6c.693 1.493.427 3.252-.8 4.478-1.225 1.226-3.038 1.493-4.477.8l10.128 10.128z" transform="translate(372.823 410.214) translate(26.653)"/>
                </g>
            </g>
            <g transform="translate(756.142 342.582)">
                <circle cx="51.773" cy="51.928" r="19.99" fill="#1A82FF" transform="rotate(-.428 51.773 51.928)"/>
                <path fill="#FF672A" d="M37.793 11.194C34.488 4.744 27.772.32 20.043.32c-7.037 0-13.22 3.625-16.738 9.168C1.279 12.58.16 16.311.16 20.256c0 10.661 8.422 19.403 18.977 19.883h.96c10.98 0 19.935-8.902 19.935-19.936-.053-3.199-.853-6.29-2.239-9.009z"/>
                <path fill="url(#prefix__l)" d="M44.083 33.529c-1.545.746-3.464.426-4.744-.853-1.28-1.28-1.546-3.198-.853-4.744L27.772 38.646c1.546-.746 3.465-.426 4.744.853 1.28 1.28 1.546 3.199.853 4.744L44.083 33.53z"/>
            </g>
            <g transform="translate(1124.007 418.963)">
                <circle cx="51.779" cy="51.927" r="19.99" fill="#1A82FF" transform="rotate(-.428 51.78 51.927)"/>
                <path fill="#FF672A" d="M37.793 11.194C34.488 4.744 27.772.32 20.043.32c-7.037 0-13.22 3.625-16.738 9.168C1.279 12.58.16 16.311.16 20.256c0 10.661 8.422 19.403 18.977 19.883h.96c10.98 0 19.935-8.902 19.935-19.936-.053-3.199-.853-6.29-2.239-9.009z"/>
                <path fill="url(#prefix__m)" d="M44.083 33.529c-1.545.746-3.464.426-4.744-.853-1.28-1.28-1.546-3.198-.853-4.744L27.772 38.646c1.546-.746 3.465-.426 4.744.853 1.28 1.28 1.546 3.199.853 4.744L44.083 33.53z"/>
            </g>
            <g transform="translate(271.582 403.964)">
                <circle cx="51.761" cy="51.716" r="19.99" fill="#1A82FF" transform="rotate(-.428 51.761 51.716)"/>
                <path fill="#FF672A" d="M37.847 10.928C34.542 4.478 27.825.053 20.097.053c-7.037 0-13.22 3.625-16.739 9.169C1.333 12.314.213 16.045.213 19.989c0 10.662 8.422 19.404 18.977 19.883h.96c10.98 0 19.936-8.902 19.936-19.936-.107-3.198-.853-6.29-2.24-9.008z"/>
                <path fill="url(#prefix__n)" d="M44.083 33.262c-1.545.747-3.464.427-4.744-.852-1.28-1.28-1.546-3.199-.853-4.745L27.772 38.38c1.546-.746 3.465-.427 4.744.853 1.28 1.279 1.546 3.198.853 4.744l10.714-10.715z"/>
            </g>
            <g transform="translate(0 67)">
                <circle cx="51.654" cy="51.71" r="19.99" fill="#1A82FF" transform="rotate(-.428 51.654 51.71)"/>
                <path fill="#FF672A" d="M37.74 10.928C34.435 4.478 27.72.053 19.99.053c-7.037 0-13.22 3.625-16.738 9.169C1.226 12.314.107 16.045.107 19.989c0 10.662 8.422 19.404 18.976 19.883h.96c10.98 0 19.936-8.902 19.936-19.936-.053-3.198-.853-6.29-2.239-9.008z"/>
                <path fill="url(#prefix__o)" d="M43.977 33.262c-1.546.747-3.465.427-4.744-.852-1.28-1.28-1.546-3.199-.853-4.745L27.665 38.38c1.546-.746 3.465-.427 4.745.853 1.279 1.279 1.545 3.198.852 4.744l10.715-10.715z"/>
            </g>
            <circle cx="52.036" cy="51.664" r="19.99" fill="#1A82FF" transform="rotate(-.428 111.186 -11860.448)"/>
            <g transform="translate(602.389 27.747)">
                <circle cx="20.319" cy="51.973" r="19.99" fill="#1A82FF" transform="rotate(-.428 20.319 51.973)"/>
                <path fill="#DB4437" d="M61.088 38.007c6.45-3.305 10.874-10.022 10.874-17.751 0-7.036-3.625-13.22-9.168-16.738C59.702 1.493 55.97.373 52.026.373c-10.661 0-19.403 8.422-19.883 18.977v.96c0 10.98 8.902 19.935 19.936 19.935 3.199-.053 6.29-.852 9.009-2.238z"/>
                <path fill="url(#prefix__p)" d="M38.753 44.297c-.746-1.546-.427-3.465.853-4.745 1.28-1.279 3.198-1.545 4.744-.852L33.582 27.932c.747 1.546.427 3.465-.853 4.744-1.279 1.28-3.198 1.546-4.744.853l10.768 10.768z"/>
            </g>
            <g transform="translate(748.445 231.907)">
                <circle cx="20.376" cy="20.314" r="19.99" fill="#1A82FF" transform="rotate(-.428 20.376 20.314)"/>
                <path fill="#DB4437" d="M34.329 61.035c3.305 6.45 10.021 10.874 17.75 10.874 7.037 0 13.22-3.625 16.738-9.169 2.026-3.091 3.145-6.823 3.145-10.767 0-10.661-8.422-19.403-18.977-19.883h-.96c-10.98 0-19.935 8.902-19.935 19.936.053 3.198.853 6.29 2.239 9.009z"/>
                <path fill="url(#prefix__q)" d="M28.039 38.7c1.545-.747 3.464-.427 4.744.852 1.28 1.28 1.546 3.199.853 4.745L44.35 33.582c-1.546.747-3.465.427-4.744-.853-1.28-1.279-1.546-3.198-.853-4.744L28.039 38.7z"/>
                <g transform="translate(59.702)">
                    <circle cx="24.056" cy="20.314" r="19.99" fill="#1A82FF" transform="rotate(-.428 24.056 20.314)"/>
                    <path fill="url(#prefix__r)" d="M5.65 27.985c.747 1.546.427 3.465-.853 4.744-1.279 1.28-3.198 1.546-4.744.853l10.715 10.715c-.747-1.546-.427-3.465.853-4.745 1.279-1.279 3.198-1.545 4.744-.852L5.65 27.985z"/>
                </g>
            </g>
            <g transform="translate(949.935 183.17)">
                <circle cx="20.275" cy="20.205" r="19.99" fill="#1A82FF" transform="rotate(-.428 20.275 20.205)"/>
                <path fill="#DB4437" d="M34.169 60.981c3.305 6.45 10.021 10.874 17.75 10.874 7.037 0 13.22-3.624 16.738-9.168 2.026-3.092 3.145-6.823 3.145-10.768 0-10.66-8.422-19.403-18.977-19.883h-.959c-10.98 0-19.936 8.902-19.936 19.937.053 3.198.853 6.29 2.239 9.008z"/>
                <path fill="url(#prefix__s)" d="M27.932 38.646c1.546-.746 3.465-.426 4.744.853 1.28 1.28 1.546 3.199.853 4.744L44.243 33.53c-1.545.746-3.464.426-4.744-.853-1.28-1.28-1.546-3.198-.853-4.744L27.932 38.646z"/>
                <g transform="translate(59.169)">
                    <circle cx="24.488" cy="20.258" r="19.99" fill="#1A82FF" transform="rotate(-.428 24.488 20.258)"/>
                    <path fill="url(#prefix__t)" d="M6.023 27.932c.747 1.546.427 3.465-.852 4.744-1.28 1.28-3.199 1.546-4.745.853l10.768 10.714c-.746-1.545-.426-3.464.853-4.744 1.28-1.28 3.198-1.546 4.744-.853L6.023 27.932z"/>
                </g>
            </g>
            <g>
                <g transform="translate(975.27 470.208) translate(31.983)">
                    <circle cx="51.938" cy="52.142" r="19.99" fill="#1A82FF" transform="rotate(-.428 51.938 52.142)"/>
                    <path fill="#DB4437" d="M38.007 11.354C34.702 4.904 27.985.48 20.256.48 13.22.48 7.036 4.105 3.518 9.648 1.493 12.74.373 16.471.373 20.416c0 10.661 8.422 19.403 18.977 19.883h.96c10.98 0 19.935-8.902 19.935-19.936-.106-3.199-.852-6.29-2.238-9.009z"/>
                    <path fill="url(#prefix__u)" d="M44.243 33.689c-1.545.746-3.464.426-4.744-.853-1.28-1.28-1.546-3.198-.853-4.744L27.932 38.806c1.546-.746 3.465-.426 4.744.853 1.28 1.28 1.546 3.198.853 4.744L44.243 33.69z"/>
                </g>
                <g transform="translate(975.27 470.208) translate(0 27.719)">
                    <circle cx="20.539" cy="24.37" r="19.99" fill="#1A82FF" transform="rotate(-.428 20.54 24.37)"/>
                    <path fill="url(#prefix__v)" d="M38.913 16.685c-.746-1.546-.427-3.465.853-4.745 1.279-1.279 3.198-1.545 4.744-.853L33.796.373c.746 1.546.426 3.465-.853 4.744-1.28 1.28-3.199 1.546-4.745.853l10.715 10.715z"/>
                </g>
            </g>
            <g transform="translate(247.834 286.475)">
                <circle cx="20.363" cy="20.315" r="19.99" fill="#1A82FF" transform="rotate(-.428 20.363 20.315)"/>
                <path fill="#DB4437" d="M34.329 61.035c3.305 6.45 10.021 10.874 17.75 10.874 7.037 0 13.22-3.625 16.738-9.169 2.026-3.091 3.145-6.823 3.145-10.767 0-10.661-8.422-19.403-18.977-19.883h-.96c-10.98 0-19.935 8.902-19.935 19.936.053 3.198.853 6.29 2.239 9.009z"/>
                <path fill="url(#prefix__w)" d="M28.039 38.7c1.545-.747 3.464-.427 4.744.852 1.28 1.28 1.546 3.199.853 4.745L44.35 33.582c-1.546.747-3.465.427-4.744-.853-1.28-1.279-1.546-3.198-.853-4.744L28.039 38.7z"/>
                <g transform="translate(59.702)">
                    <circle cx="24.043" cy="20.315" r="19.99" fill="#1A82FF" transform="rotate(-.428 24.043 20.315)"/>
                    <path fill="url(#prefix__x)" d="M5.65 27.985c.747 1.546.427 3.465-.853 4.744-1.279 1.28-3.198 1.546-4.744.853l10.715 10.715c-.747-1.546-.427-3.465.853-4.745 1.279-1.279 3.198-1.545 4.744-.852L5.65 27.985z"/>
                </g>
            </g>
            <g transform="translate(489.915 48.003)">
                <circle cx="50.541" cy="19.883" r="19.404" fill="#1A82FF" transform="rotate(-.428 50.54 19.883)"/>
                <path fill="#0F9D58" d="M10.874 33.422C4.584 36.621.32 43.177.32 50.693c0 6.823 3.571 12.847 8.902 16.312 3.038 1.972 6.61 3.091 10.5 3.091 10.395 0 18.871-8.209 19.35-18.443v-.906c0-10.715-8.688-19.404-19.402-19.404-3.145 0-6.13.747-8.796 2.08z"/>
                <path fill="url(#prefix__y)" d="M32.623 27.346c.693 1.492.426 3.358-.8 4.637-1.226 1.28-3.091 1.546-4.637.8L37.634 43.23c-.693-1.493-.427-3.359.8-4.638 1.225-1.28 3.09-1.546 4.637-.8L32.623 27.346z"/>
            </g>
            <g transform="translate(879.926 282.674)">
                <circle cx="50.552" cy="19.888" r="19.404" fill="#1A82FF" transform="rotate(-.428 50.552 19.888)"/>
                <path fill="#0F9D58" d="M10.874 33.422C4.584 36.621.32 43.177.32 50.693c0 6.823 3.571 12.847 8.902 16.312 3.038 1.972 6.61 3.091 10.5 3.091 10.395 0 18.871-8.209 19.35-18.443v-.906c0-10.715-8.688-19.404-19.402-19.404-3.145 0-6.13.747-8.796 2.08z"/>
                <path fill="url(#prefix__z)" d="M32.623 27.346c.693 1.492.426 3.358-.8 4.637-1.226 1.28-3.091 1.546-4.637.8L37.634 43.23c-.693-1.493-.427-3.359.8-4.638 1.225-1.28 3.09-1.546 4.637-.8L32.623 27.346z"/>
            </g>
            <g transform="translate(928.084 49.603)">
                <circle cx="50.553" cy="19.883" r="19.404" fill="#1A82FF" transform="rotate(-.428 50.553 19.883)"/>
                <path fill="#0F9D58" d="M10.874 33.422C4.584 36.621.32 43.177.32 50.693c0 6.823 3.571 12.847 8.902 16.312 3.038 1.972 6.61 3.091 10.5 3.091 10.395 0 18.871-8.209 19.35-18.443v-.906c0-10.715-8.688-19.404-19.402-19.404-3.145 0-6.13.747-8.796 2.08z"/>
                <path fill="url(#prefix__A)" d="M32.623 27.346c.693 1.492.426 3.358-.8 4.637-1.226 1.28-3.091 1.546-4.637.8L37.634 43.23c-.693-1.493-.427-3.359.8-4.638 1.225-1.28 3.09-1.546 4.637-.8L32.623 27.346z"/>
            </g>
            <g transform="translate(661.558 261.224)">
                <circle cx="50.599" cy="19.622" r="19.404" fill="#1A82FF" transform="rotate(-.428 50.599 19.622)"/>
                <path fill="#0F9D58" d="M10.928 33.156C4.638 36.354.373 42.91.373 50.426c0 6.824 3.572 12.847 8.902 16.312 3.039 1.972 6.61 3.092 10.501 3.092 10.395 0 18.87-8.21 19.35-18.444v-.906c0-10.714-8.689-19.403-19.403-19.403-3.145-.053-6.13.746-8.795 2.079z"/>
                <path fill="url(#prefix__B)" d="M32.676 27.08c.693 1.492.427 3.357-.8 4.637-1.225 1.279-3.091 1.545-4.637.8l10.448 10.447c-.693-1.493-.427-3.358.8-4.638 1.225-1.279 3.091-1.545 4.637-.8L32.676 27.08z"/>
            </g>
            <g transform="translate(371.577 306)">
                <circle cx="50.591" cy="19.623" r="19.404" fill="#1A82FF" transform="rotate(-.428 50.59 19.623)"/>
                <path fill="#0F9D58" d="M10.928 33.156C4.638 36.354.373 42.91.373 50.426c0 6.824 3.572 12.847 8.902 16.312 3.039 1.972 6.61 3.092 10.501 3.092 10.395 0 18.87-8.21 19.35-18.444v-.906c0-10.714-8.689-19.403-19.403-19.403-3.145-.053-6.13.746-8.795 2.079z"/>
                <path fill="url(#prefix__C)" d="M32.676 27.08c.693 1.492.427 3.357-.8 4.637-1.225 1.279-3.091 1.545-4.637.8l10.448 10.447c-.693-1.493-.427-3.358.8-4.638 1.225-1.279 3.091-1.545 4.637-.8L32.676 27.08z"/>
            </g>
            <g transform="translate(503.241 380.628)">
                <circle cx="50.594" cy="50.49" r="19.404" fill="#1A82FF" transform="rotate(-.428 50.594 50.49)"/>
                <path fill="#0F9D58" d="M37.047 10.821C33.85 4.531 27.292.267 19.777.267 12.952.267 6.93 3.838 3.464 9.169c-1.972 3.038-3.092 6.61-3.092 10.5 0 10.395 8.21 18.87 18.444 19.35h.906c10.714 0 19.403-8.688 19.403-19.403 0-3.145-.746-6.13-2.079-8.795z"/>
                <path fill="url(#prefix__D)" d="M43.124 32.57c-1.493.692-3.358.426-4.638-.8-1.279-1.226-1.545-3.092-.8-4.638L27.24 37.58c1.493-.693 3.358-.426 4.638.8 1.279 1.226 1.545 3.091.8 4.637L43.123 32.57z"/>
                <path fill="#0F9D58" d="M10.928 64.073C4.638 67.27.373 73.828.373 81.343c0 6.824 3.572 12.847 8.902 16.312 3.039 1.973 6.61 3.092 10.501 3.092 10.395 0 18.87-8.21 19.35-18.444v-.906c0-10.714-8.689-19.403-19.403-19.403-3.145-.053-6.13.746-8.795 2.079z"/>
                <path fill="url(#prefix__E)" d="M32.676 57.996c.693 1.493.427 3.358-.8 4.638-1.225 1.279-3.091 1.546-4.637.8L37.687 73.88c-.693-1.492-.427-3.358.8-4.637 1.225-1.28 3.091-1.546 4.637-.8L32.676 57.996z"/>
            </g>
            <g transform="translate(282.08 66.66)">
                <circle cx="19.671" cy="50.641" r="19.404" fill="#1A82FF" transform="rotate(-.428 19.67 50.641)"/>
                <g>
                    <path fill="#0F9D58" d="M6.077 32.196c3.198 6.29 9.755 10.555 17.27 10.555 6.824 0 12.847-3.572 16.312-8.902 1.972-3.039 3.092-6.61 3.092-10.501 0-10.395-8.21-18.87-18.444-19.35h-.906c-10.714 0-19.403 8.689-19.403 19.403-.053 3.145.746 6.13 2.079 8.795z" transform="translate(27.186 58.103)"/>
                    <path fill="url(#prefix__F)" d="M0 10.448c1.493-.693 3.358-.427 4.638.8 1.226 1.225 1.545 3.091.8 4.637L15.884 5.437c-1.493.693-3.358.427-4.638-.8-1.279-1.225-1.545-3.091-.8-4.637L0 10.448z" transform="translate(27.186 58.103)"/>
                </g>
                <path fill="#0F9D58" d="M59.329 37.1c6.29-3.198 10.554-9.754 10.554-17.27 0-6.824-3.571-12.847-8.902-16.312-3.038-1.972-6.61-3.092-10.5-3.092-10.395 0-18.871 8.21-19.35 18.444v.906c0 10.715 8.688 19.403 19.402 19.403 3.199 0 6.184-.746 8.796-2.079z"/>
                <path fill="url(#prefix__G)" d="M37.634 43.177c-.693-1.492-.427-3.358.8-4.637 1.225-1.28 3.09-1.546 4.637-.8L32.623 27.292c.693 1.493.426 3.359-.8 4.638-1.226 1.226-3.091 1.546-4.637.8l10.448 10.447z"/>
            </g>
            <g transform="translate(740.45 44.805)">
                <circle cx="50.601" cy="50.481" r="19.404" fill="#1A82FF" transform="rotate(-.428 50.6 50.48)"/>
                <path fill="#FFCD40" d="M37.047 10.821C33.85 4.531 27.292.267 19.777.267 12.952.267 6.93 3.838 3.464 9.169c-1.972 3.038-3.092 6.61-3.092 10.5 0 10.395 8.21 18.87 18.444 19.35h.906c10.714 0 19.403-8.688 19.403-19.403 0-3.145-.746-6.13-2.079-8.795z"/>
                <path fill="url(#prefix__H)" d="M43.124 32.57c-1.493.692-3.358.426-4.638-.8-1.279-1.226-1.545-3.092-.8-4.638L27.24 37.58c1.493-.693 3.358-.426 4.638.8 1.279 1.226 1.545 3.091.8 4.637L43.123 32.57z"/>
                <path fill="#FFCD40" d="M10.928 64.073C4.638 67.27.373 73.828.373 81.343c0 6.824 3.572 12.847 8.902 16.312 3.039 1.973 6.61 3.092 10.501 3.092 10.395 0 18.87-8.21 19.35-18.444v-.906c0-10.714-8.689-19.403-19.403-19.403-3.145-.053-6.13.746-8.795 2.079z"/>
                <path fill="url(#prefix__I)" d="M32.676 57.996c.693 1.493.427 3.358-.8 4.638-1.225 1.226-3.091 1.546-4.637.8L37.687 73.88c-.693-1.492-.427-3.358.8-4.637 1.225-1.28 3.091-1.546 4.637-.8L32.676 57.996z"/>
            </g>
            <g transform="translate(47 264)">
                <circle cx="50.585" cy="50.485" r="19.404" fill="#1A82FF" transform="rotate(-.428 50.585 50.485)"/>
                <path fill="#FFCD40" d="M37.047 10.821C33.85 4.531 27.292.267 19.777.267 12.952.267 6.93 3.838 3.464 9.169c-1.972 3.038-3.092 6.61-3.092 10.5 0 10.395 8.21 18.87 18.444 19.35h.906c10.714 0 19.403-8.688 19.403-19.403 0-3.145-.746-6.13-2.079-8.795z"/>
                <path fill="url(#prefix__J)" d="M43.124 32.57c-1.493.692-3.358.426-4.638-.8-1.226-1.226-1.545-3.092-.8-4.638L27.24 37.58c1.493-.693 3.358-.426 4.638.8 1.279 1.226 1.545 3.091.8 4.637L43.123 32.57z"/>
                <path fill="#FFCD40" d="M10.928 64.073C4.638 67.27.373 73.828.373 81.343c0 6.824 3.572 12.847 8.902 16.312 3.039 1.973 6.61 3.092 10.501 3.092 10.395 0 18.87-8.21 19.35-18.444v-.906c0-10.714-8.689-19.403-19.403-19.403-3.145-.053-6.13.746-8.795 2.079z"/>
                <path fill="url(#prefix__K)" d="M32.676 57.996c.693 1.493.427 3.358-.8 4.638-1.225 1.279-3.091 1.546-4.637.8L37.687 73.88c-.693-1.492-.427-3.358.8-4.637 1.225-1.28 3.091-1.546 4.637-.8L32.676 57.996z"/>
            </g>
            <g transform="translate(1129 256)">
                <circle cx="50.654" cy="50.598" r="19.404" fill="#1A82FF" transform="rotate(-.428 50.654 50.598)"/>
                <g>
                    <path fill="#FFCD40" d="M32.196 36.994c6.29-3.198 10.555-9.755 10.555-17.271 0-6.823-3.572-12.847-8.902-16.311C30.81 1.439 27.239.32 23.348.32c-10.395 0-18.87 8.209-19.35 18.443v.907c0 10.714 8.689 19.403 19.403 19.403 3.198.053 6.183-.693 8.795-2.08z" transform="translate(58.103)"/>
                    <path fill="url(#prefix__L)" d="M10.501 43.124c-.693-1.493-.426-3.358.8-4.638 1.226-1.279 3.091-1.545 4.637-.8L5.49 27.24c.693 1.493.427 3.358-.8 4.638-1.225 1.279-3.09 1.545-4.637.8l10.448 10.447z" transform="translate(58.103)"/>
                </g>
                <path fill="#FFCD40" d="M37.1 10.928C33.902 4.638 27.346.373 19.83.373c-6.824 0-12.847 3.572-16.312 8.902C1.546 12.314.426 15.885.426 19.776c0 10.395 8.21 18.87 18.444 19.35h.906c10.715 0 19.403-8.689 19.403-19.403.054-3.145-.746-6.183-2.079-8.795z"/>
                <path fill="url(#prefix__M)" d="M43.177 32.676c-1.492.693-3.358.427-4.637-.8-1.28-1.225-1.546-3.091-.8-4.637L27.292 37.687c1.493-.693 3.359-.427 4.638.8 1.28 1.225 1.546 3.091.8 4.637l10.447-10.448z"/>
            </g>
            <g transform="translate(773.499 147.684)">
                <circle cx="20.057" cy="50.643" r="19.404" fill="#1A82FF" transform="rotate(-.428 20.057 50.643)"/>
                <path fill="#0F9D58" d="M59.702 37.1c6.29-3.198 10.554-9.754 10.554-17.27 0-6.824-3.571-12.847-8.902-16.312-3.038-1.972-6.61-3.092-10.5-3.092-10.395 0-18.87 8.21-19.35 18.444v.906c0 10.715 8.688 19.403 19.403 19.403 3.145.054 6.13-.746 8.795-2.079z"/>
                <path fill="url(#prefix__N)" d="M37.953 43.177c-.693-1.492-.426-3.358.8-4.637 1.226-1.28 3.092-1.546 4.637-.8L32.943 27.292c.693 1.493.426 3.359-.8 4.638-1.226 1.28-3.092 1.546-4.637.8l10.447 10.447z"/>
            </g>
            <g transform="translate(653.562 374.232)">
                <circle cx="20.053" cy="50.383" r="19.404" fill="#1A82FF" transform="rotate(-.428 20.053 50.383)"/>
                <path fill="#0F9D58" d="M59.702 36.834c6.29-3.198 10.554-9.755 10.554-17.271 0-6.823-3.571-12.847-8.902-16.311C58.316 1.279 54.744.16 50.854.16c-10.395 0-18.87 8.209-19.35 18.444v.906c0 10.714 8.688 19.403 19.403 19.403 3.145 0 6.183-.746 8.795-2.08z"/>
                <path fill="url(#prefix__O)" d="M37.953 42.91c-.693-1.492-.426-3.358.8-4.637 1.226-1.28 3.092-1.546 4.637-.8L32.943 27.027c.693 1.492.426 3.358-.8 4.637-1.226 1.28-3.092 1.546-4.637.8L37.953 42.91z"/>
            </g>
            <g transform="translate(653.029 70.925)">
                <circle cx="50.545" cy="19.883" r="19.404" fill="#1A82FF" transform="rotate(-.428 50.545 19.883)"/>
                <path fill="#0F9D58" d="M10.874 33.422C4.584 36.621.32 43.177.32 50.693c0 6.823 3.571 12.847 8.902 16.312 3.038 1.972 6.61 3.091 10.5 3.091 10.395 0 18.871-8.209 19.35-18.443v-.906c0-10.715-8.688-19.404-19.402-19.404-3.145 0-6.13.747-8.796 2.08z"/>
                <path fill="url(#prefix__P)" d="M32.623 27.346c.693 1.492.426 3.358-.8 4.637-1.226 1.28-3.091 1.546-4.637.8L37.634 43.23c-.693-1.493-.427-3.359.8-4.638 1.225-1.226 3.09-1.546 4.637-.8L32.623 27.346z"/>
            </g>
            <g transform="translate(372.11 166.341)">
                <circle cx="50.537" cy="19.886" r="19.404" fill="#1A82FF" transform="rotate(-.428 50.537 19.886)"/>
                <path fill="#0F9D58" d="M10.874 33.422C4.584 36.621.32 43.177.32 50.693c0 6.823 3.571 12.847 8.902 16.312 3.038 1.972 6.61 3.091 10.5 3.091 10.395 0 18.871-8.209 19.35-18.443v-.906c0-10.715-8.688-19.404-19.402-19.404-3.145 0-6.13.747-8.796 2.08z"/>
                <path fill="url(#prefix__Q)" d="M32.623 27.346c.693 1.492.426 3.358-.8 4.637-1.226 1.226-3.091 1.546-4.637.8L37.634 43.23c-.693-1.493-.427-3.359.8-4.638 1.225-1.28 3.09-1.546 4.637-.8L32.623 27.346z"/>
            </g>
            <g transform="translate(239.085 521.454)">
                <circle cx="50.537" cy="19.886" r="19.404" fill="#1A82FF" transform="rotate(-.428 50.537 19.886)"/>
                <path fill="#0F9D58" d="M10.874 33.422C4.584 36.621.32 43.177.32 50.693c0 6.823 3.571 12.847 8.902 16.312 3.038 1.972 6.61 3.091 10.5 3.091 10.395 0 18.871-8.209 19.35-18.443v-.906c0-10.715-8.688-19.404-19.402-19.404-3.145 0-6.13.747-8.796 2.08z"/>
                <path fill="url(#prefix__Q)" d="M32.623 27.346c.693 1.492.426 3.358-.8 4.637-1.226 1.226-3.091 1.546-4.637.8L37.634 43.23c-.693-1.493-.427-3.359.8-4.638 1.225-1.28 3.09-1.546 4.637-.8L32.623 27.346z"/>
            </g>
            <g transform="translate(560.81 306)">
                <circle cx="48.837" cy="48.729" r="47.976" fill="#FF672A" transform="rotate(-.428 48.837 48.729)"/>
                <g>
                    <path fill="#FF672A" d="M29.85 69.83c-1.172 0-2.344-.8-3.357-1.546-.267-.16-.533-.373-.747-.533-1.119-.746-8.102-5.49-11.94-8.262-3.891-2.772-4.904-4.851-6.29-10.555-.693-2.718-6.45-25.107-6.503-25.32l-.054-.16 1.973-5.757-1.6-4.05.214-.267S3.57 11.194 5.97 8.742c1.013-1.066 2.612-1.6 4.638-1.6 1.332 0 2.505.214 3.038.374L19.403.853h20.95l5.756 6.663c.533-.107 1.706-.373 3.038-.373 2.026 0 3.625.533 4.638 1.6 2.399 2.451 4.371 4.637 4.424 4.637l.214.266-1.6 4.051 1.973 5.757-.054.16c-.053.213-5.863 22.602-6.503 25.32-1.44 5.704-2.399 7.783-6.29 10.555-3.891 2.772-10.82 7.516-11.94 8.262-.213.16-.48.32-.747.533-1.066.746-2.238 1.546-3.411 1.546z" transform="translate(18.93 15.459)"/>
                    <path fill="#FFF" d="M40.086 1.493l5.81 6.716s1.492-.426 3.251-.426c1.493 0 3.145.32 4.265 1.439 2.399 2.452 4.424 4.637 4.424 4.637l-1.546 3.892 1.973 5.81s-5.864 22.548-6.557 25.32c-1.333 5.437-2.292 7.516-6.13 10.288-3.838 2.772-10.768 7.516-11.94 8.262-1.12.746-2.559 1.972-3.838 1.972-1.28 0-2.719-1.226-3.838-1.972-1.12-.746-8.103-5.49-11.94-8.262-3.839-2.772-4.745-4.851-6.13-10.288-.694-2.772-6.557-25.32-6.557-25.32l1.972-5.81-1.546-3.892s1.972-2.185 4.424-4.637c1.12-1.12 2.772-1.44 4.265-1.44 1.759 0 3.251.427 3.251.427l5.81-6.716H40.087m.48-1.067H19.19L18.87.8l-5.384 6.236c-.64-.16-1.706-.32-2.878-.32-2.186 0-3.892.587-5.064 1.76-2.399 2.452-4.425 4.637-4.425 4.637l-.426.48.266.64L2.4 17.75.533 23.188l-.107.32.107.32c.053.213 5.864 22.6 6.503 25.32 1.333 5.383 2.292 7.835 6.504 10.874 3.89 2.772 10.82 7.57 11.993 8.262.213.16.48.32.746.48 1.12.746 2.346 1.599 3.679 1.599 1.332 0 2.558-.853 3.678-1.6.266-.16.533-.372.746-.479 1.12-.746 8.102-5.49 11.994-8.262 4.21-3.039 5.17-5.49 6.503-10.875.693-2.718 6.45-25.053 6.503-25.32l.107-.32-.107-.32-1.866-5.436 1.44-3.518.266-.64-.426-.48s-2.026-2.185-4.425-4.637c-1.12-1.173-2.825-1.76-5.064-1.76-1.172 0-2.238.16-2.878.32L41.045.8l-.48-.374z" transform="translate(18.93 15.459)"/>
                    <path fill="#FFF" d="M29.85 43.71c.374 0 2.88.906 4.905 1.973 2.026 1.066 3.465 1.812 3.891 2.078.48.32.16.853-.266 1.173-.427.32-6.077 4.798-6.663 5.277-.533.48-1.386 1.333-1.92 1.333-.532 0-1.385-.8-1.918-1.333-.533-.48-6.237-4.957-6.664-5.277-.426-.32-.692-.853-.266-1.173.48-.32 1.919-1.066 3.891-2.078 2.132-1.12 4.638-1.973 5.01-1.973zm.054-31.876c.213 0 1.28.053 2.825.586 1.706.586 3.572 1.28 4.425 1.28.853 0 7.143-1.227 7.143-1.227s7.462 9.222 7.462 11.195c0 1.972-.96 2.505-1.865 3.518-.96 1.012-5.064 5.49-5.597 6.076-.533.587-1.653 1.44-1.013 3.039.64 1.546 1.599 3.571.533 5.597-1.066 2.026-2.879 3.358-4.051 3.145-1.173-.213-3.945-1.706-4.958-2.345-1.012-.693-4.21-3.359-4.21-4.372 0-1.012 3.304-2.878 3.944-3.304.586-.427 3.411-2.026 3.465-2.666.053-.64.053-.8-.8-2.398-.8-1.6-2.292-3.679-2.079-5.064.267-1.386 2.665-2.133 4.371-2.772 1.706-.64 5.01-1.92 5.384-2.08.426-.212.32-.372-.96-.479-1.225-.107-4.797-.586-6.343-.16-1.599.427-4.318 1.12-4.53 1.493-.214.373-.427.373-.214 1.652.213 1.28 1.386 7.303 1.493 8.369.106 1.066.32 1.76-.8 2.026-1.12.266-3.038.746-3.678.746-.64 0-2.559-.48-3.678-.746-1.12-.267-.906-.96-.8-2.026.107-1.066 1.28-7.09 1.493-8.369.213-1.28.053-1.28-.213-1.652-.214-.373-2.932-1.066-4.531-1.493-1.6-.426-5.118 0-6.344.16-1.226.107-1.332.32-.96.48.427.213 3.679 1.439 5.385 2.079 1.705.64 4.104 1.386 4.37 2.772.267 1.385-1.225 3.518-2.078 5.064-.8 1.599-.853 1.759-.8 2.398.054.64 2.825 2.292 3.465 2.666.586.426 3.945 2.292 3.945 3.304 0 1.013-3.199 3.732-4.211 4.372-1.013.692-3.785 2.132-4.958 2.345-1.173.213-2.985-1.12-4.051-3.145-1.066-2.026-.107-3.998.533-5.597.64-1.546-.48-2.452-1.013-3.039-.533-.586-4.69-5.064-5.597-6.076-.96-1.013-1.866-1.546-1.866-3.518 0-1.973 7.463-11.195 7.463-11.195S21.75 13.7 22.548 13.7c.853 0 2.719-.746 4.424-1.279 1.546-.533 2.612-.586 2.826-.586h.106z" transform="translate(18.93 15.459)"/>
                </g>
            </g>
            <g transform="translate(560.81 198.324)">
                <circle cx="48.837" cy="48.726" r="47.976" fill="#1A82FF" transform="rotate(-.428 48.837 48.726)"/>
                <path fill="#FFF" d="M69.83 35.128l-8.262 8.37c.32 1.652.533 3.464.533 5.383.053 10.501-4.798 16.844-13.113 16.898-3.465 0-6.397-1.066-8.583-3.145l28.572-28.998c-.8-1.386-1.652-2.612-2.665-3.785-.427-.48-.853-.96-1.333-1.386l-.16-.16c-.16-.107-.266-.266-.373-.373-4.211-3.891-9.595-5.864-15.778-5.864-7.143.054-13.167 2.826-17.538 8.05-4.05 4.904-6.29 11.673-6.236 19.083.053 4.904 1.066 9.541 2.985 13.486l8.315-8.422c-.32-1.6-.48-3.305-.48-5.17-.053-4.852.907-8.743 2.826-11.675 2.239-3.411 5.757-5.224 10.181-5.224 3.412 0 6.29 1.013 8.476 3.039L28.678 64.18c.8 1.439 1.706 2.771 2.772 3.944.213.267.427.48.64.693.266.267.48.533.746.8l.107.106c.106.054.16.16.266.267 4.211 3.944 9.648 6.023 15.885 5.97 7.143-.053 13.22-2.825 17.538-8.05 4.104-4.903 6.343-11.673 6.29-19.082-.054-5.011-1.12-9.702-3.092-13.7z"/>
            </g>
            <g transform="translate(468.06 144.486)">
                <path fill="#DB4437" d="M7.996 22.282v36.78h21.428l18.87-32.676h42.698C83.05 10.874 66.952.266 48.295.266c-16.898 0-31.77 8.796-40.3 22.016z"/>
                <path fill="#0F9D58" d="M67.165 59.062h-37.74l-21.43-36.78C3.199 29.744.374 38.646.374 48.188c0 25.693 20.256 46.642 45.63 47.868l21.162-36.994z"/>
                <path fill="#FFCD40" d="M48.295 26.386l18.87 32.676-21.11 36.94c.747.054 1.493.054 2.293.054 26.44 0 47.921-21.429 47.921-47.921 0-7.836-1.865-15.246-5.224-21.749h-42.75z"/>
                <circle cx="48.295" cy="48.188" r="21.749" fill="#F1F1F1"/>
                <circle cx="48.295" cy="48.188" r="17.431" fill="#4285F4"/>
            </g>
            <path fill="url(#prefix__R)" d="M591.408 291.395c3.891 1.44 6.663 5.118 6.663 9.489 0 4.37-2.772 8.102-6.663 9.488h36.514c-3.891-1.44-6.663-5.117-6.663-9.488 0-4.371 2.772-8.103 6.663-9.489h-36.514z"/>
            <g>
                <path fill="#FF672A" d="M92.485 33.529c-2.08-5.01-6.29-10.395-9.595-12.1 2.345 4.584 3.998 9.488 4.85 14.552v.107C82.303 22.6 73.135 17.164 65.672 5.278c-.373-.587-.746-1.227-1.12-1.813-.213-.373-.372-.693-.532-1.013-.32-.586-.533-1.226-.693-1.919 0-.053-.054-.107-.107-.107h-.107-.053V.373C51.013 7.41 46.962 20.47 46.59 26.973c-4.798.32-9.382 2.078-13.167 5.063-.373-.32-.8-.64-1.226-.959-1.066-3.838-1.119-7.836-.16-11.727-4.424 2.132-8.315 5.17-11.513 8.902-1.92-2.399-1.76-10.341-1.653-11.994-.586.213-1.12.533-1.6.853-1.652 1.173-3.25 2.559-4.69 3.998-1.652 1.652-3.145 3.465-4.478 5.384-3.091 4.37-5.277 9.275-6.45 14.499l-.053.32c-.106.426-.426 2.505-.48 2.985v.106c-.426 2.186-.693 4.371-.8 6.61v.267c0 26.439 21.483 47.868 47.922 47.868 23.295 0 43.177-16.791 47.175-39.766.107-.64.16-1.226.214-1.866.906-8.102-.16-16.364-3.145-23.987zM37.26 71.003l.64.32h.053c-.213-.107-.426-.214-.693-.32z" transform="translate(654.628 141.288)"/>
                <path fill="#F5156C" d="M92.485 33.529c-2.08-5.01-6.29-10.395-9.595-12.1 2.345 4.584 3.998 9.488 4.85 14.552v.107c3.678 10.554 3.145 22.121-1.492 32.303-5.49 11.78-18.764 23.827-39.553 23.24C24.201 90.993 4.425 74.309.746 52.507c-.693-3.465 0-5.17.32-7.996-.48 2.185-.693 4.37-.746 6.61v.266c0 26.44 21.482 47.868 47.921 47.868 23.295 0 43.177-16.79 47.175-39.765.107-.64.16-1.226.214-1.866.906-8.209-.16-16.471-3.145-24.094z" transform="translate(654.628 141.288)"/>
                <path fill="#FFF44F" d="M69.19 39.126c.107.053.213.16.32.213-1.226-2.132-2.719-4.104-4.424-5.81C50.214 18.657 61.194 1.226 63.06.373V.32C51.013 7.356 46.962 20.416 46.59 26.92c.533-.054 1.12-.107 1.706-.107 8.582.106 16.63 4.797 20.895 12.313z" transform="translate(654.628 141.288)"/>
                <path fill="#5C79F0" d="M48.241 42.111c-.053 1.173-4.264 5.277-5.757 5.277-13.593 0-15.831 8.263-15.831 8.263.586 6.93 5.437 12.633 11.3 15.671.267.16.533.267.8.374.48.213.96.373 1.386.586 2.025.693 4.104 1.12 6.237 1.226 23.88 1.12 28.465-28.518 11.247-37.154 4.051-.533 8.156.48 11.567 2.825-4.264-7.569-12.313-12.26-21.002-12.26-.586 0-1.12.053-1.706.107-4.797.32-9.382 2.079-13.166 5.064.746.64 1.546 1.439 3.305 3.145 3.251 3.198 11.62 6.503 11.62 6.876z" transform="translate(654.628 141.288)"/>
                <path fill="#FF672A" d="M31.13 30.49c.373.267.693.48 1.013.64-1.066-3.838-1.12-7.836-.16-11.727-4.424 2.132-8.315 5.17-11.514 8.902.213 0 7.143-.107 10.661 2.186z" transform="translate(654.628 141.288)"/>
                <path fill="#FFAF1E" d="M65.032 33.582c1.76 1.706 3.252 3.678 4.425 5.81.266.214.533.374.693.587C81.024 50 75.32 64.126 74.894 65.139c8.795-7.25 14.446-18.017 12.74-29.105-5.437-13.486-14.606-18.923-22.122-30.81-.373-.586-.746-1.226-1.12-1.812-.212-.374-.372-.693-.532-1.013-.32-.587-.533-1.226-.693-1.92 0-.053-.054-.106-.107-.106h-.107-.053c-1.759.906-12.74 18.284 2.132 33.21z" transform="translate(654.628 141.288)"/>
                <path fill="#FFAF1E" d="M70.203 39.979c-.213-.213-.48-.373-.693-.586-.107-.054-.213-.16-.32-.214-3.358-2.345-7.463-3.358-11.567-2.825 17.218 8.636 12.58 38.273-11.247 37.154-2.133-.107-4.212-.48-6.237-1.226-.48-.16-.96-.373-1.386-.586-.267-.107-.533-.267-.8-.374h.054c3.305 2.293 19.776 7.836 36.94-6.183l.053-.053c.374-.96 6.077-15.139-4.797-25.107z" transform="translate(654.628 141.288)"/>
                <path fill="#FFAF1E" d="M26.653 55.65s2.185-8.262 15.831-8.262c1.493 0 5.704-4.104 5.757-5.277-5.863 2.132-12.313 1.866-17.964-.693-5.597-2.825-12.26-2.558-17.59.693 2.025 4.424 6.503 7.196 11.354 7.143-.907 7.836 3.251 16.951 13.273 21.749l.64.32C32.09 68.283 27.238 62.58 26.652 55.65z" transform="translate(654.628 141.288)"/>
            </g>
            <path fill="url(#prefix__S)" d="M657.133 240.702c-.693-4.051 1.12-8.316 4.904-10.501 3.785-2.186 8.423-1.653 11.568 1.013l-18.23-31.61c.692 4.05-1.12 8.315-4.905 10.5-3.784 2.186-8.422 1.653-11.567-1.012l18.23 31.61z"/>
            <path fill="url(#prefix__T)" d="M561.984 240.702c.693-4.051-1.12-8.316-4.905-10.501-3.784-2.186-8.422-1.653-11.567 1.013l18.23-31.61c-.692 4.05 1.12 8.315 4.905 10.5 3.784 2.186 8.422 1.653 11.567-1.012l-18.23 31.61z"/>
            <g transform="translate(423.283 227.642)">
                <circle cx="51.765" cy="51.978" r="19.99" fill="#1A82FF" transform="rotate(-.428 51.765 51.978)"/>
                <path fill="#FF672A" d="M37.847 11.194C34.542 4.744 27.825.32 20.097.32 13.06.32 6.876 3.945 3.357 9.488 1.333 12.58.213 16.311.213 20.256c0 10.661 8.422 19.403 18.977 19.883h.96c10.98 0 19.936-8.902 19.936-19.936-.107-3.199-.853-6.29-2.24-9.009z"/>
                <path fill="url(#prefix__U)" d="M44.083 33.529c-1.545.746-3.464.426-4.744-.853-1.28-1.28-1.546-3.198-.853-4.744L27.772 38.646c1.546-.746 3.465-.426 4.744.853 1.28 1.28 1.546 3.199.853 4.744L44.083 33.53z"/>
            </g>
            <g transform="translate(834.267 51.735)">
                <circle cx="20.539" cy="51.6" r="19.99" fill="#1A82FF" transform="rotate(-.428 20.539 51.6)"/>
                <path fill="#FF672A" d="M61.301 37.634c6.45-3.305 10.874-10.022 10.874-17.751 0-7.036-3.624-13.22-9.168-16.738C59.915 1.119 56.184 0 52.239 0 41.58 0 32.836 8.422 32.356 18.977v.96c0 10.98 8.902 19.935 19.936 19.935 3.199-.053 6.29-.853 9.009-2.238z"/>
                <path fill="url(#prefix__V)" d="M38.966 43.924c-.746-1.546-.426-3.465.853-4.745 1.28-1.279 3.198-1.545 4.744-.853L33.85 27.612c.746 1.546.426 3.465-.853 4.744-1.28 1.28-3.198 1.546-4.744.853l10.714 10.715z"/>
            </g>
        </g>
        <g fill-rule="nonzero">
            <g>
                <path fill="#FFF" d="M0 45.882h117.623c6.277 0 11.361-5.084 11.361-11.36v96.282c0 6.277-5.084 11.36-11.36 11.36H0l21.905-49.96L0 45.881z" transform="translate(313 464) translate(0 .883)"/>
                <path fill="#121D28" d="M117.623 23.223c6.277 0 11.361 5.084 11.361 11.361v96.283c0-6.277-5.084-11.36-11.36-11.36H92.516c-6.277 0-11.36-5.085-11.36-11.361V11.863c0 6.276 5.083 11.36 11.36 11.36h25.106z" transform="translate(313 464) translate(0 .883)"/>
                <path fill="#FFF" d="M589.874 45.882H472.251c-6.277 0-11.36-5.084-11.36-11.36v96.282c0 6.277 5.083 11.36 11.36 11.36h117.623L567.97 92.267l21.905-46.384z" transform="translate(313 464) translate(0 .883)"/>
                <path fill="#121D28" d="M472.251 23.223c-6.277 0-11.36 5.084-11.36 11.361v96.283c0-6.277 5.083-11.36 11.36-11.36h25.106c6.277 0 11.361-5.085 11.361-11.361V11.863c0 6.276-5.084 11.36-11.36 11.36H472.25z" transform="translate(313 464) translate(0 .883)"/>
                <path fill="#FFF" d="M92.517 96.848c-6.277 0-11.36 5.084-11.36 11.36V11.864c0-6.277 5.083-11.36 11.36-11.36H497.42c6.277 0 11.36 5.083 11.36 11.36v96.283c0-6.277-5.083-11.36-11.36-11.36H92.517v.062z" transform="translate(313 464) translate(0 .883)"/>
            </g>
            <path fill="#111D28" d="M163.505 63.837l-5.9-10.105H152.835v10.105h-5.9V34.212h10.356c7.281 0 11.612 3.954 11.612 9.917 0 4.08-2.008 7.03-5.586 8.536l6.779 11.235h-6.59v-.063zM152.772 48.46h5.273c3.264 0 4.77-2.134 4.77-4.331 0-2.323-1.57-4.394-4.77-4.394h-5.273v8.725zm20.023 15.377V34.212h5.9v29.625h-5.9zm33.14-3.138c-1.632 1.82-5.147 3.703-8.975 3.703-8.537 0-15.378-6.465-15.378-15.44 0-8.976 6.841-15.44 15.378-15.44 5.9.062 10.795 3.075 13.431 7.845l-6.025 1.57c-1.632-2.198-4.52-3.578-7.47-3.578-5.523 0-9.226 3.954-9.226 9.603 0 5.9 4.08 9.666 9.54 9.666 5.085 0 7.72-2.825 8.662-5.084v-1.256h-8.222v-4.77h13.244v16.32h-5.084c.125-2.449.188-3.076.125-3.14zm9.227 3.138V34.212h5.9v29.625h-5.9zm36.278-29.625v29.625h-5.523l-8.41-11.423c-2.637-3.64-5.9-8.285-5.963-8.285h-.063c-.063 0 .063 4.268.063 10.168v9.54h-5.9V34.212h5.523l8.599 11.549c2.008 2.636 5.774 7.97 5.774 7.97h.063c.063 0-.063-4.832-.063-9.79v-9.667h5.9v-.062zm-108.71 6.841l-4.77 4.77c.188.942.313 2.009.313 3.139 0 6.088-2.824 9.666-7.657 9.666-2.009 0-3.703-.628-4.959-1.82l16.633-16.634c-.439-.815-.941-1.506-1.506-2.196-.251-.314-.502-.565-.753-.816l-.126-.126-.25-.25c-2.386-2.26-5.524-3.453-9.102-3.453-4.142 0-7.594 1.57-10.168 4.582-2.385 2.824-3.703 6.716-3.703 10.984 0 2.824.565 5.523 1.632 7.783l4.833-4.833c-.188-.942-.251-1.883-.251-3.013 0-2.824.565-5.084 1.694-6.716 1.319-1.946 3.327-2.95 5.9-2.95 2.009 0 3.64.628 4.896 1.758l-16.57 16.57c.44.816 1.004 1.569 1.57 2.322.125.126.25.251.376.44l.44.439.062.063c.063.062.063.125.125.125 2.385 2.323 5.524 3.515 9.164 3.515 4.143 0 7.658-1.569 10.168-4.582 2.385-2.824 3.703-6.716 3.703-10.984 0-2.762-.627-5.46-1.694-7.783zM282.32 63.837l-5.774-10.23h-4.331v10.23h-6.151V34.15h11.11c7.343 0 11.674 3.703 11.674 9.854 0 3.954-1.946 6.904-5.398 8.16l-.753.25 6.904 11.361h-7.28v.063zm-10.105-14.875h5.46c3.076 0 4.896-1.695 4.896-4.645 0-3.013-1.82-4.77-4.958-4.77h-5.398v9.415zm42.304 14.875v-5.586h-15.315v-6.967h11.11v-4.896h-11.11v-6.59h15.127v-5.65h-21.278v29.626h21.466v.063zm37.848 0l8.662-29.625h-6.026l-3.515 12.992c-1.945 7.344-2.008 7.47-2.008 7.532l-.314.377h-.816l-.188-.377c-.126-.188-1.13-4.205-1.758-6.527l-2.95-11.11-.753-2.95h-6.465l-.816 2.887-2.95 10.984-.376 1.318c-1.381 5.147-1.381 5.147-1.444 5.273l-.188.376h-.942l-.188-.376c-.063-.126-.063-.126-.502-1.883-.314-1.381-.879-3.39-1.507-5.9l-3.389-12.742h-6.904l8.662 29.626h7.531l3.264-11.989c.816-3.012 1.318-5.146 1.632-6.213.189-.816.189-.88.251-.942l.189-.377h.941l.188.377c.063.063.063.126.189.628.25.941.816 3.138 1.694 6.15l3.64 12.303h7.156v.188zm29.312 0l-1.883-5.147H366.05l-1.883 5.147h-6.402l11.423-29.625h7.532l11.486 29.625h-6.527zm-9.227-22.407c-.125.125-.125.125-1.13 2.824l-.753 1.946-2.51 7.03h9.791l-2.51-7.03-1.068-2.762c-.69-1.883-.69-1.883-.816-2.008l-.188-.189h-.502l-.314.189zm35.15 22.407l-5.775-10.23h-4.331v10.23h-6.151V34.15h11.11c7.343 0 11.674 3.703 11.674 9.854 0 3.954-1.946 6.904-5.398 8.16l-.753.25 6.904 11.361h-7.28v.063zm-10.106-14.875h5.46c3.076 0 4.896-1.695 4.896-4.645 0-3.013-1.82-4.77-4.958-4.77h-5.398v9.415zm20.775 14.875V34.15h12.554c9.1 0 15.691 6.277 15.691 14.938 0 8.662-6.402 14.687-15.629 14.687h-12.616v.063zm6.151-5.649h5.963c4.582 0 9.854-2.385 9.854-9.1 0-6.466-4.958-9.353-9.854-9.353h-5.963v18.453zm48.205-2.636c0-6.276-4.833-8.034-9.101-8.85l-.88-.188c-4.016-.816-6.903-1.381-6.903-4.331 0-1.004.439-3.39 4.644-3.39 3.013 0 5.022 1.13 6.026 3.39l5.837-1.57c-1.695-4.644-5.649-6.966-11.737-6.966-7.03 0-11.047 3.2-11.047 8.787 0 5.9 4.52 7.783 8.913 8.85.816.188 1.632.377 2.448.502 2.887.502 5.586 1.004 5.586 3.829 0 1.067-.502 3.578-5.21 3.578-3.326 0-5.649-1.319-6.59-3.578l-5.837 1.569c1.945 5.963 7.783 7.28 12.427 7.28 5.21 0 11.424-1.568 11.424-8.912z" transform="translate(313 464)"/>
        </g>
    </g>
</svg>
