<svg xmlns="http://www.w3.org/2000/svg" width="212" height="158" viewBox="0 0 212 158">
    <g fill="none" fill-rule="nonzero">
        <path fill="#111D28" d="M118.328 136.741c-9.064-5.228-13.595-12.11-13.634-19.03 0-6.957 4.609-13.954 13.826-19.259 18.358-10.61 48.008-10.649 66.25-.115 9.064 5.228 13.596 12.11 13.634 19.029 0 6.958-4.608 13.955-13.826 19.26-18.32 10.61-48.007 10.687-66.25.115z" opacity=".2"/>
        <path fill="#1A82FF" d="M198.443 104.334v8.227c0 6.958-4.609 13.954-13.826 19.26-18.358 10.61-48.008 10.648-66.25.115-9.064-5.228-13.596-12.11-13.634-19.03v-8.572h93.71z"/>
        <path fill="#40A0FF" d="M118.328 123.709c-9.064-5.228-13.595-12.11-13.634-19.03 0-6.957 4.609-13.954 13.826-19.259 18.358-10.61 48.008-10.649 66.25-.115 9.064 5.228 13.596 12.11 13.634 19.029 0 6.958-4.608 13.955-13.826 19.26-18.32 10.61-48.007 10.687-66.25.115z"/>
        <path fill="#1A82FF" d="M151.28 125.977c-11.483 0-22.198-2.537-30.148-7.112-6.99-4.036-10.83-9.072-10.83-14.185 0-5.113 4.032-10.38 11.022-14.416 8.065-4.652 18.934-7.228 30.533-7.228 11.483 0 22.198 2.538 30.148 7.112 6.99 4.037 10.83 9.073 10.83 14.186 0 5.113-4.032 10.38-11.022 14.416-8.065 4.69-18.934 7.227-30.533 7.227z"/>
        <path fill="#0F7CE8" d="M121.362 91.379c8.066-4.652 18.934-7.228 30.533-7.228 11.483 0 22.198 2.538 30.148 7.112 6.721 3.883 10.524 8.688 10.793 13.609 0-.192.038-.384.038-.577 0-5.113-3.84-10.149-10.83-14.185-7.95-4.575-18.666-7.112-30.15-7.112-11.598 0-22.428 2.576-30.532 7.227-7.028 4.037-11.022 9.303-11.022 14.416 0 .193 0 .385.038.577.23-4.882 4.225-9.918 10.984-13.84z"/>
        <path fill="#FFF" d="M146.48 115.252l.038-5.42a23.529 23.529 0 0 1-3.303-1.577c-5.914-3.421-6.644-7.073-1.958-9.764 1.958-1.115 4.224-1.73 6.644-1.769l-.115 18.722c1.19.192 2.42.307 3.61.384.499.039.998.039 1.497.039h.653c4.532-.116 8.757-1.192 12.213-3.191 4.033-2.307 5.915-5.19 5.492-8.304-.422-2.921-2.918-5.843-7.066-8.265-2.765-1.576-5.915-2.768-9.218-3.46l-.038 5.42c1.037.424 2.112.923 3.15 1.538 2.726 1.577 4.34 3.153 4.877 4.729.614 1.845-.384 3.575-2.88 4.997-1.92 1.115-4.148 1.692-6.491 1.769l.115-18.683c-1.267-.193-2.496-.346-3.764-.385-.269 0-.499 0-.768-.038H147.9c-4.608.077-8.833 1.153-12.328 3.19-4.032 2.307-5.914 5.19-5.492 8.304.384 2.922 2.92 5.843 7.067 8.265 2.765 1.653 5.991 2.845 9.333 3.499z"/>
        <path fill="#111D28" d="M131.732 104.564c-9.064-5.228-13.596-12.109-13.634-19.029 0-6.958 4.609-13.954 13.826-19.26 18.358-10.61 48.007-10.648 66.25-.115 9.064 5.228-5.415 18.53-5.415 25.45 0 6.88 5.569 3.613 5.607 12.647-.115.077-.269.154-.384.23-18.32 10.572-48.007 10.61-66.25.077z" opacity=".2"/>
        <path fill="#1A82FF" d="M211.846 72.157v8.188c0 6.959-4.608 13.955-13.826 19.26-18.358 10.61-48.007 10.649-66.25.116-9.063-5.229-13.595-12.11-13.634-19.03v-8.534h93.71z"/>
        <path fill="#40A0FF" d="M131.732 91.532c-9.064-5.228-13.596-12.11-13.634-19.029 0-6.958 4.609-13.955 13.826-19.26 18.358-10.61 48.007-10.648 66.25-.115 9.064 5.228 13.596 12.11 13.634 19.03 0 6.957-4.609 13.954-13.826 19.259-18.32 10.61-48.007 10.649-66.25.115z"/>
        <path fill="#1A82FF" d="M164.684 93.8c-11.483 0-22.198-2.537-30.148-7.111-6.99-4.037-10.83-9.073-10.83-14.186 0-5.113 4.032-10.38 11.022-14.416 8.065-4.651 18.934-7.227 30.532-7.227 11.483 0 22.199 2.537 30.149 7.112 6.99 4.036 10.83 9.072 10.83 14.185 0 5.113-4.032 10.38-11.022 14.416-8.104 4.652-18.934 7.227-30.533 7.227z"/>
        <path fill="#0F7CE8" d="M134.728 59.202c8.065-4.652 18.934-7.227 30.532-7.227 11.483 0 22.199 2.537 30.149 7.112 6.72 3.882 10.523 8.688 10.792 13.608 0-.192.038-.384.038-.576 0-5.113-3.84-10.15-10.83-14.186-7.95-4.574-18.666-7.112-30.149-7.112-11.598 0-22.429 2.576-30.532 7.228-7.029 4.036-11.023 9.303-11.023 14.416 0 .192 0 .384.038.576.27-4.882 4.225-9.918 10.985-13.84z"/>
        <path fill="#FFF" d="M159.883 83.075l.039-5.42a23.529 23.529 0 0 1-3.303-1.577c-5.915-3.421-6.644-7.073-1.959-9.764 1.959-1.115 4.225-1.73 6.644-1.769l-.115 18.722c1.19.192 2.42.308 3.61.385.5.038.999.038 1.498.038h.653c4.532-.115 8.757-1.192 12.213-3.19 4.033-2.307 5.915-5.19 5.492-8.304-.422-2.922-2.919-5.844-7.067-8.266-2.765-1.576-5.914-2.767-9.217-3.46l-.038 5.421c1.037.423 2.112.923 3.149 1.538 2.727 1.576 4.34 3.152 4.877 4.728.615 1.845-.384 3.575-2.88 4.998-1.92 1.115-4.148 1.691-6.49 1.768l.115-18.683c-1.268-.192-2.497-.346-3.764-.385-.269 0-.5 0-.768-.038h-1.268c-4.608.077-8.833 1.153-12.328 3.19-4.033 2.307-5.914 5.19-5.492 8.304.384 2.922 2.919 5.844 7.067 8.266 2.765 1.653 5.991 2.806 9.332 3.498z"/>
        <g>
            <path fill="#111D28" d="M121.017 85.804c-9.064-5.228-13.596-12.11-13.634-19.029 0-6.958 4.608-13.955 13.826-19.26 18.358-10.61 48.007-10.648 66.25-.115 9.063 5.228 13.595 12.11 13.634 19.03 0 6.957-4.609 13.954-13.826 19.26-18.32 10.61-48.008 10.648-66.25.114z" opacity=".2"/>
            <path fill="#1A82FF" d="M201.131 53.359v8.226c0 6.959-4.609 13.955-13.826 19.26-18.358 10.61-48.007 10.649-66.25.116-9.064-5.229-13.596-12.11-13.634-19.03V53.36h93.71z"/>
            <path fill="#40A0FF" d="M121.017 72.772c-9.064-5.228-13.596-12.11-13.634-19.029 0-6.958 4.608-13.955 13.826-19.26 18.358-10.61 48.007-10.648 66.25-.115 9.063 5.228 13.595 12.11 13.634 19.03 0 6.957-4.609 13.954-13.826 19.259-18.32 10.61-48.008 10.649-66.25.115z"/>
            <path fill="#1A82FF" d="M153.969 75.04c-11.483 0-22.199-2.537-30.149-7.112-6.99-4.036-10.83-9.072-10.83-14.185 0-5.113 4.032-10.38 11.022-14.416 8.066-4.652 18.934-7.227 30.533-7.227 11.483 0 22.198 2.537 30.148 7.112 6.99 4.036 10.83 9.072 10.83 14.185 0 5.113-4.032 10.38-11.022 14.416-8.103 4.652-18.934 7.227-30.532 7.227z"/>
            <path fill="#0F7CE8" d="M124.012 40.442c8.066-4.652 18.934-7.227 30.533-7.227 11.483 0 22.198 2.537 30.148 7.112 6.721 3.882 10.524 8.688 10.793 13.608 0-.192.038-.384.038-.576 0-5.113-3.84-10.15-10.83-14.186-7.95-4.574-18.666-7.112-30.15-7.112-11.598 0-22.428 2.576-30.532 7.228-7.028 4.036-11.022 9.303-11.022 14.416 0 .192 0 .384.038.576.27-4.92 4.225-9.918 10.984-13.84z"/>
            <path fill="#FFF" d="M149.168 64.315l.039-5.42a23.529 23.529 0 0 1-3.303-1.577c-5.915-3.421-6.645-7.073-1.96-9.764 1.96-1.115 4.226-1.73 6.645-1.769l-.115 18.722c1.19.192 2.42.308 3.61.384.5.039.999.039 1.498.039h.652c4.533-.115 8.757-1.192 12.214-3.19 4.032-2.307 5.914-5.19 5.492-8.304-.423-2.922-2.919-5.844-7.067-8.266-2.765-1.576-5.914-2.768-9.217-3.46l-.039 5.42c1.037.424 2.113.924 3.15 1.539 2.726 1.576 4.34 3.152 4.877 4.728.615 1.845-.384 3.575-2.88 4.998-1.92 1.114-4.148 1.691-6.49 1.768l.114-18.683c-1.267-.192-2.496-.346-3.763-.385-.27 0-.5 0-.768-.038h-1.268c-4.609.077-8.833 1.153-12.328 3.19-4.033 2.307-5.915 5.19-5.492 8.304.384 2.922 2.919 5.844 7.067 8.266 2.765 1.614 5.99 2.806 9.332 3.498z"/>
        </g>
        <g>
            <path fill="#111D28" d="M24.58 142.661c-9.064-5.228-13.596-12.11-13.634-19.029 0-6.958 4.608-13.955 13.826-19.26 18.358-10.61 48.007-10.648 66.25-.115 9.064 5.228 13.595 12.11 13.634 19.03 0 6.957-4.609 13.954-13.826 19.259-18.32 10.61-48.008 10.649-66.25.115z" opacity=".2"/>
            <path fill="#1A82FF" d="M104.694 110.216v8.226c0 6.958-4.608 13.955-13.826 19.26-18.358 10.61-48.007 10.649-66.25.116-9.064-5.229-13.596-12.11-13.634-19.03v-8.572h93.71z"/>
            <path fill="#40A0FF" d="M24.58 129.63c-9.064-5.229-13.596-12.11-13.634-19.03 0-6.958 4.608-13.955 13.826-19.26 18.358-10.61 48.007-10.649 66.25-.115 9.064 5.228 13.595 12.11 13.634 19.029 0 6.958-4.609 13.955-13.826 19.26-18.32 10.61-48.008 10.649-66.25.115z"/>
            <path fill="#1A82FF" d="M57.532 131.897c-11.483 0-22.199-2.537-30.149-7.112-6.99-4.036-10.83-9.072-10.83-14.185 0-5.113 4.033-10.38 11.022-14.416 8.066-4.652 18.934-7.227 30.533-7.227 11.483 0 22.199 2.537 30.149 7.112 6.99 4.036 10.83 9.072 10.83 14.185 0 5.113-4.033 10.38-11.023 14.416-8.103 4.652-18.934 7.227-30.532 7.227z"/>
            <path fill="#0F7CE8" d="M27.575 97.299c8.066-4.652 18.934-7.227 30.533-7.227 11.483 0 22.199 2.537 30.149 7.111 6.72 3.883 10.523 8.689 10.792 13.61 0-.193.038-.385.038-.577 0-5.113-3.84-10.15-10.83-14.186-7.95-4.575-18.666-7.112-30.149-7.112-11.599 0-22.429 2.576-30.533 7.227-7.028 4.037-11.022 9.304-11.022 14.417 0 .192 0 .384.038.576.27-4.92 4.225-9.956 10.984-13.84z"/>
            <path fill="#FFF" d="M52.731 121.133l.039-5.42a23.529 23.529 0 0 1-3.303-1.576c-5.915-3.422-6.645-7.074-1.959-9.765 1.959-1.115 4.225-1.73 6.644-1.768l-.115 18.722c1.19.192 2.42.307 3.61.384.5.038.999.038 1.498.038h.652c4.533-.115 8.757-1.191 12.214-3.19 4.032-2.307 5.914-5.19 5.492-8.304-.423-2.922-2.919-5.843-7.067-8.265-2.765-1.576-5.914-2.768-9.217-3.46l-.039 5.42c1.037.423 2.113.923 3.15 1.538 2.727 1.576 4.34 3.152 4.877 4.729.615 1.845-.384 3.575-2.88 4.997-1.92 1.115-4.148 1.692-6.49 1.769l.114-18.684c-1.267-.192-2.496-.346-3.763-.384-.27 0-.5 0-.768-.039h-1.268c-4.609.077-8.833 1.154-12.328 3.191-4.033 2.307-5.915 5.19-5.492 8.304.384 2.921 2.919 5.843 7.067 8.265 2.765 1.653 5.99 2.845 9.332 3.498z"/>
        </g>
        <g>
            <path fill="#111D28" d="M13.864 121.21a52.526 52.526 0 0 1-2.88-1.807s-.115-8.765-.154-14.877c0-6.958-5.99-16.261 3.227-21.605 18.357-10.61 48.007-10.648 66.25-.115 9.063 5.228 13.595 12.11 13.634 19.029 0 6.958-4.61 13.955-13.827 19.26-18.32 10.61-48.007 10.649-66.25.115z" opacity=".2"/>
            <path fill="#1A82FF" d="M93.979 88.764v8.227c0 6.958-4.609 13.955-13.826 19.26-18.358 10.61-48.007 10.649-66.25.115C4.839 111.138.307 104.256.269 97.337v-8.573h93.71z"/>
            <path fill="#40A0FF" d="M13.864 108.178C4.801 102.95.27 96.068.23 89.148c0-6.957 4.61-13.954 13.827-19.259 18.357-10.61 48.007-10.649 66.25-.115 9.063 5.228 13.595 12.11 13.634 19.029 0 6.958-4.61 13.955-13.827 19.26-18.32 10.61-48.007 10.648-66.25.115z"/>
            <path fill="#1A82FF" d="M46.817 110.446c-11.484 0-22.199-2.537-30.149-7.112-6.99-4.036-10.83-9.072-10.83-14.185 0-5.113 4.032-10.38 11.022-14.416 8.065-4.652 18.934-7.227 30.533-7.227 11.483 0 22.198 2.537 30.148 7.112 6.99 4.036 10.83 9.072 10.83 14.185 0 5.113-4.032 10.38-11.022 14.416-8.103 4.652-18.934 7.227-30.532 7.227z"/>
            <path fill="#0F7CE8" d="M16.86 75.848c8.065-4.652 18.934-7.228 30.533-7.228 11.483 0 22.198 2.538 30.148 7.112 6.721 3.883 10.523 8.688 10.792 13.61 0-.193.039-.385.039-.578 0-5.112-3.84-10.148-10.83-14.185-7.95-4.575-18.666-7.112-30.15-7.112-11.598 0-22.428 2.576-30.532 7.227C9.832 78.731 5.838 83.998 5.838 89.11c0 .193 0 .385.038.577.269-4.92 4.225-9.957 10.984-13.84z"/>
            <path fill="#FFF" d="M42.016 99.682l.038-5.42a23.529 23.529 0 0 1-3.303-1.576c-5.914-3.422-6.644-7.074-1.958-9.765 1.958-1.115 4.224-1.73 6.644-1.768l-.115 18.721c1.19.193 2.42.308 3.61.385.5.038.998.038 1.498.038h.652c4.532-.115 8.757-1.191 12.214-3.19 4.032-2.307 5.914-5.19 5.492-8.304-.423-2.922-2.92-5.843-7.067-8.265-2.765-1.576-5.914-2.768-9.217-3.46l-.039 5.42c1.037.423 2.113.923 3.15 1.538 2.726 1.576 4.34 3.152 4.877 4.728.615 1.846-.384 3.576-2.88 4.998-1.92 1.115-4.148 1.692-6.491 1.768l.115-18.683c-1.267-.192-2.496-.346-3.764-.384-.268 0-.499 0-.768-.039h-1.267c-4.609.077-8.833 1.154-12.328 3.191-4.033 2.307-5.915 5.19-5.492 8.304.384 2.921 2.919 5.843 7.066 8.265 2.766 1.653 5.953 2.845 9.333 3.498z"/>
        </g>
        <g>
            <path fill="#111D28" d="M29.957 102.412c-9.064-5.229-13.596-12.11-13.635-19.03 0-6.958 4.61-13.954 13.827-19.26 18.358-10.61 48.007-10.648 66.25-.115 9.063 5.229 13.595 12.11 13.634 19.03 0 6.958-4.61 13.954-13.826 19.26-18.358 10.61-48.008 10.686-66.25.115z" opacity=".2"/>
            <path fill="#1A82FF" d="M110.033 70.004v8.227c0 6.958-4.61 13.955-13.826 19.26-18.358 10.61-48.008 10.649-66.25.115-9.064-5.228-13.596-12.11-13.635-19.029v-8.573h93.71z"/>
            <path fill="#40A0FF" d="M29.957 89.38C20.893 84.15 16.36 77.27 16.322 70.35c0-6.958 4.61-13.954 13.827-19.26 18.358-10.61 48.007-10.648 66.25-.115 9.063 5.228 13.595 12.11 13.634 19.03 0 6.958-4.61 13.954-13.826 19.26-18.358 10.61-48.008 10.686-66.25.115z"/>
            <path fill="#1A82FF" d="M62.87 91.686c-11.483 0-22.198-2.537-30.148-7.112-6.99-4.036-10.83-9.072-10.83-14.185 0-5.113 4.032-10.38 11.022-14.416 8.065-4.652 18.934-7.228 30.532-7.228 11.484 0 22.199 2.538 30.149 7.112 6.99 4.037 10.83 9.073 10.83 14.186 0 5.113-4.032 10.38-11.022 14.416-8.065 4.651-18.934 7.227-30.533 7.227z"/>
            <path fill="#0F7CE8" d="M32.952 57.05c8.065-4.652 18.934-7.228 30.533-7.228 11.483 0 22.198 2.537 30.148 7.112 6.721 3.883 10.524 8.688 10.792 13.609 0-.193.039-.385.039-.577 0-5.113-3.84-10.149-10.83-14.185-7.95-4.575-18.666-7.112-30.15-7.112-11.598 0-22.428 2.575-30.532 7.227-7.028 4.113-11.06 9.38-11.023 14.454 0 .193 0 .385.04.577.23-4.92 4.224-9.957 10.983-13.878z"/>
            <path fill="#FFF" d="M58.07 80.922l.038-5.42a23.529 23.529 0 0 1-3.303-1.576c-5.914-3.422-6.644-7.074-1.959-9.765 1.96-1.115 4.225-1.73 6.645-1.768l-.116 18.721c1.19.193 2.42.308 3.61.385.5.038 1 .038 1.498.038h.653c4.532-.115 8.757-1.192 12.213-3.19 4.033-2.307 5.915-5.19 5.492-8.304-.422-2.922-2.919-5.843-7.066-8.265-2.766-1.577-5.915-2.768-9.218-3.46l-.038 5.497c1.037.423 2.112.923 3.15 1.538 2.726 1.576 4.339 3.152 4.877 4.728.614 1.846-.384 3.575-2.88 4.998-1.921 1.115-4.149 1.691-6.491 1.768l.115-18.683c-1.268-.192-2.497-.346-3.764-.384-.269 0-.5 0-.768-.039h-1.267c-4.61.077-8.834 1.153-12.329 3.19-4.032 2.307-5.914 5.19-5.492 8.305.384 2.921 2.92 5.843 7.067 8.265 2.765 1.576 5.991 2.768 9.333 3.421z"/>
        </g>
        <g>
            <path fill="#111D28" d="M19.241 83.652c-4.992-2.884-8.603-6.267-10.83-9.842 3.11-3.114 9.064-3.229 9.064-6.343 0-6.958-7.22-16.8 1.997-22.104 18.358-10.61 48.007-10.65 66.25-.116 9.064 5.228 13.595 12.11 13.634 19.03 0 6.958-4.609 13.954-13.826 19.26-18.397 10.61-48.084 10.648-66.289.115z" opacity=".2"/>
            <path fill="#1A82FF" d="M99.317 51.244v8.227c0 6.958-4.608 13.955-13.826 19.26-18.358 10.61-48.007 10.649-66.25.115-9.063-5.228-13.595-12.11-13.634-19.029v-8.573h93.71z"/>
            <path fill="#40A0FF" d="M19.241 70.62C10.178 65.39 5.646 58.51 5.607 51.59c0-6.958 4.609-13.954 13.826-19.26 18.358-10.61 48.008-10.648 66.25-.115 9.064 5.228 13.596 12.11 13.634 19.03 0 6.957-4.608 13.954-13.826 19.26-18.358 10.61-48.045 10.648-66.25.114z"/>
            <path fill="#1A82FF" d="M52.155 72.888c-11.483 0-22.198-2.538-30.148-7.112-6.99-4.037-10.83-9.073-10.83-14.186 0-5.113 4.032-10.38 11.022-14.416 8.065-4.651 18.934-7.227 30.532-7.227 11.483 0 22.199 2.537 30.149 7.112 6.99 4.036 10.83 9.072 10.83 14.185 0 5.113-4.032 10.38-11.022 14.416-8.066 4.652-18.934 7.228-30.533 7.228z"/>
            <path fill="#0F7CE8" d="M22.237 38.29c8.065-4.653 18.934-7.228 30.533-7.228 11.483 0 22.198 2.537 30.148 7.112 6.721 3.882 10.523 8.688 10.792 13.608 0-.192.039-.384.039-.576 0-5.113-3.841-10.15-10.83-14.186-7.95-4.574-18.666-7.111-30.15-7.111-11.598 0-22.428 2.575-30.532 7.227-7.028 4.036-11.023 9.303-11.023 14.416 0 .192 0 .384.039.576.23-4.92 4.225-9.918 10.984-13.839z"/>
            <path fill="#FFF" d="M47.354 62.162l.039-5.42a23.529 23.529 0 0 1-3.303-1.577c-5.915-3.421-6.644-7.073-1.959-9.764 1.959-1.115 4.225-1.73 6.644-1.768l-.115 18.721c1.19.192 2.42.308 3.61.385.5.038.999.038 1.498.038h.653c4.532-.115 8.757-1.192 12.213-3.19 4.033-2.307 5.915-5.19 5.492-8.304-.422-2.922-2.919-5.844-7.067-8.265-2.765-1.577-5.914-2.768-9.217-3.46l-.038 5.42c1.037.423 2.112.923 3.149 1.538 2.727 1.576 4.34 3.152 4.877 4.728.615 1.846-.384 3.575-2.88 4.998-1.92 1.115-4.148 1.691-6.49 1.768l.115-18.683c-1.268-.192-2.497-.346-3.764-.384-.269 0-.5 0-.768-.039h-1.268c-4.608.077-8.833 1.153-12.328 3.19-4.033 2.307-5.914 5.19-5.492 8.305.384 2.921 2.919 5.843 7.067 8.265 2.765 1.653 5.991 2.806 9.332 3.498z"/>
        </g>
        <g>
            <path fill="#111D28" d="M88.871 78.308c-9.064-5.267-13.596-12.148-13.634-19.03 0-6.957 4.609-13.954 13.826-19.259 18.358-10.61 48.007-10.649 66.25-.115 9.064 5.228 13.596 12.11 13.634 19.029 0 6.958-4.609 13.955-13.826 19.26-18.32 10.571-48.007 10.648-66.25.115z" opacity=".2"/>
            <path fill="#1A82FF" d="M168.986 45.862v8.227c0 6.958-4.61 13.955-13.827 19.26-18.358 10.61-48.007 10.649-66.25.115-9.063-5.228-13.595-12.11-13.634-19.029v-8.573h93.71z"/>
            <path fill="#40A0FF" d="M88.871 65.276c-9.064-5.228-13.596-12.11-13.634-19.03 0-6.957 4.609-13.954 13.826-19.26 18.358-10.61 48.007-10.648 66.25-.114 9.064 5.228 13.596 12.109 13.634 19.029 0 6.958-4.609 13.954-13.826 19.26-18.32 10.571-48.007 10.648-66.25.115z"/>
            <path fill="#1A82FF" d="M121.823 67.544c-11.483 0-22.198-2.537-30.148-7.112-6.99-4.036-10.83-9.072-10.83-14.185 0-5.113 4.032-10.38 11.022-14.416 8.065-4.652 18.934-7.228 30.532-7.228 11.484 0 22.199 2.538 30.149 7.112 6.99 4.037 10.83 9.073 10.83 14.186 0 5.113-4.032 10.38-11.022 14.416-8.104 4.651-18.934 7.227-30.533 7.227z"/>
            <path fill="#0F7CE8" d="M91.867 32.945c8.065-4.651 18.934-7.227 30.532-7.227 11.484 0 22.199 2.537 30.149 7.112 6.72 3.883 10.523 8.688 10.792 13.609 0-.192.038-.384.038-.577 0-5.113-3.84-10.149-10.83-14.185-7.95-4.575-18.665-7.112-30.149-7.112-11.598 0-22.429 2.576-30.532 7.227-6.99 4.075-11.023 9.342-11.023 14.455 0 .192 0 .384.039.576.268-4.959 4.224-9.995 10.984-13.878z"/>
            <path fill="#FFF" d="M117.022 56.78l.039-5.42a23.529 23.529 0 0 1-3.303-1.577c-5.915-3.421-6.644-7.073-1.959-9.764 1.959-1.115 4.225-1.73 6.644-1.768l-.153 18.76c1.19.192 2.42.307 3.61.384.5.039.999.039 1.498.039h.652c4.533-.116 8.757-1.192 12.214-3.191 4.032-2.307 5.914-5.19 5.492-8.304-.423-2.921-2.919-5.843-7.067-8.265-2.765-1.576-5.914-2.768-9.217-3.46l-.039 5.42c1.037.423 2.113.923 3.15 1.538 2.726 1.576 4.34 3.153 4.877 4.729.615 1.845-.384 3.575-2.88 4.997-1.92 1.115-4.148 1.692-6.49 1.769l.114-18.684c-1.267-.192-2.496-.346-3.763-.384-.27 0-.5 0-.769-.038h-1.267c-4.609.076-8.833 1.153-12.328 3.19-4.033 2.307-5.915 5.19-5.492 8.304.384 2.922 2.919 5.843 7.066 8.265 2.804 1.615 6.03 2.807 9.371 3.46z"/>
        </g>
        <g>
            <path fill="#111D28" d="M83.533 59.51C74.43 54.28 69.899 47.4 69.899 40.518c0-6.958 4.608-13.955 13.826-19.26 18.358-10.61 48.007-10.649 66.25-.115 9.102 5.19 13.634 12.07 13.634 18.99 0 6.958-4.609 13.955-13.826 19.26-18.358 10.61-48.008 10.687-66.25.115z" opacity=".2"/>
            <path fill="#1A82FF" d="M163.609 27.102v8.227c0 6.958-4.609 13.916-13.826 19.26-18.358 10.61-48.008 10.648-66.25.115-9.103-5.228-13.634-12.11-13.634-19.03v-8.572h93.71z"/>
            <path fill="#40A0FF" d="M83.533 46.477c-9.103-5.228-13.634-12.11-13.634-18.99 0-6.959 4.608-13.955 13.826-19.26 18.358-10.61 48.007-10.649 66.25-.116 9.102 5.19 13.634 12.071 13.634 18.991 0 6.958-4.609 13.955-13.826 19.26-18.358 10.61-48.008 10.687-66.25.115z"/>
            <path fill="#1A82FF" d="M116.446 48.745c-11.483 0-22.198-2.537-30.148-7.111-6.99-4.037-10.83-9.073-10.83-14.186 0-5.113 4.032-10.38 11.022-14.416 8.065-4.651 18.934-7.227 30.532-7.227 11.484 0 22.199 2.537 30.149 7.112 6.99 4.036 10.83 9.072 10.83 14.185 0 5.113-4.032 10.38-11.022 14.416-8.065 4.69-18.896 7.227-30.533 7.227z"/>
            <path fill="#0F7CE8" d="M86.528 14.147c8.065-4.652 18.934-7.227 30.533-7.227 11.483 0 22.198 2.537 30.148 7.112 6.721 3.882 10.524 8.688 10.792 13.608 0-.192.039-.384.039-.576 0-5.113-3.84-10.15-10.83-14.186-7.95-4.574-18.666-7.112-30.15-7.112-11.598 0-22.428 2.576-30.532 7.228C79.5 17.03 75.506 22.297 75.506 27.41c0 .192 0 .384.038.576.269-4.882 4.225-9.918 10.984-13.839z"/>
            <path fill="#FFF" d="M111.684 38.02l.038-5.42a23.529 23.529 0 0 1-3.302-1.577c-5.915-3.421-6.645-7.073-1.96-9.764 1.96-1.115 4.226-1.73 6.645-1.768l-.115 18.721c1.19.192 2.42.308 3.61.385.5.038.999.038 1.498.038h.652c4.533-.115 8.757-1.192 12.214-3.19 4.032-2.307 5.914-5.19 5.492-8.304-.423-2.922-2.919-5.844-7.067-8.266-2.765-1.576-5.914-2.767-9.217-3.46l-.039 5.421c1.037.423 2.113.923 3.15 1.538 2.726 1.576 4.34 3.152 4.877 4.728.615 1.845-.384 3.575-2.88 4.998-1.92 1.115-4.148 1.691-6.49 1.768l.114-18.683c-1.267-.192-2.496-.346-3.763-.385-.27 0-.5 0-.769-.038h-1.267c-4.609.077-8.833 1.153-12.328 3.19-4.033 2.307-5.915 5.19-5.492 8.304.384 2.922 2.919 5.844 7.066 8.266 2.727 1.653 5.953 2.844 9.333 3.498z"/>
        </g>
        <path fill="#111D28" d="M81.728 152.003c-6.875-3.883-10.6-9.034-11.061-14.224-.461-5.228 2.42-10.495 8.718-14.57 12.558-8.073 33.912-8.265 47.777-.423 6.874 3.883 10.6 9.034 11.06 14.224.461 5.228-2.42 10.495-8.718 14.57-12.558 8.073-33.95 8.265-47.776.423z" opacity=".2"/>
        <g transform="translate(57.993 60.355)">
            <ellipse cx="47.508" cy="47.285" fill="#111D28" opacity=".2" rx="45.818" ry="45.862"/>
            <ellipse cx="46.164" cy="46.208" fill="#40A0FF" rx="45.818" ry="45.862"/>
            <ellipse cx="46.164" cy="46.208" fill="#1A82FF" rx="37.254" ry="37.29"/>
            <path fill="#0F7CE8" d="M9.986 47.285c0-20.606 16.668-37.29 37.253-37.29a37.149 37.149 0 0 1 25.809 10.38C66.25 13.3 56.725 8.919 46.164 8.919c-20.586 0-37.254 16.684-37.254 37.29 0 10.571 4.378 20.105 11.445 26.91a37.222 37.222 0 0 1-10.37-25.834z"/>
            <path fill="#FFF" d="M62.563 35.752l-6.452 6.458c.269 1.269.384 2.691.384 4.19 0 8.189-3.84 13.071-10.254 13.071-2.689 0-4.955-.846-6.645-2.499L61.95 34.6a20.168 20.168 0 0 0-2.036-2.96c-.307-.385-.653-.731-.999-1.077a.53.53 0 0 0-.153-.115l-.307-.308c-3.265-3.037-7.413-4.613-12.213-4.613-5.53 0-10.255 2.114-13.634 6.15-3.188 3.768-4.955 9.035-4.955 14.801 0 3.806.768 7.42 2.228 10.534l6.49-6.497c-.23-1.23-.345-2.576-.345-4.037 0-3.767.768-6.804 2.266-9.034 1.766-2.614 4.493-3.998 7.911-3.998 2.65 0 4.878.846 6.568 2.384L30.456 58.164a19.29 19.29 0 0 0 2.112 3.114c.154.192.307.384.5.538.191.192.383.423.575.615l.077.077.192.192c3.265 3.114 7.451 4.729 12.29 4.729 5.53 0 10.255-2.115 13.673-6.151 3.226-3.806 4.992-9.034 4.992-14.8.039-3.922-.768-7.574-2.304-10.726z"/>
        </g>
        <path fill="#FFF" d="M177.012 20.375c-13.288 0-18.204 4.344-18.204 18.222 0-13.917-4.916-18.222-18.204-18.222 13.288 0 18.204-4.344 18.204-18.222 0 13.916 4.916 18.222 18.204 18.222z"/>
    </g>
</svg>
