<svg xmlns="http://www.w3.org/2000/svg" width="557" height="313" viewBox="0 0 557 313">
    <g fill="none">
        <g>
            <path fill="#DD0A0A" d="M137.822 260.186c-4.865 1.776-10.258-.734-12.035-5.612L74.73 114.294l-26.605 31.52c-3.011 3.566-8.34 4.016-11.905.992l-33.13-28.059c-3.54-2.999-4.003-8.289-1.017-11.854l44.933-53.775c3.616-4.324 8.301-7.62 13.604-9.55l29.758-10.824c8.842 7.606 21.43 10.348 33.18 6.075 11.752-4.273 19.63-14.467 21.508-25.974l29.758-10.824C180.116.09 185.817-.4 191.365.592l68.988 12.318c4.57.81 7.62 5.16 6.834 9.73l-7.349 42.783c-.785 4.595-5.161 7.684-9.756 6.886l-40.646-7.04 51.046 140.28c1.776 4.865-.734 10.258-5.612 12.021l-117.048 42.616z" transform="translate(0 1) translate(0 49.296)"/>
            <g fill="#FFF">
                <path d="M56.465 10.297c0-4.08-2.034-10.014-3.218-10.207-1.184-.193-2.626 3.668-5.56 6.474-1.545 1.48-3.218 2.42-4.466 2.973-5.2-.926-10.696-.54-16.025 1.39-5.315 1.931-9.782 5.175-13.167 9.229-1.313.373-3.192.734-5.328.592-4.055-.257-7.633-2.291-8.418-1.39-.785.9 1.467 6.757 4.093 9.885 2.471 2.947 5.342 3.668 5.663 3.732l-.437.991s-.85-.167-2.034-.785c-.219.94-.386 1.892-.515 2.858l4.647 4.44 8.211 8.019c.94.669 2.188.875 3.36.45 0 0 9.666-6.152 14.84-8.031 5.174-1.88 16.526-3.385 16.526-3.385 1.171-.425 1.995-1.39 2.278-2.51l1.133-11.417.708-6.384c-.721-.656-1.455-1.274-2.227-1.853-.515 1.235-1.055 1.918-1.055 1.918l-.966-.49c.22-.257 1.957-2.65 1.957-6.5zm-27.158 32.86c-1.609.578-3.5-.567-4.234-2.588-.734-2.008-.026-4.119 1.583-4.698 1.609-.579 3.5.567 4.234 2.587.734 2.008.026 4.119-1.583 4.698zm2.986-7.221c-.116.18-.283.296-.463.36-.283.103-.605.077-.875-.103-.065-.039-4.853-3.166-11.391-1.467-.515.128-1.043-.18-1.184-.695-.129-.515.18-1.043.695-1.184 7.426-1.944 12.742 1.583 12.96 1.724.438.322.554.914.258 1.365zm14.017 1.042c-1.61.58-3.501-.566-4.235-2.587-.734-2.008-.026-4.119 1.583-4.698 1.609-.579 3.501.567 4.235 2.587.733 2.008.025 4.106-1.583 4.698zm2.046-12.73c-6.114 2.897-7.774 8.393-7.787 8.444-.09.309-.322.54-.605.644-.18.064-.386.077-.592.025-.515-.141-.81-.682-.656-1.197.077-.257 1.879-6.37 8.816-9.653.477-.231 1.056-.026 1.287.464.22.476.013 1.042-.463 1.274zM61.523 20.079L60.236 31.52c-.67 3.012-.502 6.23.618 9.344l1.454 4.003c.76 2.098 2.613 3.488 4.685 3.758h.605c1.75-6.088 1.66-12.755-.67-19.152-1.26-3.526-3.114-6.68-5.405-9.395zM20.941 65.397c1.416-1.532 1.943-3.797 1.184-5.895L20.671 55.5c-1.133-3.114-3.09-5.676-5.522-7.555l-8.34-7.941c-.013 3.54.592 7.156 1.879 10.67 2.33 6.397 6.551 11.57 11.803 15.11l.45-.386zM65.706 50.57c-.27-.013-.553.026-.824.129-.283.103-.515.257-.72.45l-5.754 5.92c-3.256 3.154-7.22 5.69-11.75 7.337-4.531 1.648-9.19 2.252-13.721 1.93l-8.212-.836c-.283-.013-.566.026-.837.129-.27.103-.514.244-.707.437l-.58 1.056c7.607 4.273 16.964 5.328 25.807 2.11 8.842-3.217 15.329-10.039 18.405-18.199l-1.107-.463z" transform="translate(0 1) translate(0 49.296) translate(110.819 67.701)"/>
            </g>
        </g>
        <g>
            <path fill="#FFF" stroke="#000" stroke-width="2" d="M12.55 217.583c-4.866-1.776-7.376-7.156-5.613-12.022l51.06-140.28-40.647 7.04c-4.595.799-8.971-2.29-9.756-6.885L.244 22.653c-.785-4.57 2.266-8.92 6.835-9.73L76.067.604C81.614-.386 87.33.103 92.62 2.034l29.758 10.824c1.879 11.52 9.769 21.7 21.507 25.974 11.738 4.273 24.326 1.531 33.181-6.076l29.758 10.825c5.303 1.93 9.988 5.226 13.604 9.55l44.933 53.775c2.973 3.565 2.522 8.855-1.017 11.854l-33.13 28.059c-3.565 3.011-8.894 2.574-11.905-.991l-26.605-31.521-51.059 140.28c-1.776 4.865-7.156 7.375-12.034 5.611L12.55 217.583z" transform="translate(0 1) translate(288.18 49.296)"/>
            <g>
                <g fill="#000">
                    <path d="M13.18 8.186l-.438 1.223c-.643 1.763-1.712 2.999-3.23 3.68-1.493.683-3.115.709-4.891.065-1.867-.682-3.192-1.84-3.977-3.488-.76-1.635-.824-3.334-.18-5.097C1.106 2.806 2.24 1.545 3.886.76 5.534-.026 7.247-.077 9.01.566c1.12.412 2.046 1.043 2.793 1.88.759.836 1.235 1.776 1.467 2.805l-3.153.54C9.91 4.866 9.113 4.004 7.94 3.579c-.94-.347-1.84-.322-2.677.077-.836.4-1.416 1.081-1.776 2.034-.335.927-.335 1.828.039 2.677.373.85 1.107 1.493 2.188 1.892 1.39.502 2.51.309 3.333-.58L6.127 8.612l.965-2.639 6.088 2.214zM17.84 17.968c-1.764-.644-3.038-1.79-3.824-3.437-.772-1.66-.836-3.359-.193-5.122.644-1.764 1.777-3.025 3.437-3.784 1.66-.773 3.372-.837 5.148-.193 1.764.643 3.025 1.776 3.797 3.449.785 1.647.863 3.346.219 5.11-.644 1.763-1.802 3.024-3.462 3.797-1.66.759-3.347.823-5.123.18zm1.093-3c.927.336 1.815.31 2.652-.063.836-.4 1.441-1.069 1.789-2.008.347-.94.321-1.84-.078-2.677s-1.055-1.43-1.982-1.777c-.926-.334-1.815-.309-2.651.078-.837.373-1.429 1.055-1.776 1.995-.348.94-.322 1.84.077 2.69.386.836 1.042 1.428 1.97 1.763zM37.673 11.288L36.592 14.261 33.619 13.18 30.324 22.228 27.261 21.108 30.556 12.06 27.582 10.979 28.664 8.006zM50.93 16.114L49.849 19.088 46.876 18.006 43.581 27.055 40.505 25.935 43.8 16.887 40.827 15.805 41.908 12.832zM56.71 18.225c1.222.438 2.084 1.21 2.625 2.291.54 1.094.58 2.253.142 3.475-.438 1.223-1.223 2.085-2.33 2.575-1.107.489-2.265.514-3.488.077l-1.596-.58-1.313 3.604-3.076-1.12 4.376-12.02 4.66 1.698zm-1.996 5.483c.682.245 1.416-.09 1.686-.85.27-.759-.064-1.467-.759-1.711l-1.596-.58-.927 2.562 1.596.58zM61.188 28.496c.348-.94 1.326-1.596 2.137-1.866.824-.296 1.725-.734 1.93-1.3.206-.553-.038-.952-.707-1.197-.708-.257-1.416-.013-2.137.76l-2.06-2.446c1.43-1.583 3.463-1.944 5.407-1.236 1.094.4 1.917 1.043 2.458 1.944.553.888.63 1.866.244 2.909-.926 2.56-3.912 2.304-4.337 3.488l-2.935-1.056zm1.082 1.583c.978.36 1.493 1.455 1.132 2.433-.373 1.017-1.454 1.493-2.432 1.133-.979-.36-1.506-1.416-1.133-2.433.347-.978 1.454-1.493 2.433-1.133z" transform="translate(0 1) translate(288.18 49.296) translate(66.543 61.78) translate(28.96)"/>
                </g>
                <g fill="#000">
                    <path d="M.064 7.195C-.257 4.428.656 1.918 2.677 0l1.339.49C1.995 2.406 1.08 4.903 1.403 7.683l-1.339-.49zM4.209 1.467L5.637 1.982 3.604 7.568 2.175 7.053zM11.005 7.568l-.876 2.394-1.325-.476.81-2.227c.155-.412-.012-.72-.373-.85-.412-.154-.746.014-.914.49l-.772 2.124-1.325-.477L8.263 2.96l1.326.477-.72 1.995c.36-.258.797-.297 1.299-.103.862.296 1.249 1.132.837 2.24zM15.123 7.246l1.326.477-1.454 3.99-1.326-.477.129-.373c-.387.219-.824.245-1.313.064-.54-.193-.914-.553-1.12-1.08-.206-.541-.206-1.108.013-1.7.219-.592.58-1.042 1.081-1.313.502-.27 1.03-.308 1.557-.115.49.18.811.476.966.888l.141-.36zm-1.879 2.562c.245.09.49.09.695-.013.206-.103.36-.283.464-.54.103-.258.09-.503 0-.722-.09-.218-.27-.373-.515-.463-.245-.09-.49-.09-.695.013-.206.103-.36.283-.464.54-.103.258-.09.502 0 .721.09.22.27.374.515.464zM19.783 8.945L21.25 9.486 18.302 12.935 16.861 12.408 16.822 7.864 18.29 8.405 18.199 10.966zM21.739 12.459c.013.373.257.644.72.81.284.104.567.091.824-.012l.708 1.017c-.566.347-1.235.386-1.982.116-.682-.245-1.145-.644-1.416-1.184-.257-.554-.283-1.12-.051-1.725.219-.605.605-1.03 1.145-1.287.554-.258 1.133-.27 1.75-.052.606.22 1.018.592 1.262 1.133.245.54.258 1.12.039 1.712-.064.18-.142.334-.232.476l-2.767-1.004zm1.853-.36c.039-.412-.154-.695-.553-.837-.412-.154-.734-.064-.991.27l1.544.567zM29.848 14.042l-.837-.296-.425 1.159c-.128.347.09.489.695.669l-.437 1.197c-.824-.193-1.365-.464-1.596-.824-.232-.36-.232-.862 0-1.493l.437-1.184-.605-.219.464-1.274.605.219.257-.721 1.467.077-.411 1.12.836.296-.45 1.274zM34.25 16.024l-.876 2.394-1.325-.476.81-2.227c.155-.411-.012-.72-.373-.85-.412-.154-.746.014-.914.49l-.772 2.124-1.326-.49 2.034-5.585 1.326.476-.721 1.995c.36-.258.798-.296 1.3-.103.85.309 1.236 1.145.837 2.252zM35.871 14.17c-.18-.424-.013-.887.386-1.08.425-.18.888-.013 1.082.386.205.412.038.875-.387 1.081-.411.193-.875.026-1.08-.386zm-1.776 4.506l1.454-3.99 1.326.476-1.454 3.99-1.326-.476zM39.037 17.633c.528.31 1.146.863.824 1.75-.167.451-.463.734-.875.824-.425.09-.862.052-1.339-.115-.9-.322-1.377-.863-1.441-1.596l1.364-.168c0 .335.155.554.464.67.244.09.386.064.437-.09.052-.155-.219-.348-.566-.58-.502-.322-1.12-.875-.811-1.699.154-.425.438-.695.837-.824.399-.115.823-.102 1.26.065.786.283 1.224.798 1.314 1.531l-1.3.09c-.039-.27-.155-.45-.373-.527-.206-.077-.322-.039-.36.09-.065.154.218.347.565.58zM44.65 19.667c.527.309 1.145.862.823 1.75-.167.45-.463.734-.875.824-.425.09-.863.051-1.339-.116-.9-.322-1.377-.862-1.441-1.596l1.364-.167c0 .334.154.553.463.67.245.09.386.063.438-.091.051-.154-.219-.348-.566-.58-.502-.321-1.12-.874-.811-1.698.154-.425.437-.695.836-.824.4-.116.824-.103 1.262.064.785.284 1.222.798 1.313 1.532l-1.3.09c-.04-.27-.155-.45-.374-.528-.206-.077-.321-.038-.36.09-.064.168.206.361.566.58zM50.312 21.868l-.875 2.394-1.326-.477.811-2.226c.155-.412-.013-.721-.373-.85-.412-.154-.746.013-.914.49l-.772 2.123-1.326-.476 2.034-5.586 1.326.476-.721 1.995c.36-.257.798-.296 1.3-.103.85.31 1.235 1.133.836 2.24zM51.934 20.014c-.18-.424-.013-.888.386-1.08.425-.181.888-.014 1.081.385.206.412.04.875-.386 1.081-.399.206-.875.026-1.08-.386zm-1.776 4.505l1.454-3.99 1.326.476-1.454 3.99-1.326-.476zM54.766 22.511c.334-.463.952-.592 1.493-.386l-.54 1.467c-.284-.154-.593-.206-.889-.128-.309.064-.528.296-.656.643l-.605 1.648-1.326-.477 1.454-3.99 1.326.477-.257.746zM58.859 24.596l-.837-.296-.425 1.159c-.128.347.09.489.695.669l-.437 1.197c-.824-.193-1.365-.463-1.596-.824-.232-.36-.232-.862 0-1.493l.437-1.184-.605-.219.464-1.274.605.219.257-.72 1.467.076-.411 1.12.836.296-.45 1.274zM57.893 28.239c2.021-1.918 2.935-4.415 2.613-7.195l1.339.489c.322 2.767-.592 5.277-2.613 7.195l-1.339-.49z" transform="translate(0 1) translate(288.18 49.296) translate(66.543 61.78) translate(0 90.483)"/>
                </g>
                <g transform="translate(0 1) translate(288.18 49.296) translate(66.543 61.78) translate(16.089 27.93)">
                    <ellipse cx="18.905" cy="21.699" fill="#FFF" rx="18.135" ry="13.45" transform="rotate(-70.001 18.905 21.7)"/>
                    <path fill="#231F20" d="M12.472 39.398c-3.591-1.313-6.268-4.402-7.555-8.7-1.262-4.235-1.017-9.14.695-13.837 1.712-4.685 4.672-8.61 8.353-11.043 3.745-2.472 7.787-3.115 11.378-1.815 3.59 1.3 6.268 4.402 7.555 8.7 1.261 4.235 1.017 9.139-.695 13.837-1.712 4.698-4.672 8.61-8.353 11.043-3.746 2.484-7.787 3.128-11.378 1.815zm12.395-34.07C18.264 2.923 10.22 8.316 6.925 17.35c-3.283 9.035-.593 18.328 6.023 20.735 6.603 2.407 14.647-2.986 17.942-12.021 3.282-9.036.58-18.341-6.023-20.735z"/>
                    <g>
                        <path fill="#EAEAEA" d="M26.295 44.186c6.976 2.535 15.42-3.025 18.843-12.433 3.424-9.41.54-19.1-6.435-21.636L12.768.682c6.976 2.536 9.86 12.228 6.435 21.636C15.78 31.727 7.35 37.3.36 34.751l25.935 9.435z" transform="translate(12.356 3.99)"/>
                        <path fill="#231F20" d="M26.05 44.842L.117 35.408l.476-1.326c6.603 2.407 14.647-2.986 17.942-12.021 3.282-9.036.592-18.328-6.023-20.735L12.987 0l25.935 9.434c3.59 1.313 6.268 4.402 7.555 8.701 1.261 4.235 1.017 9.138-.695 13.836-1.712 4.698-4.672 8.611-8.353 11.044-3.746 2.497-7.787 3.14-11.378 1.827zM5.664 35.936l20.864 7.593c6.603 2.407 14.647-2.986 17.942-12.021 3.282-9.035.592-18.328-6.024-20.735L17.582 3.179c1.3 1.48 2.316 3.36 2.96 5.535 1.261 4.234 1.017 9.138-.695 13.836-1.712 4.698-4.672 8.61-8.353 11.043-1.905 1.261-3.874 2.047-5.83 2.343z" transform="translate(12.356 3.99)"/>
                    </g>
                    <g>
                        <path fill="#FFF" d="M.952 55.821l12.19-33.503c3.423-9.408.54-19.1-6.436-21.636l25.935 9.435c6.976 2.535 9.859 12.227 6.435 21.636L26.887 65.256.952 55.82z" transform="translate(18.405 3.99)"/>
                        <path fill="#231F20" d="M27.3 66.157L.038 56.233l12.433-34.16c3.282-9.035.592-18.328-6.024-20.734L6.925.013l25.934 9.434c3.591 1.313 6.269 4.402 7.556 8.701 1.261 4.235 1.016 9.138-.695 13.836L27.3 66.157zM1.852 55.397l24.622 8.958 11.958-32.847c3.282-9.035.592-18.328-6.024-20.735L11.545 3.179c1.3 1.48 2.317 3.36 2.96 5.535 1.262 4.234 1.017 9.138-.695 13.836L1.853 55.396z" transform="translate(18.405 3.99)"/>
                    </g>
                    <path fill="#CCC" d="M57.121 28.985l-1.454-.527c-.36-.13-.554-.541-.425-.901.129-.36.54-.554.9-.425l1.455.528c.36.128.554.54.425.9-.129.361-.528.554-.9.425zm-3.938-1.441l-1.455-.528c-.36-.129-.553-.54-.425-.9.13-.361.541-.554.901-.426l1.455.528c.36.129.553.54.425.901-.13.373-.541.566-.901.425zm-3.939-1.429l-1.454-.528c-.36-.128-.554-.54-.425-.9.129-.361.54-.554.9-.425l1.455.527c.36.13.554.541.425.901-.141.36-.54.554-.9.425zm-3.951-1.441l-1.455-.528c-.36-.129-.553-.54-.424-.901.128-.36.54-.554.9-.425l1.455.528c.36.129.553.54.425.9-.129.374-.528.567-.901.426zm-3.939-1.43l-1.454-.527c-.36-.129-.554-.54-.425-.9.129-.361.54-.554.901-.426l1.454.528c.36.129.554.54.425.901-.128.373-.54.554-.9.425zm-3.938-1.44l-1.455-.528c-.36-.13-.553-.541-.424-.901.128-.36.54-.554.9-.425l1.455.528c.36.128.553.54.425.9-.129.374-.54.567-.901.425zM49.888 48.87l-1.455-.527c-.36-.129-.553-.54-.424-.9.128-.361.54-.554.9-.426l1.455.528c.36.129.553.54.425.901-.13.36-.54.554-.901.425zm-3.939-1.44l-1.454-.528c-.36-.13-.554-.541-.425-.901.129-.36.54-.554.901-.425l1.454.528c.36.128.554.54.425.9-.141.374-.54.554-.9.425zM41.998 46l-1.455-.527c-.36-.129-.553-.54-.424-.901.128-.36.54-.553.9-.425l1.455.528c.36.129.553.54.425.9-.129.361-.528.554-.901.426zm-3.939-1.44l-1.454-.529c-.36-.128-.554-.54-.425-.9.129-.36.54-.554.901-.425l1.455.527c.36.13.553.541.424.901-.128.374-.527.554-.9.425zm-3.938-1.43l-1.455-.527c-.36-.129-.553-.54-.424-.901.128-.36.54-.554.9-.425l1.455.528c.36.128.553.54.425.9-.129.361-.54.554-.901.425zm-3.939-1.441l-1.454-.528c-.36-.129-.554-.54-.425-.9.129-.361.54-.554.901-.426l1.455.528c.36.129.553.54.424.901-.141.373-.54.554-.9.425z"/>
                    <g transform="translate(12.485 14.802)">
                        <ellipse cx="5.817" cy="6.68" fill="#CCC" rx="5.586" ry="4.144" transform="rotate(-70.001 5.817 6.68)"/>
                        <path fill="#231F20" d="M3.668 12.588c-2.51-.914-3.59-4.312-2.407-7.568C2.445 1.763 5.457-.142 7.967.772c2.51.914 3.591 4.312 2.407 7.568-1.184 3.257-4.196 5.162-6.706 4.248zM7.491 2.085c-1.79-.643-3.99.888-4.904 3.41-.927 2.536-.219 5.124 1.57 5.767 1.79.644 3.99-.888 4.904-3.41.914-2.523.219-5.11-1.57-5.767z"/>
                    </g>
                </g>
            </g>
        </g>
        <g>
            <path fill="#242222" stroke="#FFF" stroke-width="2" d="M79.35 229.99c-5.188 0-9.384-4.195-9.384-9.382V71.318l-35.78 20.516c-4.042 2.317-9.216.914-11.52-3.14L1.12 50.993c-2.304-4.028-.927-9.164 3.089-11.48L64.818 4.35C69.696 1.52 75.23.04 80.868.04h31.662c5.715 10.18 16.604 17.054 29.102 17.054 12.497 0 23.386-6.873 29.1-17.054h31.663c5.638 0 11.172 1.493 16.05 4.311l60.61 35.164c4.015 2.33 5.392 7.465 3.088 11.48l-21.546 37.7c-2.316 4.054-7.478 5.457-11.519 3.14l-35.781-20.516v149.29c0 5.187-4.196 9.382-9.383 9.382H79.349z" transform="translate(0 1) translate(136.174)"/>
            <g fill="#FFF">
                <path d="M5.65 2.471H2.42V3.94h3.166v2.226H2.42v3.09H.116V.244H5.65V2.47zM9.087 7.028L12.189 7.028 12.189 9.254 6.783 9.254 6.783.245 9.087.245zM18.779 9.254l-.386-1.3h-3l-.386 1.3h-2.496l2.973-9.01h2.806l2.973 9.01h-2.484zm-2.793-3.282H17.8l-.913-3.063-.901 3.063zM27.454.245L27.454 2.471 25.227 2.471 25.227 9.254 22.923 9.254 22.923 2.471 20.696 2.471 20.696.245zM34.468.245L34.468 2.471 32.242 2.471 32.242 9.254 29.938 9.254 29.938 2.471 27.711 2.471 27.711.245zM37.609 7.092L41.097 7.092 41.097 9.254 35.305 9.254 35.305.245 41.032.245 41.032 2.394 37.609 2.394 37.609 3.642 40.711 3.642 40.711 5.766 37.609 5.766zM47.159.245L49.45.245 49.45 9.254 47.674 9.254 44.495 4.724 44.495 9.254 42.191 9.254 42.191.245 43.98.245 47.159 4.775zM59.978.245L59.978 2.471 57.752 2.471 57.752 9.254 55.448 9.254 55.448 2.471 53.221 2.471 53.221.245zM65.655.245L67.946.245 67.946 9.254 65.655 9.254 65.655 5.792 63.119 5.792 63.119 9.254 60.815 9.254 60.815.245 63.119.245 63.119 3.578 65.655 3.578zM71.678 7.092L75.166 7.092 75.166 9.254 69.374 9.254 69.374.245 75.102.245 75.102 2.394 71.678 2.394 71.678 3.642 74.78 3.642 74.78 5.766 71.678 5.766zM80.16 8.109c-.888-.901-1.326-2.021-1.326-3.36 0-1.338.438-2.458 1.326-3.346C81.048.502 82.18.05 83.532.05c.811 0 1.57.194 2.266.58.695.386 1.235.9 1.634 1.557l-1.995 1.146c-.347-.631-1.068-1.03-1.905-1.03-.72 0-1.3.232-1.75.682-.438.45-.657 1.03-.657 1.763 0 .734.22 1.326.657 1.777.45.45 1.03.669 1.75.669.837 0 1.558-.386 1.905-1.043l1.995 1.159c-.785 1.325-2.252 2.136-3.9 2.136-1.351 0-2.484-.45-3.372-1.338zM88.192.245h2.303v5.83c0 .76.425 1.133 1.262 1.133.836 0 1.261-.374 1.261-1.133V.245h2.304v6.049c0 .952-.335 1.712-1.004 2.29-.656.58-1.519.863-2.561.863-1.043 0-1.905-.283-2.574-.862-.657-.58-.991-1.339-.991-2.291V.244zM101.346 9.254l-1.57-2.909h-.824v2.91h-2.304V.244h3.604c.913 0 1.686.296 2.303.888.631.579.94 1.325.94 2.226 0 1.081-.592 2.034-1.532 2.562l1.854 3.333h-2.471zm-2.394-6.886V4.39h1.274c.566.013.965-.399.965-1.004s-.399-1.017-.965-1.017h-1.274zM106.7 9.254L103.791.245 106.314.245 108.064 6.448 109.828.245 112.35.245 109.441 9.254zM115.362 7.092L118.85 7.092 118.85 9.254 113.058 9.254 113.058.245 118.786.245 118.786 2.394 115.362 2.394 115.362 3.642 118.464 3.642 118.464 5.766 115.362 5.766z" transform="translate(0 1) translate(136.174) translate(82.503 43.632)"/>
            </g>
            <g fill="#FFF">
                <path d="M2.124.167c.553 0 1.004.18 1.377.54.373.361.553.812.553 1.365 0 .554-.18 1.004-.553 1.365-.373.36-.837.54-1.377.54h-.721v1.635H0V.167h2.124zm0 2.484c.309 0 .553-.244.553-.579 0-.347-.244-.579-.553-.579h-.721v1.158h.72zM5.998 4.26h1.866V5.6H4.608V.167h1.39V4.26zM11.841 5.599l-.231-.785H9.795l-.232.785H8.057L9.847.154h1.698l1.79 5.445H11.84zm-1.686-1.982h1.094l-.553-1.854-.54 1.854zM17.672.167l-1.828 3.347v2.085h-1.39V3.527l-1.84-3.36h1.557l.965 2.008.966-2.008h1.57zM25.407.167L25.407 5.612 24.03 5.612 24.03 2.677 22.704 4.865 22.563 4.865 21.25 2.69 21.25 5.612 19.86 5.612 19.86.167 21.25.167 22.627 2.484 24.017.167zM28.921 5.715c-.798 0-1.48-.27-2.034-.811-.553-.554-.823-1.223-.823-2.02 0-.799.27-1.468.823-2.009.554-.553 1.223-.824 2.034-.824.798 0 1.467.27 2.02.824.554.54.837 1.21.837 2.008s-.283 1.467-.836 2.02c-.554.541-1.223.812-2.021.812zm0-1.352c.425 0 .772-.141 1.042-.412.284-.283.425-.643.425-1.068 0-.425-.141-.785-.425-1.055-.283-.283-.63-.425-1.042-.425-.412 0-.772.142-1.043.425-.283.27-.424.63-.424 1.055 0 .425.141.785.424 1.068.27.27.618.412 1.043.412zM35.253 5.599l-.952-1.75h-.502v1.75h-1.39V.167h2.175c.554 0 1.017.18 1.39.54.386.348.567.799.567 1.34 0 .656-.36 1.222-.927 1.544l1.12 2.008h-1.48zM33.8 1.442v1.222h.772c.348.013.58-.244.58-.605 0-.36-.245-.617-.58-.617H33.8zM38.626 4.299L40.736 4.299 40.736 5.599 37.236 5.599 37.236.167 40.698.167 40.698 1.467 38.626 1.467 38.626 2.227 40.492 2.227 40.492 3.514 38.626 3.514zM44.482 5.599L42.731.154 44.25.154 45.306 3.9 46.374.154 47.893.154 46.142 5.599zM48.317.167L49.707.167 49.707 5.612 48.317 5.612zM52.77.167c.76 0 1.378.27 1.88.785s.76 1.172.76 1.931c0 .772-.258 1.416-.76 1.944-.502.514-1.133.772-1.88.772h-2.213V.167h2.214zm0 4.093c.387 0 .683-.128.927-.373.245-.257.36-.592.36-1.004 0-.412-.115-.746-.36-.991-.244-.257-.54-.386-.926-.386h-.785V4.26h.785zM57.456 4.299L59.567 4.299 59.567 5.599 56.066 5.599 56.066.167 59.528.167 59.528 1.467 57.456 1.467 57.456 2.227 59.322 2.227 59.322 3.514 57.456 3.514zM62.823 5.715c-.798 0-1.48-.27-2.034-.811-.553-.554-.823-1.223-.823-2.02 0-.799.27-1.468.823-2.009.554-.553 1.223-.824 2.034-.824.798 0 1.467.27 2.02.824.554.54.837 1.21.837 2.008s-.283 1.467-.836 2.02c-.554.541-1.223.812-2.021.812zm0-1.352c.425 0 .772-.141 1.042-.412.284-.283.425-.643.425-1.068 0-.425-.141-.785-.425-1.055-.283-.283-.63-.425-1.042-.425-.412 0-.772.142-1.043.425-.283.27-.424.63-.424 1.055 0 .425.141.785.424 1.068.27.27.618.412 1.043.412zM73.48 2.484v.554c0 .798-.244 1.441-.76 1.943-.501.49-1.145.734-1.943.734-.85 0-1.544-.27-2.098-.811-.54-.54-.81-1.21-.81-2.008s.27-1.467.81-2.02C69.22.321 69.902.05 70.7.05c.502 0 .965.116 1.39.348.425.232.76.528.991.914l-1.184.682c-.219-.348-.656-.566-1.184-.566-.425 0-.785.141-1.056.424-.27.284-.411.644-.411 1.069 0 .424.128.772.399 1.068.27.283.656.438 1.145.438.63 0 1.043-.245 1.249-.721h-1.326V2.51h2.767v-.026zM77.251 5.599l-.231-.785h-1.815l-.232.785h-1.506l1.79-5.445h1.698l1.79 5.445H77.25zm-1.686-1.982h1.094l-.553-1.854-.54 1.854zM84.691.167L84.691 5.612 83.313 5.612 83.313 2.677 81.988 4.865 81.846 4.865 80.533 2.69 80.533 5.612 79.143 5.612 79.143.167 80.533.167 81.911 2.484 83.301.167zM86.943 4.299L89.054 4.299 89.054 5.599 85.553 5.599 85.553.167 89.015.167 89.015 1.467 86.943 1.467 86.943 2.227 88.809 2.227 88.809 3.514 86.943 3.514zM89.427 4.363l1.184-.695c.206.476.554.721 1.069.721.424 0 .63-.129.63-.36 0-.168-.128-.284-.36-.387-.103-.038-.335-.102-.682-.205-.991-.284-1.622-.773-1.622-1.7 0-.501.18-.913.54-1.222.36-.31.811-.464 1.352-.464.914 0 1.647.438 2.02 1.249l-1.17.682c-.168-.399-.451-.605-.85-.605-.335 0-.502.142-.502.36 0 .245.193.374.927.593.27.077.476.141.63.218.155.078.335.168.528.296.386.245.566.657.566 1.185 0 .527-.18.952-.566 1.248-.386.309-.875.45-1.506.45-1.12-.012-1.892-.527-2.188-1.364z" transform="translate(0 1) translate(136.174) translate(95.116 118.026)"/>
            </g>
            <g>
                <path fill="#FFF" d="M22.035 3.153H23.605V4.723H22.035z" transform="translate(0 1) translate(136.174) translate(101.294 62.167)"/>
                <path fill="#FFF" d="M20.478 1.596H22.048000000000002V3.1660000000000004H20.478zM18.907.026H20.477V1.596H18.907zM18.907 4.724H20.477V6.2940000000000005H18.907zM20.478 6.294H22.048000000000002V7.864H20.478zM17.337 3.153H18.907V4.723H17.337zM17.337 7.851H18.907V9.421H17.337zM18.907 9.422H20.477V10.992H18.907z" transform="translate(0 1) translate(136.174) translate(101.294 62.167)"/>
                <path fill="#FFF" d="M15.78 6.294H17.349999999999998V7.864H15.78z" transform="translate(0 1) translate(136.174) translate(101.294 62.167)"/>
                <g fill="red">
                    <path d="M4.762 11.005H6.332V12.575000000000001H4.762zM12.6 17.273v-1.57h1.558v-3.128h-1.557v-1.57h-1.57v1.57h1.557v1.557H7.903v-1.557h-1.57v3.128h-1.57v1.57H3.204v-1.57h-1.57V21.958H.077v3.14H6.332v-1.57h4.698v-1.557h4.698v-4.698h-3.127zm-1.57-1.57v1.57H9.473v-1.57h1.557zM14.158 1.609L12.601 1.609 12.588 1.609 11.03 1.609 11.03.051 9.473.051 9.46.051 7.903.051 6.332.051 4.775.051 4.762.051 3.205.051 3.205 1.609 1.635 1.609 1.635 3.179 3.205 3.179 4.762 3.179 4.775 3.179 6.332 3.179 7.903 3.179 9.46 3.179 9.473 3.179 11.03 3.179 12.588 3.179 12.601 3.179 14.158 3.179 15.728 3.179 15.728 1.609z" transform="translate(0 1) translate(136.174) translate(101.294 62.167) translate(25.098 1.545)"/>
                </g>
                <g fill="#AA6F00">
                    <path d="M9.409 7.916L7.838 7.916 6.281 7.916 6.268 7.916 4.711 7.916 3.141 7.916 1.57 7.916 1.57 9.486.013 9.486.013 11.056 1.57 11.056 1.57 12.614 3.141 12.614 4.711 12.614 6.268 12.614 6.281 12.614 7.838 12.614 7.838 14.184 9.409 14.184 9.409 12.614 10.966 12.614 10.966 11.056 10.966 11.043 10.966 9.486 9.409 9.486zM4.711 15.741L3.141 15.741 3.141 17.311 1.57 17.311 1.57 18.869.013 18.869.013 20.439.013 22.009 1.583 22.009 1.583 20.439 3.141 20.439 4.711 20.439 4.711 18.882 6.281 18.882 6.281 17.311 4.711 17.311zM6.268 6.358L7.838 6.358 7.838 4.788 6.281 4.788 6.281 3.231 6.281 3.218 6.281 1.66 7.838 1.66 7.838 3.218 7.838 3.231 7.838 4.788 9.396 4.788 9.409 4.788 10.966 4.788 10.966 3.218 9.409 3.218 9.409 1.66 10.966 1.66 10.966.09 9.409.09 9.396.09 7.838.09 6.268.09 6.268 1.66 4.711 1.66 4.711 3.218 4.711 3.231 4.711 4.788 6.268 4.788zM21.932.09L21.919.09 20.362.09 18.792.09 18.792 1.66 20.362 1.66 20.362 3.231 21.919 3.231 21.919 4.788 20.362 4.788 18.792 4.788 17.234 4.788 17.234 3.218 15.664 3.218 15.664 1.66 15.664 1.66 15.664.09 14.094.09 14.094 1.66 14.094 1.66 14.094 3.231 15.664 3.231 15.664 4.788 14.094 4.788 14.094 6.358 15.664 6.358 17.221 6.358 17.234 6.358 18.792 6.358 18.792 7.916 17.221 7.916 17.221 9.486 15.664 9.486 15.664 7.916 14.107 7.916 14.094 7.916 12.536 7.916 10.966 7.916 10.966 9.486 12.536 9.486 12.536 11.056 14.094 11.056 14.107 11.056 15.664 11.056 17.234 11.056 17.234 9.486 18.792 9.486 18.792 7.928 20.362 7.928 20.362 6.358 21.932 6.358 21.932 4.788 23.489 4.788 23.489 3.231 23.489 3.218 23.489 1.66 23.489 1.66 23.489.09zM21.919 12.614L21.919 14.184 20.362 14.184 20.362 15.741 20.362 15.754 20.362 17.311 20.362 18.882 21.919 18.882 21.932 18.882 23.489 18.882 23.489 17.311 23.489 15.754 23.489 15.741 23.489 14.184 23.489 12.614 23.489 11.043 21.919 11.043z" transform="translate(0 1) translate(136.174) translate(101.294 62.167) translate(20.465 4.634)"/>
                </g>
                <path fill="#FFF" d="M79.954 12.549L79.954 12.549 78.384 12.549 77.097 12.549 76.827 12.549 76.814 12.549 75.269 12.549 75.256 12.549 73.686 12.549 72.412 12.549 72.129 12.549 72.129 10.992 70.558 10.992 69.271 10.992 69.001 10.992 68.988 10.992 67.431 10.992 67.431 10.992 65.86 10.992 65.86 10.992 65.86 9.422 64.303 9.422 64.29 9.422 62.733 9.422 62.733 9.422 62.733 9.422 62.733 7.864 61.175 7.864 61.163 7.864 59.605 7.864 59.605 7.864 59.605 6.294 58.035 6.294 58.035 6.307 56.478 6.307 56.478 6.294 56.478 6.294 56.478 4.724 54.907 4.724 53.62 4.724 53.337 4.724 53.337 3.166 51.78 3.166 51.767 3.166 50.209 3.166 50.209 3.166 50.209 3.166 50.209 1.609 48.652 1.609 48.639 1.609 47.095 1.609 47.095 0.026 40.814 0.026 40.814 0.039 39.256 0.039 37.699 0.039 37.686 0.039 36.129 0.039 34.558 0.039 34.558 1.596 33.001 1.596 31.431 1.596 31.431 3.166 29.873 3.166 29.861 3.166 28.303 3.166 28.303 4.736 26.746 4.736 26.733 4.736 25.176 4.736 25.176 6.307 25.176 6.307 25.176 6.294 23.605 6.294 23.605 6.294 22.035 6.294 22.035 7.864 22.035 7.864 20.992 7.864 20.478 7.864 18.907 7.864 18.907 9.434 17.35 9.434 17.337 9.434 15.78 9.434 15.78 10.992 14.222 10.992 14.209 10.992 12.652 10.992 12.369 10.992 11.082 10.992 9.512 10.992 9.512 12.549 7.954 12.549 7.941 12.549 7.671 12.549 6.384 12.549 4.827 12.549 4.814 12.549 3.256 12.549 3.256 12.549 2.973 12.549 1.686 12.549 0.116 12.549 0.116 14.119 1.686 14.119 2.973 14.119 3.256 14.119 3.256 14.119 4.814 14.119 4.827 14.119 6.384 14.119 7.671 14.119 7.941 14.119 7.954 14.119 9.512 14.119 9.512 14.132 11.082 14.132 12.369 14.132 12.652 14.132 14.209 14.132 14.222 14.132 15.78 14.132 17.067 14.132 17.337 14.132 17.35 14.132 18.907 14.132 20.478 14.132 20.992 14.132 22.035 14.132 22.048 14.132 23.605 14.132 25.176 14.132 26.733 14.132 26.746 14.132 28.303 14.132 29.861 14.132 29.873 14.132 31.431 14.132 33.001 14.132 34.558 14.132 34.571 14.132 36.129 14.132 37.686 14.132 37.699 14.132 39.256 14.132 40.827 14.132 40.827 14.119 45.524 14.119 47.082 14.119 47.095 14.119 48.639 14.119 48.652 14.119 50.209 14.119 51.497 14.119 51.767 14.119 51.78 14.119 53.337 14.119 53.337 14.119 53.62 14.119 54.907 14.119 56.465 14.119 56.478 14.119 56.748 14.119 58.035 14.119 59.605 14.119 59.605 14.119 61.163 14.119 61.175 14.119 62.733 14.119 64.02 14.119 64.29 14.119 64.303 14.119 64.573 14.119 65.86 14.119 67.431 14.119 67.431 14.119 68.988 14.119 69.001 14.119 69.271 14.119 70.558 14.119 72.116 14.119 72.129 14.119 72.412 14.119 73.686 14.119 75.256 14.119 75.269 14.119 76.814 14.119 76.827 14.119 77.097 14.119 78.384 14.119 79.954 14.119 79.954 14.119 81.524 14.119 81.524 12.549z" transform="translate(0 1) translate(136.174) translate(101.294 62.167) translate(0 29.732)"/>
                <path fill="#FFF" d="M20.478 40.724L20.478 39.166 18.907 39.166 18.907 37.596 18.907 36.039 18.907 36.026 18.907 34.468 17.35 34.468 17.35 32.898 17.35 31.341 17.35 31.328 17.35 29.77 15.78 29.77 15.78 28.213 15.78 28.2 15.78 26.643 15.78 25.073 15.78 23.515 15.78 23.502 15.78 21.945 14.222 21.945 14.222 20.388 14.222 20.375 14.222 18.817 14.222 17.247 14.222 15.69 14.222 15.677 14.222 14.119 12.652 14.119 12.652 12.549 11.082 12.549 11.082 14.119 9.512 14.119 9.512 15.677 9.512 15.69 9.512 17.247 9.512 18.817 9.512 20.375 9.512 20.388 9.512 21.945 7.954 21.945 7.954 23.502 7.954 23.515 7.954 25.073 7.954 26.643 7.954 28.2 7.954 28.213 7.954 29.77 6.384 29.77 6.384 31.328 6.384 31.341 6.384 32.898 6.384 34.468 4.827 34.468 4.827 36.026 4.827 36.039 4.827 37.596 4.827 39.166 3.256 39.166 3.256 40.724 1.686 40.724 1.686 42.294 3.256 42.294 4.827 42.294 6.384 42.294 6.397 42.294 7.954 42.294 9.512 42.294 9.524 42.294 11.082 42.294 11.339 42.294 12.652 42.294 14.209 42.294 14.222 42.294 14.493 42.294 15.78 42.294 17.337 42.294 17.35 42.294 18.907 42.294 19.191 42.294 20.478 42.294 22.048 42.294 22.048 40.724z" opacity=".5" transform="translate(0 1) translate(136.174) translate(101.294 62.167)"/>
                <g fill="#FEAF48">
                    <path d="M3.256 14.132L1.686 14.132 1.686 15.703 1.686 17.273 1.686 18.843 3.256 18.843 3.256 17.273 4.814 17.273 4.814 15.703 3.256 15.703zM15.767 15.703H17.337V17.273H15.767zM18.895 15.703H20.465V17.273H18.895zM9.512 6.307L9.512 4.749 7.941 4.749 7.941 6.307 7.941 6.32 7.941 7.877 9.512 7.877 9.512 6.32zM22.035 4.749L20.465 4.749 18.907 4.749 18.907 3.179 17.337 3.179 17.337 4.749 17.337 4.749 17.337 6.307 15.78 6.307 15.78 4.749 15.78 4.749 15.78 3.179 14.209 3.179 12.639 3.179 12.639 4.749 11.069 4.749 11.069 6.32 12.639 6.32 12.639 7.877 11.082 7.877 11.069 7.877 9.512 7.877 9.512 9.447 9.512 9.447 9.512 11.018 11.069 11.018 11.082 11.018 12.639 11.018 14.209 11.018 15.767 11.018 15.78 11.018 17.337 11.018 18.895 11.018 18.907 11.018 20.465 11.018 20.465 9.447 18.907 9.447 18.895 9.447 17.337 9.447 15.78 9.447 15.78 7.877 17.337 7.877 17.337 6.32 18.895 6.32 18.895 7.877 20.465 7.877 22.035 7.877 23.605 7.877 23.605 6.307 22.035 6.307zM23.605.051L23.592.051 22.035.051 20.465.051 20.465 1.622 22.035 1.622 22.035 3.179 23.592 3.179 23.605 3.179 25.163 3.179 25.163 1.622 25.163 1.609 25.163.051zM.116 15.703L.116 17.273 1.686 17.273 1.686 15.703 1.686 14.132.116 14.132z" transform="translate(0 1) translate(136.174) translate(101.294 62.167) translate(18.792 1.545)"/>
                </g>
            </g>
        </g>
    </g>
</svg>
