<svg xmlns="http://www.w3.org/2000/svg" width="734" height="734" viewBox="0 0 734 734">
    <defs>
        <linearGradient id="prefix__b" x1="49.934%" x2="49.934%" y1="100.172%" y2="-.023%">
            <stop offset="0%" stop-color="#FF672A"/>
            <stop offset="100%" stop-color="#1A82FF"/>
        </linearGradient>
        <linearGradient id="prefix__c" x1="67.068%" x2="33.01%" y1="38.199%" y2="61.331%">
            <stop offset="0%" stop-color="#F5156C"/>
            <stop offset="100%" stop-color="#1A82FF"/>
        </linearGradient>
        <linearGradient id="prefix__d" x1="32.948%" x2="67.007%" y1="38.138%" y2="61.27%">
            <stop offset="0%" stop-color="#FFCD40"/>
            <stop offset="100%" stop-color="#1A82FF"/>
        </linearGradient>
        <radialGradient id="prefix__a" cx="50%" cy="50%" r="50%" fx="50%" fy="50%">
            <stop offset="0%" stop-color="#FFF" stop-opacity=".7"/>
            <stop offset="100%" stop-color="#FFF" stop-opacity="0"/>
        </radialGradient>
    </defs>
    <g fill="none" fill-rule="evenodd">
        <circle cx="367" cy="367" r="367" fill="url(#prefix__a)" opacity=".9"/>
        <g fill-rule="nonzero">
            <g transform="translate(140 157) translate(149.828 264.727)">
                <ellipse cx="78.692" cy="78.517" fill="#FF672A" rx="77.304" ry="77.305" transform="rotate(-.428 78.692 78.517)"/>
                <g>
                    <path fill="#FF672A" d="M48.1 112.518c-1.89 0-3.78-1.288-5.412-2.49-.43-.258-.859-.602-1.202-.86-1.804-1.202-13.056-8.846-19.24-13.313-6.27-4.466-7.902-7.816-10.135-17.006-1.117-4.38-10.393-40.455-10.48-40.799l-.085-.258 3.178-9.276-2.577-6.528.344-.43s3.264-3.52 7.129-7.472c1.632-1.718 4.209-2.577 7.472-2.577 2.148 0 4.037.344 4.896.602l9.277-10.737H65.02l9.276 10.737c.86-.172 2.749-.602 4.896-.602 3.264 0 5.84.86 7.473 2.577 3.865 3.951 7.043 7.473 7.129 7.473l.343.43-2.576 6.527 3.178 9.276-.086.258c-.086.344-9.448 36.418-10.48 40.799-2.318 9.19-3.864 12.54-10.134 17.006-6.27 4.467-17.436 12.11-19.24 13.313-.344.258-.773.516-1.203.86-1.717 1.202-3.607 2.49-5.497 2.49z" transform="translate(30.5 24.909)"/>
                    <path fill="#FFF" d="M64.59 2.405l9.363 10.822s2.405-.687 5.24-.687c2.404 0 5.067.516 6.87 2.32 3.866 3.95 7.13 7.472 7.13 7.472l-2.491 6.27 3.178 9.362s-9.448 36.332-10.565 40.799c-2.147 8.76-3.693 12.11-9.878 16.577-6.184 4.466-17.35 12.11-19.24 13.313-1.803 1.202-4.122 3.178-6.184 3.178-2.06 0-4.38-1.976-6.184-3.178-1.803-1.202-13.055-8.847-19.24-13.313-6.184-4.467-7.644-7.816-9.877-16.577-1.117-4.467-10.565-40.799-10.565-40.799l3.178-9.362-2.49-6.27s3.177-3.522 7.128-7.473c1.804-1.803 4.467-2.319 6.872-2.319 2.834 0 5.24.687 5.24.687l9.361-10.822h33.155m.773-1.718H30.92l-.515.601-8.675 10.05c-1.031-.258-2.749-.516-4.639-.516-3.521 0-6.27.945-8.16 2.835-3.864 3.95-7.128 7.472-7.128 7.472l-.687.773.43 1.031 2.318 5.669-3.006 8.76-.172.516.172.516c.086.343 9.448 36.418 10.479 40.798 2.147 8.675 3.693 12.626 10.478 17.522 6.27 4.466 17.437 12.197 19.326 13.313.344.258.773.516 1.203.773 1.803 1.203 3.779 2.577 5.926 2.577 2.147 0 4.123-1.374 5.927-2.577.43-.257.859-.6 1.202-.773 1.804-1.202 13.056-8.847 19.326-13.313 6.785-4.896 8.331-8.847 10.479-17.522 1.116-4.38 10.392-40.369 10.478-40.798l.172-.516-.172-.515-3.006-8.761 2.32-5.669.429-1.03-.687-.774s-3.264-3.521-7.13-7.472c-1.803-1.89-4.552-2.835-8.16-2.835-1.889 0-3.607.258-4.637.516l-8.675-10.05-.773-.6z" transform="translate(30.5 24.909)"/>
                    <path fill="#FFF" d="M48.1 70.431c.6 0 4.638 1.46 7.901 3.178 3.264 1.718 5.583 2.92 6.27 3.35.774.515.258 1.374-.429 1.89-.687.515-9.792 7.73-10.736 8.503-.86.773-2.234 2.147-3.093 2.147-.858 0-2.233-1.288-3.092-2.147-.859-.773-10.049-7.988-10.736-8.503-.687-.516-1.117-1.375-.43-1.89.773-.515 3.093-1.718 6.27-3.35 3.436-1.804 7.473-3.178 8.074-3.178zm.085-51.363c.344 0 2.062.086 4.553.945 2.748.945 5.754 2.061 7.129 2.061 1.374 0 11.509-1.975 11.509-1.975s12.025 14.859 12.025 18.037c0 3.178-1.546 4.037-3.006 5.669-1.546 1.632-8.16 8.847-9.019 9.791-.859.945-2.663 2.32-1.632 4.896 1.03 2.491 2.577 5.755.859 9.019-1.718 3.264-4.638 5.411-6.528 5.067-1.89-.343-6.356-2.748-7.988-3.779-1.632-1.116-6.785-5.41-6.785-7.043 0-1.632 5.325-4.638 6.356-5.325.945-.687 5.497-3.264 5.583-4.295.086-1.03.086-1.288-1.289-3.865-1.288-2.577-3.693-5.926-3.35-8.16.43-2.233 4.295-3.435 7.044-4.466 2.748-1.03 8.074-3.092 8.675-3.35.687-.343.515-.601-1.546-.773-1.976-.172-7.73-.945-10.221-.257-2.577.687-6.958 1.803-7.301 2.405-.344.6-.687.6-.344 2.662.344 2.062 2.233 11.767 2.405 13.485.172 1.718.516 2.835-1.288 3.264-1.804.43-4.896 1.203-5.927 1.203-1.03 0-4.122-.773-5.926-1.203-1.804-.43-1.46-1.546-1.289-3.264.172-1.718 2.062-11.423 2.405-13.485.344-2.061.086-2.061-.343-2.662-.344-.602-4.724-1.718-7.3-2.405-2.578-.688-8.247 0-10.222.257-1.976.172-2.147.516-1.546.773.687.344 5.926 2.32 8.675 3.35 2.748 1.03 6.614 2.233 7.043 4.466.43 2.234-1.975 5.67-3.35 8.16-1.288 2.577-1.374 2.835-1.288 3.865.086 1.031 4.552 3.694 5.583 4.295.945.687 6.356 3.693 6.356 5.325 0 1.632-5.154 6.013-6.786 7.043-1.632 1.117-6.098 3.436-7.988 3.78-1.89.343-4.81-1.804-6.527-5.068-1.718-3.264-.172-6.442.859-9.019 1.03-2.49-.773-3.95-1.632-4.896-.86-.944-7.559-8.16-9.019-9.791-1.546-1.632-3.006-2.491-3.006-5.67 0-3.177 12.025-18.036 12.025-18.036s10.22 1.975 11.51 1.975c1.373 0 4.38-1.202 7.128-2.061 2.491-.86 4.209-.945 4.552-.945h.172z" transform="translate(30.5 24.909)"/>
                </g>
            </g>
            <g transform="translate(140 157) translate(148.91 91.92)">
                <ellipse cx="78.787" cy="78.151" fill="#1A82FF" rx="77.399" ry="76.949" transform="rotate(-.428 78.787 78.151)"/>
                <path fill="#FFF" d="M112.655 56.342l-13.33 13.423c.516 2.65.86 5.557.86 8.635.086 16.843-7.74 27.017-21.155 27.102-5.59 0-10.32-1.71-13.845-5.044l46.094-46.51c-1.29-2.223-2.666-4.19-4.3-6.07-.688-.77-1.376-1.54-2.15-2.223l-.258-.257c-.258-.17-.43-.427-.602-.598-6.793-6.241-15.48-9.405-25.455-9.405-11.523.086-21.24 4.532-28.292 12.91-6.536 7.866-10.148 18.724-10.062 30.608.086 7.866 1.72 15.304 4.816 21.63L58.39 87.035c-.516-2.565-.774-5.3-.774-8.293-.086-7.78 1.462-14.021 4.558-18.724 3.612-5.472 9.288-8.378 16.425-8.378 5.504 0 10.148 1.624 13.674 4.873l-46.008 46.424c1.29 2.309 2.752 4.446 4.472 6.327.344.427.688.77 1.032 1.111.43.428.774.855 1.204 1.283l.172.17c.172.086.258.257.43.428 6.793 6.327 15.565 9.661 25.626 9.576 11.524-.086 21.327-4.531 28.293-12.91 6.622-7.866 10.234-18.724 10.148-30.608-.086-8.036-1.806-15.56-4.988-21.972z"/>
            </g>
            <g transform="translate(140 157) translate(0 4.596)">
                <path fill="#DB4437" d="M12.874 35.875v59.22h34.501l30.383-52.612h68.745C133.716 17.508 107.796.43 77.758.43 50.55.43 26.606 14.59 12.874 35.875z"/>
                <path fill="#0F9D58" d="M108.14 95.094H47.375l-34.501-59.22C5.15 47.89.6 62.225.6 77.587c0 41.368 32.613 75.097 73.466 77.07l34.073-59.562z"/>
                <path fill="#FFCD40" d="M77.758 42.483l30.382 52.611-33.987 59.477c1.201.086 2.403.086 3.69.086 42.57 0 77.157-34.502 77.157-77.157 0-12.616-3.004-24.546-8.41-35.017H77.757z"/>
                <circle cx="77.758" cy="77.586" r="35.017" fill="#F1F1F1"/>
                <circle cx="77.758" cy="77.586" r="28.065" fill="#4285F4"/>
            </g>
            <path fill="url(#prefix__b)" d="M198.545 241.747c6.27 2.301 10.736 8.18 10.736 15.167s-4.466 12.951-10.736 15.167h58.829c-6.27-2.3-10.735-8.18-10.735-15.167s4.465-12.951 10.735-15.167h-58.829z" transform="translate(140 157)"/>
            <g>
                <path fill="#FF672A" d="M148.848 53.798c-3.346-8.04-10.124-16.678-15.443-19.415 3.775 7.355 6.435 15.224 7.807 23.35v.17c-8.75-21.639-23.506-30.363-35.517-49.436-.6-.94-1.201-1.967-1.802-2.908-.343-.598-.6-1.111-.858-1.625-.514-.94-.858-1.967-1.115-3.079 0-.085-.086-.17-.172-.17h-.171-.086V.598c-19.389 11.29-25.909 32.244-26.51 42.679-7.72.513-15.099 3.335-21.19 8.125-.6-.513-1.287-1.026-1.973-1.54-1.716-6.158-1.802-12.572-.257-18.816-7.121 3.421-13.384 8.296-18.531 14.283-3.089-3.848-2.831-16.592-2.66-19.244-.944.342-1.802.856-2.574 1.369-2.66 1.881-5.233 4.105-7.55 6.415-2.659 2.65-5.06 5.559-7.206 8.638C8.064 49.521 4.547 57.39 2.66 65.772l-.086.513c-.172.684-.687 4.02-.772 4.79v.17C1.115 74.753.686 78.26.515 81.852v.428c0 42.422 34.574 76.805 77.126 76.805 37.49 0 69.491-26.942 75.925-63.805.172-1.026.258-1.967.343-2.993 1.459-13-.257-26.258-5.061-38.488zm-88.88 60.127l1.03.513h.085c-.343-.171-.686-.342-1.115-.513z" transform="translate(140 157) translate(300.576)"/>
                <path fill="#F5156C" d="M148.848 53.798c-3.346-8.04-10.124-16.678-15.443-19.415 3.775 7.355 6.435 15.224 7.807 23.35v.17c5.92 16.935 5.062 35.495-2.402 51.83-8.836 18.903-30.198 38.232-63.657 37.292-36.204-1.027-68.032-27.797-73.952-62.779-1.115-5.56 0-8.296.515-12.83C.944 74.924.6 78.43.515 82.023v.428c0 42.422 34.574 76.805 77.126 76.805 37.49 0 69.491-26.942 75.925-63.805.172-1.026.258-1.967.343-2.993 1.459-13.172-.257-26.429-5.061-38.66z" transform="translate(140 157) translate(300.576)"/>
                <path fill="#FFF44F" d="M111.357 62.778c.172.086.343.257.515.342-1.973-3.42-4.376-6.585-7.12-9.322-23.937-23.863-6.264-51.83-3.261-53.2V.514c-19.389 11.29-25.909 32.245-26.51 42.68.858-.086 1.802-.172 2.746-.172 13.812.171 26.767 7.698 33.63 19.757z" transform="translate(140 157) translate(300.576)"/>
                <path fill="#5C79F0" d="M77.641 67.568c-.086 1.882-6.863 8.467-9.265 8.467-21.877 0-25.48 13.257-25.48 13.257.943 11.12 8.75 20.27 18.187 25.146.43.257.858.428 1.287.599.772.342 1.544.598 2.23.94 3.26 1.112 6.607 1.797 10.038 1.968 38.435 1.796 45.813-45.758 18.102-59.614 6.52-.855 13.126.77 18.617 4.533-6.863-12.145-19.818-19.672-33.802-19.672-.943 0-1.801.086-2.745.171-7.721.513-15.1 3.336-21.19 8.126 1.2 1.026 2.487 2.309 5.319 5.046 5.233 5.131 18.702 10.434 18.702 11.033z" transform="translate(140 157) translate(300.576)"/>
                <path fill="#FF672A" d="M50.102 48.923c.6.427 1.115.77 1.63 1.026-1.716-6.158-1.801-12.573-.257-18.816-7.12 3.42-13.384 8.296-18.531 14.283.343 0 11.496-.171 17.158 3.507z" transform="translate(140 157) translate(300.576)"/>
                <path fill="#FFAF1E" d="M104.665 53.883c2.831 2.737 5.234 5.902 7.121 9.323.429.342.858.599 1.115.94 17.502 16.08 8.322 38.745 7.636 40.37 14.155-11.631 23.25-28.908 20.504-46.698-8.75-21.64-23.507-30.363-35.604-49.436-.6-.941-1.2-1.967-1.801-2.908-.343-.599-.6-1.112-.858-1.625-.515-.941-.858-1.967-1.115-3.08 0-.085-.086-.17-.172-.17h-.172-.085c-2.831 1.454-20.504 29.336 3.431 53.284z" transform="translate(140 157) translate(300.576)"/>
                <path fill="#FFAF1E" d="M112.987 64.147c-.343-.342-.772-.599-1.115-.941-.172-.086-.343-.257-.515-.342-5.405-3.763-12.01-5.388-18.617-4.533 27.71 13.856 20.247 61.41-18.102 59.614-3.431-.171-6.777-.77-10.037-1.968-.772-.256-1.544-.598-2.23-.94-.43-.171-.859-.428-1.288-.6h.086c5.32 3.679 31.829 12.574 59.453-9.92l.086-.086c.6-1.54 9.78-24.29-7.72-40.284z" transform="translate(140 157) translate(300.576)"/>
                <path fill="#FFAF1E" d="M42.896 89.292s3.517-13.257 25.48-13.257c2.402 0 9.18-6.585 9.265-8.467-9.437 3.421-19.818 2.993-28.912-1.112-9.008-4.533-19.732-4.105-28.31 1.112 3.26 7.099 10.466 11.546 18.273 11.46-1.459 12.574 5.233 27.2 21.362 34.897l1.03.513c-9.438-4.875-17.245-14.027-18.188-25.146z" transform="translate(140 157) translate(300.576)"/>
            </g>
            <path fill="url(#prefix__c)" d="M304.295 159.94c-1.12-6.524 1.809-13.391 7.924-16.91 6.115-3.52 13.608-2.662 18.69 1.63l-29.456-50.902c1.12 6.523-1.81 13.39-7.924 16.91-6.116 3.52-13.609 2.66-18.69-1.631l29.456 50.902z" transform="translate(140 157)"/>
            <path fill="url(#prefix__d)" d="M151.624 159.94c1.12-6.524-1.808-13.391-7.924-16.91-6.115-3.52-13.608-2.662-18.69 1.63l29.457-50.902c-1.12 6.523 1.808 13.39 7.924 16.91 6.115 3.52 13.608 2.66 18.69-1.631l-29.457 50.902z" transform="translate(140 157)"/>
        </g>
    </g>
</svg>
