<svg xmlns="http://www.w3.org/2000/svg" width="50" height="50" viewBox="0 0 50 50">
    <path fill="#007CFF" fill-rule="evenodd" d="M25 0c13.806 0 25 11.194 25 25S38.806 50 25 50 0 38.806 0 25 11.194 0 25 0zm1.11 14.04l-3.174 3.172a9.245 9.245 0 0 1 4.094.622l1.436-1.436a3.635 3.635 0 0 1 5.135 0 3.635 3.635 0 0 1 0 5.135l-4.664 4.664a3.637 3.637 0 0 1-5.134 0 3.844 3.844 0 0 1-.788-1.139l-2.434 2.432c.257.388.52.723.862 1.063.88.88 2.001 1.536 3.29 1.847a6.98 6.98 0 0 0 4.998-.668 6.95 6.95 0 0 0 1.563-1.18l4.664-4.662a6.965 6.965 0 1 0-9.849-9.85zm-7.407 7.405L14.04 26.11a6.967 6.967 0 0 0 9.852 9.85l3.173-3.172a9.23 9.23 0 0 1-4.094-.624l-1.44 1.438a3.633 3.633 0 0 1-5.133 0 3.635 3.635 0 0 1 0-5.135l4.662-4.665a3.616 3.616 0 0 1 1.77-.972 3.668 3.668 0 0 1 4.153 2.111l2.433-2.432c-2.011-3.049-6.02-3.965-9.15-2.242a6.977 6.977 0 0 0-1.563 1.178z"/>
</svg>
