<svg xmlns="http://www.w3.org/2000/svg" width="50" height="50" viewBox="0 0 50 50">
    <path fill="#007CFF" fill-rule="evenodd" d="M37.637 20.094c.382 8.416-5.895 17.8-17.01 17.8-3.38 0-6.52-.992-9.169-2.69a12.03 12.03 0 0 0 8.859-2.477 6.002 6.002 0 0 1-5.594-4.156 6.04 6.04 0 0 0 2.706-.1c-2.879-.581-4.866-3.173-4.8-5.946.809.448 1.73.717 2.708.748a5.994 5.994 0 0 1-1.85-7.99 16.981 16.981 0 0 0 12.334 6.252c-.873-3.741 1.964-7.348 5.831-7.348 1.717 0 3.273.728 4.367 1.89a11.954 11.954 0 0 0 3.8-1.452 6.003 6.003 0 0 1-2.634 3.31 11.951 11.951 0 0 0 3.438-.943 12.045 12.045 0 0 1-2.986 3.102M25 0C11.194 0 0 11.194 0 25s11.194 25 25 25 25-11.194 25-25S38.806 0 25 0"/>
</svg>
