<svg xmlns="http://www.w3.org/2000/svg" xmlns:xlink="http://www.w3.org/1999/xlink" width="920" height="534" viewBox="0 0 920 534">
    <defs>
        <path id="a" d="M.26.517h130.836v57.42H.26z"/>
        <path id="c" d="M.478.328h100.268v39.458H.478z"/>
        <path id="e" d="M.643.328H100.91v39.458H.643z"/>
        <path id="g" d="M.887.654h12.066v69.384H.887z"/>
        <path id="h" d="M.352.164h81.62V57.03H.351z"/>
        <path id="j" d="M.275.536H93.63v51.955H.275z"/>
        <path id="l" d="M.792.352h29.433v20.377H.792z"/>
        <path id="n" d="M.64.499h33.68v20.23H.64z"/>
        <path id="p" d="M.486.172h21.939v14.205H.485z"/>
        <path id="r" d="M.04.011h149.262V60.66H.04z"/>
        <path id="t" d="M.04.425h44.248v42.084H.04z"/>
        <path id="v" d="M.887.696h18.77v57.889H.887z"/>
    </defs>
    <g fill="none" fill-rule="evenodd">
        <path fill="#1A82FF" d="M350.73 230.577c-26.931 0-52.014-5.92-70.63-16.669-16.34-9.434-25.347-21.22-25.362-33.187-.013-11.959 9.408-24.264 25.848-33.754 18.932-10.93 44.332-16.95 71.523-16.95 26.928 0 52.013 5.92 70.63 16.67 16.34 9.434 25.346 21.218 25.359 33.184.015 11.961-9.406 24.263-25.845 33.756-18.933 10.93-44.335 16.95-71.524 16.95"/>
        <path stroke="#FFF" stroke-dasharray="0,9.278" stroke-linecap="round" stroke-linejoin="round" stroke-width="2.801" d="M350.73 230.577c-26.931 0-52.014-5.92-70.63-16.669-16.34-9.434-25.347-21.22-25.362-33.187-.013-11.959 9.408-24.264 25.848-33.754 18.932-10.93 44.332-16.95 71.523-16.95 26.928 0 52.013 5.92 70.63 16.67 16.34 9.434 25.346 21.218 25.359 33.184.015 11.961-9.406 24.263-25.845 33.756-18.933 10.93-44.335 16.95-71.524 16.95z"/>
        <g transform="translate(395.574 460.099)">
            <mask id="b" fill="#fff">
                <use xlink:href="#a"/>
            </mask>
            <path stroke="#FFF" stroke-dasharray="0,9.521000000000001" stroke-linecap="round" stroke-linejoin="round" stroke-width="2.801" d="M131.096 76.323L.259.517" mask="url(#b)"/>
        </g>
        <path stroke="#FFF" stroke-linecap="round" stroke-linejoin="round" stroke-width="2.801" d="M392.096 458.45"/>
        <g transform="translate(683.25 478.249)">
            <mask id="d" fill="#fff">
                <use xlink:href="#c"/>
            </mask>
            <path stroke="#FFF" stroke-dasharray="0,9.449999999999999" stroke-linecap="round" stroke-linejoin="round" stroke-width="2.801" d="M.478 58.217L100.746.328" mask="url(#d)"/>
        </g>
        <path stroke="#FFF" stroke-linecap="round" stroke-linejoin="round" stroke-width="2.801" d="M787.709 476.432"/>
        <g transform="translate(175.961 478.249)">
            <mask id="f" fill="#fff">
                <use xlink:href="#e"/>
            </mask>
            <path stroke="#FFF" stroke-dasharray="0,9.449999999999999" stroke-linecap="round" stroke-linejoin="round" stroke-width="2.801" d="M.643 58.217L100.91.328" mask="url(#f)"/>
        </g>
        <path stroke="#FFF" stroke-linecap="round" stroke-linejoin="round" stroke-width="2.801" d="M554.197 289.319"/>
        <path stroke="#FFF" stroke-dasharray="0,9.286" stroke-linecap="round" stroke-linejoin="round" stroke-width="2.801" d="M546.893 285.114L426.391 215.73"/>
        <path stroke="#FFF" stroke-linecap="round" stroke-linejoin="round" stroke-width="2.801" d="M675.551 278.409"/>
        <path stroke="#FFF" stroke-dasharray="0,9.343999999999999" stroke-linecap="round" stroke-linejoin="round" stroke-width="2.801" d="M682.896 274.171l113.845-65.685"/>
        <path stroke="#FFF" stroke-linecap="round" stroke-linejoin="round" stroke-width="2.801" d="M534.147 345.17"/>
        <path stroke="#FFF" stroke-dasharray="0,9.449999999999999" stroke-linecap="round" stroke-linejoin="round" stroke-width="2.801" d="M526.72 349.459l-100.267 57.889"/>
        <path stroke="#FFF" stroke-linecap="round" stroke-linejoin="round" stroke-width="2.801" d="M633.455 319.512"/>
        <path stroke="#FFF" stroke-dasharray="0,9.371" stroke-linecap="round" stroke-linejoin="round" stroke-width="2.801" d="M640.801 323.797l143.235 83.552"/>
        <path stroke="#FFF" stroke-linecap="round" stroke-linejoin="round" stroke-width="2.801" d="M168.691 277.949"/>
        <path stroke="#FFF" stroke-dasharray="0,9.449999999999999" stroke-linecap="round" stroke-linejoin="round" stroke-width="2.801" d="M176.118 273.661l100.267-57.889"/>
        <path stroke="#FFF" stroke-linecap="round" stroke-linejoin="round" stroke-width="2.801" d="M168.691 345.17"/>
        <path stroke="#FFF" stroke-dasharray="0,9.449999999999999" stroke-linecap="round" stroke-linejoin="round" stroke-width="2.801" d="M176.118 349.459l100.267 57.889"/>
        <path stroke="#FFF" stroke-linecap="round" stroke-linejoin="round" stroke-width="2.801" d="M280.099 409.491"/>
        <g transform="translate(583.426 461.006)">
            <mask id="i" fill="#fff">
                <use xlink:href="#h"/>
            </mask>
            <path fill="#40A0FF" d="M67.56 94.504s-12.283 7.88-12.283 22.711c0 9.039 4.983 11.357 9.039 11.357 8.69 0 16.454-16.223 16.454-23.407V97.98S91.662 43.056 47.86 9.684C22.717-9.474.352 6.207.352 6.207S20.4-.282 40.677 17.795c18.667 16.64 35.921 41.252 26.883 76.71" mask="url(#i)"/>
        </g>
        <g transform="translate(559.83 465.544)">
            <mask id="k" fill="#fff">
                <use xlink:href="#j"/>
            </mask>
            <path fill="#0B6CCE" d="M17.922 32.57c0-7.726 21.166-39.861 46.35-16.686 39.242 36.112 24.875 73.542 24.875 73.542-5.099 4.172-12.515 12.052-12.515 22.866 0 10.816 5.253 11.742 5.253 11.742h6.026c-4.056 0-9.04-2.318-9.04-11.356 0-14.831 12.284-22.711 12.284-22.711 9.038-35.458-8.216-60.069-26.883-76.71C43.993-4.819 23.948 1.67 23.948 1.67s-30.9 10.97-22.094 61.646L17.922 32.57z" mask="url(#k)"/>
        </g>
        <g transform="translate(560.738 497.306)">
            <mask id="m" fill="#fff">
                <use xlink:href="#l"/>
            </mask>
            <path fill="#2E3F53" d="M24.873.584c-.464-.154-3.53-.533-8.322.223C8.187 2.13.792 4.98.792 28.927c0 20.48 17.767 21.63 20.24 21.63 2.471 0 7.415-.308 8.96-2.626 1.545-2.319-5.12-47.347-5.12-47.347" mask="url(#m)"/>
        </g>
        <g transform="translate(567.998 497.306)">
            <mask id="o" fill="#fff">
                <use xlink:href="#n"/>
            </mask>
            <path fill="#6F8294" d="M16.862.499c7.416 0 17.458 6.026 17.458 26.11 0 20.085-10.815 22.712-15.45 22.712-4.636 0-18.23-6.18-18.23-25.647S13.153.499 16.861.499" mask="url(#o)"/>
        </g>
        <g transform="translate(575.258 503.659)">
            <mask id="q" fill="#fff">
                <use xlink:href="#p"/>
            </mask>
            <path fill="#2E3F53" d="M9.756.172c8.476 0 12.669 8.343 12.669 17.458 0 9.115-2.781 18.695-8.343 18.695-9.446 0-13.596-9.116-13.596-18.077C.486 9.287 3.09.172 9.756.172" mask="url(#q)"/>
        </g>
        <path fill="#1A82FF" d="M97.654 361.84c-26.931 0-52.013-5.92-70.63-16.67-16.34-9.433-25.347-21.219-25.362-33.187-.013-11.959 9.409-24.263 25.848-33.754 18.932-10.93 44.332-16.95 71.523-16.95 26.928 0 52.013 5.92 70.63 16.67 16.34 9.434 25.347 21.219 25.36 33.184.015 11.962-9.406 24.264-25.846 33.757-18.932 10.93-44.334 16.95-71.523 16.95"/>
        <path stroke="#FFF" stroke-dasharray="0,9.278" stroke-linecap="round" stroke-linejoin="round" stroke-width="2.801" d="M97.654 361.84c-26.931 0-52.013-5.92-70.63-16.67-16.34-9.433-25.347-21.219-25.362-33.187-.013-11.959 9.409-24.263 25.848-33.754 18.932-10.93 44.332-16.95 71.523-16.95 26.928 0 52.013 5.92 70.63 16.67 16.34 9.434 25.347 21.219 25.36 33.184.015 11.962-9.406 24.264-25.846 33.757-18.932 10.93-44.334 16.95-71.523 16.95z"/>
        <path fill="#1A82FF" d="M844.452 490.18c-26.93 0-52.013-5.92-70.63-16.669-16.34-9.434-25.347-21.22-25.362-33.187-.013-11.96 9.409-24.263 25.848-33.754 18.932-10.93 44.332-16.95 71.524-16.95 26.927 0 52.012 5.92 70.63 16.67 16.339 9.434 25.346 21.219 25.359 33.184.016 11.962-9.406 24.264-25.846 33.756-18.931 10.93-44.335 16.95-71.523 16.95"/>
        <path stroke="#FFF" stroke-dasharray="0,9.278" stroke-linecap="round" stroke-linejoin="round" stroke-width="2.801" d="M844.452 490.18c-26.93 0-52.013-5.92-70.63-16.669-16.34-9.434-25.347-21.22-25.362-33.187-.013-11.96 9.409-24.263 25.848-33.754 18.932-10.93 44.332-16.95 71.524-16.95 26.927 0 52.012 5.92 70.63 16.67 16.339 9.434 25.346 21.219 25.359 33.184.016 11.962-9.406 24.264-25.846 33.756-18.931 10.93-44.335 16.95-71.523 16.95z"/>
        <path fill="#111D28" fill-opacity=".2" d="M389.43 196.82l-17.095-9.87c.029-.281.043-.563.041-.845-.019-3.606-2.422-7.218-7.202-9.978-5.38-3.105-12.621-4.472-19.62-4.098l-17.35-10.018a2.299 2.299 0 0 0-2.302 0l-18.424 10.636c-1.535.886-1.535 3.103 0 3.99l16.08 9.283v.097c.019 3.606 2.422 7.217 7.202 9.978 5.143 2.968 11.99 4.347 18.698 4.134.177.232.402.437.68.597l18.567 10.72c.713.41 1.59.41 2.303 0l18.423-10.637c1.535-.887 1.535-3.102 0-3.988"/>
        <path fill="#5028CE" d="M319.965 177.21c.548 0 9.668-4.44 14.774-7.796.98-.644 1.441-2.395-.039-3.554-4.838-3.791-15.17-13.349-15.17-25.839 0-16.311 9.908-8.582 9.908-8.582l-4.47-13.384-15.224 5.872-7.83 4.566-1.305 14.355 5.873 18.268 13.483 16.093z"/>
        <path fill="#6E3BEA" d="M316.529 121.142c-.327.11-18.269-2.61-18.269 17.508 0 20.116 15.768 34.688 18.051 37.188 2.284 2.501 6.634 2.066 3.263-1.958-3.372-4.022-17.181-17.288-17.181-35.34 0-18.05 12.94-12.722 12.94-12.722l1.196-4.676z"/>
        <path fill="#7A54EF" d="M300.327 128.428s10.696-15.81 27.402-16.855c6.96-.434 12.07 3.262 12.07 3.262l-15.223 8.845s-15.224-3.515-24.25 4.748"/>
        <path fill="#6F8294" d="M323.557 127.885v9.529-.09c.02 3.608 2.422 7.219 7.204 9.978 9.562 5.522 25.018 5.55 34.52.064 4.752-2.743 7.115-6.345 7.096-9.952v-9.53h-48.82z"/>
        <path fill="#8C9DAA" d="M330.653 117.845c9.502-5.487 24.958-5.459 34.52.061 4.781 2.761 7.184 6.373 7.204 9.978.02 3.608-2.345 7.21-7.096 9.953-9.503 5.487-24.958 5.46-34.52-.062-4.781-2.76-7.184-6.371-7.204-9.978-.02-3.607 2.344-7.21 7.096-9.952"/>
        <path fill="#6F8294" d="M362.795 134.706c-8.138 4.7-21.375 4.675-29.564-.053-4.095-2.364-6.153-5.457-6.17-8.546-.016-3.09 2.008-6.174 6.077-8.523 8.139-4.7 21.376-4.676 29.565.052 4.094 2.365 6.153 5.458 6.169 8.546.017 3.09-2.007 6.175-6.077 8.524m.657-17.215c-8.605-4.969-22.515-4.994-31.068-.055-4.276 2.467-6.403 5.71-6.386 8.957.018 3.245 2.18 6.494 6.483 8.98 8.606 4.968 22.516 4.993 31.068.055 4.277-2.469 6.404-5.71 6.387-8.956-.018-3.247-2.18-6.496-6.484-8.981M371.769 125.637c.217.072 8.046 4.93 8.917 6.162.87 1.232.434 4.857.434 4.857l-.507 4.422-8.337-1.595-.507-13.846z"/>
        <path fill="#576A7A" d="M371.696 130.64s5.147 1.812 7.104 3.479c1.957 1.668 2.32 2.537 2.32 2.537l-.508 4.422-8.336-1.595-.58-8.844z"/>
        <path fill="#6F8294" d="M342.699 113.603s-2.683-1.812-5.075-2.174c-2.392-.363-3.624-.436-5.364.435 0 0 5.655 1.014 7.54 2.97l2.899-1.23z"/>
        <path fill="#5028CE" d="M375.966 179.71s-6.916-1.37-9.2-1.153c-2.283.218-14.788 7.829-16.854 10.113-2.066 2.283 4.023 1.63 4.023 1.63l19.03-5.11 3.001-5.48z"/>
        <path fill="#7A54EF" d="M359.155 141.912s5.11-.109 9.243-3.697c4.132-3.588 3.37-5.111 4.458-5.547 1.087-.434 23.053 10.222 23.053 34.906 0 16.746-31.209 24.358-31.209 24.358s15.116-2.719 15.116-15.006c0-12.288-8.047-28.816-20.661-35.014"/>
        <path fill="#6E3BEA" d="M364.7 191.932s15.116-2.719 15.116-15.006c0-12.288-8.047-28.816-20.661-35.014v6.524s16.202 8.374 16.202 28.49c0 13.049-21.095 11.091-23.487 11.091-2.393 0-5.325 4.14-.327 4.35 5.448.229 7.95.446 13.158-.435"/>
        <path fill="#6F8294" d="M324.576 123.68s-5.22-2.972-6.96-2.538c-1.74.436-2.392 5.945-1.594 7.54.796 1.595 7.394 7.032 7.394 7.032l.652-6.887.508-5.147zM362.925 155.794l-9.714-4.857s-1.596-5.364-1.378-6.451c.218-1.088 5.51-3.843 5.51-3.843s6.952 5.041 7.466 7.322c.072.317.124.627.16.932.46 4.015-2.044 6.897-2.044 6.897"/>
        <path fill="#576A7A" d="M365.01 149.427a4.279 4.279 0 0 0-.49-.955c-.653-.942-.726 4.278-2.32 5.075-1.219.61-3.535-.05-4.562-.395l5.286 2.642s2.285-2.63 2.086-6.367"/>
        <path fill="#D4E3EB" d="M362.703 119.594c-8.19-4.728-21.426-4.751-29.564-.053-3.624 2.091-5.624 4.766-6.008 7.508.388 2.77 2.421 5.48 6.1 7.604 8.19 4.728 21.426 4.752 29.565.053 3.622-2.091 5.623-4.767 6.006-7.508-.387-2.769-2.42-5.48-6.099-7.604"/>
        <path fill="#231F20" d="M358.81 135.349c0 .211.142.423.422.586.562.324 1.468.325 2.026.003.28-.161.418-.373.417-.584 0-.212-.143-.424-.423-.586-.56-.324-1.468-.326-2.026-.004-.279.16-.418.373-.417.585m-8.047 2.681c.001.212.143.425.423.586.562.324 1.47.326 2.027.004.28-.16.417-.373.416-.584 0-.212-.141-.424-.423-.587-.56-.323-1.468-.324-2.026-.002-.279.16-.418.372-.417.583m-8.844.073c.002.212.142.424.423.586.562.324 1.47.326 2.027.004.279-.16.418-.373.417-.585-.002-.211-.143-.424-.423-.585-.562-.325-1.47-.327-2.028-.004-.278.16-.417.372-.416.584m-8.191-2.754c0 .211.141.423.423.586.56.324 1.468.325 2.026.003.279-.161.418-.373.417-.584-.001-.212-.143-.424-.423-.586-.562-.324-1.47-.326-2.027-.004-.28.16-.418.373-.416.585m-4.713-4.495c.001.211.143.424.423.585.562.325 1.47.327 2.027.004.28-.16.418-.372.416-.584 0-.212-.141-.424-.423-.586-.56-.324-1.468-.326-2.026-.004-.279.162-.418.372-.417.585m-.218-5.364c.002.211.143.423.424.585.561.325 1.469.327 2.027.004.278-.162.417-.373.416-.584-.002-.212-.142-.424-.423-.586-.561-.324-1.469-.326-2.026-.004-.28.16-.418.372-.418.585m4.858-4.786c.001.213.143.424.423.587.561.324 1.469.325 2.027.003.278-.16.417-.372.416-.584 0-.212-.142-.424-.423-.586-.561-.324-1.469-.326-2.026-.003-.28.16-.418.372-.417.583m30.012 9.787c.002.212.142.424.423.586.562.324 1.47.326 2.027.004.279-.161.418-.372.416-.585-.001-.211-.142-.423-.423-.585-.56-.325-1.468-.327-2.026-.004-.279.162-.418.372-.417.584m-.217-5.364c.001.212.142.423.423.586.56.324 1.468.326 2.026.003.279-.161.418-.372.417-.584 0-.211-.142-.424-.423-.585-.562-.325-1.47-.327-2.026-.004-.28.16-.419.372-.417.584m-4.712-4.495c0 .212.142.424.422.586.562.324 1.47.326 2.027.005.28-.162.418-.374.416-.586 0-.211-.141-.424-.423-.585-.56-.324-1.468-.326-2.026-.004-.279.16-.417.373-.416.584m-7.902-2.61c0 .213.142.425.423.587.562.323 1.468.325 2.026.004.279-.162.419-.374.417-.586-.001-.21-.143-.424-.423-.585-.56-.324-1.468-.326-2.026-.004-.28.16-.418.373-.417.585m-8.933-.605c.558-.32 1.465-.32 2.026.004.28.162.422.374.423.586.002.212-.137.423-.417.584-.558.323-1.464.321-2.026-.004-.28-.161-.422-.374-.423-.585 0-.213.138-.423.417-.585"/>
        <path fill="#192A32" d="M344.608 127.558l-8.723-4.024s-.653-.217-.326-.87c.326-.65 1.413-.543 1.413-.543l8.55 2.93-.914 2.507zM349.964 125.06s5.059-3.808 6.037-2.939c.98.87-5.11 4.223-5.11 4.223l-.927-1.284z"/>
        <path fill="#192A32" d="M344.608 126.344v1.226-.012c.003.465.312.928.927 1.284 1.23.71 3.22.714 4.443.008.61-.353.916-.817.913-1.28v-1.226h-6.283z"/>
        <path fill="#48636F" d="M345.521 125.052c1.224-.706 3.212-.703 4.443.008.615.355.924.82.927 1.284.002.464-.302.926-.914 1.28-1.222.706-3.212.702-4.442-.008-.615-.355-.924-.82-.927-1.284-.002-.465.302-.927.913-1.28"/>
        <path fill="#FFF" d="M329.437 131.44s10.253-6.165 18.083-9.536c7.83-3.372 14.027-5.111 14.027-5.111l-6.416-2.066s-5.98 1.74-12.07 4.567c-6.09 2.826-16.093 8.482-16.093 8.482l2.47 3.663z"/>
        <path fill="#FFF" d="M333.932 135.282s10.253-6.165 18.083-9.537c7.829-3.37 14.636-5.298 14.636-5.298l-3.948-2.81s-9.058 2.672-15.147 5.498c-6.09 2.828-17.804 9.346-17.804 9.346l4.18 2.801z"/>
        <path fill="#1E1D23" fill-opacity=".2" d="M51.92 320.823c8.566 1.711 17.764-1.76 26.153-4.198 6.7-1.947 13.427-4.215 19.16-8.191 3.371-2.339 6.325-5.218 9.261-8.084 1.378-1.345 2.765-2.7 3.869-4.278.784-1.122 1.433-2.365 2.457-3.273.746-.661 1.685-1.14 2.224-1.98 1.19-1.853-.14-4.243-1.433-6.025-4.248.437-8.137 2.585-11.59 5.1-3.451 2.513-6.605 5.436-10.186 7.762-7.391 4.802-16.2 6.826-24.832 8.604-7.048 1.453-14.458 2.684-21.321-.172-2.445-1.017-5.83-2.699-5.83-2.699s-1.313 3.272-1.482 4.706c-.267 2.27-.274 6.152 1.451 7.472 3.332 2.55 7.85 4.407 12.098 5.256"/>
        <path fill="#1E1D23" fill-opacity=".2" d="M147.419 305.62c-2.016 2.43-5.069 3.686-7.894 5.094a56.983 56.983 0 0 0-15.079 10.932c-2.449 2.483-4.678 5.196-7.35 7.436-4.396 3.686-9.863 5.954-15.483 7.105-6.703 1.371-13.65 1.214-20.418.212-4.199-.621-8.578-1.681-11.643-4.617-1.533-1.469-2.577-3.538-2.881-5.635-.303-2.095 1.56-9.887 1.56-9.887s8.064 1.48 12.406 1.987c18.754 2.195 38.933-3.217 51.966-16.88 1.927-2.019 3.754-4.25 6.25-5.497 6.551-3.273 13.708 3.549 8.566 9.75"/>
        <path fill="#B70808" d="M115.337 284.953l-1.727-6.991s-.494-11.526-.404-11.299c.09.229 5.912.378 5.912.378l7.539-2.03 7.249-5.51 6.38-3.19 4.639 2.61-.87 9.57-2.899 13.338-9.57 3.48-11.308 2.61-4.941-2.966zM85.18 267.845l-1.727-6.991s-1.976-9.845-1.886-9.617c.09.228 7.394-1.304 7.394-1.304l7.54-2.03 7.248-5.51 6.38-3.19 4.64 2.61-.87 9.57-2.9 13.339-9.57 3.479-11.307 2.61-4.942-2.966z"/>
        <path fill="#1E1D23" d="M51.92 313.991c8.566 1.71 17.764-1.76 26.153-4.198 6.7-1.948 13.427-4.215 19.16-8.192 3.371-2.338 6.325-5.218 9.261-8.084 1.378-1.345 2.765-2.7 3.869-4.278.784-1.122 1.433-2.365 2.457-3.272.746-.662 1.685-1.141 2.224-1.98 1.19-1.853-.14-4.243-1.433-6.025-4.248.436-8.137 2.585-11.59 5.099-3.451 2.515-6.605 5.436-10.186 7.763-7.391 4.801-16.2 6.825-24.832 8.604-7.048 1.452-14.458 2.683-21.321-.172-2.445-1.018-5.83-2.7-5.83-2.7s-1.313 3.274-1.482 4.706c-.267 2.271-.274 6.152 1.451 7.472 3.332 2.55 7.85 4.408 12.098 5.257"/>
        <path fill="#DD0A0A" d="M81.567 251.237s9.524-2.674 12.923-4.458c3.398-1.785 9.34-8.275 15.658-8.752 1.349-.102 2.771.002 3.929.7 1.884 1.135 2.58 3.487 3.055 5.635a104.194 104.194 0 0 1 2.408 25.221c-.04 1.541-.129 3.131-.804 4.516-.629 1.291-1.713 2.293-2.774 3.262-6.284 5.743-12.606 11.517-19.774 16.108-3.997 2.56-8.23 4.735-12.545 6.711a139.245 139.245 0 0 1-10.998 4.502c-.477.171-3.108.97-3.595.827-.6-.176.059-.95-.242-1.497-2.603-4.744-3.483-10.736-2.056-15.955 1.178-4.307 4.466-7.672 7.716-10.735a235.558 235.558 0 0 1 10.659-9.455c1.025-.855 2.082-1.717 3.327-2.204 2.221-.868 4.704-.431 7.088-.474 5.136-.091 10.177-2.603 13.34-6.65 3.165-4.046 4.387-9.546 3.237-14.55-.195-.845-.469-1.706-1.051-2.346-1.2-1.32-3.36-1.29-4.955-.493-1.84.916-4.826 4.694-8.905 6.903-4.078 2.21-12.922 4.544-12.922 4.544l-2.72-1.36z"/>
        <path fill="#FFF" d="M91.128 253.421c-1.542-1.013-3.464-1.185-5.262-1.598a18.748 18.748 0 0 1-4.445-1.637c-.744-.388-1.484-.833-2.315-.95-1.624-.23-3.193.885-4.036 2.291-.843 1.407-1.125 3.067-1.458 4.673a59.419 59.419 0 0 1-1.908 7.02c-.602 1.776-1.298 3.544-2.384 5.072-.698.981-1.545 1.847-2.389 2.707-3.099 3.164-6.29 6.394-10.3 8.275-1.984.93-4.122 1.504-6.09 2.469-1.609.786-3.084 1.824-4.451 2.98-2.597 2.197-4.872 4.937-5.816 8.204-.943 3.269-.336 7.118 2.116 9.476 1.871 1.797 4.509 2.52 7.055 3.017a61.162 61.162 0 0 0 17.772.818c.675-.067 1.424-.189 1.833-.73.532-.703.204-1.702-.123-2.522-1.428-3.593-2.455-7.412-2.351-11.278.104-3.864 1.43-7.796 4.173-10.522 1.374-1.367 3.048-2.39 4.53-3.637 1.308-1.101 2.462-2.37 3.672-3.578 3.77-3.756 8.376-5.908 12.401-9.195 3.28-2.68 3.477-8.923-.224-11.355"/>
        <path fill="#1E1D23" d="M147.419 298.787c-2.016 2.431-5.069 3.686-7.894 5.095a56.983 56.983 0 0 0-15.079 10.932c-2.449 2.482-4.678 5.196-7.35 7.435-4.396 3.686-9.863 5.954-15.483 7.106-6.703 1.371-13.65 1.213-20.418.211-4.199-.621-8.578-1.681-11.643-4.617-1.533-1.467-2.577-3.538-2.881-5.635-.303-2.095 1.56-9.886 1.56-9.886s8.064 1.478 12.406 1.987c18.754 2.195 38.933-3.216 51.966-16.88 1.927-2.019 3.754-4.251 6.25-5.498 6.551-3.273 13.708 3.549 8.566 9.75"/>
        <path fill="#DD0A0A" d="M113.296 266.892c5.857-.783 11.917-2.027 16.564-5.676 1.929-1.513 3.55-3.396 5.526-4.848 1.976-1.45 4.491-2.46 6.868-1.859 2.299.583 4.024 2.588 4.893 4.795.87 2.205 1.02 4.62 1.162 6.987l.87 14.602c.23 3.875.313 8.204-2.274 11.098-1.19 1.332-2.81 2.182-4.352 3.087-13.725 8.06-23.728 22.54-39.004 27.015-1.19.348-4.665 1.811-5.744 1.201-1.02-.575.63-2.962.261-4.074-1.26-3.791-3.211-7.897-3.595-11.874-.21-2.174.844-4.266 1.651-6.295 1.021-2.564 3.275-4.394 5.438-6.107l5.78-4.575c4.114-3.255 8.386-6.592 13.46-7.921 6.11-1.6 13.462-.4 17.985-4.807 3.496-3.406 3.794-8.854 3.603-13.731-.064-1.652-.246-3.492-1.49-4.582-1.356-1.19-3.498-.976-5.066-.086-1.566.893-2.737 2.322-4.036 3.572-3.961 3.816-9.386 6.073-14.885 6.193l-3.615-2.115z"/>
        <path fill="#FFF" d="M73.52 318.341c-2.922-2.029-5.739-5.119-5.282-8.645.283-2.19 1.791-4.02 3.416-5.515a27.567 27.567 0 0 1 8.883-5.477c2.246-.848 4.613-1.406 6.738-2.524 3.236-1.702 5.686-4.58 7.804-7.56a66.455 66.455 0 0 0 7.726-14.328c.749-1.922 1.426-3.913 2.665-5.561 1.24-1.648 3.19-2.93 5.246-2.764.862.07 1.683.385 2.49.696l7.431 2.868c.804.31 1.62.627 2.304 1.152 2.568 1.968 2.238 6.16.27 8.729-1.967 2.569-5.038 3.983-7.874 5.54a59.808 59.808 0 0 0-16.333 13.187c-1.555 1.793-3.047 3.77-3.518 6.096-.53 2.615.298 5.292 1.127 7.827.872 2.664 2.904 7.127 2.162 9.972-.734 2.81-4.493 2.248-7.152 2.178-6.428-.172-12.816-2.197-18.104-5.87"/>
        <path fill="#231F20" d="M110.732 292.625a1.02 1.02 0 0 1-.86-.47c-2.413-3.76-7.038-6.073-11.49-5.753a1.012 1.012 0 0 1-1.09-.944c-.04-.562.382-1.05.944-1.09 5.174-.373 10.547 2.315 13.353 6.687a1.018 1.018 0 0 1-.857 1.57M106.47 297.168c-.344 0-.681-.174-.873-.49-2.054-3.378-6.08-5.488-10.034-5.247a1.02 1.02 0 0 1-.123-2.036c4.683-.287 9.462 2.217 11.9 6.223a1.02 1.02 0 0 1-.87 1.55M102.08 301.468c-.402 0-.782-.238-.944-.631-.688-1.67-2.303-3.127-4.432-3.997-2.028-.83-4.3-1.113-6.5-1.388a1.02 1.02 0 0 1 .254-2.024c2.33.292 4.74.593 7.018 1.524 2.668 1.09 4.639 2.905 5.546 5.107a1.021 1.021 0 0 1-.943 1.409M80.143 275.546a1.02 1.02 0 0 1-.86-.47c-2.414-3.76-7.027-6.072-11.49-5.752a1.02 1.02 0 0 1-.146-2.035c5.178-.374 10.546 2.314 13.352 6.687a1.018 1.018 0 0 1-.856 1.57M75.88 280.088c-.344 0-.68-.174-.872-.49-2.055-3.377-6.087-5.488-10.034-5.247a1.02 1.02 0 0 1-.123-2.036c4.686-.286 9.462 2.218 11.9 6.223a1.02 1.02 0 0 1-.871 1.55M71.49 284.39c-.4 0-.782-.24-.943-.632-.942-2.286-3.182-3.485-4.433-3.998-2.03-.83-4.301-1.112-6.498-1.387a1.02 1.02 0 1 1 .252-2.023c2.329.29 4.737.59 7.018 1.523 2.67 1.091 4.639 2.905 5.547 5.108a1.02 1.02 0 0 1-.943 1.408"/>
        <path fill="#F0F5F7" d="M863.147 454.964l5.062-2.923c1.212-.685 1.96-2.161 1.96-4.261l.042.023V332.33c0-4.2-2.995-9.366-6.697-11.504l-40.727-23.514c-1.885-1.088-3.587-1.179-4.804-.452l-5.062 2.922 50.226 155.182z"/>
        <path fill="#1E1D23" fill-opacity=".2" d="M870.707 459.277l-5.26 3.036c-1.119.646-3.072.566-4.364-.181l-50.835-29.35c-1.291-.746-1.432-1.874-.313-2.52l5.26-3.035c1.118-.646 3.072-.566 4.363.18l50.835 29.35c1.293.746 1.432 1.874.314 2.52"/>
        <path fill="#FFF" d="M865.108 450.702c0 2.1-.749 3.577-1.96 4.262-1.212.685-2.886.577-4.738-.492l-40.684-23.488c-3.703-2.139-6.699-7.304-6.699-11.505V304.006c0-2.062.722-3.523 1.894-4.224 1.216-.726 2.919-.635 4.805.453l40.726 23.513c3.703 2.138 6.697 7.304 6.697 11.505v115.473l-.041-.024z"/>
        <path fill="#4CE5AB" d="M814.771 315.667l46.551 26.876v95.042l-46.55-26.877z"/>
        <path fill="#192A32" d="M843.06 327.082c0 .286-.167.43-.416.285l-8.362-4.828c-.208-.12-.416-.478-.416-.765v-1.241c0-.286.167-.428.416-.284l8.362 4.827c.208.12.416.478.416.766v1.24zM838.484 316.469c.689.397 1.248 1.361 1.248 2.152 0 .79-.56 1.11-1.248.712-.69-.399-1.248-1.362-1.248-2.153 0-.791.558-1.109 1.248-.711M838.068 428.408c2.297 1.326 4.16 4.538 4.16 7.174 0 2.638-1.863 3.698-4.16 2.373-2.298-1.326-4.16-4.539-4.16-7.176 0-2.636 1.862-3.698 4.16-2.371M869.128 362.16c0 .755-.532 1.675-1.19 2.054-.658.38-1.19.076-1.19-.678v-8.783c0-.755.532-1.674 1.19-2.054.658-.38 1.19-.076 1.19.679v8.783z"/>
        <path fill="#1A82FF" d="M869.767 220.773c-26.93 0-52.013-5.92-70.63-16.668-16.34-9.434-25.346-21.22-25.362-33.187-.012-11.96 9.41-24.263 25.849-33.755 18.932-10.93 44.332-16.95 71.523-16.95 26.928 0 52.013 5.92 70.63 16.67 16.34 9.434 25.346 21.22 25.359 33.185.015 11.961-9.405 24.264-25.845 33.756-18.932 10.93-44.335 16.95-71.524 16.95"/>
        <path stroke="#FFF" stroke-dasharray="0,9.278" stroke-linecap="round" stroke-linejoin="round" stroke-width="2.801" d="M869.767 220.773c-26.93 0-52.013-5.92-70.63-16.668-16.34-9.434-25.346-21.22-25.362-33.187-.012-11.96 9.408-24.263 25.849-33.755 18.932-10.93 44.332-16.95 71.523-16.95 26.928 0 52.013 5.92 70.63 16.67 16.34 9.434 25.346 21.22 25.359 33.185.015 11.961-9.405 24.264-25.845 33.756-18.932 10.93-44.335 16.95-71.524 16.95z"/>
        <path fill="#111D28" fill-opacity=".2" d="M918.506 171.19c3.032 1.75 3.032 4.614 0 6.364l-39.18 22.62c-3.033 1.751-7.993 1.751-11.025 0l-39.497-22.803c-3.032-1.75-3.032-4.614 0-6.364l39.181-22.621c3.032-1.75 7.993-1.75 11.024 0l39.497 22.803z"/>
        <path fill="#6F8294" d="M918.506 159.1c3.032 1.75 3.032 4.615 0 6.365l-39.18 22.622c-3.033 1.75-7.993 1.75-11.025 0l-39.497-22.804c-3.032-1.75-3.032-4.614 0-6.364l39.181-22.622c3.032-1.75 7.993-1.75 11.024 0l39.497 22.803z"/>
        <path fill="#6E3BEA" d="M873.811 132.752c-1.997 0-3.995-.437-5.51-1.312l-39.497-22.804c-1.477-.854-2.229-1.97-2.266-3.094v56.646c.037 1.125.789 2.242 2.266 3.096l39.497 22.803c1.515.874 3.513 1.313 5.51 1.313v-56.648z"/>
        <path fill="#5028CE" d="M873.811 132.752c1.999 0 3.998-.437 5.514-1.312l39.181-22.622c1.557-.899 2.309-2.092 2.266-3.276v56.646c.043 1.186-.709 2.378-2.266 3.277l-39.18 22.622c-1.517.874-3.516 1.313-5.515 1.313v-56.648z"/>
        <path fill="#FF1A1A" d="M842.644 116.626v56.648l9.552 5.515V122.14z"/>
        <path fill="#7A54EF" d="M918.506 102.453c3.032 1.75 3.032 4.614 0 6.365l-39.18 22.621c-3.033 1.75-7.993 1.75-11.025 0l-39.497-22.803c-3.032-1.75-3.032-4.614 0-6.365l39.181-22.622c3.032-1.75 7.993-1.75 11.024 0l39.497 22.804z"/>
        <path fill="#FF1A1A" d="M842.644 116.626l9.552 5.515 50.206-28.985-9.553-5.516z"/>
        <path fill="#DD0A0A" d="M904.563 116.626v56.648l-9.553 5.515V122.14z"/>
        <path fill="#FF1A1A" d="M904.563 116.626l-9.553 5.515-50.206-28.985 9.553-5.516z"/>
        <path fill="#F55" d="M870.83 109.54s-18.727 17.617-22.792 29.568c0 0-2.095-4.805-5.914-6.284-3.82-1.478-6.406-1.97-6.406-1.97s11.087-16.757 29.445-23.655l5.667 2.34zM877.114 109.046s18.727 17.618 22.792 29.57c0 0 2.095-4.806 5.914-6.284 3.82-1.479 6.407-1.971 6.407-1.971s-11.088-16.756-29.446-23.655l-5.667 2.34z"/>
        <path fill="#DD0A0A" d="M834.362 103.379c1.971 6.283 23.655 5.175 36.469 6.16 0 0-1.488-2.81-4.38-5.905-12.029-.677-20.639-4.217-25.849-7.166-5.37 1.498-6.977 4.564-6.24 6.911M913.213 99.56c0-2.876.136-7.427-5.054-9.5-3.743 3.128-12.205 8.828-26.954 12.006-2.035 2.582-3.229 6.98-3.229 6.98 18.973 0 35.237-1.478 35.237-9.486"/>
        <path fill="#F55" d="M850.502 95.617c10.474.485 17.052 8.83 19.378 12.361l.458.083.246-10.472c-7.146-.37-9.117-7.393-11.704-10.72-2.588-3.326-12.197-4.434-17.002-3.695-4.805.74-5.914 6.407-5.914 6.407l-1.848 11.95.152.028c.601-3.11 5.162-6.453 16.234-5.942M909.64 83.667c-4.93-4.066-10.227-6.407-16.264-4.19-6.036 2.219-9.978 16.88-16.14 19.343l-.369 7.64 1.378-.298c1.737-2.67 11.705-17.197 22.893-17.197 11.347 0 12.034 5.744 12.073 9.636l.125-.027s1.231-10.842-3.696-14.907"/>
        <path fill="#FF1A1A" d="M872.185 96.972c4.032-.53 7.146 1.232 7.762 4.559.616 3.326.862 9.487-5.05 9.857-5.915.37-6.038-4.312-6.408-7.023-.37-2.71-.985-6.776 3.696-7.393"/>
        <path fill="#111D28" fill-opacity=".2" d="M511.443 337.464l44.248 25.546 105.014-60.628-44.248-25.548zM637.962 264.418l44.249 25.547 105.014-60.63-44.248-25.547z"/>
        <path fill="#D5DEE2" d="M710.586 180.407l44.248 25.546 32.39-18.7-44.248-25.547z"/>
        <path fill="#C5D3D8" d="M673.767 78.547l44.249 25.547-.38 123.336-44.248-25.547zM637.962 222.336l44.249 25.547v32.522l-44.249-25.547z"/>
        <path fill="#D5DEE2" d="M637.962 222.336l44.249 25.547 35.426-20.453-44.249-25.547z"/>
        <path fill="#FFF" d="M682.21 247.883l35.427-20.453V120.719c0-5.225.126-10.767.379-16.625L697.14 136.04c-1.35 2.038-2.7 3.713-4.05 5.023-1.349 1.313-2.656 2.332-3.92 3.063-2.195 1.267-4.156 1.842-5.884 1.727-1.73-.115-3.017-.557-3.86-1.329l-12.398-11.715 57.44-88.48 32.39-18.7v179.157l30.367-17.532v32.521l-105.014 60.63v-32.52z"/>
        <path fill="#D5DEE2" d="M680.22 18.782l44.249 25.546 32.39-18.7L712.61.081z"/>
        <path fill="#C5D3D8" d="M680.22 18.782l44.249 25.546-57.441 88.48-44.248-25.547z"/>
        <path fill="#B6C7CC" d="M635.178 118.976l44.249 25.546-12.398-11.714-44.249-25.547z"/>
        <path fill="#D5DEE2" d="M584.067 253.453l44.248 25.546 32.39-18.7-44.248-25.547z"/>
        <path fill="#C5D3D8" d="M547.248 151.593l44.249 25.547-.38 123.335-44.248-25.546zM511.443 295.382l44.248 25.546v32.522l-44.248-25.546z"/>
        <path fill="#D5DEE2" d="M511.443 295.382l44.248 25.546 35.426-20.453-44.247-25.546z"/>
        <path fill="#FFF" d="M555.691 320.928l35.426-20.453V193.764c0-5.224.126-10.766.38-16.623l-20.876 31.944c-1.35 2.038-2.7 3.713-4.05 5.022-1.35 1.314-2.656 2.333-3.92 3.063-2.195 1.268-4.156 1.843-5.884 1.728-1.73-.114-3.018-.557-3.86-1.33l-12.398-11.714 57.44-88.48 32.39-18.7V277.83l30.367-17.532v32.522L555.69 353.45v-32.523z"/>
        <path fill="#D5DEE2" d="M553.701 91.827l44.249 25.547 32.39-18.7-44.249-25.547z"/>
        <path fill="#C5D3D8" d="M553.701 91.827l44.249 25.547-57.441 88.48-44.249-25.547z"/>
        <path fill="#B6C7CC" d="M508.66 192.022l44.248 25.546-12.399-11.714-44.249-25.547z"/>
        <g transform="translate(198.648 457.377)">
            <mask id="s" fill="#fff">
                <use xlink:href="#r"/>
            </mask>
            <path fill="#111D28" fill-opacity=".2" d="M.04 60.64l44.248 25.548 105.014-60.63L105.054.011z" mask="url(#s)"/>
        </g>
        <path fill="#111D28" fill-opacity=".2" d="M325.207 444.972l44.249 25.546L474.47 409.89l-44.249-25.547zM454.08 369.955l44.248 25.546 35.426-20.453-44.248-25.547z"/>
        <path fill="#C5D3D8" d="M454.068 355.948c-1.984-1.08-3.544-2.817-4.682-5.209-1.139-2.392-1.709-5.329-1.709-8.815 0-3.484.57-7.055 1.709-10.714a50.145 50.145 0 0 1 4.682-10.543 52.192 52.192 0 0 1 7.021-9.353c2.698-2.863 5.65-5.222 8.857-7.074 3.12-1.801 6.03-2.826 8.73-3.079 2.698-.25 5.06.152 7.084 1.208l44.25 25.547-31.694 53.578-44.248-25.546z"/>
        <path fill="#FFF" d="M491.926 367.471c0-3.484.57-7.054 1.709-10.714a50.078 50.078 0 0 1 4.681-10.543 52.105 52.105 0 0 1 7.02-9.352c2.7-2.864 5.652-5.223 8.858-7.075 3.12-1.802 6.03-2.827 8.73-3.08 2.699-.25 5.06.153 7.085 1.21 2.024 1.058 3.606 2.758 4.745 5.1 1.139 2.344 1.709 5.256 1.709 8.74 0 3.487-.57 7.082-1.709 10.788a48.572 48.572 0 0 1-4.745 10.652 51.617 51.617 0 0 1-7.085 9.318c-2.7 2.814-5.61 5.124-8.73 6.926-3.206 1.851-6.158 2.925-8.857 3.227-2.7.3-5.041-.088-7.02-1.174-1.985-1.079-3.544-2.816-4.682-5.209-1.14-2.39-1.71-5.327-1.71-8.814"/>
        <path fill="#D5DEE2" d="M397.83 360.976l44.25 25.547 32.39-18.701-44.249-25.546z"/>
        <path fill="#C5D3D8" d="M361.013 259.117l44.248 25.546-.38 123.336-44.248-25.547zM325.207 402.905l44.249 25.547v32.522l-44.249-25.547z"/>
        <path fill="#D5DEE2" d="M325.207 402.905l44.249 25.547 35.426-20.453-44.249-25.547z"/>
        <path fill="#FFF" d="M369.456 428.452L404.882 408V301.288c0-5.225.125-10.767.379-16.625l-20.876 31.945c-1.35 2.038-2.7 3.713-4.049 5.023-1.35 1.313-2.657 2.332-3.922 3.063-2.194 1.268-4.155 1.842-5.883 1.728-1.73-.115-3.017-.558-3.86-1.33l-12.398-11.715 57.44-88.48 32.39-18.7v179.157l30.367-17.532v32.521l-105.014 60.63v-32.52z"/>
        <path fill="#D5DEE2" d="M367.465 199.35l44.249 25.547 32.39-18.7-44.249-25.547z"/>
        <path fill="#C5D3D8" d="M367.465 199.35l44.249 25.547-57.441 88.48-44.248-25.547z"/>
        <path fill="#B6C7CC" d="M322.423 299.545l44.249 25.546-12.398-11.714-44.249-25.547z"/>
        <path fill="#D5DEE2" d="M271.312 434.022l44.248 25.546 32.39-18.7-44.248-25.547z"/>
        <path fill="#C5D3D8" d="M234.494 332.162l44.248 25.547-.38 123.335-44.248-25.546z"/>
        <g transform="translate(198.648 475.526)">
            <mask id="u" fill="#fff">
                <use xlink:href="#t"/>
            </mask>
            <path fill="#C5D3D8" d="M.04.425L44.288 25.97v32.522L.04 32.946z" mask="url(#u)"/>
        </g>
        <path fill="#D5DEE2" d="M198.688 475.951l44.248 25.547 35.426-20.454-44.247-25.546z"/>
        <path fill="#FFF" d="M242.936 501.498l35.426-20.454v-106.71c0-5.225.126-10.767.38-16.624l-20.876 31.944c-1.35 2.038-2.7 3.713-4.049 5.022-1.35 1.314-2.657 2.333-3.922 3.063-2.194 1.268-4.155 1.843-5.883 1.728-1.73-.114-3.018-.557-3.86-1.329l-12.398-11.715 57.44-88.48 32.391-18.7V458.4l30.366-17.532v32.521L242.936 534.02v-32.522z"/>
        <path fill="#D5DEE2" d="M240.946 272.396l44.249 25.547 32.39-18.7-44.249-25.547z"/>
        <path fill="#C5D3D8" d="M240.946 272.396l44.249 25.547-57.441 88.48-44.249-25.547z"/>
        <path fill="#B6C7CC" d="M195.904 372.59l44.249 25.548-12.399-11.715-44.248-25.547z"/>
        <path stroke="#FFF" stroke-linecap="round" stroke-linejoin="round" stroke-width="2.801" d="M22.371 347.936"/>
    </g>
</svg>
