<svg xmlns="http://www.w3.org/2000/svg" width="144" height="33" viewBox="0 0 144 33">
    <path fill="#4CE5AB" fill-rule="evenodd" d="M16.353 24.396c-5.114.464-9.914-2.615-10.324-7.359-.338-3.91 2.123-5.596 4.076-5.769 2.003-.17 3.668 1.173 3.811 2.812.146 1.564-.867 2.3-1.567 2.348-.555.048-1.23-.27-1.303-.978-.048-.612.193-.685.121-1.32-.096-1.15-1.11-1.272-1.664-1.222-.675.048-1.906.83-1.737 2.76.169 1.933 2.05 3.448 4.535 3.228 2.677-.244 4.534-2.274 4.679-5.159 0-.145.024-.292.097-.44.024-.048.048-.12.096-.17.073-.098.145-.196.217-.269.072-.073.145-.171.242-.244 1.157-1.076 5.377-3.643 9.357-2.86.024 0 .072.024.097.024.144.05.241.171.241.318.675 9.362-5.476 13.811-10.974 14.3m15.7-18.872c-.336-1.54-1.036-2.565-1.784-3.323-.747-.784-1.76-1.467-3.232-1.834C25.567 0 22.19 0 22.19 0H10.226S6.922 0 5.403.367C3.883.734 2.894 1.443 2.146 2.2 1.4 2.98.723 4.009.362 5.5 0 6.967 0 10.414 0 10.414v12.173s.024 3.349.362 4.889c.337 1.54 1.037 2.566 1.784 3.326.748.78 1.761 1.464 3.233 1.831 1.47.367 4.847.367 4.847.367H22.19s3.306 0 4.824-.367c1.52-.367 2.509-1.075 3.256-1.831.748-.785 1.424-1.81 1.785-3.302.362-1.466.362-4.913.362-4.913V10.414s0-3.35-.362-4.89M144 18.456v8.653c0 .049-.05.097-.097.097h-2.58c-.048 0-.097-.048-.097-.097v-7.211s.025-1.222-.072-2.345c-.073-.808-.338-1.566-.941-2.079-.87-.71-2.099-.562-2.099-.562-1.52.171-2.846 1.123-3.666 2.077-.024.025-.024.048-.048.048l.048-.023v10.07c0 .05-.048.1-.097.1h-2.604c-.048 0-.097-.05-.097-.1V12.957c0-.048.049-.098.097-.098h2.146c.048 0 .097.05.097.098v1.394c0 .048.024.072.048.072.024.025.072 0 .098-.024 1.108-1.197 2.773-1.906 4.51-1.906 1.471.023 5.354.072 5.354 5.964m-24.096-2.15a4.15 4.15 0 0 1 2.943-1.59c1.182-.097 2.123.073 2.966.88.29.294.555.635.748 1.002.314.538-.024 1.32-.7 1.418l-6.873.954c-.024 0-.048 0-.073-.026-.024-.024-.024-.048-.024-.072.121-1.027.434-1.809 1.013-2.567m3.908 8.849a3.975 3.975 0 0 1-3.835-1.662c-.458-.612-.7-1.32-.869-2.274 0-.024 0-.048.025-.073.024-.025.048-.025.072-.05l7.55-1.05c2.074-.294 2.941-2.175 2.146-3.96a6.451 6.451 0 0 0-3.45-3.251c-2.049-.831-4.798-.342-6.27.88-1.953 1.638-2.63 3.593-2.726 5.67-.024.221-.024.465-.024.71 0 .489.049.953.12 1.442.508 3.13 2.726 5.988 6.417 5.988 4.172.026 6.15-2.516 6.487-4.399 0-.025 0-.048-.023-.074-.024-.023-.048-.023-.074-.023l-2.604.39c-.024 0-.048.024-.072.048-.772 1.028-1.591 1.492-2.87 1.688m-30.657-.172c-2.797 0-4.124-1.905-4.124-5.231 0-3.3 1.351-4.962 4.124-4.962 2.775 0 4.125 1.784 4.125 5.085 0 3.3-1.35 5.108-4.125 5.108m0-12.54c-4.124 0-6.849 2.738-6.849 7.432 0 4.693 2.725 7.43 6.85 7.43 4.124 0 6.85-2.737 6.85-7.43-.024-4.668-2.75-7.431-6.85-7.431M47.184 7.358a1.736 1.736 0 1 1 0 3.473 1.736 1.736 0 0 1 0-3.473m68.402 19.874h-2.846c-.024 0-.048-.026-.072-.049-1.062-1.491-1.858-2.91-2.22-3.374l-.072-.074c-.579-.757-1.784-2.347-3.449-2.64-.024 0-.072 0-.072.025l-1.205 1.296c-.024.025-.024.048-.024.074v4.62c0 .048-.05.096-.098.096h-2.653c-.048 0-.096-.048-.096-.097V7.75c0-.05.048-.098.096-.098h2.653c.048 0 .098.048.098.098v11.147c0 .024.024.074.047.074.024 0 .072 0 .096-.026l5.813-6.086c.024-.024.049-.024.073-.024h3.111c.048 0 .072.024.072.048.024.026 0 .074-.024.097l-5.884 6.21c-.024.024-.024.05-.024.074 0 .024.024.048.048.073 1.712.807 2.894 2.346 3.449 3.056l.072.072c.483.613 2.05 2.982 3.208 4.597.024.024.024.074 0 .097-.024.048-.048.074-.097.074M72.8 18.188h.024v8.921c0 .049-.048.097-.096.097h-2.606c-.048 0-.096-.048-.096-.097v-8.164c0-.416-.024-.831-.073-1.247-.193-1.49-.772-2.566-2.846-2.542a3.857 3.857 0 0 0-1.713.488c-.603.367-1.302.88-1.663 1.615.072.464.097.952.097 1.441v8.58c0 .049-.05.099-.097.099h-2.556c-.05 0-.098-.05-.098-.099v-7.04c0-1.564.072-3.177-.65-4.179-.46-.612-1.086-.88-2.316-.88-.507 0-1.159.195-1.664.439a5.083 5.083 0 0 0-.965.637c-.41.39-.724.879-.724 1.441v9.411a.104.104 0 0 1-.097.097h-2.604c-.048 0-.096-.048-.096-.097V13.25c0-.048.048-.098.096-.098h1.085c.434 0 .844.294.965.709.096.293.17.562.17.562 0 .049.023.075.047.075.024.023.073 0 .097-.026 1.158-1.148 2.821-1.686 4.438-1.686 1.664 0 2.75.513 3.448 1.345l-.072-.097c.217.242.41.536.555.83.024.025.048.049.072.049.024 0 .073 0 .073-.024 1.06-1.322 3.135-2.079 4.824-2.079 3.859 0 5.04 2.714 5.04 5.379m13.87-10.12v2.2a.104.104 0 0 1-.098.096h-5.427c-.048 0-.095.05-.095.099v16.672a.104.104 0 0 1-.098.097h-2.797a.104.104 0 0 1-.097-.097V10.463c0-.049-.048-.099-.096-.099h-5.933a.104.104 0 0 1-.097-.097v-2.2c0-.048.048-.098.097-.098h14.519c.024 0 .05 0 .073.024.048.026.048.049.048.075m-40.834 4.986h2.678c.048 0 .095.048.095.097v13.958c0 .049-.047.097-.095.097h-2.678a.104.104 0 0 1-.097-.097V13.151c0-.049.048-.097.097-.097"/>
</svg>
