<svg xmlns="http://www.w3.org/2000/svg" width="166" height="38" viewBox="0 0 166 38">
    <path fill="#007CFF" fill-rule="evenodd" d="M18.851 28.091c-5.894.534-11.427-3.012-11.9-8.472-.39-4.504 2.447-6.446 4.7-6.643 2.307-.198 4.225 1.35 4.392 3.237.166 1.801-1 2.645-1.808 2.702-.639.056-1.418-.31-1.5-1.127-.057-.703.222-.787.138-1.518-.11-1.324-1.279-1.465-1.918-1.408-.78.056-2.197.956-2.002 3.18.195 2.224 2.364 3.97 5.228 3.716 3.085-.281 5.227-2.618 5.394-5.94 0-.168.027-.337.11-.506.029-.056.056-.14.111-.197.084-.113.167-.226.251-.31.083-.085.167-.197.278-.28 1.334-1.24 6.2-4.195 10.788-3.295.028 0 .083.028.111.028a.39.39 0 0 1 .279.367C32.28 22.406 25.19 27.528 18.85 28.09m18.1-21.73c-.389-1.774-1.195-2.956-2.057-3.828-.862-.9-2.03-1.69-3.725-2.111C29.473 0 25.58 0 25.58 0H11.79S7.98 0 6.227.422C4.476.843 3.336 1.66 2.474 2.533c-.862.9-1.64 2.082-2.057 3.799C0 8.022 0 11.99 0 11.99v14.016s.028 3.858.417 5.631c.39 1.774 1.195 2.956 2.057 3.829.862.9 2.03 1.689 3.726 2.11C7.896 38 11.79 38 11.79 38h13.79s3.809 0 5.561-.423c1.751-.421 2.89-1.239 3.753-2.11.862-.902 1.641-2.084 2.058-3.8.417-1.69.417-5.66.417-5.66V11.991s0-3.856-.417-5.63M166 21.251v9.965c0 .057-.056.113-.11.113h-2.977c-.055 0-.11-.056-.11-.113v-8.304s.027-1.408-.084-2.703c-.083-.928-.389-1.8-1.084-2.391-1.001-.817-2.42-.648-2.42-.648-1.75.197-3.28 1.294-4.226 2.392-.028.029-.028.057-.056.057l.056-.028v11.597c0 .056-.056.112-.11.112h-3.004c-.056 0-.11-.056-.11-.112v-16.27c0-.056.054-.113.11-.113h2.475c.056 0 .11.057.11.113v1.604c0 .056.029.085.057.085.027.028.082 0 .11-.029 1.28-1.378 3.198-2.196 5.2-2.196 1.697.03 6.173.085 6.173 6.87m-27.777-2.478a4.785 4.785 0 0 1 3.393-1.829c1.362-.113 2.446.084 3.42 1.012.333.338.64.733.862 1.155.36.62-.028 1.52-.807 1.632l-7.925 1.098c-.027 0-.055 0-.082-.028-.028-.028-.028-.056-.028-.085.138-1.182.5-2.083 1.167-2.955m4.504 10.19a4.591 4.591 0 0 1-4.42-1.914c-.528-.704-.807-1.52-1.002-2.617 0-.029 0-.057.028-.085.028-.028.056-.028.084-.057l8.703-1.21c2.391-.338 3.392-2.505 2.474-4.56a7.43 7.43 0 0 0-3.976-3.744c-2.363-.957-5.533-.395-7.229 1.013-2.251 1.886-3.03 4.138-3.141 6.531-.028.253-.028.534-.028.817 0 .562.056 1.097.139 1.66.584 3.603 3.141 6.897 7.395 6.897 4.811.028 7.09-2.9 7.48-5.067 0-.03 0-.057-.028-.085-.028-.028-.056-.028-.084-.028l-3.002.45c-.028 0-.055.028-.083.056-.89 1.183-1.835 1.719-3.31 1.943m-35.338-.197c-3.226 0-4.755-2.196-4.755-6.024 0-3.8 1.557-5.714 4.755-5.714 3.196 0 4.755 2.055 4.755 5.855 0 3.8-1.559 5.883-4.755 5.883m0-14.44c-4.755 0-7.896 3.152-7.896 8.557 0 5.404 3.141 8.558 7.896 8.558s7.896-3.154 7.896-8.558c-.028-5.377-3.17-8.557-7.896-8.557M54.394 8.473a2 2 0 1 1 0 3.996 2 2 0 0 1 0-3.997m78.853 22.885h-3.282c-.027 0-.055-.028-.083-.057-1.223-1.716-2.141-3.35-2.558-3.884l-.084-.085c-.667-.872-2.056-2.702-3.975-3.04-.027 0-.083 0-.083.03l-1.39 1.49c-.029.028-.029.057-.029.085v5.32c0 .057-.056.113-.11.113h-3.06c-.055 0-.11-.056-.11-.113V8.923c0-.057.055-.113.11-.113h3.06c.054 0 .11.056.11.113v12.835c0 .028.028.084.056.084.027 0 .083 0 .111-.028l6.7-7.009c.029-.028.057-.028.085-.028h3.586c.056 0 .084.028.084.057.028.028 0 .084-.028.112l-6.785 7.15c-.027.028-.027.056-.027.083 0 .03.027.057.055.085 1.974.929 3.337 2.703 3.977 3.52l.083.084c.556.703 2.363 3.434 3.698 5.292.028.028.028.084 0 .113-.028.056-.056.084-.111.084M83.92 20.942h.028v10.274c0 .057-.055.113-.11.113h-3.003a.12.12 0 0 1-.112-.113v-9.402c0-.479-.027-.956-.083-1.436-.223-1.716-.89-2.956-3.281-2.926a4.427 4.427 0 0 0-1.974.562c-.695.423-1.502 1.013-1.92 1.858.085.535.113 1.098.113 1.661V31.412c0 .057-.056.114-.112.114H70.52c-.056 0-.11-.057-.11-.114v-8.105c0-1.803.082-3.66-.752-4.814-.528-.705-1.252-1.014-2.669-1.014-.584 0-1.335.226-1.918.508-.39.196-.78.45-1.113.73-.472.452-.834 1.014-.834 1.661v10.838a.12.12 0 0 1-.112.113h-3.001a.12.12 0 0 1-.112-.113v-15.96c0-.056.056-.113.112-.113h1.25c.5 0 .973.338 1.112.816.112.338.195.648.195.648 0 .056.028.084.056.084.028.029.083 0 .11-.028 1.336-1.323 3.254-1.943 5.117-1.943 1.919 0 3.17.592 3.976 1.55l-.083-.114c.25.282.472.62.64.958.027.027.055.056.082.056.028 0 .084 0 .084-.029 1.223-1.52 3.614-2.391 5.56-2.391 4.449 0 5.811 3.123 5.811 6.192M99.91 9.288v2.533c0 .057-.056.112-.11.112h-6.257c-.056 0-.11.057-.11.113v19.198c0 .056-.057.113-.113.113h-3.224c-.056 0-.112-.057-.112-.113V12.046c0-.056-.056-.113-.111-.113h-6.84c-.055 0-.111-.055-.111-.112V9.288c0-.056.056-.113.11-.113h16.74c.027 0 .055 0 .082.029.056.028.056.056.056.084M52.836 15.03h3.087c.055 0 .11.056.11.112v16.073c0 .057-.055.113-.11.113h-3.087c-.055 0-.11-.056-.11-.113V15.143c0-.056.055-.112.11-.112"/>
</svg>
