<svg xmlns="http://www.w3.org/2000/svg" width="161" height="38" viewBox="0 0 161 38">
    <path fill="#007CFF" fill-rule="evenodd" d="M31.031 9.32l-5.737 5.865c.228 1.162.346 2.437.346 3.815 0 7.418-3.408 11.847-9.119 11.847-2.381 0-4.39-.779-5.907-2.262l19.88-20.317A17.269 17.269 0 0 0 28.67 5.58c-.287-.346-.589-.67-.898-.984l.002-.002c-.04-.041-.083-.08-.124-.121-.092-.09-.18-.187-.273-.275l-.006.005C24.485 1.45 20.775 0 16.521 0 11.606 0 7.414 1.93 4.398 5.58 1.56 9.014 0 13.78 0 19c0 3.47.692 6.735 1.987 9.544l5.768-5.895A20.705 20.705 0 0 1 7.454 19c0-3.413.679-6.174 2.02-8.205 1.573-2.381 4.01-3.64 7.047-3.64 2.365 0 4.333.761 5.83 2.18L2.514 29.607a17.271 17.271 0 0 0 1.884 2.812c.141.172.288.336.436.5l.004.005c.17.189.344.373.521.552l.066.068c.056.057.11.117.168.172l.006-.006C8.487 36.519 12.225 38 16.521 38c4.919 0 9.12-1.93 12.149-5.58 2.852-3.437 4.424-8.203 4.424-13.42 0-3.522-.719-6.838-2.063-9.68zM161 .916v36.21h-6.63l-10.072-13.967c-3.188-4.448-7.086-10.138-7.137-10.138h-.05c-.05 0 .05 5.224.05 12.414v11.691h-7.035V.915h6.63l10.274 14.122c2.43 3.259 6.883 9.725 6.934 9.725h.051c.05 0-.05-5.897-.05-12.001V.915H161zm-43.333 36.21h7.035V.915h-7.035v36.21zm-11.02-3.777c-1.923 2.225-6.124 4.501-10.73 4.501-10.172 0-18.372-7.915-18.372-18.83 0-10.913 8.2-18.828 18.372-18.828 7.035.052 12.906 3.776 16.095 9.57l-7.187 1.914c-1.924-2.69-5.416-4.397-8.908-4.397-6.63 0-11.034 4.863-11.034 11.742 0 7.19 4.86 11.794 11.44 11.794 6.073 0 9.261-3.414 10.375-6.208v-1.55h-9.82V17.21h15.843v19.915h-6.075c0-3 .052-3.725.052-3.777h-.052zM67.03 37.125h7.035V.915H67.03v36.21zM43.107 18.348h6.275c3.898 0 5.72-2.587 5.72-5.328 0-2.845-1.873-5.38-5.72-5.38h-6.275v10.708zm12.805 18.777l-7.035-12.363H43.107v12.363h-7.036V.915h12.4c8.707 0 13.92 4.81 13.92 12.105 0 4.966-2.38 8.587-6.682 10.397l8.099 13.708h-7.896z"/>
</svg>
