<svg xmlns="http://www.w3.org/2000/svg" width="127" height="30" viewBox="0 0 127 30">
    <path fill="#4CE5AB" fill-rule="evenodd" d="M86.532 4.205c-.007 1.627 1.249 2.82 2.955 2.814 1.724-.009 2.99-1.195 2.981-2.794-.01-1.64-1.239-2.805-2.957-2.802-1.735.001-2.973 1.156-2.979 2.782zm.375 25.572h2.762c1.633-.002 2.483-.856 2.485-2.505V9.498h-5.247v20.279zm-20.092-.048c.07.021.102.04.134.04 4.7.002 9.398.01 14.096-.003.944-.004 1.849-.737 1.958-1.677.103-.897.022-1.814.022-2.775h-11.01V2.264h-5.2v27.465zm35.823-22.822c.486-2.036 1.855-2.95 3.914-2.688.533.067 1.061.18 1.637.281.321-1.121.65-2.245.949-3.379.025-.096-.131-.316-.248-.36-2.884-1.114-5.716-1.085-8.372.623-2.02 1.297-2.83 3.367-3.18 5.65-.121.792-.138 1.601-.208 2.458h-2.613v3.964h2.672v16.321c.999 0 1.938.002 2.876 0 1.53-.006 2.385-.878 2.385-2.436.002-4.407 0-8.816 0-13.222v-.665c1.039 0 2.013.012 2.988-.011.166-.005.44-.12.477-.241.374-1.22.71-2.452 1.07-3.726h-4.671c.109-.912.132-1.762.324-2.569zm9.724 10.18c.242-2.784 2.7-4.88 5.435-4.657 2.564.21 4.34 2.173 4.16 4.657h-9.595zm.629 3.697c4.438 0 8.877-.006 13.315.008.395.002.541-.11.593-.51a11.669 11.669 0 0 0-.23-4.3c-.753-3.092-2.403-5.447-5.483-6.557-1.503-.542-3.063-.64-4.644-.488-2.202.212-4.187.965-5.807 2.51-2.612 2.489-3.613 5.61-3.353 9.177.325 4.478 2.986 7.678 7.309 8.725 3.4.824 6.756.449 10.069-.542 1.062-.316 1.058-.33 1.058-1.456V24.47c-.263.086-.441.145-.621.202-1.8.576-3.624 1.027-5.521 1.11-1.643.074-3.246-.078-4.724-.887-1.589-.87-2.494-2.199-2.648-4.111h.687zm-68.142 6.61c-.005.352.114.537.414.7 2.056 1.108 4.254 1.64 6.577 1.675 2.415.038 4.776-.245 6.964-1.363 2.799-1.427 4.329-3.725 4.391-6.9.06-3.073-1.355-5.359-4.036-6.752-1.447-.753-3.02-1.26-4.522-1.907-1.166-.502-2.347-.986-3.457-1.599-.867-.477-1.352-1.307-1.374-2.346-.028-1.377.833-2.512 2.33-3.028 1.656-.57 3.354-.437 5.026-.161 1.641.272 3.258.691 4.912 1.054V3.553c0-.86 0-.857-.809-1.188-1.82-.74-3.728-1.027-5.67-1.107-2.549-.104-5.004.247-7.28 1.518-4.861 2.714-5.333 9.595-.327 12.61 1.464.882 3.03 1.498 4.65 2.003 1.335.415 2.659.862 3.798 1.715 1.202.899 1.655 2.218 1.233 3.644-.427 1.442-1.528 2.147-2.883 2.476-2.07.505-4.136.27-6.157-.277-1.268-.343-2.495-.843-3.77-1.285 0 1.205.013 2.47-.01 3.733zM0 3.432c.226-.566.37-1.185.691-1.687.72-1.122 1.78-1.7 3.129-1.7 7.374.004 14.748.002 22.122.003 1.992 0 3.595 1.511 3.742 3.528a8.6 8.6 0 0 1 .022.635c.001 7.176-.04 14.352.023 21.528.023 2.601-1.866 4.316-4.215 4.26-3.038-.07-6.08-.017-9.12-.017h-.598V15.618H29.46l.042-.109c-4.872-4.128-9.745-8.254-14.634-12.397L.144 15.585h13.143c.013.237.029.406.029.577.001 2.645.003 5.29.001 7.934-.005 3.37-2.487 5.878-5.823 5.885L0 29.99V3.431z"/>
</svg>
