<svg xmlns="http://www.w3.org/2000/svg" width="154" height="36" viewBox="0 0 154 36">
    <path fill="#007CFF" fill-rule="evenodd" d="M104.928 5.046c-.008 1.95 1.514 3.386 3.584 3.377 2.091-.01 3.626-1.435 3.614-3.353-.012-1.969-1.502-3.366-3.585-3.364-2.105.002-3.605 1.39-3.613 3.34zm.454 30.688h3.35c1.981-.002 3.011-1.028 3.012-3.007.002-6.874.001-13.75.001-20.623v-.706h-6.363v24.336zm-24.363-.06c.085.027.124.05.163.05 5.698.003 11.395.012 17.094-.005 1.144-.004 2.24-.884 2.373-2.014.126-1.074.027-2.175.027-3.33H87.324V2.718h-6.305v32.958zM124.458 8.29c.59-2.444 2.25-3.54 4.746-3.226.647.08 1.287.217 1.987.337.388-1.345.787-2.695 1.15-4.055.03-.114-.16-.379-.3-.433-3.498-1.335-6.93-1.3-10.152.747-2.449 1.558-3.433 4.042-3.857 6.781-.147.952-.168 1.922-.252 2.952h-3.167v4.755h3.239v19.587c1.21 0 2.35.003 3.488 0 1.855-.007 2.89-1.056 2.892-2.925V16.143c1.258 0 2.44.015 3.621-.012.203-.005.534-.143.579-.29.455-1.462.862-2.94 1.299-4.47h-5.666c.133-1.095.16-2.113.393-3.082zm11.792 12.216c.294-3.34 3.275-5.858 6.59-5.589 3.11.252 5.264 2.609 5.045 5.589H136.25zm.762 4.435c5.382 0 10.764-.006 16.146.01.48.003.657-.13.72-.611a13.914 13.914 0 0 0-.279-5.162c-.914-3.709-2.914-6.536-6.649-7.868-1.822-.65-3.714-.766-5.632-.583-2.67.252-5.076 1.157-7.04 3.009-3.168 2.988-4.381 6.733-4.067 11.014.394 5.373 3.62 9.213 8.864 10.471 4.122.988 8.192.537 12.208-.65 1.288-.38 1.283-.397 1.283-1.748v-3.458l-.753.243c-2.181.69-4.394 1.232-6.694 1.334-1.993.088-3.936-.097-5.728-1.067-1.928-1.044-3.024-2.64-3.21-4.934h.83zm-82.628 7.934c-.007.421.138.644.5.837 2.495 1.33 5.16 1.97 7.976 2.013 2.93.045 5.792-.295 8.446-1.636 3.393-1.713 5.25-4.47 5.324-8.281.072-3.686-1.643-6.429-4.895-8.102-1.754-.903-3.66-1.512-5.482-2.289-1.415-.603-2.848-1.183-4.193-1.917-1.051-.573-1.64-1.568-1.665-2.817-.035-1.651 1.01-3.014 2.825-3.634 2.006-.683 4.067-.525 6.094-.192 1.99.327 3.952.83 5.958 1.264V4.264c0-1.033-.002-1.029-.983-1.425-2.206-.89-4.52-1.233-6.876-1.328-3.089-.126-6.066.295-8.827 1.82-5.894 3.256-6.466 11.514-.397 15.133 1.777 1.059 3.676 1.796 5.64 2.402 1.617.5 3.225 1.036 4.606 2.058 1.456 1.078 2.006 2.662 1.494 4.374-.518 1.732-1.853 2.576-3.495 2.972-2.512.604-5.016.323-7.467-.333-1.538-.412-3.025-1.013-4.572-1.542 0 1.445.016 2.962-.011 4.479zM0 4.116c.272-.678.447-1.421.838-2.024C1.71.747 2.994.053 4.631.054c8.942.003 17.883.001 26.826.002 2.416 0 4.357 1.814 4.538 4.235.018.253.026.507.026.76.001 8.612-.048 17.223.027 25.835.027 3.121-2.262 5.18-5.11 5.112-3.685-.085-7.374-.02-11.06-.02h-.725V18.742h16.571l.05-.13L18.03 3.734.174 18.703h15.938c.014.283.034.486.034.691.002 3.174.005 6.348.001 9.52-.005 4.045-3.016 7.056-7.06 7.064-3.03.005-6.058.007-9.087.011V4.116z"/>
</svg>
