<svg xmlns="http://www.w3.org/2000/svg" width="22" height="24" viewBox="0 0 22 24">
    <path fill="#FFF" fill-opacity=".5" fill-rule="evenodd" d="M15.646 19.692C14.289 20.517 12.702 21 11 21c-4.962 0-9-4.038-9-9 0-1.054.19-2.06.524-3h-2.1C.153 9.955 0 10.958 0 12c0 6.075 4.924 11 11 11 2.126 0 4.098-.621 5.78-1.667L18.632 24l2.153-6.99h-6.994l1.855 2.682zM22 12c0 1.042-.155 2.045-.425 3h-2.102c.335-.941.527-1.948.527-3 0-4.962-4.038-9-9-9-1.707 0-3.296.484-4.655 1.314L8.203 7H1.208L3.36 0l1.849 2.672C6.894 1.624 8.869 1 11 1c6.074 0 11 4.924 11 11z"/>
</svg>
