<svg xmlns="http://www.w3.org/2000/svg" width="24" height="24" viewBox="0 0 24 24">
    <path fill="#FFF" fill-opacity=".5" fill-rule="evenodd" d="M13 16.947V18h-1v-.998c-1.035-.018-2.106-.265-3-.727l.455-1.644c.956.371 2.229.765 3.225.54 1.149-.26 1.384-1.443.114-2.011-.931-.434-3.778-.805-3.778-3.243 0-1.363 1.039-2.583 2.984-2.85V6h1v1.018c.724.019 1.536.145 2.442.42l-.362 1.647c-.768-.27-1.617-.515-2.443-.465-1.489.087-1.62 1.376-.581 1.916 1.712.805 3.944 1.402 3.944 3.547.002 1.718-1.343 2.632-3 2.864M12 0C5.373 0 0 5.373 0 12s5.373 12 12 12 12-5.373 12-12S18.627 0 12 0"/>
</svg>
