<svg xmlns="http://www.w3.org/2000/svg" width="24" height="22" viewBox="0 0 24 22">
    <path fill="#FFF" fill-opacity=".5" fill-rule="evenodd" d="M5.5 18c2.081 0 4.239-.484 5.5-1.401v.651c0 1.243-2.56 2.25-5.5 2.25-2.939 0-5.5-1.007-5.5-2.25v-.651C1.26 17.516 3.42 18 5.5 18m0-2.5c2.081 0 4.239-.484 5.5-1.402v.652C11 15.993 8.44 17 5.5 17 2.561 17 0 15.993 0 14.75v-.652c1.26.918 3.42 1.402 5.5 1.402m0 5c2.081 0 4.239-.484 5.5-1.402v.652C11 20.993 8.44 22 5.5 22 2.561 22 0 20.993 0 19.75v-.652c1.26.918 3.42 1.402 5.5 1.402m0-10.5C2.561 10 0 11.007 0 12.25s2.561 2.25 5.5 2.25c2.94 0 5.5-1.007 5.5-2.25S8.44 10 5.5 10m13-2c2.081 0 4.239-.484 5.5-1.401v.651c0 1.243-2.56 2.25-5.5 2.25-2.939 0-5.5-1.007-5.5-2.25v-.651C14.26 7.516 16.42 8 18.5 8m0-2.5c2.081 0 4.239-.484 5.5-1.402v.652C24 5.993 21.44 7 18.5 7 15.561 7 13 5.993 13 4.75v-.652c1.26.918 3.42 1.402 5.5 1.402m0 5c2.081 0 4.239-.484 5.5-1.402v.652c0 1.243-2.56 2.25-5.5 2.25-2.939 0-5.5-1.007-5.5-2.25v-.652c1.26.918 3.42 1.402 5.5 1.402m0-10.5C15.561 0 13 1.007 13 2.25s2.561 2.25 5.5 2.25c2.94 0 5.5-1.007 5.5-2.25S21.44 0 18.5 0m0 13c2.081 0 4.239-.484 5.5-1.401v.651c0 1.243-2.56 2.25-5.5 2.25-2.939 0-5.5-1.007-5.5-2.25v-.651c1.26.917 3.42 1.401 5.5 1.401m0 5c2.081 0 4.239-.484 5.5-1.401v.651c0 1.243-2.56 2.25-5.5 2.25-2.939 0-5.5-1.007-5.5-2.25v-.651c1.26.917 3.42 1.401 5.5 1.401m0-2.5c2.081 0 4.239-.484 5.5-1.402v.652c0 1.242-2.56 2.25-5.5 2.25-2.939 0-5.5-1.007-5.5-2.25v-.652c1.26.918 3.42 1.402 5.5 1.402m0 5c2.081 0 4.239-.484 5.5-1.402v.652c0 1.243-2.56 2.25-5.5 2.25-2.939 0-5.5-1.007-5.5-2.25v-.652c1.26.918 3.42 1.402 5.5 1.402"/>
</svg>
